<?xml version="1.0" encoding="utf-8"?>
<!-- Generator: Adobe Illustrator 24.0.2, SVG Export Plug-In . SVG Version: 6.00 Build 0)  -->
<svg version="1.1" id="Layer_1" xmlns="http://www.w3.org/2000/svg" xmlns:xlink="http://www.w3.org/1999/xlink" x="0px" y="0px"
	 viewBox="0 0 612 286.6" style="enable-background:new 0 0 612 286.6;" xml:space="preserve">
<style type="text/css">
	.st0{fill:#FFFFFF;}
	.st1{fill:url(#SVGID_1_);}
	.st2{fill:url(#SVGID_2_);}
	.st3{fill:#106AD2;}
	.st4{clip-path:url(#SVGID_4_);fill:none;stroke:#00FFA9;stroke-width:18.8841;stroke-miterlimit:10;}
	.st5{clip-path:url(#SVGID_4_);fill:none;stroke:#00FFA9;stroke-width:26.5961;stroke-miterlimit:10;}
	.st6{clip-path:url(#SVGID_4_);fill:none;stroke:url(#SVGID_5_);stroke-width:11.5635;stroke-linejoin:bevel;stroke-miterlimit:10;}
	.st7{clip-path:url(#SVGID_4_);fill:#00FFA9;stroke:#00FFA9;stroke-width:18.8841;stroke-miterlimit:10;}
	.st8{fill:url(#SVGID_6_);stroke:url(#SVGID_7_);stroke-width:0.5;stroke-miterlimit:10;}
</style>
<rect class="st0" width="612" height="286.6"/>
<title>BG</title>
<desc>Created with Sketch.</desc>
<title>BG</title>
<desc>Created with Sketch.</desc>
<g id="BACKGROUND_1">
	<g>
		<g>
			<g>
				<g>
					
						<radialGradient id="SVGID_1_" cx="-846.381" cy="1338.9984" r="0.2756" gradientTransform="matrix(0.3186 0 0 0.3186 0.3407 -715.5179)" gradientUnits="userSpaceOnUse">
						<stop  offset="0.2473" style="stop-color:#FFFFFF"/>
						<stop  offset="0.6667" style="stop-color:#5E9C70"/>
						<stop  offset="1" style="stop-color:#000006"/>
					</radialGradient>
					<path class="st1" d="M-269.4-288.8v-0.1l0,0h0.1l0,0v0.1l0,0C-269.3-288.8-269.3-288.8-269.4-288.8L-269.4-288.8
						C-269.3-288.8-269.3-288.8-269.4-288.8z"/>
				</g>
				<g>
					
						<radialGradient id="SVGID_2_" cx="-880.8292" cy="1250.6918" r="0.9127" gradientTransform="matrix(0.3186 0 0 0.3186 0.3407 -715.5179)" gradientUnits="userSpaceOnUse">
						<stop  offset="0.2473" style="stop-color:#FFFFFF"/>
						<stop  offset="0.6667" style="stop-color:#5E9C70"/>
						<stop  offset="1" style="stop-color:#000006"/>
					</radialGradient>
					<path class="st2" d="M-280.5-316.8c-0.1-0.1-0.2-0.3-0.1-0.4l0,0c0.1-0.1,0.3-0.2,0.4-0.1l0,0c0.1,0.1,0.2,0.3,0.1,0.4l0,0
						c0,0.1-0.1,0.1-0.2,0.1l0,0C-280.3-316.8-280.4-316.8-280.5-316.8z"/>
				</g>
			</g>
		</g>
	</g>
</g>
<g id="DESIGNED_BY_FREEPIK">
</g>
<g>
	<rect x="135.1" y="262.9" class="st3" width="1" height="1"/>
	<rect x="135.1" y="265.4" class="st3" width="1" height="1"/>
	<rect x="135.1" y="268" class="st3" width="1" height="1"/>
	<rect x="135.1" y="270.5" class="st3" width="1" height="1"/>
	<rect x="135.1" y="273" class="st3" width="1" height="1"/>
	<rect x="135.1" y="275.6" class="st3" width="1" height="1"/>
	<rect x="135.1" y="278.1" class="st3" width="1" height="1"/>
	<rect x="135.1" y="280.7" class="st3" width="1" height="1"/>
	<rect x="135.1" y="265.5" class="st3" width="1" height="1"/>
	<rect x="135.1" y="268" class="st3" width="1" height="1"/>
	<rect x="135.1" y="270.6" class="st3" width="1" height="1"/>
	<rect x="135.1" y="273.1" class="st3" width="1" height="1"/>
	<rect x="135.1" y="275.7" class="st3" width="1" height="1"/>
	<rect x="135.1" y="278.2" class="st3" width="1" height="1"/>
	<rect x="135.1" y="280.8" class="st3" width="1" height="1"/>
	<rect x="135.1" y="283.3" class="st3" width="1" height="1"/>
	<rect x="135.1" y="257.7" class="st3" width="1" height="1"/>
	<rect x="135.1" y="260.3" class="st3" width="1" height="1"/>
	<rect x="135.1" y="262.8" class="st3" width="1" height="1"/>
	<rect x="135.1" y="265.3" class="st3" width="1" height="1"/>
	<rect x="135.1" y="267.9" class="st3" width="1" height="1"/>
	<rect x="135.1" y="270.4" class="st3" width="1" height="1"/>
	<rect x="135.1" y="273" class="st3" width="1" height="1"/>
	<rect x="135.1" y="275.5" class="st3" width="1" height="1"/>
	<rect x="135.1" y="260.3" class="st3" width="1" height="1"/>
	<rect x="135.1" y="262.9" class="st3" width="1" height="1"/>
	<rect x="135.1" y="265.4" class="st3" width="1" height="1"/>
	<rect x="135.1" y="268" class="st3" width="1" height="1"/>
	<rect x="135.1" y="270.5" class="st3" width="1" height="1"/>
	<rect x="135.1" y="273.1" class="st3" width="1" height="1"/>
	<rect x="135.1" y="275.6" class="st3" width="1" height="1"/>
	<rect x="135.1" y="278.2" class="st3" width="1" height="1"/>
	<path class="st3" d="M131.8,269.7c-0.9-0.4-1.7-0.9-2.3-1.4c-0.3-0.3-0.5-0.6-0.6-0.9c-0.1-0.3-0.2-0.7-0.2-1
		c0-0.5,0.2-1.1,0.5-1.5c0.5-0.7,1.4-1.3,2.5-1.8c1.1-0.4,2.4-0.7,3.8-0.7c1.9,0,3.6,0.5,4.8,1.2c0.6,0.4,1.1,0.8,1.5,1.3
		c0.3,0.5,0.5,1,0.5,1.5c0,0.3-0.1,0.7-0.2,1c-0.2,0.5-0.6,0.9-1.1,1.3c-0.5,0.4-1.1,0.7-1.8,1l0.1,0.2c1-0.4,1.8-0.9,2.3-1.5
		c0.3-0.3,0.5-0.6,0.7-1c0.2-0.3,0.2-0.7,0.2-1.1c0-0.6-0.2-1.2-0.6-1.7c-0.5-0.8-1.4-1.4-2.6-1.8c-1.1-0.4-2.5-0.7-3.9-0.7
		c-1.9,0-3.7,0.5-4.9,1.2c-0.6,0.4-1.2,0.8-1.5,1.3c-0.4,0.5-0.6,1.1-0.6,1.7c0,0.4,0.1,0.7,0.2,1.1c0.2,0.5,0.6,1,1.1,1.4
		c0.5,0.4,1.1,0.8,1.9,1L131.8,269.7L131.8,269.7z"/>
	<path class="st3" d="M133.1,274.9c-0.6-0.2-1.2-0.6-1.5-1c-0.2-0.2-0.3-0.4-0.4-0.6c-0.1-0.2-0.1-0.4-0.1-0.7c0-0.4,0.1-0.7,0.4-1
		c0.3-0.5,0.9-0.9,1.7-1.2c0.7-0.3,1.6-0.5,2.6-0.5c1.3,0,2.4,0.3,3.3,0.8c0.4,0.2,0.8,0.5,1,0.9c0.2,0.3,0.4,0.7,0.4,1
		c0,0.2-0.1,0.5-0.1,0.7c-0.1,0.3-0.4,0.6-0.7,0.9c-0.3,0.3-0.7,0.5-1.2,0.7l0.1,0.2c0.7-0.3,1.2-0.6,1.6-1c0.2-0.2,0.4-0.4,0.5-0.7
		c0.1-0.2,0.2-0.5,0.2-0.8c0-0.4-0.1-0.8-0.4-1.2c-0.4-0.5-1-1-1.8-1.3c-0.8-0.3-1.7-0.5-2.7-0.5c-1.3,0-2.5,0.3-3.4,0.8
		c-0.4,0.3-0.8,0.6-1,0.9c-0.2,0.3-0.4,0.7-0.4,1.2c0,0.3,0.1,0.5,0.2,0.8c0.2,0.4,0.4,0.7,0.8,1c0.4,0.3,0.8,0.5,1.3,0.7
		L133.1,274.9L133.1,274.9z"/>
	<path class="st3" d="M134.3,277.7c-0.4-0.1-0.6-0.3-0.8-0.5c-0.1-0.1-0.2-0.2-0.2-0.3c-0.1-0.1-0.1-0.2-0.1-0.4
		c0-0.2,0.1-0.4,0.2-0.6c0.2-0.3,0.5-0.5,0.9-0.7c0.4-0.2,0.9-0.3,1.4-0.3c0.7,0,1.4,0.2,1.8,0.4c0.2,0.1,0.4,0.3,0.5,0.5
		c0.1,0.2,0.2,0.4,0.2,0.6c0,0.1,0,0.2-0.1,0.4c-0.1,0.2-0.2,0.3-0.4,0.5c-0.2,0.1-0.4,0.3-0.7,0.4l0.1,0.2c0.4-0.1,0.7-0.3,0.9-0.6
		c0.1-0.1,0.2-0.3,0.3-0.4c0.1-0.1,0.1-0.3,0.1-0.4c0-0.2-0.1-0.5-0.2-0.7c-0.2-0.3-0.6-0.6-1-0.7c-0.4-0.2-1-0.3-1.5-0.3
		c-0.7,0-1.4,0.2-1.9,0.5c-0.2,0.1-0.5,0.3-0.6,0.5c-0.1,0.2-0.2,0.4-0.2,0.7c0,0.2,0,0.3,0.1,0.4c0.1,0.2,0.2,0.4,0.5,0.6
		c0.2,0.2,0.5,0.3,0.7,0.4L134.3,277.7L134.3,277.7z"/>
</g>
<g>
	<defs>
		
			<rect id="SVGID_3_" x="443.3" y="-8.4" transform="matrix(6.123234e-17 -1 1 6.123234e-17 443.4005 516.3968)" width="73.3" height="89.8"/>
	</defs>
	<clipPath id="SVGID_4_">
		<use xlink:href="#SVGID_3_"  style="overflow:visible;"/>
	</clipPath>
	<path class="st4" d="M528.1,28.1c7.7-7,12.6-17.1,14.4-27.3c3.6-19.9-3.9-41.4-21.1-52.7c-16.2-10.7-38.7-11.6-54.8-0.1
		C450.8-40.8,441.4-20,444.4-0.8c3.3,21.2,22,37.7,42.9,40.4"/>
	<path class="st5" d="M532,27.4"/>
	<path class="st4" d="M487.3,39.6c0.3,0,0.7,0.1,1,0.1c2.6,0.3,7.2,0.3,9.8,0l-1.9,0.2"/>
	
		<linearGradient id="SVGID_5_" gradientUnits="userSpaceOnUse" x1="-2428.353" y1="5658.1182" x2="-2365.1765" y2="5658.1182" gradientTransform="matrix(0 -1 1 0 -5171.2612 -2357.1541)">
		<stop  offset="0" style="stop-color:#8725C1"/>
		<stop  offset="8.048175e-02" style="stop-color:#7B2CC3"/>
		<stop  offset="0.2248" style="stop-color:#5C3EC7"/>
		<stop  offset="0.415" style="stop-color:#2A5BCE"/>
		<stop  offset="0.5056" style="stop-color:#106AD2"/>
		<stop  offset="0.5973" style="stop-color:#0E80CC"/>
		<stop  offset="0.7889" style="stop-color:#07B9BC"/>
		<stop  offset="1" style="stop-color:#00FFA9"/>
	</linearGradient>
	<circle class="st6" cx="486.9" cy="39.6" r="25.8"/>
	<path class="st4" d="M496.2,39.9c11.1-1.2,23.4-4.1,31.9-11.8"/>
	<circle class="st7" cx="311.8" cy="178.6" r="61.4"/>
</g>
<radialGradient id="SVGID_6_" cx="305.9009" cy="286.6" r="216.3747" gradientUnits="userSpaceOnUse">
	<stop  offset="0" style="stop-color:#6CDBAE"/>
	<stop  offset="1" style="stop-color:#7148C0"/>
</radialGradient>
<radialGradient id="SVGID_7_" cx="305.9009" cy="286.6" r="216.3747" gradientUnits="userSpaceOnUse">
	<stop  offset="0" style="stop-color:#6CDBAE"/>
	<stop  offset="1" style="stop-color:#7148C0"/>
</radialGradient>
<line class="st8" x1="-0.1" y1="286.6" x2="611.9" y2="286.6"/>
</svg>
