<?xml version="1.0" encoding="utf-8"?>
<!-- Generator: Adobe Illustrator 24.0.2, SVG Export Plug-In . SVG Version: 6.00 Build 0)  -->
<svg version="1.1" id="Layer_1" xmlns="http://www.w3.org/2000/svg" xmlns:xlink="http://www.w3.org/1999/xlink" x="0px" y="0px"
	 viewBox="0 0 612 286.6" style="enable-background:new 0 0 612 286.6;" xml:space="preserve">
<style type="text/css">
	.st0{fill:#FFFFFF;}
	.st1{fill:url(#SVGID_1_);}
	.st2{fill:url(#SVGID_2_);}
	.st3{clip-path:url(#SVGID_4_);fill:none;stroke:#00FFA9;stroke-width:18.8841;stroke-miterlimit:10;}
	.st4{clip-path:url(#SVGID_6_);fill:none;stroke:#00FFA9;stroke-width:26.5961;stroke-miterlimit:10;}
	.st5{clip-path:url(#SVGID_8_);fill:none;stroke:#00FFA9;stroke-width:18.8841;stroke-miterlimit:10;}
	
		.st6{clip-path:url(#SVGID_10_);fill:none;stroke:url(#SVGID_11_);stroke-width:11.5635;stroke-linejoin:bevel;stroke-miterlimit:10;}
	.st7{clip-path:url(#SVGID_13_);fill:none;stroke:#00FFA9;stroke-width:18.8841;stroke-miterlimit:10;}
	.st8{clip-path:url(#SVGID_15_);fill:#00FFA9;stroke:#00FFA9;stroke-width:18.8841;stroke-miterlimit:10;}
</style>
<rect class="st0" width="612" height="286.6"/>
<title>BG</title>
<desc>Created with Sketch.</desc>
<title>BG</title>
<desc>Created with Sketch.</desc>
<g id="BACKGROUND_1">
	<g>
		<g>
			<g>
				<g>
					
						<radialGradient id="SVGID_1_" cx="-846.381" cy="-1589.9589" r="0.2756" gradientTransform="matrix(0.3186 0 0 -0.3186 0.3407 -795.4739)" gradientUnits="userSpaceOnUse">
						<stop  offset="0.2473" style="stop-color:#FFFFFF"/>
						<stop  offset="0.6667" style="stop-color:#5E9C70"/>
						<stop  offset="1" style="stop-color:#000006"/>
					</radialGradient>
					<path class="st1" d="M-269.4-288.8v-0.1l0,0h0.1l0,0v0.1l0,0C-269.3-288.8-269.3-288.8-269.4-288.8L-269.4-288.8
						C-269.3-288.8-269.3-288.8-269.4-288.8z"/>
				</g>
				<g>
					
						<radialGradient id="SVGID_2_" cx="-880.8292" cy="-1501.6522" r="0.9127" gradientTransform="matrix(0.3186 0 0 -0.3186 0.3407 -795.4739)" gradientUnits="userSpaceOnUse">
						<stop  offset="0.2473" style="stop-color:#FFFFFF"/>
						<stop  offset="0.6667" style="stop-color:#5E9C70"/>
						<stop  offset="1" style="stop-color:#000006"/>
					</radialGradient>
					<path class="st2" d="M-280.5-316.8c-0.1-0.1-0.2-0.3-0.1-0.4l0,0c0.1-0.1,0.3-0.2,0.4-0.1l0,0c0.1,0.1,0.2,0.3,0.1,0.4l0,0
						c0,0.1-0.1,0.1-0.2,0.1l0,0C-280.3-316.8-280.4-316.8-280.5-316.8z"/>
				</g>
			</g>
		</g>
	</g>
</g>
<g id="DESIGNED_BY_FREEPIK">
</g>
<g>
	<g>
		<defs>
			<rect id="SVGID_3_" x="435" y="-0.2" width="89.8" height="73.3"/>
		</defs>
		<clipPath id="SVGID_4_">
			<use xlink:href="#SVGID_3_"  style="overflow:visible;"/>
		</clipPath>
		<path class="st3" d="M528.1,28.1c7.7-7,12.6-17.1,14.4-27.3c3.6-19.9-3.9-41.4-21.1-52.7c-16.2-10.7-38.7-11.6-54.8-0.1
			c-15.8,11.2-25.2,32-22.2,51.2c3.3,21.2,22,37.7,42.9,40.4"/>
	</g>
	<g>
		<defs>
			<rect id="SVGID_5_" x="435" y="-0.2" width="89.8" height="73.3"/>
		</defs>
		<clipPath id="SVGID_6_">
			<use xlink:href="#SVGID_5_"  style="overflow:visible;"/>
		</clipPath>
		<path class="st4" d="M532,27.4"/>
	</g>
	<g>
		<defs>
			<rect id="SVGID_7_" x="435" y="-0.2" width="89.8" height="73.3"/>
		</defs>
		<clipPath id="SVGID_8_">
			<use xlink:href="#SVGID_7_"  style="overflow:visible;"/>
		</clipPath>
		<path class="st5" d="M487.3,39.6c0.3,0,0.7,0.1,1,0.1c2.6,0.3,7.2,0.3,9.8,0l-1.9,0.2"/>
	</g>
	<g>
		<defs>
			<rect id="SVGID_9_" x="435" y="-0.2" width="89.8" height="73.3"/>
		</defs>
		<clipPath id="SVGID_10_">
			<use xlink:href="#SVGID_9_"  style="overflow:visible;"/>
		</clipPath>
		
			<linearGradient id="SVGID_11_" gradientUnits="userSpaceOnUse" x1="-2680.3357" y1="-5118.1611" x2="-2617.1724" y2="-5118.1611" gradientTransform="matrix(0 -1 -1 0 -4631.2612 -2609.1541)">
			<stop  offset="0" style="stop-color:#8725C1"/>
			<stop  offset="8.048175e-02" style="stop-color:#7B2CC3"/>
			<stop  offset="0.2248" style="stop-color:#5C3EC7"/>
			<stop  offset="0.415" style="stop-color:#2A5BCE"/>
			<stop  offset="0.5056" style="stop-color:#106AD2"/>
			<stop  offset="0.5973" style="stop-color:#0E80CC"/>
			<stop  offset="0.7889" style="stop-color:#07B9BC"/>
			<stop  offset="1" style="stop-color:#00FFA9"/>
		</linearGradient>
		
			<ellipse transform="matrix(0.2425 -0.9701 0.9701 0.2425 330.3918 502.358)" class="st6" cx="486.9" cy="39.6" rx="25.8" ry="25.8"/>
	</g>
	<g>
		<defs>
			<rect id="SVGID_12_" x="435" y="-0.2" width="89.8" height="73.3"/>
		</defs>
		<clipPath id="SVGID_13_">
			<use xlink:href="#SVGID_12_"  style="overflow:visible;"/>
		</clipPath>
		<path class="st7" d="M496.2,39.9c11.1-1.2,23.4-4.1,31.9-11.8"/>
	</g>
	<g>
		<defs>
			<rect id="SVGID_14_" x="435" y="-0.2" width="89.8" height="73.3"/>
		</defs>
		<clipPath id="SVGID_15_">
			<use xlink:href="#SVGID_14_"  style="overflow:visible;"/>
		</clipPath>
		<circle class="st8" cx="311.8" cy="178.6" r="61.4"/>
	</g>
</g>
</svg>
