<?xml version="1.0" encoding="utf-8"?>
<!-- Generator: Adobe Illustrator 24.0.2, SVG Export Plug-In . SVG Version: 6.00 Build 0)  -->
<svg version="1.1" id="Layer_1" xmlns="http://www.w3.org/2000/svg" xmlns:xlink="http://www.w3.org/1999/xlink" x="0px" y="0px"
	 viewBox="0 0 612 286.6" style="enable-background:new 0 0 612 286.6;" xml:space="preserve">
<style type="text/css">
	.st0{fill:url(#Rectangle-2-Copy-18_1_);}
	.st1{opacity:9.000000e-02;fill:url(#Combined-Shape_1_);enable-background:new    ;}
	.st2{fill:url(#Path_1_);}
	.st3{opacity:0.2564;fill:url(#Fill-1_1_);enable-background:new    ;}
	.st4{opacity:0.5578;}
	.st5{fill:url(#Oval_2_);}
	.st6{fill:url(#Oval_3_);}
	.st7{fill:#FFFFFF;}
	.st8{fill:#8DA8FF;}
	.st9{fill:#2791F7;}
	.st10{fill:url(#Path_3_);}
	.st11{fill:url(#Path_4_);}
	.st12{opacity:0.4486;}
	.st13{fill:url(#Path_5_);}
	.st14{fill:url(#Path_6_);}
	.st15{opacity:0.2;}
	.st16{fill:#A3A3A3;}
	.st17{fill:#106AD2;}
	.st18{fill:url(#Path_7_);}
	.st19{fill:url(#Path_8_);}
	.st20{fill:url(#SVGID_1_);}
	.st21{fill:url(#SVGID_2_);}
	.st22{opacity:0.21;fill:#162E66;fill-opacity:0.651;enable-background:new    ;}
	.st23{fill:none;stroke:#FFFFFF;stroke-width:1.1654;stroke-miterlimit:10;}
	.st24{clip-path:url(#SVGID_4_);fill:none;stroke:#00FFA9;stroke-width:3.527;stroke-miterlimit:10;}
	.st25{clip-path:url(#SVGID_4_);fill:none;stroke:#00FFA9;stroke-width:219.0415;stroke-miterlimit:10;}
	.st26{clip-path:url(#SVGID_4_);fill:none;stroke:#00FFA9;stroke-width:3;stroke-miterlimit:10;}
	.st27{clip-path:url(#SVGID_4_);fill:none;stroke:url(#SVGID_5_);stroke-width:2;stroke-linejoin:bevel;stroke-miterlimit:10;}
</style>
<title>BG</title>
<desc>Created with Sketch.</desc>
<g id="Page-1">
	<g id="Home-Page-Design---Appsero" transform="translate(0.000000, -5380.000000)">
		<g id="BG" transform="translate(-107.000000, 5372.972411)">
			<g transform="translate(0.000000, 7.027589)">
				<g id="Group-29" transform="translate(107.000000, 0.000000)">
					
						<linearGradient id="Rectangle-2-Copy-18_1_" gradientUnits="userSpaceOnUse" x1="-150.6543" y1="1806.7015" x2="2295.7812" y2="1772.5405" gradientTransform="matrix(0.3186 0 0 0.3186 0.3407 -427.5268)">
						<stop  offset="0" style="stop-color:#6B3AC8"/>
						<stop  offset="0.2995" style="stop-color:#6B3AC8;stop-opacity:0.99"/>
						<stop  offset="0.6411" style="stop-color:#09C0C7"/>
						<stop  offset="1" style="stop-color:#09C0C7"/>
					</linearGradient>
					<polygon id="Rectangle-2-Copy-18" class="st0" points="0,-0.2 612,-0.1 612,286.5 0,286.5 					"/>
					
						<radialGradient id="Combined-Shape_1_" cx="649.0639" cy="602.9518" r="1.8423" gradientTransform="matrix(53.8154 -26.2861 -26.2861 -53.8153 -18814.9375 49783.7969)" gradientUnits="userSpaceOnUse">
						<stop  offset="0" style="stop-color:#0037BF"/>
						<stop  offset="0.11" style="stop-color:#013DC0"/>
						<stop  offset="0.25" style="stop-color:#054FC2"/>
						<stop  offset="0.42" style="stop-color:#0A6BC6"/>
						<stop  offset="0.61" style="stop-color:#1294CB"/>
						<stop  offset="0.81" style="stop-color:#1CC6D2"/>
						<stop  offset="1" style="stop-color:#27FFD9"/>
					</radialGradient>
					<path id="Combined-Shape" class="st1" d="M423.6,242.3c26.8,10.5,50.6,25.6,70.6,44H186C248.2,229.4,339.8,209.4,423.6,242.3z"
						/>
					<g id="Globe" transform="translate(483.000000, 857.000000)">
						
							<radialGradient id="Path_1_" cx="-1776.9575" cy="-288.3985" r="1.935" gradientTransform="matrix(11.7876 0 0 -11.7876 20621.9258 -3978.6179)" gradientUnits="userSpaceOnUse">
							<stop  offset="0" style="stop-color:#AE36E5"/>
							<stop  offset="0.17" style="stop-color:#B23BE4"/>
							<stop  offset="0.38" style="stop-color:#BE4BE3"/>
							<stop  offset="0.61" style="stop-color:#D164E0"/>
							<stop  offset="0.86" style="stop-color:#EC87DC"/>
							<stop  offset="1" style="stop-color:#FF9FD9"/>
						</radialGradient>
						<path id="Path_2_" class="st2" d="M-302.8-585c0,5-3,9.5-7.6,11.5c-4.6,1.9-9.9,0.9-13.5-2.6s-4.6-8.9-2.7-13.5
							c1.9-4.7,6.4-7.6,11.4-7.6C-308.4-597.3-302.8-591.8-302.8-585L-302.8-585z"/>
					</g>
				</g>
				
					<linearGradient id="Fill-1_1_" gradientUnits="userSpaceOnUse" x1="1192.6145" y1="604.3752" x2="1191.9586" y2="604.6246" gradientTransform="matrix(-163.7522 0 0 -108.4104 195392.8125 65760.9609)">
					<stop  offset="0" style="stop-color:#000000;stop-opacity:0"/>
					<stop  offset="1" style="stop-color:#FFFFFF"/>
				</linearGradient>
				<path id="Fill-1" class="st3" d="M171.2,185.5c3.5,8.6,5.9,18.1,13.6,24.1l0,0c5.7,4.5,13.4,5.9,20.1,8.3l0,0
					c7.1,2.5,14.1,5.3,20.1,9.8l0,0c5.5,4.2,10.7,9.2,11.6,16.5l0,0c1.6,12.7-9.2,20.9-20.3,23.8l0,0c-8.4,2.2-24.5,3-34.6,10.4l0,0
					H72.9v-72.1c0.1-0.1,0.2-0.2,0.3-0.2l0,0c9.3-3.2,13.5-2.2,20.6-2l0,0c12.1,0.4,22.9-5.8,30-15.3l0,0
					c4.8-6.5,9.2-14.5,17.3-17.4l0,0c2.7-1,5.4-1.4,8.2-1.4l0,0C158.3,170.1,167,175.3,171.2,185.5"/>
			</g>
		</g>
	</g>
</g>
<title>BG</title>
<desc>Created with Sketch.</desc>
<g id="Page-1_1_">
	<g id="Home-Page-Design---Appsero_1_" transform="translate(-178.000000, -5427.000000)">
		<g id="BG_1_" transform="translate(174.000000, 5426.972411)">
			<g id="Asset-1" transform="translate(0.000000, 369.027589)" class="st4">
				
					<linearGradient id="Oval_2_" gradientUnits="userSpaceOnUse" x1="623.0994" y1="248.1316" x2="623.358" y2="247.0546" gradientTransform="matrix(2.3502 -9.7891 -9.7891 -2.3502 978.8876 6450.6768)">
					<stop  offset="0" style="stop-color:#0575E6"/>
					<stop  offset="1" style="stop-color:#021B79"/>
				</linearGradient>
				<circle id="Oval" class="st5" cx="19.8" cy="-232.1" r="5.6"/>
			</g>
			<g id="Asset-1-Copy-3" transform="translate(801.000000, 796.027589)">
				
					<linearGradient id="Oval_3_" gradientUnits="userSpaceOnUse" x1="-3518.8762" y1="-169.974" x2="-3518.6174" y2="-171.0516" gradientTransform="matrix(0.6629 -2.761 -2.761 -0.6629 1358.3297 -10341.6572)">
					<stop  offset="0" style="stop-color:#0575E6"/>
					<stop  offset="1" style="stop-color:#021B79"/>
				</linearGradient>
				<circle id="Oval_1_" class="st6" cx="-503.5" cy="-513.4" r="1.6"/>
			</g>
			<circle id="Oval_6_" class="st7" cx="556" cy="134.1" r="0.7"/>
			<circle id="Oval-Copy-128" class="st7" cx="564.8" cy="141.2" r="0.7"/>
			<circle id="Oval-Copy-129" class="st7" cx="556.7" cy="150.4" r="0.7"/>
			<circle id="Oval-Copy-99" class="st7" cx="575.4" cy="32.1" r="0.7"/>
			<circle id="Oval_7_" class="st7" cx="473.4" cy="74.5" r="0.7"/>
			<circle id="Oval-Copy-86" class="st7" cx="495.7" cy="36.4" r="0.7"/>
			<circle id="Oval-Copy-106" class="st7" cx="167.1" cy="7.4" r="0.7"/>
			<circle id="Oval-Copy-104" class="st7" cx="110.2" cy="39.6" r="0.7"/>
			<circle id="Oval-Copy-107" class="st7" cx="77.4" cy="65.7" r="0.7"/>
			<circle id="Oval-Copy-108" class="st8" cx="182.2" cy="231.9" r="0.7"/>
			<circle id="Oval-Copy-116" class="st8" cx="221.4" cy="233.3" r="0.7"/>
			<circle id="Oval-Copy-113" class="st8" cx="146.2" cy="229.1" r="0.7"/>
			<circle id="Oval-Copy-120" class="st8" cx="156.8" cy="279.5" r="0.7"/>
			<circle id="Oval-Copy-112" class="st8" cx="165" cy="255.9" r="0.7"/>
			<circle id="Oval-Copy-118" class="st8" cx="122.2" cy="234.8" r="0.7"/>
			<circle id="Oval-Copy-121" class="st8" cx="99" cy="62.5" r="0.7"/>
			<circle id="Oval-Copy-125" class="st8" cx="54.5" cy="75.6" r="0.7"/>
			<circle id="Oval-Copy-122" class="st8" cx="109.5" cy="25.8" r="0.7"/>
			<circle id="Oval-Copy-123" class="st8" cx="86.2" cy="27.2" r="0.7"/>
			<circle id="Oval-Copy-119" class="st8" cx="107.4" cy="275" r="0.7"/>
			<circle id="Oval-Copy-109" class="st8" cx="33.3" cy="201.6" r="0.7"/>
			<circle id="Oval-Copy-105" class="st7" cx="90.5" cy="240" r="0.7"/>
			<circle id="Oval-Copy-114" class="st7" cx="166.4" cy="241.4" r="0.7"/>
			<circle id="Oval-Copy-115" class="st7" cx="197.1" cy="254.5" r="0.7"/>
			<circle id="Oval-Copy-117" class="st7" cx="132.5" cy="268.6" r="0.7"/>
			<circle id="Oval-Copy-87" class="st9" cx="237.7" cy="0.4" r="0.7"/>
			<circle id="Oval-Copy-88" class="st7" cx="416.2" cy="67.1" r="0.7"/>
			<circle id="Oval-Copy-89" class="st7" cx="405.7" cy="2.2" r="0.7"/>
			<circle id="Oval-Copy-90" class="st7" cx="447.3" cy="16.6" r="0.7"/>
			<circle id="Oval-Copy-91" class="st9" cx="461.8" cy="203" r="0.7"/>
			<circle id="Oval-Copy-92" class="st9" cx="544" cy="259.8" r="0.7"/>
			<circle id="Oval-Copy-93" class="st7" cx="606.1" cy="254.2" r="0.7"/>
			<circle id="Oval-Copy-94" class="st7" cx="597" cy="204.4" r="0.7"/>
			<circle id="Oval-Copy-95" class="st7" cx="473.4" cy="273.2" r="0.7"/>
			<circle id="Oval-Copy-96" class="st7" cx="417.7" cy="251.3" r="0.7"/>
			<circle id="Oval-Copy-97" class="st7" cx="497.4" cy="241.4" r="0.7"/>
			<circle id="Oval-Copy-102" class="st7" cx="504.8" cy="235.1" r="2.1"/>
			<circle id="Oval-Copy-98" class="st7" cx="615.7" cy="159.6" r="0.7"/>
			<circle id="Oval_8_" class="st7" cx="563.4" cy="69.2" r="0.7"/>
			<circle id="Oval-Copy-100" class="st7" cx="538.7" cy="94.3" r="1.1"/>
			<circle id="Oval_9_" class="st9" cx="531.7" cy="96.4" r="0.7"/>
			<circle id="Oval_10_" class="st9" cx="587.4" cy="104.9" r="0.7"/>
			<circle id="Oval-Copy-101" class="st9" cx="590.8" cy="110.3" r="1.9"/>
			<circle id="Oval-Copy-82" class="st7" cx="514.4" cy="139.8" r="0.7"/>
			<circle id="Oval-Copy-85" class="st9" cx="542.6" cy="20.9" r="0.7"/>
			<circle id="Oval-Copy-83" class="st9" cx="549" cy="179" r="0.7"/>
			<circle id="Oval-Copy-126" class="st9" cx="571.2" cy="190.6" r="0.7"/>
			<circle id="Oval-Copy-127" class="st9" cx="551.1" cy="186" r="0.7"/>
			<path id="Oval-Copy-110" class="st9" d="M517.9,174.4c0.4,0,0.7,0.3,0.7,0.7s-0.3,0.7-0.7,0.7s-0.7-0.3-0.7-0.7
				S517.5,174.4,517.9,174.4z"/>
			<circle id="Oval-Copy-111" class="st9" cx="576.8" cy="287" r="0.7"/>
			<circle id="Oval-Copy-84" class="st7" cx="511.2" cy="201.2" r="0.7"/>
			
				<g id="Asset-3_1_" transform="translate(1311.323194, 16.156811) rotate(2.000000) translate(-1311.323194, -16.156811) translate(1303.823194, 8.156811)">
				
					<radialGradient id="Path_3_" cx="-5809.752" cy="605.5018" r="0.5518" gradientTransform="matrix(4.5085 -0.1574 -0.1574 -4.5085 25460.4824 1841.6957)" gradientUnits="userSpaceOnUse">
					<stop  offset="0" style="stop-color:#FFFFFF"/>
					<stop  offset="9.000000e-02" style="stop-color:#FFFFFF;stop-opacity:0.87"/>
					<stop  offset="0.28" style="stop-color:#FFFFFF;stop-opacity:0.61"/>
					<stop  offset="0.46" style="stop-color:#FFFFFF;stop-opacity:0.39"/>
					<stop  offset="0.63" style="stop-color:#FFFFFF;stop-opacity:0.22"/>
					<stop  offset="0.78" style="stop-color:#FFFFFF;stop-opacity:0.1"/>
					<stop  offset="0.91" style="stop-color:#FFFFFF;stop-opacity:3.000000e-02"/>
					<stop  offset="1" style="stop-color:#FFFFFF;stop-opacity:0"/>
				</radialGradient>
				<path id="Path_26_" class="st10" d="M-825.5,26.4c0,1-0.6,1.9-1.5,2.3c-0.9,0.4-2,0.2-2.7-0.5s-0.9-1.8-0.5-2.7
					c0.4-0.9,1.3-1.5,2.3-1.5C-826.6,23.9-825.5,25-825.5,26.4z"/>
			</g>
			<g id="Asset-3-Copy-2" transform="translate(1194.000000, 679.027589)">
				
					<radialGradient id="Path_4_" cx="-5328.9639" cy="-183.5088" r="0.5516" gradientTransform="matrix(4.5112 0 0 -4.5112 23283.1777 -1232.2552)" gradientUnits="userSpaceOnUse">
					<stop  offset="0" style="stop-color:#FFFFFF"/>
					<stop  offset="9.000000e-02" style="stop-color:#FFFFFF;stop-opacity:0.87"/>
					<stop  offset="0.28" style="stop-color:#FFFFFF;stop-opacity:0.61"/>
					<stop  offset="0.46" style="stop-color:#FFFFFF;stop-opacity:0.39"/>
					<stop  offset="0.63" style="stop-color:#FFFFFF;stop-opacity:0.22"/>
					<stop  offset="0.78" style="stop-color:#FFFFFF;stop-opacity:0.1"/>
					<stop  offset="0.91" style="stop-color:#FFFFFF;stop-opacity:3.000000e-02"/>
					<stop  offset="1" style="stop-color:#FFFFFF;stop-opacity:0"/>
				</radialGradient>
				<path id="Path_27_" class="st11" d="M-754.4-404.4c0,1-0.6,1.9-1.5,2.3s-2,0.2-2.7-0.5s-0.9-1.8-0.5-2.7
					c0.4-0.9,1.3-1.5,2.3-1.5C-755.5-406.9-754.4-405.8-754.4-404.4z"/>
			</g>
			<g id="Asset-3-Copy-3" transform="translate(304.000000, 168.027589)" class="st12">
				
					<radialGradient id="Path_5_" cx="-885.7424" cy="332.0835" r="0.5521" gradientTransform="matrix(4.5112 0 0 -4.5112 3814.7705 1391.8623)" gradientUnits="userSpaceOnUse">
					<stop  offset="0" style="stop-color:#FFFFFF"/>
					<stop  offset="9.000000e-02" style="stop-color:#FFFFFF;stop-opacity:0.87"/>
					<stop  offset="0.28" style="stop-color:#FFFFFF;stop-opacity:0.61"/>
					<stop  offset="0.46" style="stop-color:#FFFFFF;stop-opacity:0.39"/>
					<stop  offset="0.63" style="stop-color:#FFFFFF;stop-opacity:0.22"/>
					<stop  offset="0.78" style="stop-color:#FFFFFF;stop-opacity:0.1"/>
					<stop  offset="0.91" style="stop-color:#FFFFFF;stop-opacity:3.000000e-02"/>
					<stop  offset="1" style="stop-color:#FFFFFF;stop-opacity:0"/>
				</radialGradient>
				<path id="Path_28_" class="st13" d="M-178.5-106.2c0,1-0.6,1.9-1.5,2.3s-2,0.2-2.7-0.5s-0.9-1.8-0.5-2.7s1.3-1.5,2.3-1.5
					C-179.7-108.7-178.5-107.6-178.5-106.2z"/>
			</g>
			<g id="Asset-4-Copy-2" transform="translate(374.000000, 196.027589)">
				
					<linearGradient id="Path_6_" gradientUnits="userSpaceOnUse" x1="-1239.4514" y1="294.1377" x2="-1238.3436" y2="294.1377" gradientTransform="matrix(4.1416 0 0 -4.1416 4904.1899 1093.3362)">
					<stop  offset="0" style="stop-color:#EA288D"/>
					<stop  offset="0.22" style="stop-color:#F05C8F"/>
					<stop  offset="0.49" style="stop-color:#F69592"/>
					<stop  offset="0.71" style="stop-color:#FBBE94"/>
					<stop  offset="0.89" style="stop-color:#FED795"/>
					<stop  offset="1" style="stop-color:#FFE095"/>
				</linearGradient>
				<path id="Path_44_" class="st14" d="M-224.6-124.9c0,1.3-1,2.3-2.3,2.3s-2.3-1-2.3-2.3s1-2.3,2.3-2.3c0.6,0,1.2,0.3,1.6,0.7
					C-224.8-126.1-224.6-125.5-224.6-124.9z"/>
				<g id="Group_7_" transform="translate(5.000000, 2.000000)" class="st15">
					<path id="Path_45_" class="st16" d="M-231.3-127.9c0,0.3-0.2,0.4-0.5,0.4s-0.5-0.2-0.5-0.4c0-0.3,0.2-0.4,0.5-0.4
						C-231.6-128.4-231.3-128.2-231.3-127.9z"/>
					<path id="Path_46_" class="st16" d="M-231.9-128.4c-0.2,0-0.3,0.1-0.4,0.2C-232.2-128.2-232.1-128.3-231.9-128.4
						c0.1,0.1,0.3,0.2,0.4,0.3c0.1,0.2,0.1,0.3-0.1,0.5c0.2-0.1,0.2-0.3,0.2-0.5C-231.5-128.3-231.7-128.4-231.9-128.4L-231.9-128.4
						z"/>
				</g>
				<g id="Group_8_" transform="translate(11.000000, 6.000000)" class="st15">
					<path id="Path_47_" class="st16" d="M-235.7-130.7c0,0.1-0.1,0.2-0.2,0.3c-0.1,0-0.2,0-0.3-0.1s-0.1-0.2-0.1-0.3
						c0-0.2,0.2-0.3,0.3-0.3C-235.7-131-235.6-130.8-235.7-130.7L-235.7-130.7z"/>
					<path id="Path_48_" class="st16" d="M-235.9-131c-0.1,0-0.2,0-0.2,0.1C-236.1-131-236-131-235.9-131c0.1,0.1,0.2,0.2,0.1,0.4
						c0,0.1,0,0.1-0.1,0.2c0.1-0.1,0.1-0.1,0.1-0.2C-235.6-130.8-235.7-131-235.9-131z"/>
				</g>
				<g id="Group_9_" transform="translate(9.000000, 9.000000)" class="st15">
					<path id="Path_49_" class="st16" d="M-234.5-132.5c-0.1,0.1-0.2,0.1-0.3,0.1c-0.1-0.1-0.1-0.2,0-0.3c0-0.1,0.1-0.1,0.2-0.1
						s0.1,0.1,0.2,0.1C-234.5-132.6-234.5-132.6-234.5-132.5L-234.5-132.5z"/>
					<path id="Path_50_" class="st16" d="M-234.6-132.8c-0.1,0-0.1,0-0.2,0C-234.7-132.8-234.7-132.8-234.6-132.8c0,0.1,0,0.3,0,0.4
						l-0.1,0.1c0.1,0,0.1-0.1,0.2-0.1C-234.5-132.6-234.5-132.7-234.6-132.8z"/>
				</g>
				<g id="Group_10_" transform="translate(10.000000, 3.000000)" class="st15">
					<path id="Path_51_" class="st16" d="M-235.3-129c0,0,0,0.1,0,0.2h-0.1v-0.1C-235.5-129-235.4-129.1-235.3-129
						C-235.4-129.1-235.3-129.1-235.3-129L-235.3-129z"/>
					<path id="Path_52_" class="st16" d="M-235.5-129.1C-235.5-129-235.5-129-235.5-129.1C-235.5-129-235.5-129-235.5-129.1
						c0,0,0.1,0,0.2,0c0,0,0,0,0,0.1v-0.1C-235.3-129.1-235.3-129.1-235.5-129.1C-235.4-129.1-235.4-129.1-235.5-129.1L-235.5-129.1
						z"/>
				</g>
				<g id="Group_11_" transform="translate(2.000000, 10.000000)" class="st15">
					<path id="Path_53_" class="st16" d="M-229.8-133.3c0,0.1-0.1,0.3-0.2,0.3c-0.1,0.1-0.2,0-0.3-0.1s-0.1-0.2-0.1-0.4
						c0-0.1,0.1-0.2,0.2-0.2C-229.9-133.6-229.8-133.4-229.8-133.3L-229.8-133.3z"/>
					<path id="Path_54_" class="st16" d="M-230.1-133.6c-0.1,0-0.1,0-0.2,0.1C-230.2-133.5-230.2-133.6-230.1-133.6s0.2,0.2,0.2,0.3
						s0,0.1-0.1,0.2c0.1-0.1,0.1-0.2,0.1-0.2C-229.8-133.4-229.9-133.6-230.1-133.6L-230.1-133.6z"/>
				</g>
				<g id="Group_12_" transform="translate(0.000000, 4.000000)" class="st15">
					<path id="Path_55_" class="st16" d="M-228.8-129.6c0.2,0,0.3,0.1,0.3,0.2s-0.1,0.2-0.3,0.2s-0.3-0.1-0.3-0.2
						S-229-129.6-228.8-129.6L-228.8-129.6z"/>
					<path id="Path_56_" class="st16" d="M-229.1-129.4c0,0.1,0,0.1,0.1,0.2C-229-129.2-229.1-129.3-229.1-129.4s0.2-0.2,0.3-0.2
						s0.1,0,0.2,0.1c-0.1-0.1-0.1-0.1-0.2-0.1c-0.1,0-0.2,0-0.2,0.1C-229.1-129.5-229.1-129.4-229.1-129.4z"/>
				</g>
				<g id="Group_13_" transform="translate(3.000000, 5.000000)" class="st15">
					<path id="Path_57_" class="st16" d="M-230.8-130.4c0.2,0,0.3,0.2,0.3,0.4s-0.1,0.3-0.3,0.3s-0.3-0.2-0.3-0.3
						C-231.1-130.2-230.9-130.4-230.8-130.4L-230.8-130.4z"/>
					<path id="Path_58_" class="st16" d="M-231.1-130.1c0,0.1,0,0.2,0.1,0.3C-231-129.9-231-129.9-231.1-130.1
						c0.1-0.2,0.2-0.3,0.4-0.3c0.1,0,0.1,0,0.2,0.1c-0.1-0.1-0.1-0.1-0.2-0.1c-0.1,0-0.2,0-0.2,0.1
						C-231-130.2-231.1-130.1-231.1-130.1z"/>
				</g>
			</g>
		</g>
		<g>
			<g>
				<path class="st17" d="M409.8,5662.2c0,9.1,0,18.2,0,27.3c0,1.3,0,2.6,0,3.8c0,1.6,2.5,1.6,2.5,0c0-9.1,0-18.2,0-27.3
					c0-1.3,0-2.6,0-3.8C412.3,5660.5,409.8,5660.5,409.8,5662.2L409.8,5662.2z"/>
			</g>
		</g>
		<g>
			<g>
				<path class="st17" d="M418.3,5675.5c0,9.1,0,18.2,0,27.3c0,1.3,0,2.6,0,3.8c0,1.6,2.5,1.6,2.5,0c0-9.1,0-18.2,0-27.3
					c0-1.3,0-2.6,0-3.8C420.8,5673.8,418.3,5673.8,418.3,5675.5L418.3,5675.5z"/>
			</g>
		</g>
		<g>
			<g>
				<path class="st17" d="M426.8,5668.3c0,9.1,0,18.2,0,27.3c0,1.3,0,2.6,0,3.8c0,1.6,2.5,1.6,2.5,0c0-9.1,0-18.2,0-27.3
					c0-1.3,0-2.6,0-3.8C429.3,5666.7,426.8,5666.7,426.8,5668.3L426.8,5668.3z"/>
			</g>
		</g>
		<g>
			<g>
				<path class="st17" d="M435.3,5675.5c0,9.1,0,18.2,0,27.3c0,1.3,0,2.6,0,3.8c0,1.6,2.5,1.6,2.5,0c0-9.1,0-18.2,0-27.3
					c0-1.3,0-2.6,0-3.8C437.8,5673.8,435.3,5673.8,435.3,5675.5L435.3,5675.5z"/>
			</g>
		</g>
	</g>
	<g>
		<g>
			<path class="st17" d="M120.7,50.2c0,1.7-1.1,3.2-2.7,3.8s-3.4,0.1-4.5-1.3c-1.1-1.3-1.2-3.2-0.3-4.6c0.9-1.4,2.6-2.2,4.2-1.9
				C119.3,46.5,120.7,48.2,120.7,50.2c0,0.8,1.3,0.8,1.2,0c0-2.2-1.4-4.2-3.5-5s-4.5-0.1-5.9,1.6c-1.4,1.7-1.6,4.2-0.5,6.1
				c1.1,1.9,3.4,2.9,5.5,2.5c2.5-0.4,4.3-2.7,4.3-5.2C122,49.3,120.7,49.3,120.7,50.2z"/>
		</g>
	</g>
	<g>
		<g>
			<path class="st17" d="M119.4,64.1c0,2.9-1.9,5.6-4.7,6.6c-2.8,1-6,0.1-7.8-2.2c-1.9-2.3-2.1-5.6-0.6-8.1s4.5-3.9,7.4-3.3
				C117,57.8,119.3,60.7,119.4,64.1c0,0.8,1.3,0.8,1.2,0c0-3.4-2.2-6.5-5.4-7.8c-3.3-1.2-7.1-0.2-9.3,2.5c-2.2,2.7-2.5,6.5-0.7,9.5
				s5.3,4.5,8.7,3.9c3.9-0.7,6.7-4.2,6.8-8.1C120.6,63.3,119.4,63.3,119.4,64.1z"/>
		</g>
	</g>
	<g>
		<g>
			<path class="st17" d="M126.2,56.7c0,1-0.7,2-1.7,2.4s-2.2,0.1-2.9-0.8c-0.7-0.8-0.7-2-0.2-2.9s1.6-1.4,2.6-1.2
				C125.3,54.4,126.2,55.4,126.2,56.7c0,0.8,1.3,0.8,1.2,0c0-1.6-1-3-2.5-3.6s-3.2-0.1-4.2,1.1c-1,1.2-1.2,3-0.4,4.4
				c0.8,1.4,2.4,2.1,4,1.8c1.8-0.3,3-2,3.1-3.7C127.5,55.9,126.2,55.9,126.2,56.7z"/>
		</g>
	</g>
	<g>
		<g>
			<path class="st17" d="M127.3,49.8c0,0.1,0,0.1,0,0.2c0,0.1,0,0,0,0c0,0.1,0,0.2-0.1,0.3c0,0.1,0,0.1-0.1,0.2c0,0,0.1-0.1,0,0
				s-0.1,0.2-0.2,0.3s0-0.1,0,0l-0.1,0.1c0,0-0.2,0.2-0.1,0.1c-0.1,0.1-0.2,0.1-0.2,0.2c0,0-0.1,0-0.1,0.1c-0.1,0-0.1,0,0,0h-0.1
				c-0.1,0-0.2,0.1-0.3,0.1c0,0-0.2,0,0,0h-0.1c-0.1,0-0.2,0-0.3,0c-0.1,0,0.1,0,0,0s-0.1,0-0.2,0s-0.1,0-0.2-0.1c0,0-0.1,0,0,0
				c-0.1,0-0.2-0.1-0.2-0.1l-0.1-0.1c-0.1-0.1,0.1,0.1,0,0s-0.2-0.2-0.2-0.2c0.1,0.1,0,0,0,0l-0.1-0.1c0,0,0-0.1-0.1-0.1
				c0,0-0.1-0.2,0-0.1c0-0.1-0.1-0.2-0.1-0.3v-0.1c0-0.1,0-0.1,0,0v-0.1c0-0.1,0-0.2,0-0.3c0,0,0-0.2,0-0.1v-0.1
				c0-0.1,0.1-0.2,0.1-0.3c0.1-0.2-0.1,0.1,0-0.1l0.1-0.1c0,0,0-0.1,0.1-0.1c0,0,0.1-0.1,0,0c0.1-0.1,0.1-0.1,0.2-0.2l0.1-0.1
				c-0.1,0.1,0.1-0.1,0.1,0c0.1-0.1,0.2-0.1,0.3-0.2c0,0-0.1,0,0,0s0.1,0,0.2-0.1h0.1c0,0,0.2,0,0.1,0s0.1,0,0.1,0h0.1h0.1
				c0.1,0-0.1,0,0.1,0c0.1,0,0.2,0.1,0.3,0.1c0.2,0.1-0.1,0,0,0s0.1,0.1,0.2,0.1c0,0,0.1,0,0.1,0.1c0,0,0.1,0,0.1,0.1
				c-0.1,0-0.1,0,0,0c0.1,0.1,0.1,0.1,0.2,0.2c0.1,0.1-0.1-0.1,0,0l0.1,0.1l0.1,0.1c0.1,0.1,0-0.1,0,0.1c0,0.1,0.1,0.2,0.1,0.3
				c0,0,0,0.1,0,0C127.3,49.6,127.3,49.7,127.3,49.8c0,0.3,0.3,0.6,0.6,0.6c0.3,0,0.6-0.3,0.6-0.6c0-1.2-0.7-2.2-1.8-2.6
				c-1-0.4-2.3-0.1-3,0.8c-0.7,0.9-0.9,2.2-0.3,3.2s1.8,1.5,2.9,1.3c1.3-0.2,2.2-1.4,2.2-2.7c0-0.3-0.3-0.6-0.6-0.6
				C127.6,49.1,127.3,49.4,127.3,49.8z"/>
		</g>
	</g>
</g>
<g id="Globe_1_" transform="translate(483.000000, 857.000000)">
	
		<radialGradient id="Path_7_" cx="-1788.6094" cy="-272.1427" r="0.9225" gradientTransform="matrix(11.7876 0 0 -11.7876 20621.9258 -3978.6182)" gradientUnits="userSpaceOnUse">
		<stop  offset="0" style="stop-color:#AE36E5"/>
		<stop  offset="0.17" style="stop-color:#B23BE4"/>
		<stop  offset="0.38" style="stop-color:#BE4BE3"/>
		<stop  offset="0.61" style="stop-color:#D164E0"/>
		<stop  offset="0.86" style="stop-color:#EC87DC"/>
		<stop  offset="1" style="stop-color:#FF9FD9"/>
	</radialGradient>
	<path id="Path_80_" class="st18" d="M-451.3-773.5c0,2.4-1.4,4.6-3.6,5.5s-4.7,0.4-6.4-1.2s-2.2-4.2-1.3-6.4
		c0.9-2.2,3.1-3.7,5.4-3.7C-454-779.4-451.3-776.8-451.3-773.5L-451.3-773.5z"/>
</g>
<g id="Globe_2_" transform="translate(483.000000, 857.000000)">
	
		<radialGradient id="Path_8_" cx="-1758.502" cy="-285.6574" r="0.9228" gradientTransform="matrix(11.7876 0 0 -11.7876 20621.9258 -3978.6182)" gradientUnits="userSpaceOnUse">
		<stop  offset="0" style="stop-color:#AE36E5"/>
		<stop  offset="0.17" style="stop-color:#B23BE4"/>
		<stop  offset="0.38" style="stop-color:#BE4BE3"/>
		<stop  offset="0.61" style="stop-color:#D164E0"/>
		<stop  offset="0.86" style="stop-color:#EC87DC"/>
		<stop  offset="1" style="stop-color:#FF9FD9"/>
	</radialGradient>
	<path id="Path_81_" class="st19" d="M-96.4-614.2c0,2.4-1.4,4.6-3.6,5.5s-4.7,0.4-6.4-1.2c-1.7-1.7-2.2-4.2-1.3-6.4
		c0.9-2.2,3.1-3.7,5.4-3.7C-99.1-620.1-96.4-617.5-96.4-614.2L-96.4-614.2z"/>
</g>
<g id="BACKGROUND_1">
	<g>
		<g>
			<g>
				<g>
					
						<radialGradient id="SVGID_1_" cx="-846.381" cy="-8.038" r="0.2756" gradientTransform="matrix(0.3186 0 0 -0.3186 0.3407 -291.4739)" gradientUnits="userSpaceOnUse">
						<stop  offset="0.2473" style="stop-color:#FFFFFF"/>
						<stop  offset="0.6667" style="stop-color:#5E9C70"/>
						<stop  offset="1" style="stop-color:#000006"/>
					</radialGradient>
					<path class="st20" d="M-269.4-288.8c0,0,0-0.1,0-0.1l0,0c0,0,0.1,0,0.1,0l0,0c0,0,0,0.1,0,0.1l0,0
						C-269.3-288.8-269.3-288.8-269.4-288.8L-269.4-288.8C-269.3-288.8-269.3-288.8-269.4-288.8z"/>
				</g>
				<g>
					
						<radialGradient id="SVGID_2_" cx="-880.8292" cy="80.2687" r="0.9127" gradientTransform="matrix(0.3186 0 0 -0.3186 0.3407 -291.4739)" gradientUnits="userSpaceOnUse">
						<stop  offset="0.2473" style="stop-color:#FFFFFF"/>
						<stop  offset="0.6667" style="stop-color:#5E9C70"/>
						<stop  offset="1" style="stop-color:#000006"/>
					</radialGradient>
					<path class="st21" d="M-280.5-316.8c-0.1-0.1-0.2-0.3-0.1-0.4l0,0c0.1-0.1,0.3-0.2,0.4-0.1l0,0c0.1,0.1,0.2,0.3,0.1,0.4l0,0
						c0,0.1-0.1,0.1-0.2,0.1l0,0C-280.3-316.8-280.4-316.8-280.5-316.8z"/>
				</g>
			</g>
		</g>
	</g>
</g>
<g id="DESIGNED_BY_FREEPIK">
</g>
<path class="st22" d="M1.6,75.4c-33.9,0-61.3-27.5-61.3-61.3c0-33.9,27.5-61.3,61.3-61.3C35.5-47.3,63-19.8,63,14
	C63,47.9,35.5,75.4,1.6,75.4z M1.7,59.4c25,0,45.3-20.3,45.3-45.3S26.7-31.1,1.7-31.1s-45.3,20.3-45.3,45.3S-23.3,59.4,1.7,59.4z"/>
<g>
	<rect x="76.8" y="244.3" class="st7" width="1.1" height="1.1"/>
	<rect x="76.8" y="247" class="st7" width="1.1" height="1.1"/>
	<rect x="76.8" y="249.7" class="st7" width="1.1" height="1.1"/>
	<rect x="76.8" y="252.4" class="st7" width="1.1" height="1.1"/>
	<rect x="76.8" y="255.1" class="st7" width="1.1" height="1.1"/>
	<rect x="76.8" y="257.8" class="st7" width="1.1" height="1.1"/>
	<rect x="76.8" y="260.5" class="st7" width="1.1" height="1.1"/>
	<rect x="76.8" y="263.2" class="st7" width="1.1" height="1.1"/>
	<rect x="76.8" y="247.1" class="st7" width="1.1" height="1.1"/>
	<rect x="76.8" y="249.8" class="st7" width="1.1" height="1.1"/>
	<rect x="76.8" y="252.5" class="st7" width="1.1" height="1.1"/>
	<rect x="76.8" y="255.2" class="st7" width="1.1" height="1.1"/>
	<rect x="76.8" y="257.9" class="st7" width="1.1" height="1.1"/>
	<rect x="76.8" y="260.6" class="st7" width="1.1" height="1.1"/>
	<rect x="76.8" y="263.3" class="st7" width="1.1" height="1.1"/>
	<rect x="76.8" y="266" class="st7" width="1.1" height="1.1"/>
	<rect x="76.8" y="238.8" class="st7" width="1.1" height="1.1"/>
	<rect x="76.8" y="241.5" class="st7" width="1.1" height="1.1"/>
	<rect x="76.8" y="244.2" class="st7" width="1.1" height="1.1"/>
	<rect x="76.8" y="246.9" class="st7" width="1.1" height="1.1"/>
	<rect x="76.8" y="249.6" class="st7" width="1.1" height="1.1"/>
	<rect x="76.8" y="252.3" class="st7" width="1.1" height="1.1"/>
	<rect x="76.8" y="255" class="st7" width="1.1" height="1.1"/>
	<rect x="76.8" y="257.8" class="st7" width="1.1" height="1.1"/>
	<rect x="76.8" y="241.6" class="st7" width="1.1" height="1.1"/>
	<rect x="76.8" y="244.3" class="st7" width="1.1" height="1.1"/>
	<rect x="76.8" y="247" class="st7" width="1.1" height="1.1"/>
	<rect x="76.8" y="249.7" class="st7" width="1.1" height="1.1"/>
	<rect x="76.8" y="252.4" class="st7" width="1.1" height="1.1"/>
	<rect x="76.8" y="255.1" class="st7" width="1.1" height="1.1"/>
	<rect x="76.8" y="257.9" class="st7" width="1.1" height="1.1"/>
	<rect x="76.8" y="260.6" class="st7" width="1.1" height="1.1"/>
	<path class="st23" d="M73.2,251.6c-2-0.8-3.4-2.1-3.4-3.7c0-2.4,3.3-4.4,7.4-4.4s7.4,2,7.4,4.4c0,1.5-1.3,2.9-3.4,3.7"/>
	<path class="st23" d="M74.6,257.1c-1.4-0.5-2.3-1.5-2.3-2.5c0-1.6,2.2-3,5-3s5,1.3,5,3c0,1.1-0.9,2-2.3,2.5"/>
	<path class="st23" d="M75.9,260.1c-0.8-0.3-1.3-0.8-1.3-1.4c0-0.9,1.3-1.7,2.8-1.7c1.6,0,2.8,0.8,2.8,1.7c0,0.6-0.5,1.1-1.3,1.4"/>
</g>
<g>
	<defs>
		<rect id="SVGID_3_" x="466.7" y="108.4" width="145.3" height="178.1"/>
	</defs>
	<clipPath id="SVGID_4_">
		<use xlink:href="#SVGID_3_"  style="overflow:visible;"/>
	</clipPath>
	<path class="st24" d="M556.1,293c14,15.3,33.8,24.9,54,28.6c39.4,7.1,82.1-7.8,104.5-41.9c21.1-32.2,22.9-76.8,0.3-108.7
		c-22.2-31.2-63.6-49.8-101.7-43.8c-41.9,6.6-74.7,43.6-80,85"/>
	<path class="st25" d="M557.4,300.8"/>
	<path class="st26" d="M533.2,212.2c-0.1,0.6-0.2,1.3-0.2,1.9c-0.5,5.2-0.5,14.2,0,19.4l-0.3-3.7"/>
	
		<linearGradient id="SVGID_5_" gradientUnits="userSpaceOnUse" x1="1087.9261" y1="533.1693" x2="1192.2505" y2="533.1693" gradientTransform="matrix(1 0 0 1 -606.9103 -321.9104)">
		<stop  offset="0" style="stop-color:#8725C1"/>
		<stop  offset="8.048175e-02" style="stop-color:#7B2CC3"/>
		<stop  offset="0.2248" style="stop-color:#5C3EC7"/>
		<stop  offset="0.415" style="stop-color:#2A5BCE"/>
		<stop  offset="0.5056" style="stop-color:#106AD2"/>
		<stop  offset="0.5973" style="stop-color:#0E80CC"/>
		<stop  offset="0.7889" style="stop-color:#07B9BC"/>
		<stop  offset="1" style="stop-color:#00FFA9"/>
	</linearGradient>
	<circle class="st27" cx="533.2" cy="211.3" r="51.2"/>
	<path class="st24" d="M532.6,229.8c2.5,22.1,8.1,46.3,23.5,63.2"/>
</g>
</svg>
