<?xml version="1.0" encoding="utf-8"?>
<!-- Generator: Adobe Illustrator 24.0.2, SVG Export Plug-In . SVG Version: 6.00 Build 0)  -->
<svg version="1.1" id="Layer_1" xmlns="http://www.w3.org/2000/svg" xmlns:xlink="http://www.w3.org/1999/xlink" x="0px" y="0px"
	 viewBox="0 0 612 286.6" style="enable-background:new 0 0 612 286.6;" xml:space="preserve">
<style type="text/css">
	.st0{opacity:9.000000e-02;fill:url(#Combined-Shape_1_);enable-background:new    ;}
	.st1{fill:url(#Path_1_);}
	.st2{fill:#1351A8;}
	.st3{fill:#162E66;}
	.st4{opacity:0.2564;fill:url(#Fill-1_1_);enable-background:new    ;}
	.st5{opacity:0.5796;fill:#5D4EE6;enable-background:new    ;}
	.st6{opacity:0.5578;}
	.st7{fill:url(#Oval_2_);}
	.st8{fill:url(#Oval_11_);}
	.st9{fill:url(#Oval_12_);}
	.st10{opacity:0.2;enable-background:new    ;}
	.st11{opacity:0.2;fill:#FFFFFF;enable-background:new    ;}
	.st12{opacity:0.4536;}
	.st13{fill:url(#Oval_13_);}
	.st14{fill:url(#Oval_14_);}
	.st15{opacity:0.2;fill:url(#Path_82_);enable-background:new    ;}
	.st16{opacity:0.2;fill:url(#Path_83_);enable-background:new    ;}
	.st17{fill:url(#Path_84_);}
	.st18{fill:#FFFFFF;}
	.st19{fill:#8DA8FF;}
	.st20{fill:#2791F7;}
	.st21{fill:url(#Path_85_);}
	.st22{fill:url(#Path_86_);}
	.st23{fill:url(#Path_87_);}
	.st24{fill:url(#Path_88_);}
	.st25{fill:url(#Path_89_);}
	.st26{fill:url(#Path_90_);}
	.st27{fill:url(#Path_91_);}
	.st28{fill:url(#Path_92_);}
	.st29{fill:url(#Path_93_);}
	.st30{fill:url(#Path_94_);}
	.st31{fill:url(#Path_95_);}
	.st32{fill:url(#Path_96_);}
	.st33{fill:url(#Path_97_);}
	.st34{fill:url(#Path_98_);}
	.st35{fill:url(#Path_99_);}
	.st36{fill:url(#Path_100_);}
	.st37{fill:url(#Path_101_);}
	.st38{opacity:0.4486;}
	.st39{fill:url(#Path_102_);}
	.st40{fill:url(#Path_103_);}
	.st41{opacity:0.2;}
	.st42{fill:#A3A3A3;}
	.st43{fill:url(#Path_104_);}
	.st44{fill:url(#Path_105_);}
	.st45{fill:#5F9994;}
	.st46{opacity:0.5;fill:#F3FFFF;enable-background:new    ;}
	.st47{fill:url(#Path_106_);}
	.st48{fill:url(#Path_107_);}
	.st49{fill:url(#SVGID_1_);}
	.st50{fill:url(#SVGID_2_);}
	.st51{opacity:0.21;fill:#162E66;fill-opacity:0.651;enable-background:new    ;}
	.st52{clip-path:url(#SVGID_4_);}
</style>
<title>BG</title>
<desc>Created with Sketch.</desc>
<g id="Page-1">
	<g id="Home-Page-Design---Appsero" transform="translate(0.000000, -5380.000000)">
		<g id="BG" transform="translate(-107.000000, 5372.972411)">
			<g transform="translate(0.000000, 7.027589)">
				<g id="Group-29" transform="translate(107.000000, 0.000000)">
					
						<radialGradient id="Combined-Shape_1_" cx="650.9106" cy="-66.7322" r="1.8423" gradientTransform="matrix(53.8154 -26.2861 26.2861 53.8153 -33009.4375 20975.5215)" gradientUnits="userSpaceOnUse">
						<stop  offset="0" style="stop-color:#0037BF"/>
						<stop  offset="0.11" style="stop-color:#013DC0"/>
						<stop  offset="0.25" style="stop-color:#054FC2"/>
						<stop  offset="0.42" style="stop-color:#0A6BC6"/>
						<stop  offset="0.61" style="stop-color:#1294CB"/>
						<stop  offset="0.81" style="stop-color:#1CC6D2"/>
						<stop  offset="1" style="stop-color:#27FFD9"/>
					</radialGradient>
					<path id="Combined-Shape" class="st0" d="M423.6,242.3c26.8,10.5,50.6,25.6,70.6,44H186C248.2,229.4,339.8,209.4,423.6,242.3z"
						/>
					<g id="Globe" transform="translate(483.000000, 857.000000)">
						
							<radialGradient id="Path_1_" cx="-1293.9575" cy="-49.9797" r="1.935" gradientTransform="matrix(11.7876 0 0 11.7876 14928.5146 10.0483)" gradientUnits="userSpaceOnUse">
							<stop  offset="0" style="stop-color:#AE36E5"/>
							<stop  offset="0.17" style="stop-color:#B23BE4"/>
							<stop  offset="0.38" style="stop-color:#BE4BE3"/>
							<stop  offset="0.61" style="stop-color:#D164E0"/>
							<stop  offset="0.86" style="stop-color:#EC87DC"/>
							<stop  offset="1" style="stop-color:#FF9FD9"/>
						</radialGradient>
						<path id="Path_2_" class="st1" d="M-302.8-585c0,5-3,9.5-7.6,11.5c-4.6,1.9-9.9,0.9-13.5-2.6s-4.6-8.9-2.7-13.5
							c1.9-4.7,6.4-7.6,11.4-7.6C-308.4-597.3-302.8-591.8-302.8-585L-302.8-585z"/>
					</g>
				</g>
				<g id="Group-7" transform="translate(1934.500000, 62.000000)">
					<path id="Path_4_" class="st2" d="M-1173.9,1.8c-3.3,14.2-15,25-29.4,27.4s-28.9-4.3-36.5-16.7c-7.7-12.4-7.1-28.3,1.4-40.1
						c8.5-11.9,23.4-17.4,37.7-14.1C-1181.4-37.1-1169.4-17.6-1173.9,1.8z"/>
					<path id="Path_5_" class="st3" d="M-1196-40.1c5.8,2.6,10.4,7.6,12.5,13.6s1.7,12.7-1.2,18.4c-15.9,23.8-39.7-16-55.6,4
						c-1.9,3-2.7,6.6-2.3,10.2c3.8,10.2,11.9,18.2,22.2,21.6l0,0c1.1,0.4,2.2,0.7,3.2,1c18.4,4.3,37-6.3,42.6-24.5
						S-1178.3-33.2-1196-40.1z"/>
				</g>
				
					<linearGradient id="Fill-1_1_" gradientUnits="userSpaceOnUse" x1="1085.6145" y1="-66.6995" x2="1084.9586" y2="-66.9489" gradientTransform="matrix(-163.7522 0 0 108.4104 177871.3281 7471.3184)">
					<stop  offset="0" style="stop-color:#000000;stop-opacity:0"/>
					<stop  offset="1" style="stop-color:#FFFFFF"/>
				</linearGradient>
				<path id="Fill-1" class="st4" d="M171.2,185.5c3.5,8.6,5.9,18.1,13.6,24.1l0,0c5.7,4.5,13.4,5.9,20.1,8.3l0,0
					c7.1,2.5,14.1,5.3,20.1,9.8l0,0c5.5,4.2,10.7,9.2,11.6,16.5l0,0c1.6,12.7-9.2,20.9-20.3,23.8l0,0c-8.4,2.2-24.5,3-34.6,10.4l0,0
					H72.9v-72.1c0.1-0.1,0.2-0.2,0.3-0.2l0,0c9.3-3.2,13.5-2.2,20.6-2l0,0c12.1,0.4,22.9-5.8,30-15.3l0,0
					c4.8-6.5,9.2-14.5,17.3-17.4l0,0c2.7-1,5.4-1.4,8.2-1.4l0,0C158.3,170.1,167,175.3,171.2,185.5"/>
				<path id="Fill-1-Copy" class="st5" d="M689,109.5c-7.6,7.5-17.7,9.8-26.7,13.7c-9.4,4.1-18.7,8.8-26.7,16.3
					c-7.4,7-14.1,15.3-15.3,27.4c-2.1,21.2,8.4,31,26.9,39.6c18.4,8.5,59,33.8,72.4,46.1l9.1-18.8l108.5-9.9V104
					c-0.1-0.1-0.3-0.3-0.4-0.3c-12.3-5.3-17.9-3.7-27.3-3.3c-16,0.6-30.3-9.6-39.7-25.5c-6.4-10.8-12.2-24.1-22.9-28.9
					c-3.6-1.6-7.2-2.4-10.8-2.4c-12,0-23.4,8.7-29,25.7C702.3,83.6,699.2,99.5,689,109.5z"/>
			</g>
		</g>
	</g>
</g>
<title>BG</title>
<desc>Created with Sketch.</desc>
<g id="Page-1_1_">
	<g id="Home-Page-Design---Appsero_1_" transform="translate(-178.000000, -5427.000000)">
		<g id="BG_1_" transform="translate(174.000000, 5426.972411)">
			<g id="Asset-1" transform="translate(0.000000, 369.027589)" class="st6">
				
					<linearGradient id="Oval_2_" gradientUnits="userSpaceOnUse" x1="643.5804" y1="-83.637" x2="643.8389" y2="-82.56" gradientTransform="matrix(2.3502 -9.7891 9.7891 2.3502 -685.6501 6261.6357)">
					<stop  offset="0" style="stop-color:#0575E6"/>
					<stop  offset="1" style="stop-color:#021B79"/>
				</linearGradient>
				<circle id="Oval" class="st7" cx="13.7" cy="-235" r="5.6"/>
			</g>
			<g id="Asset-1-Copy-3" transform="translate(801.000000, 796.027589)">
				
					<linearGradient id="Oval_11_" gradientUnits="userSpaceOnUse" x1="-2635.0798" y1="-109.0921" x2="-2634.821" y2="-108.0145" gradientTransform="matrix(0.6629 -2.761 2.761 0.6629 1536.8137 -7719.438)">
					<stop  offset="0" style="stop-color:#0575E6"/>
					<stop  offset="1" style="stop-color:#021B79"/>
				</linearGradient>
				<circle id="Oval_1_" class="st8" cx="-509.6" cy="-516.3" r="1.6"/>
			</g>
			<g id="Asset-2" transform="translate(830.000000, 746.027589)">
				
					<linearGradient id="Oval_12_" gradientUnits="userSpaceOnUse" x1="-2666.3596" y1="-54.4623" x2="-2665.2517" y2="-54.4308" gradientTransform="matrix(12.9892 -3.818 3.818 12.9892 34313.7109 -9947.2168)">
					<stop  offset="0" style="stop-color:#25F0F7"/>
					<stop  offset="1" style="stop-color:#2925F7"/>
				</linearGradient>
				<circle id="Oval_3_" class="st9" cx="-520.8" cy="-476.4" r="7.5"/>
				<path id="Path" class="st10" d="M-518.2-483.5c0.1,0.2,0.1,0.4,0.2,0.6c1.1,4-1.3,8.1-5.3,9.1c-1.5,0.4-3.1,0.3-4.5-0.2
					c1.1,3.2,4.4,5.3,7.8,4.9c3.4-0.4,6.1-3.1,6.6-6.5C-513-479-515-482.3-518.2-483.5L-518.2-483.5z"/>
				<path id="Path_79_" class="st11" d="M-522.3-481.7c0.2,0.8-0.3,1.5-1,1.7c-0.8,0.2-1.5-0.3-1.7-1c-0.2-0.8,0.3-1.5,1-1.7
					S-522.5-482.5-522.3-481.7z"/>
				<path id="Path_78_" class="st11" d="M-525.1-480.1c0.1,0.4-0.1,0.8-0.5,0.9s-0.8-0.1-0.9-0.5c-0.1-0.4,0.1-0.8,0.5-0.9
					S-525.2-480.5-525.1-480.1z"/>
			</g>
			<g id="Asset-2-Copy-2" transform="translate(195.000000, 113.027589)" class="st12">
				
					<linearGradient id="Oval_13_" gradientUnits="userSpaceOnUse" x1="-141.5084" y1="-47.2131" x2="-140.402" y2="-47.1817" gradientTransform="matrix(7.4567 -2.1918 2.1918 7.4567 1040.4259 -28.0134)">
					<stop  offset="0" style="stop-color:#25F0F7"/>
					<stop  offset="1" style="stop-color:#2925F7"/>
				</linearGradient>
				<circle id="Oval_4_" class="st13" cx="-114.1" cy="-71" r="4.3"/>
				<path id="Path_77_" class="st11" d="M-114.9-73.9c0.1,0.5-0.2,1-0.6,1.1s-1-0.2-1.1-0.6s0.2-1,0.6-1.1
					C-115.5-74.7-115-74.4-114.9-73.9z"/>
				<path id="Path_76_" class="st11" d="M-116.6-72.9c0.1,0.2-0.1,0.4-0.3,0.4c-0.2,0.1-0.4-0.1-0.4-0.3c-0.1-0.2,0.1-0.4,0.3-0.4
					C-116.9-73.2-116.7-73.1-116.6-72.9z"/>
			</g>
			<g id="Asset-3" transform="translate(1370.000000, 135.027589)">
				
					<linearGradient id="Oval_14_" gradientUnits="userSpaceOnUse" x1="-4821.0962" y1="-57.3369" x2="-4819.9951" y2="-57.4604" gradientTransform="matrix(16.0641 -3.9695 3.9695 16.0641 76812.5391 -18292.2871)">
					<stop  offset="0" style="stop-color:#FF8B04"/>
					<stop  offset="1" style="stop-color:#FFE204"/>
				</linearGradient>
				<circle id="Oval_5_" class="st14" cx="-853" cy="-79.2" r="9.2"/>
				
					<linearGradient id="Path_82_" gradientUnits="userSpaceOnUse" x1="-4818.5483" y1="-53.2677" x2="-4817.4521" y2="-53.6604" gradientTransform="matrix(15.6369 0 0 15.1683 74485.1406 730.5723)">
					<stop  offset="0" style="stop-color:#FF8B04"/>
					<stop  offset="1" style="stop-color:#FFE204"/>
				</linearGradient>
				<path id="Path_3_" class="st15" d="M-855.3-88.1c1.3,1.9,1.5,4.7,0.3,6.7c-1.5,2.5-4.7,3.8-6.2,6.3c0.7,1.4,1.8,2.6,3.1,3.5
					c0.4-0.2,0.7-0.5,1-0.8c1.5-1.6,2.8-3.8,5-4.1c2.1-0.3,4,1.2,6.1,1.5c0.4,0,0.8,0,1.1,0c1.6-3.2,1.2-7.1-1-9.9
					C-848.1-87.7-851.8-88.9-855.3-88.1z"/>
				
					<linearGradient id="Path_83_" gradientUnits="userSpaceOnUse" x1="-4823.2676" y1="-45.6424" x2="-4822.2354" y2="-46.0101" gradientTransform="matrix(10.5722 0 0 10.2042 50136.5234 385.5798)">
					<stop  offset="0" style="stop-color:#FF8B04"/>
					<stop  offset="1" style="stop-color:#FFE204"/>
				</linearGradient>
				<path id="Path_6_" class="st16" d="M-853.4-88.4c0.4,0.5,0.7,1,1,1.5c0.7,1.4,0.7,3.3-0.4,4.5c-0.5,0.6-1.2,0.9-1.8,1.5
					c-0.6,0.5-1.1,1.3-0.8,2.1c0.3,0.7,1.1,1.1,1.8,1s1.4-0.4,2-0.9c0.6-0.4,1.2-0.8,1.9-1.1c0.8-0.2,1.6-0.2,2.3,0.2
					c0.8,0.4,1.4,1.1,2.1,1.7c0.4,0.4,0.9,0.7,1.4,0.9c0.7-2.8,0-5.8-1.8-8C-847.8-87.2-850.6-88.5-853.4-88.4L-853.4-88.4z"/>
				<path id="Path_7_" class="st10" d="M-850.7-88c0.1,0.2,0.2,0.5,0.3,0.7c1.2,3.2,0.5,6.8-1.8,9.3s-5.8,3.6-9.1,2.7
					c1.8,3.9,6,6,10.2,5.1s7.2-4.5,7.3-8.7C-843.7-83.2-846.5-87-850.7-88L-850.7-88z"/>
				<path id="Path_8_" class="st11" d="M-855.3-85.4c0.3,0.9-0.1,2-1.1,2.3c-0.9,0.4-2-0.1-2.3-1.1s0.1-2,1.1-2.3
					c0.4-0.2,0.9-0.2,1.4,0.1C-855.8-86.2-855.5-85.8-855.3-85.4z"/>
				<path id="Path_9_" class="st11" d="M-858.8-83.1c0.2,0.5-0.1,1-0.5,1.1c-0.5,0.2-1-0.1-1.1-0.5c-0.2-0.5,0.1-1,0.5-1.1
					c0.2-0.1,0.5-0.1,0.7,0C-859.1-83.5-858.9-83.3-858.8-83.1L-858.8-83.1z"/>
				
					<linearGradient id="Path_84_" gradientUnits="userSpaceOnUse" x1="-4811.8198" y1="-56.6921" x2="-4810.7144" y2="-56.8579" gradientTransform="matrix(47.5782 0 0 19.3275 228058.4688 1018.2428)">
					<stop  offset="0" style="stop-color:#FF8B04"/>
					<stop  offset="1" style="stop-color:#FFE204"/>
				</linearGradient>
				<path id="Path_10_" class="st17" d="M-847.2-86.3c0.2,0.2,0.4,0.4,0.6,0.6c8.8-2.6,15.4-3.5,16-1.8c0.8,2.1-8.7,7.6-21.1,12.2
					s-23.1,6.6-23.9,4.5c-0.6-1.7,5-5.3,13.4-9c0-0.3,0.1-0.6,0.1-0.8c-10.7,4.6-18,9.2-17.3,11.3c0.9,2.5,13.4,0.1,28-5.2
					s25.6-11.7,24.6-14.2C-827.5-90.9-836.1-89.7-847.2-86.3z"/>
			</g>
			<circle id="Oval_6_" class="st18" cx="549.9" cy="131.2" r="0.7"/>
			<circle id="Oval-Copy-128" class="st18" cx="558.7" cy="138.3" r="0.7"/>
			<circle id="Oval-Copy-129" class="st18" cx="550.6" cy="147.5" r="0.7"/>
			<circle id="Oval-Copy-99" class="st18" cx="569.3" cy="29.2" r="0.7"/>
			<circle id="Oval_7_" class="st18" cx="467.3" cy="71.6" r="0.7"/>
			<circle id="Oval-Copy-86" class="st18" cx="489.6" cy="33.5" r="0.7"/>
			<circle id="Oval-Copy-106" class="st18" cx="161" cy="4.5" r="0.7"/>
			<circle id="Oval-Copy-104" class="st18" cx="104.1" cy="36.7" r="0.7"/>
			<circle id="Oval-Copy-107" class="st18" cx="71.3" cy="62.8" r="0.7"/>
			<circle id="Oval-Copy-108" class="st19" cx="176.1" cy="229" r="0.7"/>
			<circle id="Oval-Copy-116" class="st19" cx="215.3" cy="230.4" r="0.7"/>
			<circle id="Oval-Copy-113" class="st19" cx="140.1" cy="226.2" r="0.7"/>
			<circle id="Oval-Copy-120" class="st19" cx="150.7" cy="276.6" r="0.7"/>
			<circle id="Oval-Copy-112" class="st19" cx="158.9" cy="253" r="0.7"/>
			<circle id="Oval-Copy-118" class="st19" cx="116.1" cy="231.9" r="0.7"/>
			<circle id="Oval-Copy-121" class="st19" cx="92.9" cy="59.6" r="0.7"/>
			<circle id="Oval-Copy-125" class="st19" cx="48.4" cy="72.7" r="0.7"/>
			<circle id="Oval-Copy-122" class="st19" cx="103.4" cy="22.9" r="0.7"/>
			<circle id="Oval-Copy-123" class="st19" cx="80.1" cy="24.3" r="0.7"/>
			<circle id="Oval-Copy-119" class="st19" cx="101.3" cy="272.1" r="0.7"/>
			<circle id="Oval-Copy-109" class="st19" cx="27.2" cy="198.7" r="0.7"/>
			<circle id="Oval-Copy-105" class="st18" cx="84.4" cy="237.1" r="0.7"/>
			<circle id="Oval-Copy-114" class="st18" cx="160.3" cy="238.5" r="0.7"/>
			<circle id="Oval-Copy-115" class="st18" cx="191" cy="251.6" r="0.7"/>
			<circle id="Oval-Copy-117" class="st18" cx="126.4" cy="265.7" r="0.7"/>
			<circle id="Oval-Copy-87" class="st20" cx="231.6" cy="-2.5" r="0.7"/>
			<circle id="Oval-Copy-88" class="st18" cx="410.1" cy="64.2" r="0.7"/>
			<circle id="Oval-Copy-89" class="st18" cx="399.6" cy="-0.7" r="0.7"/>
			<circle id="Oval-Copy-90" class="st18" cx="441.2" cy="13.7" r="0.7"/>
			<circle id="Oval-Copy-91" class="st20" cx="455.7" cy="200.1" r="0.7"/>
			<circle id="Oval-Copy-92" class="st20" cx="537.9" cy="256.9" r="0.7"/>
			<circle id="Oval-Copy-93" class="st18" cx="600" cy="251.3" r="0.7"/>
			<circle id="Oval-Copy-94" class="st18" cx="590.9" cy="201.5" r="0.7"/>
			<circle id="Oval-Copy-95" class="st18" cx="467.3" cy="270.3" r="0.7"/>
			<circle id="Oval-Copy-96" class="st18" cx="411.6" cy="248.4" r="0.7"/>
			<circle id="Oval-Copy-97" class="st18" cx="491.3" cy="238.5" r="0.7"/>
			<circle id="Oval-Copy-102" class="st18" cx="498.7" cy="232.2" r="2.1"/>
			<circle id="Oval-Copy-98" class="st18" cx="609.6" cy="156.7" r="0.7"/>
			<circle id="Oval_8_" class="st18" cx="557.3" cy="66.3" r="0.7"/>
			<circle id="Oval-Copy-100" class="st18" cx="532.6" cy="91.4" r="1.1"/>
			<circle id="Oval_9_" class="st20" cx="525.6" cy="93.5" r="0.7"/>
			<circle id="Oval_10_" class="st20" cx="581.3" cy="102" r="0.7"/>
			<circle id="Oval-Copy-101" class="st20" cx="584.7" cy="107.4" r="1.9"/>
			<circle id="Oval-Copy-82" class="st18" cx="508.3" cy="136.9" r="0.7"/>
			<circle id="Oval-Copy-85" class="st20" cx="536.5" cy="18" r="0.7"/>
			<circle id="Oval-Copy-83" class="st20" cx="542.9" cy="176.1" r="0.7"/>
			<circle id="Oval-Copy-126" class="st20" cx="565.1" cy="187.7" r="0.7"/>
			<circle id="Oval-Copy-127" class="st20" cx="545" cy="183.1" r="0.7"/>
			<path id="Oval-Copy-110" class="st20" d="M511.8,171.5c0.4,0,0.7,0.3,0.7,0.7s-0.3,0.7-0.7,0.7c-0.4,0-0.7-0.3-0.7-0.7
				S511.4,171.5,511.8,171.5z"/>
			<circle id="Oval-Copy-111" class="st20" cx="570.7" cy="284.1" r="0.7"/>
			<circle id="Oval-Copy-84" class="st18" cx="505.1" cy="198.3" r="0.7"/>
			<g id="Asset-2_1_" transform="translate(1259.000000, 133.027589)">
				
					<radialGradient id="Path_85_" cx="-4380.8008" cy="-44.3594" r="0.9622" gradientTransform="matrix(9.7169 0 0 9.7169 41763.8047 351.0495)" gradientUnits="userSpaceOnUse">
					<stop  offset="0" style="stop-color:#0037BF"/>
					<stop  offset="0.11" style="stop-color:#013DC0"/>
					<stop  offset="0.25" style="stop-color:#054FC2"/>
					<stop  offset="0.42" style="stop-color:#0A6BC6"/>
					<stop  offset="0.61" style="stop-color:#1294CB"/>
					<stop  offset="0.81" style="stop-color:#1CC6D2"/>
					<stop  offset="1" style="stop-color:#27FFD9"/>
				</radialGradient>
				<path id="Path_11_" class="st21" d="M-796.8-83.9c0,2.2-1.3,4.1-3.3,5c-2,0.8-4.3,0.4-5.9-1.2c-1.5-1.5-2-3.9-1.2-5.9
					s2.8-3.3,5-3.3C-799.2-89.3-796.8-86.9-796.8-83.9z"/>
				
					<radialGradient id="Path_86_" cx="-4448.6143" cy="54.4619" r="0.9601" gradientTransform="matrix(1.9115 0 0 1.9115 7700.7891 -190.077)" gradientUnits="userSpaceOnUse">
					<stop  offset="0" style="stop-color:#5FD5FF"/>
					<stop  offset="1" style="stop-color:#60D4FF"/>
				</radialGradient>
				<path id="Path_12_" class="st22" d="M-801.3-86.7c0,0.6-0.5,1.1-1.1,1.1s-1.1-0.5-1.1-1.1s0.5-1.1,1.1-1.1
					S-801.3-87.3-801.3-86.7L-801.3-86.7z"/>
				
					<radialGradient id="Path_87_" cx="-4461.04" cy="72.5742" r="0.985" gradientTransform="matrix(1.6662 0 0 1.6662 6630.377 -207.1271)" gradientUnits="userSpaceOnUse">
					<stop  offset="0" style="stop-color:#5FD5FF"/>
					<stop  offset="1" style="stop-color:#60D4FF"/>
				</radialGradient>
				<path id="Path_13_" class="st23" d="M-802.4-87.8c-0.3,0-0.6,0.2-0.8,0.4c0.3-0.3,0.8-0.4,1.1-0.2c0.4,0.2,0.6,0.5,0.6,1
					c0,0.2-0.1,0.4-0.2,0.6c0.2-0.2,0.4-0.5,0.4-0.8C-801.3-87.3-801.8-87.8-802.4-87.8z"/>
				
					<radialGradient id="Path_88_" cx="-4494.8662" cy="238.344" r="0.9333" gradientTransform="matrix(0.8405 0.1681 -0.1681 0.8405 3019.2332 472.6238)" gradientUnits="userSpaceOnUse">
					<stop  offset="0" style="stop-color:#5FD5FF"/>
					<stop  offset="1" style="stop-color:#60D4FF"/>
				</radialGradient>
				<path id="Path_14_" class="st24" d="M-797.7-83.6c0,0.3-0.3,0.5-0.6,0.4s-0.4-0.4-0.4-0.6c0-0.3,0.3-0.5,0.6-0.4
					C-797.8-84.1-797.6-83.8-797.7-83.6L-797.7-83.6z"/>
				
					<radialGradient id="Path_89_" cx="-4524.3569" cy="307.4482" r="1.0255" gradientTransform="matrix(0.6858 0.1372 -0.1372 0.6858 2346.3496 327.0686)" gradientUnits="userSpaceOnUse">
					<stop  offset="0" style="stop-color:#5FD5FF"/>
					<stop  offset="1" style="stop-color:#60D4FF"/>
				</radialGradient>
				<path id="Path_15_" class="st25" d="M-798-84.2c-0.2,0-0.3,0-0.4,0.2C-798.3-84.1-798.2-84.1-798-84.2c0.2,0.2,0.3,0.4,0.3,0.7
					c0,0.1-0.1,0.2-0.2,0.3c0.1-0.1,0.2-0.2,0.3-0.4C-797.6-83.8-797.8-84.1-798-84.2L-798-84.2z"/>
				
					<radialGradient id="Path_90_" cx="-4612.126" cy="301.4995" r="0.9691" gradientTransform="matrix(0.6382 0 0 0.6382 2146.5901 -273.1284)" gradientUnits="userSpaceOnUse">
					<stop  offset="0" style="stop-color:#5FD5FF"/>
					<stop  offset="1" style="stop-color:#60D4FF"/>
				</radialGradient>
				<path id="Path_16_" class="st26" d="M-799.2-81.2c-0.1,0.2-0.3,0.2-0.5,0.1s-0.2-0.3-0.1-0.5c0.1-0.1,0.2-0.2,0.3-0.2
					s0.2,0.1,0.3,0.2C-799.1-81.5-799.2-81.3-799.2-81.2L-799.2-81.2z"/>
				
					<radialGradient id="Path_91_" cx="-4349.1987" cy="614.7993" r="1.3193" gradientTransform="matrix(0.3421 0.24 -0.24 0.3421 838.6423 752.6298)" gradientUnits="userSpaceOnUse">
					<stop  offset="0" style="stop-color:#5FD5FF"/>
					<stop  offset="1" style="stop-color:#60D4FF"/>
				</radialGradient>
				<path id="Path_17_" class="st27" d="M-799.3-81.8c-0.1-0.1-0.2-0.1-0.3,0C-799.5-81.8-799.4-81.8-799.3-81.8
					c0.1,0.2,0.1,0.4,0,0.6c-0.1,0.1-0.1,0.1-0.2,0.2c0.1,0,0.2-0.1,0.3-0.2C-799.1-81.4-799.1-81.6-799.3-81.8z"/>
				
					<radialGradient id="Path_92_" cx="-4973.4312" cy="90.0894" r="0.8718" gradientTransform="matrix(0.3358 -0.2973 0.2973 0.3358 848.0898 -1593.5042)" gradientUnits="userSpaceOnUse">
					<stop  offset="0" style="stop-color:#5FD5FF"/>
					<stop  offset="1" style="stop-color:#60D4FF"/>
				</radialGradient>
				<path id="Path_18_" class="st28" d="M-798.4-86.6c0.1,0.1,0.1,0.3,0,0.4s-0.3,0.1-0.3-0.1c-0.1-0.1-0.1-0.3,0-0.4
					C-798.6-86.7-798.6-86.8-798.4-86.6C-798.5-86.7-798.5-86.6-798.4-86.6L-798.4-86.6z"/>
				
					<radialGradient id="Path_93_" cx="-5292.3726" cy="231.5684" r="1.0993" gradientTransform="matrix(0.2386 -0.1855 0.2112 0.2096 418.4737 -1115.2761)" gradientUnits="userSpaceOnUse">
					<stop  offset="0" style="stop-color:#5FD5FF"/>
					<stop  offset="1" style="stop-color:#60D4FF"/>
				</radialGradient>
				<path id="Path_19_" class="st29" d="M-798.8-86.6c-0.1,0.1-0.1,0.1-0.1,0.2C-798.9-86.5-798.8-86.6-798.8-86.6
					c0.1,0,0.1,0,0.2,0c0.1,0,0.1,0,0.2,0.1c0,0,0.1,0.1,0.1,0.2c0-0.1,0-0.2-0.1-0.2c0-0.1-0.1-0.1-0.2-0.1
					C-798.7-86.7-798.7-86.7-798.8-86.6L-798.8-86.6z"/>
				
					<radialGradient id="Path_94_" cx="-4522.7354" cy="162.7222" r="0.9624" gradientTransform="matrix(1.0195 0 0 1.0195 3805.6775 -246.0656)" gradientUnits="userSpaceOnUse">
					<stop  offset="0" style="stop-color:#5FD5FF"/>
					<stop  offset="1" style="stop-color:#60D4FF"/>
				</radialGradient>
				<path id="Path_20_" class="st30" d="M-804.4-80.6c0,0.3-0.3,0.6-0.6,0.6s-0.6-0.3-0.6-0.6c0-0.3,0.3-0.6,0.6-0.6
					C-804.7-81.1-804.4-80.9-804.4-80.6L-804.4-80.6z"/>
				
					<radialGradient id="Path_95_" cx="-4540.9355" cy="189.2789" r="0.9611" gradientTransform="matrix(0.9144 0 0 0.9144 3347.1328 -253.3593)" gradientUnits="userSpaceOnUse">
					<stop  offset="0" style="stop-color:#5FD5FF"/>
					<stop  offset="1" style="stop-color:#60D4FF"/>
				</radialGradient>
				<path id="Path_21_" class="st31" d="M-805-81.1c-0.2,0-0.4,0.1-0.4,0.2c0.2-0.2,0.4-0.2,0.6-0.1c0.2,0.1,0.4,0.3,0.3,0.5
					c0,0.1,0,0.3-0.1,0.4c0.2-0.2,0.2-0.4,0.2-0.6C-804.5-81-804.7-81.1-805-81.1L-805-81.1z"/>
				
					<radialGradient id="Path_96_" cx="-4631.522" cy="-243.867" r="1.0377" gradientTransform="matrix(1.890000e-02 -0.8983 0.8983 1.890000e-02 -501.8285 -4241.4404)" gradientUnits="userSpaceOnUse">
					<stop  offset="0" style="stop-color:#5FD5FF"/>
					<stop  offset="1" style="stop-color:#60D4FF"/>
				</radialGradient>
				<path id="Path_22_" class="st32" d="M-806.6-85.9c0.3,0,0.5,0.3,0.5,0.5c0,0.3-0.2,0.5-0.5,0.5s-0.5-0.3-0.5-0.5
					C-807.1-85.7-806.9-85.9-806.6-85.9L-806.6-85.9z"/>
				
					<radialGradient id="Path_97_" cx="-4665.7583" cy="-266.2318" r="1.049" gradientTransform="matrix(1.680000e-02 -0.7965 0.7965 1.680000e-02 -518.1924 -3797.5149)" gradientUnits="userSpaceOnUse">
					<stop  offset="0" style="stop-color:#5FD5FF"/>
					<stop  offset="1" style="stop-color:#60D4FF"/>
				</radialGradient>
				<path id="Path_23_" class="st33" d="M-807.1-85.4c0,0.2,0.1,0.3,0.2,0.4C-807-85.1-807-85.2-807.1-85.4c0.1-0.1,0.1-0.2,0.2-0.3
					s0.2-0.2,0.4-0.2c0.1,0,0.2,0,0.3,0.1c-0.1-0.1-0.2-0.2-0.4-0.2c-0.1,0-0.3,0.1-0.4,0.2C-807.1-85.7-807.1-85.6-807.1-85.4z"/>
				
					<radialGradient id="Path_98_" cx="-4543.3984" cy="-186.0627" r="1.0256" gradientTransform="matrix(2.820000e-02 -1.3394 1.3394 2.820000e-02 -429.0424 -6164.3555)" gradientUnits="userSpaceOnUse">
					<stop  offset="0" style="stop-color:#5FD5FF"/>
					<stop  offset="1" style="stop-color:#60D4FF"/>
				</radialGradient>
				<path id="Path_24_" class="st34" d="M-804.7-85c0.4,0,0.7,0.4,0.7,0.8s-0.3,0.8-0.8,0.8c-0.4,0-0.7-0.4-0.7-0.8
					S-805.1-85-804.7-85L-804.7-85z"/>
				
					<radialGradient id="Path_99_" cx="-4568.4219" cy="-202.3791" r="1.0465" gradientTransform="matrix(2.480000e-02 -1.1757 1.1757 2.480000e-02 -455.3719 -5450.5156)" gradientUnits="userSpaceOnUse">
					<stop  offset="0" style="stop-color:#5FD5FF"/>
					<stop  offset="1" style="stop-color:#60D4FF"/>
				</radialGradient>
				<path id="Path_25_" class="st35" d="M-805.4-84.2c0,0.3,0.1,0.5,0.3,0.6C-805.2-83.8-805.3-83.9-805.4-84.2
					c0.1-0.3,0.5-0.7,0.9-0.7c0.2,0,0.3,0.1,0.4,0.2c-0.1-0.2-0.3-0.3-0.5-0.3s-0.4,0.1-0.5,0.2S-805.4-84.4-805.4-84.2z"/>
			</g>
			
				<g id="Asset-3_1_" transform="translate(1311.323194, 16.156811) rotate(2.000000) translate(-1311.323194, -16.156811) translate(1303.823194, 8.156811)">
				
					<radialGradient id="Path_100_" cx="-4530.5732" cy="73.3198" r="0.5518" gradientTransform="matrix(4.5112 4.026370e-05 -4.026370e-05 4.5112 19604.2598 -307.058)" gradientUnits="userSpaceOnUse">
					<stop  offset="0" style="stop-color:#FFFFFF"/>
					<stop  offset="9.000000e-02" style="stop-color:#FFFFFF;stop-opacity:0.87"/>
					<stop  offset="0.28" style="stop-color:#FFFFFF;stop-opacity:0.61"/>
					<stop  offset="0.46" style="stop-color:#FFFFFF;stop-opacity:0.39"/>
					<stop  offset="0.63" style="stop-color:#FFFFFF;stop-opacity:0.22"/>
					<stop  offset="0.78" style="stop-color:#FFFFFF;stop-opacity:0.1"/>
					<stop  offset="0.91" style="stop-color:#FFFFFF;stop-opacity:3.000000e-02"/>
					<stop  offset="1" style="stop-color:#FFFFFF;stop-opacity:0"/>
				</radialGradient>
				<path id="Path_26_" class="st36" d="M-831.7,23.7c0,1-0.6,1.9-1.5,2.3c-0.9,0.4-2,0.2-2.7-0.5s-0.9-1.8-0.5-2.7
					c0.4-0.9,1.3-1.5,2.3-1.5C-832.8,21.2-831.7,22.3-831.7,23.7z"/>
			</g>
			<g id="Asset-3-Copy-2" transform="translate(1194.000000, 679.027589)">
				
					<radialGradient id="Path_101_" cx="-4140.3267" cy="-12.0026" r="0.5516" gradientTransform="matrix(4.5112 0 0 4.5112 17914.8496 -353.1996)" gradientUnits="userSpaceOnUse">
					<stop  offset="0" style="stop-color:#FFFFFF"/>
					<stop  offset="9.000000e-02" style="stop-color:#FFFFFF;stop-opacity:0.87"/>
					<stop  offset="0.28" style="stop-color:#FFFFFF;stop-opacity:0.61"/>
					<stop  offset="0.46" style="stop-color:#FFFFFF;stop-opacity:0.39"/>
					<stop  offset="0.63" style="stop-color:#FFFFFF;stop-opacity:0.22"/>
					<stop  offset="0.78" style="stop-color:#FFFFFF;stop-opacity:0.1"/>
					<stop  offset="0.91" style="stop-color:#FFFFFF;stop-opacity:3.000000e-02"/>
					<stop  offset="1" style="stop-color:#FFFFFF;stop-opacity:0"/>
				</radialGradient>
				<path id="Path_27_" class="st37" d="M-760.5-407.3c0,1-0.6,1.9-1.5,2.3s-2,0.2-2.7-0.5s-0.9-1.8-0.5-2.7
					c0.4-0.9,1.3-1.5,2.3-1.5C-761.6-409.8-760.5-408.7-760.5-407.3z"/>
			</g>
			<g id="Asset-3-Copy-3" transform="translate(304.000000, 168.027589)" class="st38">
				
					<radialGradient id="Path_102_" cx="-587.1054" cy="-16.5949" r="0.5521" gradientTransform="matrix(4.5112 0 0 4.5112 2461.4106 -34.3052)" gradientUnits="userSpaceOnUse">
					<stop  offset="0" style="stop-color:#FFFFFF"/>
					<stop  offset="9.000000e-02" style="stop-color:#FFFFFF;stop-opacity:0.87"/>
					<stop  offset="0.28" style="stop-color:#FFFFFF;stop-opacity:0.61"/>
					<stop  offset="0.46" style="stop-color:#FFFFFF;stop-opacity:0.39"/>
					<stop  offset="0.63" style="stop-color:#FFFFFF;stop-opacity:0.22"/>
					<stop  offset="0.78" style="stop-color:#FFFFFF;stop-opacity:0.1"/>
					<stop  offset="0.91" style="stop-color:#FFFFFF;stop-opacity:3.000000e-02"/>
					<stop  offset="1" style="stop-color:#FFFFFF;stop-opacity:0"/>
				</radialGradient>
				<path id="Path_28_" class="st39" d="M-184.6-109.1c0,1-0.6,1.9-1.5,2.3s-2,0.2-2.7-0.5s-0.9-1.8-0.5-2.7s1.3-1.5,2.3-1.5
					C-185.8-111.6-184.6-110.5-184.6-109.1z"/>
			</g>
			<g id="Asset-4" transform="translate(1596.000000, 458.027589)">
				
					<linearGradient id="Path_103_" gradientUnits="userSpaceOnUse" x1="-5731.5273" y1="-37.7885" x2="-5730.4189" y2="-37.7885" gradientTransform="matrix(7.9009 0 0 7.9009 44258.2109 3.3629)">
					<stop  offset="0" style="stop-color:#EA288D"/>
					<stop  offset="0.22" style="stop-color:#F05C8F"/>
					<stop  offset="0.49" style="stop-color:#F69592"/>
					<stop  offset="0.71" style="stop-color:#FBBE94"/>
					<stop  offset="0.89" style="stop-color:#FED795"/>
					<stop  offset="1" style="stop-color:#FFE095"/>
				</linearGradient>
				<path id="Path_29_" class="st40" d="M-1017.2-295.2c0,2.4-2,4.4-4.4,4.4c-2.4,0-4.4-2-4.4-4.4s2-4.4,4.4-4.4
					c1.1,0,2.3,0.4,3.1,1.3C-1017.7-297.5-1017.2-296.4-1017.2-295.2z"/>
				<g id="Group" transform="translate(10.000000, 3.000000)" class="st41">
					<path id="Path_30_" class="st42" d="M-1030.7-300.5c0,0.5-0.4,0.9-0.9,0.9s-0.9-0.4-0.9-0.9s0.4-0.9,0.9-0.9
						S-1030.7-300.9-1030.7-300.5z"/>
					<path id="Path_31_" class="st42" d="M-1031.6-301.4c-0.3,0-0.5,0.1-0.7,0.4c0.2-0.1,0.4-0.2,0.6-0.2c0.3,0,0.6,0.2,0.8,0.5
						c0.2,0.3,0.1,0.7-0.1,0.9c0.3-0.3,0.4-0.6,0.3-1C-1030.9-301.2-1031.2-301.4-1031.6-301.4L-1031.6-301.4z"/>
				</g>
				<g id="Group_1_" transform="translate(21.000000, 12.000000)" class="st41">
					<path id="Path_32_" class="st42" d="M-1038.7-306.8c0,0.2-0.1,0.3-0.3,0.4c-0.2,0.1-0.3,0-0.4-0.1s-0.2-0.3-0.1-0.4
						c0-0.2,0.2-0.4,0.5-0.4S-1038.6-307-1038.7-306.8L-1038.7-306.8z"/>
					<path id="Path_33_" class="st42" d="M-1038.9-307.3c-0.1,0-0.3,0-0.3,0.1C-1039.2-307.3-1039.1-307.3-1038.9-307.3
						c0.2,0.1,0.3,0.4,0.3,0.6c0,0.1-0.1,0.2-0.1,0.3c0.1-0.1,0.2-0.2,0.2-0.3C-1038.6-307-1038.7-307.3-1038.9-307.3z"/>
				</g>
				<g id="Group_2_" transform="translate(18.000000, 17.000000)" class="st41">
					<path id="Path_34_" class="st42" d="M-1037-309.8c-0.1,0.2-0.3,0.2-0.4,0.1s-0.2-0.3,0-0.4c0.1-0.1,0.2-0.2,0.3-0.1
						c0.1,0,0.2,0.1,0.3,0.2C-1036.9-310-1036.9-309.9-1037-309.8L-1037-309.8z"/>
					<path id="Path_35_" class="st42" d="M-1037-310.3c-0.1-0.1-0.2-0.1-0.3,0C-1037.2-310.4-1037.1-310.3-1037-310.3
						c0.1,0.1,0.1,0.3,0,0.4c0,0.1-0.1,0.1-0.2,0.1c0.1,0,0.2-0.1,0.2-0.2C-1036.8-310-1036.9-310.2-1037-310.3z"/>
				</g>
				<g id="Group_3_" transform="translate(20.000000, 6.000000)" class="st41">
					<path id="Path_36_" class="st42" d="M-1038.3-303.3c0.1,0.1,0.1,0.2,0,0.3c-0.1,0.1-0.2,0-0.3,0c-0.1,0-0.1-0.1-0.1-0.2
						s0.1-0.1,0.2-0.1C-1038.4-303.4-1038.3-303.4-1038.3-303.3L-1038.3-303.3z"/>
					<path id="Path_37_" class="st42" d="M-1038.5-303.4c0,0-0.1,0.1-0.1,0.2C-1038.6-303.3-1038.6-303.3-1038.5-303.4
						c0.1,0,0.2,0,0.3,0.1l0.1,0.1c0-0.1,0-0.1-0.1-0.2l-0.1-0.1C-1038.5-303.4-1038.5-303.4-1038.5-303.4L-1038.5-303.4z"/>
				</g>
				<g id="Group_4_" transform="translate(4.000000, 19.000000)" class="st41">
					<path id="Path_38_" class="st42" d="M-1027.3-311.3c0,0.2-0.1,0.4-0.3,0.4c-0.2,0.1-0.4,0-0.5-0.1s-0.2-0.4-0.1-0.5
						c0.1-0.2,0.3-0.3,0.4-0.3C-1027.5-311.8-1027.3-311.6-1027.3-311.3L-1027.3-311.3z"/>
					<path id="Path_39_" class="st42" d="M-1027.8-311.8c-0.2,0-0.3,0.1-0.4,0.2C-1028.1-311.7-1028-311.7-1027.8-311.8
						c0.2,0.1,0.4,0.3,0.4,0.5c0,0.1,0,0.2-0.1,0.3c0.1-0.1,0.2-0.2,0.2-0.4C-1027.3-311.6-1027.5-311.8-1027.8-311.8L-1027.8-311.8
						z"/>
				</g>
				<g id="Group_5_" transform="translate(1.000000, 7.000000)" class="st41">
					<path id="Path_40_" class="st42" d="M-1026.1-303.8c0.3,0,0.4,0.2,0.4,0.4c0,0.3-0.2,0.4-0.4,0.4c-0.3,0-0.4-0.2-0.4-0.4
						C-1026.6-303.6-1026.4-303.8-1026.1-303.8L-1026.1-303.8z"/>
					<path id="Path_41_" class="st42" d="M-1026.5-303.4c0,0.1,0.1,0.3,0.2,0.4C-1026.4-303.1-1026.5-303.2-1026.5-303.4
						c0.1-0.2,0.3-0.4,0.5-0.4c0.1,0,0.2,0,0.3,0.1c-0.1-0.1-0.2-0.2-0.3-0.2c-0.1,0-0.2,0.1-0.3,0.1S-1026.5-303.5-1026.5-303.4z"
						/>
				</g>
				<g id="Group_6_" transform="translate(5.000000, 10.000000)" class="st41">
					<path id="Path_42_" class="st42" d="M-1028.5-306c0.3,0,0.6,0.3,0.6,0.7c0,0.4-0.3,0.6-0.6,0.6c-0.4,0-0.6-0.3-0.6-0.7
						C-1029.1-305.7-1028.8-306-1028.5-306L-1028.5-306z"/>
					<path id="Path_43_" class="st42" d="M-1029.1-305.3c0,0.2,0.1,0.4,0.2,0.5C-1029-304.9-1029.1-305.1-1029.1-305.3
						c0.1-0.3,0.4-0.5,0.7-0.5c0.1,0,0.3,0.1,0.4,0.2c-0.1-0.2-0.3-0.2-0.5-0.2s-0.3,0.1-0.4,0.2
						C-1029.1-305.7-1029.1-305.5-1029.1-305.3z"/>
				</g>
			</g>
			<g id="Asset-4-Copy-2" transform="translate(374.000000, 196.027589)">
				
					<linearGradient id="Path_104_" gradientUnits="userSpaceOnUse" x1="-870.9361" y1="-11.6923" x2="-869.8283" y2="-11.6923" gradientTransform="matrix(4.1416 0 0 4.1416 3371.7979 -79.3753)">
					<stop  offset="0" style="stop-color:#EA288D"/>
					<stop  offset="0.22" style="stop-color:#F05C8F"/>
					<stop  offset="0.49" style="stop-color:#F69592"/>
					<stop  offset="0.71" style="stop-color:#FBBE94"/>
					<stop  offset="0.89" style="stop-color:#FED795"/>
					<stop  offset="1" style="stop-color:#FFE095"/>
				</linearGradient>
				<path id="Path_44_" class="st43" d="M-230.7-127.8c0,1.3-1,2.3-2.3,2.3s-2.3-1-2.3-2.3s1-2.3,2.3-2.3c0.6,0,1.2,0.3,1.6,0.7
					C-230.9-129-230.7-128.4-230.7-127.8z"/>
				<g id="Group_7_" transform="translate(5.000000, 2.000000)" class="st41">
					<path id="Path_45_" class="st42" d="M-237.4-130.8c0,0.3-0.2,0.4-0.5,0.4s-0.5-0.2-0.5-0.4c0-0.3,0.2-0.4,0.5-0.4
						C-237.7-131.3-237.4-131.1-237.4-130.8z"/>
					<path id="Path_46_" class="st42" d="M-238-131.3c-0.2,0-0.3,0.1-0.4,0.2C-238.3-131.1-238.2-131.2-238-131.3
						c0.1,0.1,0.3,0.2,0.4,0.3c0.1,0.2,0.1,0.3-0.1,0.5c0.2-0.1,0.2-0.3,0.2-0.5C-237.6-131.2-237.8-131.3-238-131.3L-238-131.3z"/>
				</g>
				<g id="Group_8_" transform="translate(11.000000, 6.000000)" class="st41">
					<path id="Path_47_" class="st42" d="M-241.8-133.6c0,0.1-0.1,0.2-0.2,0.3c-0.1,0-0.2,0-0.3-0.1s-0.1-0.2-0.1-0.3
						c0-0.2,0.2-0.3,0.3-0.3C-241.8-133.9-241.7-133.7-241.8-133.6L-241.8-133.6z"/>
					<path id="Path_48_" class="st42" d="M-242-133.9c-0.1,0-0.2,0-0.2,0.1C-242.2-133.9-242.1-133.9-242-133.9
						c0.1,0.1,0.2,0.2,0.1,0.4c0,0.1,0,0.1-0.1,0.2c0.1-0.1,0.1-0.1,0.1-0.2C-241.7-133.7-241.8-133.9-242-133.9z"/>
				</g>
				<g id="Group_9_" transform="translate(9.000000, 9.000000)" class="st41">
					<path id="Path_49_" class="st42" d="M-240.6-135.4c-0.1,0.1-0.2,0.1-0.3,0.1c-0.1-0.1-0.1-0.2,0-0.3c0-0.1,0.1-0.1,0.2-0.1
						s0.1,0.1,0.2,0.1C-240.6-135.5-240.6-135.5-240.6-135.4L-240.6-135.4z"/>
					<path id="Path_50_" class="st42" d="M-240.7-135.7c-0.1,0-0.1,0-0.2,0C-240.8-135.7-240.8-135.7-240.7-135.7c0,0.1,0,0.3,0,0.4
						l-0.1,0.1c0.1,0,0.1-0.1,0.2-0.1C-240.6-135.5-240.6-135.6-240.7-135.7z"/>
				</g>
				<g id="Group_10_" transform="translate(10.000000, 3.000000)" class="st41">
					<path id="Path_51_" class="st42" d="M-241.4-131.9c0,0,0,0.1,0,0.2h-0.1v-0.1C-241.6-131.9-241.5-132-241.4-131.9
						C-241.5-132-241.4-132-241.4-131.9L-241.4-131.9z"/>
					<path id="Path_52_" class="st42" d="M-241.6-132C-241.6-131.9-241.6-131.9-241.6-132C-241.6-131.9-241.6-131.9-241.6-132
						c0,0,0.1,0,0.2,0c0,0,0,0,0,0.1v-0.1C-241.4-132-241.4-132-241.6-132C-241.5-132-241.5-132-241.6-132L-241.6-132z"/>
				</g>
				<g id="Group_11_" transform="translate(2.000000, 10.000000)" class="st41">
					<path id="Path_53_" class="st42" d="M-235.9-136.2c0,0.1-0.1,0.3-0.2,0.3c-0.1,0.1-0.2,0-0.3-0.1s-0.1-0.2-0.1-0.4
						c0-0.1,0.1-0.2,0.2-0.2C-236-136.5-235.9-136.3-235.9-136.2L-235.9-136.2z"/>
					<path id="Path_54_" class="st42" d="M-236.2-136.5c-0.1,0-0.1,0-0.2,0.1C-236.3-136.4-236.3-136.5-236.2-136.5s0.2,0.2,0.2,0.3
						s0,0.1-0.1,0.2c0.1-0.1,0.1-0.2,0.1-0.2C-235.9-136.3-236-136.5-236.2-136.5L-236.2-136.5z"/>
				</g>
				<g id="Group_12_" transform="translate(0.000000, 4.000000)" class="st41">
					<path id="Path_55_" class="st42" d="M-234.9-132.5c0.2,0,0.3,0.1,0.3,0.2s-0.1,0.2-0.3,0.2s-0.3-0.1-0.3-0.2
						S-235.1-132.5-234.9-132.5L-234.9-132.5z"/>
					<path id="Path_56_" class="st42" d="M-235.2-132.3c0,0.1,0,0.1,0.1,0.2C-235.1-132.1-235.2-132.2-235.2-132.3s0.2-0.2,0.3-0.2
						s0.1,0,0.2,0.1c-0.1-0.1-0.1-0.1-0.2-0.1c-0.1,0-0.2,0-0.2,0.1C-235.2-132.4-235.2-132.3-235.2-132.3z"/>
				</g>
				<g id="Group_13_" transform="translate(3.000000, 5.000000)" class="st41">
					<path id="Path_57_" class="st42" d="M-236.9-133.3c0.2,0,0.3,0.2,0.3,0.4s-0.1,0.3-0.3,0.3s-0.3-0.2-0.3-0.3
						C-237.2-133.1-237-133.3-236.9-133.3L-236.9-133.3z"/>
					<path id="Path_58_" class="st42" d="M-237.2-133c0,0.1,0,0.2,0.1,0.3C-237.1-132.8-237.1-132.8-237.2-133
						c0.1-0.2,0.2-0.3,0.4-0.3c0.1,0,0.1,0,0.2,0.1c-0.1-0.1-0.1-0.1-0.2-0.1c-0.1,0-0.2,0-0.2,0.1
						C-237.1-133.1-237.2-133-237.2-133z"/>
				</g>
			</g>
			<g id="Asset-5" transform="translate(1452.000000, 595.027589)">
				
					<radialGradient id="Path_105_" cx="-5141.8032" cy="-59.455" r="0.9633" gradientTransform="matrix(27.3982 0 0 27.3982 139973.4219 1265.3878)" gradientUnits="userSpaceOnUse">
					<stop  offset="0" style="stop-color:#0037BF"/>
					<stop  offset="0.11" style="stop-color:#013DC0"/>
					<stop  offset="0.25" style="stop-color:#054FC2"/>
					<stop  offset="0.42" style="stop-color:#0A6BC6"/>
					<stop  offset="0.61" style="stop-color:#1294CB"/>
					<stop  offset="0.81" style="stop-color:#1CC6D2"/>
					<stop  offset="1" style="stop-color:#27FFD9"/>
				</radialGradient>
				<path id="Path_59_" class="st44" d="M-881.3-367.2c-3.1,7.8-11.9,11.6-19.7,8.6c-7.8-3.1-11.6-11.9-8.6-19.7
					c3.1-7.8,11.9-11.6,19.7-8.6C-882.1-383.8-878.3-375-881.3-367.2L-881.3-367.2z"/>
				<g id="Group_14_" transform="translate(104.809524, 14.000000)" class="st41">
					<path id="Path_60_" class="st45" d="M-994.5-393c-0.4,1.2-1.6,2-2.8,2s-2.4-0.7-2.9-1.9c-0.5-1.1-0.3-2.5,0.6-3.4
						c0.9-0.9,2.2-1.2,3.3-0.7C-994.7-396.4-993.9-394.6-994.5-393L-994.5-393z"/>
					<path id="Path_61_" class="st45" d="M-996.2-397c-0.9-0.4-1.9-0.3-2.7,0.3c0.7-0.3,1.4-0.3,2.1,0c1.1,0.4,1.9,1.5,2,2.6
						c0.1,1.2-0.5,2.4-1.5,3c1.2-0.4,2-1.6,2-2.9C-994.3-395.4-995.1-396.5-996.2-397L-996.2-397z"/>
				</g>
				<g id="Group_15_" transform="translate(133.809524, 55.000000)" class="st41">
					<path id="Path_62_" class="st45" d="M-1017-421.3c-0.5,0.5-1.3,0.6-1.8,0.1s-0.7-1.3-0.2-1.9c0.4-0.6,1.2-0.8,1.8-0.4
						C-1016.6-423-1016.5-422-1017-421.3z"/>
					<path id="Path_63_" class="st45" d="M-1017.2-423.5c-0.4-0.2-0.8-0.3-1.2,0c0.3-0.1,0.7,0,1,0.1c0.6,0.5,0.7,1.5,0.2,2.2
						c-0.2,0.3-0.4,0.5-0.7,0.7c0.4-0.1,0.8-0.4,1.1-0.8C-1016.4-422-1016.6-423-1017.2-423.5L-1017.2-423.5z"/>
				</g>
				<g id="Group_16_" transform="translate(116.809524, 69.000000)" class="st41">
					<path id="Path_64_" class="st45" d="M-1006.7-430.7c-0.5,0.3-1.2,0-1.5-0.5s-0.1-1.2,0.4-1.5s1.2-0.1,1.5,0.4
						C-1005.9-431.8-1006.1-431-1006.7-430.7L-1006.7-430.7z"/>
					<path id="Path_65_" class="st45" d="M-1006.2-432.3c-0.2-0.3-0.5-0.4-0.9-0.4c0.3,0,0.5,0.2,0.7,0.4c0.3,0.6,0.1,1.3-0.5,1.6
						c-0.2,0.2-0.5,0.2-0.8,0.3c0.4,0.1,0.7,0,1-0.2C-1006.1-431-1005.9-431.8-1006.2-432.3L-1006.2-432.3z"/>
				</g>
				<g id="Group_17_" transform="translate(139.809524, 35.000000)" class="st41">
					<path id="Path_66_" class="st45" d="M-1021.7-410.3c0.1,0.2,0.1,0.5,0,0.7c-0.2,0.2-0.4,0.3-0.7,0.3c-0.3-0.1-0.4-0.3-0.5-0.5
						s-0.1-0.5,0-0.7c0.2-0.2,0.4-0.3,0.7-0.3C-1022-410.8-1021.8-410.6-1021.7-410.3L-1021.7-410.3z"/>
					<path id="Path_67_" class="st45" d="M-1022.6-410.8c-0.2,0.1-0.4,0.3-0.4,0.5c0.1-0.2,0.2-0.3,0.4-0.3s0.4,0,0.5,0.1
						c0.2,0.1,0.3,0.3,0.3,0.4c0.1,0.2,0.1,0.3,0,0.5c0.1-0.2,0.1-0.4,0-0.6C-1021.9-410.7-1022.3-410.9-1022.6-410.8L-1022.6-410.8
						z"/>
				</g>
				<g id="Group_18_" transform="translate(69.809524, 57.000000)" class="st41">
					<path id="Path_68_" class="st45" d="M-974.4-422.5c-0.4,0.9-1.3,1.3-2.2,1c-0.9-0.4-1.3-1.3-1-2.2s1.3-1.3,2.2-1
						C-974.5-424.3-974.1-423.4-974.4-422.5z"/>
					<path id="Path_69_" class="st45" d="M-975.4-424.7c-0.5-0.2-1.1-0.2-1.5,0.1c0.4-0.2,0.8-0.2,1.2,0s0.8,0.5,1,0.9
						s0.2,0.9,0,1.3c-0.1,0.4-0.4,0.6-0.7,0.8c0.5-0.2,0.8-0.5,1-1C-974.1-423.4-974.5-424.3-975.4-424.7z"/>
				</g>
				<g id="Group_19_" transform="translate(73.809524, 16.000000)" class="st41">
					<path id="Path_70_" class="st45" d="M-978.4-398.3c0.8,0.4,1.1,1.3,0.7,2.1c-0.4,0.7-1.2,1.1-1.9,0.7s-1-1.2-0.7-2
						C-980-398.3-979.1-398.7-978.4-398.3L-978.4-398.3z"/>
					<path id="Path_71_" class="st45" d="M-980.3-397.4c-0.2,0.4-0.2,1,0.1,1.4c-0.1-0.4-0.1-0.8,0.1-1.1c0.1-0.4,0.4-0.7,0.8-0.9
						c0.4-0.2,0.8-0.2,1.1,0c0.3,0.1,0.5,0.4,0.7,0.7c-0.1-0.4-0.4-0.8-0.8-1C-979.2-398.6-980-398.2-980.3-397.4L-980.3-397.4z"/>
				</g>
				<g id="Group_20_" transform="translate(81.809524, 29.000000)" class="st41">
					<path id="Path_72_" class="st45" d="M-982.5-406.8c1.1,0.5,1.7,1.9,1.1,3c-0.5,1.1-1.8,1.5-2.9,1c-1.1-0.5-1.6-1.8-1.1-2.9
						C-984.8-406.8-983.6-407.3-982.5-406.8z"/>
					<path id="Path_73_" class="st45" d="M-985.4-405.5c-0.3,0.7-0.3,1.4,0.1,2.1c-0.2-0.5-0.1-1.1,0.1-1.7c0.2-0.6,0.6-1,1.2-1.3
						c0.5-0.3,1.2-0.3,1.8-0.1c0.4,0.2,0.8,0.5,1.1,1c-0.2-0.6-0.6-1.1-1.2-1.4C-983.7-407.3-985-406.7-985.4-405.5L-985.4-405.5z"
						/>
				</g>
				<path id="Path_74_" class="st46" d="M-880.3-373.9c0.1,0.7,0.1,1.3,0,2c13.8,6.6,21.4,12.6,20.7,14.4c-0.7,1.9-10.6,1-25.7-3.9
					c-3.7-1.2-7.8-2.6-12.1-4.3c-4.9-1.9-9.3-3.9-13.2-5.8c-13.4-6.5-20.8-12.3-20.1-14.1c0.7-1.8,9.7-1.1,23.5,3.2
					c0.4-0.5,0.9-1,1.4-1.5c-12.5-3.9-25-6.3-26.6-2.4c-1.6,4.1,9.9,11.2,22.1,16.9c4.2,2,8.4,3.8,12.2,5.3c3.4,1.3,7.2,2.7,11.1,4
					c13.3,4.4,27.5,7.5,29.2,3.2C-856.2-361-868-368.1-880.3-373.9z"/>
				<path id="Path_75_" class="st46" d="M-880.3-371.2c-0.1,0.6-0.2,1.3-0.3,1.9c5.1,2.6,8.1,4.7,8.7,5.6c-1.1,0.3-4.7-0.2-10.2-1.8
					c-3.7-1.1-8.3-2.6-13.6-4.7c-4.9-1.9-9.8-4.1-14.5-6.5c-4.3-2.3-6.8-4-7.3-4.9c1-0.3,4.1,0.1,8.8,1.4c0.3-0.5,0.6-1.1,1-1.6
					c-5.6-1.5-10.8-2.4-11.6-0.4c-0.8,1.9,3.6,4.8,8.8,7.5c5.9,3.1,12.8,5.9,14.2,6.4c1.2,0.5,7.3,2.8,13.3,4.6
					c6.1,1.8,12.2,2.9,13,0.9C-869.3-365-874.6-368.3-880.3-371.2z"/>
			</g>
		</g>
	</g>
</g>
<g id="Globe_1_" transform="translate(483.000000, 857.000000)">
	
		<radialGradient id="Path_106_" cx="-1305.6094" cy="-66.2357" r="0.9225" gradientTransform="matrix(11.7876 0 0 11.7876 14928.5146 10.0509)" gradientUnits="userSpaceOnUse">
		<stop  offset="0" style="stop-color:#AE36E5"/>
		<stop  offset="0.17" style="stop-color:#B23BE4"/>
		<stop  offset="0.38" style="stop-color:#BE4BE3"/>
		<stop  offset="0.61" style="stop-color:#D164E0"/>
		<stop  offset="0.86" style="stop-color:#EC87DC"/>
		<stop  offset="1" style="stop-color:#FF9FD9"/>
	</radialGradient>
	<path id="Path_80_" class="st47" d="M-451.3-773.5c0,2.4-1.4,4.6-3.6,5.5s-4.7,0.4-6.4-1.2s-2.2-4.2-1.3-6.4
		c0.9-2.2,3.1-3.7,5.4-3.7C-454-779.4-451.3-776.8-451.3-773.5L-451.3-773.5z"/>
</g>
<g id="Globe_2_" transform="translate(483.000000, 857.000000)">
	
		<radialGradient id="Path_107_" cx="-1275.502" cy="-52.721" r="0.9228" gradientTransform="matrix(11.7876 0 0 11.7876 14928.5146 10.0509)" gradientUnits="userSpaceOnUse">
		<stop  offset="0" style="stop-color:#AE36E5"/>
		<stop  offset="0.17" style="stop-color:#B23BE4"/>
		<stop  offset="0.38" style="stop-color:#BE4BE3"/>
		<stop  offset="0.61" style="stop-color:#D164E0"/>
		<stop  offset="0.86" style="stop-color:#EC87DC"/>
		<stop  offset="1" style="stop-color:#FF9FD9"/>
	</radialGradient>
	<path id="Path_81_" class="st48" d="M-96.4-614.2c0,2.4-1.4,4.6-3.6,5.5s-4.7,0.4-6.4-1.2c-1.7-1.7-2.2-4.2-1.3-6.4
		c0.9-2.2,3.1-3.7,5.4-3.7C-99.1-620.1-96.4-617.5-96.4-614.2L-96.4-614.2z"/>
</g>
<g id="BACKGROUND_1">
	<g>
		<g>
			<g>
				<g>
					
						<radialGradient id="SVGID_1_" cx="93.8257" cy="868.1589" r="1.1384" gradientTransform="matrix(0.3186 0 0 0.3186 0.3407 -211.5179)" gradientUnits="userSpaceOnUse">
						<stop  offset="0.2473" style="stop-color:#FFFFFF"/>
						<stop  offset="0.6667" style="stop-color:#5E9C70"/>
						<stop  offset="1" style="stop-color:#000006"/>
					</radialGradient>
					<path class="st49" d="M30,65.4c-0.2-0.1-0.2-0.4-0.1-0.5l0,0c0.1-0.2,0.4-0.2,0.5-0.1l0,0c0.2,0.1,0.2,0.4,0.1,0.5l0,0
						c-0.1,0.1-0.2,0.2-0.3,0.2l0,0C30.2,65.4,30.1,65.4,30,65.4z"/>
				</g>
				<g>
					
						<radialGradient id="SVGID_2_" cx="-48.4546" cy="503.4285" r="3.7698" gradientTransform="matrix(0.3186 0 0 0.3186 0.3407 -211.5179)" gradientUnits="userSpaceOnUse">
						<stop  offset="0.2473" style="stop-color:#FFFFFF"/>
						<stop  offset="0.6667" style="stop-color:#5E9C70"/>
						<stop  offset="1" style="stop-color:#000006"/>
					</radialGradient>
					<path class="st50" d="M-15.8-50.1c-0.5-0.4-0.7-1.1-0.3-1.7l0,0c0.4-0.5,1.1-0.7,1.7-0.3l0,0c0.5,0.4,0.7,1.1,0.3,1.7l0,0
						c-0.2,0.4-0.6,0.5-1,0.5l0,0C-15.3-49.9-15.6-50-15.8-50.1z"/>
				</g>
			</g>
		</g>
	</g>
</g>
<g id="DESIGNED_BY_FREEPIK">
</g>
<path class="st51" d="M1.6,75.4c-33.9,0-61.3-27.5-61.3-61.3c0-33.9,27.5-61.3,61.3-61.3C35.5-47.3,63-19.8,63,14
	C63,47.9,35.5,75.4,1.6,75.4z M1.7,59.4c25,0,45.3-20.3,45.3-45.3S26.7-31.1,1.7-31.1s-45.3,20.3-45.3,45.3S-23.3,59.4,1.7,59.4z"/>
<g>
	<g>
		<defs>
			<rect id="SVGID_3_" x="292.5" y="24.5" width="109" height="195"/>
		</defs>
		<clipPath id="SVGID_4_">
			<use xlink:href="#SVGID_3_"  style="overflow:visible;"/>
		</clipPath>
		<g class="st52">
			<g>
				<defs>
					<rect id="SVGID_5_" x="287.5" y="19.5" width="119" height="205"/>
				</defs>
				<clipPath id="SVGID_6_">
					<use xlink:href="#SVGID_5_"  style="overflow:visible;"/>
				</clipPath>
				<g style="clip-path:url(#SVGID_6_);">
					
						<image style="overflow:visible;" width="249" height="428" xlink:href="3E2BAACFAA976240.jpg"  transform="matrix(0.48 0 0 0.48 287.04 19.24)">
					</image>
				</g>
			</g>
		</g>
	</g>
</g>
</svg>
