<?xml version="1.0" encoding="utf-8"?>
<!-- Generator: Adobe Illustrator 24.0.2, SVG Export Plug-In . SVG Version: 6.00 Build 0)  -->
<svg version="1.1" id="Capa_1" xmlns="http://www.w3.org/2000/svg" xmlns:xlink="http://www.w3.org/1999/xlink" x="0px" y="0px"
	 viewBox="0 0 512 512" style="enable-background:new 0 0 512 512;" xml:space="preserve">
<style type="text/css">
	.st0{fill:#CCCCCC;}
	.st1{fill:#999999;}
	.st2{fill:#E6E6E6;}
	.st3{fill:#F2F2F2;}
	.st4{fill:#FFFFFF;}
	.st5{fill:#666666;}
	.st6{fill:#515159;}
	.st7{fill:#808080;}
	.st8{fill:#3DCCA2;}
	.st9{fill:#00CBF2;}
	.st10{fill:#EAE4D4;}
	.st11{fill:#00B6D9;}
	.st12{fill:#946473;}
	.st13{fill:#66454F;}
	.st14{fill:#FFEA00;}
	.st15{fill:#6599DB;}
	.st16{fill:#83CBEF;}
	.st17{fill:#A1E0FF;}
	.st18{fill:#B3D4FF;}
	.st19{fill:#94EEFF;}
	.st20{fill:#003880;}
</style>
<g>
	<polygon class="st0" points="178.8,453.5 211.7,452.4 496.3,289.4 409.6,241.3 	"/>
	<path id="XMLID_2276_" class="st1" d="M6.2,338.8v16.8h0c0,2.8,1.4,5.6,4.2,7.3l150.8,89.4l0.3,0.2l1.5,0.9
		c4.9,2.9,10.9,3,15.8,0.2l0.6-0.4l285.6-164.1c3.1-1.7,4.5-4.9,4.3-8v-16.3l-9.1,6.5l-143-84.8c-4.8-2.9-10.9-2.9-15.8-0.2
		l-218.4,121l-64.8,36.3v-1.5L6.2,338.8z"/>
	<path id="XMLID_2275_" class="st2" d="M6.2,338.8v16.8h0c0,2.8,1.4,5.6,4.2,7.3l151,89.5l0-21L83.1,307.3l-64.8,36.3v-1.5
		L6.2,338.8z"/>
	<path id="XMLID_2274_" class="st0" d="M161.4,429.5v22.9l1.5,0.9c4.9,2.9,10.9,3,15.8,0.2l0.6-0.4v-23.6H161.4z"/>
	<path id="XMLID_2273_" class="st3" d="M10.4,346.4l143.3,85.2l9.3,5.5c4.9,2.9,10.9,3,15.8,0.2l10.6-6.1l275.7-158.3
		c5.8-3.2,5.8-11.5,0.2-14.8l-152.3-90.4c-4.8-2.9-10.9-2.9-15.8-0.2L10.6,331.5C4.9,334.7,4.7,343,10.4,346.4z"/>
	<g id="XMLID_2267_">
		<path id="XMLID_2270_" class="st1" d="M396.8,234.7c1.3,0,2.6-0.3,3.6-0.9c1.1-0.6,1.7-1.4,1.7-2.3c0-0.7-0.4-1.4-1.2-1.8
			l-45.3-26.1c-0.7-0.4-1.7-0.6-2.8-0.6c-1.3,0-2.6,0.3-3.6,0.9c-1.1,0.6-1.7,1.4-1.7,2.3c0,0.7,0.4,1.4,1.2,1.8l45.3,26.1
			C394.8,234.4,395.8,234.7,396.8,234.7L396.8,234.7z"/>
		<path id="XMLID_2269_" class="st1" d="M355.3,203.9l45.3,26.1c1.5,0.9,1.3,2.4-0.4,3.4l0,0c-1.8,1-4.4,1.1-5.9,0.2L349,207.5
			c-1.5-0.9-1.3-2.4,0.4-3.4l0,0C351.2,203.1,353.8,203,355.3,203.9z"/>
		<path id="XMLID_2268_" class="st2" d="M400.6,231.4l-45.3-26.1c-1.5-0.9-4.2-0.8-5.9,0.2c-0.6,0.4-1,0.8-1.3,1.2
			c-0.5-0.8,0-1.9,1.3-2.6c1.8-1,4.4-1.1,5.9-0.2l45.3,26.1c1,0.6,1.2,1.4,0.8,2.2C401.3,231.9,401,231.6,400.6,231.4z"/>
	</g>
	<g id="XMLID_16_">
		<path id="XMLID_19_" class="st1" d="M120,395.6c2.8,0,5.6-0.7,7.7-1.9c2.3-1.3,3.6-3.1,3.6-5c0-1.6-0.9-3-2.7-4l-37-21.6
			c-1.6-0.9-3.7-1.4-6-1.4c-2.8,0-5.6,0.7-7.7,1.9c-2.3,1.3-3.6,3.1-3.6,5c0,1.6,0.9,3,2.7,4l37,21.6
			C115.5,395.1,117.7,395.6,120,395.6L120,395.6z"/>
		<path id="XMLID_18_" class="st3" d="M91.2,363.9l37,21.6c3.3,1.9,2.9,5.2-0.9,7.4l0,0c-3.8,2.2-9.5,2.4-12.8,0.5l-37-21.6
			c-3.3-1.9-2.9-5.2,0.9-7.4l0,0C82.2,362.3,87.9,362,91.2,363.9z"/>
		<path id="XMLID_17_" class="st4" d="M91.7,366.3l27,15.7c1,0.6,0.8,1.5-0.3,2.2l0,0c-1.1,0.6-2.8,0.7-3.8,0.2l-27-15.7
			c-1-0.6-0.8-1.5,0.3-2.2l0,0C89.1,365.8,90.8,365.7,91.7,366.3z"/>
	</g>
	<g>
		<path class="st5" d="M405.2,320.4c-0.5,0-1-0.2-1.4-0.5c-0.3-0.3-0.6-0.8-0.6-1.6l0.1-4.9c0-1.5,1.1-3.2,2.6-4l28.4-16
			c0.5-0.3,1-0.4,1.5-0.4c0.5,0,1,0.2,1.4,0.5c0.3,0.3,0.6,0.8,0.6,1.6l-0.1,5c0,1.5-1.1,3.2-2.5,4l-28.4,16
			C406.2,320.3,405.7,320.4,405.2,320.4L405.2,320.4z"/>
		<g id="XMLID_2260_">
			<path id="XMLID_2266_" class="st2" d="M406.9,320.9c0,0,0.1-1,0.1-1.9l27.6-15.5c1.1-0.6,2.1-2.1,2.1-3.2l0,1.5l0.1-4.9v-0.1
				l1-0.1l0.1,0l0.6-1l-2.2-1.3l0,0c-0.4-0.2-0.9-0.2-1.5,0.2l-28.4,16c0,0-0.1,0-0.1,0.1c-1,0.6-1.9,1.9-1.9,3c0,0,0,0.1,0,0.1
				l-0.1,5c0,0,0,0,0,0.1c0,0,0,0,0,0c0,0.4,0.1,0.7,0.4,0.9l0,0c0.1,0.1,0.1,0.1,0.2,0.1L406.9,320.9z"/>
			<path id="XMLID_2265_" class="st6" d="M406.9,320.7c0,0,0.1-1,0.1-2l2.3-1.3c0.2-0.8,0.3-1.4,0.3-1.5c0-0.3-3.2-1.3-3.2-1.3
				l-2.2-1.3c0,0,0,0.1,0,0.1l-0.1,5c0,0,0,0,0,0.1c0,0,0,0,0,0c0,0.4,0.2,0.6,0.4,0.8l0,0c0.1,0.1,0.1,0.1,0.2,0.1L406.9,320.7z"/>
			<path id="XMLID_2264_" class="st0" d="M406.9,320.9c0,0,0.1-1,0.1-1.9l2.3-1.3c0.2-0.8,0.3-1.4,0.3-1.5c0-0.3-3.2-1.3-3.2-1.3
				l-2.2-1.3l-0.1,5c0,0.4,0.1,0.8,0.4,1l0,0c0.1,0.1,0.1,0.1,0.2,0.1L406.9,320.9z"/>
			<path id="XMLID_2263_" class="st6" d="M436.6,301.7l0.1-5l0.1,0l1-0.1l0-0.1l0.6-1l-2.2-1.3l0,0c-0.4-0.2-0.9-0.2-1.5,0.2
				l-28.3,15.9c0,0-0.1,0-0.1,0.1l2.2,1.3l16-1.4C424.5,310.3,431.3,306.4,436.6,301.7z"/>
			<path id="XMLID_2262_" class="st3" d="M436.7,301.7l0.1-5l1.1-0.1l0.6-1l-2.2-1.3l0,0c-0.4-0.2-0.9-0.2-1.5,0.2l-28.4,16l2.2,1.3
				l16-1.4C424.6,310.2,431.4,306.3,436.7,301.7z"/>
			<path id="XMLID_2261_" class="st7" d="M438.9,301.5l0.1-5c0-1.1-0.9-1.5-2-0.9l-28.4,16c-1.1,0.6-2.1,2.1-2.1,3.2l-0.1,5
				c0,1.1,0.9,1.5,2,0.9l28.4-16C438,304.1,438.9,302.7,438.9,301.5z"/>
		</g>
	</g>
	<g>
		<path class="st5" d="M367.7,342c-0.5,0-1-0.2-1.4-0.5c-0.3-0.3-0.6-0.8-0.6-1.6l0.1-4.9c0-1.5,1.1-3.2,2.6-4l28.4-16
			c0.5-0.3,1-0.4,1.5-0.4c0.5,0,1,0.2,1.4,0.5c0.3,0.3,0.6,0.8,0.6,1.6l-0.1,5c0,1.5-1.1,3.2-2.5,4l-28.4,16
			C368.7,341.8,368.2,342,367.7,342L367.7,342z"/>
		<g id="XMLID_1_">
			<path id="XMLID_7_" class="st2" d="M369.4,342.4c0,0,0.1-1,0.1-2l27.6-15.5c1.1-0.6,2.1-2.1,2.1-3.2l0,1.5l0.1-4.9v-0.1l1-0.1
				l0.1,0l0.6-1l-2.2-1.3l0,0c-0.4-0.2-0.9-0.2-1.5,0.2l-28.4,16c0,0-0.1,0-0.1,0.1c-1,0.6-1.9,1.9-1.9,3c0,0,0,0.1,0,0.1l-0.1,5
				c0,0,0,0,0,0.1l0,0c0,0.4,0.1,0.7,0.4,0.9l0,0c0.1,0.1,0.1,0.1,0.2,0.1L369.4,342.4z"/>
			<path id="XMLID_6_" class="st6" d="M369.4,342.3c0,0,0.1-1,0.1-1.9l2.3-1.3c0.2-0.8,0.3-1.4,0.3-1.5c0-0.3-3.2-1.3-3.2-1.3
				l-2.2-1.3c0,0,0,0.1,0,0.1l-0.1,5c0,0,0,0,0,0.1l0,0c0,0.4,0.2,0.6,0.4,0.8l0,0c0.1,0.1,0.1,0.1,0.2,0.1L369.4,342.3z"/>
			<path id="XMLID_5_" class="st0" d="M369.4,342.4c0,0,0.1-1,0.1-2l2.3-1.3c0.2-0.8,0.3-1.4,0.3-1.5c0-0.3-3.2-1.3-3.2-1.3
				l-2.2-1.3l-0.1,5c0,0.4,0.1,0.8,0.4,1l0,0c0.1,0.1,0.1,0.1,0.2,0.1L369.4,342.4z"/>
			<path id="XMLID_4_" class="st6" d="M399,323.3l0.1-5l0.1,0l1-0.1l0-0.1l0.6-1l-2.2-1.3l0,0c-0.4-0.2-0.9-0.2-1.5,0.2l-28.3,15.9
				c0,0-0.1,0-0.1,0.1l2.2,1.3l16-1.4C386.9,331.9,393.8,328,399,323.3z"/>
			<path id="XMLID_3_" class="st3" d="M399.2,323.2l0.1-5l1.1-0.1l0.6-1l-2.2-1.3l0,0c-0.4-0.2-0.9-0.2-1.5,0.2l-28.4,16l2.2,1.3
				l16-1.4C387.1,331.8,393.9,327.9,399.2,323.2z"/>
			<path id="XMLID_2_" class="st7" d="M401.4,323.1l0.1-5c0-1.1-0.9-1.5-2-0.9l-28.4,16c-1.1,0.6-2.1,2.1-2.1,3.2l-0.1,5
				c0,1.1,0.9,1.5,2,0.9l28.4-16C400.4,325.7,401.4,324.2,401.4,323.1z"/>
		</g>
	</g>
	<g id="XMLID_2249_">
		<path id="XMLID_2252_" class="st1" d="M312.1,184.4c1.6,0,3-0.4,4.1-1c1-0.7,1.6-1.5,1.5-2.5c-0.1-1.1-0.9-2.2-2.3-2.9
			c-1.2-0.6-2.7-1-4.2-1c-1.6,0-3,0.4-4.1,1c-1,0.7-1.6,1.5-1.5,2.5c0.1,1.1,0.9,2.2,2.3,2.9C309.1,184,310.6,184.4,312.1,184.4z"/>
		<path id="XMLID_2251_" class="st1" d="M308.1,182.9c2.3,1.2,5.8,1.2,7.7,0c1.9-1.2,1.6-3.2-0.8-4.4c-2.3-1.2-5.8-1.2-7.7,0
			C305.4,179.7,305.8,181.7,308.1,182.9z"/>
		<path id="XMLID_2250_" class="st2" d="M315.1,179.9c-2.3-1.2-5.8-1.2-7.7,0c-0.5,0.3-0.9,0.7-1.1,1.2c-0.4-0.9-0.1-1.9,1.1-2.7
			c1.9-1.2,5.4-1.3,7.7,0c1.7,0.9,2.3,2.2,1.8,3.3C316.6,181,316,180.4,315.1,179.9z"/>
	</g>
	<g id="XMLID_8_">
		<path id="XMLID_11_" class="st1" d="M322.5,190.4c1.6,0,3-0.4,4.1-1c1-0.7,1.6-1.5,1.5-2.5c-0.1-1.1-0.9-2.2-2.3-2.9
			c-1.2-0.6-2.7-1-4.2-1c-1.6,0-3,0.4-4.1,1c-1,0.7-1.6,1.5-1.5,2.5c0.1,1.1,0.9,2.2,2.3,2.9C319.5,190,321,190.4,322.5,190.4z"/>
		<path id="XMLID_10_" class="st1" d="M318.5,188.9c2.3,1.2,5.8,1.2,7.7,0c1.9-1.2,1.6-3.2-0.8-4.4c-2.3-1.2-5.8-1.2-7.7,0
			C315.8,185.7,316.2,187.7,318.5,188.9z"/>
		<path id="XMLID_9_" class="st2" d="M325.5,185.9c-2.3-1.2-5.8-1.2-7.7,0c-0.5,0.3-0.9,0.7-1.1,1.2c-0.4-0.9-0.1-1.9,1.1-2.7
			c1.9-1.2,5.4-1.3,7.7,0c1.7,0.9,2.3,2.2,1.8,3.3C327,187,326.4,186.4,325.5,185.9z"/>
	</g>
	<g id="XMLID_12_">
		<path id="XMLID_15_" class="st1" d="M443.6,264c1.6,0,3-0.4,4.1-1c1-0.7,1.6-1.5,1.5-2.5c-0.1-1.1-0.9-2.2-2.3-2.9
			c-1.2-0.6-2.7-1-4.2-1c-1.6,0-3,0.4-4.1,1c-1,0.7-1.6,1.5-1.5,2.5c0.1,1.1,0.9,2.2,2.3,2.9C440.6,263.7,442.1,264,443.6,264z"/>
		<path id="XMLID_14_" class="st1" d="M439.7,262.5c2.3,1.2,5.8,1.2,7.7,0c1.9-1.2,1.6-3.2-0.8-4.4c-2.3-1.2-5.8-1.2-7.7,0
			C437,259.3,437.3,261.3,439.7,262.5z"/>
		<path id="XMLID_13_" class="st2" d="M446.6,259.6c-2.3-1.2-5.8-1.2-7.7,0c-0.5,0.3-0.9,0.7-1.1,1.2c-0.4-0.9-0.1-1.9,1.1-2.7
			c1.9-1.2,5.4-1.3,7.7,0c1.7,0.9,2.3,2.2,1.8,3.3C448.2,260.7,447.6,260.1,446.6,259.6z"/>
	</g>
	<polygon id="XMLID_2243_" class="st1" points="281.2,191.4 427,277.8 191.5,411 45.5,324.4 	"/>
	<polygon class="st8" points="425.1,277.8 384.9,300.6 191.5,409.9 79.5,343.5 47.3,324.4 281.2,192.5 424.9,277.7 	"/>
	<path class="st9" d="M250.5,270.2c2.2,3.8,4.8,7.4,8.1,10.3c5.4,4.6,12.6,7,19.7,6.6c7.9-0.4,15.2-3.7,22.6-6.3
		c15.5-5.4,32.2-7.3,48.5-5.6c4.6,0.5,9.8,1.1,13.4-1.8c3-2.5,3.9-6.9,3.3-10.7c-0.6-3.7-2.4-7.2-5-9.8c-3.5-3.5-8.3-5.4-13-7.1
		c-22.3-8.3-45.2-15.7-68.9-18.2c-12.6-1.3-28.2-0.5-36.2,11.1C237,247.5,245.9,262.5,250.5,270.2z"/>
	<path class="st10" d="M384.9,300.6L191.5,409.9l-112-66.4c4.2-9.5,17.4-13.6,26.5-15.8c5.6-1.3,11.3-2.7,17.1-2.4
		c9.7,0.5,18.8,5.7,28.5,5.4c12.2-0.3,22.4-9,31.6-16.9c9.2-7.9,20-16.1,32.1-15.3c6,0.4,11.8,3.1,15.9,7.5c2,2.1,3.6,4.5,5.9,6.2
		c2.6,1.9,5.9,2.6,9.1,3.2c10.2,2.2,21.2,4.2,30.6-0.2c6.1-2.8,10.8-8,16.7-11.1c8.4-4.3,18.5-3.9,27.6-6.7
		c9.2-2.9,17.1-9.1,26-12.9c4.1-1.7,8.8-3.1,13.1-1.8c3.2,0.8,5.8,2.9,8.3,5C373.9,292,379.4,296.3,384.9,300.6z"/>
	<path class="st11" d="M131.9,343.6c5.9-0.5,11.7,1.2,17.4,2.5c18.5,4.4,37.6,5.5,56.6,5.6c5.6,0,11.2,0,16.6,0.9
		c5.5,1,10.9,3.1,14.9,6.9c1.8,1.7,3.4,3.9,3.5,6.4c0.3,4.4-3.9,7.7-7.6,10.2c-12.5,8.3-26.2,16.9-41.2,16.2
		c-10.1-0.5-19.4-5.1-28.5-9.7c-9.8-5-19.7-9.9-29.5-14.9c-5.2-2.6-14.4-6.9-15.5-13.4C117.6,347.8,126.8,344,131.9,343.6z"/>
	<path class="st12" d="M308.9,343.6l-22,12.4c-14.3-4-30.6-6.8-49.5-8.6c-12.3-1.2-24.9-1.9-37.2-2.5l-1.6-0.1
		c-24.8-1.4-50.3-2.8-75.4-7.8c-15.8-3.2-27.9-7.2-38.2-12.7c-5.8-3.1-11.3-6.8-16.3-11l-0.6-0.5l17.8-10c2.5,1.8,5.2,3.5,8,5
		c8.7,4.6,19.1,8.1,33,10.8c23.7,4.8,48.6,6.1,72.7,7.5c11.5,0.6,25.8,1.4,39.6,2.7c14.7,1.4,27.9,3.4,40.1,6.1
		c0-0.1-0.1-0.1-0.2-0.2c-8.1-7.8-15.8-14.3-23.3-20c-4.4-3.3-9.3-6.6-13.9-9.8l-2.6-1.8c-13.2-8.9-26.8-18-37.8-30.5
		c-6.4-7.3-11.9-15.6-17-25.5l16.5-9.3l0,0.1c4.3,8.7,9.1,16,14.6,22.2c9.4,10.6,21.3,18.7,34,27.2c6.5,4.3,12.1,8.1,17.5,12.2
		c8.2,6.2,16.4,13.2,24.9,21.4c6.3,5.9,13.1,13.3,16.1,22.4L308.9,343.6z"/>
	<path class="st13" d="M306.4,344.9l-16.7,9.4c-15.2-4.4-32.5-7.4-52.2-9.3c-12.9-1.2-26.1-1.9-38.9-2.6c-24.7-1.4-50.2-2.8-75-7.8
		c-15.5-3.1-27.4-7.1-37.5-12.5c-5.7-3-11-6.6-15.8-10.8l13.3-7.5c2.9,2.1,6,4.1,9.2,5.8c8.9,4.7,19.6,8.3,33.7,11.1
		c23.9,4.8,48.9,6.2,73,7.5c12.9,0.7,26.3,1.5,39.5,2.7c17.6,1.7,33.4,4.2,47.7,7.9c-1.8-2.1-3.9-4.2-5.9-6.1
		c-8.3-8-16-14.5-23.5-20.1c-5.3-4-11.1-7.8-16.6-11.6c-13.1-8.8-26.5-17.8-37.3-30.1c-6.8-7.7-12.2-16.2-16.7-25.1l12.4-7
		c4.1,8.2,8.9,15.9,14.9,22.7c9.6,10.9,21.8,19.1,34.6,27.8c5.7,3.8,11.6,7.8,17.2,12c7.9,5.9,16,12.8,24.8,21.2
		c6.7,6.4,13.1,13.5,15.8,22.3C306.3,344.9,306.3,344.9,306.4,344.9z"/>
	<g>
		<path class="st5" d="M317.5,207.6l-1.4-0.8l9.2-5.3l-9.2,1.9l-0.9-0.5l3.3-5.3l-9.2,5.3L308,202l10.6-6.1l1.9,1.1l-3.1,5.1
			l8.7-1.8l2,1.1L317.5,207.6z"/>
		<path class="st5" d="M331.1,210.8c-1.3,0.8-2.7,1.2-4.1,1.2c-1.4,0-2.7-0.3-3.8-0.9c-1.1-0.7-1.7-1.4-1.6-2.2
			c0.1-0.8,0.8-1.6,2.1-2.4c1.3-0.8,2.7-1.2,4.1-1.2c1.4,0,2.7,0.3,3.8,0.9c1.1,0.6,1.7,1.4,1.6,2.2
			C333.1,209.3,332.4,210,331.1,210.8z M329.7,210c1-0.6,1.6-1.2,1.7-1.7c0.1-0.5-0.2-1-0.9-1.4c-0.7-0.4-1.6-0.6-2.5-0.5
			c-0.9,0.1-1.9,0.4-2.9,1c-1,0.6-1.6,1.1-1.7,1.7c-0.1,0.5,0.2,1,0.9,1.4c0.7,0.4,1.5,0.6,2.5,0.5
			C327.8,210.9,328.7,210.6,329.7,210z"/>
		<path class="st5" d="M340.4,216.1c-0.7,0.4-1.4,0.7-2.1,0.9c-0.7,0.2-1.4,0.3-2.1,0.3c-0.7,0-1.4,0-2-0.2
			c-0.6-0.1-1.1-0.3-1.6-0.6c-0.5-0.3-0.8-0.5-1-0.8c-0.2-0.3-0.4-0.5-0.6-0.8l-0.5,0.2l-1.3-0.7l11.1-6.4l1.3,0.8l-4,2.3
			c0.7,0,1.3,0.1,2,0.3c0.6,0.1,1.2,0.4,1.7,0.7c1,0.5,1.3,1.2,1.2,1.9C342.4,214.5,341.7,215.3,340.4,216.1z M338.9,215.3
			c1-0.5,1.5-1.1,1.7-1.5c0.2-0.5-0.1-0.9-0.8-1.3c-0.4-0.2-0.9-0.4-1.4-0.5c-0.6-0.1-1.2-0.2-1.8-0.3l-4.6,2.6
			c0.2,0.3,0.4,0.6,0.6,0.8c0.2,0.2,0.5,0.4,0.8,0.6c0.7,0.4,1.6,0.6,2.5,0.6C336.9,216.2,337.9,215.9,338.9,215.3z"/>
		<path class="st5" d="M339.8,220.4l-1.4-0.8l8-4.6l1.4,0.8L339.8,220.4z M349.2,215.1l-1.5-0.9l1.4-0.8l1.5,0.9L349.2,215.1z"/>
		<path class="st5" d="M343.8,222.7l-1.4-0.8l11.1-6.4l1.4,0.8L343.8,222.7z"/>
		<path class="st5" d="M357.1,225.9l-5.9-3.4c-0.5,0.3-0.8,0.6-1.1,0.9c-0.2,0.3-0.3,0.6-0.3,0.9c0,0.3,0.1,0.5,0.4,0.8
			c0.2,0.3,0.5,0.5,1,0.8c0.5,0.3,1.2,0.6,2,0.8c0.8,0.2,1.4,0.3,1.8,0.3l0.1,0l-1.5,0.8c-0.6-0.2-1.3-0.3-1.9-0.5
			c-0.6-0.2-1.2-0.5-1.7-0.7c-1.3-0.8-2-1.6-2-2.4c0-0.8,0.6-1.6,1.9-2.4c1.3-0.8,2.7-1.1,4.2-1.2c1.5,0,2.8,0.3,4,1
			c1.1,0.6,1.6,1.3,1.6,2c0,0.7-0.6,1.4-1.8,2.1L357.1,225.9z M356.8,224.6c0.7-0.4,1.1-0.8,1.1-1.3c0-0.4-0.3-0.8-1-1.3
			c-0.7-0.4-1.5-0.6-2.4-0.6c-0.9,0-1.6,0.2-2.3,0.5L356.8,224.6z"/>
		<path class="st5" d="M375,232.1c-0.5,0.3-1,0.5-1.6,0.6c-0.6,0.1-1.1,0.2-1.7,0.2c-0.7,0-1.5-0.1-2.1-0.3
			c-0.7-0.2-1.4-0.5-2.2-0.9l-1.4-0.8l-4,2.3l-1.4-0.8l10.6-6.1l2.9,1.7c0.6,0.4,1.1,0.7,1.5,1c0.3,0.3,0.6,0.6,0.7,1
			c0.1,0.4,0.1,0.8-0.1,1.1C376,231.4,375.6,231.8,375,232.1z M373.5,231.3c0.4-0.2,0.6-0.4,0.8-0.7c0.1-0.2,0.2-0.5,0.1-0.7
			c-0.1-0.2-0.2-0.4-0.5-0.6c-0.2-0.2-0.6-0.4-1-0.7l-1.4-0.8l-4.3,2.4l1.2,0.7c0.6,0.3,1.1,0.6,1.6,0.7c0.5,0.1,0.9,0.2,1.4,0.2
			c0.5,0,0.9,0,1.2-0.1C372.8,231.6,373.1,231.5,373.5,231.3z"/>
		<path class="st5" d="M376,241.3l-1.4-0.8l4.5-2.6c0.4-0.2,0.7-0.4,1-0.6c0.3-0.2,0.5-0.4,0.5-0.6c0.1-0.2,0.1-0.4-0.1-0.6
			c-0.1-0.2-0.4-0.4-0.7-0.6c-0.4-0.2-0.8-0.4-1.4-0.5c-0.6-0.1-1.2-0.2-1.8-0.3l-6,3.4l-1.4-0.8l11.1-6.4l1.4,0.8l-4,2.3
			c0.8,0,1.5,0.1,2.1,0.3c0.6,0.1,1.2,0.4,1.7,0.6c0.9,0.5,1.3,1,1.2,1.6c-0.1,0.6-0.6,1.1-1.6,1.7L376,241.3z"/>
		<path class="st5" d="M389.5,244.5c-1.3,0.8-2.7,1.2-4.1,1.2c-1.4,0-2.7-0.3-3.8-0.9c-1.1-0.7-1.7-1.4-1.6-2.2
			c0.1-0.8,0.8-1.6,2.1-2.4c1.3-0.7,2.7-1.2,4.1-1.2c1.4,0,2.7,0.3,3.8,0.9c1.1,0.6,1.7,1.4,1.6,2.2
			C391.5,243,390.8,243.7,389.5,244.5z M388.1,243.7c1-0.6,1.6-1.2,1.7-1.7c0.1-0.5-0.2-1-1-1.4c-0.7-0.4-1.6-0.6-2.5-0.5
			c-0.9,0.1-1.9,0.4-2.9,1c-1,0.6-1.6,1.1-1.7,1.7c-0.1,0.5,0.2,1,0.9,1.4c0.7,0.4,1.5,0.6,2.5,0.5
			C386.1,244.6,387.1,244.3,388.1,243.7z"/>
		<path class="st5" d="M394.3,251.9l-1.4-0.8l4.5-2.6c0.4-0.2,0.7-0.4,1-0.6c0.3-0.2,0.5-0.4,0.5-0.6c0.1-0.2,0.1-0.4-0.1-0.6
			c-0.1-0.2-0.4-0.4-0.7-0.6c-0.4-0.2-0.8-0.4-1.4-0.5c-0.6-0.1-1.2-0.2-1.8-0.3l-6,3.4l-1.4-0.8l8-4.6l1.4,0.8l-0.9,0.5
			c0.8,0,1.5,0.1,2.1,0.3c0.6,0.1,1.2,0.4,1.7,0.6c0.9,0.5,1.3,1,1.2,1.6c-0.1,0.6-0.6,1.1-1.6,1.7L394.3,251.9z"/>
		<path class="st5" d="M407.5,255l-5.9-3.4c-0.5,0.3-0.8,0.6-1.1,0.9c-0.2,0.3-0.3,0.6-0.3,0.9c0,0.3,0.1,0.5,0.4,0.8
			c0.2,0.3,0.5,0.5,1,0.8c0.5,0.3,1.2,0.6,2,0.8c0.8,0.2,1.4,0.3,1.8,0.3l0.1,0l-1.5,0.8c-0.6-0.2-1.3-0.3-1.9-0.5
			c-0.6-0.2-1.2-0.5-1.7-0.7c-1.3-0.8-2-1.6-2-2.4c0-0.8,0.6-1.6,1.9-2.4c1.3-0.7,2.7-1.1,4.2-1.2c1.5,0,2.8,0.3,4,1
			c1.1,0.6,1.6,1.3,1.6,2c-0.1,0.7-0.6,1.4-1.8,2.1L407.5,255z M407.2,253.7c0.7-0.4,1.1-0.8,1.1-1.3c0-0.4-0.3-0.8-1-1.3
			c-0.7-0.4-1.5-0.6-2.4-0.6c-0.9,0-1.6,0.2-2.3,0.5L407.2,253.7z"/>
	</g>
	<g>
		<g id="XMLID_20_">
			<path id="XMLID_23_" class="st1" d="M93.2,407.1c0.5-0.3,0.8-0.9,0.8-1.8c0-0.9-0.3-2-0.8-2.9c-0.5-0.8-1-1.4-1.6-1.8l-12.7-7.4
				c-0.5-0.3-1-0.3-1.5-0.1c-0.5,0.3-0.8,0.9-0.8,1.8c0,0.9,0.3,2,0.8,2.9c0.5,0.8,1,1.4,1.6,1.8l12.7,7.4
				C92.3,407.3,92.8,407.3,93.2,407.1L93.2,407.1z"/>
		</g>
		<path class="st4" d="M92.2,406.8l-12.7-7.4c-0.6-0.3-1.2-1-1.6-1.8c-0.5-0.9-0.8-2-0.8-2.9c0-0.7,0.3-1.2,0.6-1.6
			c-0.1,0-0.2,0-0.3,0.1c-0.5,0.3-0.8,0.9-0.8,1.8c0,0.9,0.3,2,0.8,2.9c0.5,0.8,1,1.4,1.6,1.8l12.7,7.4c0.5,0.3,1,0.3,1.5,0.1
			c0.1,0,0.1-0.1,0.2-0.2C93,407,92.6,407,92.2,406.8z"/>
	</g>
	<g>
		<path class="st14" d="M234.5,125.6c0,38.1,26.9,84.4,60,103.6c33.2,19.1,60,3.8,60-34.2c0-38.1-26.9-84.4-60-103.6
			C261.4,72.2,234.5,87.5,234.5,125.6z"/>
		<g>
			<path class="st15" d="M339.9,223.4c0-19.7-10.1-42.2-24.2-56.8c-4.3-12.4-12.8-24.1-22.6-29.7c-2.8-1.6-5.6-2.6-8.1-3.1
				c-9-19.9-23.3-37.6-39.4-46.9c-12.5-7.2-24-8.1-32.7-3.6l0,0c0,0-0.1,0-0.2,0.1c-0.5,0.3-0.9,0.5-1.4,0.8c-3.2,1.9-10.2,6-14,8.2
				c-5.4-9.1-14.7-31.9-36-27.4c0,0-15.8,9.5-21.4,13.6l15-8.6l-22.5,12.8l0,8.6c-0.1,0.2-0.1,0.5-0.2,0.7c-6.8-2.4-2.3-7.9-6.7-4.2
				L115,94.4l-7,3.4l10.5,5.3c-0.2,1.6-0.3,3.3-0.3,5.1c0,1.4,0.1,2.8,0.2,4.2c0,0,0,0.1,0,0.1c0,0,0,0,0,0
				c1.7,19.7,14.6,41.7,30.2,50.7v0l14.8,8.5l59.4,34.3l75.7,43.7v0l0,0c3.2,1.8,6.2,3.1,9.2,3.8l-2.7,9.3l21.4-11.9
				c1.3-0.5,2.4-1.2,3.5-2.1l0.4-0.2l-0.1,0c5.3-4.1,8.9-11.3,9.6-21.2c0,0,0,0,0,0.1C339.8,226.2,339.9,224.9,339.9,223.4z"/>
			<g>
				<path class="st16" d="M268.9,150.4c-2.8-1.6-5.6-2.6-8.1-3.1c-9-19.9-23.3-37.6-39.4-46.9c-20.4-11.8-37.9-6.7-45.5,10.7
					c-5.6-11.3-13.9-21.2-23.1-26.6c-16.7-9.7-30.3-0.8-30.3,19.9c0,20.7,13.6,45.3,30.3,54.9c9.3,5.3,17.6,5,23.1,0.1
					c7.6,26.1,25.1,51.4,45.5,63.2c20.2,11.7,37.6,6.7,45.3-10.3c0.7,0.5,1.5,1,2.2,1.4c14.2,8.2,25.7,0.6,25.7-16.9
					C294.5,179.4,283,158.6,268.9,150.4z"/>
				<path class="st17" d="M278.6,169.8c-4.3-2.5-8.5-4-12.4-4.5c-6.7-16.8-18.4-32.2-31.8-39.9c-17.3-10-31.9-4-36.3,13.1
					c-6.9-10.4-15.5-19.2-24.9-24.6c-11.9-6.8-22.5-6.8-30.1-1.3c-4.3-5.3-9.2-9.7-14.4-12.7c-16.8-9.7-30.4-0.8-30.4,20
					c0,20.7,13.6,45.4,30.4,55.1v0l14.8,8.5l59.4,34.3l75.7,43.7v0h0c20.5,11.8,37.1,0.9,37.1-24.3S299,181.6,278.6,169.8z"/>
			</g>
		</g>
		<g>
			<g>
				<path class="st15" d="M171,211.5c0.2-0.8,0.5-1.5,0.8-2.3c1,2.9,1.4,5.9,2.4,8.8c0.9,2.3,2.3,4.5,2.9,7c0.8,3.4-1.4,8.2-5.3,8.7
					c-3.9,0.4-6.9-4.8-6.7-8.2c0.2-3,1.9-5.5,3.4-7.9C169.7,215.5,170.4,213.5,171,211.5z"/>
				<path class="st18" d="M166.3,224.2c0.6-2.2,2.1-4.1,3.4-5.9c0,1.2,0.2,2.5,0.3,3.7c0.1,1.3,0.3,2.7,0.3,4c0,0.6,0,1.1-0.1,1.7
					c-0.2,0.5-0.6,1-1.1,1.2c-0.5,0.2-1.1,0-1.6-0.4C166.2,227.6,165.9,225.7,166.3,224.2z"/>
			</g>
			<g>
				<path class="st19" d="M184.1,249.2c0.2-0.8,0.5-1.5,0.8-2.3c1,2.9,1.4,5.9,2.4,8.8c0.9,2.3,2.3,4.5,2.9,7
					c0.8,3.4-1.4,8.2-5.3,8.7c-3.9,0.4-6.9-4.8-6.7-8.2c0.2-3,1.9-5.5,3.4-7.9C182.8,253.2,183.5,251.3,184.1,249.2z"/>
				<path class="st18" d="M179.4,261.9c0.6-2.2,2.1-4.1,3.4-5.9c0,1.2,0.2,2.5,0.3,3.7c0.1,1.3,0.3,2.7,0.3,4c0,0.6,0,1.1-0.1,1.7
					c-0.2,0.5-0.6,1-1.1,1.2c-0.5,0.2-1.1,0-1.6-0.4C179.3,265.3,179,263.5,179.4,261.9z"/>
			</g>
			<g>
				<path class="st15" d="M212.2,236.1c0.2-0.8,0.5-1.5,0.8-2.3c1,2.9,1.4,5.9,2.4,8.8c0.9,2.3,2.3,4.5,2.9,7
					c0.8,3.4-1.4,8.2-5.3,8.7c-3.9,0.4-6.9-4.8-6.7-8.2c0.2-3,1.9-5.5,3.4-7.9C210.9,240.1,211.6,238.2,212.2,236.1z"/>
				<path class="st18" d="M207.5,248.8c0.6-2.2,2.1-4.1,3.4-5.9c0,1.2,0.2,2.5,0.3,3.7c0.1,1.3,0.3,2.7,0.3,4c0,0.6,0,1.1-0.1,1.7
					c-0.2,0.5-0.6,1-1.1,1.2c-0.5,0.2-1.1,0-1.6-0.4C207.4,252.2,207.1,250.3,207.5,248.8z"/>
			</g>
			<g>
				<path class="st15" d="M227.7,269.1c0.2-0.8,0.5-1.5,0.8-2.3c1,2.9,1.4,5.9,2.4,8.8c0.9,2.3,2.3,4.5,2.9,7
					c0.8,3.4-1.4,8.2-5.3,8.7c-3.9,0.4-6.9-4.8-6.7-8.2c0.2-3,1.9-5.5,3.4-7.9C226.4,273.1,227.1,271.1,227.7,269.1z"/>
				<path class="st18" d="M223,281.7c0.6-2.2,2.1-4.1,3.4-5.9c0,1.2,0.2,2.5,0.3,3.7c0.1,1.3,0.3,2.7,0.3,4c0,0.6,0,1.1-0.1,1.7
					c-0.2,0.5-0.6,1-1.1,1.2c-0.5,0.2-1.1,0-1.6-0.4C222.9,285.2,222.6,283.3,223,281.7z"/>
			</g>
			<g>
				<path class="st19" d="M252,302.1c0.2-0.8,0.5-1.5,0.8-2.3c1,2.9,1.4,5.9,2.4,8.8c0.9,2.3,2.3,4.5,2.9,7c0.8,3.4-1.4,8.2-5.3,8.7
					c-3.9,0.4-6.9-4.8-6.7-8.2c0.2-3,1.9-5.5,3.4-7.9C250.7,306,251.3,304.1,252,302.1z"/>
				<path class="st18" d="M247.3,314.7c0.6-2.2,2.1-4.1,3.4-5.9c0,1.2,0.2,2.5,0.3,3.7c0.1,1.3,0.3,2.7,0.3,4c0,0.6,0,1.1-0.1,1.7
					c-0.2,0.5-0.6,1-1.1,1.2c-0.5,0.2-1.1,0-1.6-0.4C247.2,318.2,246.9,316.3,247.3,314.7z"/>
			</g>
			<g>
				<path class="st15" d="M257.1,260c0.2-0.8,0.5-1.5,0.8-2.3c1,2.9,1.4,5.9,2.4,8.8c0.9,2.3,2.3,4.5,2.9,7c0.8,3.4-1.4,8.2-5.3,8.7
					c-3.9,0.4-6.9-4.8-6.7-8.2c0.2-3,1.9-5.5,3.4-7.9C255.8,264,256.4,262.1,257.1,260z"/>
				<path class="st18" d="M252.4,272.7c0.6-2.2,2.1-4.1,3.4-5.9c0,1.2,0.2,2.5,0.3,3.7c0.1,1.3,0.3,2.7,0.3,4c0,0.6,0,1.1-0.1,1.7
					c-0.2,0.5-0.6,1-1.1,1.2c-0.5,0.2-1.1,0-1.6-0.4C252.3,276.1,252,274.3,252.4,272.7z"/>
			</g>
			<g>
				<path class="st15" d="M214.3,305.2c0.2-0.8,0.5-1.5,0.8-2.3c1,2.9,1.4,5.9,2.4,8.8c0.9,2.3,2.3,4.5,2.9,7
					c0.8,3.4-1.4,8.2-5.3,8.7c-3.9,0.4-6.9-4.8-6.7-8.2c0.2-3,1.9-5.5,3.4-7.9C213,309.2,213.6,307.3,214.3,305.2z"/>
				<path class="st18" d="M209.6,317.9c0.6-2.2,2.1-4.1,3.4-5.9c0,1.2,0.2,2.5,0.3,3.7c0.1,1.3,0.3,2.7,0.3,4c0,0.6,0,1.1-0.1,1.7
					c-0.2,0.5-0.6,1-1.1,1.2c-0.5,0.2-1.1,0-1.6-0.4C209.5,321.3,209.2,319.4,209.6,317.9z"/>
			</g>
			<g>
				<path class="st19" d="M133.3,207.1c0.2-0.8,0.5-1.5,0.8-2.3c1,2.9,1.4,5.9,2.4,8.8c0.9,2.3,2.3,4.5,2.9,7
					c0.8,3.4-1.4,8.2-5.3,8.7c-3.9,0.4-6.9-4.8-6.7-8.2c0.2-3,1.9-5.5,3.4-7.9C132,211.1,132.6,209.1,133.3,207.1z"/>
				<path class="st18" d="M128.6,219.8c0.6-2.2,2.1-4.1,3.4-5.9c0,1.2,0.2,2.5,0.3,3.7c0.1,1.3,0.3,2.7,0.3,4c0,0.6,0,1.1-0.1,1.7
					c-0.2,0.5-0.6,1-1.1,1.2c-0.5,0.2-1.1,0-1.6-0.4C128.5,223.2,128.2,221.3,128.6,219.8z"/>
			</g>
			<g>
				<path class="st15" d="M139.4,256.1c0.2-0.8,0.5-1.5,0.8-2.3c1,2.9,1.4,5.9,2.4,8.8c0.9,2.3,2.3,4.5,2.9,7
					c0.8,3.4-1.4,8.2-5.3,8.7c-3.9,0.4-6.9-4.8-6.7-8.2c0.2-3,1.9-5.5,3.4-7.9C138,260.1,138.7,258.1,139.4,256.1z"/>
				<path class="st18" d="M134.7,268.8c0.6-2.2,2.1-4.1,3.4-5.9c0,1.2,0.2,2.5,0.3,3.7c0.1,1.3,0.3,2.7,0.3,4c0,0.6,0,1.1-0.1,1.7
					c-0.2,0.5-0.6,1-1.1,1.2c-0.5,0.2-1.1,0-1.6-0.4C134.6,272.2,134.3,270.3,134.7,268.8z"/>
			</g>
			<g>
				<path class="st19" d="M170.2,283.6c0.2-0.8,0.5-1.5,0.8-2.3c1,2.9,1.4,5.9,2.4,8.8c0.9,2.3,2.3,4.5,2.9,7
					c0.8,3.4-1.4,8.2-5.3,8.7c-3.9,0.4-6.9-4.8-6.7-8.2c0.2-3,1.9-5.5,3.4-7.9C168.8,287.5,169.5,285.6,170.2,283.6z"/>
				<path class="st18" d="M165.4,296.2c0.6-2.2,2.1-4.1,3.4-5.9c0,1.2,0.2,2.5,0.3,3.7c0.1,1.3,0.3,2.7,0.3,4c0,0.6,0,1.1-0.1,1.7
					c-0.2,0.5-0.6,1-1.1,1.2c-0.5,0.2-1.1,0-1.6-0.4C165.4,299.7,165,297.8,165.4,296.2z"/>
			</g>
		</g>
		<g>
			<path class="st20" d="M190.5,170.4v11.5l-4-2.3v-11.5l-9.8-5.7v-4.6l9.8,5.7v-11.3l4,2.3v11.3l9.8,5.7v4.6L190.5,170.4z"/>
			<path class="st20" d="M227.6,174.9c0,17.2-16.8,13.7-16.9,26.7v0.9l16.3,9.4v5.8l-21.8-12.6v-4.9c0-18.4,16.8-12.3,16.8-28.3
				c0-5.9-1.7-9.9-5.8-12.3c-4-2.3-5.8,0-5.8,5v5l-5.2-3V162c0-8.7,3.5-12.5,11.1-8.1C224.1,158.4,227.6,166.1,227.6,174.9z"/>
			<path class="st20" d="M232.3,177.5c0-8.7,3.8-12.2,11.4-7.8c7.7,4.4,11.4,12.2,11.4,20.9V220c0,8.7-3.8,12.2-11.4,7.8
				c-7.6-4.4-11.4-12.3-11.4-21V177.5z M237.8,210.4c0,5.1,1.9,9.3,5.9,11.6c4.1,2.3,5.9,0.3,5.9-4.8v-30.1c0-5.2-1.8-9.4-5.9-11.7
				c-4-2.3-5.9-0.3-5.9,4.9V210.4z"/>
			<path class="st20" d="M271.4,192.6c0,3.9-2.8,5.4-6.2,3.4c-3.3-1.9-6.1-6.6-6.1-10.5c0-3.9,2.8-5.4,6.1-3.5
				C268.6,184,271.4,188.7,271.4,192.6z M261.7,187.1c0,2.2,1.6,4.9,3.5,6c1.9,1.1,3.5,0.3,3.5-1.9c0-2.3-1.6-4.9-3.5-6
				C263.3,184,261.7,184.8,261.7,187.1z"/>
			<path class="st20" d="M297.8,215.3v5.1l-5.3-3v-5.5c0-5.1-1.8-9.2-5.8-11.6c-4-2.3-5.8-0.3-5.8,4.9v30.1c0,5.1,1.8,9.3,5.8,11.6
				c4,2.3,5.8,0.3,5.8-4.9v-7.4l5.3,3v7.1c0,8.6-3.6,12.3-11.2,7.9c-7.6-4.4-11.1-12.1-11.1-20.8v-29.5c0-8.6,3.6-12.3,11.1-7.9
				C294.2,198.9,297.8,206.6,297.8,215.3z"/>
		</g>
	</g>
</g>
</svg>
