<?xml version="1.0" encoding="utf-8"?>
<!-- Generator: Adobe Illustrator 24.0.2, SVG Export Plug-In . SVG Version: 6.00 Build 0)  -->
<svg version="1.1" id="Capa_1" xmlns="http://www.w3.org/2000/svg" xmlns:xlink="http://www.w3.org/1999/xlink" x="0px" y="0px"
	 viewBox="0 0 464 464" style="enable-background:new 0 0 464 464;" xml:space="preserve">
<style type="text/css">
	.st0{fill:url(#SVGID_1_);}
	.st1{fill:url(#SVGID_2_);}
	.st2{fill:#30BFBF;}
	.st3{fill:url(#SVGID_3_);}
	.st4{fill:#262E54;}
	.st5{fill:#E6E7E8;}
	.st6{fill:url(#SVGID_4_);}
	.st7{fill:#168A8E;}
	.st8{fill:url(#SVGID_5_);}
	.st9{fill:#89ADA6;}
	.st10{fill:url(#SVGID_6_);}
	.st11{fill:url(#SVGID_7_);}
	.st12{fill:url(#SVGID_8_);}
	.st13{fill:#FFFFFF;}
	.st14{fill:url(#SVGID_9_);}
	.st15{fill:url(#SVGID_10_);}
	.st16{fill:url(#SVGID_11_);}
	.st17{fill:#B1DBC6;}
	.st18{fill:url(#SVGID_12_);}
	.st19{fill:#FFDF85;}
	.st20{fill:url(#SVGID_13_);}
	.st21{fill:#E2B534;}
	.st22{fill:url(#SVGID_14_);}
	.st23{fill:url(#SVGID_15_);}
	.st24{fill:url(#SVGID_16_);}
	.st25{fill:url(#SVGID_17_);}
	.st26{fill:url(#SVGID_18_);}
	.st27{fill:url(#SVGID_19_);}
	.st28{fill:url(#SVGID_20_);}
	.st29{fill:#8AC1B6;}
	.st30{fill:url(#SVGID_21_);}
	.st31{fill:url(#SVGID_22_);}
	.st32{fill:url(#SVGID_23_);}
	.st33{fill:url(#SVGID_24_);}
	.st34{fill:url(#SVGID_25_);}
	.st35{fill:url(#SVGID_26_);}
	.st36{fill:#18898E;}
	.st37{fill:url(#SVGID_27_);}
	.st38{fill:url(#SVGID_28_);}
	.st39{fill:url(#SVGID_29_);}
	.st40{fill:url(#SVGID_30_);}
	.st41{fill:url(#SVGID_31_);}
	.st42{fill:url(#SVGID_32_);}
	.st43{fill:url(#SVGID_33_);}
	.st44{fill:url(#SVGID_34_);}
	.st45{fill:url(#SVGID_35_);}
	.st46{fill:url(#SVGID_36_);}
	.st47{fill:url(#SVGID_37_);}
	.st48{fill:url(#SVGID_38_);}
	.st49{fill:url(#SVGID_39_);}
	.st50{fill:url(#SVGID_40_);}
	.st51{fill:url(#SVGID_41_);}
	.st52{fill:url(#SVGID_42_);}
	.st53{fill:url(#SVGID_43_);}
	.st54{fill:url(#SVGID_44_);}
	.st55{fill:url(#SVGID_45_);}
	.st56{fill:url(#SVGID_46_);}
	.st57{fill:url(#SVGID_47_);}
	.st58{fill:url(#SVGID_48_);}
	.st59{fill:url(#SVGID_49_);}
	.st60{fill:url(#SVGID_50_);}
	.st61{fill:#F4B48C;}
	.st62{fill:#EDF8FD;}
	.st63{fill:#D3EAE9;}
	.st64{fill:url(#SVGID_51_);}
	.st65{fill:url(#SVGID_52_);}
</style>
<g>
	<g>
		<linearGradient id="SVGID_1_" gradientUnits="userSpaceOnUse" x1="137.7787" y1="252.1134" x2="284.5156" y2="252.1134">
			<stop  offset="0" style="stop-color:#D1D3D4"/>
			<stop  offset="0.1409" style="stop-color:#DEDFE0"/>
			<stop  offset="0.4105" style="stop-color:#F0F1F1"/>
			<stop  offset="0.6916" style="stop-color:#FBFCFC"/>
			<stop  offset="1" style="stop-color:#FFFFFF"/>
		</linearGradient>
		<rect x="137.8" y="216.9" class="st0" width="146.7" height="70.5"/>
		<linearGradient id="SVGID_2_" gradientUnits="userSpaceOnUse" x1="41.893" y1="213.5534" x2="172.0408" y2="213.5534">
			<stop  offset="0" style="stop-color:#2CA2A0"/>
			<stop  offset="0.6989" style="stop-color:#18898E"/>
			<stop  offset="1" style="stop-color:#2CA2A0"/>
		</linearGradient>
		<path class="st1" d="M172,175.3V268l0,0c-0.2,2.8-2.4,5.7-6.3,7.9l-13,7.5c-7.6,4.4-19.2,4.9-25.8,1.1L46.4,238
			c-3-1.7-4.5-4.1-4.5-6.5V140L172,175.3z"/>
		<path class="st2" d="M172,175.3v4c-1.2,1.9-3.1,3.7-5.7,5.2l-13,7.5c-4.2,2.4-9.8,3.8-15.3,3.8c-4.6,0-8.8-1-11.9-2.8l-80.5-46.5
			c-1.6-1-2.9-2.1-3.8-3.4v-3L172,175.3z"/>
		<linearGradient id="SVGID_3_" gradientUnits="userSpaceOnUse" x1="41.9138" y1="157.3282" x2="172.0088" y2="157.3282">
			<stop  offset="0" style="stop-color:#18898E"/>
			<stop  offset="1" style="stop-color:#2CA2A0"/>
		</linearGradient>
		<path class="st3" d="M172,175.3c-0.2,2.8-2.4,5.6-6.3,7.9l-2.6,1.5l-10.5,6c-7.7,4.4-19.2,4.9-25.8,1.1l-80.5-46.5
			c-2.8-1.6-4.2-3.7-4.4-5.9c0.2-2.8,2.4-5.6,6.3-7.9l13-7.5c7.6-4.4,19.2-4.9,25.8-1.1l7.1,4.1l25.2,14.5l48.3,27.9
			c0.4,0.3,0.8,0.5,1.2,0.8C170.8,171.6,171.8,173.4,172,175.3z"/>
		<path class="st2" d="M93.1,244.5c-0.7,0-1.3-0.2-2-0.6l-7.3-4.2c-2.1-1.2-3.7-4-3.7-6.3v-11.7c0-1.5-0.9-3.9-2-5.2
			c-4.1-5.2-6.5-11.3-6.5-16.3c0-5.9,3.4-9.8,8.6-9.8c2.4,0,5.2,0.8,7.9,2.4c8.4,4.9,15.2,15.7,15.2,24.2c0,4.3-1.7,7.5-4.8,8.9
			c-0.6,0.3-2.6,1.4-2.6,2.9V241c0,1-0.3,1.8-0.8,2.4C94.8,244.1,94,244.5,93.1,244.5L93.1,244.5z"/>
		<path class="st4" d="M88.9,193.9c-8.1-4.6-14.6-1.9-14.6,6.2c0,4.9,2.5,10.7,6.2,15.5c1.2,1.5,2.3,4.2,2.3,6.1v11.7
			c0,1.9,1.3,4.2,3,5.2l7.3,4.2c1.7,1,3,0.2,3-1.7v-12.3c0-1.9,1.6-3.3,3.4-4.2c2.5-1.2,4-3.8,4-7.7
			C103.5,208.8,96.9,198.5,88.9,193.9z"/>
		<polygon class="st5" points="119.3,141.5 70.6,141.5 70.6,127 94.2,127 		"/>
		<path class="st5" d="M172,175.3c-0.2,2.8-2.4,5.6-6.3,7.9l-2.6,1.5h-17.5v-14.5h23.1C170.8,171.6,171.8,173.4,172,175.3z"/>
		<g>
			<linearGradient id="SVGID_4_" gradientUnits="userSpaceOnUse" x1="60.9479" y1="125.4146" x2="155.0062" y2="125.4146">
				<stop  offset="0" style="stop-color:#FCD24A"/>
				<stop  offset="1" style="stop-color:#E1B725"/>
			</linearGradient>
			<path class="st6" d="M145.3,184.6c-5.4,0-9.7-3-9.7-8.4v-38.5c0-14.6-12.7-34.3-27.7-42.9l-9.6-5.5c-7.4-4.3-12.7-4.3-14.9-3
				c-2.7,1.6-3.1,5.9-3.1,8.3v38.5c0,5.4-4.3,8.4-9.7,8.4c-5.4,0-9.7-3-9.7-8.4V94.7c0-11.4,4.5-20.3,12.8-25.1
				c9.3-5.4,21.8-4.3,34.3,3l9.6,5.6c21,12.1,37.4,38.3,37.4,59.7v38.5C155,181.6,150.7,184.6,145.3,184.6z"/>
		</g>
	</g>
	<g>
		<g>
			<g>
				<path class="st5" d="M219.7,305.9l7.2,4.1c1.2,0.7,3.2,0.7,4.5,0l6.5-3.8c1.2-0.7,1.2-1.9,0-2.6l-7.2-4.1
					c-1.2-0.7-3.2-0.7-4.5,0l-6.5,3.8C218.4,304.1,218.4,305.2,219.7,305.9z"/>
				<path class="st5" d="M232.8,313.5l7.2,4.1c1.2,0.7,3.2,0.7,4.5,0l6.5-3.8c1.2-0.7,1.2-1.9,0-2.6l-7.2-4.1
					c-1.2-0.7-3.2-0.7-4.5,0l-6.5,3.8C231.5,311.6,231.5,312.8,232.8,313.5z"/>
				<path class="st5" d="M245.8,321l7.2,4.1c1.2,0.7,3.2,0.7,4.5,0l6.5-3.8c1.2-0.7,1.2-1.9,0-2.6l-7.2-4.1c-1.2-0.7-3.2-0.7-4.5,0
					l-6.5,3.8C244.6,319.1,244.6,320.3,245.8,321z"/>
				<path class="st5" d="M258.9,328.6l7.2,4.1c1.2,0.7,3.2,0.7,4.5,0l6.5-3.8c1.2-0.7,1.2-1.9,0-2.6l-7.2-4.1
					c-1.2-0.7-3.2-0.7-4.5,0l-6.5,3.8C257.7,326.7,257.7,327.9,258.9,328.6z"/>
				<path class="st5" d="M272,336.1l7.2,4.1c1.2,0.7,3.2,0.7,4.5,0l6.5-3.8c1.2-0.7,1.2-1.9,0-2.6l-7.2-4.1c-1.2-0.7-3.2-0.7-4.5,0
					l-6.5,3.8C270.7,334.2,270.7,335.4,272,336.1z"/>
				<path class="st5" d="M285,343.7l7.2,4.1c1.2,0.7,3.2,0.7,4.5,0l6.5-3.8c1.2-0.7,1.2-1.9,0-2.6l-7.2-4.1c-1.2-0.7-3.2-0.7-4.5,0
					l-6.5,3.8C283.8,341.8,283.8,342.9,285,343.7z"/>
				<path class="st5" d="M298.1,351.2l7.2,4.1c1.2,0.7,3.2,0.7,4.5,0l6.5-3.8c1.2-0.7,1.2-1.9,0-2.6l-7.2-4.1
					c-1.2-0.7-3.2-0.7-4.5,0l-6.5,3.8C296.9,349.3,296.9,350.5,298.1,351.2z"/>
				<path class="st5" d="M311.2,358.7l7.2,4.1c1.2,0.7,3.2,0.7,4.5,0l6.5-3.8c1.2-0.7,1.2-1.9,0-2.6l-7.2-4.1
					c-1.2-0.7-3.2-0.7-4.5,0l-6.5,3.8C309.9,356.9,309.9,358,311.2,358.7z"/>
				<path class="st5" d="M324.2,366.3l7.2,4.1c1.2,0.7,3.2,0.7,4.5,0l6.5-3.8c1.2-0.7,1.2-1.9,0-2.6l-7.2-4.1
					c-1.2-0.7-3.2-0.7-4.5,0l-6.5,3.8C323,364.4,323,365.6,324.2,366.3z"/>
				<path class="st5" d="M337.3,373.8l7.2,4.1c1.2,0.7,3.2,0.7,4.5,0l6.5-3.8c1.2-0.7,1.2-1.9,0-2.6l-7.2-4.1
					c-1.2-0.7-3.2-0.7-4.5,0l-6.5,3.8C336.1,372,336.1,373.1,337.3,373.8z"/>
				<path class="st5" d="M368.3,379l-6.9-4c-1.2-0.7-3.2-0.7-4.5,0l-6.5,3.8c-1.2,0.7-1.2,1.9,0,2.6l6.9,4c1.2,0.7,3.2,0.7,4.5,0
					l6.5-3.8C369.5,380.9,369.5,379.7,368.3,379z"/>
				<path class="st5" d="M207,313.2l7.2,4.1c1.2,0.7,3.2,0.7,4.5,0l6.5-3.8c1.2-0.7,1.2-1.9,0-2.6l-7.2-4.1c-1.2-0.7-3.2-0.7-4.5,0
					l-6.5,3.8C205.8,311.4,205.8,312.5,207,313.2z"/>
				<path class="st5" d="M238.3,318.6l-7.2-4.1c-1.2-0.7-3.2-0.7-4.5,0l-6.5,3.8c-1.2,0.7-1.2,1.9,0,2.6l7.2,4.1
					c1.2,0.7,3.2,0.7,4.5,0l6.5-3.8C239.5,320.4,239.5,319.3,238.3,318.6z"/>
				<path class="st5" d="M251.3,326.1l-7.2-4.1c-1.2-0.7-3.2-0.7-4.5,0l-6.5,3.8c-1.2,0.7-1.2,1.9,0,2.6l7.2,4.1
					c1.2,0.7,3.2,0.7,4.5,0l6.5-3.8C252.6,328,252.6,326.8,251.3,326.1z"/>
				<path class="st5" d="M264.4,333.7l-7.2-4.1c-1.2-0.7-3.2-0.7-4.5,0l-6.5,3.8c-1.2,0.7-1.2,1.9,0,2.6l7.2,4.1
					c1.2,0.7,3.2,0.7,4.5,0l6.5-3.8C265.6,335.5,265.6,334.4,264.4,333.7z"/>
				<path class="st5" d="M277.5,341.2l-7.2-4.1c-1.2-0.7-3.2-0.7-4.5,0l-6.5,3.8c-1.2,0.7-1.2,1.9,0,2.6l7.2,4.1
					c1.2,0.7,3.2,0.7,4.5,0l6.5-3.8C278.7,343.1,278.7,341.9,277.5,341.2z"/>
				<path class="st5" d="M290.5,348.7l-7.2-4.1c-1.2-0.7-3.2-0.7-4.5,0l-6.5,3.8c-1.2,0.7-1.2,1.9,0,2.6l7.2,4.1
					c1.2,0.7,3.2,0.7,4.5,0l6.5-3.8C291.8,350.6,291.8,349.5,290.5,348.7z"/>
				<path class="st5" d="M303.6,356.3l-7.2-4.1c-1.2-0.7-3.2-0.7-4.5,0l-6.5,3.8c-1.2,0.7-1.2,1.9,0,2.6l7.2,4.1
					c1.2,0.7,3.2,0.7,4.5,0l6.5-3.8C304.8,358.2,304.8,357,303.6,356.3z"/>
				<path class="st5" d="M310.2,370.2l6.5-3.8c1.2-0.7,1.2-1.9,0-2.6l-7.2-4.1c-1.2-0.7-3.2-0.7-4.5,0l-6.5,3.8
					c-1.2,0.7-1.2,1.9,0,2.6l7.2,4.1C306.9,370.9,308.9,370.9,310.2,370.2z"/>
				<path class="st5" d="M323.2,377.7l6.5-3.8c1.2-0.7,1.2-1.9,0-2.6l-7.2-4.1c-1.2-0.7-3.2-0.7-4.5,0l-6.5,3.8
					c-1.2,0.7-1.2,1.9,0,2.6l7.2,4.1C320,378.4,322,378.4,323.2,377.7z"/>
				<path class="st5" d="M324.7,381.1l7.2,4.1c1.2,0.7,3.2,0.7,4.5,0l6.5-3.8c1.2-0.7,1.2-1.9,0-2.6l-7.2-4.1
					c-1.2-0.7-3.2-0.7-4.5,0l-6.5,3.8C323.4,379.3,323.4,380.4,324.7,381.1z"/>
				<path class="st5" d="M194.4,320.5l7.2,4.1c1.2,0.7,3.2,0.7,4.5,0l6.5-3.8c1.2-0.7,1.2-1.9,0-2.6l-7.2-4.1
					c-1.2-0.7-3.2-0.7-4.5,0l-6.5,3.8C193.2,318.7,193.2,319.8,194.4,320.5z"/>
				<path class="st5" d="M214,321.7l-6.5,3.8c-1.2,0.7-1.2,1.9,0,2.6l7.2,4.1c1.2,0.7,3.2,0.7,4.5,0l6.5-3.8c1.2-0.7,1.2-1.9,0-2.6
					l-7.2-4.1C217.2,321,215.2,321,214,321.7z"/>
				<path class="st5" d="M238.7,333.4l-7.2-4.1c-1.2-0.7-3.2-0.7-4.5,0l-6.5,3.8c-1.2,0.7-1.2,1.9,0,2.6l7.2,4.1
					c1.2,0.7,3.2,0.7,4.5,0l6.5-3.8C239.9,335.3,239.9,334.1,238.7,333.4z"/>
				<path class="st5" d="M233.6,343.2l7.2,4.1c1.2,0.7,3.2,0.7,4.5,0l6.5-3.8c1.2-0.7,1.2-1.9,0-2.6l-7.2-4.1
					c-1.2-0.7-3.2-0.7-4.5,0l-6.5,3.8C232.4,341.3,232.4,342.5,233.6,343.2z"/>
				<path class="st5" d="M246.7,350.7l7.2,4.1c1.2,0.7,3.2,0.7,4.5,0l6.5-3.8c1.2-0.7,1.2-1.9,0-2.6l-7.2-4.1
					c-1.2-0.7-3.2-0.7-4.5,0l-6.5,3.8C245.4,348.8,245.4,350,246.7,350.7z"/>
				<path class="st5" d="M259.7,358.3l7.2,4.1c1.2,0.7,3.2,0.7,4.5,0l6.5-3.8c1.2-0.7,1.2-1.9,0-2.6l-7.2-4.1
					c-1.2-0.7-3.2-0.7-4.5,0l-6.5,3.8C258.5,356.4,258.5,357.5,259.7,358.3z"/>
				<path class="st5" d="M272.8,365.8l7.2,4.1c1.2,0.7,3.2,0.7,4.5,0l6.5-3.8c1.2-0.7,1.2-1.9,0-2.6l-7.2-4.2
					c-1.2-0.7-3.2-0.7-4.5,0l-6.5,3.8C271.6,363.9,271.6,365.1,272.8,365.8z"/>
				<path class="st5" d="M285.9,373.3l7.2,4.1c1.2,0.7,3.2,0.7,4.5,0l6.5-3.8c1.2-0.7,1.2-1.9,0-2.6l-7.2-4.1
					c-1.2-0.7-3.2-0.7-4.5,0l-6.5,3.8C284.6,371.5,284.6,372.6,285.9,373.3z"/>
				<path class="st5" d="M310.6,385l6.5-3.8c1.2-0.7,1.2-1.9,0-2.6l-7.2-4.1c-1.2-0.7-3.2-0.7-4.5,0l-6.5,3.8
					c-1.2,0.7-1.2,1.9,0,2.6l7.2,4.1C307.3,385.7,309.3,385.7,310.6,385z"/>
				<path class="st5" d="M355.6,386.3l-6.9-4c-1.2-0.7-3.2-0.7-4.5,0l-8.2,4.7c-1.2,0.7-3.2,0.7-4.5,0l-8.6-5
					c-1.2-0.7-3.2-0.7-4.5,0l-6.5,3.8c-1.2,0.7-1.2,1.9,0,2.6l10.8,6.2l2.6,1.5l6.5,3.8c1.2,0.7,3.2,0.7,4.5,0l6.1-3.5l2.7-1.5
					l10.4-6C356.8,388.2,356.8,387,355.6,386.3z"/>
				<path class="st5" d="M181.7,327.8l10.8,6.3l11.2,6.5c0,0,0.1,0.1,0.2,0.1c0.1,0.1,1.2-0.4,2.4-1.2l6.5-3.8
					c1.2-0.7,2.1-1.3,2-1.4l-0.2-0.1l-11.2-6.5l-10.8-6.3c-1.2-0.7-3.2-0.7-4.5,0l-6.5,3.8C180.5,326,180.5,327.1,181.7,327.8z"/>
				<path class="st5" d="M207.9,340.3c-1.2,0.7-1.2,1.9,0,2.6l7.2,4.1c1.2,0.7,3.2,0.7,4.5,0l6.5-3.8c1.2-0.7,1.2-1.9,0-2.6
					l-7.2-4.1c-1.2-0.7-3.2-0.7-4.5,0L207.9,340.3z"/>
				<path class="st5" d="M221,350.5l7.2,4.1c1.2,0.7,3.2,0.7,4.5,0l6.5-3.8c1.2-0.7,1.2-1.9,0-2.6l-7.2-4.1c-1.2-0.7-3.2-0.7-4.5,0
					l-6.5,3.8C219.7,348.6,219.7,349.8,221,350.5z"/>
				<path class="st5" d="M234,358l7.2,4.1c1.2,0.7,3.2,0.7,4.5,0l6.5-3.8c1.2-0.7,1.2-1.9,0-2.6l-7.2-4.1c-1.2-0.7-3.2-0.7-4.5,0
					l-6.5,3.8C232.8,356.1,232.8,357.3,234,358z"/>
				<path class="st5" d="M247.1,365.6l7.2,4.1c1.2,0.7,3.2,0.7,4.5,0l6.5-3.8c1.2-0.7,1.2-1.9,0-2.6l-7.2-4.1
					c-1.2-0.7-3.2-0.7-4.5,0l-6.5,3.8C245.9,363.7,245.9,364.8,247.1,365.6z"/>
				<path class="st5" d="M260.2,373.1l7.2,4.1c1.2,0.7,3.2,0.7,4.5,0l6.5-3.8c1.2-0.7,1.2-1.9,0-2.6l-7.2-4.1
					c-1.2-0.7-3.2-0.7-4.5,0l-6.5,3.8C258.9,371.2,258.9,372.4,260.2,373.1z"/>
				<path class="st5" d="M273.2,380.6l7.2,4.1c1.2,0.7,3.2,0.7,4.5,0l6.5-3.8c1.2-0.7,1.2-1.9,0-2.6l-7.2-4.1
					c-1.2-0.7-3.2-0.7-4.5,0l-6.5,3.8C272,378.8,272,379.9,273.2,380.6z"/>
				<path class="st5" d="M286.3,388.2l7.2,4.1c1.2,0.7,3.2,0.7,4.5,0l6.5-3.8c1.2-0.7,1.2-1.9,0-2.6l-7.2-4.2
					c-1.2-0.7-3.2-0.7-4.5,0l-6.5,3.8C285.1,386.3,285.1,387.5,286.3,388.2z"/>
				<path class="st5" d="M330.3,400.9l-10.6-6.1l-4.7-2.7l-4.7-2.7c-1.2-0.7-3.2-0.7-4.5,0l-6.5,3.8c-1.2,0.7-1.2,1.9,0,2.6l4.7,2.7
					l4.7,2.7l10.6,6.1c1.2,0.7,3.2,0.7,4.5,0l6.5-3.8C331.6,402.8,331.6,401.6,330.3,400.9z"/>
				<path class="st5" d="M187.3,332.9l-7.2-4.1c-1.2-0.7-3.2-0.7-4.5,0l-6.5,3.8c-1.2,0.7-1.2,1.9,0,2.6l7.2,4.1
					c1.2,0.7,3.2,0.7,4.5,0l6.5-3.8C188.5,334.8,188.5,333.6,187.3,332.9z"/>
				<path class="st5" d="M200.3,340.5l-7.2-4.1c-1.2-0.7-3.2-0.7-4.5,0l-6.5,3.8c-1.2,0.7-1.2,1.9,0,2.6l7.2,4.1
					c1.2,0.7,3.2,0.7,4.5,0l6.5-3.8C201.6,342.3,201.6,341.2,200.3,340.5z"/>
				<path class="st5" d="M213.4,348l-7.2-4.1c-1.2-0.7-3.2-0.7-4.5,0l-6.5,3.8c-1.2,0.7-1.2,1.9,0,2.6l7.2,4.1
					c1.2,0.7,3.2,0.7,4.5,0l6.5-3.8C214.6,349.9,214.6,348.7,213.4,348z"/>
				<path class="st5" d="M278.7,385.7l-9.4-5.4l-1.4-0.8l-11.6-6.7l-1.4-0.8l-11.6-6.7l-14.5-8.4l-9.4-5.4c-1.2-0.7-3.2-0.7-4.5,0
					c-1.9,1.1-4.6,2.7-6.5,3.8c-1.2,0.7-1.2,1.9,0,2.6c3.4,1.9,9.4,5.4,9.4,5.4l14.5,8.4l11.6,6.7l1.4,0.8l11.6,6.7l1.4,0.8l9.4,5.4
					c1.2,0.7,3.2,0.7,4.5,0c1.9-1.1,4.6-2.7,6.5-3.8C280,387.6,280,386.5,278.7,385.7z"/>
				<path class="st5" d="M291.8,393.3l-7.2-4.1c-1.2-0.7-3.2-0.7-4.5,0l-6.5,3.8c-1.2,0.7-1.2,1.9,0,2.6l7.2,4.1
					c1.2,0.7,3.2,0.7,4.5,0l6.5-3.8C293,395.2,293,394,291.8,393.3z"/>
				<path class="st5" d="M304.9,400.8l-7.2-4.1c-1.2-0.7-3.2-0.7-4.5,0l-6.5,3.8c-1.2,0.7-1.2,1.9,0,2.6l7.2,4.1
					c1.2,0.7,3.2,0.7,4.5,0l6.5-3.8C306.1,402.7,306.1,401.5,304.9,400.8z"/>
				<path class="st5" d="M317.7,408.2l-6.9-4c-1.2-0.7-3.2-0.7-4.5,0l-6.5,3.8c-1.2,0.7-1.2,1.9,0,2.6l6.9,4c1.2,0.7,3.2,0.7,4.5,0
					l6.5-3.8C318.9,410.1,318.9,408.9,317.7,408.2z"/>
			</g>
		</g>
	</g>
	<g>
		<g>
			<g>
				<path class="st7" d="M214.7,305.6l7.2,4.1c1.2,0.7,3.2,0.7,4.5,0l6.5-3.8c1.2-0.7,1.2-1.9,0-2.6l-7.2-4.1
					c-1.2-0.7-3.2-0.7-4.5,0l-6.5,3.8C213.5,303.8,213.5,304.9,214.7,305.6z"/>
				<path class="st7" d="M227.8,313.2l7.2,4.1c1.2,0.7,3.2,0.7,4.5,0l6.5-3.8c1.2-0.7,1.2-1.9,0-2.6l-7.2-4.1
					c-1.2-0.7-3.2-0.7-4.5,0l-6.5,3.8C226.6,311.3,226.6,312.5,227.8,313.2z"/>
				<path class="st7" d="M240.9,320.7l7.2,4.1c1.2,0.7,3.2,0.7,4.5,0l6.5-3.8c1.2-0.7,1.2-1.9,0-2.6l-7.2-4.1
					c-1.2-0.7-3.2-0.7-4.5,0l-6.5,3.8C239.6,318.9,239.6,320,240.9,320.7z"/>
				<path class="st7" d="M253.9,328.3l7.2,4.1c1.2,0.7,3.2,0.7,4.5,0l6.5-3.8c1.2-0.7,1.2-1.9,0-2.6l-7.2-4.1
					c-1.2-0.7-3.2-0.7-4.5,0l-6.5,3.8C252.7,326.4,252.7,327.6,253.9,328.3z"/>
				<path class="st7" d="M267,335.8l7.2,4.1c1.2,0.7,3.2,0.7,4.5,0l6.5-3.8c1.2-0.7,1.2-1.9,0-2.6l-7.2-4.1c-1.2-0.7-3.2-0.7-4.5,0
					l-6.5,3.8C265.8,334,265.8,335.1,267,335.8z"/>
				<path class="st7" d="M280.1,343.4l7.2,4.1c1.2,0.7,3.2,0.7,4.5,0l6.5-3.8c1.2-0.7,1.2-1.9,0-2.6l-7.2-4.1
					c-1.2-0.7-3.2-0.7-4.5,0l-6.5,3.8C278.8,341.5,278.8,342.7,280.1,343.4z"/>
				<path class="st7" d="M293.1,350.9l7.2,4.1c1.2,0.7,3.2,0.7,4.5,0l6.5-3.8c1.2-0.7,1.2-1.9,0-2.6l-7.2-4.1
					c-1.2-0.7-3.2-0.7-4.5,0l-6.5,3.8C291.9,349.1,291.9,350.2,293.1,350.9z"/>
				<path class="st7" d="M306.2,358.5l7.2,4.1c1.2,0.7,3.2,0.7,4.5,0l6.5-3.8c1.2-0.7,1.2-1.9,0-2.6l-7.2-4.1
					c-1.2-0.7-3.2-0.7-4.5,0l-6.5,3.8C305,356.6,305,357.8,306.2,358.5z"/>
				<path class="st7" d="M319.3,366l7.2,4.1c1.2,0.7,3.2,0.7,4.5,0l6.5-3.8c1.2-0.7,1.2-1.9,0-2.6l-7.2-4.1c-1.2-0.7-3.2-0.7-4.5,0
					l-6.5,3.8C318,364.1,318,365.3,319.3,366z"/>
				<path class="st7" d="M332.3,373.6l7.2,4.1c1.2,0.7,3.2,0.7,4.5,0l6.5-3.8c1.2-0.7,1.2-1.9,0-2.6l-7.2-4.1
					c-1.2-0.7-3.2-0.7-4.5,0l-6.5,3.8C331.1,371.7,331.1,372.9,332.3,373.6z"/>
				<path class="st7" d="M363.3,378.7l-6.9-4c-1.2-0.7-3.2-0.7-4.5,0l-6.5,3.8c-1.2,0.7-1.2,1.9,0,2.6l6.9,4c1.2,0.7,3.2,0.7,4.5,0
					l6.5-3.8C364.5,380.6,364.5,379.5,363.3,378.7z"/>
				<path class="st7" d="M202.1,312.9l7.2,4.1c1.2,0.7,3.2,0.7,4.5,0l6.5-3.8c1.2-0.7,1.2-1.9,0-2.6l-7.2-4.1
					c-1.2-0.7-3.2-0.7-4.5,0l-6.5,3.8C200.8,311.1,200.8,312.2,202.1,312.9z"/>
				<path class="st7" d="M233.3,318.3l-7.2-4.1c-1.2-0.7-3.2-0.7-4.5,0l-6.5,3.8c-1.2,0.7-1.2,1.9,0,2.6l7.2,4.1
					c1.2,0.7,3.2,0.7,4.5,0l6.5-3.8C234.5,320.2,234.5,319,233.3,318.3z"/>
				<path class="st7" d="M246.4,325.8l-7.2-4.1c-1.2-0.7-3.2-0.7-4.5,0l-6.5,3.8c-1.2,0.7-1.2,1.9,0,2.6l7.2,4.1
					c1.2,0.7,3.2,0.7,4.5,0l6.5-3.8C247.6,327.7,247.6,326.6,246.4,325.8z"/>
				<path class="st7" d="M259.4,333.4l-7.2-4.1c-1.2-0.7-3.2-0.7-4.5,0l-6.5,3.8c-1.2,0.7-1.2,1.9,0,2.6l7.2,4.1
					c1.2,0.7,3.2,0.7,4.5,0l6.5-3.8C260.7,335.2,260.7,334.1,259.4,333.4z"/>
				<path class="st7" d="M272.5,340.9l-7.2-4.1c-1.2-0.7-3.2-0.7-4.5,0l-6.5,3.8c-1.2,0.7-1.2,1.9,0,2.6l7.2,4.1
					c1.2,0.7,3.2,0.7,4.5,0l6.5-3.8C273.7,342.8,273.7,341.6,272.5,340.9z"/>
				<path class="st7" d="M285.6,348.5l-7.2-4.1c-1.2-0.7-3.2-0.7-4.5,0l-6.5,3.8c-1.2,0.7-1.2,1.9,0,2.6l7.2,4.1
					c1.2,0.7,3.2,0.7,4.5,0l6.5-3.8C286.8,350.3,286.8,349.2,285.6,348.5z"/>
				<path class="st7" d="M298.6,356l-7.2-4.1c-1.2-0.7-3.2-0.7-4.5,0l-6.5,3.8c-1.2,0.7-1.2,1.9,0,2.6l7.2,4.1
					c1.2,0.7,3.2,0.7,4.5,0l6.5-3.8C299.9,357.9,299.9,356.7,298.6,356z"/>
				<path class="st7" d="M305.2,369.9l6.5-3.8c1.2-0.7,1.2-1.9,0-2.6l-7.2-4.1c-1.2-0.7-3.2-0.7-4.5,0l-6.5,3.8
					c-1.2,0.7-1.2,1.9,0,2.6l7.2,4.1C302,370.6,304,370.6,305.2,369.9z"/>
				<path class="st7" d="M318.3,377.5l6.5-3.8c1.2-0.7,1.2-1.9,0-2.6l-7.2-4.1c-1.2-0.7-3.2-0.7-4.5,0l-6.5,3.8
					c-1.2,0.7-1.2,1.9,0,2.6l7.2,4.1C315,378.2,317,378.2,318.3,377.5z"/>
				<path class="st7" d="M319.7,380.9l7.2,4.1c1.2,0.7,3.2,0.7,4.5,0l6.5-3.8c1.2-0.7,1.2-1.9,0-2.6l-7.2-4.1
					c-1.2-0.7-3.2-0.7-4.5,0l-6.5,3.8C318.5,379,318.5,380.2,319.7,380.9z"/>
				<path class="st7" d="M189.4,320.2l7.2,4.1c1.2,0.7,3.2,0.7,4.5,0l6.5-3.8c1.2-0.7,1.2-1.9,0-2.6l-7.2-4.1
					c-1.2-0.7-3.2-0.7-4.5,0l-6.5,3.8C188.2,318.4,188.2,319.5,189.4,320.2z"/>
				<path class="st7" d="M209,321.5l-6.5,3.8c-1.2,0.7-1.2,1.9,0,2.6l7.2,4.1c1.2,0.7,3.2,0.7,4.5,0l6.5-3.8c1.2-0.7,1.2-1.9,0-2.6
					l-7.2-4.1C212.3,320.7,210.3,320.7,209,321.5z"/>
				<path class="st7" d="M233.7,333.1l-7.2-4.1c-1.2-0.7-3.2-0.7-4.5,0l-6.5,3.8c-1.2,0.7-1.2,1.9,0,2.6l7.2,4.1
					c1.2,0.7,3.2,0.7,4.5,0l6.5-3.8C235,335,235,333.8,233.7,333.1z"/>
				<path class="st7" d="M228.6,342.9l7.2,4.1c1.2,0.7,3.2,0.7,4.5,0l6.5-3.8c1.2-0.7,1.2-1.9,0-2.6l-7.2-4.1
					c-1.2-0.7-3.2-0.7-4.5,0l-6.5,3.8C227.4,341,227.4,342.2,228.6,342.9z"/>
				<path class="st7" d="M241.7,350.4l7.2,4.1c1.2,0.7,3.2,0.7,4.5,0l6.5-3.8c1.2-0.7,1.2-1.9,0-2.6l-7.2-4.1
					c-1.2-0.7-3.2-0.7-4.5,0l-6.5,3.8C240.5,348.6,240.5,349.7,241.7,350.4z"/>
				<path class="st7" d="M254.8,358l7.2,4.1c1.2,0.7,3.2,0.7,4.5,0l6.5-3.8c1.2-0.7,1.2-1.9,0-2.6l-7.2-4.1c-1.2-0.7-3.2-0.7-4.5,0
					l-6.5,3.8C253.5,356.1,253.5,357.3,254.8,358z"/>
				<path class="st7" d="M267.8,365.5l7.2,4.1c1.2,0.7,3.2,0.7,4.5,0l6.5-3.8c1.2-0.7,1.2-1.9,0-2.6l-7.2-4.2
					c-1.2-0.7-3.2-0.7-4.5,0l-6.5,3.8C266.6,363.7,266.6,364.8,267.8,365.5z"/>
				<path class="st7" d="M280.9,373.1l7.2,4.1c1.2,0.7,3.2,0.7,4.5,0l6.5-3.8c1.2-0.7,1.2-1.9,0-2.6l-7.2-4.1
					c-1.2-0.7-3.2-0.7-4.5,0l-6.5,3.8C279.7,371.2,279.7,372.4,280.9,373.1z"/>
				<path class="st7" d="M305.6,384.8l6.5-3.8c1.2-0.7,1.2-1.9,0-2.6l-7.2-4.1c-1.2-0.7-3.2-0.7-4.5,0L294,378
					c-1.2,0.7-1.2,1.9,0,2.6l7.2,4.1C302.4,385.5,304.4,385.5,305.6,384.8z"/>
				<path class="st7" d="M350.7,386l-6.9-4c-1.2-0.7-3.2-0.7-4.5,0l-8.2,4.7c-1.2,0.7-3.2,0.7-4.5,0l-8.6-5c-1.2-0.7-3.2-0.7-4.5,0
					l-6.5,3.8c-1.2,0.7-1.2,1.9,0,2.6l10.8,6.2l2.6,1.5l6.5,3.8c1.2,0.7,3.2,0.7,4.5,0l6.1-3.5l2.7-1.5l10.4-6
					C351.9,387.9,351.9,386.8,350.7,386z"/>
				<path class="st7" d="M176.8,327.6l10.8,6.3l11.2,6.5c0,0,0.1,0.1,0.2,0.1c0.1,0.1,1.2-0.4,2.4-1.2l6.5-3.8
					c1.2-0.7,2.1-1.3,2-1.4l-0.2-0.1l-11.2-6.5l-10.8-6.3c-1.2-0.7-3.2-0.7-4.5,0l-6.5,3.8C175.5,325.7,175.5,326.8,176.8,327.6z"/>
				<path class="st7" d="M202.9,340.1c-1.2,0.7-1.2,1.9,0,2.6l7.2,4.1c1.2,0.7,3.2,0.7,4.5,0l6.5-3.8c1.2-0.7,1.2-1.9,0-2.6
					l-7.2-4.1c-1.2-0.7-3.2-0.7-4.5,0L202.9,340.1z"/>
				<path class="st7" d="M216,350.2l7.2,4.1c1.2,0.7,3.2,0.7,4.5,0l6.5-3.8c1.2-0.7,1.2-1.9,0-2.6l-7.2-4.1c-1.2-0.7-3.2-0.7-4.5,0
					l-6.5,3.8C214.8,348.3,214.8,349.5,216,350.2z"/>
				<path class="st7" d="M229.1,357.7l7.2,4.1c1.2,0.7,3.2,0.7,4.5,0l6.5-3.8c1.2-0.7,1.2-1.9,0-2.6l-7.2-4.1
					c-1.2-0.7-3.2-0.7-4.5,0l-6.5,3.8C227.8,355.9,227.8,357,229.1,357.7z"/>
				<path class="st7" d="M242.1,365.3l7.2,4.1c1.2,0.7,3.2,0.7,4.5,0l6.5-3.8c1.2-0.7,1.2-1.9,0-2.6l-7.2-4.1
					c-1.2-0.7-3.2-0.7-4.5,0l-6.5,3.8C240.9,363.4,240.9,364.6,242.1,365.3z"/>
				<path class="st7" d="M255.2,372.8l7.2,4.1c1.2,0.7,3.2,0.7,4.5,0l6.5-3.8c1.2-0.7,1.2-1.9,0-2.6l-7.2-4.1
					c-1.2-0.7-3.2-0.7-4.5,0l-6.5,3.8C254,371,254,372.1,255.2,372.8z"/>
				<path class="st7" d="M268.3,380.4l7.2,4.1c1.2,0.7,3.2,0.7,4.5,0l6.5-3.8c1.2-0.7,1.2-1.9,0-2.6l-7.2-4.1
					c-1.2-0.7-3.2-0.7-4.5,0l-6.5,3.8C267,378.5,267,379.7,268.3,380.4z"/>
				<path class="st7" d="M281.3,387.9l7.2,4.1c1.2,0.7,3.2,0.7,4.5,0l6.5-3.8c1.2-0.7,1.2-1.9,0-2.6l-7.2-4.2
					c-1.2-0.7-3.2-0.7-4.5,0l-6.5,3.8C280.1,386,280.1,387.2,281.3,387.9z"/>
				<path class="st7" d="M325.4,400.6l-10.6-6.1l-4.7-2.7l-4.7-2.7c-1.2-0.7-3.2-0.7-4.5,0l-6.5,3.8c-1.2,0.7-1.2,1.9,0,2.6l4.7,2.7
					l4.7,2.7l10.6,6.1c1.2,0.7,3.2,0.7,4.5,0l6.5-3.8C326.6,402.5,326.6,401.4,325.4,400.6z"/>
				<path class="st7" d="M182.3,332.7l-7.2-4.1c-1.2-0.7-3.2-0.7-4.5,0l-6.5,3.8c-1.2,0.7-1.2,1.9,0,2.6l7.2,4.1
					c1.2,0.7,3.2,0.7,4.5,0l6.5-3.8C183.5,334.5,183.5,333.4,182.3,332.7z"/>
				<path class="st7" d="M195.4,340.2l-7.2-4.1c-1.2-0.7-3.2-0.7-4.5,0l-6.5,3.8c-1.2,0.7-1.2,1.9,0,2.6l7.2,4.1
					c1.2,0.7,3.2,0.7,4.5,0l6.5-3.8C196.6,342.1,196.6,340.9,195.4,340.2z"/>
				<path class="st7" d="M208.4,347.7l-7.2-4.1c-1.2-0.7-3.2-0.7-4.5,0l-6.5,3.8c-1.2,0.7-1.2,1.9,0,2.6l7.2,4.1
					c1.2,0.7,3.2,0.7,4.5,0l6.5-3.8C209.7,349.6,209.7,348.5,208.4,347.7z"/>
				<path class="st7" d="M273.8,385.5l-9.4-5.4l-1.4-0.8l-11.6-6.7l-1.4-0.8l-11.6-6.7l-14.5-8.4l-9.4-5.4c-1.2-0.7-3.2-0.7-4.5,0
					c-1.9,1.1-4.6,2.7-6.5,3.8c-1.2,0.7-1.2,1.9,0,2.6c3.4,1.9,9.4,5.4,9.4,5.4l14.5,8.4l11.6,6.7l1.4,0.8l11.6,6.7l1.4,0.8l9.4,5.4
					c1.2,0.7,3.2,0.7,4.5,0c1.9-1.1,4.6-2.7,6.5-3.8C275,387.3,275,386.2,273.8,385.5z"/>
				<path class="st7" d="M286.8,393l-7.2-4.1c-1.2-0.7-3.2-0.7-4.5,0l-6.5,3.8c-1.2,0.7-1.2,1.9,0,2.6l7.2,4.1
					c1.2,0.7,3.2,0.7,4.5,0l6.5-3.8C288.1,394.9,288.1,393.7,286.8,393z"/>
				<path class="st7" d="M299.9,400.6l-7.2-4.1c-1.2-0.7-3.2-0.7-4.5,0l-6.5,3.8c-1.2,0.7-1.2,1.9,0,2.6l7.2,4.1
					c1.2,0.7,3.2,0.7,4.5,0l6.5-3.8C301.1,402.4,301.1,401.3,299.9,400.6z"/>
				<path class="st7" d="M312.7,407.9l-6.9-4c-1.2-0.7-3.2-0.7-4.5,0l-6.5,3.8c-1.2,0.7-1.2,1.9,0,2.6l6.9,4c1.2,0.7,3.2,0.7,4.5,0
					l6.5-3.8C313.9,409.8,313.9,408.7,312.7,407.9z"/>
			</g>
		</g>
	</g>
	<g>
		<linearGradient id="SVGID_5_" gradientUnits="userSpaceOnUse" x1="317.6759" y1="303.2625" x2="464" y2="303.2625">
			<stop  offset="0" style="stop-color:#D1D3D4"/>
			<stop  offset="0.1409" style="stop-color:#DEDFE0"/>
			<stop  offset="0.4105" style="stop-color:#F0F1F1"/>
			<stop  offset="0.6916" style="stop-color:#FBFCFC"/>
			<stop  offset="1" style="stop-color:#FFFFFF"/>
		</linearGradient>
		<rect x="317.7" y="274" class="st8" width="146.3" height="58.4"/>
		<path class="st9" d="M359.8,307.1C359.8,307.1,359.8,307.1,359.8,307.1l0-3.1l-1.8,0.9l-59.7-34.5c-1.8-1-4.7-1-6.5,0L251,294
			l-0.3-0.8l-1-0.9l0,3.7l0,0c0.1,0.6,0.5,1.2,1.3,1.7l60.2,34.7c1.8,1,4.7,1,6.5,0l40.7-23.5C359.3,308.5,359.7,307.8,359.8,307.1
			L359.8,307.1L359.8,307.1z"/>
		<linearGradient id="SVGID_6_" gradientUnits="userSpaceOnUse" x1="249.6566" y1="298.0994" x2="359.7674" y2="298.0994">
			<stop  offset="0" style="stop-color:#D2E9E6"/>
			<stop  offset="1" style="stop-color:#A6D3D1"/>
		</linearGradient>
		<path class="st10" d="M311.2,329.1L251,294.4c-1.8-1-1.8-2.7,0-3.8l40.7-23.5c1.8-1,4.7-1,6.5,0l60.2,34.7c1.8,1,1.8,2.7,0,3.8
			l-40.7,23.5C315.9,330.1,313,330.1,311.2,329.1z"/>
		<path class="st9" d="M326,255.4L296.2,238c-0.8-0.4-1.4-0.5-1.9-0.2v0l0,0c0,0,0,0,0,0l-6.2,3.6c0,0,2.5,3.7,3,3.8
			c0.3,0.1,1.6,0.5,2.4,0.7v38.8c0,1.8,1.2,3.9,2.8,4.8l25.1,14.6l-0.4,2.1l0.9,4.5l6.2-3.6c0,0,0,0,0,0l0,0l0,0
			c0.5-0.3,0.8-0.9,0.8-1.8v-45.1C328.8,258.4,327.6,256.3,326,255.4z"/>
		<linearGradient id="SVGID_7_" gradientUnits="userSpaceOnUse" x1="287.1439" y1="276.1246" x2="322.5801" y2="276.1246">
			<stop  offset="0" style="stop-color:#D2E9E6"/>
			<stop  offset="1" style="stop-color:#A6D3D1"/>
		</linearGradient>
		<path class="st11" d="M319.8,310.6l-29.9-17.4c-1.5-0.9-2.8-3.1-2.8-4.8v-45.1c0-1.8,1.2-2.5,2.8-1.6l29.9,17.4
			c1.5,0.9,2.8,3.1,2.8,4.8V309C322.6,310.8,321.3,311.5,319.8,310.6z"/>
		<linearGradient id="SVGID_8_" gradientUnits="userSpaceOnUse" x1="207.255" y1="185.6588" x2="431.4038" y2="185.6588">
			<stop  offset="0" style="stop-color:#A6D3D1"/>
			<stop  offset="1" style="stop-color:#D2E9E6"/>
		</linearGradient>
		<path class="st12" d="M424.4,151.7l-207-119.5c-2-1.2-3.9-1.2-5.2-0.3v0l-5.1,3.1c0,0,0.4,6.3,1.6,7.7c0.4,0.5,1,0.6,1.7,0.7V205
			c0,4.5,3.1,9.9,7,12.1l199.4,115.1l4.7,6.2l3,1.7l4.4-2.8c1.6-0.6,2.6-2.2,2.6-4.8V163.8C431.4,159.3,428.3,153.9,424.4,151.7z"/>
		<path class="st13" d="M420.7,338.8l-207-119.5c-3.9-2.2-7-7.6-7-12.1V38.5c0-4.4,3.1-6.3,7-4l207,119.5c3.9,2.2,7,7.6,7,12.1
			v168.8C427.6,339.3,424.5,341.1,420.7,338.8z"/>
		<linearGradient id="SVGID_9_" gradientUnits="userSpaceOnUse" x1="205.5319" y1="187.3963" x2="426.4482" y2="187.3963">
			<stop  offset="0" style="stop-color:#D2E9E6"/>
			<stop  offset="1" style="stop-color:#A6D3D1"/>
		</linearGradient>
		<path class="st14" d="M419.5,339.6l-207-119.5c-3.9-2.2-7-7.6-7-12.1V39.2c0-4.4,3.1-6.3,7-4l207,119.5c3.9,2.2,7,7.6,7,12.1
			v168.8C426.4,340,423.3,341.8,419.5,339.6z"/>
		<linearGradient id="SVGID_10_" gradientUnits="userSpaceOnUse" x1="213.3519" y1="187.3986" x2="415.5083" y2="187.3986">
			<stop  offset="0" style="stop-color:#BDBABE"/>
			<stop  offset="0.4409" style="stop-color:#F1F2F2"/>
			<stop  offset="1" style="stop-color:#FFFFFF"/>
		</linearGradient>
		<path class="st15" d="M415.5,170.4v150.3c0,1.2-0.2,2.1-0.7,2.9c-0.2,0.3-0.4,0.5-0.6,0.7c-1.1,1.1-2.9,1.2-5,0L219.6,215.1
			c-3.4-2-6.2-6.8-6.2-10.7V54.1c0-2.4,1-3.9,2.5-4.3c0.3-0.1,0.6-0.1,0.9-0.1h0c0.8,0,1.8,0.3,2.8,0.8l189.7,109.1
			C412.7,161.6,415.5,166.4,415.5,170.4z"/>
		<linearGradient id="SVGID_11_" gradientUnits="userSpaceOnUse" x1="214.6109" y1="187.0395" x2="415.5083" y2="187.0395">
			<stop  offset="0" style="stop-color:#2CA2A0"/>
			<stop  offset="0.6989" style="stop-color:#18898E"/>
			<stop  offset="1" style="stop-color:#2CA2A0"/>
		</linearGradient>
		<path class="st16" d="M415.5,170.4v150.3c0,1.2-0.2,2.1-0.7,2.9c-0.2,0.3-0.4,0.5-0.6,0.7c-1,0.3-2.3,0.1-3.7-0.7L220.8,214.4
			c-3.4-2-6.2-6.8-6.2-10.8V53.4c0-1.6,0.5-2.8,1.2-3.6c0.3-0.1,0.6-0.1,0.9-0.1h0c0.8,0,1.8,0.3,2.8,0.8l189.7,109.1
			C412.7,161.6,415.5,166.4,415.5,170.4z"/>
	</g>
	<g>
		<path class="st17" d="M233.5,148.1c3.5,2,6.5,1.4,7.4-1.2l73.5,42.5c0,0,0,0,0,0l51.6,29.8c1,3.7,3.9,7.8,7.4,9.8
			c4.3,2.5,7.8,1,7.8-3.3c0-4.3-3.5-9.8-7.8-12.3c-3.5-2-6.5-1.4-7.4,1.2l-51.6-29.8L241,142.4c-1-3.7-3.9-7.8-7.4-9.8
			c-4.3-2.5-7.8-1-7.8,3.3C225.7,140.2,229.2,145.7,233.5,148.1z M373.4,218c1.8,1,3.2,3.3,3.2,5.1c0,1.8-1.5,2.4-3.2,1.4
			c-1.8-1-3.2-3.3-3.2-5.1C370.2,217.6,371.6,217,373.4,218z M233.5,137.1c1.8,1,3.2,3.3,3.2,5.1c0,1.8-1.5,2.4-3.2,1.4
			c-1.8-1-3.2-3.3-3.2-5.1C230.3,136.7,231.7,136.1,233.5,137.1z"/>
		<path class="st17" d="M385.5,260.2c-3.5-2-6.5-1.4-7.4,1.2l-9.8-5.7l-9.3-19.1c-0.4-0.9-1.1-1.6-1.9-2.1L314.4,210c0,0,0,0,0,0
			l-16.3-9.4c-0.8-0.5-1.6-0.5-2,0l-1.6,1.8l-16.2-9.4c-1-3.7-3.9-7.8-7.4-9.8c-4.3-2.5-7.8-1-7.8,3.3c0,4.3,3.5,9.8,7.8,12.3
			c3.5,2,6.5,1.4,7.4-1.2l13.6,7.8l-7.5,8.6l-45.5-26.5c-1-3.8-3.9-7.8-7.4-9.8c-4.3-2.5-7.8-1-7.8,3.3c0,4.3,3.5,9.8,7.8,12.3
			c3.5,2,6.5,1.4,7.4-1.2l46.8,27.3c0,0,0,0,0,0c0.8,0.5,1.6,0.5,2,0l11.7-13.4l15,8.7c0,0,0,0,0,0l41.3,23.9l9.3,19.1
			c0.4,0.9,1.1,1.6,1.9,2.1l11,6.4c1,3.7,3.9,7.8,7.4,9.8c4.3,2.5,7.8,1,7.8-3.3S389.7,262.7,385.5,260.2z M270.9,194.2
			c-1.8-1-3.2-3.3-3.2-5.1c0-1.8,1.5-2.4,3.2-1.4c1.8,1,3.2,3.3,3.2,5.1C274.2,194.6,272.7,195.2,270.9,194.2z M231.4,188.6
			c-1.8-1-3.2-3.3-3.2-5.1c0-1.8,1.5-2.4,3.2-1.4c1.8,1,3.2,3.3,3.2,5.1C234.7,189.1,233.2,189.7,231.4,188.6z M385.5,271.2
			c-1.6-0.9-2.9-2.8-3.2-4.4c0.1-0.2,0.1-0.4,0.1-0.6c0-0.2,0-0.5-0.1-0.7c0.3-1.3,1.6-1.6,3.2-0.7c1.8,1,3.2,3.3,3.2,5.1
			C388.7,271.6,387.2,272.2,385.5,271.2z"/>
		<path class="st17" d="M394.3,238.3c-3.5-2-6.5-1.4-7.4,1.2L313.5,197c0,0,0,0,0,0c-0.2-0.1-0.4-0.2-0.6-0.3l-50-28.9
			c-1-3.7-3.9-7.8-7.4-9.8c-4.3-2.5-7.8-1-7.8,3.3c0,4.3,3.5,9.8,7.8,12.3c3.5,2,6.5,1.4,7.4-1.2l51.6,29.8c0.2,0.1,0.4,0.2,0.6,0.3
			l71.9,41.6c1,3.7,3.9,7.8,7.4,9.8c4.3,2.5,7.8,1,7.8-3.3C402.1,246.3,398.6,240.8,394.3,238.3z M255.4,169.1
			c-1.8-1-3.2-3.3-3.2-5.1c0-1.8,1.5-2.4,3.2-1.4c1.8,1,3.2,3.3,3.2,5.1C258.6,169.5,257.2,170.1,255.4,169.1z M394.3,249.3
			c-1.8-1-3.2-3.3-3.2-5.1c0-1.8,1.5-2.4,3.2-1.4c1.8,1,3.2,3.3,3.2,5.1C397.6,249.7,396.1,250.3,394.3,249.3z"/>
		<path class="st17" d="M397.4,193.3c-3.5-2-6.5-1.4-7.4,1.2l-46.8-27.3c-0.8-0.5-1.6-0.5-2,0l-11.7,13.4l-15-8.7c0,0,0,0,0,0
			l-41.3-23.9l-9.3-19.1c-0.4-0.9-1.1-1.6-1.9-2.1l-11-6.4c-1-3.7-3.9-7.8-7.4-9.8c-4.3-2.5-7.8-1-7.8,3.3c0,4.3,3.5,9.8,7.8,12.3
			c3.5,2,6.5,1.4,7.4-1.2l9.8,5.7l9.3,19.1c0.4,0.9,1.1,1.6,1.9,2.1l42.5,24.6c0,0,0,0,0,0l16.3,9.4c0.8,0.5,1.6,0.5,2,0l1.6-1.8
			l16.2,9.4c1,3.7,3.9,7.8,7.4,9.8c4.3,2.5,7.8,1,7.8-3.3c0-4.3-3.5-9.8-7.8-12.3c-3.5-2-6.5-1.4-7.4,1.2l-13.6-7.8l7.5-8.6
			l45.5,26.5c1,3.8,3.9,7.8,7.4,9.8c4.3,2.5,7.8,1,7.8-3.3C405.2,201.3,401.7,195.8,397.4,193.3z M243.4,121.8
			c-1.8-1-3.2-3.3-3.2-5.1c0-1.8,1.5-2.4,3.2-1.4c1.6,0.9,2.9,2.8,3.2,4.4c-0.1,0.2-0.1,0.4-0.1,0.6c0,0.2,0,0.5,0.1,0.7
			C246.3,122.3,245,122.7,243.4,121.8z M357.9,192.3c1.8,1,3.2,3.3,3.2,5.1c0,1.8-1.5,2.4-3.2,1.4c-1.8-1-3.2-3.3-3.2-5.1
			C354.7,191.9,356.2,191.3,357.9,192.3z M397.4,204.3c-1.8-1-3.2-3.3-3.2-5.1c0-1.8,1.5-2.4,3.2-1.4s3.2,3.3,3.2,5.1
			C400.7,204.8,399.2,205.4,397.4,204.3z"/>
	</g>
	<g>
		<g>
			<path class="st5" d="M374.9,167.5l-0.3,2c0,0.1-2.5,13.7-5.4,27.6c-1.7,8.2-3.2,14.8-4.5,19.8c-2.3,8.8-3.5,10.8-4.4,11.6
				c-2.2,2.1-10.1,6.1-18,9.2c-4.4,1.7-8.4,3-11.6,3.7c-4.8,1-7.7,0.9-10.2-0.6c-2.5-1.5-5.5-4.7-10.3-11.2
				c-3.2-4.4-7.2-10.3-11.6-17.1c-7.8-12.1-15.7-25.3-18-29.9c-0.9-1.9-2.1-5.3-4.4-16.7c-1.3-6.5-2.8-14.9-4.5-25
				c-2.9-17.2-5.3-33.6-5.4-33.8c0,0-0.2-1.1-0.4-2.4c-0.2-1.3,0.6-1.9,1.8-1.4l2.2,0.9c24.6,10.5,48,9.6,48.2,9.6
				c0,0,0.5,0,1.1-0.1c0.6,0,1.7,0.6,2.3,1.3l1.1,1.4c0.2,0.3,23.6,28.2,48.2,46.1c0,0,1,0.7,2.2,1.6
				C374.3,164.8,375.1,166.4,374.9,167.5z"/>
			<linearGradient id="SVGID_12_" gradientUnits="userSpaceOnUse" x1="245.6875" y1="176.7908" x2="364.2354" y2="176.7908">
				<stop  offset="0" style="stop-color:#E1B725"/>
				<stop  offset="1" style="stop-color:#FCD24A"/>
			</linearGradient>
			<path class="st18" d="M364.2,171.8l-0.4,2c0,0.1-2.5,13.7-5.4,27.6c-1.7,8.2-3.2,14.8-4.5,19.8c-2.3,8.7-3.5,10.8-4.4,11.6
				c-1.3,1.2-4.7,3.2-8.8,5.2c-2.8,1.4-6,2.8-9.2,4c-4.4,1.7-8.4,3-11.6,3.7c-4.8,1-7.7,0.9-10.2-0.6c-2.5-1.5-5.5-4.7-10.3-11.3
				c-3.2-4.4-7.2-10.3-11.6-17.1c-7.8-12.1-15.7-25.3-18-29.9c-0.9-1.9-2.1-5.3-4.4-16.7c-1.3-6.5-2.8-14.9-4.5-25
				c-1.2-7-2.3-13.9-3.2-19.5l-12.1-12.4l1.3-0.7l8.7-4.9c0.3-0.3,0.8-0.3,1.4-0.1l2.2,0.9c24.6,10.5,48,9.6,48.2,9.6
				c0,0,0.5,0,1.1-0.1c0.6,0,1.6,0.5,2.3,1.3l1.1,1.4c0.2,0.3,23.6,28.2,48.2,46.1c0,0,1,0.7,2.1,1.6
				C363.6,169.2,364.4,170.7,364.2,171.8z"/>
			<path class="st19" d="M354.8,177.6l-0.3,2c0,0.1-2.4,13.5-5.4,27.6c-1.7,8.3-3.3,15-4.6,19.8c-1.8,6.9-2.9,9.6-3.8,10.9
				c-2.8,1.4-6,2.8-9.2,4c-4.4,1.7-8.4,3-11.6,3.7c-4.8,1-7.7,0.9-10.2-0.6c-2.5-1.5-5.5-4.7-10.3-11.3c-3.2-4.4-7.2-10.3-11.6-17.1
				c-7.8-12.1-15.7-25.3-18-29.9c-0.9-1.9-2.1-5.3-4.4-16.7c-1.3-6.5-2.8-14.9-4.5-25c-1.2-7-2.3-13.9-3.2-19.5l-12.1-12.4l1.3-0.7
				c0.1,0,0.2,0.1,0.3,0.1l2.2,0.9c20.7,8.8,40.6,9.5,46.3,9.5c1,0,1.6,0,1.7,0l1.1-0.1c1,0,2.2,0.8,2.8,1.6l1.1,1.4
				c2.5,3,24.8,29,48.1,46l2.1,1.6C354.1,174.4,355,176.3,354.8,177.6z"/>
			<linearGradient id="SVGID_13_" gradientUnits="userSpaceOnUse" x1="245.1883" y1="182.4584" x2="354.1724" y2="182.4584">
				<stop  offset="0" style="stop-color:#FCD24A"/>
				<stop  offset="1" style="stop-color:#E1B725"/>
			</linearGradient>
			<path class="st20" d="M354.1,177.5l-0.3,2c0,0.1-2.5,13.7-5.4,27.6c-1.7,8.2-3.2,14.8-4.5,19.8c-2.3,8.8-3.5,10.8-4.4,11.6
				c-2.2,2.1-10.1,6.1-18,9.2c-4.4,1.7-8.4,3-11.6,3.7c-4.8,1-7.7,0.9-10.2-0.6c-2.5-1.5-5.5-4.7-10.3-11.3
				c-3.2-4.4-7.2-10.3-11.6-17.1c-7.8-12.1-15.7-25.3-18-29.9c-0.9-1.9-2.1-5.3-4.4-16.7c-1.3-6.5-2.8-14.9-4.5-25
				c-2.9-17.2-5.3-33.6-5.4-33.8c0,0-0.2-1.1-0.4-2.4c-0.2-1.3,0.6-1.9,1.8-1.4l2.2,0.9c24.6,10.5,48,9.6,48.2,9.6
				c0,0,0.5,0,1.1-0.1c0.6,0,1.7,0.6,2.3,1.3l1.1,1.4c0.2,0.3,23.6,28.2,48.2,46.1c0,0,1,0.7,2.2,1.6
				C353.5,174.8,354.3,176.4,354.1,177.5z"/>
			<path class="st21" d="M344.7,179.4c-0.7,4-2.7,14.7-5,25.8c-1.7,8.2-3.2,14.7-4.4,19.4c-1.2,4.7-2,6.8-2.3,7.7
				c-2,1.3-7.6,4.3-14.6,7.1c-3.2,1.2-6.1,2.2-8.5,2.8c-0.6,0.2-1.2,0.3-1.7,0.4c-1.4,0.3-2.6,0.5-3.3,0.5c-0.4,0-0.6,0-0.6,0
				c-0.6-0.3-2.4-1.8-7.5-8.8c-3.2-4.3-7.1-10.1-11.3-16.7c-8.4-13-15.6-25.2-17.4-29c-0.9-1.8-2.1-6.5-3.7-14.5
				c-1.3-6.4-2.8-14.7-4.5-24.8c-1.4-8.6-2.8-16.9-3.7-23.1c0.9,0.3,1.9,0.6,2.8,0.9c17.1,5.1,31.9,5.6,36.8,5.6
				C299.6,137.3,321.6,162.5,344.7,179.4z"/>
			<linearGradient id="SVGID_14_" gradientUnits="userSpaceOnUse" x1="258.779" y1="184.7073" x2="344.7178" y2="184.7073">
				<stop  offset="0" style="stop-color:#FFFFFF"/>
				<stop  offset="1" style="stop-color:#D1D3D4"/>
			</linearGradient>
			<path class="st22" d="M344.7,179.4c-0.7,4-2.7,14.7-5,25.8c-1.7,8.2-3.2,14.7-4.4,19.4c-1.2,4.7-2,6.8-2.3,7.7
				c-2,1.3-7.6,4.3-14.6,7.1c-3.2,1.2-6.1,2.2-8.5,2.8c-1,0.2-1.9,0.3-2.5,0.3c-0.4,0-0.6,0-0.6,0c-0.6-0.3-2.4-1.8-7.5-8.8
				c-3.2-4.3-7.1-10.1-11.3-16.7c-8.4-13-15.6-25.2-17.4-29c-0.9-1.8-2.1-6.6-3.7-14.5c-1.3-6.4-2.8-14.7-4.5-24.8
				c-1.3-7.9-2.6-15.6-3.5-21.7c17.1,5.1,31.9,5.6,36.8,5.6C299.6,137.3,321.6,162.5,344.7,179.4z"/>
		</g>
		<g>
			<linearGradient id="SVGID_15_" gradientUnits="userSpaceOnUse" x1="273.6967" y1="167.7842" x2="326.6474" y2="198.3553">
				<stop  offset="0" style="stop-color:#FCD24A"/>
				<stop  offset="1" style="stop-color:#E1B725"/>
			</linearGradient>
			<path class="st23" d="M331.6,188.9c0,1.1-0.4,2-1.1,2.4l0,0c0,0,0,0-0.1,0l-2.4,1.4l-1.5,0.8l-1.2-1.4l-29.4,4.5
				c-0.8,0.1-1.8-0.1-2.7-0.7c-1.2-0.7-2.5-1.9-3.4-3.4l-2.2-3.6l-10.2-16.5c-0.3-0.5-0.6-1.1-0.8-1.6l-3.2-2.6l1.4-0.8l2.3-1.4
				c0,0,0.1,0,0.1-0.1l0,0c0.1,0,0.1-0.1,0.2-0.1c1.8-0.7,4.8,1,6.6,3.9l9.6,15.5l30.5-4.6c2.1-0.3,5,1.8,6.5,4.8
				C331.3,186.8,331.6,187.9,331.6,188.9z"/>
			<linearGradient id="SVGID_16_" gradientUnits="userSpaceOnUse" x1="271.9714" y1="170.7727" x2="294.6158" y2="183.8464">
				<stop  offset="0" style="stop-color:#E1B725"/>
				<stop  offset="1" style="stop-color:#FCD24A"/>
			</linearGradient>
			<path class="st24" d="M293.7,185.5l-2.5,1.5l-1.6,0.9l-2,1.2l-10.2-16.5c-0.3-0.5-0.6-1.1-0.8-1.6l-3.2-2.6l1.4-0.8l2.3-1.4
				c0,0,0.1,0,0.1-0.1l0,0c0.1,0,0.1-0.1,0.2-0.1c1.8-0.7,4.8,1,6.6,3.9L293.7,185.5z"/>
			<g>
				<path class="st19" d="M327.9,192.7l-1.5,0.8l-1.2-1.4l-29.4,4.5c-0.8,0.1-1.8-0.1-2.7-0.7c-1.2-0.7-2.5-1.9-3.4-3.4l-2.2-3.6
					l-10.2-16.5c-0.3-0.5-0.6-1.1-0.8-1.6l-3.2-2.6l1.4-0.8c2,0.2,4.3,2,5.8,4.4l9.4,15.2l1.2-0.2l28.8-4.4c0.2,0,0.3,0,0.5,0
					c2.3,0,5.2,2.2,6.7,5.2C328.1,189.6,328.4,191.4,327.9,192.7z"/>
				
					<linearGradient id="SVGID_17_" gradientUnits="userSpaceOnUse" x1="271.9388" y1="38.7416" x2="327.4785" y2="38.7416" gradientTransform="matrix(1 0.5774 0 1 0 -24.2693)">
					<stop  offset="0" style="stop-color:#E1B725"/>
					<stop  offset="1" style="stop-color:#FCD24A"/>
				</linearGradient>
				<path class="st25" d="M289.1,198.4c-1.2-0.7-2.4-1.9-3.4-3.4l-12.5-20.1c-1.8-2.9-1.7-5.8,0.1-6.5c1.9-0.7,4.8,1,6.6,3.9
					l9.6,15.5l30.5-4.6c2.1-0.3,5,1.8,6.5,4.8c1.5,3,1.1,5.6-1,5.9l-33.7,5.1C291,199.2,290,198.9,289.1,198.4z"/>
			</g>
		</g>
	</g>
	<g>
		<linearGradient id="SVGID_18_" gradientUnits="userSpaceOnUse" x1="118.1329" y1="390.4396" x2="275.6608" y2="392.7736">
			<stop  offset="0" style="stop-color:#D1D3D4"/>
			<stop  offset="0.1409" style="stop-color:#DEDFE0"/>
			<stop  offset="0.4105" style="stop-color:#F0F1F1"/>
			<stop  offset="0.6916" style="stop-color:#FBFCFC"/>
			<stop  offset="1" style="stop-color:#FFFFFF"/>
		</linearGradient>
		<rect x="99.6" y="353.8" class="st26" width="126.2" height="74.6"/>
		<linearGradient id="SVGID_19_" gradientUnits="userSpaceOnUse" x1="10.6174" y1="372.9526" x2="158.0628" y2="372.9526">
			<stop  offset="0" style="stop-color:#D2E9E6"/>
			<stop  offset="0.6559" style="stop-color:#A6D3D1"/>
			<stop  offset="1" style="stop-color:#D2E9E6"/>
		</linearGradient>
		<path class="st27" d="M158.1,316.5l-0.1,4.3l-0.4,33l-0.5,40.8c0,1.5-1,3.1-3,4.3l-49.8,28.8c-0.5,0.3-1.1,0.5-1.6,0.8
			c-4,1.5-9.5,1.3-13.1-0.8l-42.8-24.7l-32.9-19l-0.2-0.1c-2-1.2-3-2.7-3-4.2v-50.4l1-0.1l15.2-1.3l0.7-0.1l13.7-1.2l16.5-1.4
			l8.2-0.7l9.7-0.8l2.6-0.2l4.6-0.4l5.4-0.5l8.1-0.7l3.4-0.3l39.5-3.4l2.6-0.2l15.8-1.4L158.1,316.5z"/>
		<path class="st13" d="M158.1,316.5l-0.1,4.3c-0.3,0.5-0.7,1-1.2,1.5L104,377.1c-2.3,2.3-5.7,3.7-9.3,3.7c-2.2,0-4.3-0.5-6.1-1.6
			l-75.9-43.8c-0.8-0.5-1.5-1-2.2-1.7v-4.6L158.1,316.5z"/>
		<linearGradient id="SVGID_20_" gradientUnits="userSpaceOnUse" x1="10.6136" y1="322.7978" x2="157.6268" y2="322.7978">
			<stop  offset="0" style="stop-color:#D2E9E6"/>
			<stop  offset="1" style="stop-color:#A6D3D1"/>
		</linearGradient>
		<path class="st28" d="M155.5,321.1l-52.8,54.8c-3.3,3.4-9.2,4.2-13.2,1.9L47,353.2L13.6,334c-1.1-0.6-1.9-1.4-2.5-2.3
			c0,0,0,0,0-0.1c-1-2.3-0.5-5,1.5-7.1l2.4-2.5l0.5-0.5l15.1-15.7l34.8-36.1c3.3-3.4,9.2-4.2,13.2-1.9l75.9,43.8
			c1.1,0.6,1.9,1.5,2.5,2.3C158.1,316.2,157.6,319,155.5,321.1z"/>
		<path class="st29" d="M141.7,320.9c-0.3,0.7-0.7,1.3-1.3,2l-40.5,41.9c-2.5,2.5-6.9,3.2-10,1.4l-60.6-34.8c-1.2-0.7-2-1.6-2.3-2.6
			c-0.6-1.7-0.3-3.6,1.3-5.1l40.6-42.1c2.4-2.5,6.9-3.2,9.9-1.4l60.6,35C141.7,316.4,142.5,318.8,141.7,320.9z"/>
		<linearGradient id="SVGID_21_" gradientUnits="userSpaceOnUse" x1="27.03" y1="324.7085" x2="141.6995" y2="324.7085">
			<stop  offset="0" style="stop-color:#2CA2A0"/>
			<stop  offset="1" style="stop-color:#18898E"/>
		</linearGradient>
		<path class="st30" d="M141.7,320.9c-0.3,0.7-0.7,1.3-1.3,2l-40.5,41.9c-2.5,2.5-6.9,3.2-10,1.4l-60.6-34.8c-1.2-0.7-2-1.6-2.3-2.6
			c0.3-0.7,0.7-1.3,1.3-2l40.6-42.1c2.4-2.5,6.9-3.2,9.9-1.4l60.6,35C140.5,319,141.3,319.9,141.7,320.9z"/>
		<g>
			<g>
				<linearGradient id="SVGID_22_" gradientUnits="userSpaceOnUse" x1="49.7189" y1="319.7741" x2="83.587" y2="319.7741">
					<stop  offset="0" style="stop-color:#FCD24A"/>
					<stop  offset="1" style="stop-color:#E1B725"/>
				</linearGradient>
				<path class="st31" d="M83.6,313.1l-28.9-2.9l-5,3.5l8,11.4l2.9,4.1l5.8-4.1l-0.6-0.7l-7.6-9.7l19.4,2.5L83.6,313.1z"/>
				<linearGradient id="SVGID_23_" gradientUnits="userSpaceOnUse" x1="60.0476" y1="324.573" x2="99.6033" y2="324.573">
					<stop  offset="0" style="stop-color:#FCD24A"/>
					<stop  offset="1" style="stop-color:#E1B725"/>
				</linearGradient>
				<path class="st32" d="M98.6,315c-0.8-0.4-1.5-0.4-2.2-0.2c-0.7,0.2-1.9,0.7-3.4,1.5l-10,4.9l-4.7,2.3l-3.3,1.6l-1.2,0.6
					l-1.7,0.8l-8.4,4.1c-1.5,0.8-2.5,1.3-2.8,1.5c-1.2,0.9-1.1,1.6,0.2,2.2c0.5,0.2,1.1,0.3,1.6,0.3c0.5,0,1.1-0.2,1.7-0.5
					c0.6-0.2,1.4-0.6,2.3-1.1l4.5-2.2l11.2-5.4l5.7-2.8l7.9-3.8c1.4-0.7,2.3-1.2,2.7-1.5c0.6-0.4,0.8-0.8,0.8-1.2
					C99.6,315.7,99.3,315.3,98.6,315z"/>
				<linearGradient id="SVGID_24_" gradientUnits="userSpaceOnUse" x1="75.7282" y1="329.6632" x2="109.5963" y2="329.6632">
					<stop  offset="0" style="stop-color:#FCD24A"/>
					<stop  offset="1" style="stop-color:#E1B725"/>
				</linearGradient>
				<path class="st33" d="M99.6,321.6l-1-1.4l-2.4,1.7l-3.4,2.4l8.3,10.4l-19.6-2.4l-5.8,4.1l28.9,2.9l4.9-3.5L99.6,321.6z"/>
			</g>
		</g>
	</g>
	<g>
		<linearGradient id="SVGID_25_" gradientUnits="userSpaceOnUse" x1="349.7876" y1="250.4726" x2="444.1172" y2="370.5825">
			<stop  offset="0" style="stop-color:#A6D3D1"/>
			<stop  offset="1" style="stop-color:#D2E9E6"/>
		</linearGradient>
		<path class="st34" d="M454.4,327.4c0,0,0,24.7,0,32.9c0,2-1,3.4-2.4,4c-1.1,0.6-2.6,0.6-3.9,0L345.6,303c-3.1-1.8-5.5-5.7-5.5-8.7
			l-1.9-32.8c0-0.9,0.2-1.7,0.7-2.3c1.1-1.6,3.5-2.1,6.7-0.1l103.2,59.6C451.9,320.4,454.4,324.3,454.4,327.4z"/>
		<path class="st13" d="M453.1,328.5v32.9c0,1.3-0.4,2.3-1.1,2.9c-1.1,0.6-2.6,0.6-3.9,0L345.6,303c-3.1-1.8-5.5-5.7-5.5-8.7
			l-1.9-32.8c0-0.9,0.2-1.7,0.7-2.3c0.5-0.4,1.2-0.6,2-0.6c0.9,0,2,0.3,3.1,0.9l103.2,59.6C450.5,321.1,453.1,325.1,453.1,328.5z"/>
		<linearGradient id="SVGID_26_" gradientUnits="userSpaceOnUse" x1="338.0838" y1="311.9168" x2="452.3853" y2="311.9168">
			<stop  offset="0" style="stop-color:#D2E9E6"/>
			<stop  offset="1" style="stop-color:#A6D3D1"/>
		</linearGradient>
		<path class="st35" d="M446.9,363.7l-103.2-59.6c-3.1-1.8-5.5-5.7-5.5-8.7v-32.9c0-3.1,2.5-4.1,5.5-2.3l103.2,59.6
			c3.1,1.8,5.5,5.7,5.5,8.7v32.9C452.4,364.4,449.9,365.4,446.9,363.7z"/>
		<path class="st36" d="M448.7,326.3v32.9c0,0.1,0,0.1,0,0.2c-0.1,0.8-0.9,1.1-1.8,0.6l-103.2-59.6c-1-0.6-1.9-1.9-1.9-2.9v-32.9
			c0-0.7,0.4-1.1,1.1-1c0.2,0,0.5,0.1,0.8,0.3l103.2,59.6C447.9,324,448.7,325.3,448.7,326.3z"/>
		<linearGradient id="SVGID_27_" gradientUnits="userSpaceOnUse" x1="342.8345" y1="311.5042" x2="448.7006" y2="311.5042">
			<stop  offset="0" style="stop-color:#2CA2A0"/>
			<stop  offset="1" style="stop-color:#18898E"/>
		</linearGradient>
		<path class="st37" d="M448.7,326.3v32.9c0,0.1,0,0.1,0,0.2c-0.2,0-0.5-0.1-0.8-0.3l-103.2-59.6c-1-0.6-1.8-1.9-1.8-2.9v-32.9
			c0-0.1,0-0.1,0-0.2c0.2,0,0.5,0.1,0.8,0.3l103.2,59.6C447.9,324,448.7,325.3,448.7,326.3z"/>
		<linearGradient id="SVGID_28_" gradientUnits="userSpaceOnUse" x1="347.2939" y1="292.2498" x2="375.9173" y2="292.2498">
			<stop  offset="0" style="stop-color:#FCD24A"/>
			<stop  offset="1" style="stop-color:#E1B725"/>
		</linearGradient>
		<path class="st38" d="M374.3,313.9l-25.4-14.6c-0.9-0.5-1.6-1.7-1.6-2.6v-25.4c0-0.9,0.7-1.2,1.6-0.7l25.4,14.6
			c0.9,0.5,1.6,1.7,1.6,2.6v25.4C375.9,314.1,375.2,314.4,374.3,313.9z"/>
		<linearGradient id="SVGID_29_" gradientUnits="userSpaceOnUse" x1="355.4849" y1="287.3602" x2="367.7256" y2="287.3602">
			<stop  offset="0" style="stop-color:#2CA2A0"/>
			<stop  offset="0.6989" style="stop-color:#18898E"/>
			<stop  offset="1" style="stop-color:#2CA2A0"/>
		</linearGradient>
		<path class="st39" d="M367.7,290.9c0,3.4-2.7,4.5-6.1,2.6c-3.4-2-6.1-6.3-6.1-9.7c0-3.4,2.7-4.5,6.1-2.6
			C365,283.2,367.7,287.5,367.7,290.9z"/>
		<linearGradient id="SVGID_30_" gradientUnits="userSpaceOnUse" x1="352.4506" y1="300.3281" x2="370.7606" y2="300.3281">
			<stop  offset="0" style="stop-color:#2CA2A0"/>
			<stop  offset="0.6989" style="stop-color:#18898E"/>
			<stop  offset="1" style="stop-color:#2CA2A0"/>
		</linearGradient>
		<path class="st40" d="M370.8,308.3c0,0-0.7-0.4-1.6-0.9l-15.1-8.7c-0.9-0.5-1.6-0.9-1.6-1v0c0-5.1,4.1-6.8,9.2-3.9
			C366.7,296.7,370.8,303.2,370.8,308.3C370.8,308.2,370.8,308.3,370.8,308.3z"/>
		<g>
			<linearGradient id="SVGID_31_" gradientUnits="userSpaceOnUse" x1="385.9715" y1="307.2377" x2="425.374" y2="307.2377">
				<stop  offset="0" style="stop-color:#FCD24A"/>
				<stop  offset="1" style="stop-color:#E1B725"/>
			</linearGradient>
			<path class="st41" d="M424,319.2l-36.6-21.1c-0.8-0.4-1.4-1.4-1.4-2.2c0-0.8,0.6-1,1.4-0.6l36.6,21.1c0.8,0.4,1.4,1.4,1.4,2.2
				C425.4,319.4,424.8,319.6,424,319.2z"/>
		</g>
		<g>
			<linearGradient id="SVGID_32_" gradientUnits="userSpaceOnUse" x1="385.9715" y1="320.0999" x2="439.1724" y2="320.0999">
				<stop  offset="0" style="stop-color:#FCD24A"/>
				<stop  offset="1" style="stop-color:#E1B725"/>
			</linearGradient>
			<path class="st42" d="M437.8,336L387.4,307c-0.8-0.4-1.4-1.4-1.4-2.2c0-0.8,0.6-1,1.4-0.6l50.4,29.1c0.8,0.4,1.4,1.4,1.4,2.2
				C439.2,336.2,438.5,336.5,437.8,336z"/>
		</g>
		<g>
			<linearGradient id="SVGID_33_" gradientUnits="userSpaceOnUse" x1="385.9715" y1="325.8333" x2="439.1724" y2="325.8333">
				<stop  offset="0" style="stop-color:#FCD24A"/>
				<stop  offset="1" style="stop-color:#E1B725"/>
			</linearGradient>
			<path class="st43" d="M437.8,341.8l-50.4-29.1c-0.8-0.4-1.4-1.4-1.4-2.2c0-0.8,0.6-1,1.4-0.6l50.4,29.1c0.8,0.4,1.4,1.4,1.4,2.2
				C439.2,341.9,438.5,342.2,437.8,341.8z"/>
		</g>
		<g>
			<linearGradient id="SVGID_34_" gradientUnits="userSpaceOnUse" x1="385.9715" y1="331.5669" x2="439.1724" y2="331.5669">
				<stop  offset="0" style="stop-color:#FCD24A"/>
				<stop  offset="1" style="stop-color:#E1B725"/>
			</linearGradient>
			<path class="st44" d="M437.8,347.5l-50.4-29.1c-0.8-0.4-1.4-1.4-1.4-2.2c0-0.8,0.6-1,1.4-0.6l50.4,29.1c0.8,0.4,1.4,1.4,1.4,2.2
				C439.2,347.7,438.5,347.9,437.8,347.5z"/>
		</g>
	</g>
	<g>
		<linearGradient id="SVGID_35_" gradientUnits="userSpaceOnUse" x1="135.3895" y1="93.7359" x2="238.091" y2="93.7359">
			<stop  offset="0" style="stop-color:#2CA2A0"/>
			<stop  offset="0.6989" style="stop-color:#18898E"/>
		</linearGradient>
		<path class="st45" d="M238.1,116.2v13.7c0,1-0.7,1.8-1.5,2.2c-1,0.4-2.2,0.5-3.1-0.1l-93.5-55c-1.8-1.1-3.3-3.6-3.3-5.8l-1.2-14
			c0-1.4,1.2-2.1,2.5-2.1c0,0,0,0,0,0c0.7,0,1.4,0.2,2,0.5l94.9,54.8C236.6,111.5,238.1,114,238.1,116.2z"/>
		<linearGradient id="SVGID_36_" gradientUnits="userSpaceOnUse" x1="135.2428" y1="69.9349" x2="238.091" y2="69.9349">
			<stop  offset="0" style="stop-color:#2CA2A0"/>
			<stop  offset="0.6989" style="stop-color:#18898E"/>
		</linearGradient>
		<path class="st46" d="M238.1,92.2v13.7c0,1.4-0.9,2.4-2.1,2.7c-0.6,0.2-1.3,0.1-2-0.3l-94.1-55.2c-1.8-1.1-3.3-3.6-3.3-5.8
			l-1.3-13.9c0-1.5,1.3-2.3,2.8-2.2c0.6,0,1.3,0.2,1.9,0.5l94.9,54.8C236.6,87.5,238.1,90.1,238.1,92.2z"/>
		<path class="st2" d="M237.2,116.3v13.7c0,0.8-0.2,1.5-0.6,2c-1,0.4-2.2,0.5-3.1-0.1l-93.5-55c-1.8-1.1-3.3-3.6-3.3-5.8l-1.2-14
			c0-1.4,1.2-2.1,2.5-2.1c0,0,0,0,0,0c0.3,0.1,0.5,0.2,0.8,0.4l94.9,54.8C235.6,111.3,237.2,114.1,237.2,116.3z"/>
		<linearGradient id="SVGID_37_" gradientUnits="userSpaceOnUse" x1="135.2227" y1="93.884" x2="236.7501" y2="93.884">
			<stop  offset="0" style="stop-color:#2CA2A0"/>
			<stop  offset="0.6989" style="stop-color:#18898E"/>
			<stop  offset="1" style="stop-color:#2CA2A0"/>
		</linearGradient>
		<path class="st47" d="M233.4,132l-94.9-54.8c-1.8-1.1-3.3-3.6-3.3-5.8V57.7c0-2.1,1.5-3,3.3-1.9l94.9,54.8
			c1.8,1.1,3.3,3.6,3.3,5.8V130C236.8,132.2,235.3,133,233.4,132z"/>
		<path class="st2" d="M237.2,92.4v13.7c0,1.2-0.4,2.1-1.2,2.5c-0.6,0.2-1.3,0.1-2-0.3l-94.1-55.2c-1.8-1.1-3.3-3.6-3.3-5.8
			l-1.3-13.9c0-1.5,1.3-2.3,2.8-2.2c0.2,0.1,0.5,0.2,0.7,0.3l94.9,54.8C235.6,87.4,237.2,90.2,237.2,92.4z"/>
		<linearGradient id="SVGID_38_" gradientUnits="userSpaceOnUse" x1="135.2227" y1="69.9519" x2="236.7501" y2="69.9519">
			<stop  offset="0" style="stop-color:#2CA2A0"/>
			<stop  offset="0.6989" style="stop-color:#18898E"/>
			<stop  offset="1" style="stop-color:#2CA2A0"/>
		</linearGradient>
		<path class="st48" d="M233.4,108l-94.9-54.8c-1.8-1.1-3.3-3.6-3.3-5.8V33.8c0-2.1,1.5-3,3.3-1.9l94.9,54.8
			c1.8,1.1,3.3,3.6,3.3,5.8v13.7C236.8,108.2,235.3,109.1,233.4,108z"/>
		<path class="st5" d="M147.6,39.6l2.1,5.5c0.1,0.2,0.3,0.5,0.4,0.6l4.7,3.4c0.2,0.1,0.2,0.3,0,0.4l-3.2,1.3
			c-0.2,0.1-0.3,0.3-0.3,0.5l0.8,5.1c0,0.2-0.1,0.3-0.2,0.1l-4.3-4.7c-0.1-0.2-0.4-0.3-0.6-0.3l-4-0.2c-0.2,0-0.4-0.2-0.3-0.4
			l0.8-4.1c0-0.2,0-0.5-0.1-0.7l-3.5-5.4c-0.1-0.2-0.1-0.3,0.1-0.2l4.6,2c0.2,0.1,0.4,0,0.6-0.2l2-2.8
			C147.4,39.4,147.6,39.4,147.6,39.6z"/>
		<path class="st5" d="M167.1,50.8l2.1,5.5c0.1,0.2,0.3,0.5,0.4,0.6l4.7,3.4c0.2,0.1,0.2,0.3,0,0.4l-3.2,1.3
			c-0.2,0.1-0.3,0.3-0.3,0.5l0.8,5.1c0,0.2-0.1,0.3-0.2,0.1l-4.3-4.7c-0.1-0.2-0.4-0.3-0.6-0.3l-4-0.2c-0.2,0-0.4-0.2-0.3-0.4l0.8-4
			c0-0.2,0-0.5-0.1-0.7l-3.5-5.4c-0.1-0.2,0-0.3,0.1-0.2l4.6,2c0.2,0.1,0.5,0,0.6-0.2l2-2.8C166.9,50.6,167.1,50.6,167.1,50.8z"/>
		<path class="st5" d="M186.6,62.1l2.1,5.5c0.1,0.2,0.3,0.5,0.4,0.6l4.7,3.4c0.2,0.1,0.2,0.3,0,0.4l-3.2,1.3
			c-0.2,0.1-0.3,0.3-0.3,0.5l0.8,5.1c0,0.2-0.1,0.3-0.2,0.1l-4.3-4.7c-0.1-0.2-0.4-0.3-0.6-0.3l-4-0.2c-0.2,0-0.4-0.2-0.3-0.4l0.8-4
			c0-0.2,0-0.5-0.1-0.7l-3.5-5.4c-0.1-0.2-0.1-0.3,0.1-0.2l4.6,2c0.2,0.1,0.4,0,0.6-0.2l2-2.8C186.4,61.9,186.5,61.9,186.6,62.1z"/>
		<path class="st5" d="M206.1,73.3l2.1,5.5c0.1,0.2,0.3,0.5,0.4,0.6l4.7,3.4c0.2,0.1,0.2,0.3,0,0.4l-3.2,1.3
			c-0.2,0.1-0.3,0.3-0.3,0.5l0.8,5.1c0,0.2-0.1,0.3-0.2,0.1l-4.3-4.7c-0.1-0.2-0.4-0.3-0.6-0.3l-4-0.2c-0.2,0-0.4-0.2-0.3-0.4l0.8-4
			c0-0.2,0-0.5-0.1-0.7l-3.5-5.4c-0.1-0.2,0-0.3,0.1-0.2l4.7,2c0.2,0.1,0.4,0,0.6-0.2l2-2.8C205.9,73.1,206,73.1,206.1,73.3z"/>
		<path class="st5" d="M225.6,84.6l2.1,5.5c0.1,0.2,0.3,0.5,0.4,0.6l4.7,3.4c0.2,0.1,0.2,0.3,0,0.4l-3.2,1.3
			c-0.2,0.1-0.3,0.3-0.3,0.5l0.8,5.1c0,0.2-0.1,0.3-0.2,0.1l-4.3-4.7c-0.1-0.2-0.4-0.3-0.6-0.3l-4-0.2c-0.2,0-0.4-0.2-0.3-0.4l0.8-4
			c0-0.2,0-0.5-0.1-0.7l-3.5-5.4c-0.1-0.2,0-0.3,0.1-0.2l4.6,2c0.2,0.1,0.5,0,0.6-0.2l2-2.8C225.4,84.4,225.5,84.4,225.6,84.6z"/>
		<linearGradient id="SVGID_39_" gradientUnits="userSpaceOnUse" x1="139.0087" y1="47.9682" x2="154.1601" y2="47.9682">
			<stop  offset="0" style="stop-color:#FCD24A"/>
			<stop  offset="1" style="stop-color:#E1B725"/>
		</linearGradient>
		<path class="st49" d="M146.7,39.6l2.1,5.5c0.1,0.2,0.3,0.5,0.4,0.6l4.7,3.4c0.2,0.1,0.2,0.3,0,0.4l-3.2,1.3
			c-0.2,0.1-0.3,0.3-0.3,0.5l0.8,5.1c0,0.2-0.1,0.3-0.2,0.1l-4.3-4.7c-0.1-0.2-0.4-0.3-0.6-0.3l-4-0.2c-0.2,0-0.4-0.2-0.3-0.4
			l0.8-4.1c0-0.2,0-0.5-0.1-0.7l-3.5-5.4c-0.1-0.2-0.1-0.3,0.1-0.2l4.6,2c0.2,0.1,0.5,0,0.6-0.2l2-2.8
			C146.5,39.4,146.7,39.4,146.7,39.6z"/>
		<linearGradient id="SVGID_40_" gradientUnits="userSpaceOnUse" x1="158.5047" y1="59.2246" x2="173.6572" y2="59.2246">
			<stop  offset="0" style="stop-color:#FCD24A"/>
			<stop  offset="1" style="stop-color:#E1B725"/>
		</linearGradient>
		<path class="st50" d="M166.2,50.8l2.1,5.5c0.1,0.2,0.3,0.5,0.4,0.6l4.7,3.4c0.2,0.1,0.2,0.3,0,0.4l-3.2,1.3
			c-0.2,0.1-0.3,0.3-0.3,0.5l0.8,5.1c0,0.2-0.1,0.3-0.2,0.1l-4.3-4.7c-0.1-0.2-0.4-0.3-0.6-0.3l-4-0.2c-0.2,0-0.4-0.2-0.3-0.4l0.8-4
			c0-0.2,0-0.5-0.1-0.7l-3.5-5.4c-0.1-0.2-0.1-0.3,0.1-0.2l4.6,2c0.2,0.1,0.4,0,0.6-0.2l2-2.8C166,50.6,166.2,50.6,166.2,50.8z"/>
		<linearGradient id="SVGID_41_" gradientUnits="userSpaceOnUse" x1="178.0009" y1="70.4809" x2="193.1531" y2="70.4809">
			<stop  offset="0" style="stop-color:#FCD24A"/>
			<stop  offset="1" style="stop-color:#E1B725"/>
		</linearGradient>
		<path class="st51" d="M185.7,62.1l2.1,5.5c0.1,0.2,0.3,0.5,0.4,0.6l4.7,3.4c0.2,0.1,0.2,0.3,0,0.4l-3.2,1.3
			c-0.2,0.1-0.3,0.3-0.3,0.5l0.8,5.1c0,0.2-0.1,0.3-0.2,0.1l-4.3-4.7c-0.1-0.2-0.4-0.3-0.6-0.3l-4-0.2c-0.2,0-0.4-0.2-0.3-0.4l0.8-4
			c0-0.2,0-0.5-0.1-0.7l-3.5-5.4c-0.1-0.2,0-0.3,0.1-0.2l4.6,2c0.2,0.1,0.4,0,0.6-0.2l2-2.8C185.5,61.9,185.7,61.9,185.7,62.1z"/>
		<linearGradient id="SVGID_42_" gradientUnits="userSpaceOnUse" x1="197.4971" y1="81.7368" x2="212.6495" y2="81.7368">
			<stop  offset="0" style="stop-color:#FCD24A"/>
			<stop  offset="1" style="stop-color:#E1B725"/>
		</linearGradient>
		<path class="st52" d="M205.2,73.3l2.1,5.5c0.1,0.2,0.3,0.5,0.4,0.6l4.7,3.4c0.2,0.1,0.2,0.3,0,0.4l-3.2,1.3
			c-0.2,0.1-0.3,0.3-0.3,0.5l0.8,5.1c0,0.2-0.1,0.3-0.2,0.1l-4.3-4.7c-0.1-0.2-0.4-0.3-0.6-0.3l-4-0.2c-0.2,0-0.4-0.2-0.3-0.4l0.8-4
			c0-0.2,0-0.5-0.1-0.7l-3.5-5.4c-0.1-0.2-0.1-0.3,0.1-0.2l4.6,2c0.2,0.1,0.5,0,0.6-0.2l2-2.8C205,73.1,205.2,73.1,205.2,73.3z"/>
		<linearGradient id="SVGID_43_" gradientUnits="userSpaceOnUse" x1="216.9936" y1="92.9932" x2="232.146" y2="92.9932">
			<stop  offset="0" style="stop-color:#FCD24A"/>
			<stop  offset="1" style="stop-color:#E1B725"/>
		</linearGradient>
		<path class="st53" d="M224.7,84.6l2.1,5.5c0.1,0.2,0.3,0.5,0.4,0.6l4.7,3.4c0.2,0.1,0.2,0.3,0,0.4l-3.2,1.3
			c-0.2,0.1-0.3,0.3-0.3,0.5l0.8,5.1c0,0.2-0.1,0.3-0.2,0.1l-4.3-4.7c-0.1-0.2-0.4-0.3-0.6-0.3l-4-0.2c-0.2,0-0.4-0.2-0.3-0.4l0.8-4
			c0-0.2,0-0.5-0.1-0.7l-3.5-5.4c-0.1-0.2,0-0.3,0.1-0.2l4.6,2c0.2,0.1,0.5,0,0.6-0.2l2-2.8C224.5,84.4,224.7,84.4,224.7,84.6z"/>
		<path class="st5" d="M147.6,63.5l2.1,5.5c0.1,0.2,0.3,0.5,0.4,0.6l4.7,3.4c0.2,0.1,0.2,0.3,0,0.4l-3.2,1.3
			c-0.2,0.1-0.3,0.3-0.3,0.5l0.8,5.1c0,0.2-0.1,0.3-0.2,0.1l-4.3-4.7c-0.1-0.2-0.4-0.3-0.6-0.3l-4-0.2c-0.2,0-0.4-0.2-0.3-0.4
			l0.8-4.1c0-0.2,0-0.5-0.1-0.7l-3.5-5.4c-0.1-0.2-0.1-0.3,0.1-0.2l4.6,2c0.2,0.1,0.4,0,0.6-0.2l2-2.8
			C147.4,63.3,147.6,63.3,147.6,63.5z"/>
		<path class="st5" d="M167.1,74.8l2.1,5.5c0.1,0.2,0.3,0.5,0.4,0.6l4.7,3.4c0.2,0.1,0.2,0.3,0,0.4l-3.2,1.3
			c-0.2,0.1-0.3,0.3-0.3,0.5l0.8,5.1c0,0.2-0.1,0.3-0.2,0.1l-4.3-4.7c-0.1-0.2-0.4-0.3-0.6-0.3l-4-0.2c-0.2,0-0.4-0.2-0.3-0.4
			l0.8-4.1c0-0.2,0-0.5-0.1-0.7l-3.5-5.4c-0.1-0.2,0-0.3,0.1-0.2l4.6,2c0.2,0.1,0.5,0,0.6-0.2l2-2.8
			C166.9,74.5,167.1,74.6,167.1,74.8z"/>
		<path class="st5" d="M186.6,86l2.1,5.5c0.1,0.2,0.3,0.5,0.4,0.6l4.7,3.4c0.2,0.1,0.2,0.3,0,0.4l-3.2,1.3c-0.2,0.1-0.3,0.3-0.3,0.5
			l0.8,5.1c0,0.2-0.1,0.3-0.2,0.1l-4.3-4.7c-0.1-0.2-0.4-0.3-0.6-0.3l-4-0.2c-0.2,0-0.4-0.2-0.3-0.4l0.8-4.1c0-0.2,0-0.5-0.1-0.7
			l-3.5-5.4c-0.1-0.2-0.1-0.3,0.1-0.2l4.6,2c0.2,0.1,0.4,0,0.6-0.2l2-2.8C186.4,85.8,186.5,85.8,186.6,86z"/>
		<path class="st5" d="M206.1,97.3l2.1,5.5c0.1,0.2,0.3,0.5,0.4,0.6l4.7,3.4c0.2,0.1,0.2,0.3,0,0.4l-3.2,1.3
			c-0.2,0.1-0.3,0.3-0.3,0.5l0.8,5.1c0,0.2-0.1,0.3-0.2,0.1l-4.3-4.7c-0.1-0.2-0.4-0.3-0.6-0.3l-4-0.2c-0.2,0-0.4-0.2-0.3-0.4l0.8-4
			c0-0.2,0-0.5-0.1-0.7l-3.5-5.4c-0.1-0.2,0-0.3,0.1-0.2l4.7,2c0.2,0.1,0.4,0,0.6-0.2l2-2.8C205.9,97.1,206,97.1,206.1,97.3z"/>
		<path class="st5" d="M225.6,108.5l2.1,5.5c0.1,0.2,0.3,0.5,0.4,0.6l4.7,3.4c0.2,0.1,0.2,0.3,0,0.4l-3.2,1.3
			c-0.2,0.1-0.3,0.3-0.3,0.5l0.8,5.1c0,0.2-0.1,0.3-0.2,0.1l-4.3-4.7c-0.1-0.2-0.4-0.3-0.6-0.3l-4-0.2c-0.2,0-0.4-0.2-0.3-0.4
			l0.8-4.1c0-0.2,0-0.5-0.1-0.7l-3.5-5.4c-0.1-0.2,0-0.3,0.1-0.2l4.6,2c0.2,0.1,0.5,0,0.6-0.2l2-2.8
			C225.4,108.3,225.5,108.3,225.6,108.5z"/>
		<linearGradient id="SVGID_44_" gradientUnits="userSpaceOnUse" x1="139.0087" y1="71.9" x2="154.1601" y2="71.9">
			<stop  offset="0" style="stop-color:#FCD24A"/>
			<stop  offset="1" style="stop-color:#E1B725"/>
		</linearGradient>
		<path class="st54" d="M146.7,63.5l2.1,5.5c0.1,0.2,0.3,0.5,0.4,0.6L154,73c0.2,0.1,0.2,0.3,0,0.4l-3.2,1.3
			c-0.2,0.1-0.3,0.3-0.3,0.5l0.8,5.1c0,0.2-0.1,0.3-0.2,0.1l-4.3-4.7c-0.1-0.2-0.4-0.3-0.6-0.3l-4-0.2c-0.2,0-0.4-0.2-0.3-0.4
			l0.8-4.1c0-0.2,0-0.5-0.1-0.7l-3.5-5.4c-0.1-0.2-0.1-0.3,0.1-0.2l4.6,2c0.2,0.1,0.5,0,0.6-0.2l2-2.8
			C146.5,63.3,146.7,63.3,146.7,63.5z"/>
		<linearGradient id="SVGID_45_" gradientUnits="userSpaceOnUse" x1="158.5047" y1="83.1561" x2="173.6572" y2="83.1561">
			<stop  offset="0" style="stop-color:#FCD24A"/>
			<stop  offset="1" style="stop-color:#E1B725"/>
		</linearGradient>
		<path class="st55" d="M166.2,74.8l2.1,5.5c0.1,0.2,0.3,0.5,0.4,0.6l4.7,3.4c0.2,0.1,0.2,0.3,0,0.4l-3.2,1.3
			c-0.2,0.1-0.3,0.3-0.3,0.5l0.8,5.1c0,0.2-0.1,0.3-0.2,0.1l-4.3-4.7c-0.1-0.2-0.4-0.3-0.6-0.3l-4-0.2c-0.2,0-0.4-0.2-0.3-0.4
			l0.8-4.1c0-0.2,0-0.5-0.1-0.7l-3.5-5.4c-0.1-0.2-0.1-0.3,0.1-0.2l4.6,2c0.2,0.1,0.4,0,0.6-0.2l2-2.8
			C166,74.5,166.2,74.6,166.2,74.8z"/>
		<linearGradient id="SVGID_46_" gradientUnits="userSpaceOnUse" x1="178.0009" y1="94.4123" x2="193.1531" y2="94.4123">
			<stop  offset="0" style="stop-color:#FCD24A"/>
			<stop  offset="1" style="stop-color:#E1B725"/>
		</linearGradient>
		<path class="st56" d="M185.7,86l2.1,5.5c0.1,0.2,0.3,0.5,0.4,0.6l4.7,3.4c0.2,0.1,0.2,0.3,0,0.4l-3.2,1.3
			c-0.2,0.1-0.3,0.3-0.3,0.5l0.8,5.1c0,0.2-0.1,0.3-0.2,0.1l-4.3-4.7c-0.1-0.2-0.4-0.3-0.6-0.3l-4-0.2c-0.2,0-0.4-0.2-0.3-0.4
			l0.8-4.1c0-0.2,0-0.5-0.1-0.7l-3.5-5.4c-0.1-0.2,0-0.3,0.1-0.2l4.6,2c0.2,0.1,0.4,0,0.6-0.2l2-2.8C185.5,85.8,185.7,85.8,185.7,86
			z"/>
		<linearGradient id="SVGID_47_" gradientUnits="userSpaceOnUse" x1="197.4971" y1="105.6686" x2="212.6495" y2="105.6686">
			<stop  offset="0" style="stop-color:#FCD24A"/>
			<stop  offset="1" style="stop-color:#E1B725"/>
		</linearGradient>
		<path class="st57" d="M205.2,97.3l2.1,5.5c0.1,0.2,0.3,0.5,0.4,0.6l4.7,3.4c0.2,0.1,0.2,0.3,0,0.4l-3.2,1.3
			c-0.2,0.1-0.3,0.3-0.3,0.5l0.8,5.1c0,0.2-0.1,0.3-0.2,0.1l-4.3-4.7c-0.1-0.2-0.4-0.3-0.6-0.3l-4-0.2c-0.2,0-0.4-0.2-0.3-0.4l0.8-4
			c0-0.2,0-0.5-0.1-0.7l-3.5-5.4c-0.1-0.2-0.1-0.3,0.1-0.2l4.6,2c0.2,0.1,0.5,0,0.6-0.2l2-2.8C205,97.1,205.2,97.1,205.2,97.3z"/>
		<linearGradient id="SVGID_48_" gradientUnits="userSpaceOnUse" x1="216.9936" y1="116.9249" x2="232.146" y2="116.9249">
			<stop  offset="0" style="stop-color:#FCD24A"/>
			<stop  offset="1" style="stop-color:#E1B725"/>
		</linearGradient>
		<path class="st58" d="M224.7,108.5l2.1,5.5c0.1,0.2,0.3,0.5,0.4,0.6l4.7,3.4c0.2,0.1,0.2,0.3,0,0.4l-3.2,1.3
			c-0.2,0.1-0.3,0.3-0.3,0.5l0.8,5.1c0,0.2-0.1,0.3-0.2,0.1l-4.3-4.7c-0.1-0.2-0.4-0.3-0.6-0.3l-4-0.2c-0.2,0-0.4-0.2-0.3-0.4
			l0.8-4.1c0-0.2,0-0.5-0.1-0.7l-3.5-5.4c-0.1-0.2,0-0.3,0.1-0.2l4.6,2c0.2,0.1,0.5,0,0.6-0.2l2-2.8
			C224.5,108.3,224.7,108.3,224.7,108.5z"/>
	</g>
	<g>
		<linearGradient id="SVGID_49_" gradientUnits="userSpaceOnUse" x1="14.9912" y1="435.1407" x2="108.2544" y2="435.1407">
			<stop  offset="0" style="stop-color:#D1D3D4"/>
			<stop  offset="0.57" style="stop-color:#EEEFEF"/>
			<stop  offset="1" style="stop-color:#FFFFFF"/>
		</linearGradient>
		<path class="st59" d="M37.7,443.7c0,0,65.1-1.8,70.3-7.5c5.2-5.8-55.9-15-88.4-5.5l-4.6,6.9c0,0,4.6,3.8,18.7,6.2L37.7,443.7z"/>
		<path class="st4" d="M37.7,436.1c0,0,5.9-2.8,7.9-3c2-0.2,6.5-0.5,6.3,2.9c-0.1,3.4-3.3,6.1-8.8,7.1c-5.5,1-9.9,1-10.2,0
			c-0.3-1-0.1-5.6-0.1-5.6L37.7,436.1z"/>
		<path class="st4" d="M19.7,430.6c0,0,5.7-2.8,7.7-3c2-0.2,6.4-0.4,6.2,2.9c-0.1,3.4-3.1,6-8.5,7c-5.5,1-9.9,1-10.2,0
			c-0.3-1-0.1-5.6-0.1-5.6L19.7,430.6z"/>
		<linearGradient id="SVGID_50_" gradientUnits="userSpaceOnUse" x1="11.157" y1="399.8528" x2="41.5883" y2="399.8528">
			<stop  offset="0" style="stop-color:#006973"/>
			<stop  offset="1" style="stop-color:#18898E"/>
		</linearGradient>
		<path class="st60" d="M41.6,369l-0.8,67.9c0,0.7-1.2,1.3-2.9,1.4c-0.3,0-0.5,0-0.8,0c-2,0-3.7-0.7-3.7-1.5l-6.7-47l-4,42
			c0,0.7-1.3,1.3-3.1,1.4c-0.2,0-0.4,0-0.7,0c-2,0-3.7-0.7-3.7-1.5l-2.5-53.3c-0.4-2.4-0.9-4.4-1.2-5.3c-1.3-3.8,1.1-11.5,1.1-11.5
			c0.5-1.3,8.3,0.8,15.4,2.3c2.3,0.5,4.4,1,5.7,1.3c0.4,0.1,0.6,0.2,0.9,0.3C38.7,366.9,41.6,369,41.6,369z"/>
		<path class="st5" d="M26.6,389.9l-4,42c0,0.7-1.3,1.3-3.1,1.4l3.3-45.2L21.1,376L26.6,389.9z"/>
		<path class="st5" d="M41.6,369l-0.8,67.9c0,0.7-1.2,1.3-2.9,1.4V377l-4.2-11.6c0.4,0.1,0.6,0.2,0.9,0.3
			C38.7,366.9,41.6,369,41.6,369z"/>
		<path class="st61" d="M68,319.2c0,0,0.7-6.4,1.8-6.1c1.1,0.2,1.1,1.7,1.1,1.7s2.8-6.2,4-6.9c1.2-0.7,4.2-0.6,4.7,0.9
			c0.5,1.5-0.6,8.3-3.1,11c-2.5,2.7-4.8,3.3-4.8,3.3S67.8,320.9,68,319.2z"/>
		<path class="st62" d="M71.7,323.3c0,0-0.5,0.4-1.2,1.1c-3.9,3.4-15.9,13.9-20,15.5c-4.9,2-9-0.9-9-0.9c0.1,1.8,0.3,3.6,0.4,5.4
			c0.1,2.1,0.3,4.3,0.4,6.4c1.3,23.9,1.3,49.2,1.3,49.2s-5.5,0.7-10.3,1c-1.1,0.1-2.1,0.1-3.1,0.1c-1.3,0-2.6,0-3.6-0.2
			c-0.6-0.1-1.4-0.3-2.2-0.5L22.4,376l-2.2,22.7c-4.7-2.1-9.4-5.1-9.4-5.1l-0.1-44c0,0-7.3-14.6-7.9-16.8c-0.6-2.1,1.7-5.5,5.5-15.2
			c3.8-9.8,11.1-10,12.3-10.2c0.7-0.1,6.1,1.7,10.8,3.8c2.9,1.3,5.7,2.6,7,3.6c3.4,2.6,10.3,16,10.3,16s1.9-2.6,8.5-5.3
			c4.9-2.1,8.2-4.5,9.6-5.6c0.5-0.4,0.7-0.6,0.7-0.6C69.6,319.5,71.7,323.3,71.7,323.3z"/>
		<path class="st63" d="M10.7,324.7v20.5c0,0-4.1-8-3.8-10.3C7.2,332.7,10.7,324.7,10.7,324.7z"/>
		<path class="st63" d="M43.7,400c0,0-5.5,0.7-10.3,1c-1-22.6-3.1-65.3-3.1-67.4c0.1-3.2,1.5-3.8,2.5-3.5c1,0.2,8.8,8.8,8.8,8.8
			c-0.3,1.4,0.1,5.9,0.8,11.9C43.7,374.7,43.7,400,43.7,400z"/>
		<linearGradient id="SVGID_51_" gradientUnits="userSpaceOnUse" x1="66.7602" y1="321.7598" x2="71.7523" y2="321.7598">
			<stop  offset="0" style="stop-color:#006973"/>
			<stop  offset="1" style="stop-color:#18898E"/>
		</linearGradient>
		<path class="st64" d="M71.8,323.3c0,0-0.5,0.4-1.2,1.1c-1.2-1.3-2.8-3.4-3.8-4.6c0.5-0.4,0.7-0.6,0.7-0.6
			C69.6,319.5,71.8,323.3,71.8,323.3z"/>
		<linearGradient id="SVGID_52_" gradientUnits="userSpaceOnUse" x1="20.3085" y1="309.6615" x2="31.3516" y2="309.6615">
			<stop  offset="0" style="stop-color:#006973"/>
			<stop  offset="1" style="stop-color:#18898E"/>
		</linearGradient>
		<path class="st65" d="M31.4,311.2c-2.5,1.3-8.6,0.6-10.1-0.3c-1.5-1-0.8-3.4-0.8-3.4C21.2,307.3,26.6,309.2,31.4,311.2z"/>
		<path class="st61" d="M35.2,288.3l-1,0.2c0.1-0.2,0.1-0.4,0.1-0.4l-7-0.9l-6,15.2v5.1c1,2.5,9.1,3.2,9.3,3.3
			c0.2,0.1,0.1-5,0.3-5.5c0,0,0,0,0,0c3.8,0,5.9-1.3,5.9-7.8C36.8,288.6,35.2,288.3,35.2,288.3z"/>
		<path class="st4" d="M33.1,299.9c0,0-1.1,0.9-1.5,0.3c-0.4-0.6-1.1-2.5-2.4-1.8c-1.3,0.6-3.8,7.2-4.9,7.6c-1.1,0.5-2,1.5-4-0.5
			c-2.2-2.1-5.3-6.4-5.3-13.6c0.1-7.5,4.4-9.9,8.4-10c9.7-0.2,13,2.8,12.9,5.4c-0.2,3.1-3.7,2.7-3.7,2.7s1.7,2.7,1.3,3.8
			C33.4,294.8,32,296.4,33.1,299.9z"/>
	</g>
</g>
</svg>
