<?xml version="1.0" encoding="utf-8"?>
<!-- Generator: Adobe Illustrator 24.0.2, SVG Export Plug-In . SVG Version: 6.00 Build 0)  -->
<svg version="1.1" id="illustration" xmlns="http://www.w3.org/2000/svg" xmlns:xlink="http://www.w3.org/1999/xlink" x="0px"
	 y="0px" viewBox="0 0 1656.3 1365.7" style="enable-background:new 0 0 1656.3 1365.7;" xml:space="preserve">
<style type="text/css">
	.st0{opacity:0.4;fill:#D9E2FF;}
	.st1{fill:#8AA4F8;}
	.st2{fill:#4F75E2;}
	.st3{fill:#D9E2FF;}
	.st4{fill:#668AEB;}
	.st5{fill:#FEFEFE;}
	.st6{fill:#B5C6FE;}
	.st7{fill:#7C99EA;}
	.st8{fill:#002CA7;}
	.st9{fill:#8498E5;}
	.st10{opacity:0.5;fill:#9EAEE9;}
	.st11{fill:#001E68;}
	.st12{fill:#012385;}
	.st13{fill:none;stroke:#FFFFFF;stroke-width:0.75;stroke-linecap:round;stroke-linejoin:round;stroke-miterlimit:10;}
	.st14{fill:#FFFFFF;}
	.st15{fill:#144CCD;}
	.st16{fill:#F2F2F2;}
	.st17{fill:#D7D9E1;}
	.st18{opacity:0.5;fill:#D9E2FF;}
	.st19{fill:#D2D4DB;}
	.st20{fill:#9EAEE9;}
</style>
<g id="XMLID_20_">
	<path id="XMLID_33_" class="st0" d="M1337.6,884.8c46.1-127.5,43.1-270,8.5-399.8c-34.3-128.9-104.8-255.3-225.7-320.6
		c-14.7-8-30-14.7-45.6-20.1c-7.4-4.2-14.8-8-21.7-11.4c-53.9-26.5-116.1-33.8-173.4-13.6c-55.6,19.6-94.6,60.7-118.5,113.6
		C738.8,282.4,728,339.1,695,383.3c-39.5,52.8-106.5,68.7-167.9,80.1c-72.6,13.5-145.1,25.7-212.7,57.1
		c-56.8,26.3-108.2,66.2-141.3,120c-31.8,51.7-41.8,114.6-33.5,174.3c18.1,130.4,111.9,237.5,212.3,316.1
		c97.2,76.1,212.8,128.8,337.3,134.1c71.6,3,143.2-9.3,212.9-24.7c72.7-16,145.3-37.9,210-75.5
		C1218.5,1102.9,1296,999.6,1337.6,884.8z"/>
	<path id="XMLID_35_" class="st0" d="M501.4,1152.1c-115.8-70.6-202.5-183.6-256.8-306.6c-53.9-122-77.9-264.8-24.5-391.3
		c6.5-15.4,14.2-30.2,23-44.2c3.2-7.9,6.6-15.5,9.8-22.4c25.5-54.4,69.5-99,126.8-119.1c55.6-19.5,111.7-11.8,163.5,14.5
		c48.5,24.6,92.4,62,145.8,75.9c63.8,16.5,126-13.1,181.1-42.6c65.1-34.9,129.3-70.7,201.6-88.5c60.8-15,125.9-16,185.3,5.2
		c57.2,20.4,104.3,63.3,135.2,115c67.5,113,61.3,255.3,32.2,379.4C1396.2,847.5,1339,961,1245.1,1043
		c-53.9,47.1-117.6,82.3-181.5,113.9c-66.7,33-137,61.3-211,72.5C730.8,1247.8,605.7,1215.7,501.4,1152.1z"/>
</g>
<g id="XMLID_27_">
	<g id="XMLID_32_">
		<polygon id="XMLID_42_" class="st1" points="1463.7,846.2 1463.7,875.6 1413.8,871.9 		"/>
		<g id="XMLID_26_">
			<polygon id="XMLID_34_" class="st1" points="303.1,922.4 303.1,950.2 516.1,1072 540.4,1058.2 			"/>
			<polygon id="XMLID_51_" class="st1" points="1053.2,1083.8 1015.7,1063.1 706.1,1249.1 454.8,1107 454.8,1134.8 706.1,1278.6 
				1015.8,1090.7 1053.2,1111.7 1463.7,875.6 1438.3,860.9 			"/>
			<polygon id="XMLID_1097_" class="st2" points="1365,790.1 1385.6,778.2 1385.8,748.7 1339.4,775.6 			"/>
			<polygon id="XMLID_1532_" class="st1" points="296,801.2 296,829 380.2,877.4 404.2,863.4 			"/>
			<polygon id="XMLID_998_" class="st3" points="1365,790.1 1339.4,775.6 1385.8,748.7 1046.7,557.8 1000.5,585 827.9,483.6 
				294.5,800.3 296,801.2 404.2,863.4 380.2,877.4 303.1,922.4 540.4,1058.2 516.1,1072 454.8,1107 706.1,1249.1 1015.7,1063.1 
				1053.2,1083.8 1438.3,860.9 1463.7,846.2 			"/>
		</g>
		<polygon id="XMLID_25_" class="st2" points="1015.7,1063.1 1015.8,1090.7 1053.2,1111.7 1053.2,1083.8 		"/>
		<polygon id="XMLID_28_" class="st4" points="706.1,1249.1 706.1,1278.6 1015.8,1090.7 1015.7,1063.1 		"/>
	</g>
	<polygon id="XMLID_1541_" class="st5" points="1357.6,785.8 1173.7,895.7 997.7,793.6 1144.4,708.5 1145.1,671.2 1026.9,739.7 
		802.2,609.3 802.2,646.3 995,758.2 965.9,775.1 927.5,752.8 927.5,789.8 934,793.5 891.7,818 923.8,836.4 965.8,812 1142.4,914.4 
		642.4,1213.4 675.7,1230.9 1389.4,804 	"/>
</g>
<g id="XMLID_61_">
	<g id="XMLID_22_">
		<g id="XMLID_1613_">
			<polygon id="XMLID_1886_" class="st6" points="634.3,621.2 718.3,569.7 816.4,627.8 731.9,678 			"/>
			<polygon id="XMLID_1883_" class="st7" points="634.3,658.9 731.9,714.4 731.9,678 634.3,621.2 			"/>
			<polygon id="XMLID_1880_" class="st8" points="731.9,678 816.4,627.8 816.4,665.1 731.9,714.4 			"/>
			<polygon id="XMLID_1877_" class="st4" points="646.1,621.2 732,670.1 731.5,264.8 645.5,214.9 			"/>
			<polygon id="XMLID_1874_" class="st8" points="731.5,264.8 804.1,223 804.1,628.3 732,670.1 			"/>
			<polygon id="XMLID_1871_" class="st9" points="645.5,214.9 717.5,174.5 804.1,223 731.5,264.8 649.8,217.4 			"/>
			<g id="XMLID_1864_">
				<polygon id="XMLID_1868_" class="st6" points="682.1,288.4 653.5,272 653.5,230.7 682.1,247 				"/>
				<polygon id="XMLID_1865_" class="st8" points="657.8,269.6 653.5,272 653.5,230.7 657.8,233.1 				"/>
			</g>
			<g id="XMLID_1857_">
				<polygon id="XMLID_1861_" class="st6" points="682.1,339.1 653.5,322.7 653.5,281.4 682.1,297.7 				"/>
				<polygon id="XMLID_1858_" class="st8" points="657.8,320.3 653.5,322.7 653.5,281.4 657.8,283.8 				"/>
			</g>
			<g id="XMLID_1850_">
				<polygon id="XMLID_1854_" class="st6" points="682.1,389.8 653.5,373.4 653.5,332.1 682.1,348.4 				"/>
				<polygon id="XMLID_1851_" class="st8" points="657.8,371 653.5,373.4 653.5,332.1 657.8,334.5 				"/>
			</g>
			<g id="XMLID_1843_">
				<polygon id="XMLID_1847_" class="st6" points="682.1,440.5 653.5,424.1 653.5,382.8 682.1,399.1 				"/>
				<polygon id="XMLID_1844_" class="st8" points="657.8,421.6 653.5,424.1 653.5,382.8 657.8,385.2 				"/>
			</g>
			<g id="XMLID_1836_">
				<polygon id="XMLID_1840_" class="st6" points="701.3,299.1 689.1,292 689.1,250.7 701.3,257.7 				"/>
				<polygon id="XMLID_1837_" class="st8" points="693.4,289.6 689.1,292 689.1,250.7 693.4,253.1 				"/>
			</g>
			<g id="XMLID_1829_">
				<polygon id="XMLID_1833_" class="st6" points="701.3,349.8 689.1,342.7 689.1,301.4 701.3,308.4 				"/>
				<polygon id="XMLID_1830_" class="st8" points="693.4,340.3 689.1,342.7 689.1,301.4 693.4,303.8 				"/>
			</g>
			<g id="XMLID_1822_">
				<polygon id="XMLID_1826_" class="st6" points="697.8,398.8 685.6,391.8 685.6,350.4 697.8,357.4 				"/>
				<polygon id="XMLID_1823_" class="st8" points="689.9,389.3 685.6,391.8 685.6,350.4 689.9,352.9 				"/>
			</g>
			<g id="XMLID_1815_">
				<polygon id="XMLID_1819_" class="st6" points="697.8,449.5 685.6,442.5 685.6,401.1 697.8,408.1 				"/>
				<polygon id="XMLID_1816_" class="st8" points="689.9,440 685.6,442.5 685.6,401.1 689.9,403.6 				"/>
			</g>
			<g id="XMLID_1808_">
				<polygon id="XMLID_1812_" class="st6" points="682.1,492.1 653.5,475.7 653.5,434.3 682.1,450.7 				"/>
				<polygon id="XMLID_1809_" class="st8" points="657.8,473.2 653.5,475.7 653.5,434.3 657.8,436.8 				"/>
			</g>
			<g id="XMLID_1801_">
				<polygon id="XMLID_1805_" class="st6" points="697.8,501.1 685.6,494 685.6,452.7 697.8,459.7 				"/>
				<polygon id="XMLID_1802_" class="st8" points="689.9,491.6 685.6,494 685.6,452.7 689.9,455.1 				"/>
			</g>
			<g id="XMLID_1794_">
				<polygon id="XMLID_1798_" class="st6" points="682.1,542.1 653.5,525.7 653.5,484.4 682.1,500.7 				"/>
				<polygon id="XMLID_1795_" class="st8" points="657.8,523.3 653.5,525.7 653.5,484.4 657.8,486.8 				"/>
			</g>
			<g id="XMLID_1787_">
				<polygon id="XMLID_1791_" class="st6" points="697.8,551.1 685.6,544.1 685.6,502.7 697.8,509.7 				"/>
				<polygon id="XMLID_1788_" class="st8" points="689.9,541.6 685.6,544.1 685.6,502.7 689.9,505.2 				"/>
			</g>
			<g id="XMLID_1780_">
				<polygon id="XMLID_1784_" class="st6" points="682.1,592.1 653.5,575.7 653.5,534.4 682.1,550.8 				"/>
				<polygon id="XMLID_1781_" class="st8" points="657.8,573.3 653.5,575.7 653.5,534.4 657.8,536.9 				"/>
			</g>
			<g id="XMLID_1746_">
				<polygon id="XMLID_1777_" class="st6" points="697.8,601.1 685.6,594.1 685.6,552.7 697.8,559.8 				"/>
				<polygon id="XMLID_1753_" class="st8" points="689.9,591.6 685.6,594.1 685.6,552.7 689.9,555.2 				"/>
			</g>
			<g id="XMLID_1710_">
				<polygon id="XMLID_1714_" class="st10" points="743.6,311.9 755.5,305.3 755.5,263.9 743.6,270.5 				"/>
				<polygon id="XMLID_1711_" class="st11" points="755.5,305.3 759.7,305.2 759.7,263.9 755.5,263.9 				"/>
			</g>
			<g id="XMLID_1688_">
				<polygon id="XMLID_1692_" class="st10" points="743.6,371.9 755.5,365.3 755.5,323.9 743.6,330.6 				"/>
				<polygon id="XMLID_1689_" class="st11" points="755.5,365.3 759.7,365.3 759.7,324 755.5,324 				"/>
			</g>
			<g id="XMLID_1681_">
				<polygon id="XMLID_1685_" class="st10" points="743.6,434.6 755.5,428 755.5,386.6 743.6,393.3 				"/>
				<polygon id="XMLID_1682_" class="st11" points="755.5,428 759.7,428 759.7,386.7 755.5,386.7 				"/>
			</g>
			<g id="XMLID_1673_">
				<polygon id="XMLID_1677_" class="st10" points="743.6,497.3 755.5,490.7 755.5,449.3 743.6,456 				"/>
				<polygon id="XMLID_1674_" class="st11" points="755.5,490.7 759.7,490.7 759.7,449.4 755.5,449.4 				"/>
			</g>
			<g id="XMLID_1666_">
				<polygon id="XMLID_1670_" class="st10" points="776.5,293.4 788.4,286.8 788.4,245.4 776.5,252.1 				"/>
				<polygon id="XMLID_1667_" class="st11" points="788.4,286.8 792.6,286.8 792.6,245.5 788.4,245.5 				"/>
			</g>
			<g id="XMLID_1659_">
				<polygon id="XMLID_1663_" class="st10" points="776.5,353.5 788.4,346.8 788.4,305.5 776.5,312.1 				"/>
				<polygon id="XMLID_1660_" class="st11" points="788.4,346.8 792.6,346.8 792.6,305.5 788.4,305.5 				"/>
			</g>
			<g id="XMLID_1652_">
				<polygon id="XMLID_1656_" class="st10" points="776.5,416.2 788.4,409.5 788.4,368.2 776.5,374.8 				"/>
				<polygon id="XMLID_1653_" class="st11" points="788.4,409.5 792.6,409.5 792.6,368.2 788.4,368.2 				"/>
			</g>
			<g id="XMLID_1645_">
				<polygon id="XMLID_1649_" class="st10" points="776.5,478.9 788.4,472.2 788.4,430.9 776.5,437.5 				"/>
				<polygon id="XMLID_1646_" class="st11" points="788.4,472.2 792.6,472.2 792.6,430.9 788.4,430.9 				"/>
			</g>
			<g id="XMLID_1638_">
				<polygon id="XMLID_1642_" class="st10" points="743.6,558.7 755.5,552.1 755.5,510.7 743.6,517.3 				"/>
				<polygon id="XMLID_1639_" class="st11" points="755.5,552.1 759.7,552 759.7,510.7 755.5,510.7 				"/>
			</g>
			<g id="XMLID_1631_">
				<polygon id="XMLID_1635_" class="st10" points="776.5,540.2 788.4,533.6 788.4,492.2 776.5,498.9 				"/>
				<polygon id="XMLID_1632_" class="st11" points="788.4,533.6 792.6,533.6 792.6,492.3 788.4,492.3 				"/>
			</g>
			<g id="XMLID_1624_">
				<polygon id="XMLID_1628_" class="st10" points="743.6,617.4 755.5,610.8 755.5,569.4 743.6,576 				"/>
				<polygon id="XMLID_1625_" class="st11" points="755.5,610.8 759.7,610.7 759.7,569.4 755.5,569.4 				"/>
			</g>
			<g id="XMLID_1617_">
				<polygon id="XMLID_1621_" class="st10" points="776.5,598.9 788.4,592.3 788.4,550.9 776.5,557.6 				"/>
				<polygon id="XMLID_1618_" class="st11" points="788.4,592.3 792.6,592.3 792.6,551 788.4,550.9 				"/>
			</g>
			<polygon id="XMLID_1678_" class="st6" points="634.3,179.3 721.8,129.8 816.4,179.3 732,229.5 			"/>
			<polygon id="XMLID_818_" class="st7" points="634.3,210.4 731.9,265.9 731.9,229.5 634.3,179.3 			"/>
			<polygon id="XMLID_608_" class="st4" points="731.9,229.5 816.4,179.3 816.4,216.6 731.9,265.9 			"/>
		</g>
		<polygon id="XMLID_987_" class="st4" points="726.8,141.7 666.7,175 675.2,179.7 725.9,151.4 780.8,183.1 790.4,178 790.4,175.7 
					"/>
	</g>
	<g id="XMLID_31_">
		<path id="XMLID_105_" class="st12" d="M756.2,27.7h-58.5c-7.5,0-13.6,6.1-13.6,13.6v58.5c0,7.5,6.1,13.6,13.6,13.6h24.2l3.4,4.9
			v52.8c0,0.9,0.7,1.7,1.7,1.7c0.9,0,1.7-0.7,1.7-1.7v-52.5l3.8-5.2h23.8c7.5,0,13.6-6.1,13.6-13.6V41.3
			C769.8,33.8,763.7,27.7,756.2,27.7z"/>
		<g id="XMLID_16_">
			<polyline id="XMLID_13_" class="st13" points="696.1,79.3 713.3,67.2 728.9,81.5 751,55.2 			"/>
			<path id="XMLID_7_" class="st14" d="M718.9,67.2c0,3.1-2.5,5.6-5.6,5.6c-3.1,0-5.6-2.5-5.6-5.6s2.5-5.6,5.6-5.6
				C716.4,61.7,718.9,64.1,718.9,67.2z"/>
			<path id="XMLID_23_" class="st14" d="M734.3,80.2c0,3.1-2.5,5.6-5.6,5.6c-3.1,0-5.6-2.5-5.6-5.6c0-3.1,2.5-5.6,5.6-5.6
				C731.8,74.6,734.3,77.1,734.3,80.2z"/>
			<path id="XMLID_30_" class="st14" d="M757.8,53.2c0,3.1-2.5,5.6-5.6,5.6c-3.1,0-5.6-2.5-5.6-5.6c0-3.1,2.5-5.6,5.6-5.6
				C755.3,47.7,757.8,50.1,757.8,53.2z"/>
		</g>
	</g>
</g>
<g id="XMLID_43_">
	<polygon id="XMLID_1568_" class="st6" points="330.3,801.8 588,657.4 627.5,678.2 370.9,824.1 335,804.6 	"/>
	<g id="XMLID_1569_">
		<rect id="XMLID_1573_" x="571.7" y="673.5" class="st15" width="2.7" height="17"/>
		<path id="XMLID_1570_" class="st4" d="M586.7,662.7c0,7.5-6.1,13.6-13.6,13.6c-7.5,0-13.6-6.1-13.6-13.6c0-7.5,6.1-13.6,13.6-13.6
			C580.6,649.1,586.7,655.2,586.7,662.7z"/>
	</g>
	<g id="XMLID_1009_">
		<rect id="XMLID_1019_" x="387.5" y="777.8" class="st15" width="2.7" height="17"/>
		<circle id="XMLID_1011_" class="st4" cx="388.8" cy="767.1" r="13.6"/>
	</g>
	<g id="XMLID_1038_">
		<rect id="XMLID_1593_" x="360.1" y="795.3" class="st15" width="2.7" height="17"/>
		<path id="XMLID_1590_" class="st4" d="M375.1,784.5c0,7.5-6.1,13.6-13.6,13.6c-7.5,0-13.6-6.1-13.6-13.6S354,771,361.5,771
			C369,771,375.1,777,375.1,784.5z"/>
	</g>
</g>
<g id="XMLID_79_">
	<g id="XMLID_604_">
		<g id="XMLID_780_">
			<polygon id="XMLID_958_" class="st4" points="797.7,769.3 891.5,822.6 890.9,496.7 797.1,442.2 			"/>
			<polygon id="XMLID_954_" class="st8" points="890.9,496.7 970.2,451.1 970.2,777 891.5,822.6 			"/>
			<polygon id="XMLID_951_" class="st6" points="797.1,442.2 875.6,398.1 970.2,451.1 890.9,496.7 801.8,445 			"/>
			<g id="XMLID_941_">
				<polygon id="XMLID_945_" class="st6" points="823.2,514.5 805.8,504.6 805.8,459.4 823.2,469.3 				"/>
				<polygon id="XMLID_942_" class="st8" points="810.5,501.9 805.8,504.6 805.8,459.4 810.5,462.1 				"/>
			</g>
			<g id="XMLID_919_">
				<polygon id="XMLID_923_" class="st6" points="823.2,581.5 805.8,571.6 805.8,526.4 823.2,536.3 				"/>
				<polygon id="XMLID_920_" class="st8" points="810.5,568.9 805.8,571.6 805.8,526.4 810.5,529.1 				"/>
			</g>
			<g id="XMLID_912_">
				<polygon id="XMLID_916_" class="st6" points="823.2,648.5 805.8,638.6 805.8,593.4 823.2,603.3 				"/>
				<polygon id="XMLID_913_" class="st8" points="810.5,635.9 805.8,638.6 805.8,593.4 810.5,596.1 				"/>
			</g>
			<g id="XMLID_902_">
				<polygon id="XMLID_908_" class="st6" points="823.2,715.5 805.8,705.6 805.8,660.4 823.2,670.3 				"/>
				<polygon id="XMLID_903_" class="st8" points="810.5,702.9 805.8,705.6 805.8,660.4 810.5,663.1 				"/>
			</g>
			<g id="XMLID_857_">
				<polygon id="XMLID_861_" class="st10" points="904.1,548.1 917.1,540.9 917.1,495.7 904.1,503 				"/>
				<polygon id="XMLID_858_" class="st11" points="917.1,540.9 921.8,540.8 921.8,495.7 917.1,495.7 				"/>
			</g>
			<g id="XMLID_850_">
				<polygon id="XMLID_854_" class="st10" points="904.1,616.5 917.1,609.3 917.1,564.2 904.1,571.4 				"/>
				<polygon id="XMLID_851_" class="st11" points="917.1,609.3 921.8,609.3 921.8,564.2 917.1,564.2 				"/>
			</g>
			<g id="XMLID_843_">
				<polygon id="XMLID_847_" class="st10" points="904.1,685 917.1,677.8 917.1,632.6 904.1,639.9 				"/>
				<polygon id="XMLID_844_" class="st11" points="917.1,677.8 921.8,677.7 921.8,632.6 917.1,632.6 				"/>
			</g>
			<g id="XMLID_836_">
				<polygon id="XMLID_840_" class="st10" points="904.1,753.5 917.1,746.2 917.1,701.1 904.1,708.3 				"/>
				<polygon id="XMLID_837_" class="st11" points="917.1,746.2 921.8,746.2 921.8,701.1 917.1,701.1 				"/>
			</g>
			<g id="XMLID_921_">
				<polygon id="XMLID_943_" class="st10" points="940.1,527.9 953,520.7 953,475.5 940.1,482.8 				"/>
				<polygon id="XMLID_922_" class="st11" points="953.1,520.7 957.7,520.6 957.7,475.6 953.1,475.6 				"/>
			</g>
			<g id="XMLID_905_">
				<polygon id="XMLID_915_" class="st10" points="940.1,596.4 953,589.1 953,544 940.1,551.2 				"/>
				<polygon id="XMLID_910_" class="st11" points="953.1,589.1 957.7,589.1 957.7,544 953.1,544 				"/>
			</g>
			<g id="XMLID_884_">
				<polygon id="XMLID_900_" class="st10" points="940.1,664.8 953,657.6 953,612.4 940.1,619.7 				"/>
				<polygon id="XMLID_896_" class="st11" points="953.1,657.6 957.7,657.5 957.7,612.5 953.1,612.5 				"/>
			</g>
			<g id="XMLID_809_">
				<polygon id="XMLID_875_" class="st10" points="940.1,733.3 953,726 953,680.9 940.1,688.1 				"/>
				<polygon id="XMLID_815_" class="st11" points="953.1,726 957.7,726 957.7,680.9 953.1,680.9 				"/>
			</g>
		</g>
		<g id="XMLID_600_">
			<polygon id="XMLID_784_" class="st4" points="890.4,436.7 845.9,410 845.9,456.8 890.4,483 			"/>
			<polygon id="XMLID_783_" class="st6" points="845.9,410 892.2,383.5 937.1,409.6 890.4,436.7 			"/>
			<polygon id="XMLID_602_" class="st8" points="890.4,436.7 937.1,409.6 937.1,456.7 890.4,483 			"/>
		</g>
		<g id="XMLID_754_">
			<polygon id="XMLID_881_" class="st4" points="890.7,404.5 866.6,390.1 866.6,415.4 890.7,429.6 			"/>
			<polygon id="XMLID_874_" class="st6" points="866.6,390.1 891.7,375.7 916,389.8 890.7,404.5 			"/>
			<polygon id="XMLID_791_" class="st8" points="890.7,404.5 916,389.8 916,415.3 890.7,429.6 			"/>
		</g>
		<g id="XMLID_830_">
			<path id="XMLID_961_" class="st4" d="M897.8,392c0,2.3-3.3,2.9-7.3,1.5c-4-1.5-7.3-4.5-7.3-6.7c0-2.3,3.3-2.9,7.3-1.5
				C894.6,386.8,897.8,389.8,897.8,392z"/>
			<polygon id="XMLID_959_" class="st4" points="897.8,392.2 883.3,386.9 883.3,366.7 897.8,371.9 			"/>
			<path id="XMLID_833_" class="st8" d="M897.8,372.2c0,2.3-3.3,2.9-7.3,1.5c-4-1.5-7.3-4.5-7.3-6.7c0-2.3,3.3-2.9,7.3-1.5
				C894.6,366.9,897.8,369.9,897.8,372.2z"/>
		</g>
		<g id="XMLID_829_">
			<path id="XMLID_824_" class="st4" d="M894.3,370.3c0,1-1.5,1.3-3.3,0.7c-1.8-0.7-3.3-2-3.3-3s1.5-1.3,3.3-0.7
				C892.8,367.9,894.3,369.3,894.3,370.3z"/>
			<polygon id="XMLID_819_" class="st4" points="894.3,370.3 887.8,368 887.8,301.5 894.3,303.8 			"/>
			<path id="XMLID_826_" class="st8" d="M894.3,303.9c0,1-1.5,1.3-3.3,0.7c-1.8-0.7-3.3-2-3.3-3s1.5-1.3,3.3-0.7
				C892.8,301.5,894.3,302.9,894.3,303.9z"/>
		</g>
	</g>
	<g id="XMLID_14_">
		<path id="XMLID_94_" class="st12" d="M919.1,154.8h-58.5c-7.5,0-13.6,6.1-13.6,13.6v58.5c0,7.5,6.1,13.6,13.6,13.6h24.2l3.4,4.9
			v32.5c0,0.9,0.7,1.7,1.7,1.7c0.9,0,1.7-0.7,1.7-1.7v-32.2l3.8-5.2h23.8c7.5,0,13.6-6.1,13.6-13.6v-58.5
			C932.8,160.9,926.7,154.8,919.1,154.8z"/>
		<g id="XMLID_48_">
			<g>
				<path id="XMLID_504_" class="st14" d="M889.9,213.2c-2.1,0-3.9,1.7-3.9,3.9c0,2.1,1.7,3.9,3.9,3.9c2.1,0,3.9-1.7,3.9-3.9
					C893.8,214.9,892,213.2,889.9,213.2z"/>
				<g id="XMLID_498_">
					<path id="XMLID_503_" class="st14" d="M889.9,203.4c-3.7,0-7,1.5-9.5,3.9c-1,0.9-0.9,2.5,0,3.5l0,0c0.9,1,2.5,1.1,3.5,0.1
						c1.5-1.5,3.7-2.5,6-2.5c2.3,0,4.5,1,6,2.5c1,1,2.6,0.9,3.5-0.1l0,0c0.9-1,0.9-2.5,0-3.5C896.9,204.9,893.6,203.4,889.9,203.4z"
						/>
					<path id="XMLID_502_" class="st14" d="M889.9,178.4c-10.3,0-19.7,4.1-26.6,10.7c-1,0.9-1,2.5,0,3.5l0.2,0.3
						c0.9,1,2.5,1.1,3.5,0.1c6-5.7,14.1-9.2,22.9-9.2c8.9,0,17,3.5,23,9.2c1,0.9,2.6,0.9,3.5-0.1l0.2-0.3c0.9-1,0.9-2.6,0-3.5
						C909.6,182.5,900.2,178.4,889.9,178.4z"/>
					<path id="XMLID_499_" class="st14" d="M889.9,192c-6.6,0-12.6,2.6-17.1,6.8c-1.1,1-1.2,2.7-0.1,3.8l0,0c1,1.1,2.7,1.1,3.8,0.1
						c3.5-3.3,8.3-5.3,13.5-5.3c5.2,0,9.9,2,13.5,5.3c1.1,1,2.8,1,3.8-0.1l0,0c1-1.1,1-2.8-0.1-3.8C902.5,194.6,896.5,192,889.9,192
						z"/>
				</g>
			</g>
		</g>
	</g>
</g>
<g id="XMLID_778_">
	<g id="XMLID_771_">
		<polygon id="XMLID_898_" class="st16" points="697.4,848.8 760.8,902.1 760.4,434.7 697.1,399.4 		"/>
		<polygon id="XMLID_895_" class="st17" points="760.4,434.7 826.2,394.7 826.2,866.1 760.8,902.1 		"/>
		<polygon id="XMLID_892_" class="st14" points="697.1,399.4 765.7,359.9 826.2,394.7 760.4,434.7 		"/>
	</g>
	<g id="XMLID_623_">
		<g>
			<g id="XMLID_677_">
				<g id="XMLID_678_">
					<polygon class="st6" points="709,891.7 704.6,891.7 704.6,422.8 709,425.2 					"/>
				</g>
			</g>
			<g id="XMLID_673_">
				<g id="XMLID_674_">
					<polygon class="st6" points="716.1,895.7 711.7,895.6 711.7,426.6 716.1,429.2 					"/>
				</g>
			</g>
			<g id="XMLID_670_">
				<g id="XMLID_671_">
					<polygon class="st6" points="723.2,899.8 718.8,899.7 718.8,430.7 723.2,433.3 					"/>
				</g>
			</g>
			<g id="XMLID_666_">
				<g id="XMLID_667_">
					<polygon class="st6" points="730.3,903.9 725.9,903.8 725.9,434.8 730.3,437.4 					"/>
				</g>
			</g>
			<g id="XMLID_663_">
				<g id="XMLID_664_">
					<polygon class="st6" points="737.4,908 733,907.8 733,438.9 737.4,441.4 					"/>
				</g>
			</g>
			<g id="XMLID_659_">
				<g id="XMLID_660_">
					<polygon class="st6" points="744.5,912 740.1,911.9 740.1,443 744.5,445.5 					"/>
				</g>
			</g>
			<g id="XMLID_656_">
				<g id="XMLID_657_">
					<polygon class="st6" points="751.6,916.1 747.2,916 747.2,447 751.6,449.6 					"/>
				</g>
			</g>
		</g>
	</g>
	<g id="XMLID_792_">
		<g>
			<g id="XMLID_702_">
				<polygon id="XMLID_703_" class="st6" points="812.8,891.4 817.1,891.4 817.1,422.4 812.8,424.8 				"/>
			</g>
			<g id="XMLID_699_">
				<polygon id="XMLID_700_" class="st6" points="805.7,895.4 810,895.2 810,426.3 805.7,428.8 				"/>
			</g>
			<g id="XMLID_695_">
				<polygon id="XMLID_696_" class="st6" points="798.6,899.4 802.9,899.3 802.9,430.4 798.6,432.9 				"/>
			</g>
			<g id="XMLID_692_">
				<polygon id="XMLID_693_" class="st6" points="791.5,903.5 795.8,903.4 795.8,434.4 791.5,437 				"/>
			</g>
			<g id="XMLID_688_">
				<polygon id="XMLID_689_" class="st6" points="784.4,907.6 788.7,907.5 788.7,438.5 784.4,441.1 				"/>
			</g>
			<g id="XMLID_685_">
				<polygon id="XMLID_686_" class="st6" points="777.3,911.7 781.6,911.6 781.6,442.6 777.3,445.1 				"/>
			</g>
			<g id="XMLID_681_">
				<polygon id="XMLID_682_" class="st6" points="770.2,915.8 774.5,915.6 774.5,446.7 770.2,449.2 				"/>
			</g>
		</g>
	</g>
</g>
<g id="XMLID_64_">
	<g id="XMLID_60_">
		<g id="XMLID_45_">
			<polygon id="XMLID_266_" class="st6" points="340.4,922.8 598.1,778.4 752.8,865.2 496.1,1011.2 345.1,925.6 			"/>
			<g id="XMLID_1005_">
				<rect id="XMLID_1012_" x="378" y="906" class="st15" width="2.7" height="17"/>
				<circle id="XMLID_1008_" class="st4" cx="379.4" cy="895.2" r="13.6"/>
			</g>
		</g>
		<g id="XMLID_994_">
			<polygon id="XMLID_1446_" class="st6" points="395.1,901 479.1,849.5 577.2,907.6 492.7,957.9 			"/>
			<polygon id="XMLID_1301_" class="st7" points="395.1,938.7 492.7,994.2 492.7,957.9 395.1,901 			"/>
			<polygon id="XMLID_1183_" class="st8" points="492.7,957.9 577.2,907.6 577.2,944.9 492.7,994.2 			"/>
			<polygon id="XMLID_1226_" class="st4" points="406.9,901.1 492.8,949.9 492.3,544.7 406.3,494.7 			"/>
			<polygon id="XMLID_1223_" class="st8" points="492.3,544.7 564.9,502.8 564.9,908.1 492.8,949.9 			"/>
			<polygon id="XMLID_1220_" class="st6" points="406.3,494.7 478.3,454.3 564.9,502.8 492.3,544.7 410.6,497.2 			"/>
			<g id="XMLID_1213_">
				<polygon id="XMLID_1217_" class="st6" points="442.9,568.2 414.3,551.9 414.3,510.5 442.9,526.9 				"/>
				<polygon id="XMLID_1214_" class="st8" points="418.6,549.4 414.3,551.9 414.3,510.5 418.6,513 				"/>
			</g>
			<g id="XMLID_1206_">
				<polygon id="XMLID_1210_" class="st6" points="442.9,618.9 414.3,602.6 414.3,561.2 442.9,577.6 				"/>
				<polygon id="XMLID_1207_" class="st8" points="418.6,600.1 414.3,602.6 414.3,561.2 418.6,563.7 				"/>
			</g>
			<g id="XMLID_1198_">
				<polygon id="XMLID_1203_" class="st6" points="442.9,669.6 414.3,653.2 414.3,611.9 442.9,628.2 				"/>
				<polygon id="XMLID_1199_" class="st8" points="418.6,650.8 414.3,653.2 414.3,611.9 418.6,614.3 				"/>
			</g>
			<g id="XMLID_1191_">
				<polygon id="XMLID_1195_" class="st6" points="442.9,720.3 414.3,703.9 414.3,662.6 442.9,678.9 				"/>
				<polygon id="XMLID_1192_" class="st8" points="418.6,701.5 414.3,703.9 414.3,662.6 418.6,665 				"/>
			</g>
			<g id="XMLID_1186_">
				<polygon id="XMLID_1194_" class="st6" points="462,578.9 449.9,571.9 449.9,530.5 462,537.5 				"/>
				<polygon id="XMLID_1187_" class="st8" points="454.2,569.4 449.9,571.9 449.9,530.5 454.2,533 				"/>
			</g>
			<g id="XMLID_1172_">
				<polygon id="XMLID_1179_" class="st6" points="462,629.6 449.9,622.6 449.9,581.2 462,588.2 				"/>
				<polygon id="XMLID_1174_" class="st8" points="454.2,620.1 449.9,622.6 449.9,581.2 454.2,583.7 				"/>
			</g>
			<g id="XMLID_1128_">
				<polygon id="XMLID_1167_" class="st6" points="458.5,678.6 446.4,671.6 446.4,630.2 458.5,637.3 				"/>
				<polygon id="XMLID_1132_" class="st8" points="450.7,669.1 446.4,671.6 446.4,630.2 450.7,632.7 				"/>
			</g>
			<g id="XMLID_991_">
				<polygon id="XMLID_1096_" class="st6" points="458.5,729.3 446.4,722.3 446.4,680.9 458.5,687.9 				"/>
				<polygon id="XMLID_997_" class="st8" points="450.7,719.8 446.4,722.3 446.4,680.9 450.7,683.4 				"/>
			</g>
			<g id="XMLID_1108_">
				<polygon id="XMLID_1168_" class="st6" points="442.9,771.9 414.3,755.5 414.3,714.2 442.9,730.5 				"/>
				<polygon id="XMLID_1114_" class="st8" points="418.6,753.1 414.3,755.5 414.3,714.2 418.6,716.6 				"/>
			</g>
			<g id="XMLID_995_">
				<polygon id="XMLID_1099_" class="st6" points="458.5,780.9 446.4,773.9 446.4,732.5 458.5,739.5 				"/>
				<polygon id="XMLID_1001_" class="st8" points="450.7,771.4 446.4,773.9 446.4,732.5 450.7,735 				"/>
			</g>
			<g id="XMLID_1456_">
				<polygon id="XMLID_1464_" class="st6" points="442.9,821.9 414.3,805.5 414.3,764.2 442.9,780.5 				"/>
				<polygon id="XMLID_1461_" class="st8" points="418.6,803.1 414.3,805.5 414.3,764.2 418.6,766.7 				"/>
			</g>
			<g id="XMLID_1298_">
				<polygon id="XMLID_1447_" class="st6" points="458.5,830.9 446.4,823.9 446.4,782.5 458.5,789.6 				"/>
				<polygon id="XMLID_1300_" class="st8" points="450.7,821.4 446.4,823.9 446.4,782.5 450.7,785 				"/>
			</g>
			<g id="XMLID_1474_">
				<polygon id="XMLID_1478_" class="st6" points="442.9,871.9 414.3,855.6 414.3,814.2 442.9,830.6 				"/>
				<polygon id="XMLID_1475_" class="st8" points="418.6,853.1 414.3,855.6 414.3,814.2 418.6,816.7 				"/>
			</g>
			<g id="XMLID_1467_">
				<polygon id="XMLID_1471_" class="st6" points="458.5,880.9 446.4,873.9 446.4,832.6 458.5,839.6 				"/>
				<polygon id="XMLID_1468_" class="st8" points="450.7,871.5 446.4,873.9 446.4,832.6 450.7,835 				"/>
			</g>
			<g id="XMLID_1184_">
				<polygon id="XMLID_1188_" class="st10" points="504.4,591.7 516.3,585.1 516.3,543.7 504.4,550.4 				"/>
				<polygon id="XMLID_1185_" class="st11" points="516.3,585.1 520.5,585.1 520.5,543.8 516.3,543.8 				"/>
			</g>
			<g id="XMLID_1176_">
				<polygon id="XMLID_1180_" class="st10" points="504.4,651.8 516.3,645.1 516.3,603.8 504.4,610.4 				"/>
				<polygon id="XMLID_1177_" class="st11" points="516.3,645.1 520.5,645.1 520.5,603.8 516.3,603.8 				"/>
			</g>
			<g id="XMLID_1169_">
				<polygon id="XMLID_1173_" class="st10" points="504.4,714.5 516.3,707.8 516.3,666.5 504.4,673.1 				"/>
				<polygon id="XMLID_1170_" class="st11" points="516.3,707.8 520.5,707.8 520.5,666.5 516.3,666.5 				"/>
			</g>
			<g id="XMLID_1162_">
				<polygon id="XMLID_1166_" class="st10" points="504.4,777.2 516.3,770.5 516.3,729.2 504.4,735.8 				"/>
				<polygon id="XMLID_1163_" class="st11" points="516.3,770.5 520.5,770.5 520.5,729.2 516.3,729.2 				"/>
			</g>
			<g id="XMLID_1155_">
				<polygon id="XMLID_1159_" class="st10" points="537.3,573.3 549.2,566.6 549.2,525.3 537.3,531.9 				"/>
				<polygon id="XMLID_1156_" class="st11" points="549.2,566.6 553.4,566.6 553.4,525.3 549.2,525.3 				"/>
			</g>
			<g id="XMLID_1148_">
				<polygon id="XMLID_1152_" class="st10" points="537.3,633.3 549.2,626.7 549.2,585.3 537.3,591.9 				"/>
				<polygon id="XMLID_1149_" class="st11" points="549.2,626.7 553.4,626.6 553.4,585.3 549.2,585.3 				"/>
			</g>
			<g id="XMLID_1141_">
				<polygon id="XMLID_1145_" class="st10" points="537.3,696 549.2,689.4 549.2,648 537.3,654.6 				"/>
				<polygon id="XMLID_1142_" class="st11" points="549.2,689.4 553.4,689.3 553.4,648 549.2,648 				"/>
			</g>
			<g id="XMLID_1134_">
				<polygon id="XMLID_1138_" class="st10" points="537.3,758.7 549.2,752.1 549.2,710.7 537.3,717.3 				"/>
				<polygon id="XMLID_1135_" class="st11" points="549.2,752.1 553.4,752 553.4,710.7 549.2,710.7 				"/>
			</g>
			<g id="XMLID_1488_">
				<polygon id="XMLID_1492_" class="st10" points="504.4,838.5 516.3,831.9 516.3,790.5 504.4,797.2 				"/>
				<polygon id="XMLID_1489_" class="st11" points="516.3,831.9 520.5,831.9 520.5,790.6 516.3,790.6 				"/>
			</g>
			<g id="XMLID_1481_">
				<polygon id="XMLID_1485_" class="st10" points="537.3,820 549.2,813.4 549.2,772.1 537.3,778.7 				"/>
				<polygon id="XMLID_1482_" class="st11" points="549.2,813.4 553.4,813.4 553.4,772.1 549.2,772.1 				"/>
			</g>
			<g id="XMLID_1502_">
				<polygon id="XMLID_1506_" class="st10" points="504.4,897.2 516.3,890.6 516.3,849.2 504.4,855.9 				"/>
				<polygon id="XMLID_1503_" class="st11" points="516.3,890.6 520.5,890.6 520.5,849.3 516.3,849.3 				"/>
			</g>
			<g id="XMLID_1495_">
				<polygon id="XMLID_1499_" class="st10" points="537.3,878.7 549.2,872.1 549.2,830.8 537.3,837.4 				"/>
				<polygon id="XMLID_1496_" class="st11" points="549.2,872.1 553.4,872.1 553.4,830.8 549.2,830.8 				"/>
			</g>
		</g>
	</g>
	<g id="XMLID_11_">
		<g id="XMLID_24_">
			<path id="XMLID_1_" class="st12" d="M514.1,291.3h-58.5c-7.5,0-13.6,6.1-13.6,13.6v58.5c0,7.5,6.1,13.6,13.6,13.6h24.2l3.4,4.9
				v61c0,0.9,0.7,1.7,1.7,1.7c0.9,0,1.7-0.7,1.7-1.7v-60.8l3.8-5.2h23.8c7.5,0,13.6-6.1,13.6-13.6v-58.5
				C527.7,297.4,521.6,291.3,514.1,291.3z"/>
		</g>
		<g id="XMLID_5_">
			<path id="XMLID_3_" class="st14" d="M488.4,352.5v6.8h-6.1v-6.6c-6-0.4-11.8-2.3-15.2-4.9l3.4-7.4c3,2.3,7.4,3.9,11.8,4.3v-10.2
				c-6.8-1.6-14.3-3.9-14.3-12.6c0-6.5,4.7-12,14.3-13.1V302h6.1v6.6c4.6,0.4,9,1.6,12.4,3.7l-3,7.5c-3.1-1.8-6.3-2.8-9.3-3.2v10.4
				c6.8,1.6,14.2,3.8,14.2,12.4C502.6,345.8,497.9,351.3,488.4,352.5z M482.3,325.5v-8.7c-3.2,0.7-4.5,2.5-4.5,4.5
				C477.7,323.5,479.6,324.7,482.3,325.5z M492.7,340.2c0-2.1-1.8-3.3-4.4-4.2v8.4C491.4,343.8,492.7,342.2,492.7,340.2z"/>
		</g>
	</g>
</g>
<g id="XMLID_74_">
	<g id="XMLID_575_">
		<polygon id="XMLID_711_" class="st6" points="659.2,1029.9 789.9,1105.3 789.8,957.4 658.6,880.5 		"/>
		<polygon id="XMLID_640_" class="st4" points="1046.5,811.4 789.8,957.4 789.9,1105.3 1046.5,957.4 		"/>
		<polygon id="XMLID_705_" class="st3" points="658.6,880.5 916.3,736.1 1046.5,811.4 789.8,957.4 663.3,883.3 		"/>
		<g id="XMLID_646_">
			<g id="XMLID_617_">
				<polygon id="XMLID_621_" class="st18" points="809,1009.9 821.9,1002.3 821.9,957.1 809,964.7 				"/>
				<polygon id="XMLID_618_" class="st15" points="821.9,1002.3 826.6,1002.1 826.6,956.9 821.9,957.1 				"/>
			</g>
			<g id="XMLID_610_">
				<polygon id="XMLID_614_" class="st18" points="809,1078.4 821.9,1070.8 821.9,1025.6 809,1033.2 				"/>
				<polygon id="XMLID_611_" class="st15" points="821.9,1070.8 826.6,1070.6 826.6,1025.5 821.9,1025.6 				"/>
			</g>
			<g id="XMLID_597_">
				<polygon id="XMLID_601_" class="st18" points="834.4,995.2 847.4,987.5 847.4,942.3 834.4,950 				"/>
				<polygon id="XMLID_598_" class="st15" points="847.4,987.5 852.1,987.3 852.1,942.2 847.4,942.3 				"/>
			</g>
			<g id="XMLID_565_">
				<polygon id="XMLID_570_" class="st18" points="834.4,1063.7 847.4,1056 847.4,1010.8 834.4,1018.5 				"/>
				<polygon id="XMLID_566_" class="st15" points="847.4,1056 852.1,1055.9 852.1,1010.7 847.4,1010.9 				"/>
			</g>
			<g id="XMLID_654_">
				<polygon id="XMLID_658_" class="st18" points="859.9,980.4 872.9,972.8 872.9,927.6 859.9,935.2 				"/>
				<polygon id="XMLID_655_" class="st15" points="872.9,972.8 877.6,972.6 877.6,927.5 872.9,927.6 				"/>
			</g>
			<g id="XMLID_647_">
				<polygon id="XMLID_651_" class="st18" points="859.9,1049 872.9,1041.3 872.9,996.1 859.9,1003.8 				"/>
				<polygon id="XMLID_648_" class="st15" points="872.9,1041.3 877.6,1041.1 877.6,996 872.9,996.1 				"/>
			</g>
			<g id="XMLID_668_">
				<polygon id="XMLID_672_" class="st18" points="885.4,965.7 898.4,958.1 898.4,912.9 885.4,920.5 				"/>
				<polygon id="XMLID_669_" class="st15" points="898.4,958.1 903,957.9 903,912.7 898.4,912.9 				"/>
			</g>
			<g id="XMLID_661_">
				<polygon id="XMLID_665_" class="st18" points="885.4,1034.2 898.4,1026.6 898.4,981.4 885.4,989 				"/>
				<polygon id="XMLID_662_" class="st15" points="898.4,1026.6 903,1026.4 903,981.3 898.4,981.4 				"/>
			</g>
			<g id="XMLID_683_">
				<polygon id="XMLID_687_" class="st18" points="910.9,951 923.9,943.3 923.9,898.1 910.9,905.8 				"/>
				<polygon id="XMLID_684_" class="st15" points="923.9,943.3 928.5,943.1 928.5,898 923.9,898.1 				"/>
			</g>
			<g id="XMLID_675_">
				<polygon id="XMLID_680_" class="st18" points="910.9,1019.5 923.9,1011.9 923.9,966.7 910.9,974.3 				"/>
				<polygon id="XMLID_676_" class="st15" points="923.9,1011.9 928.5,1011.7 928.5,966.5 923.9,966.7 				"/>
			</g>
			<g id="XMLID_697_">
				<polygon id="XMLID_701_" class="st18" points="936.4,936.2 949.4,928.6 949.4,883.4 936.4,891 				"/>
				<polygon id="XMLID_698_" class="st15" points="949.4,928.6 954,928.4 954,883.3 949.4,883.4 				"/>
			</g>
			<g id="XMLID_690_">
				<polygon id="XMLID_694_" class="st18" points="936.4,1004.8 949.4,997.1 949.4,951.9 936.4,959.6 				"/>
				<polygon id="XMLID_691_" class="st15" points="949.4,997.1 954,996.9 954,951.8 949.4,951.9 				"/>
			</g>
			<g id="XMLID_714_">
				<polygon id="XMLID_718_" class="st18" points="961.9,921.5 974.9,913.9 974.8,868.7 961.9,876.3 				"/>
				<polygon id="XMLID_715_" class="st15" points="974.9,913.9 979.5,913.7 979.5,868.6 974.9,868.7 				"/>
			</g>
			<g id="XMLID_706_">
				<polygon id="XMLID_710_" class="st18" points="961.9,990 974.9,982.4 974.9,937.2 961.9,944.8 				"/>
				<polygon id="XMLID_707_" class="st15" points="974.9,982.4 979.5,982.2 979.5,937.1 974.9,937.2 				"/>
			</g>
			<g id="XMLID_728_">
				<polygon id="XMLID_732_" class="st18" points="987.4,906.8 1000.3,899.1 1000.3,853.9 987.4,861.6 				"/>
				<polygon id="XMLID_729_" class="st15" points="1000.4,899.1 1005,898.9 1005,853.8 1000.4,853.9 				"/>
			</g>
			<g id="XMLID_721_">
				<polygon id="XMLID_725_" class="st18" points="987.4,975.3 1000.3,967.7 1000.3,922.5 987.4,930.1 				"/>
				<polygon id="XMLID_722_" class="st15" points="1000.4,967.7 1005,967.5 1005,922.3 1000.4,922.5 				"/>
			</g>
			<g id="XMLID_742_">
				<polygon id="XMLID_746_" class="st18" points="1012.9,892 1025.8,884.4 1025.8,839.2 1012.9,846.8 				"/>
				<polygon id="XMLID_743_" class="st15" points="1025.9,884.4 1030.5,884.2 1030.5,839.1 1025.8,839.2 				"/>
			</g>
			<g id="XMLID_735_">
				<polygon id="XMLID_739_" class="st18" points="1012.9,960.6 1025.8,952.9 1025.8,907.7 1012.9,915.4 				"/>
				<polygon id="XMLID_736_" class="st15" points="1025.9,952.9 1030.5,952.7 1030.5,907.6 1025.9,907.7 				"/>
			</g>
		</g>
		<g id="XMLID_236_">
			<polygon id="XMLID_215_" class="st6" points="929.3,825.3 884.8,798.6 884.8,804.9 929.3,831 			"/>
			<polygon id="XMLID_231_" class="st6" points="884.8,798.6 929.2,772.9 976,799.8 929.3,825.3 			"/>
			<polygon id="XMLID_232_" class="st4" points="929.3,825.3 976,799.8 976,804.7 929.3,831 			"/>
		</g>
		<g id="XMLID_576_">
			<polygon id="XMLID_603_" class="st6" points="863.4,861.7 818.9,835.1 818.9,841.3 863.4,867.4 			"/>
			<polygon id="XMLID_599_" class="st6" points="818.9,835.1 863.3,809.3 910.1,836.3 863.4,861.7 			"/>
			<polygon id="XMLID_577_" class="st4" points="863.4,861.7 910.1,836.3 910.1,841.1 863.4,867.4 			"/>
		</g>
		<g id="XMLID_763_">
			<polygon id="XMLID_768_" class="st6" points="796.8,899.6 752.3,872.9 752.3,879.2 796.8,905.3 			"/>
			<polygon id="XMLID_767_" class="st6" points="752.3,872.9 796.7,847.1 843.5,874.1 796.8,899.6 			"/>
			<polygon id="XMLID_764_" class="st4" points="796.8,899.6 843.5,874.1 843.5,879 796.8,905.3 			"/>
		</g>
	</g>
	<g id="XMLID_63_">
		<path id="XMLID_77_" class="st12" d="M886.1,677.4h-58.5c-7.5,0-13.6,6.1-13.6,13.6v58.5c0,7.5,6.1,13.6,13.6,13.6h24.2l3.4,4.9
			v61c0,0.9,0.7,1.7,1.7,1.7c0.9,0,1.7-0.7,1.7-1.7v-60.8l3.8-5.2h23.8c7.5,0,13.6-6.1,13.6-13.6V691
			C899.8,683.5,893.7,677.4,886.1,677.4z"/>
		<g id="XMLID_8_">
			<g>
				<path id="XMLID_585_" class="st14" d="M843.3,730.5l0-0.6L843.3,730.5h28.6c1,0,1.8-0.7,2.1-1.6l6.3-22.1
					c0.2-0.7,0.1-1.4-0.4-1.9c-0.4-0.5-1.1-0.9-1.7-0.9h-38l-1-4.6c-0.2-1-1.1-1.7-2.1-1.7h-9.5c-1.2,0-2.2,1-2.2,2.2
					c0,1.2,1,2.2,2.2,2.2h7.7l5.5,24.7c-1.7,0.9-2.8,2.7-2.8,4.7c0,2.9,2.3,5.2,5.2,5.3c-1.2,1-2,2.5-2,4.1c0,2.9,2.4,5.3,5.3,5.3
					c2.9,0,5.3-2.4,5.3-5.3c0-1.7-0.8-3.1-2-4.1h15.5c-1.2,1-2,2.4-2,4.1c0,2.9,2.4,5.3,5.3,5.3c2.9,0,5.3-2.4,5.3-5.3
					c0-1.7-0.8-3.2-2-4.1c1.1-0.1,2-1,2-2.2c0-1.2-1-2.2-2.2-2.2h-28.6c-0.5,0-1-0.4-1-1C842.3,731,842.8,730.5,843.3,730.5z
					 M868.7,741.9c-0.5,0-1-0.4-1-1s0.4-1,1-1c0.5,0,1,0.4,1,1S869.3,741.9,868.7,741.9z M846.4,740c0.5,0,1,0.4,1,1s-0.4,1-1,1
					c-0.5,0-1-0.4-1-1S845.9,740,846.4,740z M841.1,708.5h34.1l-5.1,17.7h-25.2L841.1,708.5z"/>
			</g>
		</g>
	</g>
</g>
<g id="XMLID_58_">
	<polygon id="XMLID_1612_" class="st6" points="1236,915.7 1390.6,830.5 1430.2,851.3 1276.6,938 	"/>
	<g id="XMLID_1536_">
		<rect id="XMLID_1534_" x="1378.5" y="844.8" class="st15" width="2.7" height="17"/>
		<path id="XMLID_1518_" class="st4" d="M1393.5,834.1c0,7.5-6.1,13.6-13.6,13.6c-7.5,0-13.6-6.1-13.6-13.6
			c0-7.5,6.1-13.6,13.6-13.6C1387.4,820.5,1393.5,826.6,1393.5,834.1z"/>
	</g>
	<g id="XMLID_1539_">
		<rect id="XMLID_1547_" x="1347.4" y="860.4" class="st15" width="2.7" height="17"/>
		<circle id="XMLID_1542_" class="st4" cx="1348.7" cy="849.6" r="13.6"/>
	</g>
	<g id="XMLID_1552_">
		<rect id="XMLID_1558_" x="1316.2" y="879.2" class="st15" width="2.7" height="17"/>
		<path id="XMLID_1555_" class="st4" d="M1331.2,868.4c0,7.5-6.1,13.6-13.6,13.6s-13.6-6.1-13.6-13.6c0-7.5,6.1-13.6,13.6-13.6
			S1331.2,860.9,1331.2,868.4z"/>
	</g>
	<g id="XMLID_1561_">
		<rect id="XMLID_1565_" x="1285.9" y="897.2" class="st15" width="2.7" height="17"/>
		<circle id="XMLID_1562_" class="st4" cx="1287.3" cy="886.5" r="13.6"/>
	</g>
</g>
<g id="XMLID_46_">
	<polygon id="XMLID_276_" class="st6" points="529.5,1111.3 640.2,1045.9 775.1,1121.5 665.4,1188.5 	"/>
	<g id="XMLID_560_">
		<polygon id="XMLID_4_" class="st16" points="558,1113.4 651.8,1166.7 651.2,840.8 557.4,786.3 		"/>
		<polygon id="XMLID_204_" class="st17" points="651.2,840.8 730.5,792.4 730.5,1121.1 651.8,1166.7 		"/>
		<polygon id="XMLID_206_" class="st14" points="557.4,786.3 638,739.7 730.5,792.4 651.2,840.8 562.1,789 		"/>
		<polygon id="XMLID_224_" class="st19" points="638.5,749.8 576.2,785 580.9,787.7 584.8,790 637.6,760.5 703.9,798.2 713.3,792.5 
					"/>
		<g id="XMLID_214_">
			<polygon id="XMLID_210_" class="st6" points="583.5,858.6 566.1,848.6 566.1,803.5 583.5,813.4 			"/>
			<polygon id="XMLID_213_" class="st4" points="570.8,846 566.1,848.6 566.1,803.5 570.8,806.2 			"/>
		</g>
		<g id="XMLID_217_">
			<polygon id="XMLID_226_" class="st6" points="583.5,925.6 566.1,915.6 566.1,870.5 583.5,880.4 			"/>
			<polygon id="XMLID_218_" class="st4" points="570.8,912.9 566.1,915.6 566.1,870.5 570.8,873.2 			"/>
		</g>
		<g id="XMLID_270_">
			<polygon id="XMLID_302_" class="st6" points="583.5,992.6 566.1,982.6 566.1,937.5 583.5,947.4 			"/>
			<polygon id="XMLID_275_" class="st4" points="570.8,979.9 566.1,982.6 566.1,937.5 570.8,940.2 			"/>
		</g>
		<g id="XMLID_310_">
			<polygon id="XMLID_317_" class="st6" points="583.5,1059.6 566.1,1049.6 566.1,1004.5 583.5,1014.4 			"/>
			<polygon id="XMLID_312_" class="st4" points="570.8,1046.9 566.1,1049.6 566.1,1004.5 570.8,1007.2 			"/>
		</g>
		<g id="XMLID_485_">
			<polygon id="XMLID_489_" class="st6" points="612.6,875.1 595.3,865.2 595.3,820 612.6,829.9 			"/>
			<polygon id="XMLID_486_" class="st4" points="599.9,862.5 595.3,865.2 595.3,820 599.9,822.7 			"/>
		</g>
		<g id="XMLID_478_">
			<polygon id="XMLID_482_" class="st6" points="612.6,942.1 595.3,932.1 595.3,887 612.6,896.9 			"/>
			<polygon id="XMLID_479_" class="st4" points="599.9,929.5 595.3,932.1 595.3,887 599.9,889.7 			"/>
		</g>
		<g id="XMLID_471_">
			<polygon id="XMLID_475_" class="st6" points="612.6,1009.1 595.3,999.1 595.3,954 612.6,963.9 			"/>
			<polygon id="XMLID_472_" class="st4" points="599.9,996.4 595.3,999.1 595.3,954 599.9,956.7 			"/>
		</g>
		<g id="XMLID_425_">
			<polygon id="XMLID_468_" class="st6" points="612.6,1076.1 595.3,1066.1 595.3,1021 612.6,1030.9 			"/>
			<polygon id="XMLID_465_" class="st4" points="599.9,1063.4 595.3,1066.1 595.3,1021 599.9,1023.7 			"/>
		</g>
		<g id="XMLID_516_">
			<polygon id="XMLID_521_" class="st6" points="641.7,891.6 624.4,881.7 624.4,836.5 641.7,846.4 			"/>
			<polygon id="XMLID_517_" class="st4" points="629,879 624.4,881.7 624.4,836.5 629,839.2 			"/>
		</g>
		<g id="XMLID_80_">
			<g id="XMLID_524_">
				<polygon id="XMLID_528_" class="st10" points="666.9,892.2 679.9,884.9 679.9,839.8 666.9,847 				"/>
				<polygon id="XMLID_525_" class="st4" points="679.9,884.9 684.6,884.9 684.6,839.8 679.9,839.8 				"/>
			</g>
			<g id="XMLID_225_">
				<polygon id="XMLID_529_" class="st10" points="666.9,960.6 679.9,953.4 679.9,908.2 666.9,915.5 				"/>
				<polygon id="XMLID_229_" class="st4" points="679.9,953.4 684.6,953.3 684.6,908.3 679.9,908.3 				"/>
			</g>
			<g id="XMLID_532_">
				<polygon id="XMLID_540_" class="st10" points="666.9,1029.1 679.9,1021.8 679.9,976.7 666.9,983.9 				"/>
				<polygon id="XMLID_533_" class="st4" points="679.9,1021.8 684.6,1021.8 684.6,976.7 679.9,976.7 				"/>
			</g>
			<g id="XMLID_543_">
				<polygon id="XMLID_547_" class="st10" points="666.9,1097.5 679.9,1090.3 679.9,1045.1 666.9,1052.4 				"/>
				<polygon id="XMLID_544_" class="st4" points="679.9,1090.3 684.6,1090.2 684.6,1045.2 679.9,1045.2 				"/>
			</g>
			<g id="XMLID_1154_">
				<polygon id="XMLID_1161_" class="st10" points="698.2,873 711.2,865.8 711.2,820.6 698.2,827.9 				"/>
				<polygon id="XMLID_1157_" class="st4" points="711.2,865.8 715.8,865.7 715.8,820.7 711.2,820.7 				"/>
			</g>
			<g id="XMLID_1143_">
				<polygon id="XMLID_1150_" class="st10" points="698.2,941.5 711.2,934.2 711.2,889.1 698.2,896.3 				"/>
				<polygon id="XMLID_1144_" class="st4" points="711.2,934.2 715.8,934.2 715.8,889.1 711.2,889.1 				"/>
			</g>
			<g id="XMLID_1126_">
				<polygon id="XMLID_1137_" class="st10" points="698.2,1009.9 711.2,1002.7 711.2,957.5 698.2,964.8 				"/>
				<polygon id="XMLID_1131_" class="st4" points="711.2,1002.7 715.8,1002.6 715.8,957.6 711.2,957.6 				"/>
			</g>
			<g id="XMLID_123_">
				<polygon id="XMLID_128_" class="st10" points="698.2,1078.4 711.2,1071.1 711.2,1026 698.2,1033.2 				"/>
				<polygon id="XMLID_125_" class="st4" points="711.2,1071.1 715.8,1071.1 715.8,1026 711.2,1026 				"/>
			</g>
		</g>
		<g id="XMLID_508_">
			<polygon id="XMLID_512_" class="st6" points="641.7,958.6 624.4,948.7 624.4,903.5 641.7,913.4 			"/>
			<polygon id="XMLID_509_" class="st4" points="629,946 624.4,948.7 624.4,903.5 629,906.2 			"/>
		</g>
		<g id="XMLID_500_">
			<polygon id="XMLID_505_" class="st6" points="641.7,1025.6 624.4,1015.6 624.4,970.5 641.7,980.4 			"/>
			<polygon id="XMLID_501_" class="st4" points="629,1013 624.4,1015.6 624.4,970.5 629,973.2 			"/>
		</g>
		<g id="XMLID_492_">
			<polygon id="XMLID_497_" class="st6" points="641.7,1092.6 624.4,1082.6 624.4,1037.5 641.7,1047.4 			"/>
			<polygon id="XMLID_493_" class="st4" points="629,1080 624.4,1082.6 624.4,1037.5 629,1040.2 			"/>
		</g>
	</g>
	<g id="XMLID_1596_">
		<rect id="XMLID_1600_" x="686.2" y="1145.7" class="st15" width="2.7" height="17"/>
		<path id="XMLID_1597_" class="st4" d="M701.1,1134.9c0,7.5-6.1,13.6-13.6,13.6c-7.5,0-13.6-6.1-13.6-13.6
			c0-7.5,6.1-13.6,13.6-13.6C695,1121.3,701.1,1127.4,701.1,1134.9z"/>
	</g>
	<g id="XMLID_1557_">
		<rect id="XMLID_1564_" x="714.9" y="1127.9" class="st15" width="2.7" height="17"/>
		<path id="XMLID_1559_" class="st4" d="M729.9,1117.1c0,7.5-6.1,13.6-13.6,13.6c-7.5,0-13.6-6.1-13.6-13.6
			c0-7.5,6.1-13.6,13.6-13.6C723.8,1103.6,729.9,1109.6,729.9,1117.1z"/>
	</g>
</g>
<g id="XMLID_76_">
	<g id="XMLID_44_">
		<g id="XMLID_59_">
			<polygon id="XMLID_821_" class="st6" points="972.3,660.2 1040.7,622.9 1195.4,709.7 1128,748.5 977,662.9 			"/>
			<polygon id="XMLID_298_" class="st6" points="1017,794.4 1176.8,699.4 1311.6,775 1152.8,871.5 			"/>
			<g id="XMLID_1041_">
				<rect id="XMLID_1579_" x="1255.1" y="749.9" class="st15" width="2.7" height="17"/>
				<path id="XMLID_1576_" class="st4" d="M1270.1,739.1c0,7.5-6.1,13.6-13.6,13.6c-7.5,0-13.6-6.1-13.6-13.6
					c0-7.5,6.1-13.6,13.6-13.6C1264,725.6,1270.1,731.6,1270.1,739.1z"/>
			</g>
			<g id="XMLID_308_">
				<rect id="XMLID_1538_" x="1225.1" y="738.9" class="st15" width="2.7" height="17"/>
				<path id="XMLID_309_" class="st4" d="M1240.1,728.1c0,7.5-6.1,13.6-13.6,13.6c-7.5,0-13.6-6.1-13.6-13.6s6.1-13.6,13.6-13.6
					C1234,714.6,1240.1,720.6,1240.1,728.1z"/>
			</g>
			<g id="XMLID_1703_">
				<rect id="XMLID_1893_" x="1060.5" y="653.9" class="st15" width="2.7" height="17"/>
				<path id="XMLID_1705_" class="st4" d="M1075.5,643.1c0,7.5-6.1,13.6-13.6,13.6c-7.5,0-13.6-6.1-13.6-13.6s6.1-13.6,13.6-13.6
					C1069.4,629.5,1075.5,635.6,1075.5,643.1z"/>
			</g>
			<g id="XMLID_825_">
				<rect id="XMLID_849_" x="1030.5" y="642.9" class="st15" width="2.7" height="17"/>
				<circle id="XMLID_841_" class="st4" cx="1031.8" cy="632.1" r="13.6"/>
			</g>
		</g>
		<g id="XMLID_219_">
			<polygon id="XMLID_980_" class="st19" points="1046.5,755.7 1138.2,699.5 1245.3,763 1153.1,817.8 			"/>
			<polygon id="XMLID_1093_" class="st16" points="1059.3,755.1 1153.1,808.5 1152.5,482.5 1058.7,428.1 			"/>
			<polygon id="XMLID_1090_" class="st17" points="1152.5,482.5 1231.8,436.6 1231.8,762.8 1153.1,808.5 			"/>
			<polygon id="XMLID_1288_" class="st16" points="1046.5,796.9 1153.1,857.5 1153.1,817.8 1046.5,755.7 			"/>
			<polygon id="XMLID_220_" class="st17" points="1153.1,817.8 1245.3,763 1245.3,803.7 1153.1,857.5 			"/>
			<polygon id="XMLID_1087_" class="st19" points="1058.7,428.1 1139.3,381.5 1231.8,436.6 1152.5,482.5 1063.4,430.8 			"/>
			<g id="XMLID_1077_">
				<polygon id="XMLID_1081_" class="st6" points="1084.8,500.3 1067.4,490.4 1067.4,445.3 1084.8,455.2 				"/>
				<polygon id="XMLID_1078_" class="st4" points="1072.1,487.7 1067.4,490.4 1067.4,445.3 1072.1,447.9 				"/>
			</g>
			<g id="XMLID_1070_">
				<polygon id="XMLID_1074_" class="st6" points="1084.8,567.3 1067.4,557.4 1067.4,512.2 1084.8,522.2 				"/>
				<polygon id="XMLID_1071_" class="st4" points="1072.1,554.7 1067.4,557.4 1067.4,512.2 1072.1,514.9 				"/>
			</g>
			<g id="XMLID_1063_">
				<polygon id="XMLID_1067_" class="st6" points="1084.8,634.3 1067.4,624.4 1067.4,579.2 1084.8,589.2 				"/>
				<polygon id="XMLID_1064_" class="st4" points="1072.1,621.7 1067.4,624.4 1067.4,579.2 1072.1,581.9 				"/>
			</g>
			<g id="XMLID_1056_">
				<polygon id="XMLID_1060_" class="st6" points="1084.8,701.3 1067.4,691.4 1067.4,646.2 1084.8,656.2 				"/>
				<polygon id="XMLID_1057_" class="st4" points="1072.1,688.7 1067.4,691.4 1067.4,646.2 1072.1,648.9 				"/>
			</g>
			<g id="XMLID_1049_">
				<polygon id="XMLID_1053_" class="st6" points="1113.9,516.8 1096.6,506.9 1096.6,461.8 1113.9,471.7 				"/>
				<polygon id="XMLID_1050_" class="st4" points="1101.2,504.2 1096.6,506.9 1096.6,461.8 1101.2,464.4 				"/>
			</g>
			<g id="XMLID_1042_">
				<polygon id="XMLID_1046_" class="st6" points="1113.9,583.8 1096.6,573.9 1096.6,528.8 1113.9,538.7 				"/>
				<polygon id="XMLID_1043_" class="st4" points="1101.2,571.2 1096.6,573.9 1096.6,528.8 1101.2,531.4 				"/>
			</g>
			<g id="XMLID_1035_">
				<polygon id="XMLID_1039_" class="st6" points="1113.9,650.8 1096.6,640.9 1096.6,595.7 1113.9,605.7 				"/>
				<polygon id="XMLID_1036_" class="st4" points="1101.2,638.2 1096.6,640.9 1096.6,595.7 1101.2,598.4 				"/>
			</g>
			<g id="XMLID_1028_">
				<polygon id="XMLID_1032_" class="st6" points="1113.9,717.8 1096.6,707.9 1096.6,662.7 1113.9,672.7 				"/>
				<polygon id="XMLID_1029_" class="st4" points="1101.2,705.2 1096.6,707.9 1096.6,662.7 1101.2,665.4 				"/>
			</g>
			<g id="XMLID_1021_">
				<polygon id="XMLID_1025_" class="st6" points="1143,533.3 1125.7,523.4 1125.7,478.3 1143,488.2 				"/>
				<polygon id="XMLID_1022_" class="st4" points="1130.3,520.7 1125.7,523.4 1125.7,478.3 1130.3,481 				"/>
			</g>
			<g id="XMLID_1014_">
				<polygon id="XMLID_1018_" class="st20" points="1167,533.3 1179.9,526.1 1179.9,480.9 1167,488.2 				"/>
				<polygon id="XMLID_1015_" class="st4" points="1180,526.1 1184.6,526 1184.6,480.9 1180,480.9 				"/>
			</g>
			<g id="XMLID_1006_">
				<polygon id="XMLID_1010_" class="st20" points="1167,601.8 1179.9,594.5 1179.9,549.4 1167,556.6 				"/>
				<polygon id="XMLID_1007_" class="st4" points="1180,594.5 1184.6,594.5 1184.6,549.4 1180,549.4 				"/>
			</g>
			<g id="XMLID_999_">
				<polygon id="XMLID_1003_" class="st20" points="1167,670.2 1179.9,663 1179.9,617.8 1167,625.1 				"/>
				<polygon id="XMLID_1000_" class="st4" points="1180,663 1184.6,662.9 1184.6,617.9 1180,617.8 				"/>
			</g>
			<g id="XMLID_992_">
				<polygon id="XMLID_996_" class="st20" points="1167,738.7 1179.9,731.4 1179.9,686.3 1167,693.5 				"/>
				<polygon id="XMLID_993_" class="st4" points="1180,731.4 1184.6,731.4 1184.6,686.3 1180,686.3 				"/>
			</g>
			<g id="XMLID_1111_">
				<polygon id="XMLID_1119_" class="st20" points="1200.5,515.7 1213.4,508.5 1213.4,463.4 1200.5,470.6 				"/>
				<polygon id="XMLID_1115_" class="st4" points="1213.4,508.5 1218.1,508.5 1218.1,463.4 1213.4,463.4 				"/>
			</g>
			<g id="XMLID_1083_">
				<polygon id="XMLID_1094_" class="st20" points="1200.5,584.2 1213.4,577 1213.4,531.8 1200.5,539 				"/>
				<polygon id="XMLID_1085_" class="st4" points="1213.4,577 1218.1,576.9 1218.1,531.8 1213.4,531.8 				"/>
			</g>
			<g id="XMLID_1068_">
				<polygon id="XMLID_1079_" class="st20" points="1200.5,652.6 1213.4,645.4 1213.4,600.3 1200.5,607.5 				"/>
				<polygon id="XMLID_1072_" class="st4" points="1213.4,645.4 1218.1,645.4 1218.1,600.3 1213.4,600.3 				"/>
			</g>
			<g id="XMLID_82_">
				<polygon id="XMLID_1037_" class="st20" points="1200.5,721.1 1213.4,713.9 1213.4,668.7 1200.5,675.9 				"/>
				<polygon id="XMLID_83_" class="st4" points="1213.4,713.9 1218.1,713.8 1218.1,668.7 1213.4,668.7 				"/>
			</g>
			<g id="XMLID_985_">
				<polygon id="XMLID_989_" class="st6" points="1143,600.3 1125.7,590.4 1125.7,545.3 1143,555.2 				"/>
				<polygon id="XMLID_986_" class="st4" points="1130.3,587.7 1125.7,590.4 1125.7,545.3 1130.3,547.9 				"/>
			</g>
			<g id="XMLID_978_">
				<polygon id="XMLID_982_" class="st6" points="1143,667.3 1125.7,657.4 1125.7,612.3 1143,622.2 				"/>
				<polygon id="XMLID_979_" class="st4" points="1130.3,654.7 1125.7,657.4 1125.7,612.3 1130.3,614.9 				"/>
			</g>
			<g id="XMLID_227_">
				<polygon id="XMLID_249_" class="st6" points="1143,734.3 1125.7,724.4 1125.7,679.2 1143,689.2 				"/>
				<polygon id="XMLID_243_" class="st4" points="1130.3,721.7 1125.7,724.4 1125.7,679.2 1130.3,681.9 				"/>
			</g>
			<g id="XMLID_235_">
				<polygon id="XMLID_1232_" class="st16" points="1153,440 1077.9,395.2 1077.9,428.4 1153,472.4 				"/>
				<polygon id="XMLID_1229_" class="st19" points="1077.9,395.2 1144.8,356.9 1220.3,401 1153,440 				"/>
				<polygon id="XMLID_1084_" class="st17" points="1153,440 1220.3,401 1220.4,434.5 1153,472.4 				"/>
			</g>
			<g id="XMLID_1086_">
				<polygon id="XMLID_1240_" class="st16" points="1152.5,412.9 1098.5,380.8 1098.5,395.7 1152.5,427.3 				"/>
				<polygon id="XMLID_1234_" class="st19" points="1098.5,380.8 1147.6,352.7 1201.9,384.3 1152.5,412.9 				"/>
				<polygon id="XMLID_1230_" class="st17" points="1152.5,412.9 1201.9,384.3 1201.9,399.4 1152.5,427.3 				"/>
			</g>
			<g id="XMLID_981_">
				<g id="XMLID_1231_">
					<g>
						<g id="XMLID_129_">
							<polygon class="st16" points="1108.1,379.2 1152.5,276.3 1192.7,382.4 1152.5,405.7 							"/>
						</g>
					</g>
				</g>
				<polygon id="XMLID_250_" class="st17" points="1152.5,276.3 1152.5,405.7 1192.7,382.4 				"/>
			</g>
		</g>
	</g>
	<g id="XMLID_15_">
		<path id="XMLID_29_" class="st12" d="M1182,137.9h-58.5c-7.5,0-13.6,6.1-13.6,13.6V210c0,7.5,6.1,13.6,13.6,13.6h24.2l3.4,4.9V261
			c0,0.9,0.7,1.7,1.7,1.7c0.9,0,1.7-0.7,1.7-1.7v-32.2l3.8-5.2h23.8c7.5,0,13.6-6.1,13.6-13.6v-58.5
			C1195.7,144,1189.6,137.9,1182,137.9z"/>
		<g id="XMLID_17_">
			<g>
				<g id="XMLID_620_">
					<g id="XMLID_626_">
						<g id="XMLID_627_">
							<path id="XMLID_628_" class="st14" d="M1152.8,174.5c5.4,0,9.8-4.4,9.8-9.8c0-5.4-4.4-9.8-9.8-9.8c-5.4,0-9.8,4.4-9.8,9.8
								C1143,170.1,1147.4,174.5,1152.8,174.5"/>
						</g>
					</g>
					<g id="XMLID_622_">
						<g id="XMLID_624_">
							<path id="XMLID_625_" class="st14" d="M1156.9,175.1h-8.3c-6.9,0-12.5,5.6-12.5,12.5v10.1l0,0.2l0.7,0.2
								c6.6,2.1,12.3,2.7,17,2.7c9.2,0,14.5-2.6,14.8-2.8l0.7-0.3h0.1v-10.1C1169.4,180.7,1163.8,175.1,1156.9,175.1"/>
						</g>
					</g>
				</g>
			</g>
		</g>
	</g>
</g>
</svg>
