<?xml version="1.0" encoding="utf-8"?>
<!-- Generator: Adobe Illustrator 24.0.2, SVG Export Plug-In . SVG Version: 6.00 Build 0)  -->
<svg version="1.1" id="Ñëîé_1" xmlns="http://www.w3.org/2000/svg" xmlns:xlink="http://www.w3.org/1999/xlink" x="0px" y="0px"
	 viewBox="0 0 495.7 413.8" style="enable-background:new 0 0 495.7 413.8;" xml:space="preserve">
<style type="text/css">
	.st0{fill:#EBF2F1;}
	.st1{enable-background:new    ;}
	.st2{fill:#A5A5A5;}
	.st3{fill:#8F8F8F;}
	.st4{clip-path:url(#SVGID_2_);enable-background:new    ;}
	.st5{fill:#858585;}
	.st6{fill:#EFEFEF;}
	.st7{clip-path:url(#SVGID_4_);fill:#858585;}
	.st8{fill:#ABABAB;}
	.st9{fill:#808080;}
	.st10{fill:#9E9E9E;}
	.st11{fill:#A8A8A8;}
	.st12{clip-path:url(#SVGID_6_);fill:#858585;}
	.st13{fill:#8E8E8E;}
	.st14{clip-path:url(#SVGID_8_);enable-background:new    ;}
	.st15{fill:#8C8C8C;}
	.st16{fill:#AAAAAA;}
	.st17{fill:#FFFFFF;}
</style>
<g id="_x31_">
	<g>
		<path class="st0" d="M75.2,334.4c-0.2,0-0.4-0.1-0.5-0.3c-0.2-0.3-0.1-0.7,0.2-0.8l97.8-56.5c0.3-0.2,0.7-0.1,0.8,0.2
			c0.2,0.3,0.1,0.7-0.2,0.8l-97.8,56.5C75.4,334.4,75.3,334.4,75.2,334.4z"/>
	</g>
	<g>
		<path class="st0" d="M352.5,174.2c-0.2,0-0.4-0.1-0.5-0.3c-0.2-0.3-0.1-0.7,0.2-0.8l18.9-10.9c0.3-0.2,0.7-0.1,0.8,0.2
			c0.2,0.3,0.1,0.7-0.2,0.8l-18.9,10.9C352.7,174.2,352.6,174.2,352.5,174.2z"/>
	</g>
	<path class="st0" d="M448.8,70.1c3.1,1.8,8.7-0.5,5.6-2.3C451.2,66.1,445.7,68.4,448.8,70.1z"/>
	<path class="st0" d="M301.5,109.6c3.1,1.8,8.7-0.5,5.6-2.3C303.9,105.5,298.4,107.8,301.5,109.6z"/>
	<path class="st0" d="M395.5,194.3c3.1,1.8,8.7-0.5,5.6-2.3S392.5,192.5,395.5,194.3z"/>
	<path class="st0" d="M368.7,163.9c3.1,1.8,8.7-0.5,5.6-2.3C371.1,159.9,365.6,162.2,368.7,163.9z"/>
	<path class="st0" d="M99.5,272.1c3.1,1.8,8.7-0.5,5.6-2.3C101.9,268,96.4,270.3,99.5,272.1z"/>
	<path class="st0" d="M72.5,334.6c3.1,1.8,8.7-0.5,5.6-2.3C75,330.6,69.5,332.8,72.5,334.6z"/>
	<g>
		<path class="st0" d="M384.3,263.9c-0.1,0-0.2,0-0.3-0.1l-32.3-18.6c-0.3-0.2-0.4-0.5-0.2-0.8c0.2-0.3,0.6-0.4,0.8-0.2l32.3,18.6
			c0.3,0.2,0.4,0.5,0.2,0.8C384.7,263.8,384.5,263.9,384.3,263.9z"/>
	</g>
	<path class="st0" d="M381.5,264.4c3.1,1.8,8.7-0.5,5.6-2.3C384,260.4,378.5,262.7,381.5,264.4z"/>
	<g>
		<path class="st0" d="M315.1,148.6c-0.2,0-0.4-0.1-0.5-0.3c-0.2-0.3-0.1-0.7,0.2-0.8l136.5-78.8c0.3-0.2,0.7-0.1,0.8,0.2
			c0.2,0.3,0.1,0.7-0.2,0.8l-136.5,78.8C315.3,148.5,315.2,148.6,315.1,148.6z"/>
	</g>
	<path class="st0" d="M85.2,93.2c3.1,1.8,8.7-0.5,5.6-2.3C87.6,89.1,82.1,91.4,85.2,93.2z"/>
	<g>
		<path class="st0" d="M172,141.4c-0.1,0-0.2,0-0.3-0.1L88.1,93.1c-0.3-0.2-0.4-0.5-0.2-0.8c0.2-0.3,0.5-0.4,0.8-0.2l83.6,48.3
			c0.3,0.2,0.4,0.5,0.2,0.8C172.4,141.3,172.2,141.4,172,141.4z"/>
	</g>
	<g>
		<path class="st0" d="M367,211.6c-0.2,0-0.4-0.1-0.5-0.3c-0.2-0.3-0.1-0.7,0.2-0.8l31.6-18.2c0.3-0.2,0.7-0.1,0.8,0.2
			c0.2,0.3,0.1,0.7-0.2,0.8l-31.6,18.2C367.2,211.6,367.1,211.6,367,211.6z"/>
	</g>
	<g id="Cylinder_face_1_">
		<path class="st0" d="M234,286.2c-34.2,0-68.4-7.5-94.4-22.5c-25.3-14.6-39.3-34.1-39.3-54.8s13.9-40.2,39.3-54.8
			c52-30,136.7-30,188.8,0c25.3,14.6,39.3,34.1,39.3,54.8s-13.9,40.2-39.3,54.8C302.3,278.7,268.1,286.2,234,286.2z M234,132.7
			c-34,0-67.9,7.5-93.8,22.4c-24.9,14.4-38.7,33.5-38.7,53.8s13.7,39.4,38.7,53.8c51.7,29.9,135.8,29.8,187.5,0
			c24.9-14.4,38.7-33.5,38.7-53.8s-13.7-39.4-38.7-53.8C301.9,140.1,267.9,132.7,234,132.7z"/>
	</g>
	<g>
		<path class="st0" d="M261.3,133.9c-0.2,0-0.4-0.1-0.5-0.3c-0.2-0.3-0.1-0.7,0.2-0.8l43-24.8c0.3-0.2,0.7-0.1,0.8,0.2
			c0.2,0.3,0.1,0.7-0.2,0.8l-43,24.8C261.5,133.9,261.4,133.9,261.3,133.9z"/>
	</g>
	<g>
		<path class="st0" d="M102,271.4c-0.2,0-0.4-0.1-0.5-0.3c-0.2-0.3-0.1-0.7,0.2-0.8l26.1-15.1c0.3-0.2,0.7-0.1,0.8,0.2
			c0.2,0.3,0.1,0.7-0.2,0.8l-26.1,15.1C102.3,271.4,102.1,271.4,102,271.4z"/>
	</g>
</g>
<g class="st1">
	<g>
		<polygon class="st2" points="342.9,179.5 340.7,189.9 337.1,193 339.3,182.5 		"/>
	</g>
	<path class="st3" d="M335.7,192.1c0.1,0,0.1,0.1,0.2,0.1c0.1,0.1,0.3,0.2,0.4,0.3c0.1,0,0.1,0.1,0.2,0.1c0.2,0.1,0.4,0.3,0.6,0.4
		l2.2-10.4c-0.2-0.1-0.4-0.3-0.6-0.4c-0.1,0-0.1-0.1-0.2-0.1c-0.1-0.1-0.3-0.2-0.4-0.3c-0.1,0-0.1-0.1-0.2-0.1
		c-0.2-0.1-0.3-0.2-0.5-0.3c0,0,0,0,0,0c0,0,0,0,0,0c-0.2-0.1-0.3-0.2-0.5-0.2c-0.3-0.1-0.5-0.2-0.8-0.3c0,0-0.1,0-0.1,0
		c0,0,0,0-0.1,0c-0.3-0.1-0.7-0.2-1-0.3c0,0-0.1,0-0.1,0c0,0,0,0-0.1,0c-0.3-0.1-0.6-0.1-0.9-0.1c0,0-0.1,0-0.1,0c0,0-0.1,0-0.1,0
		c-0.1,0-0.3,0-0.4,0c-0.1,0-0.2,0-0.2,0c-0.1,0-0.3,0-0.4,0c-0.1,0-0.1,0-0.2,0c0,0-0.1,0-0.1,0c-0.3,0-0.5,0.1-0.8,0.1
		c-0.1,0-0.1,0-0.2,0.1c-0.2,0-0.3,0.1-0.4,0.1c-0.1,0-0.1,0-0.2,0.1c-0.1,0-0.2,0.1-0.3,0.1c-0.1,0-0.1,0.1-0.2,0.1
		c-0.1,0.1-0.2,0.1-0.3,0.2c0,0-0.1,0-0.1,0.1c0,0,0,0,0,0c0,0-0.1,0-0.1,0.1c-0.1,0.1-0.1,0.1-0.2,0.2c0,0,0,0.1-0.1,0.1
		c0,0,0,0,0,0.1c0,0,0,0.1,0,0.1c0,0.1-0.1,0.1-0.1,0.2c0,0,0,0,0,0.1c0,0.1,0,0.1,0,0.2l-2.2,10.4c0-0.1,0-0.1,0.1-0.2
		c0-0.1,0.1-0.1,0.1-0.2c0,0,0.1-0.1,0.1-0.1c0,0,0-0.1,0.1-0.1c0-0.1,0.1-0.1,0.2-0.2c0,0,0.1,0,0.1-0.1c0,0,0.1-0.1,0.1-0.1
		c0.1-0.1,0.2-0.1,0.3-0.2c0.1,0,0.1-0.1,0.2-0.1c0.1,0,0.2-0.1,0.3-0.1c0.1,0,0.1-0.1,0.2-0.1c0.1,0,0.3-0.1,0.4-0.1
		c0.1,0,0.1,0,0.2-0.1c0.2-0.1,0.5-0.1,0.8-0.1c0.1,0,0.2,0,0.3,0c0.1,0,0.3,0,0.4,0c0.1,0,0.2,0,0.2,0c0.1,0,0.3,0,0.4,0
		c0.1,0,0.1,0,0.2,0c0.3,0,0.6,0.1,0.9,0.1c0,0,0.1,0,0.1,0c0.3,0.1,0.7,0.2,1,0.3c0.1,0,0.1,0,0.2,0.1c0.3,0.1,0.5,0.2,0.8,0.3
		c0.2,0.1,0.3,0.1,0.5,0.2c0,0,0,0,0,0C335.4,191.9,335.6,192,335.7,192.1z"/>
	<g class="st1">
		<defs>
			<path id="SVGID_1_" class="st1" d="M342.6,191.4l-2.2,10.4c0.1-0.4,0-0.8-0.2-1.2l2.2-10.4C342.7,190.6,342.7,191,342.6,191.4z"
				/>
		</defs>
		<clipPath id="SVGID_2_">
			<use xlink:href="#SVGID_1_"  style="overflow:visible;"/>
		</clipPath>
		<g class="st4">
			<path class="st5" d="M342.6,191.4l-2.2,10.4c0.1-0.4,0-0.8-0.2-1.2l2.2-10.4C342.7,190.6,342.7,191,342.6,191.4"/>
		</g>
	</g>
	<path class="st5" d="M336.5,198.7c0.1,0,0.3,0,0.4,0c0.2,0,0.4,0,0.6,0.1c0.1,0,0.3,0.1,0.4,0.1c0.1,0,0.2,0,0.3,0.1
		c0.2,0.1,0.3,0.1,0.5,0.2c0.1,0,0.1,0,0.2,0.1c0.2,0.1,0.4,0.2,0.5,0.3c0,0,0.1,0.1,0.1,0.1c0.1,0.1,0.2,0.2,0.3,0.3
		c0,0,0.1,0.1,0.1,0.1c0.1,0.2,0.2,0.3,0.3,0.5l2.2-10.4c-0.1-0.2-0.2-0.4-0.3-0.5c0,0-0.1-0.1-0.1-0.1c-0.1-0.1-0.2-0.2-0.3-0.3
		c0,0-0.1-0.1-0.1-0.1c-0.1-0.1-0.3-0.2-0.5-0.3c0,0,0,0-0.1,0c-0.1,0-0.1-0.1-0.2-0.1c-0.1,0-0.2-0.1-0.3-0.1c0,0-0.1,0-0.1,0
		c-0.1,0-0.2-0.1-0.3-0.1c-0.1,0-0.2,0-0.2-0.1c-0.1,0-0.1,0-0.2,0c-0.2,0-0.4-0.1-0.6-0.1c-0.1,0-0.2,0-0.2,0c0,0-0.1,0-0.2,0
		c-0.2,0-0.5,0-0.7,0c-0.1,0-0.2,0-0.4,0c-0.4,0-0.8,0-1.2,0.1c-0.4,0-0.8,0.1-1.2,0.1c-0.1,0-0.3,0-0.4,0c-0.3,0-0.5,0-0.8,0
		c-0.2,0-0.3,0-0.4,0c-0.2,0-0.5,0-0.7,0c-0.2,0-0.3,0-0.5,0c-0.2,0-0.4,0-0.6,0c-0.2,0-0.3,0-0.4,0c-0.2,0-0.4,0-0.6-0.1
		c-0.1,0-0.3,0-0.4-0.1c-0.2,0-0.4-0.1-0.5-0.1c-0.1,0-0.2,0-0.4-0.1c-0.4-0.1-0.8-0.2-1.2-0.3c-0.1,0-0.1,0-0.2-0.1
		c-0.3-0.1-0.7-0.3-1-0.4c-0.1,0-0.1-0.1-0.2-0.1c-0.1,0-0.1-0.1-0.2-0.1c-0.2-0.1-0.3-0.2-0.4-0.3c-0.1,0-0.1-0.1-0.2-0.1
		c-0.1-0.1-0.3-0.2-0.4-0.3c0,0-0.1-0.1-0.1-0.1c-0.2-0.2-0.3-0.3-0.5-0.5c0,0-0.1-0.1-0.1-0.1c-0.1-0.1-0.3-0.3-0.4-0.4
		c0-0.1-0.1-0.1-0.1-0.2c-0.1-0.1-0.2-0.3-0.3-0.4c0-0.1-0.1-0.1-0.1-0.2c-0.1-0.2-0.2-0.4-0.4-0.7c-0.5-1-0.6-2-0.4-2.9l-2.2,10.4
		c-0.2,0.9-0.1,1.9,0.4,2.9c0.1,0.2,0.2,0.5,0.4,0.7c0,0.1,0.1,0.1,0.1,0.2c0.1,0.2,0.2,0.3,0.3,0.4c0,0.1,0.1,0.1,0.1,0.2
		c0.1,0.2,0.2,0.3,0.4,0.4c0,0,0.1,0.1,0.1,0.1c0.2,0.2,0.3,0.3,0.5,0.5c0,0,0.1,0.1,0.1,0.1c0.1,0.1,0.3,0.2,0.4,0.3
		c0.1,0,0.1,0.1,0.2,0.1c0.1,0.1,0.3,0.2,0.4,0.3c0.1,0,0.1,0.1,0.2,0.1c0,0,0,0,0.1,0c0,0,0.1,0,0.1,0c0.3,0.2,0.6,0.3,1,0.4
		c0,0,0.1,0,0.1,0c0,0,0,0,0.1,0c0.4,0.1,0.8,0.2,1.2,0.3c0,0,0.1,0,0.1,0c0.1,0,0.2,0,0.2,0c0.2,0,0.3,0.1,0.5,0.1
		c0.1,0,0.3,0,0.4,0.1c0.2,0,0.4,0,0.6,0.1c0.1,0,0.2,0,0.3,0c0.1,0,0.1,0,0.2,0c0.2,0,0.4,0,0.6,0c0.1,0,0.3,0,0.5,0
		c0.2,0,0.5,0,0.7,0c0.1,0,0.3,0,0.4,0c0.3,0,0.5,0,0.8,0c0.1,0,0.3,0,0.4,0c0.4,0,0.8-0.1,1.2-0.1c0.4-0.1,0.8-0.1,1.2-0.1
		c0.1,0,0.2,0,0.4,0C336,198.7,336.3,198.7,336.5,198.7z"/>
	<g>
		<path class="st6" d="M330.4,176.3c3.3-0.4,6.5,0.1,9.3,1.4c0.9,0.4,2,1,3.3,1.8l-3.6,3c-0.9-0.6-1.8-1.1-2.4-1.4
			c-1.5-0.6-3-1-4.6-0.8c-2.8,0.4-3.6,1.4-3,2.6c0.6,1.3,2.3,1.5,5.5,1.2c6.5-0.7,11.5,1.1,13.6,5.4c0.8,1.7,0.7,3.3-0.3,4.7
			c-1.4,1.9-4.2,3.2-7.3,3.6c-3.2,0.4-6.7,0.1-10-1.3c-0.9-0.4-1.9-1-3.3-1.8l4.7-2.5c1.7,1,4.2,1.8,6.4,1.4
			c1.9-0.3,3.1-0.8,3.6-1.5c0.4-0.6,0.5-1.2,0.2-1.9c-0.8-1.7-2.9-2.2-6.1-1.8c-6.5,0.7-10.7-0.3-12.7-4.5c-0.8-1.7-0.7-3.2,0.2-4.5
			C325.1,177.7,327.6,176.7,330.4,176.3z"/>
	</g>
	<path class="st5" d="M348.9,192.6c0,0.2-0.1,0.3-0.1,0.5c0,0,0,0.1-0.1,0.1c-0.1,0.1-0.1,0.3-0.2,0.4c0,0,0,0.1-0.1,0.1
		c-0.1,0.2-0.2,0.3-0.3,0.5c-0.2,0.2-0.3,0.4-0.5,0.6c0,0-0.1,0.1-0.1,0.1c-0.2,0.2-0.4,0.4-0.6,0.5c0,0-0.1,0.1-0.1,0.1
		c-0.2,0.2-0.5,0.3-0.7,0.5c0,0,0,0-0.1,0c-0.2,0.1-0.5,0.3-0.8,0.4c-0.1,0-0.2,0.1-0.2,0.1c-0.2,0.1-0.5,0.2-0.7,0.3
		c-0.1,0-0.1,0.1-0.2,0.1c-0.3,0.1-0.6,0.2-0.9,0.3c-0.1,0-0.2,0-0.2,0.1c-0.3,0.1-0.5,0.1-0.8,0.2c-0.1,0-0.2,0-0.3,0.1
		c-0.3,0.1-0.7,0.1-1,0.2c-0.4,0.1-0.8,0.1-1.2,0.1c0,0,0,0,0,0c-0.4,0-0.7,0-1.1,0c-0.1,0-0.2,0-0.3,0c-0.3,0-0.6,0-0.9,0
		c-0.1,0-0.2,0-0.3,0c-0.2,0-0.5,0-0.7-0.1c-0.2,0-0.4,0-0.6-0.1c-0.2,0-0.4-0.1-0.7-0.1c-0.2,0-0.4-0.1-0.6-0.1
		c-0.3-0.1-0.7-0.1-1-0.2c0,0-0.1,0-0.1,0c-0.4-0.1-0.8-0.2-1.2-0.4c-0.4-0.2-0.9-0.3-1.3-0.5c-0.2-0.1-0.4-0.2-0.7-0.3
		c-0.1,0-0.1-0.1-0.2-0.1c-0.2-0.1-0.4-0.2-0.6-0.3c0,0-0.1,0-0.1-0.1c-0.2-0.1-0.5-0.3-0.7-0.4c-0.1,0-0.1-0.1-0.2-0.1
		c-0.3-0.2-0.6-0.3-0.9-0.5l-2.2,10.4c0.3,0.2,0.6,0.4,0.9,0.5c0.1,0,0.1,0.1,0.2,0.1c0.3,0.2,0.5,0.3,0.7,0.4c0,0,0.1,0,0.1,0.1
		c0.1,0,0.2,0.1,0.3,0.1c0.1,0,0.2,0.1,0.3,0.1c0.1,0,0.1,0.1,0.2,0.1c0.2,0.1,0.4,0.2,0.7,0.3c0.4,0.2,0.9,0.4,1.3,0.5
		c0,0,0,0,0.1,0c0.4,0.1,0.7,0.2,1.1,0.3c0.1,0,0.1,0,0.2,0c0.3,0.1,0.6,0.2,0.9,0.2c0,0,0.1,0,0.1,0c0.2,0,0.4,0.1,0.6,0.1
		c0.2,0,0.4,0.1,0.7,0.1c0.2,0,0.4,0,0.6,0.1c0.2,0,0.4,0,0.5,0.1c0.1,0,0.1,0,0.2,0c0.1,0,0.2,0,0.3,0c0.3,0,0.6,0,0.9,0
		c0.1,0,0.2,0,0.3,0c0.4,0,0.7,0,1.1,0c0,0,0,0,0,0c0.3,0,0.6-0.1,0.9-0.1c0.1,0,0.2,0,0.3,0c0.3,0,0.7-0.1,1-0.2
		c0.1,0,0.2,0,0.3-0.1c0.3-0.1,0.5-0.1,0.8-0.2c0.1,0,0.2,0,0.2-0.1c0.3-0.1,0.6-0.2,0.9-0.3c0.1,0,0.1-0.1,0.2-0.1
		c0.2-0.1,0.5-0.2,0.7-0.3c0.1,0,0.2-0.1,0.2-0.1c0.3-0.1,0.5-0.3,0.8-0.4c0,0,0,0,0,0c0.2-0.1,0.4-0.3,0.6-0.4c0,0,0.1-0.1,0.1-0.1
		c0,0,0.1-0.1,0.1-0.1c0.2-0.2,0.4-0.4,0.6-0.5c0,0,0.1-0.1,0.1-0.1c0.2-0.2,0.4-0.4,0.5-0.6c0,0,0,0,0,0c0.1-0.2,0.2-0.3,0.3-0.5
		c0,0,0.1-0.1,0.1-0.1c0.1-0.1,0.1-0.2,0.2-0.4c0,0,0-0.1,0-0.1c0,0,0,0,0-0.1c0.1-0.2,0.1-0.3,0.1-0.5L348.9,192.6z"/>
</g>
<g class="st1">
	<path class="st3" d="M315,189.8c-0.1-0.2-0.2-0.5-0.4-0.7c0-0.1-0.1-0.2-0.1-0.2c-0.1-0.1-0.2-0.3-0.3-0.4
		c-0.1-0.1-0.1-0.2-0.2-0.3c-0.1-0.1-0.2-0.3-0.3-0.4c-0.1-0.1-0.1-0.2-0.2-0.3c-0.1-0.1-0.2-0.2-0.3-0.3c-0.1-0.1-0.2-0.2-0.3-0.2
		c-0.1-0.1-0.2-0.2-0.3-0.3c-0.1-0.1-0.2-0.2-0.3-0.2c-0.1-0.1-0.2-0.2-0.3-0.3c-0.1-0.1-0.2-0.1-0.3-0.2c-0.1-0.1-0.2-0.2-0.4-0.2
		c-0.1-0.1-0.2-0.1-0.3-0.2c-0.1-0.1-0.2-0.1-0.4-0.2c0,0-0.1,0-0.1-0.1c-0.1,0-0.1-0.1-0.2-0.1c-0.1-0.1-0.2-0.1-0.3-0.2
		c-0.1-0.1-0.2-0.1-0.4-0.1c-0.1,0-0.2-0.1-0.4-0.1c0,0-0.1,0-0.1-0.1c0,0-0.1,0-0.1,0c-0.4-0.1-0.7-0.2-1.1-0.3c0,0,0,0,0,0
		c-0.2,0-0.5-0.1-0.7-0.1c-0.1,0-0.1,0-0.2,0c-0.1,0-0.2,0-0.3,0c0,0-0.1,0-0.1,0c-0.2,0-0.3,0-0.5,0c-0.1,0-0.2,0-0.3,0
		c-0.2,0-0.3,0-0.5,0c-0.1,0-0.2,0-0.3,0c0,0-0.1,0-0.1,0c-0.3,0-0.6,0.1-0.8,0.2c-0.1,0-0.2,0.1-0.3,0.1c-0.2,0.1-0.3,0.1-0.5,0.2
		c-0.1,0-0.2,0.1-0.3,0.1c-0.1,0.1-0.3,0.1-0.4,0.2c-0.1,0-0.2,0.1-0.2,0.2c-0.1,0-0.1,0.1-0.2,0.1c0,0-0.1,0.1-0.1,0.1
		c-0.1,0.1-0.2,0.1-0.3,0.2c-0.1,0.1-0.2,0.2-0.3,0.3c-0.1,0.1-0.1,0.2-0.2,0.2c0,0-0.1,0.1-0.1,0.1c0,0.1-0.1,0.1-0.1,0.2
		c0,0.1-0.1,0.1-0.1,0.2c-0.1,0.1-0.1,0.3-0.2,0.4c0,0.1,0,0.1-0.1,0.2c0,0,0,0,0,0c-0.1,0.2-0.1,0.4-0.2,0.6l-2.2,10.4
		c0-0.2,0.1-0.4,0.2-0.6c0-0.1,0-0.1,0.1-0.2c0.1-0.1,0.1-0.3,0.2-0.4c0-0.1,0.1-0.1,0.1-0.2c0.1-0.1,0.1-0.2,0.2-0.3
		c0.1-0.1,0.1-0.2,0.2-0.2c0.1-0.1,0.2-0.2,0.3-0.3c0.1-0.1,0.2-0.1,0.3-0.2c0.1-0.1,0.2-0.2,0.3-0.2c0.1-0.1,0.2-0.1,0.2-0.2
		c0.1-0.1,0.3-0.1,0.4-0.2c0.1,0,0.2-0.1,0.3-0.1c0.2-0.1,0.3-0.1,0.5-0.2c0.1,0,0.2-0.1,0.3-0.1c0.3-0.1,0.5-0.1,0.8-0.2
		c0.1,0,0.3,0,0.4,0c0.2,0,0.3,0,0.5,0c0.1,0,0.2,0,0.3,0c0.2,0,0.3,0,0.5,0c0.2,0,0.3,0,0.5,0c0.1,0,0.1,0,0.2,0
		c0.2,0,0.5,0.1,0.7,0.1c0.4,0.1,0.7,0.2,1.1,0.3c0.1,0,0.2,0.1,0.3,0.1c0.1,0,0.2,0.1,0.4,0.1c0.1,0,0.2,0.1,0.4,0.1
		c0.1,0.1,0.2,0.1,0.3,0.2c0.1,0.1,0.2,0.1,0.3,0.2c0.1,0.1,0.2,0.1,0.4,0.2c0.1,0.1,0.2,0.1,0.3,0.2c0.1,0.1,0.2,0.2,0.4,0.2
		c0.1,0.1,0.2,0.1,0.3,0.2c0.1,0.1,0.2,0.2,0.3,0.3c0.1,0.1,0.2,0.2,0.3,0.2c0.1,0.1,0.2,0.2,0.3,0.3c0.1,0.1,0.2,0.2,0.3,0.2
		c0.1,0.1,0.2,0.2,0.3,0.3c0.1,0.1,0.2,0.2,0.2,0.3c0.1,0.1,0.2,0.2,0.3,0.4c0.1,0.1,0.1,0.2,0.2,0.3c0.1,0.1,0.2,0.3,0.3,0.4
		c0,0.1,0.1,0.2,0.1,0.2c0.1,0.2,0.3,0.5,0.4,0.7c0.4,0.7,0.6,1.5,0.7,2.2c0.1,0.7,0.1,1.3,0,2l0,0c0,0,0,0,0,0l2.2-10.4
		C316,192.7,315.7,191.3,315,189.8z"/>
	<g class="st1">
		<defs>
			<path id="SVGID_3_" class="st1" d="M321.9,195.2l-2.2,10.4c-0.7,3.3-3.7,5.9-8.4,6.5c-7.4,1-14.9-2.9-17.9-9
				c-1.1-2.2-1.3-4.3-1-6.1l2.2-10.4c-0.4,1.8-0.1,3.9,1,6.1c2.9,6.1,10.4,10.1,17.9,9C318.2,201.1,321.1,198.6,321.9,195.2z"/>
		</defs>
		<clipPath id="SVGID_4_">
			<use xlink:href="#SVGID_3_"  style="overflow:visible;"/>
		</clipPath>
		<path class="st7" d="M321.6,196.2c-0.2,0.6-0.5,1.2-0.9,1.7c-0.5,0.7-1.1,1.3-1.8,1.8c-1.4,1-3.2,1.7-5.4,2c-0.1,0-0.2,0-0.3,0
			c-1.1,0.1-2.2,0.2-3.3,0.1c-0.8-0.1-1.6-0.2-2.4-0.3c-0.8-0.2-1.5-0.4-2.3-0.6c-0.9-0.3-1.7-0.7-2.5-1.1c-3.1-1.6-5.7-4.1-7.1-7.1
			c-1.1-2.2-1.3-4.3-1-6.1l-2.2,10.4c-0.4,1.8-0.1,3.9,1,6.1c1.5,3,4,5.5,7.1,7.1c0.8,0.4,1.6,0.8,2.5,1.1c0.7,0.3,1.5,0.5,2.3,0.6
			c0.8,0.2,1.6,0.3,2.4,0.3c1.1,0.1,2.2,0,3.3-0.1c0.1,0,0.2,0,0.3,0c2.2-0.3,4-1,5.4-2c0.7-0.5,1.3-1.1,1.8-1.8
			c0.4-0.5,0.7-1.1,0.9-1.7c0.1-0.3,0.2-0.6,0.3-1l2.2-10.4C321.8,195.6,321.7,195.9,321.6,196.2z"/>
	</g>
	<g>
		<path class="st6" d="M303,180.1c7.5-1,15,2.9,17.9,9c2.9,6.1-0.2,11.6-7.5,12.6c-7.4,1-14.9-2.9-17.9-9
			C292.6,186.6,295.6,181.1,303,180.1z M311.3,197.5c4.1-0.6,5.5-3.9,3.7-7.7s-6-6.2-10.1-5.6c-4,0.6-5.5,3.8-3.7,7.5
			C303,195.5,307.3,198,311.3,197.5"/>
	</g>
</g>
<g class="st1">
	<g>
		<polygon class="st6" points="286.1,182.6 296.4,204 290.9,204.7 280.7,183.4 		"/>
	</g>
	<g>
		<polygon class="st8" points="296.4,204 294.1,214.4 288.7,215.2 290.9,204.7 		"/>
	</g>
	<g>
		<polygon class="st9" points="290.9,204.7 288.7,215.2 278.4,193.8 280.7,183.4 		"/>
	</g>
</g>
<g class="st1">
	<g>
		<polygon class="st8" points="267.3,189.5 265.1,200 262.4,200.3 264.7,189.9 		"/>
	</g>
	<path class="st10" d="M274,191.8c-0.1-0.2-0.2-0.4-0.4-0.6c0-0.1-0.1-0.1-0.1-0.2c-0.1-0.1-0.2-0.3-0.4-0.4
		c-0.1-0.1-0.1-0.1-0.2-0.1c-0.2-0.1-0.3-0.2-0.5-0.3c0,0-0.1,0-0.1-0.1c0,0,0,0,0,0c-0.2-0.1-0.4-0.2-0.7-0.3c0,0,0,0,0,0
		c-0.1,0-0.1,0-0.2-0.1c-0.2,0-0.3-0.1-0.5-0.1c0,0-0.1,0-0.1,0c-0.2,0-0.4-0.1-0.6-0.1c-0.1,0-0.2,0-0.3,0c0,0-0.1,0-0.1,0
		c-0.2,0-0.3,0-0.5,0c-0.2,0-0.4,0-0.6,0c-0.2,0-0.4,0-0.6,0c-0.2,0-0.3,0-0.5,0c-0.1,0-0.2,0-0.3,0l-2.2,10.4
		c0.3,0,0.5-0.1,0.7-0.1c0.2,0,0.4,0,0.6,0c0.2,0,0.4,0,0.6,0c0.2,0,0.3,0,0.5,0c0.2,0,0.3,0,0.4,0c0.2,0,0.4,0,0.6,0.1
		c0.2,0,0.4,0.1,0.6,0.1c0.1,0,0.1,0,0.2,0.1c0.3,0.1,0.5,0.2,0.7,0.3c0,0,0.1,0,0.1,0.1c0.2,0.1,0.4,0.2,0.5,0.3
		c0.1,0,0.1,0.1,0.2,0.1c0.1,0.1,0.2,0.2,0.4,0.4c0,0.1,0.1,0.1,0.1,0.2c0.1,0.2,0.3,0.4,0.4,0.6c0.3,0.6,0.4,1.2,0.3,1.7l2.2-10.4
		C274.4,193,274.3,192.4,274,191.8z"/>
	<path class="st10" d="M280.3,194.6c0,0.2-0.1,0.4-0.2,0.5c0,0.1,0,0.1-0.1,0.2c-0.1,0.1-0.1,0.3-0.2,0.4c0,0.1,0,0.1-0.1,0.2
		c-0.1,0.2-0.2,0.3-0.3,0.5c0,0,0,0,0,0c-0.2,0.2-0.4,0.4-0.6,0.6c0,0,0,0-0.1,0.1c-0.2,0.2-0.4,0.4-0.7,0.6c0,0-0.1,0.1-0.1,0.1
		c-0.1,0.1-0.2,0.1-0.3,0.2c-0.1,0.1-0.2,0.1-0.2,0.1c-0.1,0.1-0.2,0.1-0.3,0.2c-0.1,0-0.2,0.1-0.3,0.1c-0.1,0.1-0.2,0.1-0.3,0.2
		c-0.1,0-0.2,0.1-0.3,0.1c-0.1,0-0.2,0.1-0.4,0.1c-0.1,0-0.2,0.1-0.3,0.1c-0.1,0-0.3,0.1-0.4,0.1c-0.1,0-0.2,0.1-0.3,0.1
		c-0.1,0-0.3,0.1-0.4,0.1c-0.1,0-0.2,0.1-0.3,0.1c-0.2,0-0.3,0.1-0.5,0.1c-0.1,0-0.2,0-0.3,0.1c-0.3,0.1-0.6,0.1-0.8,0.1l-2.2,10.4
		c0.3,0,0.6-0.1,0.8-0.1c0.1,0,0.2,0,0.3-0.1c0.2,0,0.4-0.1,0.5-0.1c0.1,0,0.2-0.1,0.3-0.1c0.2,0,0.3-0.1,0.5-0.1
		c0.1,0,0.2-0.1,0.3-0.1c0.1,0,0.3-0.1,0.4-0.1c0.1,0,0.2-0.1,0.3-0.1c0.1,0,0.2-0.1,0.4-0.1c0.1,0,0.2-0.1,0.3-0.1
		c0.1-0.1,0.2-0.1,0.3-0.2c0.1,0,0.2-0.1,0.3-0.1c0.1-0.1,0.2-0.1,0.3-0.2c0.1,0,0.2-0.1,0.2-0.1c0.1-0.1,0.2-0.1,0.3-0.2
		c0,0,0.1,0,0.1-0.1c0,0,0,0,0.1-0.1c0.2-0.2,0.5-0.4,0.7-0.6c0,0,0,0,0.1-0.1c0.2-0.2,0.4-0.4,0.6-0.6c0,0,0,0,0,0c0,0,0,0,0,0
		c0.1-0.2,0.2-0.3,0.3-0.5c0,0,0.1-0.1,0.1-0.1c0.1-0.1,0.1-0.3,0.2-0.4c0,0,0-0.1,0-0.1c0,0,0,0,0-0.1c0.1-0.2,0.1-0.4,0.2-0.5
		L280.3,194.6z"/>
	<g>
		<polygon class="st8" points="272.7,199.7 270.4,210.1 267.3,210.5 269.6,200.1 		"/>
	</g>
	<g>
		<polygon class="st8" points="273,207.3 270.8,217.7 265.4,218.4 267.6,208 		"/>
	</g>
	<g>
		<path class="st6" d="M265.4,185.5c6.6-0.9,12.2,1.1,14.4,5.6c1.9,4-0.6,7.6-7.1,8.5l-3.1,0.4l3.4,7.2l-5.4,0.8l-10.3-21.3
			L265.4,185.5z M270.3,195.7c3.5-0.5,4.7-1.8,3.7-3.9c-1-2-3.3-2.7-6.6-2.3l-2.6,0.4l3,6.2L270.3,195.7"/>
	</g>
	<g>
		<polygon class="st9" points="267.6,208 265.4,218.4 255.1,197.1 257.4,186.7 		"/>
	</g>
</g>
<g class="st1">
	<g>
		<polygon class="st6" points="252.4,187.4 262.7,208.7 257.2,209.5 247,188.1 		"/>
	</g>
	<g>
		<polygon class="st8" points="262.7,208.7 260.5,219.1 255,219.9 257.2,209.5 		"/>
	</g>
	<g>
		<polygon class="st9" points="257.2,209.5 255,219.9 244.7,198.6 247,188.1 		"/>
	</g>
</g>
<g class="st1">
	<g>
		<polygon class="st11" points="244.8,193.7 242.5,204.1 238.5,206.7 240.7,196.3 		"/>
	</g>
	<path class="st3" d="M240.7,196.3c-0.3-0.2-0.5-0.4-0.8-0.5c-0.1-0.1-0.2-0.1-0.3-0.1c-0.1-0.1-0.2-0.1-0.4-0.2
		c-0.1,0-0.1-0.1-0.2-0.1c-0.1-0.1-0.2-0.1-0.4-0.2c-0.2-0.1-0.3-0.2-0.5-0.2c-0.1-0.1-0.3-0.1-0.4-0.1c-0.1,0-0.1-0.1-0.2-0.1
		c-0.1,0-0.3-0.1-0.4-0.1c-0.1,0-0.1,0-0.2-0.1c-0.2-0.1-0.5-0.1-0.7-0.2c0,0-0.1,0-0.1,0c-0.1,0-0.1,0-0.2,0
		c-0.2,0-0.5-0.1-0.7-0.1c-0.1,0-0.1,0-0.2,0c0,0-0.1,0-0.1,0c-0.2,0-0.4,0-0.6,0c0,0-0.1,0-0.1,0c-0.3,0-0.5,0-0.8,0.1
		c0,0-0.1,0-0.1,0c-0.3,0-0.6,0.1-0.8,0.2c-0.1,0-0.2,0.1-0.3,0.1c-0.2,0.1-0.3,0.1-0.5,0.2c-0.1,0-0.2,0.1-0.3,0.1
		c-0.1,0.1-0.3,0.1-0.4,0.2c-0.1,0-0.2,0.1-0.3,0.2c-0.1,0-0.1,0.1-0.2,0.1c0,0-0.1,0.1-0.1,0.1c-0.1,0.1-0.2,0.1-0.3,0.2
		c-0.1,0.1-0.2,0.2-0.3,0.3c-0.1,0.1-0.1,0.2-0.2,0.2c0,0-0.1,0.1-0.1,0.1c0,0.1-0.1,0.1-0.1,0.2c0,0.1-0.1,0.1-0.1,0.2
		c-0.1,0.1-0.1,0.3-0.2,0.4c0,0.1,0,0.1-0.1,0.2c0,0,0,0,0,0c-0.1,0.2-0.1,0.4-0.2,0.6l-2.2,10.4c0-0.2,0.1-0.4,0.2-0.6
		c0-0.1,0-0.1,0.1-0.2c0.1-0.1,0.1-0.3,0.2-0.4c0-0.1,0.1-0.1,0.1-0.2c0.1-0.1,0.1-0.2,0.2-0.3c0.1-0.1,0.1-0.2,0.2-0.2
		c0.1-0.1,0.2-0.2,0.3-0.3c0.1-0.1,0.2-0.1,0.3-0.2c0.1-0.1,0.2-0.2,0.3-0.2c0.1-0.1,0.2-0.1,0.3-0.2c0.1-0.1,0.3-0.1,0.4-0.2
		c0.1,0,0.2-0.1,0.3-0.1c0.2-0.1,0.3-0.1,0.5-0.2c0.1,0,0.2-0.1,0.3-0.1c0.3-0.1,0.5-0.1,0.8-0.2c0.3,0,0.6-0.1,0.9-0.1
		c0,0,0.1,0,0.1,0c0.2,0,0.5,0,0.8,0c0.1,0,0.1,0,0.2,0c0.2,0,0.5,0.1,0.7,0.1c0.1,0,0.1,0,0.2,0c0.3,0.1,0.6,0.1,0.8,0.2
		c0.1,0,0.1,0,0.2,0.1c0.2,0.1,0.4,0.1,0.6,0.2c0.1,0,0.3,0.1,0.4,0.1c0.2,0.1,0.3,0.1,0.5,0.2c0.1,0.1,0.3,0.1,0.4,0.2
		c0.2,0.1,0.4,0.2,0.6,0.3c0.1,0,0.2,0.1,0.3,0.1c0.3,0.2,0.5,0.3,0.8,0.5v0l0,0L240.7,196.3z"/>
	<g>
		<path class="st6" d="M231.5,190.2c4.5-0.6,9.3,0.8,13.3,3.5l-4.1,2.7c-2.3-1.6-5-2.4-7.3-2.1c-4.1,0.6-5.6,3.8-3.8,7.6
			s6.1,6.3,10.2,5.7c2.3-0.3,3.7-1.7,4.4-3.6l6.2,1.1c-0.9,3.5-4,6.1-8.4,6.7c-7.5,1-15-2.9-17.9-9
			C221.1,196.6,224,191.2,231.5,190.2z"/>
	</g>
	<g class="st1">
		<defs>
			<path id="SVGID_5_" class="st1" d="M220.8,207.1l2.2-10.4c-0.4,1.8-0.1,3.9,1,6.1c2.9,6.1,10.4,10.1,17.9,9
				c4.5-0.6,7.5-3.2,8.4-6.7l-2.2,10.4c-0.9,3.5-4,6.1-8.4,6.7c-7.5,1-15-2.9-17.9-9C220.7,211,220.4,208.9,220.8,207.1z"/>
		</defs>
		<clipPath id="SVGID_6_">
			<use xlink:href="#SVGID_5_"  style="overflow:visible;"/>
		</clipPath>
		<path class="st12" d="M250.1,205.9c-0.3,0.7-0.6,1.4-1.1,2c-0.5,0.7-1.2,1.4-1.9,1.9c-1.4,1-3.1,1.7-5.2,2c-0.1,0-0.2,0-0.3,0
			c-1.1,0.1-2.2,0.2-3.3,0.1c-0.8-0.1-1.6-0.2-2.4-0.3c-0.8-0.2-1.5-0.4-2.3-0.6c-0.9-0.3-1.7-0.7-2.5-1.1c-3.1-1.6-5.7-4.1-7.1-7.1
			c-1.1-2.2-1.3-4.3-1-6.1l-2.2,10.4c-0.4,1.8-0.1,3.9,1,6.1c1.4,3,4,5.5,7.1,7.1c0.8,0.4,1.6,0.8,2.5,1.1c0.7,0.3,1.5,0.5,2.3,0.6
			c0.8,0.2,1.6,0.3,2.4,0.3c1.1,0.1,2.2,0,3.3-0.1c0.1,0,0.2,0,0.3,0c2-0.3,3.8-1,5.2-2c0.8-0.6,1.4-1.2,1.9-1.9
			c0.4-0.6,0.8-1.3,1.1-2c0.1-0.3,0.2-0.5,0.2-0.8l2.2-10.4C250.3,205.4,250.2,205.6,250.1,205.9z"/>
	</g>
</g>
<g class="st1">
	<g>
		<polygon class="st6" points="214.4,192.7 224.6,214.1 219.2,214.8 208.9,193.5 		"/>
	</g>
	<g>
		<polygon class="st8" points="224.6,214.1 222.4,224.5 216.9,225.2 219.2,214.8 		"/>
	</g>
	<g>
		<polygon class="st9" points="219.2,214.8 216.9,225.2 206.7,203.9 208.9,193.5 		"/>
	</g>
</g>
<g class="st1">
	<g>
		<polygon class="st9" points="204.9,208 202.6,218.4 196.3,205.4 198.6,194.9 		"/>
	</g>
	<g>
		<polygon class="st8" points="214.2,215.5 212,225.9 207,226.6 209.2,216.2 		"/>
	</g>
	<g>
		<polygon class="st13" points="209.2,216.2 207,226.6 189.3,215.3 191.5,204.8 		"/>
	</g>
	<g>
		<polygon class="st6" points="204,194.2 214.2,215.5 209.2,216.2 191.5,204.8 197.8,217.8 192.4,218.6 182.1,197.3 187.4,196.5 
			204.9,208 198.6,194.9 		"/>
	</g>
	<g>
		<polygon class="st8" points="197.8,217.8 195.5,228.3 190.1,229 192.4,218.6 		"/>
	</g>
	<g>
		<polygon class="st9" points="192.4,218.6 190.1,229 179.9,207.7 182.1,197.3 		"/>
	</g>
</g>
<g class="st1">
	<g>
		<polygon class="st9" points="177.5,209.7 175.3,220.2 169.9,209.1 172.2,198.7 		"/>
	</g>
	<g class="st1">
		<defs>
			<path id="SVGID_7_" class="st1" d="M178.1,213.3l-2.2,10.4c0.2-1,0.1-2.3-0.6-3.6l2.2-10.4C178.2,211.1,178.3,212.3,178.1,213.3z
				"/>
		</defs>
		<clipPath id="SVGID_8_">
			<use xlink:href="#SVGID_7_"  style="overflow:visible;"/>
		</clipPath>
		<g class="st14">
			<path class="st5" d="M178.1,213.3l-2.2,10.4c0.2-1,0.1-2.3-0.6-3.6l2.2-10.4C178.2,211.1,178.3,212.3,178.1,213.3"/>
		</g>
	</g>
	<g>
		<polygon class="st9" points="158.2,212.3 156,222.7 150.7,211.8 153,201.4 		"/>
	</g>
	<path class="st5" d="M183.9,215c-0.1,0.3-0.1,0.5-0.2,0.8c0,0.1,0,0.1-0.1,0.2c-0.1,0.2-0.2,0.5-0.3,0.7c0,0,0,0,0,0
		c-0.1,0.2-0.3,0.4-0.4,0.7c-0.1,0.1-0.1,0.1-0.2,0.2c-0.1,0.1-0.1,0.1-0.2,0.2c-0.1,0.1-0.1,0.2-0.2,0.2c-0.1,0.1-0.1,0.1-0.2,0.2
		c-0.1,0.1-0.2,0.2-0.2,0.2c-0.1,0.1-0.1,0.1-0.2,0.2c-0.1,0.1-0.2,0.2-0.3,0.2c-0.1,0.1-0.1,0.1-0.2,0.2c-0.1,0.1-0.2,0.1-0.3,0.2
		c-0.1,0.1-0.2,0.1-0.3,0.2c-0.1,0.1-0.2,0.1-0.3,0.2c-0.1,0.1-0.2,0.1-0.3,0.2c-0.1,0.1-0.2,0.1-0.3,0.2c-0.1,0-0.2,0.1-0.3,0.1
		c-0.1,0.1-0.2,0.1-0.4,0.2c-0.1,0-0.2,0.1-0.3,0.1c-0.1,0-0.3,0.1-0.4,0.1c-0.1,0-0.2,0.1-0.3,0.1c-0.1,0-0.3,0.1-0.5,0.1
		c-0.1,0-0.2,0.1-0.3,0.1c-0.2,0-0.4,0.1-0.5,0.1c-0.1,0-0.2,0-0.3,0.1c-0.3,0.1-0.6,0.1-0.8,0.1c-0.4,0.1-0.9,0.1-1.3,0.1
		c-0.1,0-0.1,0-0.2,0c-0.4,0-0.7,0-1.1,0c-0.1,0-0.1,0-0.2,0c-0.4,0-0.8,0-1.1-0.1c-0.2,0-0.3,0-0.5-0.1c-0.3,0-0.5-0.1-0.8-0.1
		c-0.2,0-0.3-0.1-0.5-0.1c-0.2,0-0.5-0.1-0.7-0.1c-0.2,0-0.3-0.1-0.5-0.1c-0.3-0.1-0.5-0.1-0.8-0.2c-0.1,0-0.3-0.1-0.4-0.1
		c-0.2-0.1-0.4-0.2-0.7-0.2c-0.2-0.1-0.4-0.1-0.5-0.2c-0.2-0.1-0.4-0.2-0.6-0.3c-0.2-0.1-0.3-0.2-0.5-0.2c-0.2-0.1-0.4-0.2-0.6-0.3
		c-0.2-0.1-0.3-0.2-0.5-0.3c-0.2-0.1-0.4-0.2-0.6-0.4c-0.2-0.1-0.3-0.2-0.5-0.3c-0.2-0.1-0.4-0.3-0.5-0.4c-0.1-0.1-0.3-0.2-0.4-0.4
		c-0.2-0.2-0.3-0.3-0.5-0.5c-0.1-0.1-0.3-0.3-0.4-0.4c-0.2-0.2-0.3-0.4-0.5-0.5c-0.1-0.1-0.2-0.3-0.4-0.4c-0.2-0.2-0.3-0.4-0.5-0.6
		c-0.1-0.1-0.2-0.3-0.3-0.4c-0.2-0.2-0.3-0.5-0.5-0.7c-0.1-0.1-0.2-0.2-0.2-0.4c-0.2-0.4-0.4-0.8-0.6-1.1l-2.2,10.4
		c0.2,0.4,0.4,0.8,0.6,1.1c0.1,0.1,0.2,0.2,0.2,0.4c0.2,0.2,0.3,0.5,0.5,0.7c0.1,0.1,0.2,0.3,0.3,0.4c0.2,0.2,0.3,0.4,0.5,0.6
		c0.1,0.1,0.2,0.3,0.4,0.4c0.2,0.2,0.3,0.4,0.5,0.5c0.1,0.1,0.3,0.3,0.4,0.4c0.2,0.2,0.3,0.3,0.5,0.5c0.1,0.1,0.3,0.2,0.4,0.4
		c0.2,0.1,0.4,0.3,0.5,0.4c0.2,0.1,0.3,0.2,0.5,0.3c0.2,0.1,0.4,0.3,0.6,0.4c0.2,0.1,0.3,0.2,0.5,0.3c0.2,0.1,0.3,0.2,0.5,0.3
		c0,0,0.1,0,0.1,0c0.2,0.1,0.3,0.2,0.5,0.2c0.2,0.1,0.4,0.2,0.6,0.3c0.2,0.1,0.4,0.1,0.5,0.2c0.2,0.1,0.3,0.1,0.5,0.2
		c0.1,0,0.1,0,0.2,0.1c0.1,0,0.3,0.1,0.4,0.1c0.3,0.1,0.5,0.1,0.8,0.2c0.1,0,0.3,0.1,0.5,0.1c0.1,0,0.2,0.1,0.3,0.1
		c0.1,0,0.3,0,0.4,0.1c0.2,0,0.3,0.1,0.5,0.1c0.3,0,0.5,0.1,0.8,0.1c0.2,0,0.3,0,0.5,0.1c0.1,0,0.1,0,0.2,0c0.3,0,0.6,0,1,0
		c0.1,0,0.1,0,0.2,0c0.4,0,0.7,0,1.1,0c0.1,0,0.2,0,0.2,0c0.3,0,0.7-0.1,1-0.1c0.1,0,0.2,0,0.3,0c0.3,0,0.6-0.1,0.8-0.1
		c0.1,0,0.2,0,0.3-0.1c0.2,0,0.4-0.1,0.5-0.1c0.1,0,0.2-0.1,0.3-0.1c0.2,0,0.3-0.1,0.5-0.1c0.1,0,0.2-0.1,0.3-0.1
		c0.1,0,0.3-0.1,0.4-0.1c0.1,0,0.2-0.1,0.3-0.1c0.1-0.1,0.3-0.1,0.4-0.2c0.1,0,0.2-0.1,0.3-0.1c0.1-0.1,0.2-0.1,0.3-0.2
		c0.1,0,0.2-0.1,0.3-0.2c0.1-0.1,0.2-0.1,0.3-0.2c0.1-0.1,0.2-0.1,0.3-0.2c0.1-0.1,0.2-0.1,0.2-0.2c0,0,0,0,0.1,0
		c0.1-0.1,0.1-0.1,0.2-0.2c0.1-0.1,0.2-0.1,0.3-0.2c0.1-0.1,0.1-0.1,0.2-0.2c0.1-0.1,0.2-0.2,0.2-0.2c0.1-0.1,0.1-0.1,0.2-0.2
		c0.1-0.1,0.1-0.2,0.2-0.2c0.1-0.1,0.1-0.1,0.2-0.2c0,0,0.1-0.1,0.1-0.1c0,0,0-0.1,0.1-0.1c0.1-0.2,0.3-0.4,0.4-0.7c0,0,0,0,0,0
		c0.1-0.2,0.2-0.5,0.3-0.7c0,0,0-0.1,0-0.1c0,0,0-0.1,0-0.1c0.1-0.3,0.2-0.5,0.2-0.8L183.9,215z"/>
	<g>
		<path class="st6" d="M177.6,197.9l5.3,10.9c3,6.3,0.1,11.2-7.2,12.3c-7.5,1-14.4-2.5-17.4-8.8l-5.3-10.9l5.4-0.8l5.3,11.1
			c1.8,3.7,5.9,5.7,9.8,5.2c3.9-0.5,5.8-3.4,4-7.1l-5.3-11.1L177.6,197.9z"/>
	</g>
</g>
<g class="st1">
	<g>
		<polygon class="st3" points="146.9,210.8 144.7,221.2 141.5,232 143.8,221.6 		"/>
	</g>
	<g>
		<polygon class="st15" points="142.7,221.7 140.4,232.2 128.3,223.5 130.6,213.1 		"/>
	</g>
	<g>
		<polygon class="st16" points="143.8,221.6 141.5,232 140.4,232.2 142.7,221.7 		"/>
	</g>
	<g>
		<polygon class="st8" points="158.7,223.3 156.5,233.7 151.1,234.5 153.3,224.1 		"/>
	</g>
	<g>
		<polygon class="st9" points="153.3,224.1 151.1,234.5 144.7,221.2 146.9,210.8 		"/>
	</g>
	<g>
		<polygon class="st9" points="131.5,227.1 129.3,237.6 119,216.2 121.3,205.8 		"/>
	</g>
	<g>
		<polygon class="st8" points="136.9,226.4 134.7,236.8 129.3,237.6 131.5,227.1 		"/>
	</g>
	<g>
		<polygon class="st6" points="148.5,202 158.7,223.3 153.3,224.1 146.9,210.8 143.8,221.6 142.7,221.7 130.6,213.1 136.9,226.4 
			131.5,227.1 121.3,205.8 126.7,205 139.8,214.2 143.1,202.8 		"/>
	</g>
</g>
<g>
	<g>
		<polygon class="st17" points="40.8,76.5 41.6,78.1 36.2,78.9 36.9,80.2 41.4,79.6 42.2,81.3 37.7,81.9 38.8,84.2 44.3,83.4 
			45.1,85.1 37.4,86.2 33.2,77.5 		"/>
	</g>
	<g>
		<polygon class="st17" points="31.8,77.7 32.6,79.4 29.5,79.8 32.8,86.8 30.6,87.1 27.2,80.1 24.1,80.6 23.3,78.9 		"/>
	</g>
	<g>
		<polygon class="st17" points="21.9,79.1 22.7,80.8 17.3,81.5 18,82.9 22.5,82.3 23.3,83.9 18.8,84.6 19.9,86.9 25.4,86.1 
			26.2,87.7 18.5,88.8 14.3,80.2 		"/>
	</g>
	<g>
		<path class="st17" d="M7.4,81.1c3.2-0.4,6.1,1.1,7.3,3.6c1.2,2.5,0.1,4.6-3,5.1l-3.8,0.5l-4.2-8.7L7.4,81.1z M10.8,88.2
			c1.9-0.3,2.2-1.6,1.5-3.2c-0.6-1.2-2.2-2.5-4.3-2.2L6.7,83l2.6,5.5L10.8,88.2"/>
	</g>
	<g>
		<path class="st17" d="M47.7,75.4c1.8-0.3,3.8,0.3,5.4,1.4l-1.6,1.1c-0.9-0.7-2-1-3-0.8c-1.6,0.2-2.3,1.5-1.5,3.1
			c0.7,1.5,2.5,2.6,4.1,2.3c0.9-0.1,1.5-0.7,1.8-1.4l2.5,0.5c-0.4,1.4-1.6,2.5-3.4,2.7c-3,0.4-6.1-1.2-7.3-3.7S44.7,75.8,47.7,75.4z
			"/>
	</g>
	<g>
		<path class="st17" d="M59,73.8c1.8-0.3,3.8,0.3,5.4,1.4l-1.6,1.1c-0.9-0.6-2-1-3-0.8c-1.6,0.2-2.3,1.5-1.5,3.1s2.5,2.6,4.1,2.3
			c0.9-0.1,1.5-0.7,1.8-1.4l2.5,0.5c-0.4,1.4-1.6,2.5-3.4,2.7c-3,0.4-6.1-1.2-7.3-3.7S55.9,74.3,59,73.8z"/>
	</g>
	<g>
		<polygon class="st17" points="67.5,72.7 71.6,81.4 69.4,81.7 65.3,73 		"/>
	</g>
	<g>
		<polygon class="st17" points="75,68.2 73.7,70.8 72.1,71 72.9,68.5 		"/>
	</g>
	<g>
		<path class="st17" d="M74.3,71.7c3-0.4,6.1,1.2,7.3,3.7c1.2,2.5-0.1,4.7-3,5.1c-3,0.4-6.1-1.2-7.3-3.7
			C70.1,74.3,71.3,72.1,74.3,71.7z M77.7,78.7c1.6-0.2,2.2-1.6,1.5-3.1s-2.5-2.5-4.1-2.3c-1.6,0.2-2.2,1.5-1.5,3.1
			C74.3,77.9,76.1,79,77.7,78.7"/>
	</g>
	<g>
		<polygon class="st17" points="90.1,69.5 94.3,78.2 92.3,78.5 85.1,73.8 87.6,79.1 85.4,79.4 81.3,70.8 83.4,70.5 90.5,75.1 
			88,69.8 		"/>
	</g>
	<g>
		<path class="st17" d="M102.5,67.8c3.2-0.4,6.1,1.1,7.3,3.6c1.2,2.5,0.1,4.6-3,5.1L103,77l-4.2-8.7L102.5,67.8z M105.9,74.8
			c1.9-0.3,2.3-1.6,1.5-3.2c-0.6-1.2-2.2-2.5-4.3-2.2l-1.3,0.2l2.6,5.5L105.9,74.8"/>
	</g>
	<g>
		<polygon class="st17" points="117,65.7 117.8,67.4 112.4,68.2 113.1,69.5 117.6,68.9 118.4,70.6 113.9,71.2 115,73.5 120.5,72.7 
			121.3,74.4 113.6,75.5 109.4,66.8 		"/>
	</g>
	<g>
		<path class="st17" d="M144.4,61.9l2.1,4.4c1.2,2.6,0,4.6-2.9,5c-3,0.4-5.8-1-7.1-3.6l-2.1-4.4l2.2-0.3l2.2,4.5
			c0.7,1.5,2.4,2.3,4,2.1c1.6-0.2,2.3-1.4,1.6-2.9l-2.2-4.5L144.4,61.9z"/>
	</g>
	<g>
		<polygon class="st17" points="133.4,63.4 134.2,65.1 128.6,65.9 129.5,67.7 134.1,67.1 134.9,68.7 130.3,69.4 132,72.9 
			129.8,73.2 125.6,64.5 		"/>
	</g>
	<g>
		<path class="st17" d="M162.8,59.3l8.3,8.1l-2.3,0.3l-1.8-1.8l-4.1,0.6l0.1,2l-2.3,0.3l0-9.3L162.8,59.3z M162.9,64.8l2.6-0.4
			l-2.7-2.7L162.9,64.8"/>
	</g>
	<g>
		<path class="st17" d="M151.2,60.9c1.8-0.3,3.8,0.3,5.4,1.4l-1.6,1.1c-0.9-0.6-2-1-3-0.8c-1.6,0.2-2.3,1.5-1.5,3.1
			c0.7,1.5,2.5,2.6,4.1,2.3c0.8-0.1,1.4-0.6,1.7-1.3L156,66l-2.4,0.3l-0.8-1.7l4.6-0.6l2.4,4.9l-2.2,0.3l-0.2-0.4
			c-0.5,0.4-1.1,0.6-2,0.8c-3,0.4-6.1-1.2-7.3-3.7C147,63.5,148.2,61.3,151.2,60.9z"/>
	</g>
	<g>
		<path class="st17" d="M172.2,57.9c1.3-0.2,2.6,0.1,3.8,0.6c0.4,0.2,0.8,0.4,1.3,0.7l-1.5,1.2c-0.3-0.2-0.7-0.5-1-0.6
			c-0.6-0.3-1.2-0.4-1.8-0.3c-1.2,0.2-1.5,0.6-1.2,1.1c0.3,0.5,0.9,0.6,2.2,0.5c2.6-0.3,4.7,0.5,5.5,2.2c0.3,0.7,0.3,1.4-0.1,1.9
			c-0.6,0.8-1.7,1.3-3,1.5c-1.3,0.2-2.7,0-4-0.5c-0.4-0.2-0.8-0.4-1.3-0.7l1.9-1c0.7,0.4,1.7,0.7,2.6,0.6c0.8-0.1,1.3-0.3,1.5-0.6
			c0.2-0.2,0.2-0.5,0.1-0.8c-0.3-0.7-1.2-0.9-2.5-0.7c-2.6,0.3-4.4-0.1-5.2-1.8c-0.3-0.7-0.3-1.3,0.1-1.8
			C170,58.5,171,58.1,172.2,57.9z"/>
	</g>
</g>
<g>
	<g>
		<polygon class="st17" points="83.2,348.9 86.8,356.3 92.4,355.5 93.3,357.2 85.3,358.4 80.9,349.2 		"/>
	</g>
	<g class="st1">
		<g>
			<path class="st17" d="M73.6,350.2c3.2-0.4,6.4,1.2,7.7,3.9c1.3,2.6-0.1,5-3.2,5.4c-3.2,0.4-6.4-1.2-7.7-3.9
				C69.1,352.9,70.4,350.6,73.6,350.2z M77.1,357.6c1.7-0.2,2.4-1.7,1.6-3.3c-0.8-1.6-2.6-2.7-4.3-2.4c-1.7,0.2-2.4,1.6-1.6,3.2
				C73.6,356.8,75.4,357.9,77.1,357.6"/>
		</g>
		<g>
			<path class="st17" d="M66.2,357.1c1.6,1,3.6,2.2,5.2,3.2l-3,0.4l-4.6-2.9l-0.9,0.1l1.6,3.3l-2.3,0.3l-4.4-9.2l3.5-0.5
				c3.1-0.4,5.2,0.5,6,2.2C67.8,355.3,67.4,356.4,66.2,357.1z M63.3,356.1c1.4-0.2,1.9-0.8,1.5-1.6c-0.4-0.8-1.4-1.1-2.8-0.9
				l-1.1,0.2l1.2,2.5L63.3,356.1"/>
		</g>
	</g>
	<g>
		<polygon class="st17" points="56.2,352.7 57.1,354.4 53.7,354.9 57.3,362.3 54.9,362.6 51.4,355.2 48.1,355.7 47.2,353.9 		"/>
	</g>
	<g>
		<polygon class="st17" points="45.7,354.1 50.1,363.3 48,363.6 40.4,358.7 43,364.3 40.7,364.6 36.3,355.5 38.6,355.1 46.1,360.1 
			43.4,354.5 		"/>
	</g>
	<g>
		<path class="st17" d="M29,356.4c3.2-0.4,6.4,1.2,7.7,3.9c1.3,2.6-0.1,5-3.2,5.4c-3.2,0.4-6.4-1.2-7.7-3.9
			C24.5,359.2,25.8,356.9,29,356.4z M32.6,363.9c1.7-0.2,2.4-1.7,1.6-3.3c-0.8-1.6-2.6-2.7-4.3-2.4c-1.7,0.2-2.4,1.6-1.6,3.2
			C29,363,30.8,364.1,32.6,363.9"/>
	</g>
	<g>
		<path class="st17" d="M17.2,358.1c1.9-0.3,4,0.3,5.7,1.5l-1.7,1.1c-1-0.7-2.1-1-3.1-0.9c-1.7,0.2-2.4,1.6-1.6,3.2
			c0.8,1.6,2.6,2.7,4.4,2.5c1-0.1,1.6-0.7,1.9-1.5l2.6,0.5c-0.4,1.5-1.7,2.6-3.6,2.9c-3.2,0.4-6.4-1.2-7.7-3.9
			C12.7,360.9,14,358.5,17.2,358.1z"/>
	</g>
	<g>
		<polygon class="st17" points="119,343.8 123.4,353 121.2,353.3 113.6,348.4 116.3,354 114,354.3 109.6,345.2 111.9,344.8 
			119.3,349.8 116.7,344.2 		"/>
	</g>
	<g>
		<path class="st17" d="M107.6,345.4l2.3,4.7c1.3,2.7,0,4.8-3.1,5.3c-3.2,0.5-6.2-1.1-7.5-3.8l-2.3-4.7l2.3-0.3l2.3,4.8
			c0.8,1.6,2.5,2.5,4.2,2.2c1.7-0.2,2.5-1.5,1.7-3l-2.3-4.8L107.6,345.4z"/>
	</g>
	<g>
		<polygon class="st17" points="145.5,340.1 146.4,341.9 140.7,342.7 141.4,344.1 146.2,343.5 147,345.2 142.2,345.9 143.4,348.3 
			149.3,347.5 150.1,349.2 141.9,350.4 137.5,341.2 		"/>
	</g>
	<g>
		<polygon class="st17" points="136.2,341.4 136.2,351.2 133.6,351.6 124.7,343 127.4,342.7 133.7,348.8 133.6,341.8 		"/>
	</g>
	<g>
		<polygon class="st17" points="123.4,343.2 127.8,352.4 125.5,352.7 121.1,343.5 		"/>
	</g>
	<g>
		<path class="st17" d="M156.2,344.5c1.6,1,3.6,2.2,5.2,3.2l-3,0.4l-4.6-2.9l-0.9,0.1l1.6,3.3L152,349l-4.4-9.2l3.5-0.5
			c3.1-0.4,5.2,0.5,6,2.2C157.7,342.7,157.4,343.8,156.2,344.5z M153.2,343.5c1.4-0.2,1.9-0.8,1.5-1.6c-0.4-0.8-1.4-1.1-2.8-0.9
			l-1.1,0.2l1.2,2.5L153.2,343.5"/>
	</g>
	<g>
		<polygon class="st17" points="183,334.8 186.6,342.3 192.2,341.5 193.1,343.2 185.1,344.3 180.7,335.2 		"/>
	</g>
	<g>
		<path class="st17" d="M175,336l8.8,8.5l-2.5,0.3l-1.8-1.9l-4.4,0.6l0.1,2.1l-2.5,0.3l0-9.8L175,336z M175,341.7l2.8-0.4l-2.9-2.9
			L175,341.7"/>
	</g>
	<g>
		<path class="st17" d="M162.7,337.6c1.4-0.2,2.8,0.1,4,0.6c0.4,0.2,0.9,0.4,1.4,0.8l-1.6,1.3c-0.4-0.3-0.8-0.5-1-0.6
			c-0.6-0.3-1.3-0.4-2-0.3c-1.2,0.2-1.5,0.6-1.3,1.1c0.3,0.6,1,0.7,2.4,0.5c2.8-0.3,5,0.5,5.8,2.3c0.4,0.7,0.3,1.4-0.1,2
			c-0.6,0.8-1.8,1.4-3.1,1.5c-1.4,0.2-2.9,0.1-4.3-0.6c-0.4-0.2-0.8-0.4-1.4-0.8l2-1.1c0.7,0.4,1.8,0.8,2.7,0.6
			c0.8-0.1,1.3-0.4,1.6-0.7c0.2-0.3,0.2-0.5,0.1-0.8c-0.3-0.7-1.2-1-2.6-0.8c-2.8,0.3-4.6-0.1-5.5-1.9c-0.3-0.7-0.3-1.4,0.1-1.9
			C160.5,338.2,161.5,337.8,162.7,337.6z"/>
	</g>
</g>
<g>
	<g>
		<path class="st17" d="M299.4,294.5c4.1-0.6,8.2,1.6,9.8,4.9c1.6,3.3-0.1,6.3-4.1,6.9c-4,0.6-8.1-1.6-9.7-4.9
			C293.7,298,295.3,295.1,299.4,294.5z M303.9,304c2.2-0.3,3-2.1,2-4.2c-1-2-3.3-3.4-5.5-3.1c-2.2,0.3-3,2.1-2,4.1
			C299.4,302.9,301.7,304.3,303.9,304"/>
	</g>
	<g>
		<polygon class="st17" points="290.2,295.9 295.7,307.5 292.8,307.9 290.2,302.6 284.3,303.4 286.9,308.8 283.9,309.2 278.3,297.6 
			281.3,297.1 283.2,301.2 289.2,300.4 287.2,296.3 		"/>
	</g>
	<g>
		<path class="st17" d="M271.1,298.6l11.2,10.8l-3.1,0.4l-2.3-2.3l-5.6,0.8l0.1,2.7l-3.1,0.4l0-12.4L271.1,298.6z M271.1,305.9
			l3.5-0.5l-3.7-3.7L271.1,305.9"/>
	</g>
	<g>
		<path class="st17" d="M319.5,299.2c2.1,1.3,4.6,2.9,6.6,4.1l-3.8,0.5l-5.9-3.7l-1.2,0.2l2,4.2l-2.9,0.4l-5.6-11.6l4.4-0.6
			c3.9-0.5,6.6,0.6,7.7,2.8C321.5,296.9,321,298.3,319.5,299.2z M315.8,297.9c1.8-0.3,2.4-1,1.9-2c-0.5-1-1.7-1.4-3.6-1.1l-1.4,0.2
			l1.5,3.2L315.8,297.9"/>
	</g>
	<g>
		<path class="st17" d="M342.4,288.5c4.1-0.6,8.1,1.6,9.8,4.9c1.6,3.3-0.1,6.3-4.1,6.9c-4,0.6-8.1-1.6-9.7-4.9
			C336.7,292,338.3,289,342.4,288.5z M346.9,297.9c2.2-0.3,3-2.1,2-4.2c-1-2-3.3-3.4-5.5-3.1c-2.2,0.3-3,2.1-2,4.1
			C342.4,296.9,344.7,298.2,346.9,297.9"/>
	</g>
	<g>
		<path class="st17" d="M333.1,297.3c2.1,1.3,4.6,2.9,6.6,4.1l-3.8,0.5l-5.9-3.7l-1.2,0.2l2,4.2l-2.9,0.4l-5.6-11.6l4.4-0.6
			c3.9-0.5,6.6,0.6,7.7,2.8C335,295,334.6,296.4,333.1,297.3z M329.3,296c1.8-0.3,2.4-1,1.9-2c-0.5-1-1.7-1.4-3.6-1.1l-1.4,0.2
			l1.5,3.2L329.3,296"/>
	</g>
	<g>
		<path class="st17" d="M406.6,287c2.5-0.4,4.9,0.7,5.7,2.6c0.9,1.8-0.2,3.4-2.7,3.7c-2.5,0.3-4.9-0.8-5.7-2.5
			C403.1,288.9,404.2,287.3,406.6,287z M408.7,291.3c1-0.1,1.2-0.7,0.9-1.3c-0.3-0.7-1-1.1-2-1c-0.9,0.1-1.2,0.7-0.9,1.4
			C407.1,291,407.8,291.4,408.7,291.3"/>
	</g>
	<g>
		<polygon class="st17" points="401,279.4 404.3,279 400.2,294.1 397,294.5 		"/>
	</g>
	<g>
		<path class="st17" d="M397.3,282.4c0.9,1.8-0.2,3.4-2.7,3.7c-2.5,0.3-4.9-0.8-5.7-2.5c-0.9-1.8,0.2-3.4,2.7-3.7
			C394.1,279.5,396.4,280.6,397.3,282.4z M391.7,283.2c0.3,0.7,1.1,1.1,2,0.9c1-0.1,1.2-0.7,0.9-1.3c-0.3-0.7-1-1.1-2-1
			C391.6,282,391.3,282.5,391.7,283.2"/>
	</g>
	<g>
		<path class="st17" d="M379.7,283.5c3.7-0.5,7.8,1.7,9.3,4.8c1.5,3.2,0,6.2-3.7,6.7c-3.7,0.5-7.7-1.7-9.3-4.9
			C374.4,287,376,284,379.7,283.5z M384.2,292.8c2.1-0.3,2.7-2.1,1.7-4.1c-1-2-3-3.4-5.2-3.1c-2.1,0.3-2.7,2-1.8,4
			C379.9,291.7,382,293.1,384.2,292.8"/>
	</g>
	<g>
		<path class="st17" d="M370.1,284.7l1.1,2.2l-5.2,0.7l0.4,1.8c0.4-0.1,0.8-0.2,1.3-0.3c1.7-0.2,3.3,0,4.7,0.7
			c1.1,0.6,1.9,1.3,2.4,2.4c0.6,1.1,0.5,2.2-0.1,3.1c-0.6,0.8-1.8,1.5-3.3,1.7c-2.7,0.4-5-0.3-6.6-1.7l2.2-1.6
			c0.9,0.9,2,1.3,3.4,1.1c0.6-0.1,1.1-0.4,1.4-0.7c0.2-0.4,0.3-0.9,0-1.5c-0.2-0.4-0.6-0.8-1.2-1.1c-0.6-0.3-1.3-0.4-2.1-0.3
			c-0.7,0.1-1.3,0.4-1.6,1l-2.9-0.5l-1.3-6L370.1,284.7z"/>
	</g>
	<g>
		<path class="st17" d="M471.1,270.5l11.2,10.8l-3.1,0.4l-2.3-2.3l-5.6,0.8l0.1,2.7l-3.1,0.4l0-12.4L471.1,270.5z M471.2,277.8
			l3.5-0.5l-3.7-3.7L471.2,277.8"/>
	</g>
	<g>
		<path class="st17" d="M461.1,271.9l2.9,6c1.7,3.5,0,6.1-3.9,6.7c-4.1,0.6-7.8-1.3-9.5-4.8l-2.9-6l2.9-0.4l2.9,6
			c1,2,3.2,3.1,5.4,2.8c2.1-0.3,3.1-1.9,2.2-3.9l-2.9-6L461.1,271.9z"/>
	</g>
	<g>
		<path class="st17" d="M439.5,274.8c2.4-0.3,5.1,0.4,7.2,1.9l-2.2,1.4c-1.3-0.9-2.7-1.3-4-1.1c-2.2,0.3-3,2.1-2.1,4.1
			c1,2,3.3,3.4,5.5,3.1c1.1-0.2,1.9-0.8,2.3-1.7l-0.4-0.8l-3.2,0.5l-1.1-2.2l6.2-0.9l3.2,6.6l-2.9,0.4l-0.3-0.5
			c-0.7,0.5-1.5,0.9-2.6,1c-4.1,0.6-8.2-1.6-9.8-4.9C433.8,278.3,435.5,275.4,439.5,274.8z"/>
	</g>
	<g>
		<path class="st17" d="M425.9,276.8l11.2,10.8l-3.1,0.4l-2.3-2.3l-5.6,0.8l0.1,2.7l-3.1,0.4l0-12.4L425.9,276.8z M426,284.1
			l3.5-0.5l-3.6-3.7L426,284.1"/>
	</g>
</g>
<g>
	<g>
		<path class="st17" d="M19.8,291.1l9,8.7l-2.5,0.4l-1.9-1.9l-4.5,0.6l0.1,2.2l-2.5,0.4l0-10L19.8,291.1z M19.9,297.1l2.8-0.4
			l-2.9-3L19.9,297.1"/>
	</g>
	<g>
		<path class="st17" d="M6.3,293c3.4-0.5,6.6,1.2,7.9,3.9c1.3,2.7,0.1,5-3.3,5.5L6.8,303l-4.5-9.4L6.3,293z M10,300.7
			c2-0.3,2.4-1.7,1.6-3.5c-0.6-1.3-2.4-2.8-4.7-2.4L5.5,295l2.9,5.9L10,300.7"/>
	</g>
	<g>
		<polygon class="st17" points="46.2,287.4 50.8,296.8 48.4,297.1 46.3,292.9 41.5,293.5 43.6,297.8 41.2,298.2 36.7,288.8 
			39.1,288.4 40.7,291.7 45.4,291.1 43.8,287.8 		"/>
	</g>
	<g>
		<path class="st17" d="M29.9,289.6c1.4-0.2,2.8,0.1,4.1,0.6c0.4,0.2,0.9,0.4,1.4,0.8l-1.6,1.3c-0.4-0.3-0.8-0.5-1.1-0.6
			c-0.6-0.3-1.3-0.4-2-0.3c-1.2,0.2-1.6,0.6-1.3,1.2c0.3,0.6,1,0.7,2.4,0.5c2.9-0.3,5.1,0.5,6,2.4c0.4,0.7,0.3,1.5-0.1,2.1
			c-0.6,0.8-1.9,1.4-3.2,1.6c-1.4,0.2-2.9,0.1-4.4-0.6c-0.4-0.2-0.9-0.4-1.5-0.8l2.1-1.1c0.8,0.4,1.8,0.8,2.8,0.6
			c0.8-0.1,1.4-0.4,1.6-0.7c0.2-0.3,0.2-0.5,0.1-0.9c-0.3-0.8-1.3-1-2.7-0.8c-2.8,0.3-4.7-0.1-5.6-2c-0.4-0.7-0.3-1.4,0.1-2
			C27.6,290.3,28.7,289.8,29.9,289.6z"/>
	</g>
	<g>
		<path class="st17" d="M64.3,284.8c3.3-0.5,6.6,1.3,7.9,4c1.3,2.7-0.1,5.1-3.3,5.5c-3.3,0.5-6.6-1.3-7.9-4
			C59.7,287.7,61,285.3,64.3,284.8z M67.9,292.5c1.8-0.3,2.4-1.7,1.6-3.4c-0.8-1.6-2.7-2.7-4.4-2.5c-1.8,0.2-2.4,1.7-1.6,3.3
			C64.3,291.6,66.1,292.7,67.9,292.5"/>
	</g>
	<g>
		<path class="st17" d="M57.3,290.1c1.2,0.4,2.4,1.1,2.9,2.1c0.9,1.8-0.3,3.3-3.2,3.7l-4,0.6l-4.5-9.4l3-0.4c3-0.4,5.2,0.1,6,1.8
			C57.7,289.1,57.6,289.7,57.3,290.1z M55.9,294.2c1.5-0.2,2-0.8,1.6-1.6c-0.4-0.8-1.4-1.2-2.7-1l-1.6,0.2l1.2,2.6L55.9,294.2
			 M51.7,288.6l0.8,1.6l1-0.1c1.4-0.2,1.8-0.5,1.5-1.1c-0.3-0.6-1.1-0.7-2.5-0.5L51.7,288.6"/>
	</g>
	<g>
		<path class="st17" d="M77.5,283l9,8.7l-2.5,0.4l-1.9-1.9l-4.5,0.6l0.1,2.2l-2.5,0.4l0-10L77.5,283z M77.6,288.9l2.8-0.4l-2.9-3
			L77.6,288.9"/>
	</g>
	<g>
		<path class="st17" d="M92.1,287c1.7,1,3.7,2.3,5.3,3.3l-3.1,0.4l-4.8-3l-0.9,0.1l1.6,3.4l-2.4,0.3l-4.5-9.4l3.6-0.5
			c3.2-0.4,5.3,0.5,6.2,2.3C93.7,285.1,93.4,286.2,92.1,287z M89.1,286c1.4-0.2,1.9-0.8,1.5-1.6c-0.4-0.8-1.4-1.1-2.9-0.9l-1.1,0.2
			l1.2,2.6L89.1,286"/>
	</g>
	<g>
		<path class="st17" d="M98.3,280.1c3.4-0.5,6.6,1.2,7.9,3.9c1.3,2.7,0.1,5-3.3,5.5l-4.1,0.6l-4.5-9.4L98.3,280.1z M102.1,287.8
			c2-0.3,2.4-1.7,1.6-3.5c-0.6-1.3-2.4-2.8-4.7-2.4l-1.5,0.2l2.9,5.9L102.1,287.8"/>
	</g>
</g>
</svg>
