<?xml version="1.0" encoding="utf-8"?>
<!-- Generator: Adobe Illustrator 24.0.2, SVG Export Plug-In . SVG Version: 6.00 Build 0)  -->
<svg version="1.1" id="Ñëîé_1" xmlns="http://www.w3.org/2000/svg" xmlns:xlink="http://www.w3.org/1999/xlink" x="0px" y="0px"
	 viewBox="0 0 495.7 413.8" style="enable-background:new 0 0 495.7 413.8;" xml:space="preserve">
<style type="text/css">
	.st0{enable-background:new    ;}
	.st1{fill:#858585;}
	.st2{fill:#ABABAB;}
	.st3{fill:#808080;}
	.st4{fill:#EFEFEF;}
	.st5{fill:#8F8F8F;}
	.st6{fill:#8C8C8C;}
	.st7{fill:#AAAAAA;}
	.st8{clip-path:url(#SVGID_2_);enable-background:new    ;}
	.st9{fill:#8A8A8A;}
	.st10{fill:#949494;}
	.st11{fill:#999999;}
	.st12{fill:#9E9E9E;}
	.st13{fill:#8E8E8E;}
	.st14{clip-path:url(#SVGID_4_);enable-background:new    ;}
	.st15{clip-path:url(#SVGID_6_);enable-background:new    ;}
	.st16{clip-path:url(#SVGID_8_);enable-background:new    ;}
	.st17{fill:#A8A8A8;}
	.st18{clip-path:url(#SVGID_10_);enable-background:new    ;}
	.st19{fill:#D1D1D1;}
	.st20{fill:#D8D8D8;}
</style>
<g>
	<g class="st0">
		<g>
			<polygon class="st1" points="337.9,183.8 335.1,196.7 328.5,190 331.3,177.1 			"/>
		</g>
		<g>
			<polygon class="st2" points="351.7,191.1 348.9,204 343.2,204.8 346,191.9 			"/>
		</g>
		<g>
			<polygon class="st1" points="346,191.9 343.2,204.8 338.9,200.6 341.7,187.6 			"/>
		</g>
		<g>
			<polygon class="st2" points="341.7,187.6 338.9,200.6 328.8,202 331.6,189 			"/>
		</g>
		<g>
			<polygon class="st2" points="331.7,193.9 328.9,206.8 323.2,207.6 326,194.7 			"/>
		</g>
		<g>
			<polygon class="st3" points="326,194.7 323.2,207.6 323.2,185 326,172.1 			"/>
		</g>
		<g>
			<path class="st4" d="M331.4,171.3l20.4,19.8l-5.7,0.8l-4.3-4.3l-10.1,1.4l0.2,4.9l-5.7,0.8l0-22.6L331.4,171.3z M331.5,184.7
				l6.4-0.9l-6.7-6.7L331.5,184.7"/>
		</g>
	</g>
	<g class="st0">
		<g>
			<polygon class="st4" points="312.8,173.9 323,195.1 317.6,195.9 307.4,174.7 			"/>
		</g>
		<g>
			<polygon class="st2" points="323,195.1 320.2,208.1 314.8,208.8 317.6,195.9 			"/>
		</g>
		<g>
			<polygon class="st3" points="317.6,195.9 314.8,208.8 304.6,187.6 307.4,174.7 			"/>
		</g>
	</g>
	<g class="st0">
		<g>
			<polygon class="st5" points="301,184.1 298.2,197.1 295,207.8 297.8,194.9 			"/>
		</g>
		<g>
			<polygon class="st6" points="296.8,195 294,207.9 281.9,199.4 284.7,186.4 			"/>
		</g>
		<g>
			<polygon class="st7" points="297.8,194.9 295,207.8 294,207.9 296.8,195 			"/>
		</g>
		<g>
			<polygon class="st2" points="312.7,196.6 309.9,209.5 304.5,210.3 307.3,197.3 			"/>
		</g>
		<g>
			<polygon class="st3" points="307.3,197.3 304.5,210.3 298.2,197.1 301,184.1 			"/>
		</g>
		<g>
			<polygon class="st3" points="285.7,200.4 282.9,213.3 272.7,192.1 275.5,179.2 			"/>
		</g>
		<g>
			<polygon class="st2" points="291.1,199.6 288.3,212.6 282.9,213.3 285.7,200.4 			"/>
		</g>
		<g>
			<polygon class="st4" points="302.5,175.4 312.7,196.6 307.3,197.3 301,184.1 297.8,194.9 296.8,195 284.7,186.4 291.1,199.6 
				285.7,200.4 275.5,179.2 280.9,178.4 293.9,187.5 297.1,176.2 			"/>
		</g>
	</g>
	<g class="st0">
		<g class="st0">
			<defs>
				<path id="SVGID_1_" class="st0" d="M271.1,195.1l-2.8,12.9c0.3-1.2,0.1-2.6-0.7-4.1c-1.8-3.7-6-6.1-10-5.6
					c-2.4,0.3-3.9,1.7-4.3,3.5l2.8-12.9c0.4-1.8,1.9-3.2,4.3-3.5c4-0.6,8.2,1.8,10,5.6C271.2,192.5,271.4,193.9,271.1,195.1z"/>
			</defs>
			<clipPath id="SVGID_2_">
				<use xlink:href="#SVGID_1_"  style="overflow:visible;"/>
			</clipPath>
			<g class="st8">
				<path class="st1" d="M271.1,195.1l-2.8,12.9c0.3-1.2,0.1-2.6-0.7-4.1c-0.9-1.9-2.5-3.5-4.4-4.5l2.8-12.9c1.9,1,3.5,2.6,4.4,4.5
					C271.2,192.5,271.4,193.9,271.1,195.1"/>
				<path class="st9" d="M266,186.5l-2.8,12.9c-0.5-0.2-0.9-0.4-1.4-0.6l2.8-12.9C265.1,186.1,265.6,186.3,266,186.5"/>
				<path class="st5" d="M264.6,185.9l-2.8,12.9c-0.4-0.1-0.8-0.2-1.2-0.3l2.8-12.9C263.8,185.7,264.2,185.8,264.6,185.9"/>
				<path class="st10" d="M263.4,185.6l-2.8,12.9c-0.4-0.1-0.8-0.1-1.2-0.2l2.8-12.9C262.6,185.4,263,185.5,263.4,185.6"/>
				<path class="st11" d="M262.2,185.4l-2.8,12.9c-0.5,0-1.1,0-1.6,0l2.8-12.9C261.1,185.4,261.7,185.4,262.2,185.4"/>
				<path class="st12" d="M260.6,185.4l-2.8,12.9c0,0-0.1,0-0.1,0c-1.1,0.2-2,0.5-2.7,1l2.8-12.9c0.7-0.5,1.6-0.9,2.7-1
					C260.5,185.5,260.5,185.5,260.6,185.4"/>
				<path class="st11" d="M257.7,186.5l-2.8,12.9c-0.4,0.3-0.7,0.6-1,1l2.8-12.9C257,187.1,257.4,186.7,257.7,186.5"/>
				<path class="st10" d="M256.8,187.4l-2.8,12.9c-0.2,0.3-0.4,0.6-0.5,1l2.8-12.9C256.4,188,256.6,187.7,256.8,187.4"/>
				<path class="st5" d="M256.3,188.4l-2.8,12.9c-0.1,0.2-0.1,0.4-0.2,0.6l2.8-12.9C256.1,188.8,256.2,188.6,256.3,188.4"/>
			</g>
		</g>
		<path class="st1" d="M277.2,196.4c-0.1,0.3-0.2,0.6-0.3,0.9c0,0.1,0,0.1-0.1,0.2c-0.1,0.3-0.2,0.5-0.3,0.8c0,0,0,0.1-0.1,0.1
			c-0.1,0.2-0.3,0.4-0.4,0.6c0,0-0.1,0.1-0.1,0.1c-0.2,0.3-0.4,0.6-0.7,0.8c0,0-0.1,0.1-0.1,0.1c-0.3,0.3-0.5,0.5-0.9,0.7
			c0,0-0.1,0.1-0.1,0.1c-0.3,0.2-0.6,0.4-1,0.6c-0.1,0-0.1,0.1-0.2,0.1c-0.4,0.2-0.7,0.4-1.1,0.5c-0.1,0-0.1,0-0.2,0.1
			c-0.4,0.2-0.8,0.3-1.3,0.4c0,0-0.1,0-0.1,0c-0.5,0.1-1,0.2-1.5,0.3c-0.2,0-0.4,0-0.6,0.1c-0.3,0-0.7,0.1-1,0.1c-0.2,0-0.4,0-0.6,0
			c-0.3,0-0.6,0-1,0c-0.2,0-0.4,0-0.6,0c-0.2,0-0.4,0-0.5-0.1c-0.3,0-0.5-0.1-0.8-0.1c-0.2,0-0.3-0.1-0.5-0.1
			c-0.3-0.1-0.5-0.1-0.8-0.2c-0.2,0-0.3-0.1-0.5-0.1c-0.3-0.1-0.6-0.2-0.9-0.3c-0.1,0-0.2-0.1-0.3-0.1c-0.2-0.1-0.4-0.1-0.6-0.2
			c-0.2-0.1-0.5-0.2-0.7-0.3c-0.2-0.1-0.4-0.2-0.6-0.3c-0.2-0.1-0.4-0.2-0.7-0.3c-0.2-0.1-0.4-0.2-0.6-0.3c-0.2-0.1-0.4-0.2-0.5-0.3
			c-0.2-0.1-0.4-0.3-0.6-0.4c-0.2-0.1-0.3-0.2-0.5-0.3c-0.2-0.1-0.4-0.3-0.6-0.4c-0.2-0.1-0.3-0.2-0.5-0.4c-0.2-0.2-0.4-0.3-0.5-0.5
			c-0.1-0.1-0.3-0.3-0.4-0.4c-0.2-0.2-0.3-0.4-0.5-0.5c-0.1-0.1-0.3-0.3-0.4-0.4c-0.2-0.2-0.3-0.4-0.5-0.6c-0.1-0.1-0.2-0.3-0.3-0.4
			c-0.2-0.2-0.3-0.5-0.5-0.7c-0.1-0.1-0.2-0.2-0.2-0.3c-0.2-0.4-0.4-0.7-0.6-1.1c-0.9-1.9-1.3-3.7-1.1-5.4c0-0.2,0.1-0.5,0.1-0.7
			l0,0c0,0,0,0,0,0l-2.8,12.9c-0.4,1.8-0.1,3.9,0.9,6.1c0.2,0.4,0.4,0.7,0.6,1.1c0.1,0.1,0.2,0.2,0.2,0.4c0.1,0.2,0.3,0.5,0.5,0.7
			c0.1,0.1,0.2,0.3,0.3,0.4c0.2,0.2,0.3,0.4,0.5,0.6c0.1,0.1,0.3,0.3,0.4,0.4c0.2,0.2,0.3,0.4,0.5,0.5c0.1,0.1,0.3,0.3,0.4,0.4
			c0.2,0.2,0.3,0.3,0.5,0.5c0.1,0.1,0.3,0.2,0.5,0.4c0.2,0.1,0.4,0.3,0.6,0.4c0.2,0.1,0.3,0.2,0.5,0.3c0.2,0.1,0.4,0.3,0.6,0.4
			c0.2,0.1,0.4,0.2,0.5,0.3c0.2,0.1,0.4,0.2,0.5,0.3c0,0,0,0,0.1,0c0.2,0.1,0.4,0.2,0.7,0.3c0.2,0.1,0.4,0.2,0.6,0.3
			c0.2,0.1,0.5,0.2,0.7,0.3c0.2,0.1,0.3,0.1,0.5,0.2c0,0,0,0,0.1,0c0.1,0,0.2,0.1,0.3,0.1c0.3,0.1,0.6,0.2,0.9,0.3
			c0.2,0,0.3,0.1,0.5,0.1c0.2,0,0.4,0.1,0.5,0.1c0.1,0,0.2,0,0.2,0c0.2,0,0.3,0.1,0.5,0.1c0.3,0,0.5,0.1,0.8,0.1
			c0.2,0,0.4,0,0.5,0.1c0.1,0,0.2,0,0.3,0c0.1,0,0.2,0,0.3,0c0.3,0,0.6,0,1,0c0.2,0,0.4,0,0.6,0c0.3,0,0.7,0,1-0.1
			c0.1,0,0.3,0,0.4,0c0.1,0,0.2,0,0.3,0c0.5-0.1,1-0.2,1.5-0.3c0,0,0.1,0,0.1,0c0.4-0.1,0.9-0.2,1.3-0.4c0.1,0,0.1,0,0.2-0.1
			c0.4-0.2,0.8-0.3,1.1-0.5c0.1,0,0.1-0.1,0.2-0.1c0.3-0.2,0.7-0.4,1-0.6c0,0,0.1,0,0.1,0c0,0,0,0,0.1-0.1c0.3-0.2,0.6-0.5,0.9-0.7
			c0,0,0.1-0.1,0.1-0.1c0.3-0.3,0.5-0.5,0.7-0.8c0,0,0,0,0,0c0,0,0-0.1,0.1-0.1c0.1-0.2,0.3-0.4,0.4-0.6c0,0,0-0.1,0.1-0.1
			c0.1-0.3,0.2-0.5,0.3-0.8c0,0,0-0.1,0-0.1c0,0,0-0.1,0-0.1c0.1-0.3,0.2-0.6,0.3-0.9L277.2,196.4z"/>
		<g>
			<path class="st4" d="M258.5,181.4c7.4-1,14.9,2.9,17.8,9s-0.2,11.5-7.4,12.5c-7.4,1-14.8-2.9-17.7-9S251.2,182.4,258.5,181.4z
				 M266.8,198.7c4-0.6,5.5-3.9,3.7-7.6c-1.8-3.7-6-6.1-10-5.6c-4,0.6-5.5,3.8-3.7,7.5C258.5,196.7,262.8,199.2,266.8,198.7"/>
		</g>
	</g>
	<g class="st0">
		<g>
			<polygon class="st3" points="242.6,197.6 239.8,210.6 233.6,197.6 236.4,184.7 			"/>
		</g>
		<g>
			<polygon class="st2" points="251.9,205.1 249.2,218 244.2,218.7 247,205.8 			"/>
		</g>
		<g>
			<polygon class="st13" points="247,205.8 244.2,218.7 226.6,207.5 229.4,194.5 			"/>
		</g>
		<g>
			<polygon class="st4" points="241.8,183.9 251.9,205.1 247,205.8 229.4,194.5 235.6,207.4 230.2,208.2 220,187 225.3,186.2 
				242.6,197.6 236.4,184.7 			"/>
		</g>
		<g>
			<polygon class="st2" points="235.6,207.4 232.8,220.3 227.4,221.1 230.2,208.2 			"/>
		</g>
		<g>
			<polygon class="st3" points="230.2,208.2 227.4,221.1 217.2,199.9 220,187 			"/>
		</g>
	</g>
	<g class="st0">
		<g class="st0">
			<defs>
				<path id="SVGID_3_" class="st0" d="M215.6,202.9l-2.8,12.9c0.3-1.2,0.1-2.6-0.7-4.1c-1.8-3.7-6-6.1-10-5.6
					c-2.4,0.3-3.9,1.7-4.3,3.5l2.8-12.9c0.4-1.8,1.9-3.2,4.3-3.5c4-0.6,8.2,1.8,10,5.6C215.7,200.3,215.9,201.7,215.6,202.9z"/>
			</defs>
			<clipPath id="SVGID_4_">
				<use xlink:href="#SVGID_3_"  style="overflow:visible;"/>
			</clipPath>
			<g class="st14">
				<path class="st1" d="M215.6,202.9l-2.8,12.9c0.3-1.2,0.1-2.6-0.7-4.1c-0.9-1.9-2.5-3.5-4.4-4.5l2.8-12.9c1.9,1,3.5,2.6,4.4,4.5
					C215.7,200.3,215.9,201.7,215.6,202.9"/>
				<path class="st9" d="M210.6,194.3l-2.8,12.9c-0.5-0.2-0.9-0.4-1.4-0.6l2.8-12.9C209.6,193.9,210.1,194.1,210.6,194.3"/>
				<path class="st5" d="M209.2,193.7l-2.8,12.9c-0.4-0.1-0.8-0.2-1.2-0.3l2.8-12.9C208.4,193.4,208.8,193.6,209.2,193.7"/>
				<path class="st10" d="M208,193.4l-2.8,12.9c-0.4-0.1-0.8-0.1-1.2-0.2l2.8-12.9C207.1,193.2,207.6,193.3,208,193.4"/>
				<path class="st11" d="M206.7,193.2l-2.8,12.9c-0.5,0-1.1,0-1.6,0l2.8-12.9C205.6,193.2,206.2,193.2,206.7,193.2"/>
				<path class="st12" d="M205.1,193.2l-2.8,12.9c0,0-0.1,0-0.1,0c-1.1,0.2-2,0.5-2.7,1l2.8-12.9c0.7-0.5,1.6-0.9,2.7-1
					C205,193.3,205,193.2,205.1,193.2"/>
				<path class="st11" d="M202.3,194.3l-2.8,12.9c-0.4,0.3-0.7,0.6-1,0.9l2.8-12.9C201.6,194.9,201.9,194.5,202.3,194.3"/>
				<path class="st10" d="M201.3,195.2l-2.8,12.9c-0.2,0.3-0.4,0.6-0.5,1l2.8-12.9C200.9,195.8,201.1,195.5,201.3,195.2"/>
				<path class="st5" d="M200.8,196.2l-2.8,12.9c-0.1,0.2-0.1,0.4-0.2,0.6l2.8-12.9C200.7,196.6,200.7,196.4,200.8,196.2"/>
			</g>
		</g>
		<path class="st1" d="M221.8,204.2c-0.1,0.3-0.2,0.6-0.3,0.9c0,0.1,0,0.1-0.1,0.2c-0.1,0.3-0.2,0.5-0.3,0.8c0,0,0,0.1-0.1,0.1
			c-0.1,0.2-0.3,0.4-0.4,0.6c0,0-0.1,0.1-0.1,0.1c-0.2,0.3-0.4,0.6-0.7,0.8c0,0-0.1,0.1-0.1,0.1c-0.3,0.3-0.5,0.5-0.9,0.7
			c0,0-0.1,0.1-0.1,0.1c-0.3,0.2-0.6,0.4-1,0.6c-0.1,0-0.1,0.1-0.2,0.1c-0.4,0.2-0.7,0.4-1.1,0.5c-0.1,0-0.1,0-0.2,0.1
			c-0.4,0.2-0.8,0.3-1.3,0.4c0,0-0.1,0-0.1,0c-0.5,0.1-1,0.2-1.5,0.3c-0.2,0-0.4,0-0.6,0.1c-0.3,0-0.7,0.1-1,0.1c-0.2,0-0.4,0-0.6,0
			c-0.3,0-0.6,0-1,0c-0.2,0-0.4,0-0.6,0c-0.2,0-0.4,0-0.5-0.1c-0.3,0-0.5-0.1-0.8-0.1c-0.2,0-0.3-0.1-0.5-0.1
			c-0.3-0.1-0.5-0.1-0.8-0.2c-0.2,0-0.3-0.1-0.5-0.1c-0.3-0.1-0.6-0.2-0.9-0.3c-0.1,0-0.2-0.1-0.3-0.1c-0.2-0.1-0.4-0.1-0.6-0.2
			c-0.2-0.1-0.5-0.2-0.7-0.3c-0.2-0.1-0.4-0.2-0.6-0.3c-0.2-0.1-0.4-0.2-0.7-0.3c-0.2-0.1-0.4-0.2-0.6-0.3c-0.2-0.1-0.4-0.2-0.5-0.3
			c-0.2-0.1-0.4-0.3-0.6-0.4c-0.2-0.1-0.3-0.2-0.5-0.3c-0.2-0.1-0.4-0.3-0.6-0.4c-0.2-0.1-0.3-0.2-0.5-0.4c-0.2-0.2-0.4-0.3-0.5-0.5
			c-0.1-0.1-0.3-0.3-0.4-0.4c-0.2-0.2-0.3-0.4-0.5-0.5c-0.1-0.1-0.3-0.3-0.4-0.4c-0.2-0.2-0.3-0.4-0.5-0.6c-0.1-0.1-0.2-0.3-0.3-0.4
			c-0.2-0.2-0.3-0.5-0.5-0.7c-0.1-0.1-0.2-0.2-0.2-0.4c-0.2-0.4-0.4-0.7-0.6-1.1c-1-2.2-1.3-4.3-0.9-6.1l-2.8,12.9
			c-0.4,1.8-0.1,3.9,0.9,6.1c0.2,0.4,0.4,0.7,0.6,1.1c0.1,0.1,0.2,0.2,0.2,0.4c0.2,0.2,0.3,0.5,0.5,0.7c0.1,0.1,0.2,0.3,0.3,0.4
			c0.2,0.2,0.3,0.4,0.5,0.6c0.1,0.1,0.2,0.3,0.4,0.4c0.2,0.2,0.3,0.4,0.5,0.5c0.1,0.1,0.3,0.3,0.4,0.4c0.2,0.2,0.3,0.3,0.5,0.5
			c0.1,0.1,0.3,0.2,0.5,0.4c0.2,0.1,0.4,0.3,0.6,0.4c0.2,0.1,0.3,0.2,0.5,0.3c0.2,0.1,0.4,0.3,0.6,0.4c0.2,0.1,0.4,0.2,0.5,0.3
			c0.2,0.1,0.4,0.2,0.5,0.3c0,0,0,0,0.1,0c0.2,0.1,0.4,0.2,0.7,0.3c0.2,0.1,0.4,0.2,0.6,0.3c0.2,0.1,0.5,0.2,0.7,0.3
			c0.2,0.1,0.3,0.1,0.5,0.2c0,0,0,0,0.1,0c0.1,0,0.2,0.1,0.3,0.1c0.3,0.1,0.6,0.2,0.9,0.3c0.2,0,0.3,0.1,0.5,0.1
			c0.2,0,0.4,0.1,0.5,0.1c0.1,0,0.2,0,0.2,0c0.2,0,0.3,0.1,0.5,0.1c0.3,0,0.5,0.1,0.8,0.1c0.2,0,0.4,0,0.5,0.1c0.1,0,0.2,0,0.3,0
			c0.1,0,0.2,0,0.3,0c0.3,0,0.6,0,1,0c0.2,0,0.4,0,0.6,0c0.3,0,0.7,0,1-0.1c0.1,0,0.3,0,0.4,0c0.1,0,0.2,0,0.3,0
			c0.5-0.1,1-0.2,1.5-0.3c0,0,0.1,0,0.1,0c0.5-0.1,0.9-0.3,1.3-0.4c0.1,0,0.1,0,0.2-0.1c0.4-0.2,0.8-0.3,1.1-0.5
			c0.1,0,0.1-0.1,0.2-0.1c0.3-0.2,0.7-0.4,1-0.6c0,0,0.1,0,0.1,0c0,0,0,0,0.1-0.1c0.3-0.2,0.6-0.5,0.9-0.7c0,0,0.1-0.1,0.1-0.1
			c0.3-0.3,0.5-0.5,0.7-0.8c0,0,0,0,0,0c0,0,0-0.1,0.1-0.1c0.1-0.2,0.3-0.4,0.4-0.6c0,0,0-0.1,0.1-0.1c0.1-0.2,0.2-0.5,0.3-0.8
			c0,0,0-0.1,0-0.1c0,0,0-0.1,0-0.1c0.1-0.3,0.2-0.6,0.3-0.9L221.8,204.2z"/>
		<g>
			<path class="st4" d="M203,189.2c7.4-1,14.9,2.9,17.8,9c2.9,6.1-0.2,11.5-7.5,12.5c-7.4,1-14.8-2.9-17.7-9
				C192.7,195.6,195.7,190.2,203,189.2z M211.3,206.5c4-0.6,5.5-3.9,3.7-7.6c-1.8-3.7-6-6.1-10-5.6c-4,0.6-5.5,3.8-3.7,7.5
				S207.3,207,211.3,206.5"/>
		</g>
	</g>
	<g class="st0">
		<g>
			<polygon class="st2" points="176.2,197.3 173.4,210.2 170.8,210.6 173.6,197.6 			"/>
		</g>
		<g class="st0">
			<defs>
				<path id="SVGID_5_" class="st0" d="M183,200.9l-2.8,12.9c0.1-0.5,0-1-0.3-1.6c-0.9-1.9-3.2-2.5-6.5-2.1l2.8-12.9
					c3.3-0.5,5.6,0.2,6.5,2.1C183,199.9,183.1,200.4,183,200.9z"/>
			</defs>
			<clipPath id="SVGID_6_">
				<use xlink:href="#SVGID_5_"  style="overflow:visible;"/>
			</clipPath>
			<g class="st15">
				<path class="st1" d="M183,200.9l-2.8,12.9c0.1-0.5,0-1-0.3-1.6c-0.3-0.7-0.9-1.2-1.6-1.6l2.8-12.9c0.7,0.4,1.2,0.9,1.6,1.6
					C183,199.9,183.1,200.4,183,200.9"/>
				<path class="st9" d="M181.2,197.7l-2.8,12.9c-0.2-0.1-0.4-0.2-0.6-0.3l2.8-12.9C180.7,197.5,181,197.6,181.2,197.7"/>
				<path class="st5" d="M180.5,197.5l-2.8,12.9c-0.2-0.1-0.5-0.1-0.7-0.2l2.8-12.9C180.1,197.3,180.3,197.4,180.5,197.5"/>
				<path class="st10" d="M179.8,197.3l-2.8,12.9c-0.3-0.1-0.7-0.1-1-0.1l2.8-12.9C179.2,197.2,179.5,197.2,179.8,197.3"/>
				<path class="st11" d="M178.8,197.1l-2.8,12.9c-0.7,0-1.5,0-2.3,0.1l2.8-12.9C177.3,197.1,178.1,197.1,178.8,197.1"/>
				<path class="st12" d="M176.5,197.2l-2.8,12.9c-0.1,0-0.2,0-0.3,0l2.8-12.9C176.3,197.3,176.4,197.2,176.5,197.2"/>
			</g>
		</g>
		<g class="st0">
			<defs>
				<path id="SVGID_7_" class="st0" d="M188.9,201.8l-2.8,12.9c-0.3,1.3-1.2,2.5-2.8,3.5l2.8-12.9
					C187.7,204.3,188.7,203.1,188.9,201.8z"/>
			</defs>
			<clipPath id="SVGID_8_">
				<use xlink:href="#SVGID_7_"  style="overflow:visible;"/>
			</clipPath>
			<g class="st16">
				<path class="st5" d="M188.9,201.8l-2.8,12.9c0,0.2-0.1,0.4-0.2,0.6l2.8-12.9C188.8,202.2,188.9,202,188.9,201.8"/>
				<path class="st10" d="M188.8,202.4l-2.8,12.9c-0.1,0.4-0.3,0.7-0.6,1.1l2.8-12.9C188.4,203.1,188.6,202.7,188.8,202.4"/>
				<path class="st11" d="M188.2,203.5l-2.8,12.9c-0.4,0.5-0.8,0.9-1.4,1.3l2.8-12.9C187.4,204.4,187.8,203.9,188.2,203.5"/>
				<path class="st12" d="M186.8,204.8l-2.8,12.9c-0.2,0.2-0.4,0.3-0.7,0.4l2.8-12.9C186.4,205.1,186.6,205,186.8,204.8"/>
			</g>
		</g>
		<g>
			<polygon class="st2" points="180.4,207 177.6,219.9 175.5,220.2 178.3,207.3 			"/>
		</g>
		<g>
			<polygon class="st2" points="198.1,212.7 195.3,225.6 188.3,226.6 191.1,213.7 			"/>
		</g>
		<g>
			<polygon class="st5" points="191.1,213.7 188.3,226.6 177.6,219.9 180.4,207 			"/>
		</g>
		<g>
			<polygon class="st2" points="182,214.9 179.2,227.9 173.8,228.6 176.6,215.7 			"/>
		</g>
		<g>
			<path class="st4" d="M186.1,205.2c3.7,2.4,8.3,5.2,12,7.4l-7,1l-10.7-6.7l-2.1,0.3l3.7,7.7l-5.4,0.8l-10.2-21.2l8.1-1.1
				c7.1-1,12,1.1,14,5.2C189.7,201.2,188.9,203.6,186.1,205.2z M179.3,203c3.3-0.5,4.3-1.8,3.4-3.7c-0.9-1.9-3.2-2.5-6.5-2.1
				l-2.6,0.4l2.8,5.8L179.3,203"/>
		</g>
		<g>
			<polygon class="st3" points="176.6,215.7 173.8,228.6 163.6,207.5 166.4,194.5 			"/>
		</g>
	</g>
	<g class="st0">
		<g>
			<polygon class="st17" points="164.2,200 161.5,212.9 157.4,215.6 160.2,202.6 			"/>
		</g>
		<g class="st0">
			<defs>
				<path id="SVGID_9_" class="st0" d="M145.8,217l2.8-12.9c0.4-1.8,1.9-3.2,4.4-3.5c2.3-0.3,5,0.5,7.2,2l-2.8,12.9
					c-2.3-1.6-4.9-2.4-7.2-2C147.7,213.9,146.2,215.2,145.8,217z"/>
			</defs>
			<clipPath id="SVGID_10_">
				<use xlink:href="#SVGID_9_"  style="overflow:visible;"/>
			</clipPath>
			<g class="st18">
				<path class="st1" d="M160.2,202.6l-2.8,12.9c-0.5-0.3-0.9-0.6-1.4-0.8l2.8-12.9C159.3,202,159.8,202.3,160.2,202.6"/>
				<path class="st9" d="M158.8,201.8l-2.8,12.9c-0.5-0.3-1.1-0.5-1.7-0.7l2.8-12.9C157.7,201.2,158.3,201.5,158.8,201.8"/>
				<path class="st5" d="M157.2,201l-2.8,12.9c-0.4-0.2-0.9-0.3-1.3-0.4l2.8-12.9C156.3,200.8,156.7,200.9,157.2,201"/>
				<path class="st10" d="M155.8,200.7l-2.8,12.9c-0.4-0.1-0.8-0.1-1.2-0.2l2.8-12.9C155,200.5,155.4,200.6,155.8,200.7"/>
				<path class="st11" d="M154.6,200.5l-2.8,12.9c-0.5,0-1,0-1.5,0l2.8-12.9C153.6,200.5,154.1,200.5,154.6,200.5"/>
				<path class="st12" d="M153.1,200.6l-2.8,12.9c0,0-0.1,0-0.1,0c-1.1,0.2-2,0.5-2.7,1l2.8-12.9c0.7-0.5,1.6-0.9,2.7-1
					C153,200.6,153.1,200.6,153.1,200.6"/>
				<path class="st11" d="M150.2,201.6l-2.8,12.9c-0.4,0.3-0.7,0.6-1,1l2.8-12.9C149.5,202.2,149.9,201.9,150.2,201.6"/>
				<path class="st10" d="M149.3,202.5l-2.8,12.9c-0.2,0.3-0.4,0.6-0.5,1l2.8-12.9C148.9,203.2,149.1,202.8,149.3,202.5"/>
				<path class="st5" d="M148.8,203.5l-2.8,12.9c-0.1,0.2-0.1,0.4-0.2,0.6l2.8-12.9C148.6,203.9,148.7,203.7,148.8,203.5"/>
			</g>
		</g>
		<g>
			<polygon class="st3" points="163.5,210.6 160.7,223.5 160,222 162.8,209.1 			"/>
		</g>
		<g>
			<polygon class="st2" points="162.8,209.1 160,222 154.2,222.8 156.9,209.9 			"/>
		</g>
		<g>
			<polygon class="st3" points="156.9,209.9 154.2,222.8 152.2,218.8 155,205.8 			"/>
		</g>
		<g>
			<polygon class="st3" points="166.7,217.1 163.9,230 163.4,229.1 166.2,216.1 			"/>
		</g>
		<g>
			<polygon class="st2" points="172,216.3 169.2,229.3 163.9,230 166.7,217.1 			"/>
		</g>
		<path class="st1" d="M165.6,216.5c-0.1,0.1-0.3,0.2-0.4,0.3c-0.2,0.1-0.4,0.2-0.7,0.3c-0.2,0.1-0.3,0.1-0.4,0.2
			c-0.3,0.1-0.5,0.2-0.8,0.3c-0.1,0-0.3,0.1-0.4,0.1c-0.4,0.1-0.9,0.2-1.4,0.3c-0.2,0-0.4,0-0.6,0.1c-0.4,0-0.7,0.1-1.1,0.1
			c-0.2,0-0.4,0-0.6,0c-0.3,0-0.7,0-1,0c-0.2,0-0.4,0-0.6,0c-0.2,0-0.4,0-0.5-0.1c-0.3,0-0.5-0.1-0.8-0.1c-0.2,0-0.4-0.1-0.5-0.1
			c-0.3,0-0.5-0.1-0.8-0.2c-0.2,0-0.3-0.1-0.5-0.1c-0.3-0.1-0.6-0.2-0.9-0.3c-0.1,0-0.2-0.1-0.4-0.1c-0.2-0.1-0.4-0.1-0.6-0.2
			c-0.2-0.1-0.5-0.2-0.7-0.3c-0.2-0.1-0.4-0.2-0.6-0.3c-0.2-0.1-0.4-0.2-0.7-0.3c-0.2-0.1-0.4-0.2-0.6-0.3c-0.2-0.1-0.4-0.2-0.5-0.3
			c-0.2-0.1-0.4-0.3-0.6-0.4c-0.2-0.1-0.3-0.2-0.5-0.3c-0.2-0.1-0.4-0.3-0.6-0.4c-0.2-0.1-0.3-0.2-0.5-0.4c-0.2-0.2-0.4-0.3-0.5-0.5
			c-0.1-0.1-0.3-0.3-0.4-0.4c-0.2-0.2-0.3-0.4-0.5-0.5c-0.1-0.1-0.3-0.3-0.4-0.4c-0.2-0.2-0.3-0.4-0.5-0.6c-0.1-0.1-0.2-0.3-0.3-0.4
			c-0.2-0.2-0.3-0.5-0.5-0.7c-0.1-0.1-0.2-0.2-0.2-0.4c-0.2-0.4-0.4-0.7-0.6-1.1c-0.8-1.6-1.1-3.2-1.1-4.7c0-0.5,0.1-1,0.2-1.4l0,0
			c0,0,0,0,0,0l-2.8,12.9c-0.4,1.8-0.1,3.9,0.9,6.1c0.2,0.4,0.4,0.7,0.6,1.1c0.1,0.1,0.2,0.2,0.2,0.4c0.2,0.2,0.3,0.5,0.5,0.7
			c0.1,0.1,0.2,0.3,0.3,0.4c0.2,0.2,0.3,0.4,0.5,0.6c0.1,0.1,0.2,0.3,0.4,0.4c0.2,0.2,0.3,0.4,0.5,0.5c0.1,0.1,0.3,0.3,0.4,0.4
			c0.2,0.2,0.3,0.3,0.5,0.5c0.1,0.1,0.3,0.2,0.5,0.4c0.2,0.1,0.4,0.3,0.6,0.4c0.2,0.1,0.3,0.2,0.5,0.3c0.2,0.1,0.4,0.3,0.6,0.4
			c0.2,0.1,0.4,0.2,0.5,0.3c0.2,0.1,0.4,0.2,0.5,0.3c0,0,0.1,0,0.1,0c0.2,0.1,0.4,0.2,0.7,0.3c0.2,0.1,0.4,0.2,0.6,0.3
			c0.2,0.1,0.5,0.2,0.7,0.3c0.2,0.1,0.3,0.1,0.5,0.2c0,0,0,0,0.1,0c0.1,0,0.2,0.1,0.4,0.1c0.3,0.1,0.6,0.2,0.9,0.3
			c0.2,0,0.3,0.1,0.5,0.1c0.2,0,0.3,0.1,0.5,0.1c0.1,0,0.2,0,0.3,0c0.2,0,0.4,0.1,0.5,0.1c0.3,0,0.5,0.1,0.8,0.1
			c0.2,0,0.4,0,0.5,0.1c0.1,0,0.2,0,0.3,0c0.1,0,0.2,0,0.3,0c0.3,0,0.7,0,1,0c0.2,0,0.4,0,0.6,0c0.4,0,0.7,0,1.1-0.1
			c0.1,0,0.3,0,0.4,0c0.1,0,0.2,0,0.3,0c0.5-0.1,0.9-0.2,1.4-0.3c0.1,0,0.3-0.1,0.4-0.1c0.3-0.1,0.6-0.2,0.8-0.3
			c0.2-0.1,0.3-0.1,0.4-0.2c0.2-0.1,0.4-0.2,0.7-0.3c0.1-0.1,0.3-0.2,0.4-0.3c0.2-0.1,0.3-0.2,0.5-0.3c0.1,0,0.1-0.1,0.2-0.1
			l2.8-12.9C166,216.3,165.8,216.4,165.6,216.5z"/>
		<g>
			<path class="st4" d="M151.1,196.5c4.4-0.6,9.2,0.8,13.2,3.5l-4,2.6c-2.3-1.6-4.9-2.4-7.2-2c-4,0.6-5.5,3.8-3.7,7.5
				c1.8,3.7,6.1,6.3,10.1,5.7c2.1-0.3,3.5-1.5,4.2-3.2l-0.7-1.5l-5.9,0.8l-2-4.1l11.2-1.6l5.8,12.1l-5.4,0.8l-0.5-1
				c-1.2,0.9-2.8,1.6-4.8,1.9c-7.4,1-14.9-2.9-17.8-9C140.7,202.9,143.6,197.5,151.1,196.5z"/>
		</g>
	</g>
	<g class="st0">
		<g>
			<polygon class="st1" points="132.9,212.6 130.1,225.5 123.4,218.9 126.2,205.9 			"/>
		</g>
		<g>
			<polygon class="st2" points="146.7,219.9 143.9,232.8 138.1,233.7 140.9,220.7 			"/>
		</g>
		<g>
			<polygon class="st1" points="140.9,220.7 138.1,233.7 133.9,229.4 136.7,216.4 			"/>
		</g>
		<g>
			<polygon class="st2" points="136.7,216.4 133.9,229.4 123.7,230.8 126.5,217.9 			"/>
		</g>
		<g>
			<polygon class="st2" points="126.7,222.7 123.9,235.7 118.2,236.5 121,223.5 			"/>
		</g>
		<g>
			<polygon class="st3" points="121,223.5 118.2,236.5 118.2,213.8 121,200.9 			"/>
		</g>
		<g>
			<path class="st4" d="M126.3,200.1l20.4,19.8l-5.7,0.8l-4.3-4.3l-10.1,1.4l0.2,4.9l-5.7,0.8l0-22.6L126.3,200.1z M126.4,213.5
				l6.4-0.9l-6.7-6.7L126.4,213.5"/>
		</g>
	</g>
</g>
<g id="_x31_">
	<g>
		<path class="st19" d="M182.5,356.6c-0.1,0.1-0.3,0.1-0.4,0c-0.2-0.1-0.3-0.4-0.2-0.6l38.1-70.4c0.1-0.2,0.4-0.3,0.6-0.2
			c0.2,0.1,0.3,0.4,0.2,0.6l-38.1,70.4C182.6,356.5,182.5,356.6,182.5,356.6z"/>
	</g>
	<g>
		<path class="st19" d="M352.5,174.2c-0.2,0-0.4-0.1-0.5-0.3c-0.2-0.3-0.1-0.7,0.2-0.8l18.9-10.9c0.3-0.2,0.7-0.1,0.8,0.2
			c0.2,0.3,0.1,0.7-0.2,0.8l-18.9,10.9C352.7,174.2,352.6,174.2,352.5,174.2z"/>
	</g>
	<path class="st19" d="M448.8,70.1c3.1,1.8,8.7-0.5,5.6-2.3C451.2,66.1,445.7,68.4,448.8,70.1z"/>
	<path class="st19" d="M301.5,109.6c3.1,1.8,8.7-0.5,5.6-2.3C303.9,105.5,298.4,107.8,301.5,109.6z"/>
	<path class="st19" d="M368.7,163.9c3.1,1.8,8.7-0.5,5.6-2.3C371.1,159.9,365.6,162.2,368.7,163.9z"/>
	<path class="st19" d="M99.5,272.1c3.1,1.8,8.7-0.5,5.6-2.3C101.9,268,96.4,270.3,99.5,272.1z"/>
	<path class="st19" d="M180.9,357.7c2.6-0.1,5.1-3.5,2.5-3.4C180.9,354.4,178.4,357.8,180.9,357.7z"/>
	<g>
		<path class="st19" d="M384.3,263.9c-0.1,0-0.2,0-0.3-0.1l-32.3-18.6c-0.3-0.2-0.4-0.5-0.2-0.8c0.2-0.3,0.6-0.4,0.8-0.2l32.3,18.6
			c0.3,0.2,0.4,0.5,0.2,0.8C384.7,263.8,384.5,263.9,384.3,263.9z"/>
	</g>
	<path class="st19" d="M381.5,264.4c3.1,1.8,8.7-0.5,5.6-2.3C384,260.4,378.5,262.7,381.5,264.4z"/>
	<g>
		<path class="st19" d="M315.1,148.6c-0.2,0-0.4-0.1-0.5-0.3c-0.2-0.3-0.1-0.7,0.2-0.8l136.5-78.8c0.3-0.2,0.7-0.1,0.8,0.2
			c0.2,0.3,0.1,0.7-0.2,0.8l-136.5,78.8C315.3,148.5,315.2,148.6,315.1,148.6z"/>
	</g>
	<path class="st19" d="M85.2,93.2c3.1,1.8,8.7-0.5,5.6-2.3C87.6,89.1,82.1,91.4,85.2,93.2z"/>
	<g>
		<path class="st19" d="M172,141.4c-0.1,0-0.2,0-0.3-0.1L88.1,93.1c-0.3-0.2-0.4-0.5-0.2-0.8c0.2-0.3,0.5-0.4,0.8-0.2l83.6,48.3
			c0.3,0.2,0.4,0.5,0.2,0.8C172.4,141.3,172.2,141.4,172,141.4z"/>
	</g>
	<g id="Cylinder_face_1_">
		<path class="st19" d="M234,286.2c-34.2,0-68.4-7.5-94.4-22.5c-25.3-14.6-39.3-34.1-39.3-54.8c0-20.7,13.9-40.2,39.3-54.8
			c52-30,136.7-30,188.8,0c25.3,14.6,39.3,34.1,39.3,54.8c0,20.7-13.9,40.2-39.3,54.8C302.3,278.7,268.1,286.2,234,286.2z
			 M234,132.7c-34,0-67.9,7.5-93.8,22.4c-24.9,14.4-38.7,33.5-38.7,53.8c0,20.3,13.7,39.4,38.7,53.8c51.7,29.9,135.8,29.8,187.5,0
			c24.9-14.4,38.7-33.5,38.7-53.8c0-20.3-13.7-39.4-38.7-53.8C301.9,140.1,267.9,132.7,234,132.7z"/>
	</g>
	<g>
		<path class="st19" d="M261.3,133.9c-0.2,0-0.4-0.1-0.5-0.3c-0.2-0.3-0.1-0.7,0.2-0.8l43-24.8c0.3-0.2,0.7-0.1,0.8,0.2
			c0.2,0.3,0.1,0.7-0.2,0.8l-43,24.8C261.5,133.9,261.4,133.9,261.3,133.9z"/>
	</g>
	<g>
		<path class="st19" d="M102,271.4c-0.2,0-0.4-0.1-0.5-0.3c-0.2-0.3-0.1-0.7,0.2-0.8l26.1-15.1c0.3-0.2,0.7-0.1,0.8,0.2
			c0.2,0.3,0.1,0.7-0.2,0.8l-26.1,15.1C102.3,271.4,102.1,271.4,102,271.4z"/>
	</g>
</g>
<g>
	<g>
		<polygon class="st19" points="31.2,68.3 32.2,70.5 25,71.6 25.9,73.4 32,72.6 33,74.8 27,75.6 28.5,78.7 35.9,77.7 37,79.9 
			26.6,81.4 21,69.7 		"/>
	</g>
	<g>
		<path class="st19" d="M12.6,70.8c2.4-0.3,5.1,0.4,7.2,1.9l-2.2,1.4c-1.3-0.9-2.7-1.3-4-1.1c-2.2,0.3-3,2.1-2.1,4.1
			c1,2,3.3,3.4,5.5,3.1c1.2-0.2,2-0.9,2.4-1.9l3.4,0.6c-0.5,1.9-2.2,3.3-4.6,3.6c-4.1,0.6-8.1-1.6-9.8-4.9
			C6.9,74.4,8.5,71.4,12.6,70.8z"/>
	</g>
	<g>
		<polygon class="st19" points="59.1,64.4 60.1,66.6 55.9,67.2 60.4,76.6 57.5,77 52.9,67.6 48.7,68.2 47.7,66 		"/>
	</g>
	<g>
		<polygon class="st19" points="45.8,66.3 51.4,77.9 48.6,78.3 39,72.1 42.4,79.2 39.4,79.6 33.8,67.9 36.7,67.5 46.2,73.8 
			42.8,66.7 		"/>
	</g>
	<g>
		<path class="st19" d="M71.8,70c2,1.3,4.6,2.8,6.6,4.1l-3.8,0.5L68.6,71l-1.2,0.2l2,4.2l-2.9,0.4L61,64.1l4.4-0.6
			c3.9-0.5,6.6,0.6,7.7,2.8C73.8,67.8,73.3,69.1,71.8,70z M68,68.8c1.8-0.3,2.4-1,1.9-2c-0.5-1-1.7-1.4-3.6-1.1l-1.4,0.2l1.5,3.2
			L68,68.8"/>
	</g>
	<g>
		<path class="st19" d="M82,61.2L93.2,72l-3.1,0.4l-2.3-2.3l-5.6,0.8l0.1,2.7L79.1,74l0-12.4L82,61.2z M82.1,68.5l3.5-0.5L82,64.3
			L82.1,68.5"/>
	</g>
	<g>
		<polygon class="st19" points="92.3,59.7 96.8,69.1 104,68.1 105,70.3 94.9,71.8 89.3,60.1 		"/>
	</g>
	<g>
		<polygon class="st19" points="137.7,53.4 138.8,55.6 131.6,56.6 132.5,58.4 138.5,57.6 139.6,59.8 133.5,60.7 135,63.8 
			142.4,62.7 143.5,64.9 133.1,66.4 127.5,54.8 		"/>
	</g>
	<g>
		<polygon class="st19" points="124.9,55.2 130.5,66.8 127.5,67.2 124,60 122.3,65.8 121.7,65.9 115.1,61.2 118.6,68.4 115.6,68.9 
			110.1,57.2 113,56.8 120.2,61.8 121.9,55.6 		"/>
	</g>
	<g>
		<polygon class="st19" points="163,49.8 164.1,52 156.9,53 157.8,54.9 163.8,54 164.9,56.3 158.9,57.1 160.4,60.2 167.8,59.2 
			168.8,61.4 158.5,62.8 152.9,51.2 		"/>
	</g>
	<g>
		<polygon class="st19" points="151,51.5 152.1,53.7 147.8,54.3 152.4,63.7 149.4,64.1 144.9,54.7 140.6,55.3 139.6,53.1 		"/>
	</g>
	<g>
		<polygon class="st19" points="240.8,38.9 246.4,50.5 243.4,50.9 237.8,39.3 		"/>
	</g>
	<g>
		<path class="st19" d="M229.4,40.4c2.4-0.3,5.1,0.4,7.2,1.9l-2.2,1.4c-1.3-0.9-2.7-1.3-4-1.1c-2.2,0.3-3,2.1-2.1,4.1
			c1,2,3.3,3.4,5.5,3.1c1.1-0.2,1.9-0.8,2.3-1.7l-0.4-0.8l-3.2,0.5l-1.1-2.2l6.2-0.9l3.2,6.6l-2.9,0.4l-0.3-0.5
			c-0.7,0.5-1.5,0.9-2.6,1c-4.1,0.6-8.1-1.6-9.8-4.9C223.7,43.9,225.4,40.9,229.4,40.4z"/>
	</g>
	<g>
		<path class="st19" d="M213.5,42.6c4.1-0.6,8.1,1.6,9.8,4.9c1.6,3.3-0.1,6.3-4.1,6.9c-4,0.6-8.1-1.6-9.7-4.9
			C207.8,46.1,209.4,43.2,213.5,42.6z M218,52.1c2.2-0.3,3-2.1,2-4.2s-3.3-3.4-5.5-3.1c-2.2,0.3-3,2.1-2,4.1S215.8,52.4,218,52.1"/>
	</g>
	<g>
		<polygon class="st19" points="198.1,44.9 202.6,54.3 209.8,53.3 210.9,55.5 200.7,56.9 195.1,45.3 		"/>
	</g>
	<g>
		<path class="st19" d="M192.4,53.1c2,1.3,4.6,2.8,6.6,4.1l-3.8,0.5l-5.9-3.7l-1.2,0.2l2,4.2l-2.9,0.4l-5.6-11.6l4.4-0.6
			c3.9-0.5,6.6,0.6,7.7,2.8C194.3,50.8,193.9,52.2,192.4,53.1z M188.6,51.8c1.8-0.3,2.4-1,1.9-2c-0.5-1-1.7-1.4-3.6-1.1l-1.4,0.2
			l1.5,3.2L188.6,51.8"/>
	</g>
	<g>
		<path class="st19" d="M172.2,48.4c4.1-0.6,8.2,1.6,9.8,4.9c1.6,3.3-0.1,6.3-4.1,6.9c-4,0.6-8.1-1.6-9.7-4.9
			C166.6,51.9,168.2,49,172.2,48.4z M176.8,57.9c2.2-0.3,3-2.1,2-4.2c-1-2-3.3-3.4-5.5-3.1c-2.2,0.3-3,2.1-2,4.1
			C172.2,56.8,174.6,58.2,176.8,57.9"/>
	</g>
	<g>
		<path class="st19" d="M265.8,35.4l11.2,10.8l-3.1,0.4l-2.3-2.3l-5.6,0.8l0.1,2.7l-3.1,0.4l0-12.4L265.8,35.4z M265.8,42.7l3.5-0.5
			l-3.6-3.7L265.8,42.7"/>
	</g>
	<g>
		<path class="st19" d="M250.2,37.5c2.4-0.3,5,0.4,7.2,1.9l-2.2,1.4c-1.2-0.9-2.7-1.3-4-1.1c-2.2,0.3-3,2.1-2,4.1s3.3,3.4,5.5,3.1
			c1.2-0.2,2-0.9,2.4-1.9l3.3,0.6c-0.5,1.9-2.2,3.3-4.6,3.6c-4.1,0.6-8.2-1.6-9.8-4.9C244.5,41,246.1,38,250.2,37.5z"/>
	</g>
</g>
<g>
	<g>
		<polygon class="st20" points="289.5,289.8 293.9,299.1 291.6,299.4 287.1,290.1 		"/>
	</g>
	<g>
		<polygon class="st20" points="285.8,290.3 285.7,300.2 283.1,300.6 274.1,291.9 276.8,291.6 283.2,297.8 283.1,290.7 		"/>
	</g>
	<g>
		<path class="st20" d="M313.3,286.4l2.3,4.8c1.3,2.8,0,4.9-3.2,5.4c-3.3,0.5-6.3-1.1-7.6-3.8l-2.3-4.8l2.4-0.3l2.3,4.8
			c0.8,1.6,2.6,2.5,4.3,2.3c1.7-0.2,2.5-1.5,1.7-3.1l-2.3-4.8L313.3,286.4z"/>
	</g>
	<g>
		<path class="st20" d="M296.1,288.8c1.4-0.2,2.8,0.1,4.1,0.6c0.4,0.2,0.9,0.4,1.4,0.8l-1.6,1.3c-0.4-0.3-0.8-0.5-1-0.6
			c-0.6-0.3-1.3-0.4-2-0.3c-1.2,0.2-1.6,0.6-1.3,1.1c0.3,0.6,1,0.7,2.4,0.5c2.8-0.3,5,0.5,5.9,2.3c0.4,0.7,0.3,1.5-0.1,2.1
			c-0.6,0.8-1.8,1.4-3.2,1.6c-1.4,0.2-2.9,0.1-4.3-0.6c-0.4-0.2-0.9-0.4-1.5-0.8l2.1-1.1c0.8,0.4,1.8,0.8,2.8,0.6
			c0.8-0.1,1.4-0.4,1.6-0.7c0.2-0.3,0.2-0.5,0.1-0.8c-0.3-0.7-1.3-1-2.6-0.8c-2.8,0.3-4.7-0.1-5.6-1.9c-0.4-0.7-0.3-1.4,0.1-2
			C293.8,289.4,294.9,288.9,296.1,288.8z"/>
	</g>
	<g>
		<polygon class="st20" points="377.4,277.4 381.9,286.7 379.5,287.1 375,277.8 		"/>
	</g>
	<g>
		<path class="st20" d="M368.3,278.6c2-0.3,4,0.4,5.8,1.5l-1.8,1.2c-1-0.7-2.2-1-3.2-0.9c-1.8,0.2-2.4,1.7-1.6,3.3
			c0.8,1.6,2.7,2.8,4.4,2.5c1-0.1,1.6-0.7,1.9-1.6l2.7,0.5c-0.4,1.5-1.7,2.6-3.7,2.9c-3.3,0.5-6.5-1.3-7.8-3.9
			S365,279.1,368.3,278.6z"/>
	</g>
	<g>
		<path class="st20" d="M357.4,280.2l8.9,8.7l-2.5,0.4l-1.9-1.9l-4.5,0.6l0.1,2.1l-2.5,0.4l0-9.9L357.4,280.2z M357.4,286.1l2.8-0.4
			l-2.9-2.9L357.4,286.1"/>
	</g>
	<g>
		<polygon class="st20" points="349.3,281.4 349.8,282.3 347.9,289.6 353,288.9 353.9,290.7 345.4,291.9 344.9,290.8 346.8,283.6 
			342.3,284.3 341.4,282.5 		"/>
	</g>
	<g>
		<polygon class="st20" points="339,282.8 343.5,292.1 341.1,292.5 336.6,283.2 		"/>
	</g>
	<g>
		<polygon class="st20" points="329.5,284.2 333.1,291.7 338.9,290.9 339.7,292.6 331.6,293.8 327.1,284.5 		"/>
	</g>
	<g>
		<path class="st20" d="M321.3,285.3l8.9,8.7l-2.5,0.4l-1.9-1.9l-4.5,0.6l0.1,2.1l-2.5,0.4l0-9.9L321.3,285.3z M321.4,291.2l2.8-0.4
			l-2.9-2.9L321.4,291.2"/>
	</g>
	<g class="st0">
		<g>
			<polygon class="st20" points="401.8,274 406.2,283.3 404.1,283.6 396.3,278.6 399.1,284.3 396.7,284.6 392.2,275.3 394.5,275 
				402.1,280 399.4,274.3 			"/>
		</g>
		<g>
			<path class="st20" d="M384.8,276.3c3.3-0.5,6.5,1.3,7.8,3.9c1.3,2.7-0.1,5.1-3.3,5.5c-3.2,0.5-6.5-1.3-7.8-3.9
				C380.2,279.1,381.5,276.8,384.8,276.3z M388.4,283.9c1.8-0.2,2.4-1.7,1.6-3.4c-0.8-1.6-2.6-2.7-4.4-2.4c-1.8,0.2-2.4,1.7-1.6,3.3
				C384.8,283,386.6,284.1,388.4,283.9"/>
		</g>
	</g>
	<g class="st0">
		<g>
			<polygon class="st20" points="430.6,269.9 431.5,271.7 425.7,272.5 426.4,274 431.3,273.3 432.1,275.1 427.3,275.8 428.5,278.3 
				434.4,277.4 435.3,279.2 427,280.4 422.5,271.1 			"/>
		</g>
		<g>
			<path class="st20" d="M415,272.1c3.4-0.5,6.6,1.2,7.8,3.9c1.3,2.7,0.1,5-3.3,5.4l-4,0.6l-4.5-9.3L415,272.1z M418.7,279.7
				c2-0.3,2.4-1.7,1.6-3.4c-0.6-1.3-2.3-2.7-4.6-2.4l-1.4,0.2l2.8,5.9L418.7,279.7"/>
		</g>
	</g>
	<g>
		<polygon class="st20" points="470.6,264.3 471.5,266.1 468.1,266.6 471.7,274.1 469.3,274.4 465.7,266.9 462.3,267.4 461.5,265.6 
					"/>
	</g>
	<g>
		<path class="st20" d="M457.3,266.2l9,8.7l-2.5,0.4l-1.9-1.9l-4.5,0.6l0.1,2.1l-2.5,0.4l0-9.9L457.3,266.2z M457.4,272.1l2.8-0.4
			l-2.9-2.9L457.4,272.1"/>
	</g>
	<g>
		<path class="st20" d="M443.9,268.1c3.4-0.5,6.6,1.2,7.8,3.9c1.3,2.7,0.1,5-3.3,5.4l-4,0.6l-4.5-9.3L443.9,268.1z M447.6,275.7
			c2-0.3,2.4-1.7,1.6-3.4c-0.6-1.3-2.3-2.7-4.6-2.4l-1.4,0.2l2.8,5.9L447.6,275.7"/>
	</g>
	<g>
		<path class="st20" d="M477.1,263.4l8.9,8.7l-2.5,0.4l-1.9-1.9l-4.5,0.6l0.1,2.1l-2.5,0.4l0-9.9L477.1,263.4z M477.1,269.3l2.8-0.4
			l-2.9-2.9L477.1,269.3"/>
	</g>
</g>
<g>
	<g>
		<path class="st19" d="M333.6,63.9l9.3,9l-2.6,0.4l-1.9-2l-4.6,0.6l0.1,2.2l-2.6,0.4l0-10.3L333.6,63.9z M333.7,70l2.9-0.4l-3-3
			L333.7,70"/>
	</g>
	<g>
		<polygon class="st19" points="349.5,61.7 354.1,71.3 351.7,71.7 349.5,67.3 344.6,67.9 346.7,72.4 344.3,72.7 339.6,63 
			342.1,62.7 343.7,66.1 348.6,65.4 347,62 		"/>
	</g>
	<g>
		<path class="st19" d="M357.1,60.5c3.4-0.5,6.8,1.3,8.1,4.1c1.3,2.8-0.1,5.2-3.4,5.7c-3.4,0.5-6.8-1.3-8.1-4.1
			C352.4,63.4,353.8,61,357.1,60.5z M360.9,68.4c1.8-0.3,2.5-1.8,1.7-3.5c-0.8-1.7-2.7-2.8-4.6-2.5c-1.8,0.3-2.5,1.7-1.7,3.4
			C357.1,67.5,359.1,68.6,360.9,68.4"/>
	</g>
	<g>
		<path class="st19" d="M392.8,55.5c3.4-0.5,6.8,1.3,8.1,4.1c1.3,2.8-0.1,5.2-3.4,5.7c-3.4,0.5-6.8-1.3-8.1-4.1
			C388.1,58.4,389.5,56,392.8,55.5z M396.6,63.4c1.8-0.3,2.5-1.8,1.7-3.5c-0.8-1.7-2.7-2.8-4.6-2.5c-1.8,0.3-2.5,1.7-1.7,3.4
			C392.8,62.5,394.8,63.6,396.6,63.4"/>
	</g>
	<g class="st0">
		<g>
			<path class="st19" d="M385.1,62.8c1.7,1.1,3.8,2.4,5.4,3.4l-3.2,0.4l-4.9-3.1l-1,0.1l1.7,3.5l-2.4,0.3l-4.6-9.7l3.7-0.5
				c3.2-0.5,5.5,0.5,6.4,2.4C386.8,60.9,386.4,62.1,385.1,62.8z M382,61.8c1.5-0.2,2-0.8,1.5-1.7s-1.4-1.1-3-0.9l-1.2,0.2l1.3,2.6
				L382,61.8"/>
		</g>
		<g>
			<path class="st19" d="M373.8,64.4c1.7,1.1,3.8,2.4,5.5,3.4l-3.2,0.4l-4.9-3.1l-1,0.1l1.7,3.5l-2.4,0.3l-4.6-9.7l3.7-0.5
				c3.2-0.5,5.5,0.5,6.4,2.4C375.5,62.5,375.1,63.7,373.8,64.4z M370.7,63.4c1.5-0.2,2-0.8,1.6-1.7s-1.4-1.1-3-0.9l-1.2,0.2l1.3,2.6
				L370.7,63.4"/>
		</g>
	</g>
	<g>
		<path class="st19" d="M412.1,52.9c3.5-0.5,6.8,1.3,8.1,4c1.3,2.8,0.1,5.1-3.4,5.6l-4.2,0.6l-4.6-9.7L412.1,52.9z M415.9,60.7
			c2.1-0.3,2.5-1.8,1.7-3.6c-0.6-1.3-2.4-2.8-4.8-2.5l-1.5,0.2l2.9,6.1L415.9,60.7"/>
	</g>
	<g>
		<polygon class="st19" points="428.3,50.6 429.2,52.4 423.2,53.3 423.9,54.8 428.9,54.1 429.8,56 424.8,56.7 426.1,59.2 
			432.2,58.4 433.1,60.2 424.5,61.4 419.8,51.8 		"/>
	</g>
	<g>
		<path class="st19" d="M481.7,43.1l9.3,9l-2.6,0.4l-1.9-2l-4.6,0.6l0.1,2.2l-2.6,0.4l0-10.3L481.7,43.1z M481.7,49.2l2.9-0.4l-3-3
			L481.7,49.2"/>
	</g>
	<g>
		<path class="st19" d="M473.4,44.2l2.4,5c1.4,2.9,0,5.1-3.3,5.6c-3.4,0.5-6.5-1.1-7.9-4l-2.4-5l2.4-0.3l2.4,5
			c0.8,1.7,2.7,2.6,4.5,2.3c1.8-0.2,2.6-1.5,1.8-3.2l-2.4-5L473.4,44.2z"/>
	</g>
	<g>
		<path class="st19" d="M455.4,46.7c2-0.3,4.2,0.4,6,1.6l-1.8,1.2c-1-0.7-2.2-1.1-3.3-0.9c-1.8,0.3-2.5,1.7-1.7,3.4
			c0.8,1.7,2.8,2.9,4.6,2.6c0.9-0.1,1.6-0.7,1.9-1.4l-0.3-0.7l-2.7,0.4l-0.9-1.8l5.1-0.7l2.6,5.5l-2.4,0.3l-0.2-0.4
			c-0.6,0.4-1.3,0.7-2.2,0.8c-3.4,0.5-6.8-1.3-8.1-4.1C450.7,49.6,452.1,47.2,455.4,46.7z"/>
	</g>
	<g>
		<path class="st19" d="M444.2,48.4l9.3,9l-2.6,0.4l-1.9-2l-4.6,0.6l0.1,2.2l-2.6,0.4l0-10.3L444.2,48.4z M444.2,54.4l2.9-0.4l-3-3
			L444.2,54.4"/>
	</g>
</g>
<g>
	<g>
		<polygon class="st20" points="119.4,374.1 122.9,381.5 121,381.8 117.5,374.4 		"/>
	</g>
	<g>
		<polygon class="st20" points="116.3,374.5 117,376 114.3,376.3 117.2,382.3 115.3,382.6 112.4,376.6 109.7,377 109,375.6 		"/>
	</g>
	<g>
		<path class="st20" d="M104.2,376.2c2.3-0.3,4.2,0.4,5,1.9c0.7,1.4-0.2,2.6-2.5,3l-1.1,0.1l1.2,2.5L105,384l-3.6-7.4L104.2,376.2z
			 M105.9,379.8c1.2-0.2,1.6-0.6,1.3-1.3c-0.3-0.7-1.1-0.9-2.3-0.8l-0.9,0.1l1,2.1L105.9,379.8"/>
	</g>
	<g>
		<path class="st20" d="M95.5,377.4c2.6-0.4,5.2,1,6.2,3.1c1,2.1-0.1,4-2.6,4.4c-2.6,0.4-5.2-1-6.2-3.1
			C91.9,379.6,93,377.8,95.5,377.4z M98.4,383.4c1.4-0.2,1.9-1.4,1.3-2.7c-0.6-1.3-2.1-2.1-3.5-1.9c-1.4,0.2-1.9,1.3-1.3,2.6
			C95.5,382.7,97,383.6,98.4,383.4"/>
	</g>
	<g>
		<path class="st20" d="M157.3,368.7c1.5-0.2,3.2,0.3,4.6,1.2l-1.4,0.9c-0.8-0.6-1.7-0.8-2.5-0.7c-1.4,0.2-1.9,1.3-1.3,2.6
			c0.6,1.3,2.1,2.2,3.5,2c0.8-0.1,1.3-0.6,1.5-1.2l2.1,0.4c-0.3,1.2-1.4,2.1-2.9,2.3c-2.6,0.4-5.2-1-6.2-3.1
			C153.7,371,154.7,369.1,157.3,368.7z"/>
	</g>
	<g>
		<path class="st20" d="M148.7,370l7.1,6.9l-2,0.3l-1.5-1.5l-3.5,0.5l0.1,1.7l-2,0.3l0-7.9L148.7,370z M148.7,374.6l2.2-0.3
			l-2.3-2.3L148.7,374.6"/>
	</g>
	<g>
		<polygon class="st20" points="142.3,370.9 142.6,371.7 141.2,377.4 145.2,376.9 145.9,378.3 139.2,379.2 138.8,378.4 140.3,372.7 
			136.7,373.2 136,371.8 		"/>
	</g>
	<g>
		<polygon class="st20" points="134.1,372 137.6,379.4 135.7,379.7 132.2,372.3 		"/>
	</g>
	<g>
		<polygon class="st20" points="130.5,372.6 134,379.9 132.2,380.2 129.9,375.6 128.9,379.3 128.5,379.4 124.3,376.4 126.5,381 
			124.6,381.3 121.1,373.9 122.9,373.6 127.5,376.8 128.6,372.8 		"/>
	</g>
	<g>
		<path class="st20" d="M170.4,366.9c2.6-0.4,5.2,1,6.2,3.1c1,2.1-0.1,4-2.6,4.4c-2.6,0.4-5.2-1-6.2-3.1
			C166.8,369.1,167.8,367.2,170.4,366.9z M173.3,372.9c1.4-0.2,1.9-1.4,1.3-2.7c-0.6-1.3-2.1-2.1-3.5-1.9c-1.4,0.2-1.9,1.3-1.3,2.6
			C170.4,372.2,171.9,373.1,173.3,372.9"/>
	</g>
	<g>
		<polygon class="st20" points="164.5,367.8 168.1,375.1 166.2,375.4 162.7,368 		"/>
	</g>
	<g>
		<polygon class="st20" points="183.9,365 187.4,372.4 185.7,372.7 179.6,368.7 181.7,373.2 179.9,373.5 176.3,366.1 178.1,365.9 
			184.2,369.8 182,365.3 		"/>
	</g>
	<g>
		<polygon class="st20" points="206.8,361.8 207.4,363.2 202.9,363.9 203.4,365.1 207.3,364.5 208,365.9 204.1,366.5 205.1,368.4 
			209.8,367.8 210.5,369.2 203.9,370.1 200.3,362.7 		"/>
	</g>
	<g>
		<path class="st20" d="M194.4,363.6c2.7-0.4,5.2,1,6.2,3.1c1,2.1,0.1,3.9-2.6,4.3l-3.2,0.5l-3.6-7.4L194.4,363.6z M197.3,369.6
			c1.6-0.2,1.9-1.4,1.3-2.7c-0.5-1-1.9-2.2-3.7-1.9l-1.1,0.2l2.2,4.7L197.3,369.6"/>
	</g>
	<g>
		<path class="st20" d="M216.9,360.4c2.3-0.3,4.2,0.4,5,1.9c0.7,1.4-0.2,2.6-2.5,3l-1.1,0.1l1.2,2.5l-1.9,0.3l-3.6-7.4L216.9,360.4z
			 M218.6,363.9c1.2-0.2,1.6-0.6,1.3-1.3c-0.3-0.7-1.1-0.9-2.3-0.8l-0.9,0.1l1,2.1L218.6,363.9"/>
	</g>
	<g>
		<path class="st20" d="M271.6,352.7c2.6-0.4,5.2,1,6.2,3.1c1,2.1-0.1,4-2.6,4.4c-2.6,0.4-5.2-1-6.2-3.1
			C268,354.9,269.1,353,271.6,352.7z M274.5,358.7c1.4-0.2,1.9-1.4,1.3-2.7c-0.6-1.3-2.1-2.1-3.5-1.9c-1.4,0.2-1.9,1.3-1.3,2.6
			C271.6,358,273.1,358.9,274.5,358.7"/>
	</g>
	<g>
		<path class="st20" d="M262.2,354c1.1-0.1,2.2,0,3.2,0.5c0.3,0.1,0.7,0.3,1.1,0.6l-1.3,1.1c-0.3-0.2-0.6-0.4-0.8-0.5
			c-0.5-0.2-1-0.3-1.6-0.3c-1,0.1-1.2,0.5-1,0.9c0.2,0.5,0.8,0.5,1.9,0.4c2.2-0.2,4,0.4,4.7,1.9c0.3,0.6,0.2,1.2-0.1,1.6
			c-0.5,0.7-1.5,1.1-2.5,1.2c-1.1,0.2-2.3,0-3.4-0.5c-0.3-0.1-0.7-0.3-1.1-0.6l1.6-0.9c0.6,0.3,1.4,0.6,2.2,0.5
			c0.7-0.1,1.1-0.3,1.3-0.5c0.1-0.2,0.2-0.4,0.1-0.7c-0.3-0.6-1-0.8-2.1-0.6c-2.2,0.3-3.7-0.1-4.4-1.5c-0.3-0.6-0.2-1.1,0.1-1.6
			C260.4,354.5,261.2,354.1,262.2,354z"/>
	</g>
	<g>
		<polygon class="st20" points="256.9,354.8 257.6,356.2 253,356.8 253.6,358 257.4,357.5 258.1,358.9 254.3,359.4 255.2,361.4 
			259.9,360.7 260.6,362.1 254,363.1 250.5,355.7 		"/>
	</g>
	<g>
		<path class="st20" d="M245.1,356.4c1.5-0.2,3.2,0.3,4.6,1.2l-1.4,0.9c-0.8-0.6-1.7-0.8-2.5-0.7c-1.4,0.2-1.9,1.3-1.3,2.6
			c0.6,1.3,2.1,2.2,3.5,2c0.8-0.1,1.3-0.6,1.5-1.2l2.1,0.4c-0.3,1.2-1.4,2.1-2.9,2.3c-2.6,0.4-5.2-1-6.2-3.1
			C241.5,358.6,242.5,356.7,245.1,356.4z"/>
	</g>
	<g>
		<path class="st20" d="M235,357.8c2.6-0.4,5.2,1,6.2,3.1c1,2.1-0.1,4-2.6,4.4c-2.6,0.4-5.2-1-6.2-3.1
			C231.4,360,232.4,358.2,235,357.8z M237.9,363.8c1.4-0.2,1.9-1.4,1.3-2.7c-0.6-1.3-2.1-2.1-3.5-1.9c-1.4,0.2-1.9,1.3-1.3,2.6
			C235,363.1,236.5,364,237.9,363.8"/>
	</g>
	<g>
		<path class="st20" d="M229.1,363.4c1.3,0.8,2.9,1.8,4.2,2.6l-2.4,0.3l-3.7-2.3l-0.7,0.1l1.3,2.7l-1.9,0.3l-3.6-7.4l2.8-0.4
			c2.5-0.3,4.2,0.4,4.9,1.8C230.3,362,230.1,362.8,229.1,363.4z M226.7,362.6c1.1-0.2,1.5-0.6,1.2-1.3c-0.3-0.7-1.1-0.9-2.3-0.7
			l-0.9,0.1l1,2L226.7,362.6"/>
	</g>
	<g>
		<path class="st20" d="M281.1,351.3c1.1-0.1,2.2,0,3.2,0.5c0.3,0.1,0.7,0.3,1.1,0.6l-1.2,1.1c-0.3-0.2-0.6-0.4-0.8-0.5
			c-0.5-0.2-1-0.3-1.6-0.3c-1,0.1-1.2,0.5-1,0.9c0.2,0.5,0.8,0.5,1.9,0.4c2.2-0.2,4,0.4,4.7,1.9c0.3,0.6,0.2,1.2-0.1,1.6
			c-0.5,0.7-1.5,1.1-2.5,1.2c-1.1,0.2-2.3,0-3.4-0.5c-0.3-0.1-0.7-0.3-1.2-0.6l1.6-0.9c0.6,0.3,1.4,0.6,2.2,0.5
			c0.7-0.1,1.1-0.3,1.3-0.5c0.1-0.2,0.2-0.4,0.1-0.7c-0.3-0.6-1-0.8-2.1-0.6c-2.2,0.3-3.7-0.1-4.4-1.5c-0.3-0.6-0.2-1.1,0.1-1.6
			C279.3,351.8,280.1,351.5,281.1,351.3z"/>
	</g>
</g>
</svg>
