<?xml version="1.0" encoding="utf-8"?>
<!-- Generator: Adobe Illustrator 24.0.2, SVG Export Plug-In . SVG Version: 6.00 Build 0)  -->
<svg version="1.1" id="Layer_1" xmlns="http://www.w3.org/2000/svg" xmlns:xlink="http://www.w3.org/1999/xlink" x="0px" y="0px"
	 viewBox="0 0 612 792" style="enable-background:new 0 0 612 792;" xml:space="preserve">
<style type="text/css">
	.st0{fill:#6614CF;}
	.st1{fill:#173D7A;}
	.st2{fill:#FDD762;}
	.st3{fill:#FFC2B0;}
	.st4{fill:#8A2AE3;}
	.st5{fill:#983BE9;}
	.st6{fill:#FFFFFF;}
	.st7{fill:#EA9C92;}
	.st8{fill:#B45EF4;}
	.st9{fill:#D8892B;}
	.st10{fill:#D29FFF;}
	.st11{fill:url(#SVGID_1_);}
	.st12{fill:url(#SVGID_2_);}
	.st13{fill:url(#SVGID_3_);}
	.st14{fill:url(#SVGID_4_);}
	.st15{fill:url(#SVGID_5_);}
	.st16{fill:#D4ECFF;}
	.st17{fill:url(#SVGID_6_);}
	.st18{fill:#396CAA;}
	.st19{fill:url(#SVGID_7_);}
	.st20{fill:url(#SVGID_8_);}
	.st21{fill:url(#SVGID_9_);}
	.st22{fill:url(#SVGID_10_);}
	.st23{fill:url(#SVGID_11_);}
	.st24{fill:url(#SVGID_12_);}
	.st25{fill:url(#SVGID_13_);}
	.st26{fill:url(#SVGID_14_);}
	.st27{fill:url(#SVGID_15_);}
	.st28{fill:url(#SVGID_16_);}
	.st29{fill:url(#SVGID_17_);}
	.st30{fill:url(#SVGID_18_);}
	.st31{fill:url(#SVGID_19_);}
	.st32{fill:url(#SVGID_20_);}
	.st33{fill:url(#SVGID_21_);}
	.st34{fill:url(#SVGID_22_);}
	.st35{fill:url(#SVGID_23_);}
	.st36{fill:url(#SVGID_24_);}
	.st37{fill:url(#SVGID_25_);}
	.st38{fill:url(#SVGID_26_);}
	.st39{fill:url(#SVGID_27_);}
	.st40{fill:url(#SVGID_28_);}
	.st41{fill:url(#SVGID_29_);}
	.st42{fill:url(#SVGID_30_);}
	.st43{fill:#D3008D;}
	.st44{fill:#FF2C9C;}
	.st45{fill:#5793CE;}
</style>
<title>Business_SVG</title>
<g>
	<path class="st0" d="M154,193.5c0,0,1.6,34,4.2,56.8c2.6,22.8,57.6-17.5,57.6-17.5v-26L154,193.5z"/>
	<g>
		<path class="st1" d="M183.3,616.2c0.8,2.1,15.1,19.4,29.3,23.7c6.2,1.9,10.4,2.1,13.1,1.8c2.7-0.3,4.4-3.1,3.5-5.7
			c-2.5-6.9-9.5-21.3-27.3-30.1C177.7,593.9,183.3,616.2,183.3,616.2z"/>
		<path class="st1" d="M178.5,622.8c0,0,5.4,12.6,7,23.1c1,6.4-2.5,14.8-5.4,20.3c-1.8,3.4-6.4,4.2-9.2,1.6
			c-4.7-4.2-10.6-11.6-11.6-22.1c-1.7-17.8,0-20.8,0-20.8L178.5,622.8z"/>
		<path class="st2" d="M144.2,408.2c0,0-1.9,22.4,0,47.2c1.9,24.8,8.5,140.6,9.8,168.5c0,0-0.6,8.4,15.7,6.6
			c16.3-1.9,15-11.2,15-11.2s22.9-0.3,23.7-13.8c0.7-13.5,23.5-161.5,23.5-214.7L144.2,408.2z"/>
		<g>
			<path class="st3" d="M240.4,292.4l11.2,17.4l38.6,46.7c0,0-1.3,4.3-6.1,5.5c-3.8,0.9-36.3-30.1-50.3-43.7
				c-3.7-3.6-4.4-9.4-1.5-13.7L240.4,292.4z"/>
			<path class="st4" d="M218.4,221c0,0,17.9-0.5,24.1,25.3c6.2,25.8,11.1,58.1,5.7,60.8c-16.2,8.1-26.5-1.4-26.5-1.4L218.4,221z"/>
			<path class="st5" d="M223.8,222.1c-3-1.3-6.5-1.4-9.6-0.5c-15.2,4.4-72.4,21.2-81.8,29.2c-10.9,9.3,16.3,61.6,15.9,78.8
				c-0.4,17.2-2.3,37.4-3.8,56c-1.5,18.6-3.6,28.9,11.7,36.8c15.2,7.9,41.3,8.3,60.8-6.6c19.5-14.9,16-25,15.1-35.8
				c-0.8-10.8-7.4-57.4-6.9-70.7c0,0,6.9-5.1,12-13.7c5.1-8.7-3.9-24.6-7.6-35c-3.7-10.4,2.1-22.2,0.9-30.7
				C229.8,225.6,227,223.4,223.8,222.1z"/>
			
				<ellipse transform="matrix(0.9919 -0.127 0.127 0.9919 -29.3264 25.3316)" class="st6" cx="184" cy="242.6" rx="21.7" ry="17.2"/>
			
				<ellipse transform="matrix(0.9919 -0.127 0.127 0.9919 -29.3231 25.3364)" class="st3" cx="184" cy="242.6" rx="15.5" ry="12.3"/>
			<path class="st3" d="M190.9,218.6c0,0-10.3-8.5-12.4-4.2c-2,4.3-3.7,22.8-3.7,22.8l20.5,5.5l-3.1-18.7
				C192.3,223.9,196.4,220.5,190.9,218.6z"/>
			<circle class="st3" cx="192.4" cy="196.5" r="30.6"/>
			<path class="st7" d="M177.1,219.7c-0.2,1-0.4,2-0.5,3.1c2.1,10.7,18,15.3,18,15.3l-2.4-14.2c0,0,1.9-1.6,1.4-3.3
				C187.4,218.7,179.4,216.9,177.1,219.7z"/>
			<circle class="st3" cx="192.4" cy="196.5" r="30.6"/>
			<polygon class="st3" points="117,326.1 120.4,408.1 132.4,409.3 140.2,335.5 			"/>
			<path class="st4" d="M156.3,319.3c-4-17.5-11.8-56.1-11.8-56.1l-3.3,38.4c3.9,11.4,7.2,21.9,7,27.9c-0.2,10.1-1,21.2-1.9,32.4v0
				C146.3,362,160.3,336.8,156.3,319.3z"/>
			<path class="st8" d="M134.6,249.1c0,0-9.6,3.7-15,33.1s-9.5,58.9,0.2,62.7c9.7,3.8,17.7,6.7,20.6-1.2c2.8-7.9,4.6-45.8,5-59.4
				C145.7,270.6,146.2,251.8,134.6,249.1z"/>
			<path class="st3" d="M287.4,353.1c0,0,5.2,1.9,8.9,6c3.1,3.3,4.8,6.2,6.1,8.2c3,4.4,5.5,14.1,3.7,15.3
				c-1.8,1.2-12.2-16.1-13.9-12.1c-1.7,4,0,7.7-2.1,7.8c-2.1,0.1-9.6-17.4-15.5-22.8C268.7,350.1,287.4,353.1,287.4,353.1z"/>
		</g>
		<path class="st9" d="M184.7,619.3c0,0,2.8,0,6.6-0.7l0,0l4.5-180.1L184.7,619.3z"/>
	</g>
	<g>
		<path class="st5" d="M167.4,522l-6.4-8.3l-67-38.8c-2.1-1.2-3.9-4.6-3.9-7.4l0.1-54.9l-3.9-5l3.6-2.1l0,0c0.7-0.4,1.6-0.4,2.6,0.2
			l76,44c2.1,1.2,3.9,4.6,3.9,7.4l-0.1,59.8c0,1.6-0.6,2.7-1.4,3.2l0,0L167.4,522z"/>
		<path class="st10" d="M121,490.5l-4.8-2.8l-26.1-45.4l0-29.8l-3.9-5l3.6-2.1l0,0c0.7-0.4,1.6-0.4,2.6,0.2l76,44
			c1.1,0.7,2.2,1.9,2.9,3.4L121,490.5z"/>
		<path class="st10" d="M88,409.7l-1.7-2.2l3.6-2.1l0,0c0.7-0.4,1.6-0.4,2.6,0.2l1.3,0.8L88,409.7z"/>
		<path class="st5" d="M169.2,450c1.7,1.4,3,4,3.2,6.4l-7.4,4.3l-3.6-6.2L169.2,450z"/>
		<path class="st8" d="M164.9,451.6l-76-44c-2.1-1.2-3.9,0.1-3.9,2.9L85,470.4c0,2.9,1.7,6.2,3.9,7.4l76,44c2.1,1.2,3.9-0.1,3.9-2.9
			l0.1-59.8C168.8,456.2,167,452.9,164.9,451.6z"/>
	</g>
	<path class="st3" d="M120.5,407.4c0,0-3.2,19.1-2.7,25.2s3.8,16.2,6.2,16c2.5-0.2,0.1-24.6,4.5-22.2c4.4,2.4,4.8,6.6,6.8,5.1
		c2-1.5-3.5-22.3-2-31.4C134.8,391.1,120.5,407.4,120.5,407.4z"/>
	<path class="st7" d="M204.2,199.2c15.4,5.5,18.3,2.1,18.5,1.9c0.1-0.9,0.3-1.9,0.3-2.8c0.2-3.4-0.2-6.7-1-9.8l-39.8-5.4
		C182.1,183.2,188.4,193.6,204.2,199.2z"/>
	<path class="st0" d="M224.1,167.8c-3.6-3.1-16.7-18.4-40.1-14.8c-14.6,2.3-26.9,12.2-29.7,35c-1.8,15.3,3.8,30.4,14.2,41.6
		c0.6-0.3,1.1-0.5,1.7-0.8c5.9-3.9,6.5-6,6.5-6l1.3-11.6c0-1.6-1.3-3.1-2.9-3.2c-1.3-0.1-2.8-0.7-4.3-2.6
		c-3.4-4.4-1.8-11.2,4.9-11.5c3.5-0.1,4.9-2,5.4-3.8c0.4-1.6,2.1-2.4,3.6-1.9c7.6,2.8,26.5,8.7,38.6,5.3
		C238.7,189,227.7,170.9,224.1,167.8z"/>
	<path class="st6" d="M206.6,213l9.4-2.6c0,0-4.5,7-11,8.8c-6.5,1.8-7.5-3.7-7.5-3.7L206.6,213z"/>
	<polygon class="st10" points="136.4,431 128.4,426.4 131.4,431.3 135.5,432.8 	"/>
</g>
<g>
	<linearGradient id="SVGID_1_" gradientUnits="userSpaceOnUse" x1="285.5284" y1="688.0067" x2="541.7929" y2="688.0067">
		<stop  offset="0" style="stop-color:#25054D"/>
		<stop  offset="1" style="stop-color:#45108A"/>
	</linearGradient>
	<path class="st11" d="M541.8,679.7L541.8,679.7v-38.4l-86,0L426,624.1c-6.8-3.9-18.7-3.4-26.6,1.1l-27.7,16l-86.1,0v39.5
		c-0.2,2.7,1.3,5.2,4.6,7.1l111.2,64.2c6.8,3.9,18.7,3.4,26.6-1.1l107.4-62C539.8,686.2,542,682.8,541.8,679.7z"/>
	<linearGradient id="SVGID_2_" gradientUnits="userSpaceOnUse" x1="285.5329" y1="688.0093" x2="413.6657" y2="688.0093">
		<stop  offset="0" style="stop-color:#25054D"/>
		<stop  offset="1" style="stop-color:#45108A"/>
	</linearGradient>
	<path class="st12" d="M413.7,621.4c-5,0.1-10.2,1.4-14.3,3.7l-27.7,16l-86.1,0v39.5c-0.2,2.7,1.3,5.2,4.6,7.1l111.2,64.2
		c3.3,1.9,7.7,2.8,12.4,2.6L413.7,621.4L413.7,621.4z"/>
	<linearGradient id="SVGID_3_" gradientUnits="userSpaceOnUse" x1="285.5284" y1="665.9385" x2="295.2922" y2="665.9385">
		<stop  offset="0" style="stop-color:#6B24D6"/>
		<stop  offset="0.5213" style="stop-color:#4C258A"/>
		<stop  offset="0.984" style="stop-color:#541E9A"/>
	</linearGradient>
	<path class="st13" d="M295.3,641.2l-9.7,0v39.5c-0.2,2.7,1.3,5.2,4.6,7.1l5.2,3L295.3,641.2L295.3,641.2z"/>
	<linearGradient id="SVGID_4_" gradientUnits="userSpaceOnUse" x1="403.0115" y1="734.7212" x2="424.2928" y2="734.7212">
		<stop  offset="0" style="stop-color:#6B24D6"/>
		<stop  offset="0.5213" style="stop-color:#4C258A"/>
		<stop  offset="0.984" style="stop-color:#541E9A"/>
	</linearGradient>
	<path class="st14" d="M403,753c5.9,2.1,14.4,2,21.3-0.2v-38H403V753z"/>
	<linearGradient id="SVGID_5_" gradientUnits="userSpaceOnUse" x1="285.5118" y1="641.2969" x2="541.8152" y2="641.2969">
		<stop  offset="0" style="stop-color:#25054D"/>
		<stop  offset="1" style="stop-color:#45108A"/>
	</linearGradient>
	<path class="st15" d="M401.3,712.6l-111.2-64.2c-6.8-3.9-6-10.8,1.9-15.4l107.4-62c7.9-4.6,19.8-5,26.6-1.1l111.2,64.2
		c6.8,3.9,6,10.8-1.9,15.4l-107.4,62C420.1,716.1,408.1,716.6,401.3,712.6z"/>
	<path class="st6" d="M535.3,642l-107.4,62c-7.9,4.6-19.8,5-26.6,1.1l-111.2-64.2c-1.5-0.9-2.6-1.9-3.4-3c-2.3,3.8-1.3,7.9,3.4,10.6
		l111.2,64.2c6.8,3.9,18.7,3.4,26.6-1.1l107.4-62c6.1-3.5,8-8.5,5.3-12.4C539.5,638.9,537.8,640.6,535.3,642z"/>
	<g>
		<path class="st16" d="M500.9,689.8c0,2.9-2,6.3-4.5,7.8c-2.5,1.4-4.5,0.3-4.5-2.6s2-6.3,4.5-7.8
			C498.9,685.8,500.9,686.9,500.9,689.8z"/>
		<path class="st16" d="M454.1,706.9c0,2.9-2,6.3-4.5,7.8c-2.5,1.4-4.5,0.3-4.5-2.6c0-2.9,2-6.3,4.5-7.8
			C452,702.9,454.1,704,454.1,706.9z"/>
		<path class="st6" d="M456.6,777.7c0,2.9-2,6.3-4.5,7.8c-2.5,1.4-4.5,0.3-4.5-2.6c0-2.9,2-6.3,4.5-7.8
			C454.6,773.7,456.6,774.9,456.6,777.7z"/>
		<path class="st16" d="M515.3,681.4c0,2.9-2,6.3-4.5,7.8c-2.5,1.4-4.5,0.3-4.5-2.6c0-2.9,2-6.3,4.5-7.8
			C513.3,677.4,515.3,678.6,515.3,681.4z"/>
		<path class="st16" d="M529.8,673.1c0,2.9-2,6.3-4.5,7.8c-2.5,1.4-4.5,0.3-4.5-2.6c0-2.9,2-6.3,4.5-7.8
			C527.8,669.1,529.8,670.2,529.8,673.1z"/>
	</g>
	<g>
		<linearGradient id="SVGID_6_" gradientUnits="userSpaceOnUse" x1="353.6997" y1="639.4459" x2="473.6316" y2="639.4459">
			<stop  offset="0" style="stop-color:#6B24D6"/>
			<stop  offset="0.5213" style="stop-color:#4C258A"/>
			<stop  offset="0.984" style="stop-color:#541E9A"/>
		</linearGradient>
		<path class="st17" d="M407.9,672.8l-52-30c-3.2-1.8-2.8-5.1,0.9-7.2l50.2-29c3.7-2.1,9.3-2.4,12.5-0.5l52,30
			c3.2,1.8,2.8,5.1-0.9,7.2l-50.2,29C416.7,674.4,411.1,674.7,407.9,672.8z"/>
		<path class="st16" d="M412.9,647.7l-7.2-4.2c-0.4-0.3-0.4-0.7,0.1-1l7-4c0.5-0.3,1.3-0.3,1.7-0.1l7.2,4.2c0.4,0.3,0.4,0.7-0.1,1
			l-7,4C414.1,647.9,413.3,647.9,412.9,647.7z"/>
		<path class="st18" d="M355.8,642.8l0.1,0.1c0.2-0.2,0.5-0.4,0.7-0.5l50.2-29c3.7-2.1,9.3-2.4,12.5-0.5l51.9,30
			c2.9-2.1,3.1-5,0.1-6.7l-52-30c-3.2-1.8-8.8-1.6-12.5,0.5l-50.2,29C353.1,637.7,352.7,640.9,355.8,642.8z"/>
	</g>
</g>
<g>
	<linearGradient id="SVGID_7_" gradientUnits="userSpaceOnUse" x1="285.5547" y1="622.9371" x2="541.8192" y2="622.9371">
		<stop  offset="0" style="stop-color:#25054D"/>
		<stop  offset="1" style="stop-color:#45108A"/>
	</linearGradient>
	<path class="st19" d="M541.8,614.6L541.8,614.6v-38.4l-86,0L426,559c-6.8-3.9-18.7-3.4-26.6,1.1l-27.7,16l-86.1,0v39.5
		c-0.2,2.7,1.3,5.2,4.6,7.1l111.2,64.2c6.8,3.9,18.7,3.4,26.6-1.1l107.4-62C539.9,621.2,542.1,617.8,541.8,614.6z"/>
	<linearGradient id="SVGID_8_" gradientUnits="userSpaceOnUse" x1="285.5592" y1="622.9396" x2="413.692" y2="622.9396">
		<stop  offset="0" style="stop-color:#25054D"/>
		<stop  offset="1" style="stop-color:#45108A"/>
	</linearGradient>
	<path class="st20" d="M413.7,556.4c-5,0.1-10.2,1.4-14.3,3.7l-27.7,16l-86.1,0v39.5c-0.2,2.7,1.3,5.2,4.6,7.1l111.2,64.2
		c3.3,1.9,7.7,2.8,12.4,2.6L413.7,556.4L413.7,556.4z"/>
	<linearGradient id="SVGID_9_" gradientUnits="userSpaceOnUse" x1="285.5547" y1="600.8688" x2="295.3185" y2="600.8688">
		<stop  offset="0" style="stop-color:#6B24D6"/>
		<stop  offset="0.5213" style="stop-color:#4C258A"/>
		<stop  offset="0.984" style="stop-color:#541E9A"/>
	</linearGradient>
	<path class="st21" d="M295.3,576.1l-9.7,0v39.5c-0.2,2.7,1.3,5.2,4.6,7.1l5.2,3L295.3,576.1L295.3,576.1z"/>
	<linearGradient id="SVGID_10_" gradientUnits="userSpaceOnUse" x1="403.0378" y1="669.6515" x2="424.3191" y2="669.6515">
		<stop  offset="0" style="stop-color:#6B24D6"/>
		<stop  offset="0.5213" style="stop-color:#4C258A"/>
		<stop  offset="0.984" style="stop-color:#541E9A"/>
	</linearGradient>
	<path class="st22" d="M403,688c5.9,2.1,14.4,2,21.3-0.2v-38H403V688z"/>
	<linearGradient id="SVGID_11_" gradientUnits="userSpaceOnUse" x1="285.5381" y1="576.2272" x2="541.8415" y2="576.2272">
		<stop  offset="0" style="stop-color:#25054D"/>
		<stop  offset="1" style="stop-color:#45108A"/>
	</linearGradient>
	<path class="st23" d="M401.3,647.6l-111.2-64.2c-6.8-3.9-6-10.8,1.9-15.4l107.4-62c7.9-4.6,19.8-5,26.6-1.1l111.2,64.2
		c6.8,3.9,6,10.8-1.9,15.4l-107.4,62C420.1,651,408.2,651.5,401.3,647.6z"/>
	<path class="st6" d="M535.3,576.9l-107.4,62c-7.9,4.6-19.8,5-26.6,1.1l-111.2-64.2c-1.5-0.9-2.6-1.9-3.4-3
		c-2.3,3.8-1.3,7.9,3.4,10.6l111.2,64.2c6.8,3.9,18.7,3.4,26.6-1.1l107.4-62c6.1-3.5,8-8.5,5.3-12.4
		C539.6,573.8,537.8,575.5,535.3,576.9z"/>
	<g>
		<path class="st16" d="M500.9,631.2c0,2.9-2,6.3-4.5,7.8c-2.5,1.4-4.5,0.3-4.5-2.6s2-6.3,4.5-7.8
			C498.9,627.2,500.9,628.3,500.9,631.2z"/>
		<path class="st16" d="M454.1,659.4c0,2.9-2,6.3-4.5,7.8c-2.5,1.4-4.5,0.3-4.5-2.6c0-2.9,2-6.3,4.5-7.8
			C452,655.4,454.1,656.6,454.1,659.4z"/>
		<path class="st6" d="M455.2,723.3c0,2.9-2,6.3-4.5,7.8c-2.5,1.4-4.5,0.3-4.5-2.6c0-2.9,2-6.3,4.5-7.8
			C453.2,719.3,455.2,720.4,455.2,723.3z"/>
		<path class="st16" d="M515.4,622.9c0,2.9-2,6.3-4.5,7.8c-2.5,1.4-4.5,0.3-4.5-2.6c0-2.9,2-6.3,4.5-7.8
			C513.3,618.8,515.4,620,515.4,622.9z"/>
		<path class="st16" d="M529.8,614.5c0,2.9-2,6.3-4.5,7.8c-2.5,1.4-4.5,0.3-4.5-2.6c0-2.9,2-6.3,4.5-7.8S529.8,611.6,529.8,614.5z"
			/>
	</g>
	<g>
		<linearGradient id="SVGID_12_" gradientUnits="userSpaceOnUse" x1="353.726" y1="574.3762" x2="473.6579" y2="574.3762">
			<stop  offset="0" style="stop-color:#6B24D6"/>
			<stop  offset="0.5213" style="stop-color:#4C258A"/>
			<stop  offset="0.984" style="stop-color:#541E9A"/>
		</linearGradient>
		<path class="st24" d="M407.9,607.8l-52-30c-3.2-1.8-2.8-5.1,0.9-7.2l50.2-29c3.7-2.1,9.3-2.4,12.5-0.5l52,30
			c3.2,1.8,2.8,5.1-0.9,7.2l-50.2,29C416.7,609.4,411.1,609.6,407.9,607.8z"/>
		<path class="st16" d="M412.9,582.6l-7.2-4.2c-0.4-0.3-0.4-0.7,0.1-1l7-4c0.5-0.3,1.3-0.3,1.7-0.1l7.2,4.2c0.4,0.3,0.4,0.7-0.1,1
			l-7,4C414.1,582.8,413.3,582.9,412.9,582.6z"/>
		<path class="st18" d="M355.9,577.7l0.1,0.1c0.2-0.2,0.5-0.4,0.7-0.5l50.2-29c3.7-2.1,9.3-2.4,12.5-0.5l51.9,30
			c2.9-2.1,3.1-5,0.1-6.7l-52-30c-3.2-1.8-8.8-1.6-12.5,0.5l-50.2,29C353.1,572.6,352.7,575.9,355.9,577.7z"/>
	</g>
</g>
<g>
	<linearGradient id="SVGID_13_" gradientUnits="userSpaceOnUse" x1="285.5396" y1="555.059" x2="541.8042" y2="555.059">
		<stop  offset="0" style="stop-color:#25054D"/>
		<stop  offset="1" style="stop-color:#45108A"/>
	</linearGradient>
	<path class="st25" d="M541.8,546.7L541.8,546.7v-38.4l-86,0L426,491.1c-6.8-3.9-18.7-3.4-26.6,1.1l-27.7,16l-86.1,0v39.5
		c-0.2,2.7,1.3,5.2,4.6,7.1L401.3,619c6.8,3.9,18.7,3.4,26.6-1.1l107.4-62C539.8,553.3,542,549.9,541.8,546.7z"/>
	<linearGradient id="SVGID_14_" gradientUnits="userSpaceOnUse" x1="285.5442" y1="555.0615" x2="413.677" y2="555.0615">
		<stop  offset="0" style="stop-color:#25054D"/>
		<stop  offset="1" style="stop-color:#45108A"/>
	</linearGradient>
	<path class="st26" d="M413.7,488.5c-5,0.1-10.2,1.4-14.3,3.7l-27.7,16l-86.1,0v39.5c-0.2,2.7,1.3,5.2,4.6,7.1L401.3,619
		c3.3,1.9,7.7,2.8,12.4,2.6L413.7,488.5L413.7,488.5z"/>
	<linearGradient id="SVGID_15_" gradientUnits="userSpaceOnUse" x1="285.5397" y1="532.9907" x2="295.3035" y2="532.9907">
		<stop  offset="0" style="stop-color:#6B24D6"/>
		<stop  offset="0.5213" style="stop-color:#4C258A"/>
		<stop  offset="0.984" style="stop-color:#541E9A"/>
	</linearGradient>
	<path class="st27" d="M295.3,508.2l-9.7,0v39.5c-0.2,2.7,1.3,5.2,4.6,7.1l5.2,3L295.3,508.2L295.3,508.2z"/>
	<linearGradient id="SVGID_16_" gradientUnits="userSpaceOnUse" x1="403.0228" y1="601.7734" x2="424.3041" y2="601.7734">
		<stop  offset="0" style="stop-color:#6B24D6"/>
		<stop  offset="0.5213" style="stop-color:#4C258A"/>
		<stop  offset="0.984" style="stop-color:#541E9A"/>
	</linearGradient>
	<path class="st28" d="M403,620.1c5.9,2.1,14.4,2,21.3-0.2v-38H403V620.1z"/>
	<linearGradient id="SVGID_17_" gradientUnits="userSpaceOnUse" x1="285.5231" y1="508.3491" x2="541.8265" y2="508.3491">
		<stop  offset="0" style="stop-color:#25054D"/>
		<stop  offset="1" style="stop-color:#45108A"/>
	</linearGradient>
	<path class="st29" d="M401.3,579.7l-111.2-64.2c-6.8-3.9-6-10.8,1.9-15.4l107.4-62c7.9-4.6,19.8-5,26.6-1.1l111.2,64.2
		c6.8,3.9,6,10.8-1.9,15.4l-107.4,62C420.1,583.1,408.1,583.6,401.3,579.7z"/>
	<path class="st6" d="M535.3,509l-107.4,62c-7.9,4.6-19.8,5-26.6,1.1l-111.2-64.2c-1.5-0.9-2.6-1.9-3.4-3c-2.3,3.8-1.3,7.9,3.4,10.6
		l111.2,64.2c6.8,3.9,18.7,3.4,26.6-1.1l107.4-62c6.1-3.5,8-8.5,5.3-12.4C539.5,506,537.8,507.6,535.3,509z"/>
	<g>
		<path class="st16" d="M500.9,556.8c0,2.9-2,6.3-4.5,7.8c-2.5,1.4-4.5,0.3-4.5-2.6s2-6.3,4.5-7.8
			C498.9,552.8,500.9,554,500.9,556.8z"/>
		<path class="st16" d="M454.1,575.2c0,2.9-2,6.3-4.5,7.8c-2.5,1.4-4.5,0.3-4.5-2.6c0-2.9,2-6.3,4.5-7.8
			C452,571.2,454.1,572.3,454.1,575.2z"/>
		<path class="st6" d="M454.1,645.2c0,2.9-2,6.3-4.5,7.8c-2.5,1.4-4.5,0.3-4.5-2.6s2-6.3,4.5-7.8C452,641.2,454.1,642.4,454.1,645.2
			z"/>
		<path class="st16" d="M515.3,548.5c0,2.9-2,6.3-4.5,7.8c-2.5,1.4-4.5,0.3-4.5-2.6c0-2.9,2-6.3,4.5-7.8
			C513.3,544.5,515.3,545.6,515.3,548.5z"/>
		<path class="st16" d="M529.8,540.1c0,2.9-2,6.3-4.5,7.8c-2.5,1.4-4.5,0.3-4.5-2.6c0-2.9,2-6.3,4.5-7.8
			C527.8,536.1,529.8,537.3,529.8,540.1z"/>
	</g>
	<g>
		<linearGradient id="SVGID_18_" gradientUnits="userSpaceOnUse" x1="353.711" y1="506.4981" x2="473.6429" y2="506.4981">
			<stop  offset="0" style="stop-color:#6B24D6"/>
			<stop  offset="0.5213" style="stop-color:#4C258A"/>
			<stop  offset="0.984" style="stop-color:#541E9A"/>
		</linearGradient>
		<path class="st30" d="M407.9,539.9l-52-30c-3.2-1.8-2.8-5.1,0.9-7.2l50.2-29c3.7-2.1,9.3-2.4,12.5-0.5l52,30
			c3.2,1.8,2.8,5.1-0.9,7.2l-50.2,29C416.7,541.5,411.1,541.7,407.9,539.9z"/>
		<path class="st16" d="M412.9,514.7l-7.2-4.2c-0.4-0.3-0.4-0.7,0.1-1l7-4c0.5-0.3,1.3-0.3,1.7-0.1l7.2,4.2c0.4,0.3,0.4,0.7-0.1,1
			l-7,4C414.1,514.9,413.3,515,412.9,514.7z"/>
		<path class="st18" d="M355.9,509.8l0.1,0.1c0.2-0.2,0.5-0.4,0.7-0.5l50.2-29c3.7-2.1,9.3-2.4,12.5-0.5l51.9,30
			c2.9-2.1,3.1-5,0.1-6.7l-52-30c-3.2-1.8-8.8-1.6-12.5,0.5l-50.2,29C353.1,504.8,352.7,508,355.9,509.8z"/>
	</g>
</g>
<g>
	<linearGradient id="SVGID_19_" gradientUnits="userSpaceOnUse" x1="287.0373" y1="490.0114" x2="543.3018" y2="490.0114">
		<stop  offset="0" style="stop-color:#25054D"/>
		<stop  offset="1" style="stop-color:#45108A"/>
	</linearGradient>
	<path class="st31" d="M543.3,481.7L543.3,481.7v-38.4l-86,0l-29.7-17.2c-6.8-3.9-18.7-3.4-26.6,1.1l-27.7,16l-86.1,0v39.5
		c-0.2,2.7,1.3,5.2,4.6,7.1l111.2,64.2c6.8,3.9,18.7,3.4,26.6-1.1l107.4-62C541.3,488.2,543.5,484.8,543.3,481.7z"/>
	<linearGradient id="SVGID_20_" gradientUnits="userSpaceOnUse" x1="287.0418" y1="490.014" x2="415.1746" y2="490.014">
		<stop  offset="0" style="stop-color:#25054D"/>
		<stop  offset="1" style="stop-color:#45108A"/>
	</linearGradient>
	<path class="st32" d="M415.2,423.4c-5,0.1-10.2,1.4-14.3,3.7l-27.7,16l-86.1,0v39.5c-0.2,2.7,1.3,5.2,4.6,7.1l111.2,64.2
		c3.3,1.9,7.7,2.8,12.4,2.6L415.2,423.4L415.2,423.4z"/>
	<linearGradient id="SVGID_21_" gradientUnits="userSpaceOnUse" x1="287.0374" y1="467.9431" x2="296.8011" y2="467.9431">
		<stop  offset="0" style="stop-color:#6B24D6"/>
		<stop  offset="0.5213" style="stop-color:#4C258A"/>
		<stop  offset="0.984" style="stop-color:#541E9A"/>
	</linearGradient>
	<path class="st33" d="M296.8,443.2l-9.7,0v39.5c-0.2,2.7,1.3,5.2,4.6,7.1l5.2,3L296.8,443.2L296.8,443.2z"/>
	<linearGradient id="SVGID_22_" gradientUnits="userSpaceOnUse" x1="404.5204" y1="536.7258" x2="425.8017" y2="536.7258">
		<stop  offset="0" style="stop-color:#6B24D6"/>
		<stop  offset="0.5213" style="stop-color:#4C258A"/>
		<stop  offset="0.984" style="stop-color:#541E9A"/>
	</linearGradient>
	<path class="st34" d="M404.5,555c5.9,2.1,14.4,2,21.3-0.2v-38h-21.3V555z"/>
	<linearGradient id="SVGID_23_" gradientUnits="userSpaceOnUse" x1="287.0207" y1="443.3015" x2="543.3241" y2="443.3015">
		<stop  offset="0" style="stop-color:#25054D"/>
		<stop  offset="1" style="stop-color:#45108A"/>
	</linearGradient>
	<path class="st35" d="M402.8,514.6l-111.2-64.2c-6.8-3.9-6-10.8,1.9-15.4l107.4-62c7.9-4.6,19.8-5,26.6-1.1l111.2,64.2
		c6.8,3.9,6,10.8-1.9,15.4l-107.4,62C421.6,518.1,409.6,518.6,402.8,514.6z"/>
	<path class="st6" d="M536.8,444l-107.4,62c-7.9,4.6-19.8,5-26.6,1.1l-111.2-64.2c-1.5-0.9-2.6-1.9-3.4-3c-2.3,3.8-1.3,7.9,3.4,10.6
		l111.2,64.2c6.8,3.9,18.7,3.4,26.6-1.1l107.4-62c6.1-3.5,8-8.5,5.3-12.4C541,440.9,539.3,442.6,536.8,444z"/>
	<g>
		<path class="st16" d="M502.4,491.8c0,2.9-2,6.3-4.5,7.8c-2.5,1.4-4.5,0.3-4.5-2.6c0-2.9,2-6.3,4.5-7.8
			C500.4,487.8,502.4,488.9,502.4,491.8z"/>
		<path class="st16" d="M458.1,516.1c0,2.9-2,6.3-4.5,7.8c-2.5,1.4-4.5,0.3-4.5-2.6c0-2.9,2-6.3,4.5-7.8
			C456.1,512.1,458.1,513.2,458.1,516.1z"/>
		<path class="st6" d="M455.6,592.6c0,2.9-2,6.3-4.5,7.8c-2.5,1.4-4.5,0.3-4.5-2.6s2-6.3,4.5-7.8
			C453.5,588.6,455.6,589.8,455.6,592.6z"/>
		<path class="st16" d="M516.8,483.4c0,2.9-2,6.3-4.5,7.8c-2.5,1.4-4.5,0.3-4.5-2.6c0-2.9,2-6.3,4.5-7.8
			C514.8,479.4,516.8,480.6,516.8,483.4z"/>
		<path class="st16" d="M531.3,475.1c0,2.9-2,6.3-4.5,7.8c-2.5,1.4-4.5,0.3-4.5-2.6c0-2.9,2-6.3,4.5-7.8
			C529.3,471.1,531.3,472.2,531.3,475.1z"/>
	</g>
	<g>
		<linearGradient id="SVGID_24_" gradientUnits="userSpaceOnUse" x1="355.2086" y1="441.4506" x2="475.1405" y2="441.4506">
			<stop  offset="0" style="stop-color:#6B24D6"/>
			<stop  offset="0.5213" style="stop-color:#4C258A"/>
			<stop  offset="0.984" style="stop-color:#541E9A"/>
		</linearGradient>
		<path class="st36" d="M409.4,474.8l-52-30c-3.2-1.8-2.8-5.1,0.9-7.2l50.2-29c3.7-2.1,9.3-2.4,12.5-0.5l52,30
			c3.2,1.8,2.8,5.1-0.9,7.2l-50.2,29C418.2,476.4,412.6,476.7,409.4,474.8z"/>
		<path class="st16" d="M414.4,449.7l-7.2-4.2c-0.4-0.3-0.4-0.7,0.1-1l7-4c0.5-0.3,1.3-0.3,1.7-0.1l7.2,4.2c0.4,0.3,0.4,0.7-0.1,1
			l-7,4C415.6,449.9,414.8,449.9,414.4,449.7z"/>
		<path class="st18" d="M357.4,444.8l0.1,0.1c0.2-0.2,0.5-0.4,0.7-0.5l50.2-29c3.7-2.1,9.3-2.4,12.5-0.5l51.9,30
			c2.9-2.1,3.1-5,0.1-6.7l-52-30c-3.2-1.8-8.8-1.6-12.5,0.5l-50.2,29C354.6,439.7,354.2,442.9,357.4,444.8z"/>
	</g>
</g>
<g>
	<linearGradient id="SVGID_25_" gradientUnits="userSpaceOnUse" x1="287.0345" y1="427.7773" x2="543.2991" y2="427.7773">
		<stop  offset="0" style="stop-color:#25054D"/>
		<stop  offset="1" style="stop-color:#45108A"/>
	</linearGradient>
	<path class="st37" d="M543.3,419.4L543.3,419.4v-38.4l-86,0l-29.7-17.2c-6.8-3.9-18.7-3.4-26.6,1.1l-27.7,16l-86.1,0v39.5
		c-0.2,2.7,1.3,5.2,4.6,7.1l111.2,64.2c6.8,3.9,18.7,3.4,26.6-1.1l107.4-62C541.3,426,543.5,422.6,543.3,419.4z"/>
	<linearGradient id="SVGID_26_" gradientUnits="userSpaceOnUse" x1="287.0391" y1="427.7798" x2="415.1718" y2="427.7798">
		<stop  offset="0" style="stop-color:#25054D"/>
		<stop  offset="1" style="stop-color:#45108A"/>
	</linearGradient>
	<path class="st38" d="M415.2,361.2c-5,0.1-10.2,1.4-14.3,3.7l-27.7,16l-86.1,0v39.5c-0.2,2.7,1.3,5.2,4.6,7.1l111.2,64.2
		c3.3,1.9,7.7,2.8,12.4,2.6L415.2,361.2L415.2,361.2z"/>
	<linearGradient id="SVGID_27_" gradientUnits="userSpaceOnUse" x1="287.0346" y1="405.709" x2="296.7983" y2="405.709">
		<stop  offset="0" style="stop-color:#6B24D6"/>
		<stop  offset="0.5213" style="stop-color:#4C258A"/>
		<stop  offset="0.984" style="stop-color:#541E9A"/>
	</linearGradient>
	<path class="st39" d="M296.8,380.9l-9.7,0v39.5c-0.2,2.7,1.3,5.2,4.6,7.1l5.2,3L296.8,380.9L296.8,380.9z"/>
	<linearGradient id="SVGID_28_" gradientUnits="userSpaceOnUse" x1="404.5176" y1="474.4917" x2="425.799" y2="474.4917">
		<stop  offset="0" style="stop-color:#6B24D6"/>
		<stop  offset="0.5213" style="stop-color:#4C258A"/>
		<stop  offset="0.984" style="stop-color:#541E9A"/>
	</linearGradient>
	<path class="st40" d="M404.5,492.8c5.9,2.1,14.4,2,21.3-0.2v-38h-21.3V492.8z"/>
	<linearGradient id="SVGID_29_" gradientUnits="userSpaceOnUse" x1="287.0179" y1="381.0674" x2="543.3214" y2="381.0674">
		<stop  offset="0" style="stop-color:#25054D"/>
		<stop  offset="1" style="stop-color:#45108A"/>
	</linearGradient>
	<path class="st41" d="M402.8,452.4l-111.2-64.2c-6.8-3.9-6-10.8,1.9-15.4l107.4-62c7.9-4.6,19.8-5,26.6-1.1l111.2,64.2
		c6.8,3.9,6,10.8-1.9,15.4l-107.4,62C421.6,455.8,409.6,456.3,402.8,452.4z"/>
	<path class="st6" d="M536.8,381.8l-107.4,62c-7.9,4.6-19.8,5-26.6,1.1l-111.2-64.2c-1.5-0.9-2.6-1.9-3.4-3
		c-2.3,3.8-1.3,7.9,3.4,10.6l111.2,64.2c6.8,3.9,18.7,3.4,26.6-1.1l107.4-62c6.1-3.5,8-8.5,5.3-12.4
		C541,378.7,539.3,380.3,536.8,381.8z"/>
	<g>
		<path class="st16" d="M502.4,429.6c0,2.9-2,6.3-4.5,7.8c-2.5,1.4-4.5,0.3-4.5-2.6c0-2.9,2-6.3,4.5-7.8
			C500.4,425.5,502.4,426.7,502.4,429.6z"/>
		<path class="st16" d="M458.1,453.9c0,2.9-2,6.3-4.5,7.8c-2.5,1.4-4.5,0.3-4.5-2.6c0-2.9,2-6.3,4.5-7.8
			C456.1,449.9,458.1,451,458.1,453.9z"/>
		<path class="st16" d="M472.1,448.1c0,2.9-2,6.3-4.5,7.8c-2.5,1.4-4.5,0.3-4.5-2.6c0-2.9,2-6.3,4.5-7.8
			C470.1,444.1,472.1,445.2,472.1,448.1z"/>
		<path class="st16" d="M458.1,469.8c0,2.9-2,6.3-4.5,7.8c-2.5,1.4-4.5,0.3-4.5-2.6c0-2.9,2-6.3,4.5-7.8
			C456.1,465.8,458.1,467,458.1,469.8z"/>
		<path class="st16" d="M473.6,463.5c0,2.9-2,6.3-4.5,7.8c-2.5,1.4-4.5,0.3-4.5-2.6c0-2.9,2-6.3,4.5-7.8
			C471.6,459.5,473.6,460.6,473.6,463.5z"/>
		<path class="st6" d="M458.5,530.4c0,2.9-2,6.3-4.5,7.8c-2.5,1.4-4.5,0.3-4.5-2.6s2-6.3,4.5-7.8
			C456.5,526.4,458.5,527.5,458.5,530.4z"/>
		<path class="st16" d="M516.8,421.2c0,2.9-2,6.3-4.5,7.8c-2.5,1.4-4.5,0.3-4.5-2.6c0-2.9,2-6.3,4.5-7.8
			C514.8,417.2,516.8,418.3,516.8,421.2z"/>
		<path class="st16" d="M531.3,412.9c0,2.9-2,6.3-4.5,7.8c-2.5,1.4-4.5,0.3-4.5-2.6c0-2.9,2-6.3,4.5-7.8
			C529.3,408.8,531.3,410,531.3,412.9z"/>
	</g>
	<g>
		<linearGradient id="SVGID_30_" gradientUnits="userSpaceOnUse" x1="355.2059" y1="379.2164" x2="475.1378" y2="379.2164">
			<stop  offset="0" style="stop-color:#6B24D6"/>
			<stop  offset="0.5213" style="stop-color:#4C258A"/>
			<stop  offset="0.984" style="stop-color:#541E9A"/>
		</linearGradient>
		<path class="st42" d="M409.4,412.6l-52-30c-3.2-1.8-2.8-5.1,0.9-7.2l50.2-29c3.7-2.1,9.3-2.4,12.5-0.5l52,30
			c3.2,1.8,2.8,5.1-0.9,7.2l-50.2,29C418.2,414.2,412.6,414.4,409.4,412.6z"/>
		<path class="st16" d="M414.4,387.4l-7.2-4.2c-0.4-0.3-0.4-0.7,0.1-1l7-4c0.5-0.3,1.3-0.3,1.7-0.1l7.2,4.2c0.4,0.3,0.4,0.7-0.1,1
			l-7,4C415.6,387.7,414.8,387.7,414.4,387.4z"/>
		<path class="st18" d="M357.4,382.6l0.1,0.1c0.2-0.2,0.5-0.4,0.7-0.5l50.2-29c3.7-2.1,9.3-2.4,12.5-0.5l51.9,30
			c2.9-2.1,3.1-5,0.1-6.7l-52-30c-3.2-1.8-8.8-1.6-12.5,0.5l-50.2,29C354.6,377.5,354.2,380.7,357.4,382.6z"/>
	</g>
</g>
<g>
	<g>
		<path class="st43" d="M529.3,164.6l-96.8-55.9c-1.9-1.1-3.6-1.1-5-0.4c0,0,0-0.1,0-0.1l-9.4,5.4c0,0,4.2,1.5,6.6,2.4v70.5
			c0,5.7,3.5,12.4,7.8,14.9l92.5,53.4v8.3l9.5-5.5l-0.1,0c1.6-1,2.6-3.1,2.6-6.2v-71.9C537.1,173.7,533.6,167.1,529.3,164.6z"/>
		<path class="st44" d="M519.7,262.8L423,207c-4.3-2.5-7.8-9.1-7.8-14.9v-71.9c0-5.7,3.5-8.4,7.8-5.9l96.8,55.9
			c4.3,2.5,7.8,9.1,7.8,14.9v71.9C527.5,262.7,524,265.3,519.7,262.8z"/>
	</g>
	<g>
		<path class="st6" d="M455.5,182.2c0,4.2-2.9,5.8-6.5,3.8s-6.5-7.1-6.5-11.3c0-4.2,2.9-5.8,6.5-3.8S455.5,178,455.5,182.2z"/>
		<path class="st6" d="M475.3,193.6c0,4.2-2.9,5.8-6.5,3.8c-3.6-2.1-6.5-7.1-6.5-11.3c0-4.2,2.9-5.8,6.5-3.8
			C472.4,184.4,475.3,189.4,475.3,193.6z"/>
		<path class="st6" d="M495.1,205c0,4.2-2.9,5.8-6.5,3.8s-6.5-7.1-6.5-11.3s2.9-5.8,6.5-3.8C492.1,195.8,495.1,200.8,495.1,205z"/>
	</g>
</g>
<g>
	<g>
		<path class="st45" d="M474.2,74.1l-96.8-55.9c-1.9-1.1-3.6-1.1-5-0.4l0-0.1l-9.4,5.4c0,0,4.2,1.5,6.6,2.4v70.5
			c0,5.7,3.5,12.4,7.8,14.9l92.5,53.4v8.3l9.5-5.5l0,0c1.6-1,2.6-3.1,2.6-6.2V89C482,83.3,478.5,76.6,474.2,74.1z"/>
		<path class="st16" d="M464.7,172.4l-96.8-55.9c-4.3-2.5-7.8-9.1-7.8-14.9V29.7c0-5.7,3.5-8.4,7.8-5.9l96.8,55.9
			c4.3,2.5,7.8,9.1,7.8,14.9v71.9C472.4,172.2,469,174.8,464.7,172.4z"/>
	</g>
	<g>
		<path class="st6" d="M400.4,91.7c0,4.2-2.9,5.9-6.5,3.8c-3.6-2.1-6.5-7.1-6.5-11.3c0-4.2,2.9-5.8,6.5-3.8
			C397.5,82.5,400.4,87.5,400.4,91.7z"/>
		<path class="st6" d="M420.2,103.1c0,4.2-2.9,5.9-6.5,3.8c-3.6-2.1-6.5-7.1-6.5-11.3c0-4.2,2.9-5.8,6.5-3.8
			C417.3,93.9,420.2,99,420.2,103.1z"/>
		<path class="st6" d="M440,114.5c0,4.2-2.9,5.8-6.5,3.8c-3.6-2.1-6.5-7.1-6.5-11.3c0-4.2,2.9-5.9,6.5-3.8
			C437.1,105.3,440,110.4,440,114.5z"/>
	</g>
</g>
</svg>
