<?xml version="1.0" encoding="utf-8"?>
<!-- Generator: Adobe Illustrator 24.0.2, SVG Export Plug-In . SVG Version: 6.00 Build 0)  -->
<svg version="1.1" id="Ñëîé_1" xmlns="http://www.w3.org/2000/svg" xmlns:xlink="http://www.w3.org/1999/xlink" x="0px" y="0px"
	 viewBox="0 0 495.7 413.8" style="enable-background:new 0 0 495.7 413.8;" xml:space="preserve">
<style type="text/css">
	.st0{fill:#EBF2F1;}
	.st1{fill:#C19259;}
	.st2{fill:#33312F;}
	.st3{fill:#232221;}
	.st4{fill:#F4BD98;}
	.st5{fill:#EFEFEF;}
	.st6{fill:url(#SVGID_1_);}
	.st7{fill:#194CA5;}
	.st8{opacity:0.3;fill:#194CA5;enable-background:new    ;}
	.st9{fill:#EFB289;}
	.st10{fill:#F3BC97;}
	.st11{fill:#352920;}
	.st12{enable-background:new    ;}
	.st13{fill:url(#SVGID_2_);}
	.st14{fill:#F0ECE6;}
	.st15{opacity:0.7;fill:#727272;enable-background:new    ;}
	.st16{fill:#2B2928;}
	.st17{fill:#9BBCBA;}
	.st18{fill:#933131;}
	.st19{fill:#235FB7;}
	.st20{fill:#755843;}
	.st21{opacity:0.3;fill:#593E2C;enable-background:new    ;}
	.st22{fill:#62811D;}
	.st23{fill:url(#SVGID_3_);}
	.st24{fill:url(#SVGID_4_);}
	.st25{fill:#719020;}
	.st26{fill:url(#SVGID_5_);}
	.st27{fill:url(#SVGID_6_);}
	.st28{fill:url(#SVGID_7_);}
	.st29{fill:url(#SVGID_8_);}
	.st30{fill:url(#SVGID_9_);}
	.st31{fill:url(#SVGID_10_);}
	.st32{fill:url(#SVGID_11_);}
	.st33{fill:url(#SVGID_12_);}
	.st34{fill:url(#SVGID_13_);}
	.st35{fill:url(#SVGID_14_);}
	.st36{fill:url(#SVGID_15_);}
	.st37{fill:url(#SVGID_16_);}
	.st38{fill:url(#SVGID_17_);}
	.st39{fill:#363333;}
	.st40{fill:#423E3E;}
	.st41{fill:#C5C0B6;}
	.st42{fill:#D8D3CC;}
	.st43{fill:#385F82;}
	.st44{fill:#302A26;}
	.st45{fill:#D39629;}
	.st46{fill:#1F231E;}
	.st47{fill:#96FFFA;}
	.st48{fill:url(#SVGID_18_);}
	.st49{fill:#5793CE;}
	.st50{fill:#173D7A;}
	.st51{fill:#D4ECFF;}
	.st52{fill:#FFFFFF;}
	.st53{fill:#E9F6FF;}
	.st54{fill:#AEDEED;}
	.st55{opacity:0.4;fill:#FFFFFF;}
	.st56{fill:#B2D3EA;}
	.st57{fill:#396CAA;}
	.st58{fill:#FF2C9C;}
	.st59{fill:#FFC2B0;}
	.st60{fill:#EA9C92;}
	.st61{fill:#D3008D;}
</style>
<g>
	<g>
		<g>
			<g>
				<g>
					<path class="st0" d="M453.1,278c-1.5,0-2.9-0.3-4.1-1.1c-3-1.7-4.6-5.3-4.6-10c0-9.7,6.8-21.6,15.3-26.5
						c4.2-2.4,8.1-2.8,11.1-1.1s4.6,5.3,4.6,10c0,9.7-6.8,21.6-15.3,26.5C457.7,277.2,455.3,278,453.1,278z M460,240.8
						c-8.3,4.8-15.1,16.5-15,26c0,4.5,1.5,7.9,4.3,9.5s6.5,1.2,10.5-1.1c8.3-4.8,15.1-16.5,15-26c0-4.6-1.6-7.9-4.3-9.5
						C467.8,238.1,464,238.5,460,240.8L460,240.8z"/>
				</g>
			</g>
		</g>
		<path class="st0" d="M460,261.5c1.5-0.9,2.8-0.2,2.8,1.6c0,1.8-1.2,3.9-2.8,4.8c-1.5,0.9-2.8,0.2-2.8-1.6
			C457.3,264.5,458.5,262.4,460,261.5z M454.6,264.2l1.3,0.7c0.3-2.6,2.1-5.5,4.2-6.8c2.2-1.3,4-0.4,4.3,1.8l1.2-2.1
			c-0.8-2.2-3-2.9-5.5-1.4C457.5,257.8,455.3,261,454.6,264.2z M452.2,262.8l1.1,0.7c1.1-3.6,3.7-7.2,6.7-8.9c3-1.7,5.5-1.1,6.7,1.1
			l1.1-2c-1.5-2.4-4.5-2.9-7.8-0.9C456.6,254.8,453.7,258.7,452.2,262.8z M450,261.6l1.1,0.6c1.8-4.6,5.1-8.9,8.9-11.1
			c3.8-2.2,7.1-1.7,9,0.7l1.1-1.9c-2.1-2.6-5.8-3-10.1-0.6C455.8,251.8,452.1,256.5,450,261.6z"/>
		<ellipse class="st0" cx="427.3" cy="306" rx="2" ry="1.1"/>
	</g>
	<g>
		<path class="st0" d="M460,306.3h-32.7c-0.2,0-0.3-0.1-0.3-0.3c0-0.2,0.1-0.3,0.3-0.3h32.4v-30.2c0-0.2,0.1-0.3,0.3-0.3
			c0.2,0,0.3,0.1,0.3,0.3V306C460.3,306.2,460.2,306.3,460,306.3z"/>
	</g>
</g>
<g id="Cylinder_face_22_">
	<path class="st0" d="M275.3,251.5c-41.2,0-82.5-9.1-113.9-27.2c-30.6-17.6-47.4-41.2-47.4-66.2s16.8-48.5,47.4-66.2
		c62.8-36.3,165-36.3,227.8,0c30.6,17.6,47.4,41.2,47.4,66.2s-16.8,48.5-47.4,66.2C357.8,242.5,316.6,251.5,275.3,251.5z
		 M275.3,66.2c-41,0-82,9-113.1,27c-30.1,17.4-46.6,40.4-46.6,64.9s16.6,47.5,46.6,64.9c62.4,36,163.9,36,226.3,0
		c30.1-17.4,46.6-40.4,46.6-64.9s-16.6-47.5-46.6-64.9C357.3,75.2,316.3,66.2,275.3,66.2z"/>
</g>
<g>
	<path class="st0" d="M334.6,220c-0.1,0-0.2,0-0.3-0.1l-29.9-17.2c-0.3-0.2-0.4-0.5-0.2-0.8c0.2-0.3,0.5-0.4,0.8-0.2l29.9,17.2
		c0.3,0.2,0.4,0.5,0.2,0.8C335,219.9,334.8,220,334.6,220z"/>
</g>
<path class="st0" d="M332,220.5c2.9,1.7,8-0.4,5.2-2.1C334.3,216.7,329.2,218.8,332,220.5z"/>
<g>
	<path class="st0" d="M65.7,306.1c-0.1,0-0.1,0-0.2-0.1L41,288.2c-0.1-0.1-0.2-0.2-0.2-0.4c0-0.2,0.1-0.3,0.2-0.4l49.5-35.9
		l-25-18.3c-0.1-0.1-0.2-0.2-0.2-0.4s0.1-0.3,0.2-0.4l59.3-43c0.2-0.1,0.4-0.1,0.5,0.2c0.1,0.2,0,0.5-0.1,0.7l-58.7,42.6l25,18.3
		c0.1,0.1,0.2,0.2,0.2,0.4s-0.1,0.3-0.2,0.4L42,287.8l23.9,17.3c0.2,0.1,0.2,0.4,0.1,0.7C66,306,65.9,306.1,65.7,306.1z"/>
</g>
<path class="st0" d="M61.8,306.5c4.8,2.7,13.2-0.7,8.5-3.4C65.6,300.4,57.1,303.9,61.8,306.5z"/>
<g>
	<path class="st0" d="M153.9,96.6C153.9,96.6,153.8,96.6,153.9,96.6l-11.4-5.2c-0.1,0-0.1-0.1-0.1-0.2c0.1-0.1,0.2-0.1,0.2-0.1
		l11.3,5.1c0.1,0,0.1,0.1,0.1,0.2C154,96.6,153.9,96.6,153.9,96.6z"/>
</g>
<g>
	<path class="st0" d="M100.5,116.3c-0.1,0-0.3-0.1-0.3-0.2c-0.1-0.2,0-0.4,0.1-0.5l42.2-24.4c0.2-0.1,0.4,0,0.5,0.1
		c0.1,0.2,0,0.4-0.1,0.5l-42.2,24.4C100.6,116.3,100.5,116.3,100.5,116.3z"/>
</g>
<path class="st0" d="M95.6,117.7c4.8,2.7,13.2-0.7,8.5-3.4C99.3,111.5,90.9,115,95.6,117.7z"/>
<g id="_x31_5">
	<g>
		<path class="st1" d="M383.9,370.3c-0.1,0.8-0.3,2.4,0,3.2c1.8,5,5.6,11.2,9.1,12.2c3.1,0.9,6.3,0.3,7.2-1.4
			c0.3-0.5,0.2-1.5,0.1-2.5c-0.5-3.8-3.6-3.1-5.7-5.7c-1.7-2.1-4.4-3.4-6.5-5C387.2,370.4,384,370.1,383.9,370.3z"/>
		<path class="st2" d="M395,368.1c0.1-4.6,0.3-12,0.5-13.1c-4,2.3-8.3,2.1-11.7-0.7c0.2,1.3,0.8,10.3,0.1,14.4
			c-0.3,1.8-0.2,3.7,0.9,5.2c3.9,6.5,6.5,12.5,13.8,10.3c4.5-1.4-0.4-8.3-2.7-12.3C395.3,370.8,395,369.4,395,368.1z"/>
		<path class="st2" d="M385.1,351.6c-0.9,0.5-0.9,0.7-1.2,1.3c-0.5,0.7-0.6,2.9,0.6,3.8c3.3,2.4,8.4,1.5,9.7,0.9
			c1.7-0.8,1.8-2.5,1.8-3.6c0-0.8-0.3-1.5-1-1.8C392.9,351,388.9,350.2,385.1,351.6z"/>
		<path class="st3" d="M385.1,351.6c-0.9,0.5-0.9,0.7-1.2,1.3c-0.4,0.6-0.6,2.2,0.1,3.3c0.2,3.2,0.4,9.3,0,12.6
			c-0.3,1.8-0.2,3.7,0.9,5.2c0.1,0.2,0.2,0.3,0.3,0.5c0.2-0.9,1.4-12.6,1.3-16.7c0.2,0.1,0.7,0.2,1,0.3c-0.5-0.6-0.2-1.9,0.6-2.4
			c1.3-0.7,2.5-1.4,3.8-2.2c0.8-0.6,1.6-1.1,2.5-1.5C392.2,350.8,388.6,350.3,385.1,351.6z"/>
	</g>
	<g>
		<path class="st1" d="M406.8,357.9c0,0,0,0.7-0.1,1c0,3.5,1.4,3.2,6,5.7c2.4,1.3,5.5,4.7,11,4.2c2.2-0.2,3.9-1.3,3.9-3.8
			c0.1-4.2-5.4-2.6-9.5-4.3C408.5,356.7,407.1,355.3,406.8,357.9z"/>
		<g>
			<path class="st2" d="M408.4,360.7c-2.1-1.7-1.5-3.4-1.7-6.1c-0.8-11.4-0.8-12.5-1.2-13.9c3.9,2.4,7.8,2.5,11.3-0.1
				c0,0,0,10.7,0.4,13.3c0.2,0.9,0.7,1.6,1.4,2.1c2.6,1.6,8.5,5.1,9.1,8.7c0.1,0.8-0.5,1.8-1.3,2.2c-6.1,2.8-12.8-3.9-15.4-4.9
				C410.1,361.5,409.1,361.3,408.4,360.7z"/>
			<path class="st2" d="M415.1,337c-2.2-0.6-6.6-0.7-9,1c-0.4,0.5-0.8,0.8-1.1,1.4c-0.4,0.7-0.3,3,1,3.7c3.6,2,8.8,0.8,10,0
				c1.2-0.9,1.3-2.8,1.2-3.9C417.1,338.3,416.6,337.3,415.1,337z"/>
		</g>
		<path class="st3" d="M408.2,350.3c0-2.4-0.2-6.6-0.2-6.6c0.3,0.1,1,0.2,1.4,0.2c-0.3-0.2-0.4-0.8-0.4-1.3c0.2-3,4.1-4.6,6.9-5.4
			c-0.2-0.1-0.5-0.3-0.9-0.3c-2.2-0.6-6.6-0.7-9,1c-0.4,0.5-0.8,0.8-1.1,1.4c-0.4,0.7-0.3,2.8,0.9,3.6c0.2,1.7,0.3,4.8,0.8,11.7
			c0.2,2.7-0.5,4.5,1.7,6.1C408.4,360.7,408.2,354,408.2,350.3z"/>
	</g>
	<g>
		<path class="st4" d="M427.5,299c1.2-0.3,2.4-0.6,3.6-0.9c1-0.2,2.4-0.2,2.8-1.1c-0.8-0.8-1.4-1.3-2.3-2.2
			c-1.6-1.7-11.3-18-11.3-18s-2.9-28.4-9.4-29c-2.6-0.2-6.3,2.1-5.2,6.9c0.8,3.9,5.6,23.5,7.5,27c0.3,0.5,14.1,16.6,14.1,16.6
			C427.4,298.6,427.4,298.8,427.5,299z"/>
		<path class="st5" d="M421.4,270.4c-2.1-9.5-5.8-20.1-8-21.8c-2.6-2-6.9-2.4-8.1,5.3c-0.8,4.9,0.6,10.6,2.2,19.7
			C408.4,277.2,422.3,274.8,421.4,270.4z"/>
	</g>
	<g>
		
			<radialGradient id="SVGID_1_" cx="402.6679" cy="634.6349" r="12.3752" gradientTransform="matrix(1 0 0 1 0 -376)" gradientUnits="userSpaceOnUse">
			<stop  offset="0" style="stop-color:#E3E3E3"/>
			<stop  offset="0.3513" style="stop-color:#E9E9E9"/>
			<stop  offset="1" style="stop-color:#EFEFEF"/>
		</radialGradient>
		<path class="st6" d="M387.6,292.7c0.1,2.4,0.2,5.5,0.2,5.5c8.1,1.4,24.9-1.6,27.2-11.5c0.1-3.5,0.6-38-5-39.2
			c-2.3-0.5-22.5,6.8-24.4,12C382.1,269.2,387,279.2,387.6,292.7z"/>
		<path class="st7" d="M417.4,324.4c0.2-5.3,0.1-10.6-0.3-15.8c-0.7-9.3-1.4-17.8-1.5-24c-0.2-8.6-0.6-14.3-1-18.1
			c-0.9-10.1-3.7-16.9-7-18.5c-1.1,0-1.7,0.5-1.9,1.3c3.2,1.6,5.7,8.7,6.5,16.9c-3.4,2.6-7.7,4.6-13.1,5.6
			c-1.3-5.8-4.5-15.8-9.9-15.9c-0.8,0-2.3,1.2-2.4,1.9c0.6-0.5,5.7,0,8.3,9.9c0.7,2.5,1.4,5.4,1.8,8c0.9,7-2.4,6.5-4.8,5.7l-4.7,0.5
			c0,0,0.9,3.7,0.8,9.9c0,3.5-1.4,12.3-1.7,20.4c-0.4,13.3-1.2,26.4-1.4,30.5l-0.5,11c0.8,3.5,10.6,3.3,11.1,0
			c0.2-1.1,7.2-33.7,7.2-33.7s2.6,17.1,2.9,19.7c0.3,2.9,10.3,2.9,11-0.2C416.7,338.7,417.1,331.8,417.4,324.4z"/>
		<path class="st8" d="M405.2,312.6c1.6-1,2.8-2.1,3-3.2c-1,1.4-3.7,2.8-5.8,2.8l0.3,7.9c0.7,4.3,2.7,17.6,2.9,19.7
			c0.1,0.6,0.6,1.1,1.4,1.5C406.2,329.3,405.4,314.8,405.2,312.6z"/>
		<g>
			<path class="st9" d="M394.6,244.5c0.6-0.9,2.2-0.6,3.2-0.6c1.6,0,3.2,0,4.7,0c0.4,0,2.3,0,2.5,0.5c0.2,1,1.5,3.1,1.6,4.1
				c0.5,2.5,1.4,4.8,0.3,6.4c-0.1,0.1-1.1-0.2-1.1-0.2v6.2l-2.3-4.9c-2.5,1.4-7,1.3-8.7-2.2c0.3-3.7-0.6-7.4-0.4-8.8
				C394.5,244.8,394.5,244.7,394.6,244.5z"/>
		</g>
	</g>
	<g>
		<path class="st5" d="M407,250.1c0,0,0.3,2,0.3,2.3c0,0.5-0.2,1.6-1.4,2.4c1.2,1.1,2.2,2.1,3.5,3.5c0.1-0.4-0.4-3.8-1.1-5.7
			C407.9,251.4,407,250.1,407,250.1z"/>
		<path class="st5" d="M403.5,256l-1.5,5.4c-8.6-1.1-9-5.9-9.5-7.5c0.2-1.6,1.7-3.9,2.3-4c0,0,0.1,0.6,0.1,1.7
			c0.5,1.9,2.9,3.1,4.3,3.6C400.5,255.7,401.9,256,403.5,256z"/>
	</g>
	<g>
		<g>
			<path class="st10" d="M408.2,248.8c-0.4,1.6-0.8,3.8-2.3,4.1c-2.9,0.6-9.1-1.1-9.9-3.2c-1.3-3.6-2.9-7.9-1.2-12.5
				c0.6-1.8-2.4-5.6-0.8-6.9c1.2-1,7.2,1.1,8.5,0.6c3.8-1.7,7.4-1.8,7.6,2.2C410.1,234.9,408.7,246.5,408.2,248.8z"/>
			<path class="st11" d="M409,227.7c-1.8-2.4-4.7-4-7.7-4.1c-5-0.3-9.4,2.5-9.7,6c0,0-5.8,2.9,0.4,14.9c0.9,1.8,2.2,3.9,3.7,4.1
				c0,0-0.3-1.6-0.7-3c-0.4-1.6-1.2-3.7-0.1-4.7c0.4-0.4,1.1-0.3,1.6-0.1c1.2,0.5,0.5,2.7,2,2.7c1.1,0,0.2-3.6,0.1-5.5
				c0.9,0.7,8.8-7.5,11.6-3.9C410.9,232.2,410.6,229.9,409,227.7z"/>
		</g>
	</g>
	<g>
		<path class="st4" d="M434.2,297.4c-0.7-1-2.9-3.2-3.5-3.8c-1.5-1.4-5.6,2.3-4.8,3c0,0,3.6,6.3,4.3,7.1c0.4,0.4,1.5,1.3,3.5,1.2
			c0.4,0,2.5-0.7,2.7-1.2C437.3,302,435.7,299.5,434.2,297.4z"/>
	</g>
	<g>
		<g>
			<g class="st12">
				
					<linearGradient id="SVGID_2_" gradientUnits="userSpaceOnUse" x1="422.7813" y1="684.4755" x2="427.1829" y2="684.4755" gradientTransform="matrix(1 0 0 1 0 -376)">
					<stop  offset="0" style="stop-color:#C5C0B6"/>
					<stop  offset="0.559" style="stop-color:#D3CEC6"/>
					<stop  offset="1" style="stop-color:#D8D3CC"/>
				</linearGradient>
				<path class="st13" d="M439.7,302.7c0,0.7-0.6,1.7-1.6,2.6c-0.1,0.1-0.3,0.2-0.4,0.4c-0.3,0.2-0.6,0.5-0.9,0.7
					c-0.8,0.6-1.7,1.2-2.6,1.7c-4,2.3-9.1,4-11.4,2.7l-14.3-8.3v3.2l14.3,8.3c2.2,1.3,7.3-0.4,11.4-2.7c3.1-1.8,5.5-3.9,5.5-5.4
					V302.7z"/>
				<path class="st14" d="M434.3,308.1c-4,2.3-9.1,4-11.4,2.7l-14.3-8.3l16.1-9.3l14.3,8.3C441.2,302.8,438.3,305.8,434.3,308.1z"/>
			</g>
		</g>
		<g>
			<g>
				<path class="st15" d="M435.3,303.6c-1,0.6-2.7,0.6-3.7,0s-1-1.6,0-2.2s2.7-0.6,3.7,0S436.3,303,435.3,303.6z"/>
				<g>
					<path class="st2" d="M435.6,302.1c-0.1-0.2-0.3-0.3-0.3-0.4c-0.2-0.1-0.3-0.2-0.5-0.3c-0.3-0.1-0.4-0.2-0.8-0.2
						c-0.2,0-0.8-0.1-1.4,0.1c-0.3,0.1-0.7,0.2-1,0.6c-0.2,0.2-0.3,0.4-0.3,0.7c0,0.3,0.2,0.7,0.6,0.9c0.9,0.5,2.3,0.5,3.2,0
						c0.4-0.3,0.7-0.6,0.7-0.9C435.7,302.4,435.7,302.3,435.6,302.1z"/>
					<g class="st12">
						<g>
							<path class="st16" d="M434.5,302.9c0.6-0.3,0.6-0.9,0-1.2c-0.6-0.3-1.6-0.3-2.2,0s-0.6,0.9,0,1.2
								C433,303.2,433.9,303.2,434.5,302.9z"/>
						</g>
						<path class="st16" d="M435.7,302.6c0,0.1,0,0.1,0,0.1c0,0.1,0,0.2-0.1,0.2c-0.2,0.3-0.2,0.3-0.2,0.3c-0.2,0.2-0.3,0.2-0.4,0.3
							c-0.4,0.2-0.8,0.3-1.2,0.4c-0.1,0-0.2,0-0.3,0c-0.2,0-0.2,0-0.3,0c-0.3,0-0.4,0-0.5-0.1c-0.2-0.1-0.3-0.1-0.3-0.1
							c-0.1,0-0.2-0.1-0.3-0.1c-0.1-0.1-0.3-0.2-0.4-0.2c-0.1-0.1-0.2-0.2-0.3-0.4c-0.1-0.1-0.1-0.2-0.1-0.3c0-0.1,0-0.1,0-0.1
							c0,0.3,0.2,0.6,0.6,0.8c0.9,0.5,2.3,0.5,3.2,0C435.5,303.2,435.7,302.8,435.7,302.6L435.7,302.6z"/>
					</g>
				</g>
			</g>
			<path class="st2" d="M433,304.9c-0.1,0.1-0.3,0.1-0.4,0s-0.1-0.2,0-0.3c0.1-0.1,0.3-0.1,0.4,0C433.2,304.8,433.2,304.9,433,304.9
				z M437.7,302c-0.1-0.1-0.3-0.1-0.4,0s-0.1,0.2,0,0.3s0.3,0.1,0.4,0C437.8,302.2,437.8,302.1,437.7,302z M429.4,302.6
				c-0.1-0.1-0.3-0.1-0.4,0s-0.1,0.2,0,0.3c0.1,0.1,0.3,0.1,0.4,0C429.5,302.7,429.5,302.6,429.4,302.6z M434,299.9
				c-0.1-0.1-0.3-0.1-0.4,0s-0.1,0.2,0,0.3c0.1,0.1,0.3,0.1,0.4,0C434.1,300.1,434.1,300,434,299.9z"/>
		</g>
		<g>
			<g>
				<path class="st15" d="M426.8,308.4c-1,0.6-2.7,0.6-3.7,0s-1-1.6,0-2.2s2.7-0.6,3.7,0C427.9,306.9,427.8,307.8,426.8,308.4z"/>
				<g>
					<path class="st2" d="M427.1,306.9c-0.1-0.2-0.3-0.3-0.3-0.4c-0.2-0.1-0.3-0.2-0.5-0.3c-0.3-0.1-0.4-0.2-0.8-0.2
						c-0.2,0-0.8-0.1-1.4,0.1c-0.3,0.1-0.7,0.2-1,0.6c-0.2,0.2-0.3,0.4-0.3,0.7c0,0.3,0.2,0.7,0.6,0.9c0.9,0.5,2.3,0.5,3.2,0
						c0.4-0.3,0.7-0.6,0.7-0.9C427.2,307.3,427.2,307.1,427.1,306.9z"/>
					<g class="st12">
						<g>
							<path class="st16" d="M426.1,307.8c0.6-0.3,0.6-0.9,0-1.2c-0.6-0.3-1.6-0.3-2.2,0s-0.6,0.9,0,1.2S425.5,308.1,426.1,307.8z"
								/>
						</g>
						<path class="st16" d="M427.2,307.4c0,0.1,0,0.1,0,0.1c0,0.1,0,0.2-0.1,0.2c-0.2,0.3-0.2,0.3-0.2,0.3c-0.2,0.2-0.3,0.2-0.4,0.3
							c-0.4,0.2-0.8,0.3-1.2,0.4c-0.1,0-0.2,0-0.3,0c-0.2,0-0.2,0-0.3,0c-0.3,0-0.4,0-0.5-0.1c-0.2-0.1-0.3-0.1-0.3-0.1
							c-0.1,0-0.2-0.1-0.3-0.1c-0.1-0.1-0.3-0.2-0.4-0.2c-0.1-0.1-0.2-0.2-0.3-0.4c-0.1-0.1-0.1-0.2-0.1-0.3c0-0.1,0-0.1,0-0.1
							c0,0.3,0.2,0.6,0.6,0.8c0.9,0.5,2.3,0.5,3.2,0C427,308,427.2,307.7,427.2,307.4L427.2,307.4z"/>
					</g>
				</g>
			</g>
			<path class="st2" d="M424.6,309.8c-0.1,0.1-0.3,0.1-0.4,0s-0.1-0.2,0-0.3s0.3-0.1,0.4,0S424.7,309.7,424.6,309.8z M429.2,306.9
				c-0.1-0.1-0.3-0.1-0.4,0s-0.1,0.2,0,0.3c0.1,0.1,0.3,0.1,0.4,0C429.3,307.1,429.4,307,429.2,306.9z M421,307.4
				c-0.1-0.1-0.3-0.1-0.4,0s-0.1,0.2,0,0.3c0.1,0.1,0.3,0.1,0.4,0C421,307.6,421.1,307.5,421,307.4z M425.6,304.8
				c-0.1-0.1-0.3-0.1-0.4,0s-0.1,0.2,0,0.3s0.3,0.1,0.4,0C425.7,305,425.7,304.8,425.6,304.8z"/>
		</g>
		<polygon class="st2" points="425,294.4 410.5,302.7 417.9,307 432.3,298.6 		"/>
		<polygon class="st17" points="415.2,301.3 422.7,297 427.7,299.8 420.2,304.2 		"/>
		<g>
			<path class="st18" d="M429.5,298.2c0.3,0.2,0.3,0.5,0,0.6c-0.3,0.2-0.8,0.2-1.1,0c-0.3-0.2-0.3-0.5,0-0.6
				C428.7,298,429.2,298,429.5,298.2z"/>
			<path class="st18" d="M427.6,297.1c0.3,0.2,0.3,0.5,0,0.6c-0.3,0.2-0.8,0.2-1.1,0c-0.3-0.2-0.3-0.5,0-0.6
				C426.8,296.9,427.3,296.9,427.6,297.1z"/>
			<ellipse class="st18" cx="425.1" cy="296.3" rx="0.8" ry="0.5"/>
		</g>
		<g>
			<ellipse class="st18" cx="417.9" cy="304.9" rx="0.8" ry="0.5"/>
			<path class="st18" d="M416.5,303.5c0.3,0.2,0.3,0.5,0,0.6c-0.3,0.2-0.8,0.2-1.1,0c-0.3-0.2-0.3-0.5,0-0.6
				C415.7,303.3,416.1,303.3,416.5,303.5z"/>
			<path class="st18" d="M414.5,302.4c0.3,0.2,0.3,0.5,0,0.6c-0.3,0.2-0.8,0.2-1.1,0c-0.3-0.2-0.3-0.5,0-0.6
				C413.7,302.2,414.2,302.2,414.5,302.4z"/>
		</g>
	</g>
	<g>
		<path class="st4" d="M410.2,310.1c2.1,1,6.1,0.9,7.1,0.7c-1-0.7-2.2-1.4-3.2-2.1c-1.2-1-2.4-2.3-2.6-3.8c0-0.2,0-0.4,0.1-0.5
			c0.2-0.3,0.5-0.3,0.8-0.3c0.4,0,0.8-0.1,1.1-0.3c0.3-0.1,0.6-0.2,0.8-0.5c0.2-0.2,0.3-0.6,0.2-0.9c-0.2-0.4-0.7-0.6-1.2-0.6
			c-1.1-0.1-2.1,0-3.2,0.3c-0.7,0.2-1.5,0.9-2.2,0.4c-1-0.6-1.9-1.5-2.9-2.2c-1.6-1.2-3.1-2.4-4.7-3.5c-2.1-1.6-4.2-3.2-6.3-4.8
			c0,0-0.8-25-4.1-30.6c-1.5-2.6-7.1-3.9-8,3.5c-1.5,12.8,2.5,27.3,4,30.1c1.5,2.8,18.4,12.1,18.4,12.1
			C407.5,308.8,409.8,309.9,410.2,310.1z"/>
		<path class="st5" d="M396.2,282.8c-0.4-10-2.3-20.9-5.7-23.8c-2.5-2.1-7.4-2.3-8.8,5.5c-0.9,4.9-1.1,11.3-0.5,19.9
			C381.9,288.3,396.5,286.8,396.2,282.8z"/>
	</g>
	<path class="st2" d="M446.6,316.8c0.1,0,0.2,0,0.2-0.1c0.1-0.1,0-0.3-0.1-0.3l-11.9-6.8c-0.1-0.1-0.3,0-0.3,0.1
		c-0.1,0.1,0,0.3,0.1,0.3L446.6,316.8C446.5,316.8,446.5,316.8,446.6,316.8z"/>
	<path class="st4" d="M430.4,296.5c0.4,0.4,1.6,2.5,1.6,2.5c0.3,0.7,0.4,2.7,0.8,3.2c0.6,0.7,1.2-0.1,1.2-0.8c0.1-0.8,0.1-2.6,0-3.3
		c-0.2-0.9-1.1-2.2-2.6-3.7C431.5,294.4,430.4,296.4,430.4,296.5z"/>
	<path class="st19" d="M412,269.7c-3.1,2.5-9.6,4.5-9.6,4.5l0.8,8.8c5.7,0.3,9.1-4.1,9.1-4.1L412,269.7z"/>
</g>
<g>
	<g>
		<g>
			<g>
				<g>
					<path class="st0" d="M154.5,204.9c-1.3,0-2.5-0.3-3.5-0.9c-2.5-1.5-3.9-4.5-3.9-8.6c0-8.3,5.8-18.5,13.1-22.7
						c3.6-2.1,6.9-2.4,9.5-0.9c2.5,1.5,3.9,4.5,3.9,8.6c0,8.3-5.8,18.5-13.1,22.7C158.4,204.3,156.4,204.9,154.5,204.9z
						 M160.4,173.2c-7.1,4.1-12.9,14.1-12.8,22.2c0,3.9,1.3,6.8,3.7,8.1c2.4,1.4,5.6,1,9-0.9c7.1-4.1,12.9-14.1,12.8-22.2
						c0-3.9-1.3-6.8-3.7-8.1C167,170.9,163.8,171.2,160.4,173.2L160.4,173.2z"/>
				</g>
			</g>
		</g>
		<path class="st0" d="M160.4,190.8c1.3-0.8,2.4-0.1,2.4,1.4s-1.1,3.3-2.4,4.1c-1.3,0.8-2.4,0.2-2.4-1.3
			C158,193.4,159.1,191.6,160.4,190.8z M155.7,193.1l1.1,0.6c0.2-2.2,1.8-4.7,3.6-5.8c1.9-1.1,3.4-0.3,3.6,1.6l1.1-1.8
			c-0.7-1.9-2.5-2.5-4.7-1.2C158.2,187.7,156.4,190.5,155.7,193.1z M153.7,192l1,0.6c1-3.1,3.2-6.1,5.7-7.6s4.7-1,5.7,1l1-1.7
			c-1.3-2-3.8-2.4-6.7-0.8C157.5,185.1,155,188.5,153.7,192z M151.8,190.9l0.9,0.5c1.5-3.9,4.4-7.6,7.6-9.5c3.3-1.9,6.1-1.5,7.7,0.6
			l0.9-1.6c-1.8-2.2-5-2.6-8.6-0.5C156.8,182.6,153.6,186.6,151.8,190.9z"/>
		<path class="st0" d="M138.4,281c0,0.7-0.5,1.5-1.2,1.9s-1.2,0.2-1.2-0.5s0.5-1.5,1.2-1.9S138.4,280.3,138.4,281z"/>
	</g>
	<g>
		<path class="st0" d="M160.4,281.9h-23.2c-0.1,0-0.2-0.1-0.2-0.2s0.1-0.2,0.2-0.2h22.9v-78.6c0-0.1,0.1-0.2,0.2-0.2
			c0.1,0,0.2,0.1,0.2,0.2v78.8C160.7,281.8,160.5,281.9,160.4,281.9z"/>
	</g>
</g>
<g id="_x31_0_1_">
	<polygon class="st20" points="58.8,314.5 78.4,303.2 250.2,402.4 230.6,413.7 	"/>
	<path class="st21" d="M134.1,341.8c1.8,1.1,1.8,2.8,0,3.9s-4.8,1.1-6.7,0c-1.8-1.1-1.8-2.8,0-3.9
		C129.3,340.7,132.3,340.7,134.1,341.8z"/>
	<g>
		<path class="st21" d="M180,368.3c1.8,1.1,1.8,2.8,0,3.9s-4.8,1.1-6.7,0c-1.8-1.1-1.8-2.8,0-3.9C175.2,367.2,178.2,367.2,180,368.3
			z"/>
		<g>
			<path class="st22" d="M172.2,349.3c-1.2-0.9-4.4-3-8.2-1.9c7.5,0,11.9,6,10.2,22.4c0.8-1.1,1.9-9.5,1.9-11
				C176.2,354.9,175.7,352,172.2,349.3z"/>
			<g>
				
					<linearGradient id="SVGID_3_" gradientUnits="userSpaceOnUse" x1="137.3514" y1="697.8467" x2="143.327" y2="715.5602" gradientTransform="matrix(0.9993 -3.820000e-02 3.820000e-02 0.9993 0.8285 -365.1821)">
					<stop  offset="0" style="stop-color:#B3C94B"/>
					<stop  offset="0.4179" style="stop-color:#92AC34"/>
					<stop  offset="0.7688" style="stop-color:#7D9A26"/>
					<stop  offset="1" style="stop-color:#759421"/>
				</linearGradient>
				<path class="st23" d="M171,335.1c-1.5-2.6-3-3.9-5.4-9.2c-3.3,5.8-0.8,10.5,0.2,12c1.7,2.5,5.3,3.6,6.7,5.3
					C172.6,342.6,173.9,340.1,171,335.1z"/>
				
					<linearGradient id="SVGID_4_" gradientUnits="userSpaceOnUse" x1="138.7784" y1="701.8986" x2="147.2462" y2="720.5277" gradientTransform="matrix(0.9993 -3.820000e-02 3.820000e-02 0.9993 0.8285 -365.1821)">
					<stop  offset="0" style="stop-color:#B3C94B"/>
					<stop  offset="0.4179" style="stop-color:#92AC34"/>
					<stop  offset="0.7688" style="stop-color:#7D9A26"/>
					<stop  offset="1" style="stop-color:#759421"/>
				</linearGradient>
				<path class="st24" d="M173.1,341.8c-0.3-0.3-0.5-0.7-0.8-1.1c-1-1.2-2.6-2.8-3.9-4.6c-0.8-1.1-2.4-3.6-2.6-7.5
					c-0.5,4.7,1.7,7.9,6.1,12.9c0.5,0.6,0.9,1.1,1.1,1.4L173.1,341.8z"/>
			</g>
			<path class="st25" d="M174.1,347.1c-0.1,0.1-0.2,0.2-0.3,0.2c-0.7-0.1,0.7-4.9,0.9-5.6c1.9-4.7,8.1-6.9,8.2-13.3
				c0.5,7.1-5.9,8.7-7.3,14.3C174.8,346,175.6,346,174.1,347.1z"/>
			<g>
				<path class="st22" d="M194.8,353.3c0.1-1.6-0.5-6-3.6-7.8c-0.8-0.5-7.9-0.8-8.2-0.6c-0.6,0.5-2.1,1.2-1.8,1.8
					c0.3,0.6,0.9,1.2,1.3,1.7c0.4,0.5,0.8,1.1,1.3,1.6c0.4,0.3,1.2-1.4,1.7-1.3C186,348.9,190.4,347.7,194.8,353.3z"/>
				
					<linearGradient id="SVGID_5_" gradientUnits="userSpaceOnUse" x1="233.9318" y1="721.1337" x2="222.4783" y2="750.1119" gradientTransform="matrix(0.998 6.290000e-02 -6.290000e-02 0.998 1.7127 -395.2151)">
					<stop  offset="0" style="stop-color:#B3C94B"/>
					<stop  offset="0.4179" style="stop-color:#92AC34"/>
					<stop  offset="0.7688" style="stop-color:#7D9A26"/>
					<stop  offset="1" style="stop-color:#759421"/>
				</linearGradient>
				<path class="st26" d="M178.8,359.5c-0.3,0.4,0.1,0.4-0.6,0.2c-0.7-0.2-0.6-0.5-0.5-1.1c0.1-0.9,1.1-7.4,2.7-12
					c0.5-1.5,1.7-2.6,3.2-2.9c3-0.6,6.7,0.9,8.8,2.7C186.2,345.4,179.8,358,178.8,359.5z"/>
				
					<linearGradient id="SVGID_6_" gradientUnits="userSpaceOnUse" x1="182.9223" y1="726.0118" x2="178.1541" y2="738.727" gradientTransform="matrix(1 0 0 1 0 -376)">
					<stop  offset="0" style="stop-color:#B3C94B"/>
					<stop  offset="0.4179" style="stop-color:#92AC34"/>
					<stop  offset="0.7688" style="stop-color:#7D9A26"/>
					<stop  offset="1" style="stop-color:#759421"/>
				</linearGradient>
				<path class="st27" d="M178.3,364.1c-0.7,0.5-1.2-2.3-1.2-3c0-1.8,4.1-14.3,9.8-17.3c0,0,0.4,0,0.4,0.2
					C178.2,351.3,178.3,364.1,178.3,364.1z"/>
			</g>
			
				<linearGradient id="SVGID_7_" gradientUnits="userSpaceOnUse" x1="220.9907" y1="718.2449" x2="219.4888" y2="752.0364" gradientTransform="matrix(0.998 6.290000e-02 -6.290000e-02 0.998 1.7127 -395.2151)">
				<stop  offset="0" style="stop-color:#9EBD37"/>
				<stop  offset="0.1047" style="stop-color:#91B030"/>
				<stop  offset="0.3225" style="stop-color:#7D9C25"/>
				<stop  offset="0.4663" style="stop-color:#759421"/>
				<stop  offset="1" style="stop-color:#62811D"/>
			</linearGradient>
			<path class="st28" d="M172.3,343.1c-2.4-6.4-0.2-12.5,2.3-16.5c2.2-3.5,4.9-7.7,3.2-11.7c1.9,2.7,1.1,6.2-1.3,10.5
				c-2.5,4.5-4.9,10.3-3,15.6c4.4,12.2,4.2,13.6,5.6,28.6c0.1,2.6-5.2,2.5-5.1,0.1C174.5,366.8,176.2,353.6,172.3,343.1z"/>
		</g>
	</g>
	<g>
		<path class="st21" d="M83,312.3c1.8,1.1,1.8,2.8,0,3.9s-4.8,1.1-6.7,0c-1.8-1.1-1.8-2.8,0-3.9C78.1,311.2,81.1,311.2,83,312.3z"/>
		<g>
			<path class="st22" d="M75.1,293.3c-1.2-0.9-4.4-3-8.2-1.9c7.5,0,11.9,6,10.2,22.4c0.8-1.1,1.9-9.5,1.9-11
				C79.1,298.9,78.7,296,75.1,293.3z"/>
			<g>
				
					<linearGradient id="SVGID_8_" gradientUnits="userSpaceOnUse" x1="42.4717" y1="638.1859" x2="48.4474" y2="655.8994" gradientTransform="matrix(0.9993 -3.820000e-02 3.820000e-02 0.9993 0.8285 -365.1821)">
					<stop  offset="0" style="stop-color:#B3C94B"/>
					<stop  offset="0.4179" style="stop-color:#92AC34"/>
					<stop  offset="0.7688" style="stop-color:#7D9A26"/>
					<stop  offset="1" style="stop-color:#759421"/>
				</linearGradient>
				<path class="st29" d="M73.9,279.1c-1.5-2.6-3-3.9-5.4-9.2c-3.3,5.8-0.8,10.5,0.2,12c1.7,2.5,5.3,3.6,6.7,5.3
					C75.6,286.5,76.8,284.1,73.9,279.1z"/>
				
					<linearGradient id="SVGID_9_" gradientUnits="userSpaceOnUse" x1="43.9788" y1="642.2089" x2="52.4466" y2="660.8381" gradientTransform="matrix(0.9993 -3.820000e-02 3.820000e-02 0.9993 0.8285 -365.1821)">
					<stop  offset="0" style="stop-color:#B3C94B"/>
					<stop  offset="0.4179" style="stop-color:#92AC34"/>
					<stop  offset="0.7688" style="stop-color:#7D9A26"/>
					<stop  offset="1" style="stop-color:#759421"/>
				</linearGradient>
				<path class="st30" d="M76.1,285.8c-0.3-0.3-0.5-0.7-0.8-1.1c-1-1.2-2.6-2.8-3.9-4.6c-0.8-1.1-2.4-3.6-2.6-7.5
					c-0.5,4.7,1.7,7.9,6.1,12.9c0.5,0.6,0.9,1.1,1.1,1.4L76.1,285.8z"/>
			</g>
			<path class="st25" d="M77.1,291.1c-0.1,0.1-0.2,0.2-0.3,0.2c-0.7-0.1,0.7-4.9,0.9-5.6c1.9-4.7,8.1-6.9,8.2-13.3
				c0.5,7.1-5.9,8.7-7.3,14.3C77.8,290,78.6,289.9,77.1,291.1z"/>
			<g>
				<path class="st22" d="M97.8,297.3c0.1-1.6-0.5-6-3.6-7.8c-0.8-0.5-7.9-0.8-8.2-0.6c-0.6,0.5-2.1,1.2-1.8,1.8
					c0.3,0.6,0.9,1.2,1.3,1.7s0.8,1.1,1.3,1.6c0.4,0.3,1.2-1.4,1.7-1.3C89,292.9,93.3,291.7,97.8,297.3z"/>
				
					<linearGradient id="SVGID_10_" gradientUnits="userSpaceOnUse" x1="133.6015" y1="671.34" x2="122.1479" y2="700.3181" gradientTransform="matrix(0.998 6.290000e-02 -6.290000e-02 0.998 1.7127 -395.2151)">
					<stop  offset="0" style="stop-color:#B3C94B"/>
					<stop  offset="0.4179" style="stop-color:#92AC34"/>
					<stop  offset="0.7688" style="stop-color:#7D9A26"/>
					<stop  offset="1" style="stop-color:#759421"/>
				</linearGradient>
				<path class="st31" d="M81.8,303.5c-0.3,0.4,0.1,0.4-0.6,0.2c-0.7-0.2-0.6-0.5-0.5-1.1c0.1-0.9,1.1-7.4,2.7-12
					c0.5-1.5,1.7-2.6,3.2-2.9c3-0.6,6.7,0.9,8.8,2.7C89.2,289.4,82.8,302,81.8,303.5z"/>
				
					<linearGradient id="SVGID_11_" gradientUnits="userSpaceOnUse" x1="85.8046" y1="669.959" x2="81.0364" y2="682.6742" gradientTransform="matrix(1 0 0 1 0 -376)">
					<stop  offset="0" style="stop-color:#B3C94B"/>
					<stop  offset="0.4179" style="stop-color:#92AC34"/>
					<stop  offset="0.7688" style="stop-color:#7D9A26"/>
					<stop  offset="1" style="stop-color:#759421"/>
				</linearGradient>
				<path class="st32" d="M81.2,308c-0.7,0.5-1.2-2.3-1.2-3c0-1.8,4.1-14.3,9.8-17.3c0,0,0.4,0,0.4,0.2
					C81.2,295.3,81.2,308,81.2,308z"/>
			</g>
			
				<linearGradient id="SVGID_12_" gradientUnits="userSpaceOnUse" x1="120.5597" y1="668.4358" x2="119.0579" y2="702.2272" gradientTransform="matrix(0.998 6.290000e-02 -6.290000e-02 0.998 1.7127 -395.2151)">
				<stop  offset="0" style="stop-color:#9EBD37"/>
				<stop  offset="0.1047" style="stop-color:#91B030"/>
				<stop  offset="0.3225" style="stop-color:#7D9C25"/>
				<stop  offset="0.4663" style="stop-color:#759421"/>
				<stop  offset="1" style="stop-color:#62811D"/>
			</linearGradient>
			<path class="st33" d="M75.2,287.1c-2.4-6.4-0.2-12.5,2.3-16.5c2.2-3.5,4.9-7.7,3.2-11.7c1.9,2.7,1.1,6.2-1.3,10.5
				c-2.5,4.5-4.9,10.3-3,15.6c4.4,12.2,4.2,13.6,5.6,28.6c0.1,2.6-5.2,2.5-5.1,0.1C77.4,310.8,79.2,297.6,75.2,287.1z"/>
		</g>
	</g>
	<g>
		<path class="st21" d="M233.6,399.2c1.8,1.1,1.8,2.8,0,3.9s-4.8,1.1-6.7,0c-1.8-1.1-1.8-2.8,0-3.9
			C228.7,398.2,231.7,398.2,233.6,399.2z"/>
		<g>
			<path class="st22" d="M225.7,380.3c-1.2-0.9-4.4-3-8.2-1.9c7.5,0,11.9,6,10.2,22.4c0.8-1.1,1.9-9.5,1.9-11
				C229.7,385.9,229.3,382.9,225.7,380.3z"/>
			<g>
				
					<linearGradient id="SVGID_13_" gradientUnits="userSpaceOnUse" x1="189.7056" y1="730.8043" x2="195.6813" y2="748.5178" gradientTransform="matrix(0.9993 -3.820000e-02 3.820000e-02 0.9993 0.8285 -365.1821)">
					<stop  offset="0" style="stop-color:#B3C94B"/>
					<stop  offset="0.4179" style="stop-color:#92AC34"/>
					<stop  offset="0.7688" style="stop-color:#7D9A26"/>
					<stop  offset="1" style="stop-color:#759421"/>
				</linearGradient>
				<path class="st34" d="M224.6,366.1c-1.5-2.6-3-3.9-5.4-9.2c-3.3,5.8-0.8,10.5,0.2,12c1.7,2.5,5.3,3.6,6.7,5.3
					C226.2,373.5,227.5,371.1,224.6,366.1z"/>
				
					<linearGradient id="SVGID_14_" gradientUnits="userSpaceOnUse" x1="191.1659" y1="734.8413" x2="199.6337" y2="753.4705" gradientTransform="matrix(0.9993 -3.820000e-02 3.820000e-02 0.9993 0.8285 -365.1821)">
					<stop  offset="0" style="stop-color:#B3C94B"/>
					<stop  offset="0.4179" style="stop-color:#92AC34"/>
					<stop  offset="0.7688" style="stop-color:#7D9A26"/>
					<stop  offset="1" style="stop-color:#759421"/>
				</linearGradient>
				<path class="st35" d="M226.7,372.7c-0.3-0.3-0.5-0.7-0.8-1.1c-1-1.2-2.6-2.8-3.9-4.6c-0.8-1.1-2.4-3.6-2.6-7.5
					c-0.5,4.7,1.7,7.9,6.1,12.9c0.5,0.6,0.9,1.1,1.1,1.4L226.7,372.7z"/>
			</g>
			<path class="st25" d="M227.7,378c-0.1,0.1-0.2,0.2-0.3,0.2c-0.7-0.1,0.7-4.9,0.9-5.6c1.9-4.7,8.1-6.9,8.2-13.3
				c0.5,7.1-5.9,8.7-7.3,14.3C228.4,377,229.2,376.9,227.7,378z"/>
			<g>
				<path class="st22" d="M248.4,384.2c0.1-1.6-0.5-6-3.6-7.8c-0.8-0.5-7.9-0.8-8.2-0.6c-0.6,0.5-2.1,1.2-1.8,1.8
					c0.3,0.6,0.9,1.2,1.3,1.7c0.4,0.5,0.8,1.1,1.3,1.6c0.4,0.3,1.2-1.4,1.7-1.3C239.6,379.8,243.9,378.7,248.4,384.2z"/>
				
					<linearGradient id="SVGID_15_" gradientUnits="userSpaceOnUse" x1="289.3558" y1="748.6384" x2="277.9023" y2="777.6165" gradientTransform="matrix(0.998 6.290000e-02 -6.290000e-02 0.998 1.7127 -395.2151)">
					<stop  offset="0" style="stop-color:#B3C94B"/>
					<stop  offset="0.4179" style="stop-color:#92AC34"/>
					<stop  offset="0.7688" style="stop-color:#7D9A26"/>
					<stop  offset="1" style="stop-color:#759421"/>
				</linearGradient>
				<path class="st36" d="M232.4,390.4c-0.3,0.4,0.1,0.4-0.6,0.2c-0.7-0.2-0.6-0.5-0.5-1.1c0.1-0.9,1.1-7.4,2.7-12
					c0.5-1.5,1.7-2.6,3.2-2.9c3-0.6,6.7,0.9,8.8,2.7C239.8,376.4,233.4,389,232.4,390.4z"/>
				
					<linearGradient id="SVGID_16_" gradientUnits="userSpaceOnUse" x1="236.421" y1="756.9154" x2="231.6528" y2="769.6306" gradientTransform="matrix(1 0 0 1 0 -376)">
					<stop  offset="0" style="stop-color:#B3C94B"/>
					<stop  offset="0.4179" style="stop-color:#92AC34"/>
					<stop  offset="0.7688" style="stop-color:#7D9A26"/>
					<stop  offset="1" style="stop-color:#759421"/>
				</linearGradient>
				<path class="st37" d="M231.8,395c-0.7,0.5-1.2-2.3-1.2-3c0-1.8,4.1-14.3,9.8-17.3c0,0,0.4,0,0.4,0.2
					C231.8,382.3,231.8,395,231.8,395z"/>
			</g>
			
				<linearGradient id="SVGID_17_" gradientUnits="userSpaceOnUse" x1="276.3284" y1="745.7441" x2="274.8265" y2="779.5355" gradientTransform="matrix(0.998 6.290000e-02 -6.290000e-02 0.998 1.7127 -395.2151)">
				<stop  offset="0" style="stop-color:#9EBD37"/>
				<stop  offset="0.1047" style="stop-color:#91B030"/>
				<stop  offset="0.3225" style="stop-color:#7D9C25"/>
				<stop  offset="0.4663" style="stop-color:#759421"/>
				<stop  offset="1" style="stop-color:#62811D"/>
			</linearGradient>
			<path class="st38" d="M225.8,374c-2.4-6.4-0.2-12.5,2.3-16.5c2.2-3.5,4.9-7.7,3.2-11.7c1.9,2.7,1.1,6.2-1.3,10.5
				c-2.5,4.5-4.9,10.3-3,15.6c4.4,12.2,4.2,13.6,5.6,28.6c0.1,2.6-5.2,2.5-5.1,0.1C228,397.8,229.8,384.5,225.8,374z"/>
		</g>
	</g>
	<g>
		<g>
			<g id="Axonometric_Cylinder_138_">
				<path class="st39" d="M128.9,299.3v44.2c0,0.3,0.2,0.6,0.5,0.8c0.7,0.4,1.9,0.4,2.6,0c0.4-0.2,0.5-0.5,0.5-0.7v-44.2
					L128.9,299.3z"/>
				<ellipse id="Cylinder_face_36_" class="st40" cx="130.8" cy="299.3" rx="1.8" ry="1.1"/>
			</g>
		</g>
		<g id="Axonometric_Cube_153_">
			<polygon id="Cube_face_-_left_295_" class="st41" points="126.3,307.4 116.1,301.4 116.1,266 126.3,271.9 			"/>
			<polygon id="Cube_face_-_right_229_" class="st42" points="146,296 126.3,307.4 126.3,271.9 146,260.5 			"/>
			<polygon id="Cube_face_-_top_230_" class="st14" points="126.3,271.9 116.1,266 135.8,254.6 146,260.5 			"/>
		</g>
		<g>
			<g id="Axonometric_Cylinder_88_">
				<path class="st39" d="M128.9,221.9v41.3c0,0.3,0.2,0.6,0.5,0.8c0.7,0.4,1.9,0.4,2.6,0c0.4-0.2,0.5-0.5,0.5-0.7V222L128.9,221.9z
					"/>
				<ellipse id="Cylinder_face_21_" class="st40" cx="130.8" cy="221.9" rx="1.8" ry="1.1"/>
			</g>
		</g>
		<g>
			<g class="st12">
				<g>
					<polygon class="st14" points="106.6,230.6 138.3,212.1 157.7,232 126,250.5 					"/>
				</g>
				<g>
					<polygon class="st42" points="126,250.5 157.7,232 157.4,232.8 125.7,251.2 					"/>
				</g>
				<g>
					<polygon class="st41" points="106.6,230.6 126,250.5 125.7,251.2 106.3,231.3 					"/>
				</g>
			</g>
			<g>
				<g>
					<polygon class="st43" points="155.4,231.9 155.4,231.2 153,228.6 152,228.4 149.4,229.9 149.4,230.7 151.9,233.2 152.8,233.4 
											"/>
				</g>
				<g>
					<polygon class="st43" points="151.7,234.1 151.7,233.4 149.2,230.8 148.3,230.6 145.7,232.1 145.7,232.9 148.2,235.4 
						149.1,235.6 					"/>
				</g>
				<g>
					<polygon class="st43" points="147.9,236.3 148,235.5 145.5,233 144.5,232.8 142,234.3 141.9,235.1 144.4,237.6 145.4,237.8 
											"/>
				</g>
				<g>
					<polygon class="st43" points="144.2,238.5 144.2,237.7 141.7,235.2 140.8,235 138.2,236.5 138.2,237.2 140.7,239.8 141.6,240 
											"/>
				</g>
				<g>
					<polygon class="st43" points="140.5,240.7 140.5,239.9 138,237.4 137.1,237.2 134.5,238.7 134.5,239.4 137,242 137.9,242.2 
											"/>
				</g>
				<g>
					<polygon class="st43" points="136.7,242.9 136.7,242.1 134.3,239.6 133.3,239.4 130.7,240.9 130.7,241.6 133.2,244.2 
						134.1,244.4 					"/>
				</g>
				<g>
					<polygon class="st43" points="133,245 133,244.3 130.5,241.7 129.6,241.5 127,243.1 127,243.8 129.5,246.4 130.4,246.5 					
						"/>
				</g>
				<g>
					<polygon class="st43" points="129.3,247.2 129.3,246.5 126.8,243.9 125.8,243.7 123.3,245.2 123.2,246 125.7,248.5 
						126.7,248.7 					"/>
				</g>
				<g>
					<polygon class="st43" points="151.8,228.2 151.9,227.5 149.4,224.9 148.4,224.8 145.9,226.3 145.8,227 148.3,229.6 
						149.3,229.8 					"/>
				</g>
				<g>
					<polygon class="st43" points="148.1,230.4 148.1,229.7 145.6,227.1 144.7,226.9 142.1,228.4 142.1,229.2 144.6,231.7 
						145.5,231.9 					"/>
				</g>
				<g>
					<polygon class="st43" points="144.4,232.6 144.4,231.9 141.9,229.3 141,229.1 138.4,230.6 138.4,231.4 140.8,233.9 
						141.8,234.1 					"/>
				</g>
				<g>
					<polygon class="st43" points="140.6,234.8 140.6,234 138.1,231.5 137.2,231.3 134.6,232.8 134.6,233.6 137.1,236.1 138,236.3 
											"/>
				</g>
				<g>
					<polygon class="st43" points="136.9,237 136.9,236.2 134.4,233.7 133.5,233.5 130.9,235 130.9,235.7 133.4,238.3 134.3,238.5 
											"/>
				</g>
				<g>
					<polygon class="st43" points="133.1,239.2 133.2,238.4 130.7,235.9 129.7,235.7 127.1,237.2 127.1,237.9 129.6,240.5 
						130.6,240.7 					"/>
				</g>
				<g>
					<polygon class="st43" points="129.4,241.3 129.4,240.6 126.9,238 126,237.9 123.4,239.4 123.4,240.1 125.9,242.7 126.8,242.9 
											"/>
				</g>
				<g>
					<polygon class="st43" points="125.7,243.5 125.7,242.8 123.2,240.2 122.2,240 119.7,241.5 119.7,242.3 122.1,244.8 123.1,245 
											"/>
				</g>
				<g>
					<polygon class="st43" points="148.3,224.6 148.3,223.8 145.8,221.3 144.9,221.1 142.3,222.6 142.3,223.3 144.7,225.9 
						145.7,226.1 					"/>
				</g>
				<g>
					<polygon class="st43" points="144.5,226.7 144.5,226 142,223.4 141.1,223.3 138.5,224.8 138.5,225.5 141,228.1 141.9,228.3 
											"/>
				</g>
				<g>
					<polygon class="st43" points="140.8,228.9 140.8,228.2 138.3,225.6 137.4,225.4 134.8,226.9 134.8,227.7 137.3,230.2 
						138.2,230.4 					"/>
				</g>
				<g>
					<polygon class="st43" points="137,231.1 137,230.4 134.6,227.8 133.6,227.6 131,229.1 131,229.9 133.5,232.4 134.4,232.6 					
						"/>
				</g>
				<g>
					<polygon class="st43" points="133.3,233.3 133.3,232.5 130.8,230 129.9,229.8 127.3,231.3 127.3,232.1 129.8,234.6 
						130.7,234.8 					"/>
				</g>
				<g>
					<polygon class="st43" points="129.5,235.5 129.6,234.7 127.1,232.2 126.1,232 123.6,233.5 123.5,234.2 126,236.8 127,237 					
						"/>
				</g>
				<g>
					<polygon class="st43" points="125.8,237.7 125.8,236.9 123.3,234.4 122.4,234.2 119.8,235.7 119.8,236.4 122.3,239 
						123.2,239.2 					"/>
				</g>
				<g>
					<polygon class="st43" points="122.1,239.8 122.1,239.1 119.6,236.5 118.7,236.3 116.1,237.8 116.1,238.6 118.5,241.2 
						119.5,241.3 					"/>
				</g>
				<g>
					<polygon class="st43" points="144.7,220.9 144.7,220.1 142.2,217.6 141.3,217.4 138.7,218.9 138.7,219.6 141.1,222.2 
						142.1,222.4 					"/>
				</g>
				<g>
					<polygon class="st43" points="140.9,223.1 140.9,222.3 138.5,219.8 137.5,219.6 134.9,221.1 134.9,221.8 137.4,224.4 
						138.3,224.6 					"/>
				</g>
				<g>
					<polygon class="st43" points="137.2,225.2 137.2,224.5 134.7,221.9 133.8,221.8 131.2,223.3 131.2,224 133.7,226.6 
						134.6,226.8 					"/>
				</g>
				<g>
					<polygon class="st43" points="133.4,227.4 133.5,226.7 131,224.1 130,223.9 127.4,225.4 127.4,226.2 129.9,228.7 130.9,228.9 
											"/>
				</g>
				<g>
					<polygon class="st43" points="129.7,229.6 129.7,228.9 127.2,226.3 126.3,226.1 123.7,227.6 123.7,228.4 126.2,230.9 
						127.1,231.1 					"/>
				</g>
				<g>
					<polygon class="st43" points="126,231.8 126,231 123.5,228.5 122.5,228.3 120,229.8 119.9,230.5 122.4,233.1 123.4,233.3 					
						"/>
				</g>
				<g>
					<polygon class="st43" points="122.2,234 122.2,233.2 119.7,230.7 118.8,230.5 116.2,232 116.2,232.7 118.7,235.3 119.6,235.5 
											"/>
				</g>
				<g>
					<polygon class="st43" points="118.5,236.1 118.5,235.4 116,232.8 115.1,232.6 112.5,234.2 112.5,234.9 114.9,237.5 
						115.9,237.7 					"/>
				</g>
				<g>
					<polygon class="st43" points="141.1,217.2 141.1,216.5 138.6,213.9 137.7,213.7 135.1,215.2 135.1,216 137.6,218.5 
						138.5,218.7 					"/>
				</g>
				<g>
					<polygon class="st43" points="137.3,219.4 137.3,218.6 134.9,216.1 133.9,215.9 131.3,217.4 131.3,218.1 133.8,220.7 
						134.7,220.9 					"/>
				</g>
				<g>
					<polygon class="st43" points="133.6,221.6 133.6,220.8 131.1,218.3 130.2,218.1 127.6,219.6 127.6,220.3 130.1,222.9 
						131,223.1 					"/>
				</g>
				<g>
					<polygon class="st43" points="129.8,223.7 129.9,223 127.4,220.4 126.4,220.2 123.9,221.8 123.8,222.5 126.3,225.1 
						127.3,225.2 					"/>
				</g>
				<g>
					<polygon class="st43" points="126.1,225.9 126.1,225.2 123.6,222.6 122.7,222.4 120.1,223.9 120.1,224.7 122.6,227.2 
						123.5,227.4 					"/>
				</g>
				<g>
					<polygon class="st43" points="122.4,228.1 122.4,227.4 119.9,224.8 119,224.6 116.4,226.1 116.4,226.9 118.8,229.4 
						119.8,229.6 					"/>
				</g>
				<g>
					<polygon class="st43" points="118.6,230.3 118.6,229.5 116.1,227 115.2,226.8 112.6,228.3 112.6,229 115.1,231.6 116,231.8 
											"/>
				</g>
				<g>
					<polygon class="st43" points="114.9,232.5 114.9,231.7 112.4,229.2 111.5,229 108.9,230.5 108.9,231.2 111.4,233.8 112.3,234 
											"/>
				</g>
			</g>
		</g>
		<g>
			<path class="st44" d="M119.2,275.2c-0.1-0.1-0.3-0.2-0.4-0.4c-0.1-0.2-0.1-0.3,0-0.4l2.1-2.4c0.1-0.1,0.2-0.1,0.4,0
				c0.1,0.1,0.3,0.2,0.4,0.4l2.1,4.9c0.1,0.2,0.1,0.3,0,0.4s-0.2,0.1-0.4,0L119.2,275.2z"/>
			<path class="st45" d="M119,274.6l2.1-2.4c0-0.1,0.2,0,0.2,0.1l2.1,4.9c0,0.1,0,0.2-0.1,0.1l-4.2-2.4
				C119,274.8,118.9,274.7,119,274.6z"/>
			<path class="st44" d="M121,274.8c-0.1,0-0.1-0.1-0.1-0.1l-0.1-1.5c0-0.5,0.7,0,0.7,0.4l-0.1,1.4c0,0,0,0.1-0.1,0L121,274.8z
				 M121.1,275.2c-0.2-0.1-0.3,0-0.3,0.1c0,0.2,0.1,0.4,0.3,0.4c0.2,0.1,0.3,0,0.3-0.1S121.3,275.3,121.1,275.2z"/>
		</g>
		<g>
			<polygon class="st44" points="118.6,298.7 118.6,290.1 123.7,293 123.7,301.7 			"/>
			<polygon class="st45" points="123.5,301.3 118.9,298.6 118.9,290.4 123.5,293.1 			"/>
			<path class="st44" d="M122.1,293.5l-1.8-1v-0.2l1.8,1V293.5z M122.8,294.9l-3.3-1.9v0.2l3.3,1.9V294.9z M122.8,295.7l-3.3-1.9
				v-0.2l3.3,1.9V295.7z M122.8,296.3l-3.3-1.9v-0.2l3.3,1.9V296.3z M122.8,296.9l-3.3-1.9v-0.2l3.3,1.9V296.9z M122.8,297.5
				l-3.3-1.9v-0.2l3.3,1.9V297.5z M122.8,298.1l-3.3-1.9V296l3.3,1.9V298.1z M122.8,298.7l-3.3-1.9v-0.2l3.3,1.9V298.7z
				 M122.8,299.3l-3.3-1.9v-0.2l3.3,1.9V299.3z M122.8,299.9l-3.3-1.9v-0.2l3.3,1.9V299.9z"/>
		</g>
		<g>
			<path class="st46" d="M143.2,267l-5.6,3.2c-0.6,0.3-1,0.1-1-0.4v-0.9c0-0.6,0.5-1.3,1-1.6l5.6-3.2c0.6-0.3,1-0.1,1,0.4v0.9
				C144.3,265.9,143.8,266.7,143.2,267z"/>
			<g>
				<path class="st47" d="M141.2,266.7c0,0.3-0.4,0.8-0.7,0.9c-0.4,0.2-0.6,0-0.6-0.3s0.4-0.8,0.7-0.9
					C140.9,266.2,141.2,266.4,141.2,266.7z"/>
				
					<radialGradient id="SVGID_18_" cx="140.489" cy="643.0434" r="3.8431" gradientTransform="matrix(1 0 0 1 0 -376)" gradientUnits="userSpaceOnUse">
					<stop  offset="0" style="stop-color:#14B5AD"/>
					<stop  offset="5.207366e-02" style="stop-color:#119D97"/>
					<stop  offset="0.1576" style="stop-color:#0D746F"/>
					<stop  offset="0.2692" style="stop-color:#09504D"/>
					<stop  offset="0.386" style="stop-color:#063331"/>
					<stop  offset="0.5097" style="stop-color:#031C1B"/>
					<stop  offset="0.6435" style="stop-color:#010C0C"/>
					<stop  offset="0.7946" style="stop-color:#000303"/>
					<stop  offset="1" style="stop-color:#000000"/>
				</radialGradient>
				<path class="st48" d="M137.2,269c1.1,1.8,3.4,2.5,5.2,1.4s2.5-3.4,1.4-5.2c-1.1-1.8-3.4-2.5-5.2-1.4
					C136.7,264.8,136.1,267.1,137.2,269z"/>
			</g>
		</g>
	</g>
</g>
<path class="st5" d="M335.1,239.8l-64.6-37.3c-2.2-1.3-2-3.6,0.6-5.1l0,0c2.6-1.5,6.5-1.7,8.8-0.4l64.6,37.3c2.2,1.3,2,3.6-0.6,5.1
	h0C341.3,240.9,337.4,241.1,335.1,239.8z"/>
<path class="st49" d="M346.8,42.4L277.3,2.2c-2.3-1.3-4.4-1.4-5.9-0.4l0,0l-8.7,5.1l5.9,1.1c0,0.3,0,0.6,0,0.9v164
	c0,6.5,4,14.1,8.8,16.9l68.6,39.6c-0.6,2-2,6.1-2,6.1l8.5-4.9l0,0c2-1,3.2-3.6,3.2-7.3v-164C355.7,52.7,351.7,45.2,346.8,42.4z"/>
<path class="st50" d="M268.4,172.9c0,6.5,4,14.1,8.8,16.9l68.6,39.6c-0.6,2-2,6.1-2,6.1l8.5-4.9l0,0c2-1,3.2-3.6,3.2-7.3v-164
	c0-3.4-1.1-7.1-2.8-10.2l-84.4,48.7V172.9z"/>
<path class="st51" d="M338,235.1l-69.6-40.2c-4.9-2.8-8.8-10.4-8.8-16.9V14c0-6.5,4-9.5,8.8-6.7L338,47.4c4.9,2.8,8.8,10.4,8.8,16.9
	v164C346.9,234.9,342.9,237.9,338,235.1z"/>
<path class="st52" d="M338.9,46.9L269.4,6.7c-2.5-1.5-4.8-1.4-6.4,0c1.5-0.7,3.4-0.6,5.5,0.6L338,47.4c4.9,2.8,8.8,10.4,8.8,16.9
	v164c0,3.2-0.9,5.5-2.4,6.7c2-1,3.4-3.6,3.4-7.3v-164C347.8,57.2,343.8,49.7,338.9,46.9z"/>
<path class="st52" d="M336.7,229.6L269.9,191c-3.6-2.1-6.6-7.7-6.6-12.6V16.8c0-4.8,2.9-7.1,6.6-5l66.8,38.6
	c3.6,2.1,6.6,7.7,6.6,12.6v161.7C343.3,229.5,340.4,231.7,336.7,229.6z"/>
<path class="st49" d="M337.3,229.4l-66.8-38.6c-3.6-2.1-6.6-7.7-6.6-12.6V16.5c0-2.7,0.9-4.6,2.4-5.4c-1.8,0.6-2.9,2.6-2.9,5.6
	v161.7c0,4.8,2.9,10.5,6.6,12.6l66.8,38.6c1.6,0.9,3.1,1,4.2,0.4C339.9,230.4,338.6,230.2,337.3,229.4z"/>
<path class="st5" d="M309.4,180L276.6,161V81.3l15.5,8.9c10.7,6.2,17.3,17.7,17.3,30V180z"/>
<g>
	<path class="st51" d="M264.9,73.6L264.9,73.6c-3.3-2-7.9-1.7-13,1.2c-10.1,5.8-18.2,20-18.2,31.6v8.4v0l0,0l0,0l0.3,0.2l32.9,19.3
		l0.5-10l0.4-3.9l1.7-6l0.2-0.9l3.7-7.5l2.9-3.7l2.4-2.8l5.8-4.6l0.5-0.4l2.9-1.2l3.8-1h3l3.4,0.6L264.9,73.6z"/>
	<path class="st51" d="M269.1,151.1l1.1-0.6v-38.2c-0.6,0.8-0.8,1.7-1.1,2.7V151.1z"/>
	<polygon class="st51" points="302.3,170.2 269.1,151.1 269.4,114.9 270.7,111.3 274.5,104.7 279.1,99.3 283.2,96 287.6,93.3 
		295.6,92.4 299.9,94.8 302.3,98.4 303,104 302.8,164.5 	"/>
	<path class="st49" d="M264.9,73.6c-2.8-1.6-6.4-1.7-10.5,0l33.8,19.5l3.6-0.9h3l3.4,0.6L264.9,73.6L264.9,73.6z"/>
	<g>
		<path class="st53" d="M255.1,73.3c-1.1,0.4-2.1,0.9-3.2,1.5c-0.7,0.4-1.5,0.9-2.2,1.4l33.7,19.5l1.2-0.9l0.5-0.4l2.9-1.2l1.1-0.3
			L255.1,73.3z"/>
		<path class="st52" d="M279.1,99.1l4.6-3.6L249.9,76c-1.5,1.1-3,2.3-4.4,3.7L279.1,99.1z"/>
		<path class="st49" d="M303.3,169.6l-1.1,0.6v-65.2c0-10.9-7.7-15.4-17.2-9.9s-17.2,18.8-17.2,29.8v8.8l-1.1,0.6v-8.8
			c0-11.6,8.2-25.8,18.2-31.6c10.1-5.8,18.2-1.1,18.2,10.5V169.6z"/>
	</g>
</g>
<polygon class="st54" points="243.7,100.2 241.8,107.8 242.8,120.1 240.4,118.7 237.4,112 240,103.6 "/>
<g>
	<path class="st55" d="M298.1,149.1c-0.2,0-0.4-0.1-0.6-0.2l-24.2-13.9c-0.7-0.4-1.3-1.5-1.3-2.4v-19c0-0.6,0.2-1,0.6-1.2
		c0.3-0.2,0.7-0.2,1.1,0.1l24.2,13.9c0.7,0.4,1.3,1.5,1.3,2.4v19c0,0.6-0.2,1-0.6,1.2C298.4,149,298.2,149.1,298.1,149.1z M273,113
		C273,113,273,113,273,113c-0.2,0.1-0.3,0.2-0.3,0.6v19c0,0.7,0.4,1.4,0.9,1.7l24.2,13.9c0.1,0,0.2,0.1,0.3,0.1
		c0.1,0,0.2-0.2,0.2-0.5v-19c0-0.7-0.4-1.4-0.9-1.7l-24.2-13.9C273.2,113,273.1,113,273,113z"/>
	<g>
		<path class="st56" d="M280.8,135.7l-0.2-0.1c-0.6-0.4-1.1-1.3-1.1-2.2v-9.1c0-0.8,0.5-1.2,1.1-0.9l0.2,0.1
			c0.6,0.4,1.1,1.3,1.1,2.2v9.1C281.9,135.7,281.4,136.1,280.8,135.7z"/>
		<path class="st56" d="M285.6,138.5l-0.2-0.1c-0.6-0.4-1.1-1.3-1.1-2.2v-5.3c0-0.8,0.5-1.2,1.1-0.9l0.2,0.1
			c0.6,0.4,1.1,1.3,1.1,2.2v5.3C286.8,138.5,286.3,138.9,285.6,138.5z"/>
		<path class="st57" d="M290.5,141.3l-0.2-0.1c-0.6-0.4-1.1-1.3-1.1-2.2v-12.6c0-0.8,0.5-1.2,1.1-0.9l0.2,0.1
			c0.6,0.4,1.1,1.3,1.1,2.2v12.6C291.6,141.3,291.1,141.7,290.5,141.3z"/>
	</g>
</g>
<g>
	<ellipse class="st5" cx="208" cy="203.5" rx="17.2" ry="9.9"/>
	<g>
		<path class="st58" d="M199.5,99.2c0,0,0.4,7.9,1,13.2c0.6,5.3,13.4-4.1,13.4-4.1v-6.1L199.5,99.2z"/>
		<g>
			<path class="st50" d="M206.3,197.7c0.2,0.5,3.5,4.5,6.8,5.5c1.4,0.4,2.4,0.5,3.1,0.4c0.6-0.1,1-0.7,0.8-1.3c-0.6-1.6-2.2-5-6.4-7
				C205,192.5,206.3,197.7,206.3,197.7z"/>
			<path class="st50" d="M205.2,199.3c0,0,1.3,2.9,1.6,5.4c0.2,1.5-0.6,3.4-1.3,4.7c-0.4,0.8-1.5,1-2.2,0.4c-1.1-1-2.5-2.7-2.7-5.2
				c-0.4-4.1,0-4.9,0-4.9L205.2,199.3z"/>
			<path class="st51" d="M197.2,149.2c0,0-0.4,5.2,0,11s2,32.8,2.3,39.3c0,0-0.1,2,3.7,1.5s3.5-2.6,3.5-2.6s5.3-0.1,5.5-3.2
				c0.2-3.2,5.5-37.7,5.5-50.1L197.2,149.2z"/>
			<g>
				<path class="st59" d="M219.6,122.2l2.6,4.1l9,10.9c0,0-0.3,1-1.4,1.3c-0.9,0.2-8.5-7-11.7-10.2c-0.9-0.8-1-2.2-0.3-3.2
					L219.6,122.2z"/>
				<path class="st49" d="M214.5,105.6c0,0,4.2-0.1,5.6,5.9c1.4,6,2.6,13.6,1.3,14.2c-3.8,1.9-6.2-0.3-6.2-0.3L214.5,105.6z"/>
				<path class="st49" d="M215.8,105.8c-0.7-0.3-1.5-0.3-2.2-0.1c-3.5,1-16.9,4.9-19.1,6.8c-2.5,2.2,3.8,14.4,3.7,18.4
					c-0.1,4-0.5,8.7-0.9,13.1c-0.4,4.3-0.8,6.7,2.7,8.6c3.6,1.8,9.6,1.9,14.2-1.5s3.7-5.8,3.5-8.3c-0.2-2.5-1.7-13.4-1.6-16.5
					c0,0,1.6-1.2,2.8-3.2c1.2-2-0.9-5.7-1.8-8.2c-0.9-2.4,0.5-5.2,0.2-7.2C217.2,106.6,216.5,106.1,215.8,105.8z"/>
				<path class="st52" d="M211.5,110c0.3,2.2-1.7,4.3-4.5,4.6c-2.8,0.4-5.2-1.1-5.5-3.3c-0.3-2.2,1.7-4.3,4.5-4.6
					C208.8,106.3,211.2,107.8,211.5,110z"/>
				<path class="st59" d="M210.1,110.2c0.2,1.6-1.2,3-3.2,3.3c-2,0.3-3.7-0.8-3.9-2.4c-0.2-1.6,1.2-3,3.2-3.3
					C208.1,107.5,209.9,108.6,210.1,110.2z"/>
				<path class="st59" d="M208.1,105c0,0-2.4-2-2.9-1c-0.5,1-0.9,5.3-0.9,5.3l4.8,1.3l-0.7-4.4C208.4,106.3,209.4,105.5,208.1,105z"
					/>
				<path class="st59" d="M215.6,100.3c-0.2,3.9-3.6,6.9-7.5,6.7c-3.9-0.2-6.9-3.6-6.7-7.5c0.2-3.9,3.6-6.9,7.5-6.7
					C212.8,93,215.8,96.4,215.6,100.3z"/>
				<path class="st60" d="M204.9,105.3c0,0.2-0.1,0.5-0.1,0.7c0.5,2.5,4.2,3.6,4.2,3.6l-0.5-3.3c0,0,0.5-0.4,0.3-0.8
					C207.3,105,205.4,104.6,204.9,105.3z"/>
				<path class="st59" d="M215.6,100.3c-0.2,3.9-3.6,6.9-7.5,6.7c-3.9-0.2-6.9-3.6-6.7-7.5c0.2-3.9,3.6-6.9,7.5-6.7
					C212.8,93,215.8,96.4,215.6,100.3z"/>
				<polygon class="st59" points="190.9,130.1 191.7,149.2 194.5,149.5 196.3,132.3 				"/>
				<path class="st57" d="M200.1,128.5c-0.2-0.7-1.4-1.2-1.6-2.1c-1-4.5-1.2-11-1.2-11l-0.8,9c0.9,2.7,1.7,5.1,1.6,6.5
					c-0.1,2.3-0.2,4.9-0.4,7.6l0,0C197.7,138.5,201,132.6,200.1,128.5z"/>
				<path class="st49" d="M195,112.1c0,0-2.2,0.9-3.5,7.7c-1.3,6.9-2.2,13.7,0,14.6c2.3,0.9,4.1,1.6,4.8-0.3
					c0.7-1.8,1.1-10.7,1.2-13.9C197.6,117.1,197.7,112.8,195,112.1z"/>
				<path class="st59" d="M230.6,136.4c0,0,1.2,0.4,2.1,1.4c0.7,0.8,1.1,1.4,1.4,1.9c0.7,1,1.3,3.3,0.9,3.6
					c-0.4,0.3-2.9-3.8-3.2-2.8c-0.4,0.9,0,1.8-0.5,1.8c-0.5,0-2.2-4.1-3.6-5.3C226.2,135.7,230.6,136.4,230.6,136.4z"/>
			</g>
			<path class="st57" d="M206.7,198.5c0,0,0.7,0,1.5-0.2l0,0l1-42L206.7,198.5z"/>
		</g>
		<g>
			<path class="st49" d="M202.6,175.8l-1.5-1.9l-15.6-9c-0.5-0.3-0.9-1.1-0.9-1.7l0-12.8l-0.9-1.2l0.8-0.5l0,0
				c0.2-0.1,0.4-0.1,0.6,0l17.7,10.3c0.5,0.3,0.9,1.1,0.9,1.7l0,13.9c0,0.4-0.1,0.6-0.3,0.7v0L202.6,175.8z"/>
			<path class="st49" d="M191.8,168.4l-1.1-0.6l-6.1-10.6l0-7l-0.9-1.2l0.8-0.5l0,0c0.2-0.1,0.4-0.1,0.6,0l17.7,10.3
				c0.3,0.2,0.5,0.4,0.7,0.8L191.8,168.4z"/>
			<path class="st49" d="M184.1,149.6l-0.4-0.5l0.8-0.5l0,0c0.2-0.1,0.4-0.1,0.6,0l0.3,0.2L184.1,149.6z"/>
			<path class="st49" d="M203,159c0.4,0.3,0.7,0.9,0.7,1.5l-1.7,1l-0.8-1.4L203,159z"/>
			<path class="st51" d="M202,159.4l-17.7-10.3c-0.5-0.3-0.9,0-0.9,0.7l0,13.9c0,0.7,0.4,1.4,0.9,1.7l17.7,10.3
				c0.5,0.3,0.9,0,0.9-0.7l0-13.9C203,160.4,202.5,159.7,202,159.4z"/>
		</g>
		<polygon class="st52" points="198.4,169.4 197.6,168.9 197.6,161.6 198.4,162.1 		"/>
		<polygon class="st52" points="196.4,168.2 195.6,167.7 195.6,160.5 196.4,161 		"/>
		<polygon class="st52" points="194.5,167.1 193.6,166.6 193.6,159.4 194.5,159.8 		"/>
		<path class="st59" d="M191.7,149c0,0-0.7,4.5-0.6,5.9c0.1,1.4,0.9,3.8,1.5,3.7c0.6,0,0-5.7,1-5.2c1,0.6,1.1,1.5,1.6,1.2
			c0.5-0.3-0.8-5.2-0.5-7.3C195,145.3,191.7,149,191.7,149z"/>
		<path class="st60" d="M211.2,100.5c3.6,1.3,4.3,0.5,4.3,0.5c0-0.2,0.1-0.4,0.1-0.7c0-0.8,0-1.6-0.2-2.3l-9.3-1.3
			C206.1,96.8,207.5,99.2,211.2,100.5z"/>
		<path class="st58" d="M215.8,93.2c-0.8-0.7-3.9-4.3-9.3-3.5c-3.4,0.5-6.3,2.9-6.9,8.2c-0.4,3.6,0.9,7.1,3.3,9.7
			c0.1-0.1,0.3-0.1,0.4-0.2c1.4-0.9,1.5-1.4,1.5-1.4l0.3-2.7c0-0.4-0.3-0.7-0.7-0.8c-0.3,0-0.7-0.2-1-0.6c-0.8-1-0.4-2.6,1.1-2.7
			c0.8,0,1.1-0.5,1.3-0.9c0.1-0.4,0.5-0.6,0.8-0.4c1.8,0.6,6.2,2,9,1.2C219.3,98.1,216.7,93.9,215.8,93.2z"/>
		<path class="st52" d="M211.8,103.7l2.2-0.6c0,0-1,1.6-2.6,2.1c-1.5,0.4-1.8-0.9-1.8-0.9L211.8,103.7z"/>
		<polygon class="st49" points="195.4,154.5 193.5,153.5 194.2,154.6 195.2,155 		"/>
	</g>
</g>
<g>
	<path class="st5" d="M236.9,235.1c8.1,4.7,21.3,4.7,29.4,0c8.1-4.7,8.1-12.3,0-17s-21.3-4.7-29.4,0
		C228.8,222.8,228.8,230.4,236.9,235.1z"/>
	<g>
		<path class="st50" d="M238.9,220.3c-1.4,0.6-2.4,2.2-2.2,4c0.1,0.8,0.2,1.6,0.3,1.9c0.5,1,2,2.3,4.4,1.3c2.4-1,7.8-6,8-9.3
			C249.7,212.1,242.7,218.6,238.9,220.3z"/>
		<path class="st50" d="M253,230.4c0,0-0.6,3.5-0.3,4.2c0.3,0.6,2,2,4.4,1.7c2.5-0.3,9.6-2.8,11.2-7.5c2.5-7.3-13.8,0.5-13.8,0.5
			L253,230.4z"/>
		<path class="st51" d="M260,174l0.6,55c-0.1,1.9-1.3,3.5-3,3.8c-0.2,0-0.4,0.1-0.7,0.1c-1.7,0.1-2.7-0.6-3.3-1.4
			c-0.5-0.6-0.7-1.4-0.7-2.2l-0.7-23.5l-3.5-21l-4.9,37.2c-0.1,1-0.6,1.9-1.3,2.4c-0.5,0.4-1.3,0.6-2.2,0.6c-1.4,0-2.4-0.8-2.9-1.4
			c-0.5-0.5-0.7-1.2-0.7-2l1.9-22.4l0.7-28.5L260,174z"/>
		<path class="st59" d="M252.9,124.8l-0.9,5c0,0,0,1.7,1.9,2.2c1.9,0.5,2.5-0.8,2.5-0.8l0.9-5.6L252.9,124.8z"/>
		<path class="st59" d="M263.4,122c-1.4,4.3-5.6,6.8-9.4,5.6c-3.8-1.2-5.8-5.7-4.5-10c1.4-4.3,5.6-6.8,9.4-5.6
			C262.7,113.3,264.7,117.7,263.4,122z"/>
		<path class="st49" d="M253.1,129.9c-0.1-0.1-8.1-5.2-11.1,0.2c-4.8,8.8-1.3,18.8-3,40.6c-0.3,3.6,4.9,5.9,7.4,7.3
			c2.2,1.2,4.6,2,7.2,2c2.5,0,7.3-2.2,7.1-5.5c-0.8-15,0.5-27.6,1.7-39.9C262.4,134.7,260.9,133,253.1,129.9z"/>
		<path class="st57" d="M248.7,184.9l-4.9,37.2c-0.1,1-0.6,1.9-1.3,2.4c-0.1,0.1-0.3,0.2-0.4,0.2c1-0.8,3.9-32,4.5-35.4
			C247.1,185.9,248.7,184.9,248.7,184.9z"/>
	</g>
	<polygon class="st59" points="278.9,134.4 285.6,121.2 283.5,119.9 276.6,130 	"/>
	<polygon class="st59" points="234.9,120.4 238.2,105.6 240.7,105.6 239.8,117.9 	"/>
	<path class="st49" d="M262.4,134.7c0,0,7.5,2.9,13.9-5.1c0.6-0.7,1.7-0.6,2.1,0.1c0.6,1.3,1.3,3.3,0.4,5.2
		c-3.9,8.3-17.1,8-20.3,12.7C255.3,152.2,262.4,134.7,262.4,134.7z"/>
	<path class="st49" d="M248,128.1c0,0-6.2,0.5-7.1-4.9c-0.5-2.7-0.6-4.4-0.6-5.3c0-0.6-0.6-1.1-1.2-1c-1.5,0.2-3.8,0.6-4.1,1.6
		c-0.5,1.5-1.3,8.7,4.8,19.8C243.8,145.5,248,128.1,248,128.1z"/>
	<path class="st59" d="M238.1,105.6l0.1-1.7c0-0.6,0.2-1.2,0.5-1.7l1.7-2.8l0.4-0.6c0.4-0.5,1.1-0.6,1.7-0.3l0.4,0.2
		c0.5,0.3,0.8,0.9,0.8,1.5l-0.9,2.4l1.1-0.2c0.2,0,0.4,0.1,0.5,0.3l0,0c0,0.2-0.1,0.4-0.2,0.4l-1.8,0.7l-1.7,2.3L238.1,105.6z"/>
	<path class="st59" d="M285.7,121.3l0.8-1.5c0.3-0.5,0.4-1.1,0.4-1.7l-0.1-3.3l-0.1-0.7c-0.1-0.7-0.7-1.1-1.3-1.1l-0.5,0
		c-0.6,0-1.1,0.4-1.4,0.9l-0.4,2.5l-0.9-0.7c-0.2-0.1-0.4-0.1-0.6,0l0,0c-0.1,0.1-0.1,0.4,0,0.5l1.2,1.5l0.3,3.2L285.7,121.3z"/>
	<path class="st57" d="M257.5,145.9c-0.6,3,3.3,25.3-1.1,33.4c2.2-0.9,4.3-2.6,4.2-4.8c-0.6-10.7-0.1-20.2,0.7-29.2
		c3.7-1.9,9.5-3,13.6-6C270.6,140.9,258.1,143.3,257.5,145.9z"/>
	<path class="st52" d="M250.2,128.5l1.1-1.1c0,0,1.8,1.9,3.3,2.2c0,0,1.8,0.5,2.6,0.5l0.7,2C257.9,132,252.1,131.6,250.2,128.5z"/>
	<path class="st50" d="M258.2,122.2c0.3,0,0.6-0.1,0.8-0.4c0.3-0.4,0.1-2.5,1-2.8c1.5-0.5,4.9,1.3,5.3-4c0.2-2.7-1.1-3.5-1.1-5
		c0,0,0.1,0.8-6.9,0.3c-7-0.5-9.3,5.8-9.5,8.8c-0.2,3,1.3,7.9,6.1,8.5c0.8,0.1,4.1-2.6,4.1-2.9c-0.1-0.4-1.3-0.3-1.2-1.4
		C256.9,122.5,257.4,122.2,258.2,122.2z"/>
</g>
<g>
	<g>
		<path class="st5" d="M301.3,198.7l-21.3-12.3c-0.9-0.5-1.7-2-1.7-3.3v-15.8c0-1.3,0.8-1.8,1.7-1.3l21.3,12.3
			c0.9,0.5,1.7,2,1.7,3.3v15.8C303,198.6,302.3,199.2,301.3,198.7z"/>
		<path class="st50" d="M299.2,173.6L278,161.3c-0.4-0.2-0.8-0.3-1.1-0.1c0,0,0,0,0,0l-2.1,1.2c0,0,0.9,0.3,1.4,0.5v15.5
			c0,1.3,0.8,2.7,1.7,3.3l20.3,11.7v1.8l2.1-1.2l0,0c0.4-0.2,0.6-0.7,0.6-1.4v-15.8C300.9,175.6,300.1,174.1,299.2,173.6z"/>
		<path class="st49" d="M297.1,195.2l-21.3-12.3c-0.9-0.5-1.7-2-1.7-3.3v-15.8c0-1.3,0.8-1.8,1.7-1.3l21.3,12.3
			c0.9,0.5,1.7,2,1.7,3.3v15.8C298.8,195.1,298.1,195.7,297.1,195.2z"/>
		<path class="st52" d="M297.1,174.8l-21.3-12.3c-0.5-0.3-1-0.2-1.3,0.1c0.2,0,0.5,0,0.8,0.2l21.3,12.3c0.9,0.5,1.7,2,1.7,3.3v15.8
			c0,0.5-0.1,0.9-0.4,1.2c0.6,0,1-0.6,1-1.5v-15.8C298.8,176.8,298.1,175.3,297.1,174.8z"/>
	</g>
	<g>
		<path class="st52" d="M283,177.4c0,0.9-0.6,1.3-1.4,0.8c-0.8-0.5-1.4-1.6-1.4-2.5s0.6-1.3,1.4-0.8
			C282.4,175.4,283,176.5,283,177.4z"/>
		<path class="st52" d="M287.3,180c0,0.9-0.6,1.3-1.4,0.8c-0.8-0.5-1.4-1.6-1.4-2.5s0.6-1.3,1.4-0.8
			C286.7,177.9,287.3,179,287.3,180z"/>
		<path class="st52" d="M291.7,182.5c0,0.9-0.6,1.3-1.4,0.8c-0.8-0.5-1.4-1.6-1.4-2.5c0-0.9,0.6-1.3,1.4-0.8
			C291,180.4,291.7,181.5,291.7,182.5z"/>
	</g>
</g>
<g>
	<g>
		<g>
			<path class="st5" d="M336.6,219l-21.3-12.3c-0.9-0.5-1.7-2-1.7-3.3v-35.6c0-1.3,0.8-1.8,1.7-1.3l21.3,12.3c0.9,0.5,1.7,2,1.7,3.3
				v35.6C338.3,219,337.5,219.5,336.6,219z"/>
			<path class="st61" d="M334.4,174.2l-21.3-12.3c-0.4-0.2-0.8-0.3-1.1-0.1c0,0,0,0,0,0L310,163c0,0,0.9,0.3,1.4,0.5v35.2
				c0,1.3,0.8,2.7,1.7,3.3l20.3,11.7v1.8l2.1-1.2l0,0c0.4-0.2,0.6-0.7,0.6-1.4v-35.6C336.2,176.2,335.4,174.7,334.4,174.2z"/>
			<path class="st58" d="M332.4,215.5l-21.3-12.3c-0.9-0.5-1.7-2-1.7-3.3v-35.6c0-1.3,0.8-1.8,1.7-1.3l21.3,12.3
				c0.9,0.5,1.7,2,1.7,3.3v35.6C334.1,215.5,333.3,216.1,332.4,215.5z"/>
			<path class="st52" d="M332.4,175.4l-21.3-12.3c-0.5-0.3-1-0.2-1.3,0.1c0.2,0,0.5,0,0.8,0.2l21.3,12.3c0.9,0.5,1.7,2,1.7,3.3v35.6
				c0,0.5-0.1,0.9-0.4,1.2c0.6,0,1-0.6,1-1.5v-35.6C334.1,177.4,333.3,175.9,332.4,175.4z"/>
		</g>
	</g>
	<g>
		<path class="st52" d="M324.8,180.2c0,2-1.4,2.8-3.1,1.8c-1.7-1-3.1-3.4-3.1-5.4c0-2,1.4-2.8,3.1-1.8
			C323.4,175.8,324.8,178.2,324.8,180.2z"/>
		<path class="st52" d="M326.1,185.8C326.1,185.8,326.1,185.7,326.1,185.8c-0.1-0.9-0.9-1.7-1.5-1.5c-0.8,0.3-1.8,0.1-2.9-0.5
			c-1.1-0.6-2.1-1.7-2.9-2.9c-0.5-0.8-1.3-1-1.4-0.3c0,0,0,0.1,0,0.1l-1.5,9.3l11.7,6.8L326.1,185.8z"/>
	</g>
	<g>
		<polygon class="st52" points="328.4,203.9 314.2,195.7 314.2,194.7 328.4,202.9 		"/>
		<polygon class="st52" points="324.1,205.9 314.2,200.2 314.2,199.2 324.1,204.9 		"/>
		<polygon class="st52" points="322.8,202.9 314.2,198 314.2,196.9 322.8,201.9 		"/>
		<polygon class="st52" points="328.4,206.2 324.1,203.7 324.1,202.7 328.4,205.2 		"/>
	</g>
</g>
<g>
	<g>
		<g>
			<path class="st5" d="M336.6,168.7l-21.3-12.3c-0.9-0.5-1.7-2-1.7-3.3v-35.6c0-1.3,0.8-1.8,1.7-1.3l21.3,12.3
				c0.9,0.5,1.7,2,1.7,3.3v35.6C338.3,168.7,337.5,169.3,336.6,168.7z"/>
			<path class="st49" d="M334.4,123.9l-21.3-12.3c-0.4-0.2-0.8-0.3-1.1-0.1c0,0,0,0,0,0l-2.1,1.2c0,0,0.9,0.3,1.4,0.5v35.2
				c0,1.3,0.8,2.7,1.7,3.3l20.3,11.7v1.8l2.1-1.2l0,0c0.4-0.2,0.6-0.7,0.6-1.4v-35.6C336.2,125.9,335.4,124.4,334.4,123.9z"/>
			<path class="st51" d="M332.4,165.2l-21.3-12.3c-0.9-0.5-1.7-2-1.7-3.3v-35.6c0-1.3,0.8-1.8,1.7-1.3l21.3,12.3
				c0.9,0.5,1.7,2,1.7,3.3v35.6C334.1,165.2,333.3,165.8,332.4,165.2z"/>
			<path class="st52" d="M332.4,125.1l-21.3-12.3c-0.5-0.3-1-0.2-1.3,0.1c0.2,0,0.5,0,0.8,0.2l21.3,12.3c0.9,0.5,1.7,2,1.7,3.3v35.6
				c0,0.5-0.1,0.9-0.4,1.2c0.6,0,1-0.6,1-1.5v-35.6C334.1,127.1,333.3,125.6,332.4,125.1z"/>
		</g>
	</g>
	<g>
		<polygon class="st49" points="328.5,133.1 314.2,124.9 314.2,123.9 328.5,132.1 		"/>
		<polygon class="st49" points="324.2,135.1 314.2,129.4 314.2,128.4 324.2,134.1 		"/>
		<polygon class="st49" points="322.8,132.1 314.2,127.1 314.2,126.1 322.8,131.1 		"/>
		<polygon class="st49" points="328.5,135.4 324.2,132.9 324.2,131.9 328.5,134.3 		"/>
	</g>
	<g>
		<polygon class="st49" points="328.5,141.8 314.2,133.6 314.2,132.5 328.5,140.8 		"/>
		<polygon class="st49" points="324.2,143.8 314.2,138 314.2,137 324.2,142.8 		"/>
		<polygon class="st49" points="322.8,140.8 314.2,135.8 314.2,134.8 322.8,139.7 		"/>
		<polygon class="st49" points="328.5,144 324.2,141.5 324.2,140.5 328.5,143 		"/>
	</g>
	<g>
		<polygon class="st49" points="328.5,150.4 314.2,142.2 314.2,141.2 328.5,149.4 		"/>
		<polygon class="st49" points="324.2,152.4 314.2,146.7 314.2,145.7 324.2,151.4 		"/>
		<polygon class="st49" points="322.8,149.4 314.2,144.5 314.2,143.4 322.8,148.4 		"/>
		<polygon class="st49" points="328.5,152.7 324.2,150.2 324.2,149.2 328.5,151.7 		"/>
	</g>
</g>
<g>
	<polygon class="st52" points="283.6,148.1 273.4,142.2 273.4,141.3 283.6,147.1 	"/>
	<polygon class="st52" points="289.9,151.7 285.5,149.2 285.5,148.3 289.9,150.8 	"/>
	<polygon class="st52" points="283.9,150.3 279.6,147.8 279.6,146.9 283.9,149.4 	"/>
	<polygon class="st52" points="293.3,155.8 285.5,151.3 285.5,150.3 293.3,154.8 	"/>
	<polygon class="st52" points="298.7,160.9 287.1,154.3 287.1,153.3 298.7,160 	"/>
	<polygon class="st52" points="296.1,155.3 291.8,152.8 291.8,151.8 296.1,154.3 	"/>
	<polygon class="st52" points="277.8,146.8 273.4,144.3 273.4,143.3 277.8,145.8 	"/>
	<polygon class="st52" points="285.3,153.2 273.4,146.3 273.4,145.4 285.3,152.2 	"/>
	<polygon class="st52" points="280.7,152.6 273.6,148.5 273.6,147.5 280.7,151.7 	"/>
</g>
<g>
	<path class="st5" d="M333.8,103.1l-55.6-32.1c-3.6-2.1-6.5-7.7-6.5-12.4l0,0c0-4.8,2.9-7,6.5-4.9l55.6,32.1
		c3.6,2.1,6.5,7.7,6.5,12.4v0C340.3,103,337.4,105.2,333.8,103.1z"/>
	<path class="st61" d="M339,95.1c0-4.8-2.9-10.4-6.5-12.4l-55.6-32.1c-1.7-1-3.2-1-4.4-0.3l0,0l-2.7,1.6l1.3,0.1
		c-0.4,0.9-0.7,2.1-0.7,3.5v0c0,4.8,2.9,10.4,6.5,12.4l55.6,32.1c0.7,0.4,1.4,0.6,2,0.7l-0.3,1.1l2.7-1.6l0,0
		C338.1,99.4,339,97.6,339,95.1z"/>
	<path class="st58" d="M329.8,101.5l-55.6-32.1c-3.6-2.1-6.5-7.7-6.5-12.4l0,0c0-4.8,2.9-7,6.5-4.9l55.6,32.1
		c3.6,2.1,6.5,7.7,6.5,12.4v0C336.3,101.4,333.4,103.6,329.8,101.5z"/>
	<path class="st52" d="M330.3,83.8l-55.6-32.1c-1.8-1.1-3.5-1-4.7-0.1c1.1-0.6,2.6-0.5,4.1,0.4l55.6,32.1c3.6,2.1,6.5,7.7,6.5,12.4
		c0,2.4-0.7,4.1-1.8,5c1.5-0.7,2.4-2.6,2.4-5.3C336.9,91.5,333.9,85.9,330.3,83.8z"/>
</g>
<g>
	<path class="st5" d="M313,64.7l-34.4-19.9c-3.6-2.1-6.5-7.7-6.5-12.4l0,0c0-4.8,2.9-7,6.5-4.9L313,47.3c3.6,2.1,6.5,7.7,6.5,12.4
		l0,0C319.5,64.5,316.6,66.7,313,64.7z"/>
	<path class="st49" d="M317.8,56.6c0-4.8-2.9-10.4-6.5-12.4l-34.4-19.9c-1.7-1-3.2-1-4.4-0.3l0,0l-2.7,1.6l1.3,0.1
		c-0.4,0.9-0.7,2.1-0.7,3.5v0c0,4.8,2.9,10.4,6.5,12.4l34.4,19.9c0.7,0.4,1.4,0.6,2,0.7l-0.3,1.1l2.7-1.6l0,0
		C317,60.9,317.8,59.1,317.8,56.6z"/>
	<path class="st51" d="M308.6,63l-34.4-19.9c-3.6-2.1-6.5-7.7-6.5-12.4l0,0c0-4.8,2.9-7,6.5-4.9l34.4,19.9c3.6,2.1,6.5,7.7,6.5,12.4
		l0,0C315.2,62.9,312.2,65.1,308.6,63z"/>
	<path class="st52" d="M309.2,45.3l-34.4-19.9c-1.8-1.1-3.5-1-4.7-0.1c1.1-0.6,2.6-0.5,4.1,0.4l34.4,19.9c3.6,2.1,6.5,7.7,6.5,12.4
		c0,2.4-0.7,4.1-1.8,5c1.5-0.7,2.4-2.6,2.4-5.3C315.7,53,312.8,47.4,309.2,45.3z"/>
</g>
<g>
	<polygon class="st49" points="293.1,44.8 278.9,36.6 278.9,35.6 293.1,43.8 	"/>
	<polygon class="st49" points="304.4,51.4 294.5,45.6 294.5,44.6 304.4,50.3 	"/>
	<polygon class="st49" points="287.5,43.8 278.9,38.9 278.9,37.8 287.5,42.8 	"/>
	<polygon class="st49" points="293.1,47.1 288.8,44.6 288.8,43.6 293.1,46 	"/>
</g>
<g>
	<polygon class="st52" points="326.6,90.8 312.3,82.6 312.3,81.5 326.6,89.8 	"/>
	<polygon class="st52" points="311,81.8 301.1,76.1 301.1,75 311,80.8 	"/>
	<polygon class="st52" points="320.9,89.8 312.3,84.8 312.3,83.8 320.9,88.7 	"/>
	<polygon class="st52" points="326.6,93 322.3,90.5 322.3,89.5 326.6,92 	"/>
	<polygon class="st52" points="311,84 306.7,81.5 306.7,80.5 311,83 	"/>
</g>
<g>
	<polygon class="st49" points="242.4,94.1 240.2,92.9 240.6,92.2 242.8,93.5 	"/>
	<path class="st49" d="M238.3,91.7l0.4-0.7l-0.8-0.5c-0.1,0.2-0.2,0.5-0.3,0.7L238.3,91.7z"/>
	<polygon class="st49" points="246.5,96.5 244.3,95.2 244.7,94.6 246.9,95.8 	"/>
	<polygon class="st49" points="250.6,98.9 248.4,97.6 248.8,97 251,98.2 	"/>
	<polygon class="st49" points="254.8,101.3 252.6,100 252.9,99.3 255.1,100.6 	"/>
	<polygon class="st49" points="258.9,103.6 256.7,102.4 257.1,101.7 259.2,103 	"/>
	<polygon class="st49" points="263,106 260.8,104.8 261.2,104.1 263.4,105.4 	"/>
	<polygon class="st49" points="267.1,108.4 264.9,107.1 265.3,106.5 267.5,107.7 	"/>
	<polygon class="st49" points="271.2,110.8 269.1,109.5 269.4,108.9 271.6,110.1 	"/>
</g>
<g>
	<polygon class="st49" points="282,99.7 279.7,98.5 280.2,97.8 282,98.9 	"/>
	<polygon class="st49" points="286.2,102.2 283.9,100.9 283.9,100 286.2,101.3 	"/>
	<polygon class="st49" points="290.4,104.6 288.1,103.3 288.1,102.4 290.4,103.7 	"/>
	<polygon class="st49" points="294.5,107 292.3,105.7 292.3,104.8 294.5,106.1 	"/>
	<polygon class="st49" points="298.7,109.4 296.5,108.1 296.5,107.3 298.7,108.5 	"/>
	<polygon class="st49" points="302.9,111.8 300.7,110.6 300.7,109.7 302.9,111 	"/>
</g>
<polygon class="st52" points="299.7,75.3 291.7,70.7 291.7,69.7 299.7,74.3 "/>
</svg>
