<?xml version="1.0" encoding="utf-8"?>
<!-- Generator: Adobe Illustrator 24.0.2, SVG Export Plug-In . SVG Version: 6.00 Build 0)  -->
<svg version="1.1" id="Layer_1" xmlns="http://www.w3.org/2000/svg" xmlns:xlink="http://www.w3.org/1999/xlink" x="0px" y="0px"
	 viewBox="0 0 612 792" style="enable-background:new 0 0 612 792;" xml:space="preserve">
<style type="text/css">
	.st0{opacity:0.6;fill:#578E8A;}
	.st1{fill:#719020;}
	.st2{fill:#A2BA3F;}
	.st3{fill:#B3C94B;}
	.st4{fill:#88A72B;}
	.st5{fill:#6B4932;}
	.st6{fill:#4C3526;}
	.st7{fill:#826B29;}
	.st8{fill:#3384A3;}
	.st9{fill:#8DD7D3;}
	.st10{fill:#578E8A;}
	.st11{fill:#FFCE40;}
	.st12{clip-path:url(#SVGID_2_);}
	.st13{clip-path:url(#SVGID_4_);}
	.st14{clip-path:url(#SVGID_6_);}
	.st15{fill:#A1AB21;}
	.st16{fill:#F3BC97;}
	.st17{fill:#EFEFEF;}
	.st18{fill:#C19259;}
	.st19{fill:#33312F;}
	.st20{fill:#FCBE9F;}
	.st21{fill:url(#SVGID_7_);}
	.st22{fill:#F3A984;}
	.st23{fill:#54361F;}
	.st24{fill:#D79611;}
	.st25{fill:#C5C0B6;}
	.st26{fill:#F0ECE6;}
	.st27{fill:#567C89;}
	.st28{fill:#EBF2F1;}
</style>
<title>Business_SVG</title>
<g>
	<polygon class="st0" points="351.7,167.7 351.7,492.3 387.8,471.4 547.4,379.3 547.4,54.8 	"/>
	<g>
		<g>
			<g>
				<path class="st1" d="M486.9,245.5c0.8-0.5,1.6-1.1,2.5-1.5c1.2-8.1,2-16.5,2.1-18.8c0.2-11.5-1.2-19.2-11.3-21
					c-3.5-0.6-12.7-1.3-23.7,8.2C475.9,201.3,488,208.2,486.9,245.5z"/>
				<g>
					<path class="st2" d="M476.5,163.8c-4.4-5-8.7-6.2-15.5-17.7c-9.6,22.3-2.4,31.7,0.5,34.3c4.9,4.4,15.3,1.4,19.5,4.1
						C481.1,182.5,484.9,173.3,476.5,163.8z"/>
					<path class="st3" d="M482.7,179.4c-0.7-0.5-1.6-1-2.4-1.6c-2.8-1.9-7.5-3.7-11.2-6.8c-2.2-1.8-7-6.4-7.4-17.4
						c-1.5,14.5,5,19.9,17.6,27c1.5,0.9,2.6,1.6,3.3,2.3L482.7,179.4z"/>
				</g>
				<path class="st4" d="M485.6,193c-0.3,0.4-0.4,0.9-0.9,1.1c-2,0.8,1.9-15.2,2.7-17.6c5.6-16.7,23.4-33.3,23.7-52
					c1.3,19.8-17,34.8-21.1,53.5C487.7,188.7,489.9,187.3,485.6,193z"/>
				<g>
					<path class="st1" d="M533.2,180.5c-0.6-4.7-4.1-16.1-13-14.5c-2.4,0.4-20.6,14.4-21.3,15.8c-1.3,2.6-5,7.9-3.9,9.1
						c1,1.1,2.8,1.5,4.1,2.1c1.3,0.6,2.5,1.5,4,1.8c1.1,0.2,2.4-6.6,3.7-7.2C508.5,186.7,519.2,174.1,533.2,180.5z"/>
					<path class="st2" d="M495.2,231.9c-0.5,1.9,0.3,1-1.5,2c-2,1.1-1.8-0.2-1.8-2c-0.1-2.9-0.6-23.4,1.3-40c0.6-5.2,3-11,6.8-15
						c7.5-8,17.7-11.7,23.8-11.1C507.3,176.4,497,225.9,495.2,231.9z"/>
					<path class="st3" d="M495.9,246.3c-1.7,3-4.1-4.1-4.5-6.2c-0.9-5,3.6-49.2,17-70.1c0,0,1-0.7,1-0.3
						C489.7,210.1,495.9,246.3,495.9,246.3z"/>
				</g>
				<path class="st4" d="M485.6,256.2l14.2-8.2c-3.8-39.6-3.5-44.2-16.1-71.6c-5.6-12.1,1.5-32.8,8.7-50c6.9-16.2,9.2-27.7,3.8-32.4
					c4.8,8.8-2.9,25.2-9.3,39.1c-7.1,15.5-13.7,36.9-6.7,51.4C491,206.8,487.1,244.3,485.6,256.2z"/>
			</g>
			<g>
				<polygon class="st5" points="526.5,239.2 463.2,275.7 463.2,267.3 526.5,230.8 				"/>
				<polygon class="st6" points="526.5,266.3 463.2,302.8 463.2,275.1 526.5,238.6 				"/>
				<polygon class="st7" points="526.5,278.1 463.2,314.6 463.2,301.6 526.5,265.1 				"/>
				<polygon class="st8" points="526.5,281.6 463.2,318.1 463.2,314 526.5,277.5 				"/>
			</g>
		</g>
		<path class="st9" d="M440.4,185.6c0,0.3-0.2,0.6-0.5,0.8l-0.4,0.2c-0.3,0.2-0.5,0.1-0.5-0.2c0-0.3,0.2-0.6,0.5-0.8l0.4-0.2
			C440.2,185.2,440.4,185.3,440.4,185.6z M394.2,211.7l-0.8,0.4c-0.3,0.2-0.5,0.5-0.5,0.8s0.2,0.4,0.5,0.2l0.8-0.4
			c0.3-0.2,0.5-0.5,0.5-0.8C394.7,211.6,394.5,211.5,394.2,211.7z M401.9,207.3l-0.8,0.4c-0.3,0.2-0.5,0.5-0.5,0.8s0.2,0.4,0.5,0.2
			l0.8-0.4c0.3-0.2,0.5-0.5,0.5-0.8S402.2,207.1,401.9,207.3z M398.1,209.5l-0.8,0.4c-0.3,0.2-0.5,0.5-0.5,0.8s0.2,0.4,0.5,0.2
			l0.8-0.4c0.3-0.2,0.5-0.5,0.5-0.8S398.4,209.3,398.1,209.5z M386.6,216.1l-0.8,0.4c-0.3,0.2-0.5,0.5-0.5,0.8s0.2,0.4,0.5,0.2
			l0.8-0.4c0.3-0.2,0.5-0.5,0.5-0.8S386.8,216,386.6,216.1z M390.4,213.9l-0.8,0.4c-0.3,0.2-0.5,0.5-0.5,0.8s0.2,0.4,0.5,0.2
			l0.8-0.4c0.3-0.2,0.5-0.5,0.5-0.8S390.7,213.8,390.4,213.9z M371.2,225l-0.8,0.4c-0.3,0.2-0.5,0.5-0.5,0.8c0,0.3,0.2,0.4,0.5,0.2
			l0.8-0.4c0.3-0.2,0.5-0.5,0.5-0.8C371.7,224.9,371.5,224.8,371.2,225z M375.1,222.8l-0.8,0.4c-0.3,0.2-0.5,0.5-0.5,0.8
			c0,0.3,0.2,0.4,0.5,0.2l0.8-0.4c0.3-0.2,0.5-0.5,0.5-0.8S375.3,222.6,375.1,222.8z M378.9,220.6l-0.8,0.4
			c-0.3,0.2-0.5,0.5-0.5,0.8s0.2,0.4,0.5,0.2l0.8-0.4c0.3-0.2,0.5-0.5,0.5-0.8S379.2,220.4,378.9,220.6z M382.7,218.4l-0.8,0.4
			c-0.3,0.2-0.5,0.5-0.5,0.8c0,0.3,0.2,0.4,0.5,0.2l0.8-0.4c0.3-0.2,0.5-0.5,0.5-0.8C383.2,218.3,383,218.2,382.7,218.4z
			 M405.7,205.1l-0.8,0.4c-0.3,0.2-0.5,0.5-0.5,0.8s0.2,0.4,0.5,0.2l0.8-0.4c0.3-0.2,0.5-0.5,0.5-0.8
			C406.3,205,406,204.9,405.7,205.1z M428.8,191.8l-0.8,0.4c-0.3,0.2-0.5,0.5-0.5,0.8s0.2,0.4,0.5,0.2l0.8-0.4
			c0.3-0.2,0.5-0.5,0.5-0.8S429,191.6,428.8,191.8z M417.3,198.4l-0.8,0.4c-0.3,0.2-0.5,0.5-0.5,0.8s0.2,0.4,0.5,0.2l0.8-0.4
			c0.3-0.2,0.5-0.5,0.5-0.8S417.5,198.3,417.3,198.4z M432.6,189.6l-0.8,0.4c-0.3,0.2-0.5,0.5-0.5,0.8s0.2,0.4,0.5,0.2l0.8-0.4
			c0.3-0.2,0.5-0.5,0.5-0.8S432.9,189.4,432.6,189.6z M421.1,196.2l-0.8,0.4c-0.3,0.2-0.5,0.5-0.5,0.8c0,0.3,0.2,0.4,0.5,0.2
			l0.8-0.4c0.3-0.2,0.5-0.5,0.5-0.8S421.4,196,421.1,196.2z M409.6,202.8l-0.8,0.4c-0.3,0.2-0.5,0.5-0.5,0.8s0.2,0.4,0.5,0.2
			l0.8-0.4c0.3-0.2,0.5-0.5,0.5-0.8S409.9,202.7,409.6,202.8z M436.4,187.3l-0.8,0.4c-0.3,0.2-0.5,0.5-0.5,0.8
			c0,0.3,0.2,0.4,0.5,0.2l0.8-0.4c0.3-0.2,0.5-0.5,0.5-0.8C436.9,187.3,436.7,187.2,436.4,187.3z M424.9,194l-0.8,0.4
			c-0.3,0.2-0.5,0.5-0.5,0.8c0,0.3,0.2,0.4,0.5,0.2l0.8-0.4c0.3-0.2,0.5-0.5,0.5-0.8S425.2,193.8,424.9,194z M413.4,200.6l-0.8,0.4
			c-0.3,0.2-0.5,0.5-0.5,0.8c0,0.3,0.2,0.4,0.5,0.2l0.8-0.4c0.3-0.2,0.5-0.5,0.5-0.8S413.7,200.5,413.4,200.6z M367,227.1
			c-0.3,0.2-0.5,0.5-0.5,0.8v0.4c0,0.3,0.2,0.4,0.5,0.2l0.4-0.2c0.3-0.2,0.5-0.5,0.5-0.8c0-0.2-0.2-0.3-0.4-0.3
			C367.4,227,367.2,226.9,367,227.1z M367,213.6c0.3-0.2,0.5-0.5,0.5-0.8V212c0-0.3-0.2-0.4-0.5-0.2c-0.3,0.2-0.5,0.5-0.5,0.8v0.8
			C366.5,213.7,366.7,213.8,367,213.6z M367,194.6c0.3-0.2,0.5-0.5,0.5-0.8V193c0-0.3-0.2-0.4-0.5-0.2c-0.3,0.2-0.5,0.5-0.5,0.8v0.8
			C366.5,194.6,366.7,194.7,367,194.6z M367,217.4c0.3-0.2,0.5-0.5,0.5-0.8v-0.8c0-0.3-0.2-0.4-0.5-0.2c-0.3,0.2-0.5,0.5-0.5,0.8
			v0.8C366.5,217.5,366.7,217.6,367,217.4z M367,202.2c0.3-0.2,0.5-0.5,0.5-0.8v-0.8c0-0.3-0.2-0.4-0.5-0.2
			c-0.3,0.2-0.5,0.5-0.5,0.8v0.8C366.5,202.2,366.7,202.3,367,202.2z M367,206c0.3-0.2,0.5-0.5,0.5-0.8v-0.8c0-0.3-0.2-0.4-0.5-0.2
			c-0.3,0.2-0.5,0.5-0.5,0.8v0.8C366.5,206.1,366.7,206.1,367,206z M367,221.2c0.3-0.2,0.5-0.5,0.5-0.8v-0.8c0-0.3-0.2-0.4-0.5-0.2
			c-0.3,0.2-0.5,0.5-0.5,0.8v0.8C366.5,221.3,366.7,221.4,367,221.2z M367,209.8c0.3-0.2,0.5-0.5,0.5-0.8v-0.8
			c0-0.3-0.2-0.4-0.5-0.2c-0.3,0.2-0.5,0.5-0.5,0.8v0.8C366.5,209.9,366.7,210,367,209.8z M367,225c0.3-0.2,0.5-0.5,0.5-0.8v-0.8
			c0-0.3-0.2-0.4-0.5-0.2c-0.3,0.2-0.5,0.5-0.5,0.8v0.8C366.5,225.1,366.7,225.2,367,225z M367,198.4c0.3-0.2,0.5-0.5,0.5-0.8v-0.8
			c0-0.3-0.2-0.4-0.5-0.2c-0.3,0.2-0.5,0.5-0.5,0.8v0.8C366.5,198.4,366.7,198.5,367,198.4z M367,190.8c0.3-0.2,0.5-0.5,0.5-0.8
			v-0.8c0-0.3-0.2-0.4-0.5-0.2c-0.3,0.2-0.5,0.5-0.5,0.8v0.8C366.5,190.8,366.7,190.9,367,190.8z M367,186.9
			c0.3-0.2,0.5-0.5,0.5-0.8v-0.8c0-0.3-0.2-0.4-0.5-0.2c-0.3,0.2-0.5,0.5-0.5,0.8v0.8C366.5,187,366.7,187.1,367,186.9z M367,183.1
			c0.3-0.2,0.5-0.5,0.5-0.8v-0.8c0-0.3-0.2-0.4-0.5-0.2c-0.3,0.2-0.5,0.5-0.5,0.8v0.8C366.5,183.2,366.7,183.3,367,183.1z
			 M367,179.3c0.3-0.2,0.5-0.5,0.5-0.8v-0.8c0-0.3-0.2-0.4-0.5-0.2c-0.3,0.2-0.5,0.5-0.5,0.8v0.8C366.5,179.4,366.7,179.5,367,179.3
			z M428.2,158.1l-4.2,2.4v31.8l4.2-2.4V158.1z M430.9,188.3l4.2-2.4v-34.5l-4.2,2.4V188.3z M421.5,179.8l-4.2,2.4v13.9l4.2-2.4
			V179.8z M410.5,200l4.2-2.4V186l-4.2,2.4V200z M403.8,203.9l4.2-2.4v-24.9l-4.2,2.4V203.9z M401.3,189.7l-4.2,2.4v15.6l4.2-2.4
			V189.7z M394.5,187.8l-4.2,2.4v21.4l4.2-2.4V187.8z M383.6,215.6l4.2-2.4v-9.2l-4.2,2.4V215.6z M376.9,219.4l4.2-2.4v-17.9
			l-4.2,2.4V219.4z M374.3,205.5l-4.2,2.4v15.5l4.2-2.4V205.5z"/>
		<path class="st10" d="M467.1,374.9c-5.4,3.1-9.7,10-9.7,15.3c0,5.4,4.4,7.2,9.7,4.1c5.4-3.1,9.7-10,9.7-15.3
			C476.8,373.6,472.4,371.8,467.1,374.9z M467.1,393c-4.6,2.7-8.4,1.1-8.4-3.5c0-4.6,3.8-10.6,8.4-13.2c4.6-2.7,8.4-1.1,8.4,3.5
			C475.5,384.4,471.7,390.3,467.1,393z"/>
		<path class="st11" d="M497.3,357.5c-5.4,3.1-9.7,10-9.7,15.3c0,5.4,4.4,7.2,9.7,4.1c5.4-3.1,9.7-10,9.7-15.3
			C507,356.2,502.6,354.4,497.3,357.5z M497.3,375.6c-4.6,2.7-8.4,1.1-8.4-3.5c0-4.6,3.8-10.6,8.4-13.2c4.6-2.7,8.4-1.1,8.4,3.5
			C505.7,367,501.9,372.9,497.3,375.6z"/>
		<path class="st9" d="M527.5,340c-5.4,3.1-9.7,10-9.7,15.3c0,5.4,4.4,7.2,9.7,4.1c5.4-3.1,9.7-10,9.7-15.3
			C537.2,338.8,532.8,337,527.5,340z M527.5,358.1c-4.6,2.7-8.4,1.1-8.4-3.5c0-4.6,3.8-10.6,8.4-13.2c4.6-2.7,8.4-1.1,8.4,3.5
			C535.8,349.5,532.1,355.5,527.5,358.1z"/>
		<polygon class="st10" points="381.3,415.6 363.8,425.7 363.8,422 381.3,411.9 		"/>
		<polygon class="st11" points="363.8,428.8 363.8,432.5 420.4,399.9 420.4,396.2 		"/>
		<polygon class="st10" points="443.2,393.6 363.8,439.4 363.8,435.7 443.2,389.9 		"/>
		<polygon class="st10" points="436.9,404.1 363.8,446.3 363.8,442.6 436.9,400.4 		"/>
		<polygon class="st9" points="429.7,415.1 363.8,453.2 363.8,449.5 429.7,411.4 		"/>
		<g>
			<g>
				<g>
					<g>
						<defs>
							<path id="SVGID_1_" d="M385.7,298.6c-12.1,7-21.9,22.4-21.9,34.5s9.8,16.2,21.9,9.2c12.1-7,21.9-22.4,21.9-34.5
								S397.7,291.6,385.7,298.6z M385.7,337.5c-9.4,5.4-17.1,2.2-17.1-7.2c0-9.4,7.7-21.5,17.1-27c9.4-5.4,17.1-2.2,17.1,7.2
								C402.7,320,395.1,332.1,385.7,337.5z"/>
						</defs>
						<clipPath id="SVGID_2_">
							<use xlink:href="#SVGID_1_"  style="overflow:visible;"/>
						</clipPath>
						<g class="st12">
							<path class="st9" d="M385.6,320.4l-5.5-18.8c-4.6,3.8-8.4,8.4-11.6,13.8c-3.8,6.5-5.5,12.3-5.5,18c0,1.9,0.2,3.5,0.7,5.1
								c0.3,1.2,0.8,2.3,1.4,3.2c2.8,4.4,7.4,5.8,13.9,4c9.2-2.5,18.5-10.8,24.4-21.8L385.6,320.4z"/>
							<path class="st10" d="M385.6,297.8c-1.9,1.1-3.6,2.3-5.5,3.8l5.5,18.8l12.6-26C394.3,294,390.4,295.1,385.6,297.8z"/>
							<path class="st11" d="M407.8,303.3c-0.7-3.3-2.2-5.7-4.6-7.2c-1.5-1-2.9-1.5-4.9-1.7l-12.6,26l17.8,3.6
								C407.6,316.4,409.1,309.2,407.8,303.3z"/>
						</g>
					</g>
					<g>
						<path class="st9" d="M381.9,326.4c0,0.3,0,1-0.4,1.8c-0.3,0.8-1,1.7-2.1,2.4c-1.2,0.7-1.8,0.5-2.1,0c-0.3-0.4-0.4-1.1-0.4-1.4
							V322c0-0.4,0-1.2,0.3-2.1c0.3-0.8,0.9-1.7,2.1-2.4c1.2-0.7,1.8-0.5,2.1,0c0.3,0.5,0.3,1.2,0.3,1.7v0.8l-1.9,1.1
							c0-0.9,0-1.4-0.1-1.7c-0.1-0.3-0.2-0.3-0.5-0.2c-0.2,0.1-0.4,0.3-0.5,0.6c-0.1,0.3-0.1,0.6-0.1,1.1v2.3
							c0.3-0.4,0.6-0.7,0.9-0.9c1-0.6,1.5-0.4,1.8,0.1c0.3,0.4,0.3,1.1,0.3,1.4V326.4z M378.8,328.8c0,0.2,0.1,0.5,0.6,0.2
							c0.4-0.2,0.6-0.8,0.6-0.9v-3.8c0-0.2-0.2-0.5-0.6-0.2c-0.4,0.2-0.6,0.7-0.6,0.9V328.8z"/>
						<path class="st9" d="M382.6,318.6v-1.2c0.8-0.6,1.3-1.3,1.6-1.8c0.2-0.3,0.3-0.6,0.4-0.9l1.1-0.7v12.8l-1.9,1.1v-10
							L382.6,318.6z"/>
						<path class="st9" d="M389.6,316.9c0,0.6-0.2,1.1-0.6,1.6c-0.2,0.3-0.4,0.5-0.8,0.7c-0.7,0.4-1,0.2-1.2-0.1
							c-0.1-0.1-0.2-0.4-0.2-0.7v-3.7c0-0.6,0.2-1.1,0.6-1.6c0.2-0.3,0.4-0.5,0.8-0.7c0.7-0.4,1-0.2,1.2,0.1
							c0.1,0.1,0.2,0.4,0.2,0.6V316.9z M387.7,325.7l4.7-15.5l1.1-0.6l-4.7,15.5L387.7,325.7z M388.5,313.8c-0.5-0.2-0.5,0-0.6,0.1
							c0,0.2,0,3.9,0,3.9c0,0.2,0,0.5,0.3,0.3c0.3-0.2,0.3-0.4,0.3-0.6V313.8z M394.5,320.5c0,0.6-0.2,1.1-0.6,1.6
							c-0.2,0.3-0.4,0.5-0.8,0.7c-0.7,0.4-1,0.2-1.2,0c-0.1-0.1-0.2-0.4-0.2-0.7v-3.7c0-0.6,0.2-1.1,0.6-1.6
							c0.2-0.3,0.4-0.5,0.8-0.7c0.7-0.4,1-0.2,1.2,0.1c0.1,0.2,0.2,0.4,0.2,0.6V320.5z M393.4,317.4c-0.5-0.2-0.5,0-0.6,0.1
							c0,0.2,0,3.9,0,3.9c0,0.2,0,0.3,0.1,0.3c0.3-0.1,0.4-0.3,0.5-0.4C393.4,321.1,393.4,317.4,393.4,317.4z"/>
					</g>
				</g>
			</g>
			<g>
				<g>
					<g>
						<defs>
							<path id="SVGID_3_" d="M385.7,247.8c-12.1,7-21.9,22.4-21.9,34.5s9.8,16.2,21.9,9.2c12.1-7,21.9-22.4,21.9-34.5
								S397.7,240.9,385.7,247.8z M385.7,286.8c-9.4,5.4-17.1,2.2-17.1-7.2c0-9.4,7.7-21.5,17.1-27c9.4-5.4,17.1-2.2,17.1,7.2
								C402.7,269.3,395.1,281.3,385.7,286.8z"/>
						</defs>
						<clipPath id="SVGID_4_">
							<use xlink:href="#SVGID_3_"  style="overflow:visible;"/>
						</clipPath>
						<g class="st13">
							<path class="st11" d="M403.2,245.3c-1.5-1-2.9-1.5-4.9-1.7l-12.6,26l22.2-17.1C407.1,249.2,405.6,246.9,403.2,245.3z"/>
							<path class="st10" d="M385.6,247.1c-1.9,1.1-3.6,2.3-5.5,3.8c-4.6,3.8-8.4,8.4-11.6,13.8c-3.8,6.5-5.5,12.3-5.5,18l22.6-13
								l12.6-26C394.3,243.3,390.4,244.3,385.6,247.1z"/>
							<path class="st9" d="M407.8,252.6l-22.2,17.1l-22.6,13c0,1.9,0.2,3.5,0.7,5.1c0.3,1.2,0.8,2.3,1.4,3.2
								c2.8,4.4,7.4,5.8,13.9,4c9.2-2.5,18.5-10.8,24.4-21.8C407.6,265.6,409.1,258.4,407.8,252.6z"/>
						</g>
					</g>
				</g>
				<g>
					<path class="st11" d="M376.5,271.4v-1.2c0.8-0.6,1.3-1.3,1.6-1.8c0.2-0.3,0.3-0.6,0.4-0.9l1.1-0.7v12.9l-1.9,1.1v-10.1
						L376.5,271.4z"/>
					<path class="st11" d="M384,271c0-0.5-0.2-0.8-0.6-0.6c-0.2,0.1-0.4,0.4-0.5,0.7c-0.1,0.3-0.2,0.6-0.2,0.7l-1.6,0.9v-6.8
						l4.6-2.6v1.9l-2.9,1.7v2.7c0.2-0.3,0.4-0.5,0.7-0.8c0.1-0.1,0.3-0.2,0.4-0.3c1-0.6,1.5-0.3,1.8,0.1c0.3,0.5,0.3,1.1,0.3,1.3
						v2.9c0,0.6,0,1.5-0.4,2.3c-0.3,0.9-1,1.8-2.1,2.5c-1.2,0.7-1.8,0.5-2.1-0.1c-0.3-0.6-0.4-1.5-0.4-2.4l1.9-1.1v0.5
						c0,0.6,0,1.1,0.1,1.3c0.1,0.2,0.2,0.3,0.5,0.1c0.2-0.1,0.4-0.3,0.4-0.6c0.1-0.3,0.1-0.8,0.1-1.4V271z"/>
					<path class="st11" d="M389.5,266.1c0,0.6-0.2,1.1-0.6,1.6c-0.2,0.3-0.4,0.5-0.8,0.7c-0.7,0.4-1,0.2-1.2-0.1
						c-0.1-0.1-0.2-0.4-0.2-0.7V264c0-0.6,0.2-1.1,0.6-1.6c0.2-0.3,0.4-0.5,0.8-0.7c0.7-0.4,1-0.2,1.2,0.1c0.1,0.1,0.2,0.4,0.2,0.6
						V266.1z M387.7,275l4.7-15.6l1.1-0.6l-4.7,15.6L387.7,275z M388.5,263c-0.5-0.2-0.5,0-0.6,0.1c0,0.2,0,4,0,4
						c0,0.2,0,0.5,0.3,0.3c0.3-0.2,0.3-0.5,0.3-0.6V263z M394.4,269.7c0,0.6-0.2,1.1-0.6,1.6c-0.2,0.3-0.4,0.5-0.8,0.7
						c-0.7,0.4-1,0.2-1.2,0c-0.1-0.1-0.2-0.4-0.2-0.7v-3.7c0-0.6,0.2-1.1,0.6-1.6c0.2-0.3,0.4-0.5,0.8-0.7c0.7-0.4,1-0.2,1.2,0.1
						c0.1,0.2,0.2,0.4,0.2,0.7V269.7z M393.4,266.6c-0.5-0.2-0.5,0-0.6,0.1c0,0.2,0,4,0,4c0,0.2,0,0.3,0.1,0.3
						c0.3-0.1,0.4-0.3,0.5-0.4C393.4,270.3,393.4,266.6,393.4,266.6z"/>
				</g>
			</g>
			<g>
				<g>
					<g>
						<defs>
							<path id="SVGID_5_" d="M385.6,349.3c-12.1,7-21.9,22.4-21.9,34.5s9.8,16.2,21.9,9.2c12.1-7,21.9-22.4,21.9-34.5
								C407.5,346.5,397.7,342.4,385.6,349.3z M385.6,388.3c-9.4,5.4-17.1,2.2-17.1-7.2c0-9.4,7.7-21.5,17.1-27
								c9.4-5.4,17.1-2.2,17.1,7.2C402.7,370.8,395.1,382.8,385.6,388.3z"/>
						</defs>
						<clipPath id="SVGID_6_">
							<use xlink:href="#SVGID_5_"  style="overflow:visible;"/>
						</clipPath>
						<g class="st14">
							<path class="st9" d="M385.6,371.2l-20.5,21.4c2.8,4.4,7.4,5.8,13.9,4c9.2-2.5,18.5-10.8,24.4-21.8L385.6,371.2z"/>
							<path class="st10" d="M385.6,348.6c-1.9,1.1-3.6,2.3-5.5,3.8c-4.6,3.8-8.4,8.4-11.6,13.8c-3.8,6.5-5.5,12.3-5.5,18
								c0,1.9,0.2,3.5,0.7,5.1c0.3,1.2,0.8,2.3,1.4,3.2l20.5-21.4l12.6-26C394.3,344.8,390.4,345.8,385.6,348.6z"/>
							<path class="st11" d="M407.8,354.1c-0.7-3.3-2.2-5.7-4.6-7.2c-1.5-1-2.9-1.5-4.9-1.7l-12.6,26l17.8,3.6
								C407.6,367.1,409.1,359.9,407.8,354.1z"/>
						</g>
					</g>
					<g>
						<path class="st10" d="M378.3,376.3v-1.6c0.8-0.5,1.1-0.9,1.3-1.3c0.1-0.2,0.1-0.5,0.1-0.8c0-0.3,0-0.6,0-1
							c0-0.4,0-0.8-0.1-1.1c-0.1-0.3-0.2-0.4-0.5-0.3c-0.2,0.1-0.4,0.3-0.4,0.7c-0.1,0.4-0.1,1-0.1,1.8l-1.8,1.1
							c0-0.7,0-1.7,0.3-2.7c0.3-0.9,0.9-1.9,2.1-2.6c1.2-0.7,1.8-0.4,2.1,0c0.3,0.5,0.3,1.2,0.3,1.3c0,1.9-0.3,3-0.9,3.9
							c0.9,0.2,1.1,1.4,1.1,2.9c0,0.1,0,0.2,0,0.4c0,0.4-0.1,1-0.3,1.6c-0.2,0.7-0.6,1.4-1.1,2c-0.3,0.3-0.6,0.6-1,0.8
							c-1.2,0.7-1.8,0.4-2.1-0.1c-0.3-0.6-0.4-1.5-0.4-2.2l1.8-1.1c0,0.9,0.1,1.4,0.2,1.6c0.1,0.3,0.3,0.3,0.5,0.2
							c0.3-0.2,0.5-0.5,0.5-0.8c0.1-0.4,0.1-0.8,0.1-1.1c0-0.4,0-0.8,0-1.1c0-0.6-0.1-1-0.5-1c-0.2,0-0.5,0.1-0.9,0.3L378.3,376.3z"
							/>
						<path class="st10" d="M385.1,367.3l-2.8,1.6V367l4.7-2.7v1.9l-1.9,12l-2,1.1L385.1,367.3z"/>
						<path class="st10" d="M390.4,367.4c0,0.6-0.2,1.1-0.6,1.6c-0.2,0.3-0.4,0.5-0.8,0.7c-0.7,0.4-1,0.2-1.2-0.1
							c-0.1-0.1-0.2-0.4-0.2-0.7v-3.7c0-0.6,0.2-1.1,0.6-1.6c0.2-0.3,0.4-0.5,0.8-0.7c0.7-0.4,1-0.2,1.2,0.1
							c0.1,0.1,0.2,0.4,0.2,0.6V367.4z M388.5,376.2l4.7-15.5l1.1-0.6l-4.7,15.5L388.5,376.2z M389.3,364.3c-0.5-0.2-0.5,0-0.6,0.1
							c0,0.2,0,3.9,0,3.9c0,0.2,0,0.5,0.3,0.3c0.3-0.2,0.3-0.4,0.3-0.6V364.3z M395.3,371c0,0.6-0.2,1.1-0.6,1.6
							c-0.2,0.3-0.4,0.5-0.8,0.7c-0.7,0.4-1,0.2-1.2,0c-0.1-0.1-0.2-0.4-0.2-0.7v-3.7c0-0.6,0.2-1.1,0.6-1.6
							c0.2-0.3,0.4-0.5,0.8-0.7c0.7-0.4,1-0.2,1.2,0.1c0.1,0.2,0.2,0.4,0.2,0.6V371z M394.2,367.9c-0.5-0.2-0.5,0-0.6,0.1
							c0,0.2,0,3.9,0,3.9c0,0.2,0,0.3,0.1,0.3c0.3-0.1,0.4-0.3,0.5-0.4C394.2,371.6,394.2,367.9,394.2,367.9z"/>
					</g>
				</g>
			</g>
		</g>
		<g>
			<path class="st9" d="M405,264.1c-0.3,0-0.5-0.1-0.7-0.4c-0.2-0.4-0.1-0.9,0.3-1.1l84-48.5c0.4-0.2,0.8-0.1,1.1,0.3
				c0.2,0.4,0.1,0.9-0.3,1.1l-84,48.5C405.3,264,405.2,264.1,405,264.1z"/>
		</g>
		<g>
			<path class="st9" d="M398.5,328.9c-0.3,0-0.5-0.1-0.7-0.4c-0.2-0.4-0.1-0.9,0.3-1.1l117-67.5c0.4-0.2,0.8-0.1,1.1,0.3
				c0.2,0.4,0.1,0.9-0.3,1.1l-117,67.5C398.8,328.8,398.7,328.9,398.5,328.9z"/>
		</g>
		<g>
			<path class="st15" d="M403.5,354.9c-0.3,0-0.5-0.1-0.7-0.4c-0.2-0.4-0.1-0.9,0.3-1.1l32.3-18.6l3.9-14.5c0.1-0.2,0.2-0.4,0.4-0.5
				l47.9-27.7c0.4-0.2,0.8-0.1,1.1,0.3c0.2,0.4,0.1,0.9-0.3,1.1L440.7,321l-3.9,14.5c-0.1,0.2-0.2,0.4-0.4,0.5l-32.6,18.8
				C403.8,354.8,403.7,354.9,403.5,354.9z"/>
		</g>
		<g>
			<path class="st15" d="M404.7,305.7c-0.3,0-0.5-0.1-0.7-0.4c-0.2-0.4-0.1-0.9,0.3-1.1l74.2-42.8c0.4-0.2,0.9-0.1,1.1,0.3
				c0.2,0.4,0.1,0.9-0.3,1.1l-74.2,42.8C404.9,305.6,404.8,305.7,404.7,305.7z"/>
		</g>
		<g>
			<path class="st15" d="M402.3,250.8c-0.3,0-0.5-0.1-0.7-0.4c-0.2-0.4-0.1-0.9,0.3-1.1l38.8-22.4l11.9-44.4
				c0.1-0.2,0.2-0.4,0.4-0.5l10-5.8c0.4-0.2,0.8-0.1,1.1,0.3c0.2,0.4,0.1,0.9-0.3,1.1l-9.7,5.6l-11.9,44.4c-0.1,0.2-0.2,0.4-0.4,0.5
				l-39,22.5C402.6,250.7,402.5,250.8,402.3,250.8z"/>
		</g>
		<g>
			<path class="st9" d="M461,326l-1.2,0.7c-0.6,0.3-1.1,1.1-1.1,1.7v41.7c0,0.4,0.3,0.5,0.7,0.3l1.9-1.1c0.4-0.2,0.7-0.7,0.7-1.1
				v-41.7C462.1,325.9,461.6,325.7,461,326z M461.9,337.9l-3,1.7v-11.3c0-0.5,0.4-1.1,0.9-1.4l1.2-0.7c0.5-0.3,0.9-0.1,0.9,0.4
				V337.9z"/>
			<path class="st9" d="M534.5,283.6l-1.2,0.7c-0.6,0.3-1.1,1.1-1.1,1.7v41.7c0,0.4,0.3,0.5,0.7,0.3l1.9-1.1
				c0.4-0.2,0.7-0.7,0.7-1.1V284C535.6,283.4,535.1,283.2,534.5,283.6z M535.4,298v7.5l-3,1.7v-7.4v-14c0-0.5,0.4-1.1,0.9-1.4
				l1.2-0.7c0.5-0.3,0.9-0.1,0.9,0.4V298z"/>
			<path class="st9" d="M473.3,318.9l-1.2,0.7c-0.6,0.3-1.1,1.1-1.1,1.7V363c0,0.4,0.3,0.5,0.7,0.3l1.9-1.1c0.4-0.2,0.7-0.7,0.7-1.1
				v-41.7C474.3,318.8,473.9,318.6,473.3,318.9z M474.2,333.4v13.2l-3,1.7v-13.1v-14c0-0.5,0.4-1.1,0.9-1.4l1.2-0.7
				c0.5-0.3,0.9-0.1,0.9,0.4V333.4z"/>
			<path class="st9" d="M497.8,304.8l-1.2,0.7c-0.6,0.3-1.1,1.1-1.1,1.7v41.7c0,0.4,0.3,0.5,0.7,0.3l1.9-1.1
				c0.4-0.2,0.7-0.7,0.7-1.1v-41.7C498.8,304.7,498.4,304.5,497.8,304.8z M498.7,319.3v19.6l-3,1.7v-19.5v-14c0-0.5,0.4-1.1,0.9-1.4
				l1.2-0.7c0.5-0.3,0.9-0.1,0.9,0.4V319.3z"/>
			<path class="st9" d="M510,297.7l-1.2,0.7c-0.6,0.3-1.1,1.1-1.1,1.7v41.7c0,0.4,0.3,0.5,0.7,0.3l1.9-1.1c0.4-0.2,0.7-0.7,0.7-1.1
				v-41.7C511.1,297.6,510.6,297.4,510,297.7z M510.9,311.1l-3,1.7V300c0-0.5,0.4-1.1,0.9-1.4l1.2-0.7c0.5-0.3,0.9-0.1,0.9,0.4
				V311.1z"/>
			<path class="st9" d="M522.3,290.7l-1.2,0.7c-0.6,0.3-1.1,1.1-1.1,1.7v41.7c0,0.4,0.3,0.5,0.7,0.3l1.9-1.1
				c0.4-0.2,0.7-0.7,0.7-1.1v-41.7C523.3,290.5,522.9,290.3,522.3,290.7z M523.2,305.1v2.5l-3,1.7V307v-14c0-0.5,0.4-1.1,0.9-1.4
				l1.2-0.7c0.5-0.3,0.9-0.1,0.9,0.4V305.1z"/>
			<path class="st9" d="M485.5,311.9l-1.2,0.7c-0.6,0.3-1.1,1.1-1.1,1.7V356c0,0.4,0.3,0.5,0.7,0.3l1.9-1.1c0.4-0.2,0.7-0.7,0.7-1.1
				v-41.7C486.6,311.7,486.1,311.5,485.5,311.9z M486.4,326.3v10.9l-3,1.7v-10.8v-14c0-0.5,0.4-1.1,0.9-1.4l1.2-0.7
				c0.5-0.3,0.9-0.1,0.9,0.4V326.3z"/>
		</g>
		<path class="st9" d="M493.8,212.1c0,1.5-1.2,3.3-2.7,4.2c-1.5,0.8-2.7,0.3-2.7-1.1c0-1.5,1.2-3.3,2.7-4.2
			C492.6,210.2,493.8,210.7,493.8,212.1z"/>
		<path class="st11" d="M481.5,260.5c0,1.5-1.2,3.3-2.7,4.2c-1.5,0.8-2.7,0.3-2.7-1.1s1.2-3.3,2.7-4.2S481.5,259.1,481.5,260.5z"/>
		<path class="st9" d="M518.2,259c0,1.5-1.2,3.3-2.7,4.2c-1.5,0.8-2.7,0.3-2.7-1.1c0-1.5,1.2-3.3,2.7-4.2
			C517,257.1,518.2,257.6,518.2,259z"/>
		<path class="st11" d="M490.7,291.3c0,1.5-1.2,3.3-2.7,4.2c-1.5,0.8-2.7,0.3-2.7-1.1s1.2-3.3,2.7-4.2
			C489.5,289.3,490.7,289.8,490.7,291.3z"/>
		<path class="st11" d="M467.3,174.7c0,1.5-1.2,3.3-2.7,4.2c-1.5,0.8-2.7,0.3-2.7-1.1c0-1.5,1.2-3.3,2.7-4.2
			C466.1,172.7,467.3,173.2,467.3,174.7z"/>
		<g>
			<polygon class="st11" points="535,95.5 521.1,103.5 521.1,88.6 535,80.5 			"/>
			<polygon class="st9" points="535,118 521.1,126 521.1,111 535,103 			"/>
			<polygon class="st10" points="535,140.5 521.1,148.5 521.1,133.5 535,125.5 			"/>
		</g>
	</g>
</g>
<g id="_x31_6">
	<path class="st16" d="M293.6,227.5c0,0-19.6-41.6-24-49.6l-6.7-25.1c-7.9,3.1-14.8,6.6-22.5,10.1l11.1,28.8l30.9,45.2
		c0.9,3.9,1.2,8.1,2.7,11.8c1.2,2.9,3.1,5.5,5.6,7.5c1.7,1.3,3.9,2.4,6.1,2c2.3-0.4,4.1-2.5,4.8-4.7c0.7-2.2,0.6-4.7,0.4-7
		c-0.4-4.2-1.1-6-2.2-10C298.9,233.4,295.8,229.5,293.6,227.5z"/>
	<path class="st17" d="M271.7,154.9c2.5,7.7-20.8,16.8-31,14.1c0,0-15.1-38.3-14.5-53.6c0.5-13.8,9.8-17.7,17-15.6
		C259.1,104.1,271.7,154.9,271.7,154.9z"/>
	<g>
		<g>
			<path class="st18" d="M238.7,514.9c-0.6,1.4-0.7,7.3,1.9,8.8c5.6,3.4,8.3,4.2,14.6,8.1c4.3,2.7,10.8,8.4,15.8,10
				c5,1.6,12.8,2.9,18.1,2.4c6.9-0.7,12.5-2.7,12.8-10.1c0.2-4.5-3.6-7.6-4.1-7.9c-3.7-2.4-17.9-2.7-25.4-6.1
				c-7.9-3.5-16-6.7-23.6-10.5C245.4,507.8,238.8,513.9,238.7,514.9z"/>
			<path class="st19" d="M240.7,519.3c-4.2-3.4-0.9-8.7-0.4-13c0.3-2.5-0.1-6.5,1.9-8.4c2.7-2.6,8.8-0.8,12.1-0.7
				c2.5,0.1,6.9-0.3,9.1,1c2.4,1.3,2.7,5,4.4,7c4.7,5.3,11.6,7.5,17.7,10.9c6.5,3.6,15.1,8.5,16.2,16.7c0.4,2.7-1.4,5.6-3.9,6.7
				c-8.7,4-20.7,0.9-29.1-3.6c-7-3.6-12.4-9.8-19.7-12.8C246.3,521.9,243.1,521.2,240.7,519.3z"/>
		</g>
		<g>
			<path class="st18" d="M170.8,541.3c-1.7,3.3-2,7.9-1,10.2c6.1,13.8,15.1,30.8,25.5,34.2c9.3,3,19.1,1.3,21.9-3.8
				c2.1-3.7,0.2-11,0.2-11c-1.9-3.7-11.7-7.9-16.3-14.1c-4.9-6.6-13-10.5-19.3-15.7C179.1,538.8,171.1,540.4,170.8,541.3z"/>
			<path class="st19" d="M171.1,548.6c-2.2-7.6,0.6-7.8,0.9-11.4c0.4-4.8,1.1-9.8,2.9-11.4c0.7-0.6,1.7-1.1,2.5-1.4
				c2.8-1.1,5.6-0.6,8.5-0.2c4.3,0.7,7.6,2.2,11.1,5c2.3,1.9,0.7,4,2.3,8.9c1.9,5.7,18.1,24.4,18.7,36.3c0.2,3.5-2.2,6.6-5.6,7.5
				c-4,1.1-9.4,1.4-13.5,0.6C185.9,579.8,171.9,551.4,171.1,548.6z"/>
		</g>
		<g>
			<g>
				<g>
					<path class="st20" d="M244.3,491.5c6.5,1.2,13.6,2.7,19.7,1.2c0.1,2.1,1.1,8.8-2.5,10.8c-3.7,2.1-12.9,2.7-16.2-0.4
						c-2.2-2.1-2-4.6-1.5-7.1C244.1,494.6,244.2,493,244.3,491.5z"/>
				</g>
				<g>
					<path class="st20" d="M176.7,521.1c1.3,0.1,2.6,0.3,3.9,0.6c5.3,1.3,10.4,2.9,15.8,3.5c0,2.3,0.4,6.6-2.1,7.8
						c-4.3,2-8.4,2.5-13,1.4c-2.6-0.7-5.1-2.3-5.8-5.1C175.3,528.4,176.7,521.1,176.7,521.1z"/>
				</g>
				<g>
					<g id="_x32__1_">
						<radialGradient id="SVGID_7_" cx="225.3495" cy="136.1423" r="39.2013" gradientUnits="userSpaceOnUse">
							<stop  offset="0" style="stop-color:#E3E3E3"/>
							<stop  offset="0.3513" style="stop-color:#E9E9E9"/>
							<stop  offset="1" style="stop-color:#EFEFEF"/>
						</radialGradient>
						<path class="st21" d="M174.3,237c8-2,16.4,2.2,24.2,0.3c12.6-5,25.4-9.8,38.1-14.7c5.8-2.2,11.8-4.7,17.8-7.2
							c1.9-18.3,6-32.3,8.3-45.7c1-5.9,0.5-12-1.6-17.6c-0.6-1.8-1.4-3.7-2-5.2c-3.1-7.1-5.3-14.5-6.9-22.1
							c-2.9-14.3-4.7-23.2-11.1-25.2c-3.1-1-5.9,0.5-6.9,1c-1.7,0.8-58.3,30.9-60.6,32.1c-3.4,1.7-7.3,4.8-9.2,7
							c-4.7,5.4,4,39.5,8.4,82.7C174.3,237,174.3,237,174.3,237z"/>
						<path class="st10" d="M269.8,376.3c-1.3-16.3-14.4-108.6-14.9-114.7c-0.4-5.2-0.8-10.2-1-14c-2.5-36.3,5.3-57.7,8.8-78.1
							c1-5.8,0.4-11.8-1.6-17.4c-0.6-1.8-1.4-3.7-2-5.2c-2.2-5-9-34.3-25.6-46c-1.3,0.7-4.3,2.2-8.3,4.4
							c8.8,6.2,17.1,11.1,26.8,49.9c-8.8,6.3-24.8,13.6-40.8,17.1c-7.5-11.3-18.4-35.5-29.9-43.6c-6.4,1.1-10,5.4-10,5.4
							c21.3,7.1,25,46.8,25.4,69.4c0.2,10.7-3.1,22.3-15.6,26.2c-2.6,0.8-5.1,0.9-7.5,0.5c3.1,16.5,0.8,30.7-4.6,52.6
							c-4.6,18.7-9.5,37.3-8.2,56.6c1.5,21.8,3.4,43.8,7.4,68.3c3.5,21.6-4.8,33.5,1.5,59.2c3.6,14.6,7.7,43.1,5.5,58
							c1,3.4,17.4,5.7,21.6,1.6c-0.3-7.6,10.9-87.6,12.6-105.4c1.7-18.8,9.3-75.5,10.1-85.5c2.1,11.2,7.2,33.1,9.5,45
							c1.8,9.1,2.4,18.3,2,27.5c-0.1,2.1-0.2,4.2-0.2,6.2c-0.1,8.2,1.2,16.3,3.6,24.2c4.3,14.4,9.9,42.6,8.5,57.6
							c1.1,5.3,17.7,4.8,21.7,0.5c-0.7-7.6,3.8-98.3,5.1-112.5C269.9,381.4,270,378.9,269.8,376.3z"/>
						<g>
							<path class="st22" d="M195.2,93.3c2-2.8,7.4-1.3,10.6-1.2c5.2,0.3,10.4,0.6,15.5,1.2c1.3,0.2,7.7,0.4,8,2.3
								c0.5,3.3,4.4,10.4,4.6,13.7c0,0,4,16.2-4.5,17.9l0.4,17.3l-6.2-15.1c-11.9,4.7-23.8-4.8-27-7.2c1.7-12-3.4-20-2.4-24.5
								C194.3,97.2,195,93.7,195.2,93.3z"/>
							<path class="st17" d="M233.9,115.2c0,0,3.5,8.2-4.5,12.1c3.6,2.6,9.2,7,12.9,10.3c-0.5-1.1-3.8-16.6-7.2-23.7
								C233.7,111,234.1,113.8,233.9,115.2z"/>
						</g>
					</g>
					<path class="st17" d="M223.5,129.5c0,0-3.7,7.2-7.2,17.8c-19.6-2.8-28.2-15-28-22.4c1.2-3.1,4.3-7.6,8.6-9.9
						C196.5,123.5,210.7,132,223.5,129.5z"/>
				</g>
			</g>
		</g>
	</g>
	<g>
		<path class="st23" d="M209.6,41.2c2.3-2.6,1.9-4.6,0.4-6.4c-1.3-1.5-3.3-1.6-5-2.7c-2.6-1.8-5.3-4.8-8.1-6.3
			c0.1-2.9-1.9-5.7-4.6-8.1c-17.4-14.7-52.3,4-39.5,44.3c3.7,11.6,14.9,30.3,13.8,56c8.4-5.1,15.2-23.8,16.2-32.6
			c1-9-0.5-16.8-0.1-25.8C183,53.8,207.3,43.8,209.6,41.2z"/>
		<path class="st24" d="M211.9,38.8c-1.2-1.8-3.2-3.5-4.9-4.9c-2.6-2.3-5.5-4.7-8.4-7.3c-5.6-5.1-17.1,8.3-13.1,12.9
			c0.6,0.8,7.7,5.8,7.7,5.8c2.2,3.2,14.5,2.8,17.4,0.3C213.5,43.2,213.2,40.9,211.9,38.8z"/>
	</g>
	<g>
		<path class="st20" d="M236.7,112.2c-1.3,4.8-2.8,10.7-7.5,12.2c-5.6,1.8-20.4-5.1-27.5-14.1c-8.3-10.5-12.9-26.3-10-33.8
			c2.1-5.5,11.8-9.9,16.8-13.8c3.6-2.8,7.8-4.6,11.9-6.2c12-4.6,22.5-4.2,22.8,7.9c0.2,6.1,0.3,12.4-0.3,18.4
			C241.2,102.1,238.6,105.2,236.7,112.2z"/>
	</g>
	<path class="st23" d="M245.7,68.9c1.4-14.6-0.7-29.7-19.2-36.7c-17.8-6.7-39.7,1.8-47.8,18.3c-2.2,4.5-2.8,9.7-2.1,14.7
		c3.3,24.5,12,35,22.1,40.7c-2.5-4.6-4.6-9.5-5.6-14.7c-1.5-7.1-1-13,4.7-12c4.5,0.8,4.9,10.4,5,14.9c0,2.8,3.3,3.9,4.1,2
		c2.5-6-1.3-14.4,3.5-19.6c10.1-11,23.7-15,30-13.4c1.3,0.3,2.2,1.5,2.2,2.9c0.2,4.8,0.6,16.3,0.1,19.2
		C242.6,85.2,244.6,79.6,245.7,68.9z"/>
	<g>
		<path class="st25" d="M294.1,255.4l32.3-6.2c0,0,0,2.1-1.5,2.9s-35.1,22.5-35.1,22.5c-1.4,0.9-3,1.1-4.6,0.7l-63.9-16.8
			c-0.6-0.2-1.2-1.5-1-1.9L294.1,255.4z"/>
		<path class="st26" d="M261.2,233.1l64.1,14.8c1.1,0.2,1.4,1.7,0.5,2.3l-35.6,22.5c-1.7,1.1-3.8,1.4-5.8,0.9l-63.6-16.1
			c-0.6-0.2-0.8-1-0.2-1.3l37.4-22.5C259,233.1,260.1,232.9,261.2,233.1z"/>
		<path class="st19" d="M261.9,234.8c0.3-0.2,0.7-0.3,1-0.2c10.7,2.5,61.2,14.4,61.2,14.4c0.4,0.1,0.5,0.6,0.2,0.8l-34.6,21.9
			c-1,0.6-2.2,1-3.4,1c-0.5,0-1-0.1-1.5-0.2l-58.5-15.2c-0.5-0.1-0.6-0.8-0.2-1.1L261.9,234.8z"/>
	</g>
	<path class="st16" d="M175,209.8c-0.6,6.4-0.1,21.5-0.1,21.5s46.2,24.1,49.5,24.6c3.9,0.6,22.6-7.5,24.2-2c0.8,2.9-9.1,5.4-8.2,6.5
		c4.7,3.8,7.8,5.1,18,7.9c-4.6,3.7-12.3,5.2-14.4,5.2c-9.6,0-21.1-4.4-28.7-6.9c-24.2-8-34.3-10.3-52.6-16.9
		c-3.2-1.2-8.7-2.5-10.3-5.3c-2-3.6-4.8-35.7-4.8-35.7L175,209.8z"/>
	<path class="st17" d="M180.7,210.1c-1,4.4-8.4,9.2-16.2,9.7c-11.9,0.9-25.3-4.6-24.4-10.1c0,0,10-62.1,26.2-71.9
		c9.4-5.7,15.3,5.6,18.4,12.2C185.8,176.2,180.7,210.1,180.7,210.1z"/>
	<path class="st16" d="M298.4,247.1c1,2.3,4.3,2.5,4.5,0c0.2-2.8-0.9-9.5-1.4-10.6c-1.2-2.8-5.7-6.8-7.8-9
		c-1.2-1.2-2.3,1.9,0.2,10.2C294.5,239.7,297.3,244.6,298.4,247.1z"/>
	<path class="st27" d="M253.4,163.9c-11.1,8.3-33.1,14.9-33.1,14.9l-0.1,29.1c18.9,1.1,31.4-13.5,31.4-13.5L253.4,163.9z"/>
</g>
<g>
	<path class="st28" d="M276.3,253H50.2c-0.5,0-0.9-0.4-0.9-0.9v-60.6c0-0.5,0.4-0.9,0.9-0.9s0.9,0.4,0.9,0.9v59.7h224.2l-0.2-39.2
		c0-0.3,0.2-0.6,0.5-0.8l75.6-43.6c0.4-0.3,1-0.1,1.3,0.3c0.3,0.4,0.1,1-0.3,1.3l-75.1,43.4l0.2,39.6c0,0.2-0.1,0.5-0.3,0.7
		C276.8,252.9,276.5,253,276.3,253z"/>
</g>
<ellipse class="st28" cx="275.1" cy="253" rx="7.8" ry="4.5"/>
<g>
	<g>
		<g>
			<path class="st28" d="M47.7,193.1c-5,0-9.6-1.2-13.7-3.5c-9.9-5.7-15.3-17.5-15.3-33.4c-0.1-32.4,22.8-72,51-88.3
				c13.9-8,27-9.3,36.9-3.6c9.8,5.7,15.3,17.5,15.3,33.4c0.1,32.4-22.8,72-51,88.3C62.8,190.8,54.9,193.1,47.7,193.1z M92.8,62.8
				c-6.8,0-14.4,2.3-22.3,6.8c-27.7,16-50.1,54.8-50,86.6c0,15.1,5.2,26.4,14.4,31.7c9.3,5.4,21.7,4.1,35-3.6
				c27.7-16,50.1-54.8,50-86.6c0-15.1-5.2-26.4-14.4-31.7C101.8,63.9,97.5,62.8,92.8,62.8z"/>
		</g>
	</g>
</g>
<path class="st28" d="M70.7,138.3c5.1-3,9.3-0.6,9.3,5.3c0,5.9-4.1,13-9.3,16c-5.1,3-9.3,0.6-9.3-5.3
	C61.4,148.5,65.5,141.3,70.7,138.3z M52.4,147.2l4.2,2.4c0.9-8.6,6.8-18.4,14.1-22.6c7.2-4.2,13.2-1.3,14.2,6.1l4.2-7.1
	c-2.6-7.4-9.8-9.7-18.4-4.8C62.1,126.2,54.9,136.9,52.4,147.2z M44.6,142.8l3.8,2.2c3.8-12.1,12.3-23.8,22.3-29.6
	c9.9-5.7,18.4-3.8,22.3,3.7l3.7-6.5c-5-7.9-14.8-9.5-26.1-3C59.3,116.2,49.5,129.2,44.6,142.8z M37.2,138.6l3.7,2.1
	c5.9-15.2,17-29.5,29.7-36.9c12.7-7.3,23.7-5.8,29.8,2.4l3.7-6.3c-7.1-8.6-19.4-10-33.5-1.9C56.5,106.2,44.2,121.8,37.2,138.6z"/>
</svg>
