<?xml version="1.0" encoding="utf-8"?>
<!-- Generator: Adobe Illustrator 24.0.2, SVG Export Plug-In . SVG Version: 6.00 Build 0)  -->
<svg version="1.1" id="Layer_1" xmlns="http://www.w3.org/2000/svg" xmlns:xlink="http://www.w3.org/1999/xlink" x="0px" y="0px"
	 viewBox="0 0 612 792" style="enable-background:new 0 0 612 792;" xml:space="preserve">
<style type="text/css">
	.st0{fill:#E0E0E0;}
	.st1{fill:#27DEBF;}
	.st2{opacity:0.15;}
	.st3{fill:#FFFFFF;}
	.st4{opacity:0.2;}
	.st5{opacity:0.7;fill:#FFFFFF;}
	.st6{opacity:5.000000e-02;}
	.st7{opacity:0.9;fill:#FFFFFF;}
	.st8{opacity:0.75;fill:#FFFFFF;}
	.st9{fill:#455A64;}
	.st10{fill:#FFA8A7;}
	.st11{fill:#37474F;}
	.st12{fill:#263238;}
	.st13{opacity:0.4;}
	.st14{fill:#B16668;}
	.st15{fill:#F28F8F;}
	.st16{fill:#F0F0F0;}
	.st17{opacity:0.1;}
	.st18{fill:#FAFAFA;}
	.st19{opacity:0.5;fill:#FFFFFF;}
</style>
<title>Business_SVG</title>
<path id="Shadow_34_" class="st0" d="M277,656.4l8.9,5.1c1.2,0.7,3,0.7,4.2,0l93-53.6c1.2-0.7,1.2-1.7,0-2.4l-8.9-5.1
	c-1.2-0.7-3-0.7-4.2,0L277,654C275.9,654.6,275.9,655.7,277,656.4z"/>
<path id="Shadow_35_" class="st0" d="M466.2,546.7l8.9,5.1c1.2,0.7,3,0.7,4.2,0l93-53.6c1.2-0.7,1.2-1.7,0-2.4l-8.9-5.1
	c-1.2-0.7-3-0.7-4.2,0l-93,53.6C465.1,545,465.1,546.1,466.2,546.7z"/>
<ellipse id="Shadow_33_" class="st0" cx="177.7" cy="669.4" rx="83.6" ry="48.3"/>
<g id="Plants_5_">
	<g id="XMLID_470_">
		<path id="XMLID_1259_" class="st1" d="M83.3,669c4.4-49.9-4.9-74.8-15.6-93c-8.3-14.2-22.6-26.9-30.7-31.6s-19.2-5.2-26.2-0.3
			c-6.4,4.6-6.1,10-4.6,15.8c2.9,11.2,27.7,28.7,36.4,38c14.8,15.8,27.1,33.7,27.8,77.6L83.3,669z"/>
		<path id="XMLID_818_" class="st2" d="M83.3,669c4.4-49.9-4.9-74.8-15.6-93c-8.3-14.2-22.6-26.9-30.7-31.6s-19.2-5.2-26.2-0.3
			c-6.4,4.6-6.1,10-4.6,15.8c2.9,11.2,27.7,28.7,36.4,38c14.8,15.8,27.1,33.7,27.8,77.6L83.3,669z"/>
		<g>
			<path class="st3" d="M76.6,661.9C76.6,661.9,76.6,661.9,76.6,661.9c-0.5-0.1-0.9-0.5-0.8-1c7.2-61.2-40.2-102.6-55.4-110.1
				c-0.4-0.2-0.6-0.7-0.4-1.2c0.2-0.4,0.7-0.6,1.2-0.4C36.7,557,84.9,599,77.5,661.2C77.5,661.6,77.1,662,76.6,661.9z"/>
		</g>
	</g>
	<g id="XMLID_276_">
		<path id="XMLID_402_" class="st1" d="M75.8,679c-0.4,0.3-3.7,2.2-4.2,2.4c-5.4,2.6-12.9,3-19.7,3.1c-4.5,0.1-10.5,0.2-14.3-2.5
			c-1.9-1.3-3.2-3.7-2.6-6c0.6-2.4,3.3-4.2,3.1-6.7c-5-0.8-10.5,1.4-15.2-0.5c-3.6-1.5-6.1-4.2-8.1-7.5c-1.2-1.9-2.2-4.8-1.5-7
			c0.8-2.6,3.7-3.7,6.3-4.5c0.7-0.2,1.4-0.5,1.9-0.9c0.5-0.5,0.8-1.3,0.6-1.9c-0.3-0.8-1.3-1.1-2.2-1.2c-1.8-0.3-3.7-0.3-5.5-0.6
			c-1.8-0.4-3.7-1.1-4.8-2.5c-1.4-1.7-1.7-4-1.9-6.3c-0.3-3.7-0.5-7.5-0.3-11.3c0-0.9-0.5-9.8-0.8-9.7c8.7-3.6,18.6-4.5,28-4.1
			c5.2,0.2,12.9,1.3,16,6.2c0.9,1.4,1.2,3,1.4,4.6c0.1,0.7-0.1,1.5-0.1,2.2c0,0.5-0.2,2.3,0.8,1.3c0.2-0.2,0.3-0.5,0.4-0.8
			c0.8-2.6,1.6-5.1,2.3-7.7c0.2-0.8,0.5-1.6,1.1-2.1c1.3-1.1,5.2-1.1,9.8,1.4c3,1.7,5.2,4.7,6.5,7.9c2.1,5.1,2.1,10.8,2.1,16.3
			c0.9-1.8,1.8-3.6,2.6-5.4c3.1-6.3,7.3,3.5,7.8,5.7c1.4,5.8,1.8,15,0.3,20.7C83.6,668.3,81,674.4,75.8,679z"/>
		<path id="XMLID_277_" class="st3" d="M74,679.2c-0.3,0-0.5-0.2-0.6-0.5C65.8,655.1,29.8,624,16,619.3c-0.4-0.1-0.6-0.6-0.5-1
			c0.1-0.4,0.6-0.6,1-0.5c14,4.8,50.6,36.4,58.3,60.4c0.1,0.4-0.1,0.8-0.5,0.9C74.3,679.2,74.1,679.2,74,679.2z"/>
		<path class="st3" d="M30.4,657.6c-0.2,0-0.5-0.1-0.6-0.4c-0.2-0.3-0.1-0.8,0.3-1c0.1-0.1,13-6.9,29-2.6c-1.6-11.8,1-21.1,2.6-26.8
			l0.1-0.2c0.1-0.4,0.5-0.6,0.9-0.5c0.4,0.1,0.6,0.5,0.5,0.9l-0.1,0.2c-1.6,5.7-4.2,15.3-2.4,27.2c0,0.2-0.1,0.5-0.2,0.6
			c-0.2,0.2-0.4,0.2-0.7,0.1c-16-4.7-28.9,2.1-29,2.2C30.6,657.6,30.5,657.6,30.4,657.6z"/>
	</g>
</g>
<g id="Plants_8_">
	<g id="XMLID_814_">
		<g id="XMLID_817_">
			<path id="XMLID_819_" class="st1" d="M544.9,457.5c0-18-0.1-36.1,9.4-61.6c8-21.4,28.6-41.3,41.9-40.2c12.4,1,14.9,16.3,3.6,29.7
				c-5.2,6.2-14.4,13.4-22.4,22.9c-9.3,11.1-16.7,26.8-18.2,34.9c-1.5,8.1-2.2,21-2.2,21L544.9,457.5z"/>
			<path id="XMLID_820_" class="st4" d="M544.9,457.5c0-18-0.1-36.1,9.4-61.6c8-21.4,28.6-41.3,41.9-40.2c12.4,1,14.9,16.3,3.6,29.7
				c-5.2,6.2-14.4,13.4-22.4,22.9c-9.3,11.1-16.7,26.8-18.2,34.9c-1.5,8.1-2.2,21-2.2,21L544.9,457.5z"/>
		</g>
		<g id="XMLID_815_">
			<path id="XMLID_816_" class="st3" d="M550.7,451.9c0.3-0.1,0.6-0.4,0.6-0.8c0.6-37.9,26.5-75.3,43.1-85c0.4-0.2,0.5-0.7,0.3-1.1
				c-0.2-0.4-0.7-0.5-1.1-0.3c-16.9,9.9-43.2,47.9-43.9,86.4c0,0.4,0.3,0.8,0.8,0.8C550.6,451.9,550.6,451.9,550.7,451.9z"/>
		</g>
	</g>
	<g id="XMLID_471_">
		<g id="XMLID_805_">
			<path id="XMLID_807_" class="st1" d="M561.5,466.8c0.8-6.3,6.8-17.4,17.5-27.4c11.9-11.1,28-17.7,30.9-25.4
				c3.4-9.2-5.1-16.5-18.7-13.7c-16.3,3.3-34.2,23.8-37.7,61.8L561.5,466.8z"/>
		</g>
		<g id="XMLID_801_">
			<path id="XMLID_802_" class="st3" d="M558,460.8c0.3-0.1,0.5-0.3,0.6-0.6c6.7-33.2,29.1-47.7,40-50.8c0.4-0.1,0.7-0.6,0.6-1
				c-0.1-0.4-0.5-0.7-1-0.6c-12.1,3.4-34.3,18.2-41.1,52c-0.1,0.4,0.2,0.9,0.6,0.9C557.7,460.9,557.9,460.9,558,460.8z"/>
		</g>
	</g>
</g>
<g id="Gears_2_">
	<g id="XMLID_735_">
		<path id="XMLID_794_" class="st1" d="M322.3,77.1L322.3,77.1c-0.3-0.1-0.6-0.1-1,0.2l-2,1.5l-0.4,1.3c-0.2,0.8,0.1,1.7,0.7,2.3
			c0.4,0.3,0.7,0.7,1,1.1c0.5,0.6,1.3,0.8,2,0.3l4.6-3.5c0.3-0.3,0.7-0.3,1-0.2L322.3,77.1z M316,95.2c-0.9-3.8-3.5-5.6-6.7-5.2
			c0.3,0.6,0.6,1.4,0.8,2.2c1.5,6.1-1.9,15.1-7.4,20.1c-2.1,1.8-4.1,2.9-6,3.2c2.2,4,7.1,4.1,11.9-0.2
			C314.2,110.3,317.5,101.3,316,95.2z M314.4,68.8L314.4,68.8c-0.1,0-0.2-0.1-0.4-0.1l-3.7-0.6c-0.8-0.1-1.7,0.4-2,1.1l-3,6.7
			c-0.1,0.3-0.4,0.6-0.7,0.9l0,0c-0.2,0.2-0.4,0.3-0.6,0.4l1.3,3.5c0.3,0.7,1.1,1,1.8,0.7c0.7-0.4,1.5-0.7,2.2-0.9
			c0.4-0.1,0.9-0.4,1.2-0.8c0.3-0.3,0.6-0.6,0.7-0.9l3-6.7c0.3-0.7,1.2-1.2,2-1.1l3.7,0.6c0.1,0,0.3,0.1,0.4,0.1L314.4,68.8z
			 M308.4,132.3c-0.2-0.1-0.3-0.3-0.4-0.5l-1.5-4c-0.3-0.7-1-1-1.8-0.7c-0.7,0.4-1.5,0.7-2.2,0.9c-0.2,0.1-0.5,0.2-0.7,0.3l0.2,0.5
			c0.1,0.3,0.3,0.5,0.5,0.6l0,0L308.4,132.3z M297.5,73.2c-0.1-0.1-0.3-0.1-0.4-0.1c-0.2,0-0.4,0.1-0.6,0.3l-5.2,4.6
			c-0.1,0.1-0.1,0.1-0.2,0.2c-0.1,0.1-0.1,0.1-0.1,0.2c-0.2,0.3-0.3,0.6-0.4,0.9c0,0.1,0,0.1-0.1,0.2l0,0c-0.1,0.3-0.1,0.6-0.1,0.9
			l0.7,5.1c0.1,0.8-0.2,1.9-0.7,2.6c-0.8,1.1-1.6,2.3-2.3,3.5c-0.2,0.4-0.7,0.8-1.1,1c-0.2,0.1-0.3,0.1-0.5,0.2
			c-0.1,0-0.1,0-0.2,0.1c-0.1,0-0.2,0-0.3,0l-3.5,0.1l-0.1,0c-0.1,0-0.2,0-0.3,0c-0.1,0-0.2,0-0.3,0.1c0,0,0,0,0,0
			c-0.1,0-0.2,0.1-0.3,0.1c-0.2,0.1-0.3,0.2-0.5,0.3c-0.2,0.2-0.4,0.5-0.5,0.7l-2.8,7.6c-0.3,0.7,0,1.4,0.7,1.7l4,2
			c0.1,0.3,0.2,0.7,0.2,1c-0.2,1.2-0.3,2.4-0.4,3.5c0,0.8-0.5,1.9-1,2.5l-0.1,0.1l-4.5,4.7c-0.1,0.1-0.2,0.2-0.2,0.3c0,0,0,0,0,0
			c-0.1,0.1-0.1,0.2-0.2,0.3c-0.3,0.6-0.4,1.2-0.2,1.8l1.3,5.2c0.1,0.3,0.2,0.6,0.5,0.7l5.9,2.9c-0.2-0.1-0.4-0.3-0.4-0.7l-1.2-5.2
			c-0.1-0.3-0.1-0.7,0-1c0.1-0.5,0.3-1.1,0.7-1.4l4.5-4.7l0.1-0.1c0.5-0.6,1-1.7,1-2.5c0.1-1.2,0.2-2.3,0.4-3.5
			c0.1-0.8-0.4-1.6-1.1-1.9l-2.9-1c-0.7-0.3-1.1-1.1-0.9-1.8l2.8-7.6c0.1-0.3,0.3-0.5,0.5-0.7c0.4-0.4,0.9-0.6,1.4-0.6l3.5-0.1
			c0.3,0,0.7-0.1,1-0.3c0.5-0.2,0.9-0.6,1.1-1c0.7-1.2,1.5-2.4,2.3-3.5c0.5-0.6,0.8-1.8,0.7-2.6l-0.7-5.1c0-0.3,0-0.6,0.1-0.9
			c0.1-0.6,0.4-1.1,0.8-1.5l5.1-4.6c0.4-0.3,0.7-0.4,1.1-0.2L297.5,73.2z M293,128.6c0.2-0.8-0.1-1.7-0.7-2.3
			c-0.4-0.3-0.7-0.7-1-1.1c-0.5-0.6-1.3-0.8-2-0.3l-2.6,2l-1.6,5.5c-0.2,0.6,0.1,1.2,0.6,1.4l0,0l5.9,2.9c-0.5-0.3-0.8-0.8-0.6-1.4
			L293,128.6z"/>
		<path id="XMLID_786_" class="st5" d="M322.3,77.1L322.3,77.1c-0.3-0.1-0.6-0.1-1,0.2l-2,1.5l-0.4,1.3c-0.2,0.8,0.1,1.7,0.7,2.3
			c0.4,0.3,0.7,0.7,1,1.1c0.5,0.6,1.3,0.8,2,0.3l4.6-3.5c0.3-0.3,0.7-0.3,1-0.2L322.3,77.1z M316,95.2c-0.9-3.8-3.5-5.6-6.7-5.2
			c0.3,0.6,0.6,1.4,0.8,2.2c1.5,6.1-1.9,15.1-7.4,20.1c-2.1,1.8-4.1,2.9-6,3.2c2.2,4,7.1,4.1,11.9-0.2
			C314.2,110.3,317.5,101.3,316,95.2z M314.4,68.8L314.4,68.8c-0.1,0-0.2-0.1-0.4-0.1l-3.7-0.6c-0.8-0.1-1.7,0.4-2,1.1l-3,6.7
			c-0.1,0.3-0.4,0.6-0.7,0.9l0,0c-0.2,0.2-0.4,0.3-0.6,0.4l1.3,3.5c0.3,0.7,1.1,1,1.8,0.7c0.7-0.4,1.5-0.7,2.2-0.9
			c0.4-0.1,0.9-0.4,1.2-0.8c0.3-0.3,0.6-0.6,0.7-0.9l3-6.7c0.3-0.7,1.2-1.2,2-1.1l3.7,0.6c0.1,0,0.3,0.1,0.4,0.1L314.4,68.8z
			 M308.4,132.3c-0.2-0.1-0.3-0.3-0.4-0.5l-1.5-4c-0.3-0.7-1-1-1.8-0.7c-0.7,0.4-1.5,0.7-2.2,0.9c-0.2,0.1-0.5,0.2-0.7,0.3l0.2,0.5
			c0.1,0.3,0.3,0.5,0.5,0.6l0,0L308.4,132.3z M297.5,73.2c-0.1-0.1-0.3-0.1-0.4-0.1c-0.2,0-0.4,0.1-0.6,0.3l-5.2,4.6
			c-0.1,0.1-0.1,0.1-0.2,0.2c-0.1,0.1-0.1,0.1-0.1,0.2c-0.2,0.3-0.3,0.6-0.4,0.9c0,0.1,0,0.1-0.1,0.2l0,0c-0.1,0.3-0.1,0.6-0.1,0.9
			l0.7,5.1c0.1,0.8-0.2,1.9-0.7,2.6c-0.8,1.1-1.6,2.3-2.3,3.5c-0.2,0.4-0.7,0.8-1.1,1c-0.2,0.1-0.3,0.1-0.5,0.2
			c-0.1,0-0.1,0-0.2,0.1c-0.1,0-0.2,0-0.3,0l-3.5,0.1l-0.1,0c-0.1,0-0.2,0-0.3,0c-0.1,0-0.2,0-0.3,0.1c0,0,0,0,0,0
			c-0.1,0-0.2,0.1-0.3,0.1c-0.2,0.1-0.3,0.2-0.5,0.3c-0.2,0.2-0.4,0.5-0.5,0.7l-2.8,7.6c-0.3,0.7,0,1.4,0.7,1.7l4,2
			c0.1,0.3,0.2,0.7,0.2,1c-0.2,1.2-0.3,2.4-0.4,3.5c0,0.8-0.5,1.9-1,2.5l-0.1,0.1l-4.5,4.7c-0.1,0.1-0.2,0.2-0.2,0.3c0,0,0,0,0,0
			c-0.1,0.1-0.1,0.2-0.2,0.3c-0.3,0.6-0.4,1.2-0.2,1.8l1.3,5.2c0.1,0.3,0.2,0.6,0.5,0.7l5.9,2.9c-0.2-0.1-0.4-0.3-0.4-0.7l-1.2-5.2
			c-0.1-0.3-0.1-0.7,0-1c0.1-0.5,0.3-1.1,0.7-1.4l4.5-4.7l0.1-0.1c0.5-0.6,1-1.7,1-2.5c0.1-1.2,0.2-2.3,0.4-3.5
			c0.1-0.8-0.4-1.6-1.1-1.9l-2.9-1c-0.7-0.3-1.1-1.1-0.9-1.8l2.8-7.6c0.1-0.3,0.3-0.5,0.5-0.7c0.4-0.4,0.9-0.6,1.4-0.6l3.5-0.1
			c0.3,0,0.7-0.1,1-0.3c0.5-0.2,0.9-0.6,1.1-1c0.7-1.2,1.5-2.4,2.3-3.5c0.5-0.6,0.8-1.8,0.7-2.6l-0.7-5.1c0-0.3,0-0.6,0.1-0.9
			c0.1-0.6,0.4-1.1,0.8-1.5l5.1-4.6c0.4-0.3,0.7-0.4,1.1-0.2L297.5,73.2z M293,128.6c0.2-0.8-0.1-1.7-0.7-2.3
			c-0.4-0.3-0.7-0.7-1-1.1c-0.5-0.6-1.3-0.8-2-0.3l-2.6,2l-1.6,5.5c-0.2,0.6,0.1,1.2,0.6,1.4l0,0l5.9,2.9c-0.5-0.3-0.8-0.8-0.6-1.4
			L293,128.6z"/>
		<path id="XMLID_785_" class="st6" d="M322.3,77.1L322.3,77.1c-0.3-0.1-0.6-0.1-1,0.2l-2,1.5l-0.4,1.3c-0.2,0.8,0.1,1.7,0.7,2.3
			c0.4,0.3,0.7,0.7,1,1.1c0.5,0.6,1.3,0.8,2,0.3l4.6-3.5c0.3-0.3,0.7-0.3,1-0.2L322.3,77.1z M316,95.2c-0.9-3.8-3.5-5.6-6.7-5.2
			c0.3,0.6,0.6,1.4,0.8,2.2c1.5,6.1-1.9,15.1-7.4,20.1c-2.1,1.8-4.1,2.9-6,3.2c2.2,4,7.1,4.1,11.9-0.2
			C314.2,110.3,317.5,101.3,316,95.2z M314.4,68.8L314.4,68.8c-0.1,0-0.2-0.1-0.4-0.1l-3.7-0.6c-0.8-0.1-1.7,0.4-2,1.1l-3,6.7
			c-0.1,0.3-0.4,0.6-0.7,0.9l0,0c-0.2,0.2-0.4,0.3-0.6,0.4l1.3,3.5c0.3,0.7,1.1,1,1.8,0.7c0.7-0.4,1.5-0.7,2.2-0.9
			c0.4-0.1,0.9-0.4,1.2-0.8c0.3-0.3,0.6-0.6,0.7-0.9l3-6.7c0.3-0.7,1.2-1.2,2-1.1l3.7,0.6c0.1,0,0.3,0.1,0.4,0.1L314.4,68.8z
			 M308.4,132.3c-0.2-0.1-0.3-0.3-0.4-0.5l-1.5-4c-0.3-0.7-1-1-1.8-0.7c-0.7,0.4-1.5,0.7-2.2,0.9c-0.2,0.1-0.5,0.2-0.7,0.3l0.2,0.5
			c0.1,0.3,0.3,0.5,0.5,0.6l0,0L308.4,132.3z M297.5,73.2c-0.1-0.1-0.3-0.1-0.4-0.1c-0.2,0-0.4,0.1-0.6,0.3l-5.2,4.6
			c-0.1,0.1-0.1,0.1-0.2,0.2c-0.1,0.1-0.1,0.1-0.1,0.2c-0.2,0.3-0.3,0.6-0.4,0.9c0,0.1,0,0.1-0.1,0.2l0,0c-0.1,0.3-0.1,0.6-0.1,0.9
			l0.7,5.1c0.1,0.8-0.2,1.9-0.7,2.6c-0.8,1.1-1.6,2.3-2.3,3.5c-0.2,0.4-0.7,0.8-1.1,1c-0.2,0.1-0.3,0.1-0.5,0.2
			c-0.1,0-0.1,0-0.2,0.1c-0.1,0-0.2,0-0.3,0l-3.5,0.1l-0.1,0c-0.1,0-0.2,0-0.3,0c-0.1,0-0.2,0-0.3,0.1c0,0,0,0,0,0
			c-0.1,0-0.2,0.1-0.3,0.1c-0.2,0.1-0.3,0.2-0.5,0.3c-0.2,0.2-0.4,0.5-0.5,0.7l-2.8,7.6c-0.3,0.7,0,1.4,0.7,1.7l4,2
			c0.1,0.3,0.2,0.7,0.2,1c-0.2,1.2-0.3,2.4-0.4,3.5c0,0.8-0.5,1.9-1,2.5l-0.1,0.1l-4.5,4.7c-0.1,0.1-0.2,0.2-0.2,0.3c0,0,0,0,0,0
			c-0.1,0.1-0.1,0.2-0.2,0.3c-0.3,0.6-0.4,1.2-0.2,1.8l1.3,5.2c0.1,0.3,0.2,0.6,0.5,0.7l5.9,2.9c-0.2-0.1-0.4-0.3-0.4-0.7l-1.2-5.2
			c-0.1-0.3-0.1-0.7,0-1c0.1-0.5,0.3-1.1,0.7-1.4l4.5-4.7l0.1-0.1c0.5-0.6,1-1.7,1-2.5c0.1-1.2,0.2-2.3,0.4-3.5
			c0.1-0.8-0.4-1.6-1.1-1.9l-2.9-1c-0.7-0.3-1.1-1.1-0.9-1.8l2.8-7.6c0.1-0.3,0.3-0.5,0.5-0.7c0.4-0.4,0.9-0.6,1.4-0.6l3.5-0.1
			c0.3,0,0.7-0.1,1-0.3c0.5-0.2,0.9-0.6,1.1-1c0.7-1.2,1.5-2.4,2.3-3.5c0.5-0.6,0.8-1.8,0.7-2.6l-0.7-5.1c0-0.3,0-0.6,0.1-0.9
			c0.1-0.6,0.4-1.1,0.8-1.5l5.1-4.6c0.4-0.3,0.7-0.4,1.1-0.2L297.5,73.2z M293,128.6c0.2-0.8-0.1-1.7-0.7-2.3
			c-0.4-0.3-0.7-0.7-1-1.1c-0.5-0.6-1.3-0.8-2-0.3l-2.6,2l-1.6,5.5c-0.2,0.6,0.1,1.2,0.6,1.4l0,0l5.9,2.9c-0.5-0.3-0.8-0.8-0.6-1.4
			L293,128.6z"/>
		<path class="st1" d="M287.1,115.6l-4.5,4.7c-0.3,0.3-0.6,0.9-0.7,1.4l-5.9-2.9c0-0.3,0.1-0.5,0.2-0.8c0-0.1,0.1-0.2,0.2-0.3
			c0,0,0,0,0,0c0.1-0.1,0.1-0.2,0.2-0.3l4.5-4.7L287.1,115.6z"/>
		<path class="st1" d="M292.9,95.6c-0.3,0.2-0.7,0.3-1,0.3l-3.5,0.1c-0.5,0-1,0.3-1.4,0.6l-5.9-2.9c0.1-0.1,0.3-0.2,0.5-0.3
			c0.1-0.1,0.2-0.1,0.3-0.1c0,0,0,0,0,0c0.1,0,0.2-0.1,0.3-0.1c0.1,0,0.2,0,0.3,0l0.1,0l3.5-0.1c0.1,0,0.2,0,0.3,0
			c0.1,0,0.2,0,0.2-0.1c0.1,0,0.3-0.1,0.4-0.2l0,0L292.9,95.6z"/>
		<path id="XMLID_780_" class="st1" d="M328.2,80c-0.3-0.1-0.6-0.1-1,0.2l-4.6,3.5c-0.6,0.5-1.5,0.3-2-0.3c-0.3-0.4-0.7-0.8-1-1.1
			c-0.6-0.5-0.9-1.5-0.7-2.3l0.4-1.3l2-1.5c0.4-0.3,0.7-0.3,1-0.2l0,0L328.2,80z"/>
		<path class="st1" d="M320.3,71.7c-0.1-0.1-0.2-0.1-0.4-0.1l-3.7-0.6c-0.8-0.1-1.7,0.4-2,1.1l-3,6.7c-0.1,0.3-0.4,0.6-0.7,0.9
			l-5.9-2.9c0.3-0.3,0.6-0.6,0.7-0.9l3-6.7c0.3-0.7,1.2-1.2,2-1.1l3.7,0.6c0.1,0,0.3,0.1,0.4,0.1l0,0L320.3,71.7z"/>
		<path class="st1" d="M303.4,76.2c-0.3-0.2-0.7-0.1-1.1,0.2l-5.1,4.6c-0.4,0.3-0.7,0.9-0.8,1.5l-5.9-2.9c0-0.1,0-0.1,0.1-0.2
			c0.1-0.3,0.2-0.6,0.4-0.9c0-0.1,0.1-0.1,0.1-0.2c0.1-0.1,0.1-0.2,0.2-0.2l5.2-4.6c0.2-0.2,0.4-0.3,0.6-0.3c0.1,0,0.3,0,0.4,0.1
			L303.4,76.2z"/>
		<path class="st7" d="M287.1,115.6l-4.5,4.7c-0.3,0.3-0.6,0.9-0.7,1.4l-5.9-2.9c0-0.3,0.1-0.5,0.2-0.8c0-0.1,0.1-0.2,0.2-0.3
			c0,0,0,0,0,0c0.1-0.1,0.1-0.2,0.2-0.3l4.5-4.7L287.1,115.6z"/>
		<path class="st7" d="M292.9,95.6c-0.3,0.2-0.7,0.3-1,0.3l-3.5,0.1c-0.5,0-1,0.3-1.4,0.6l-5.9-2.9c0.1-0.1,0.3-0.2,0.5-0.3
			c0.1-0.1,0.2-0.1,0.3-0.1c0,0,0,0,0,0c0.1,0,0.2-0.1,0.3-0.1c0.1,0,0.2,0,0.3,0l0.1,0l3.5-0.1c0.1,0,0.2,0,0.3,0
			c0.1,0,0.2,0,0.2-0.1c0.1,0,0.3-0.1,0.4-0.2l0,0L292.9,95.6z"/>
		<path id="XMLID_779_" class="st7" d="M328.2,80c-0.3-0.1-0.6-0.1-1,0.2l-4.6,3.5c-0.6,0.5-1.5,0.3-2-0.3c-0.3-0.4-0.7-0.8-1-1.1
			c-0.6-0.5-0.9-1.5-0.7-2.3l0.4-1.3l2-1.5c0.4-0.3,0.7-0.3,1-0.2l0,0L328.2,80z"/>
		<path class="st7" d="M320.3,71.7c-0.1-0.1-0.2-0.1-0.4-0.1l-3.7-0.6c-0.8-0.1-1.7,0.4-2,1.1l-3,6.7c-0.1,0.3-0.4,0.6-0.7,0.9
			l-5.9-2.9c0.3-0.3,0.6-0.6,0.7-0.9l3-6.7c0.3-0.7,1.2-1.2,2-1.1l3.7,0.6c0.1,0,0.3,0.1,0.4,0.1l0,0L320.3,71.7z"/>
		<path class="st7" d="M303.4,76.2c-0.3-0.2-0.7-0.1-1.1,0.2l-5.1,4.6c-0.4,0.3-0.7,0.9-0.8,1.5l-5.9-2.9c0-0.1,0-0.1,0.1-0.2
			c0.1-0.3,0.2-0.6,0.4-0.9c0-0.1,0.1-0.1,0.1-0.2c0.1-0.1,0.1-0.2,0.2-0.2l5.2-4.6c0.2-0.2,0.4-0.3,0.6-0.3c0.1,0,0.3,0,0.4,0.1
			L303.4,76.2z"/>
		<path id="XMLID_758_" class="st1" d="M329.9,85.9l-1.2-5.2c-0.2-0.8-0.8-1-1.5-0.5l-4.6,3.5c-0.6,0.5-1.5,0.3-2-0.3
			c-0.3-0.4-0.7-0.8-1-1.1c-0.6-0.5-0.9-1.5-0.7-2.3l2-6.8c0.2-0.8-0.2-1.5-1-1.6l-3.7-0.6c-0.8-0.1-1.7,0.4-2,1.1l-3,6.7
			c-0.3,0.7-1.2,1.4-2,1.7c-0.7,0.2-1.4,0.5-2.2,0.9c-0.7,0.3-1.5,0.1-1.8-0.7l-1.5-4c-0.3-0.7-1-0.9-1.6-0.4l-5.1,4.6
			c-0.6,0.5-1,1.6-0.9,2.4l0.7,5.1c0.1,0.8-0.2,1.9-0.7,2.6c-0.8,1.1-1.6,2.3-2.3,3.5c-0.4,0.7-1.3,1.3-2.1,1.3l-3.5,0.1
			c-0.8,0-1.6,0.6-1.9,1.4l-2.8,7.6c-0.3,0.7,0.1,1.6,0.9,1.8l2.9,1c0.7,0.3,1.2,1.1,1.1,1.9c-0.2,1.2-0.3,2.4-0.4,3.5
			c0,0.8-0.5,1.9-1,2.5l-4.5,4.7c-0.5,0.6-0.8,1.7-0.7,2.4l1.2,5.2c0.2,0.8,0.8,1,1.5,0.5l4.6-3.5c0.6-0.5,1.5-0.3,2,0.3
			c0.3,0.4,0.7,0.8,1,1.1c0.6,0.5,0.9,1.5,0.7,2.3l-2,6.8c-0.2,0.8,0.2,1.5,1,1.6l3.7,0.6c0.8,0.1,1.7-0.4,2-1.1l3-6.7
			c0.3-0.7,1.2-1.4,2-1.7c0.7-0.2,1.4-0.5,2.2-0.9c0.7-0.3,1.5-0.1,1.8,0.7l1.5,4c0.3,0.7,1,0.9,1.6,0.4l5.1-4.6
			c0.6-0.5,1-1.6,0.9-2.4l-0.7-5.1c-0.1-0.8,0.2-1.9,0.7-2.6c0.8-1.1,1.6-2.3,2.3-3.5c0.4-0.7,1.3-1.3,2.1-1.3l3.5-0.1
			c0.8,0,1.6-0.6,1.9-1.4l2.8-7.6c0.3-0.7-0.1-1.6-0.9-1.8l-2.9-1c-0.7-0.3-1.2-1.1-1.1-1.9c0.2-1.2,0.3-2.4,0.4-3.5
			c0-0.8,0.5-1.9,1-2.5l4.5-4.7C329.8,87.7,330.1,86.6,329.9,85.9z M308.6,115.3c-5.6,5-11.3,4.1-12.8-2c-1.5-6.1,1.9-15.1,7.4-20.1
			c5.6-5,11.3-4.1,12.8,2C317.5,101.3,314.2,110.3,308.6,115.3z"/>
		<path id="XMLID_736_" class="st8" d="M329.9,85.9l-1.2-5.2c-0.2-0.8-0.8-1-1.5-0.5l-4.6,3.5c-0.6,0.5-1.5,0.3-2-0.3
			c-0.3-0.4-0.7-0.8-1-1.1c-0.6-0.5-0.9-1.5-0.7-2.3l2-6.8c0.2-0.8-0.2-1.5-1-1.6l-3.7-0.6c-0.8-0.1-1.7,0.4-2,1.1l-3,6.7
			c-0.3,0.7-1.2,1.4-2,1.7c-0.7,0.2-1.4,0.5-2.2,0.9c-0.7,0.3-1.5,0.1-1.8-0.7l-1.5-4c-0.3-0.7-1-0.9-1.6-0.4l-5.1,4.6
			c-0.6,0.5-1,1.6-0.9,2.4l0.7,5.1c0.1,0.8-0.2,1.9-0.7,2.6c-0.8,1.1-1.6,2.3-2.3,3.5c-0.4,0.7-1.3,1.3-2.1,1.3l-3.5,0.1
			c-0.8,0-1.6,0.6-1.9,1.4l-2.8,7.6c-0.3,0.7,0.1,1.6,0.9,1.8l2.9,1c0.7,0.3,1.2,1.1,1.1,1.9c-0.2,1.2-0.3,2.4-0.4,3.5
			c0,0.8-0.5,1.9-1,2.5l-4.5,4.7c-0.5,0.6-0.8,1.7-0.7,2.4l1.2,5.2c0.2,0.8,0.8,1,1.5,0.5l4.6-3.5c0.6-0.5,1.5-0.3,2,0.3
			c0.3,0.4,0.7,0.8,1,1.1c0.6,0.5,0.9,1.5,0.7,2.3l-2,6.8c-0.2,0.8,0.2,1.5,1,1.6l3.7,0.6c0.8,0.1,1.7-0.4,2-1.1l3-6.7
			c0.3-0.7,1.2-1.4,2-1.7c0.7-0.2,1.4-0.5,2.2-0.9c0.7-0.3,1.5-0.1,1.8,0.7l1.5,4c0.3,0.7,1,0.9,1.6,0.4l5.1-4.6
			c0.6-0.5,1-1.6,0.9-2.4l-0.7-5.1c-0.1-0.8,0.2-1.9,0.7-2.6c0.8-1.1,1.6-2.3,2.3-3.5c0.4-0.7,1.3-1.3,2.1-1.3l3.5-0.1
			c0.8,0,1.6-0.6,1.9-1.4l2.8-7.6c0.3-0.7-0.1-1.6-0.9-1.8l-2.9-1c-0.7-0.3-1.2-1.1-1.1-1.9c0.2-1.2,0.3-2.4,0.4-3.5
			c0-0.8,0.5-1.9,1-2.5l4.5-4.7C329.8,87.7,330.1,86.6,329.9,85.9z M308.6,115.3c-5.6,5-11.3,4.1-12.8-2c-1.5-6.1,1.9-15.1,7.4-20.1
			c5.6-5,11.3-4.1,12.8,2C317.5,101.3,314.2,110.3,308.6,115.3z"/>
	</g>
	<g id="XMLID_651_">
		<path id="XMLID_734_" class="st1" d="M258.9,93.7L258.9,93.7c-0.4-0.2-0.9-0.1-1.4,0.2l-2.7,2.1l-0.5,1.7c-0.3,1,0.2,2.4,1,3.1
			c0.5,0.5,1,0.9,1.4,1.5c0.7,0.8,1.8,1.1,2.7,0.4l6.3-4.8c0.5-0.3,1-0.4,1.3-0.2L258.9,93.7z M250.3,118.6
			c-1.3-5.3-4.9-7.8-9.3-7.1c0.5,0.9,0.8,1.9,1.1,3.1c2,8.4-2.6,20.8-10.2,27.7c-2.8,2.5-5.7,4-8.2,4.4c3,5.5,9.8,5.6,16.4-0.3
			C247.8,139.5,252.4,127.1,250.3,118.6z M248.1,82.3L248.1,82.3c-0.2-0.1-0.3-0.1-0.5-0.2l-5.1-0.8c-1.1-0.2-2.3,0.5-2.7,1.5
			l-4.1,9.3c-0.2,0.4-0.5,0.9-1,1.3l0,0c-0.2,0.2-0.5,0.4-0.8,0.6l1.8,4.8c0.4,1,1.5,1.4,2.4,0.9c1-0.5,2-0.9,3-1.2
			c0.6-0.2,1.2-0.6,1.7-1c0.4-0.4,0.8-0.8,1-1.3l4.1-9.3c0.4-1,1.7-1.7,2.7-1.5l5.1,0.8c0.2,0,0.4,0.1,0.5,0.2L248.1,82.3z
			 M239.8,169.8c-0.2-0.2-0.4-0.4-0.5-0.7l-2.1-5.5c-0.4-1-1.4-1.4-2.4-0.9c-1,0.5-2,0.9-3,1.2c-0.3,0.1-0.6,0.3-0.9,0.5l0.3,0.7
			c0.2,0.4,0.4,0.7,0.7,0.8l0,0L239.8,169.8z M224.8,88.4c-0.2-0.1-0.4-0.1-0.6-0.1c-0.3,0-0.6,0.1-0.9,0.4l-7.1,6.4
			c-0.1,0.1-0.2,0.2-0.3,0.3c-0.1,0.1-0.1,0.2-0.2,0.2c-0.2,0.4-0.4,0.8-0.6,1.2c0,0.1-0.1,0.2-0.1,0.3l0,0
			c-0.1,0.4-0.2,0.9-0.1,1.2l0.9,7.1c0.1,1.1-0.3,2.6-0.9,3.5c-1.1,1.5-2.2,3.2-3.2,4.8c-0.3,0.6-0.9,1.1-1.6,1.4
			c-0.2,0.1-0.4,0.2-0.6,0.2c-0.1,0-0.2,0.1-0.3,0.1c-0.1,0-0.3,0.1-0.4,0.1l-4.8,0.1l-0.1,0c-0.1,0-0.3,0-0.4,0.1
			c-0.1,0-0.2,0.1-0.3,0.1c0,0,0,0,0,0c-0.1,0-0.3,0.1-0.4,0.2c-0.2,0.1-0.5,0.3-0.7,0.5c-0.3,0.3-0.6,0.7-0.7,1l-3.8,10.4
			c-0.3,0.9,0.1,1.9,0.9,2.4l5.5,2.7c0.2,0.4,0.3,0.9,0.2,1.4c-0.3,1.6-0.4,3.3-0.5,4.9c0,1.1-0.6,2.6-1.4,3.4l-0.1,0.1l-6.2,6.5
			c-0.1,0.1-0.2,0.2-0.3,0.4c0,0,0,0,0,0.1c-0.1,0.1-0.2,0.3-0.2,0.4c-0.4,0.8-0.5,1.7-0.3,2.5l1.7,7.1c0.1,0.5,0.3,0.8,0.6,0.9
			l8.1,4c-0.3-0.2-0.5-0.5-0.6-0.9l-1.7-7.1c-0.1-0.4-0.1-0.9,0-1.4c0.1-0.7,0.5-1.5,0.9-2l6.1-6.5l0.1-0.1c0.7-0.8,1.3-2.3,1.4-3.4
			c0.1-1.6,0.2-3.2,0.5-4.9c0.2-1.1-0.5-2.2-1.5-2.6l-4-1.4c-1-0.4-1.6-1.5-1.2-2.5l3.8-10.4c0.1-0.4,0.4-0.7,0.7-1
			c0.5-0.5,1.3-0.8,1.9-0.9l4.8-0.1c0.4,0,0.9-0.1,1.4-0.4c0.6-0.3,1.2-0.8,1.6-1.4c1-1.7,2-3.3,3.2-4.8c0.7-0.9,1.1-2.4,0.9-3.5
			l-0.9-7.1c-0.1-0.4,0-0.8,0.1-1.2c0.2-0.8,0.6-1.6,1.1-2l7.1-6.4c0.5-0.4,1-0.5,1.5-0.3L224.8,88.4z M218.5,164.6
			c0.3-1-0.2-2.4-1-3.1c-0.5-0.5-1-0.9-1.4-1.5c-0.7-0.8-1.8-1.1-2.7-0.4l-3.6,2.7l-2.3,7.6c-0.2,0.8,0.1,1.6,0.8,2l0,0l8.2,4
			c-0.7-0.4-1-1.2-0.8-2L218.5,164.6z"/>
		<path id="XMLID_733_" class="st5" d="M258.9,93.7L258.9,93.7c-0.4-0.2-0.9-0.1-1.4,0.2l-2.7,2.1l-0.5,1.7c-0.3,1,0.2,2.4,1,3.1
			c0.5,0.5,1,0.9,1.4,1.5c0.7,0.8,1.8,1.1,2.7,0.4l6.3-4.8c0.5-0.3,1-0.4,1.3-0.2L258.9,93.7z M250.3,118.6
			c-1.3-5.3-4.9-7.8-9.3-7.1c0.5,0.9,0.8,1.9,1.1,3.1c2,8.4-2.6,20.8-10.2,27.7c-2.8,2.5-5.7,4-8.2,4.4c3,5.5,9.8,5.6,16.4-0.3
			C247.8,139.5,252.4,127.1,250.3,118.6z M248.1,82.3L248.1,82.3c-0.2-0.1-0.3-0.1-0.5-0.2l-5.1-0.8c-1.1-0.2-2.3,0.5-2.7,1.5
			l-4.1,9.3c-0.2,0.4-0.5,0.9-1,1.3l0,0c-0.2,0.2-0.5,0.4-0.8,0.6l1.8,4.8c0.4,1,1.5,1.4,2.4,0.9c1-0.5,2-0.9,3-1.2
			c0.6-0.2,1.2-0.6,1.7-1c0.4-0.4,0.8-0.8,1-1.3l4.1-9.3c0.4-1,1.7-1.7,2.7-1.5l5.1,0.8c0.2,0,0.4,0.1,0.5,0.2L248.1,82.3z
			 M239.8,169.8c-0.2-0.2-0.4-0.4-0.5-0.7l-2.1-5.5c-0.4-1-1.4-1.4-2.4-0.9c-1,0.5-2,0.9-3,1.2c-0.3,0.1-0.6,0.3-0.9,0.5l0.3,0.7
			c0.2,0.4,0.4,0.7,0.7,0.8l0,0L239.8,169.8z M224.8,88.4c-0.2-0.1-0.4-0.1-0.6-0.1c-0.3,0-0.6,0.1-0.9,0.4l-7.1,6.4
			c-0.1,0.1-0.2,0.2-0.3,0.3c-0.1,0.1-0.1,0.2-0.2,0.2c-0.2,0.4-0.4,0.8-0.6,1.2c0,0.1-0.1,0.2-0.1,0.3l0,0
			c-0.1,0.4-0.2,0.9-0.1,1.2l0.9,7.1c0.1,1.1-0.3,2.6-0.9,3.5c-1.1,1.5-2.2,3.2-3.2,4.8c-0.3,0.6-0.9,1.1-1.6,1.4
			c-0.2,0.1-0.4,0.2-0.6,0.2c-0.1,0-0.2,0.1-0.3,0.1c-0.1,0-0.3,0.1-0.4,0.1l-4.8,0.1l-0.1,0c-0.1,0-0.3,0-0.4,0.1
			c-0.1,0-0.2,0.1-0.3,0.1c0,0,0,0,0,0c-0.1,0-0.3,0.1-0.4,0.2c-0.2,0.1-0.5,0.3-0.7,0.5c-0.3,0.3-0.6,0.7-0.7,1l-3.8,10.4
			c-0.3,0.9,0.1,1.9,0.9,2.4l5.5,2.7c0.2,0.4,0.3,0.9,0.2,1.4c-0.3,1.6-0.4,3.3-0.5,4.9c0,1.1-0.6,2.6-1.4,3.4l-0.1,0.1l-6.2,6.5
			c-0.1,0.1-0.2,0.2-0.3,0.4c0,0,0,0,0,0.1c-0.1,0.1-0.2,0.3-0.2,0.4c-0.4,0.8-0.5,1.7-0.3,2.5l1.7,7.1c0.1,0.5,0.3,0.8,0.6,0.9
			l8.1,4c-0.3-0.2-0.5-0.5-0.6-0.9l-1.7-7.1c-0.1-0.4-0.1-0.9,0-1.4c0.1-0.7,0.5-1.5,0.9-2l6.1-6.5l0.1-0.1c0.7-0.8,1.3-2.3,1.4-3.4
			c0.1-1.6,0.2-3.2,0.5-4.9c0.2-1.1-0.5-2.2-1.5-2.6l-4-1.4c-1-0.4-1.6-1.5-1.2-2.5l3.8-10.4c0.1-0.4,0.4-0.7,0.7-1
			c0.5-0.5,1.3-0.8,1.9-0.9l4.8-0.1c0.4,0,0.9-0.1,1.4-0.4c0.6-0.3,1.2-0.8,1.6-1.4c1-1.7,2-3.3,3.2-4.8c0.7-0.9,1.1-2.4,0.9-3.5
			l-0.9-7.1c-0.1-0.4,0-0.8,0.1-1.2c0.2-0.8,0.6-1.6,1.1-2l7.1-6.4c0.5-0.4,1-0.5,1.5-0.3L224.8,88.4z M218.5,164.6
			c0.3-1-0.2-2.4-1-3.1c-0.5-0.5-1-0.9-1.4-1.5c-0.7-0.8-1.8-1.1-2.7-0.4l-3.6,2.7l-2.3,7.6c-0.2,0.8,0.1,1.6,0.8,2l0,0l8.2,4
			c-0.7-0.4-1-1.2-0.8-2L218.5,164.6z"/>
		<path id="XMLID_730_" class="st6" d="M258.9,93.7L258.9,93.7c-0.4-0.2-0.9-0.1-1.4,0.2l-2.7,2.1l-0.5,1.7c-0.3,1,0.2,2.4,1,3.1
			c0.5,0.5,1,0.9,1.4,1.5c0.7,0.8,1.8,1.1,2.7,0.4l6.3-4.8c0.5-0.3,1-0.4,1.3-0.2L258.9,93.7z M250.3,118.6
			c-1.3-5.3-4.9-7.8-9.3-7.1c0.5,0.9,0.8,1.9,1.1,3.1c2,8.4-2.6,20.8-10.2,27.7c-2.8,2.5-5.7,4-8.2,4.4c3,5.5,9.8,5.6,16.4-0.3
			C247.8,139.5,252.4,127.1,250.3,118.6z M248.1,82.3L248.1,82.3c-0.2-0.1-0.3-0.1-0.5-0.2l-5.1-0.8c-1.1-0.2-2.3,0.5-2.7,1.5
			l-4.1,9.3c-0.2,0.4-0.5,0.9-1,1.3l0,0c-0.2,0.2-0.5,0.4-0.8,0.6l1.8,4.8c0.4,1,1.5,1.4,2.4,0.9c1-0.5,2-0.9,3-1.2
			c0.6-0.2,1.2-0.6,1.7-1c0.4-0.4,0.8-0.8,1-1.3l4.1-9.3c0.4-1,1.7-1.7,2.7-1.5l5.1,0.8c0.2,0,0.4,0.1,0.5,0.2L248.1,82.3z
			 M239.8,169.8c-0.2-0.2-0.4-0.4-0.5-0.7l-2.1-5.5c-0.4-1-1.4-1.4-2.4-0.9c-1,0.5-2,0.9-3,1.2c-0.3,0.1-0.6,0.3-0.9,0.5l0.3,0.7
			c0.2,0.4,0.4,0.7,0.7,0.8l0,0L239.8,169.8z M224.8,88.4c-0.2-0.1-0.4-0.1-0.6-0.1c-0.3,0-0.6,0.1-0.9,0.4l-7.1,6.4
			c-0.1,0.1-0.2,0.2-0.3,0.3c-0.1,0.1-0.1,0.2-0.2,0.2c-0.2,0.4-0.4,0.8-0.6,1.2c0,0.1-0.1,0.2-0.1,0.3l0,0
			c-0.1,0.4-0.2,0.9-0.1,1.2l0.9,7.1c0.1,1.1-0.3,2.6-0.9,3.5c-1.1,1.5-2.2,3.2-3.2,4.8c-0.3,0.6-0.9,1.1-1.6,1.4
			c-0.2,0.1-0.4,0.2-0.6,0.2c-0.1,0-0.2,0.1-0.3,0.1c-0.1,0-0.3,0.1-0.4,0.1l-4.8,0.1l-0.1,0c-0.1,0-0.3,0-0.4,0.1
			c-0.1,0-0.2,0.1-0.3,0.1c0,0,0,0,0,0c-0.1,0-0.3,0.1-0.4,0.2c-0.2,0.1-0.5,0.3-0.7,0.5c-0.3,0.3-0.6,0.7-0.7,1l-3.8,10.4
			c-0.3,0.9,0.1,1.9,0.9,2.4l5.5,2.7c0.2,0.4,0.3,0.9,0.2,1.4c-0.3,1.6-0.4,3.3-0.5,4.9c0,1.1-0.6,2.6-1.4,3.4l-0.1,0.1l-6.2,6.5
			c-0.1,0.1-0.2,0.2-0.3,0.4c0,0,0,0,0,0.1c-0.1,0.1-0.2,0.3-0.2,0.4c-0.4,0.8-0.5,1.7-0.3,2.5l1.7,7.1c0.1,0.5,0.3,0.8,0.6,0.9
			l8.1,4c-0.3-0.2-0.5-0.5-0.6-0.9l-1.7-7.1c-0.1-0.4-0.1-0.9,0-1.4c0.1-0.7,0.5-1.5,0.9-2l6.1-6.5l0.1-0.1c0.7-0.8,1.3-2.3,1.4-3.4
			c0.1-1.6,0.2-3.2,0.5-4.9c0.2-1.1-0.5-2.2-1.5-2.6l-4-1.4c-1-0.4-1.6-1.5-1.2-2.5l3.8-10.4c0.1-0.4,0.4-0.7,0.7-1
			c0.5-0.5,1.3-0.8,1.9-0.9l4.8-0.1c0.4,0,0.9-0.1,1.4-0.4c0.6-0.3,1.2-0.8,1.6-1.4c1-1.7,2-3.3,3.2-4.8c0.7-0.9,1.1-2.4,0.9-3.5
			l-0.9-7.1c-0.1-0.4,0-0.8,0.1-1.2c0.2-0.8,0.6-1.6,1.1-2l7.1-6.4c0.5-0.4,1-0.5,1.5-0.3L224.8,88.4z M218.5,164.6
			c0.3-1-0.2-2.4-1-3.1c-0.5-0.5-1-0.9-1.4-1.5c-0.7-0.8-1.8-1.1-2.7-0.4l-3.6,2.7l-2.3,7.6c-0.2,0.8,0.1,1.6,0.8,2l0,0l8.2,4
			c-0.7-0.4-1-1.2-0.8-2L218.5,164.6z"/>
		<path class="st1" d="M210.4,146.7l-6.1,6.5c-0.5,0.5-0.8,1.2-0.9,2l-8.1-4c0.1-0.4,0.2-0.7,0.3-1.1c0.1-0.2,0.1-0.3,0.2-0.4
			c0,0,0,0,0-0.1c0.1-0.1,0.2-0.3,0.3-0.4l6.2-6.5L210.4,146.7z"/>
		<path class="st1" d="M218.4,119.1c-0.4,0.2-0.9,0.4-1.4,0.4l-4.8,0.1c-0.7,0-1.4,0.4-1.9,0.9l-8.2-4c0.2-0.2,0.4-0.3,0.7-0.5
			c0.1-0.1,0.3-0.1,0.4-0.2c0,0,0,0,0,0c0.1,0,0.2-0.1,0.3-0.1c0.1,0,0.3-0.1,0.4-0.1l0.1,0l4.8-0.1c0.1,0,0.3,0,0.4-0.1
			c0.1,0,0.2,0,0.3-0.1c0.2-0.1,0.4-0.2,0.6-0.3l0,0L218.4,119.1z"/>
		<path id="XMLID_727_" class="st1" d="M267.1,97.7c-0.4-0.2-0.9-0.1-1.3,0.2l-6.3,4.8c-0.9,0.6-2,0.4-2.7-0.4
			c-0.4-0.5-0.9-1-1.4-1.5c-0.8-0.7-1.3-2.1-1-3.1l0.5-1.7l2.7-2.1c0.5-0.4,1-0.4,1.4-0.2l0,0L267.1,97.7z"/>
		<path class="st1" d="M256.2,86.3c-0.1-0.1-0.3-0.1-0.5-0.2l-5.1-0.8c-1.1-0.2-2.3,0.5-2.7,1.5l-4.1,9.3c-0.2,0.4-0.6,0.9-1,1.3
			l-8.2-4c0.4-0.4,0.8-0.8,1-1.3l4.1-9.3c0.4-1,1.7-1.7,2.7-1.5l5.1,0.8c0.2,0,0.4,0.1,0.5,0.2l0,0L256.2,86.3z"/>
		<path class="st1" d="M232.9,92.4c-0.4-0.2-1-0.1-1.5,0.3l-7.1,6.4c-0.5,0.5-0.9,1.2-1.1,2l-8.2-4c0-0.1,0.1-0.2,0.1-0.3
			c0.1-0.4,0.3-0.9,0.6-1.2c0.1-0.1,0.1-0.2,0.2-0.2c0.1-0.1,0.2-0.2,0.3-0.3l7.1-6.4c0.3-0.3,0.6-0.4,0.9-0.4c0.2,0,0.4,0,0.6,0.1
			L232.9,92.4z"/>
		<path class="st7" d="M210.4,146.7l-6.1,6.5c-0.5,0.5-0.8,1.2-0.9,2l-8.1-4c0.1-0.4,0.2-0.7,0.3-1.1c0.1-0.2,0.1-0.3,0.2-0.4
			c0,0,0,0,0-0.1c0.1-0.1,0.2-0.3,0.3-0.4l6.2-6.5L210.4,146.7z"/>
		<path class="st7" d="M218.4,119.1c-0.4,0.2-0.9,0.4-1.4,0.4l-4.8,0.1c-0.7,0-1.4,0.4-1.9,0.9l-8.2-4c0.2-0.2,0.4-0.3,0.7-0.5
			c0.1-0.1,0.3-0.1,0.4-0.2c0,0,0,0,0,0c0.1,0,0.2-0.1,0.3-0.1c0.1,0,0.3-0.1,0.4-0.1l0.1,0l4.8-0.1c0.1,0,0.3,0,0.4-0.1
			c0.1,0,0.2,0,0.3-0.1c0.2-0.1,0.4-0.2,0.6-0.3l0,0L218.4,119.1z"/>
		<path id="XMLID_725_" class="st7" d="M267.1,97.7c-0.4-0.2-0.9-0.1-1.3,0.2l-6.3,4.8c-0.9,0.6-2,0.4-2.7-0.4
			c-0.4-0.5-0.9-1-1.4-1.5c-0.8-0.7-1.3-2.1-1-3.1l0.5-1.7l2.7-2.1c0.5-0.4,1-0.4,1.4-0.2l0,0L267.1,97.7z"/>
		<path class="st7" d="M256.2,86.3c-0.1-0.1-0.3-0.1-0.5-0.2l-5.1-0.8c-1.1-0.2-2.3,0.5-2.7,1.5l-4.1,9.3c-0.2,0.4-0.6,0.9-1,1.3
			l-8.2-4c0.4-0.4,0.8-0.8,1-1.3l4.1-9.3c0.4-1,1.7-1.7,2.7-1.5l5.1,0.8c0.2,0,0.4,0.1,0.5,0.2l0,0L256.2,86.3z"/>
		<path class="st7" d="M232.9,92.4c-0.4-0.2-1-0.1-1.5,0.3l-7.1,6.4c-0.5,0.5-0.9,1.2-1.1,2l-8.2-4c0-0.1,0.1-0.2,0.1-0.3
			c0.1-0.4,0.3-0.9,0.6-1.2c0.1-0.1,0.1-0.2,0.2-0.2c0.1-0.1,0.2-0.2,0.3-0.3l7.1-6.4c0.3-0.3,0.6-0.4,0.9-0.4c0.2,0,0.4,0,0.6,0.1
			L232.9,92.4z"/>
		<path id="XMLID_712_" class="st1" d="M269.5,105.8l-1.7-7.1c-0.3-1.1-1.2-1.4-2-0.7l-6.3,4.8c-0.9,0.7-2,0.4-2.7-0.4
			c-0.4-0.5-0.9-1-1.4-1.5c-0.8-0.7-1.3-2.1-1-3.1l2.8-9.4c0.3-1-0.3-2-1.4-2.2l-5.1-0.8c-1.1-0.2-2.3,0.5-2.7,1.5l-4.1,9.2
			c-0.4,1-1.7,2-2.7,2.3c-1,0.3-2,0.7-3,1.2c-1,0.5-2,0.1-2.4-0.9l-2.1-5.5c-0.4-1-1.3-1.3-2.2-0.5l-7.1,6.4
			c-0.8,0.7-1.3,2.2-1.2,3.3l0.9,7.1c0.1,1.1-0.3,2.6-0.9,3.5c-1.1,1.5-2.2,3.2-3.2,4.8c-0.6,0.9-1.9,1.7-2.9,1.7l-4.8,0.1
			c-1.1,0-2.3,0.9-2.6,1.9l-3.8,10.4c-0.4,1,0.2,2.1,1.2,2.5l4,1.4c1,0.4,1.7,1.5,1.5,2.6c-0.3,1.7-0.4,3.3-0.5,4.9
			c-0.1,1.1-0.7,2.6-1.4,3.4l-6.2,6.5c-0.7,0.8-1.2,2.3-0.9,3.3l1.7,7.1c0.3,1.1,1.2,1.4,2,0.7l6.3-4.8c0.9-0.7,2-0.4,2.7,0.4
			c0.4,0.5,0.9,1,1.4,1.5c0.8,0.7,1.3,2.1,1,3.1l-2.8,9.4c-0.3,1,0.3,2,1.4,2.2l5.1,0.8c1.1,0.2,2.3-0.5,2.7-1.5l4.1-9.2
			c0.4-1,1.7-2,2.7-2.3c1-0.3,2-0.7,3-1.2c1-0.5,2-0.1,2.4,0.9l2.1,5.5c0.4,1,1.3,1.3,2.2,0.5l7.1-6.4c0.8-0.7,1.3-2.2,1.2-3.3
			l-0.9-7.1c-0.1-1.1,0.3-2.6,0.9-3.5c1.1-1.5,2.2-3.2,3.2-4.8c0.6-0.9,1.9-1.7,2.9-1.7l4.8-0.1c1.1,0,2.3-0.9,2.6-1.9l3.8-10.4
			c0.4-1-0.2-2.1-1.2-2.5l-4-1.4c-1-0.4-1.7-1.5-1.5-2.6c0.3-1.7,0.4-3.3,0.5-4.9c0.1-1.1,0.7-2.6,1.4-3.4l6.2-6.5
			C269.3,108.3,269.7,106.8,269.5,105.8z M240.1,146.4c-7.7,6.9-15.6,5.7-17.6-2.7c-2-8.4,2.6-20.8,10.2-27.7
			c7.7-6.9,15.5-5.7,17.6,2.7C252.4,127.1,247.8,139.5,240.1,146.4z"/>
		<path id="XMLID_655_" class="st8" d="M269.5,105.8l-1.7-7.1c-0.3-1.1-1.2-1.4-2-0.7l-6.3,4.8c-0.9,0.7-2,0.4-2.7-0.4
			c-0.4-0.5-0.9-1-1.4-1.5c-0.8-0.7-1.3-2.1-1-3.1l2.8-9.4c0.3-1-0.3-2-1.4-2.2l-5.1-0.8c-1.1-0.2-2.3,0.5-2.7,1.5l-4.1,9.2
			c-0.4,1-1.7,2-2.7,2.3c-1,0.3-2,0.7-3,1.2c-1,0.5-2,0.1-2.4-0.9l-2.1-5.5c-0.4-1-1.3-1.3-2.2-0.5l-7.1,6.4
			c-0.8,0.7-1.3,2.2-1.2,3.3l0.9,7.1c0.1,1.1-0.3,2.6-0.9,3.5c-1.1,1.5-2.2,3.2-3.2,4.8c-0.6,0.9-1.9,1.7-2.9,1.7l-4.8,0.1
			c-1.1,0-2.3,0.9-2.6,1.9l-3.8,10.4c-0.4,1,0.2,2.1,1.2,2.5l4,1.4c1,0.4,1.7,1.5,1.5,2.6c-0.3,1.7-0.4,3.3-0.5,4.9
			c-0.1,1.1-0.7,2.6-1.4,3.4l-6.2,6.5c-0.7,0.8-1.2,2.3-0.9,3.3l1.7,7.1c0.3,1.1,1.2,1.4,2,0.7l6.3-4.8c0.9-0.7,2-0.4,2.7,0.4
			c0.4,0.5,0.9,1,1.4,1.5c0.8,0.7,1.3,2.1,1,3.1l-2.8,9.4c-0.3,1,0.3,2,1.4,2.2l5.1,0.8c1.1,0.2,2.3-0.5,2.7-1.5l4.1-9.2
			c0.4-1,1.7-2,2.7-2.3c1-0.3,2-0.7,3-1.2c1-0.5,2-0.1,2.4,0.9l2.1,5.5c0.4,1,1.3,1.3,2.2,0.5l7.1-6.4c0.8-0.7,1.3-2.2,1.2-3.3
			l-0.9-7.1c-0.1-1.1,0.3-2.6,0.9-3.5c1.1-1.5,2.2-3.2,3.2-4.8c0.6-0.9,1.9-1.7,2.9-1.7l4.8-0.1c1.1,0,2.3-0.9,2.6-1.9l3.8-10.4
			c0.4-1-0.2-2.1-1.2-2.5l-4-1.4c-1-0.4-1.7-1.5-1.5-2.6c0.3-1.7,0.4-3.3,0.5-4.9c0.1-1.1,0.7-2.6,1.4-3.4l6.2-6.5
			C269.3,108.3,269.7,106.8,269.5,105.8z M240.1,146.4c-7.7,6.9-15.6,5.7-17.6-2.7c-2-8.4,2.6-20.8,10.2-27.7
			c7.7-6.9,15.5-5.7,17.6,2.7C252.4,127.1,247.8,139.5,240.1,146.4z"/>
	</g>
</g>
<g id="Lines">
	<g>
		<g>
			<path class="st9" d="M379.3,239.4c-0.4,0-0.7-0.1-1.1-0.3c-0.8-0.4-1.2-1.3-1.2-2.4c0-2.1,1.4-4.6,3.3-5.7c1-0.6,2-0.6,2.7-0.2
				c0.8,0.4,1.2,1.3,1.2,2.4c0,2.1-1.4,4.6-3.3,5.7C380.4,239.3,379.8,239.4,379.3,239.4z M382,231.7c-0.3,0-0.7,0.1-1,0.3
				c-1.4,0.8-2.7,3-2.7,4.6c0,0.7,0.2,1.2,0.6,1.4c0.4,0.2,0.9,0.1,1.5-0.2c1.4-0.8,2.7-2.9,2.7-4.6c0-0.7-0.2-1.2-0.6-1.4
				C382.3,231.8,382.1,231.7,382,231.7z"/>
		</g>
		<g>
			<path class="st9" d="M420.9,215.4c-0.4,0-0.7-0.1-1.1-0.3c-0.8-0.4-1.2-1.3-1.2-2.4c0-2.1,1.4-4.6,3.3-5.7v0
				c1-0.6,1.9-0.6,2.7-0.2c0.8,0.4,1.2,1.3,1.2,2.4c0,2.1-1.4,4.6-3.3,5.7C421.9,215.3,421.4,215.4,420.9,215.4z M423.5,207.7
				c-0.3,0-0.7,0.1-1,0.3l0,0c-1.4,0.8-2.7,3-2.7,4.6c0,0.7,0.2,1.2,0.6,1.4c0.4,0.2,0.9,0.1,1.5-0.2c1.4-0.8,2.7-3,2.7-4.6
				c0-0.7-0.2-1.2-0.6-1.4C423.9,207.8,423.7,207.7,423.5,207.7z"/>
		</g>
		<g>
			<path class="st9" d="M383.6,233.9c-0.2,0-0.4-0.1-0.5-0.3c-0.2-0.3-0.1-0.7,0.2-0.8l35.6-20.6c0.3-0.2,0.7-0.1,0.8,0.2
				c0.2,0.3,0.1,0.7-0.2,0.8l-35.6,20.6C383.8,233.8,383.7,233.9,383.6,233.9z"/>
		</g>
	</g>
	<g>
		<g>
			<path class="st9" d="M327.9,365.1c-0.4,0-0.7-0.1-1.1-0.3c-0.8-0.4-1.2-1.3-1.2-2.4c0-2.1,1.4-4.6,3.3-5.7v0
				c1-0.6,1.9-0.6,2.7-0.2c0.8,0.4,1.2,1.3,1.2,2.4c0,2.1-1.4,4.6-3.3,5.7C329,364.9,328.5,365.1,327.9,365.1z M330.6,357.4
				c-0.3,0-0.7,0.1-1,0.3l0,0c-1.4,0.8-2.7,3-2.7,4.6c0,0.7,0.2,1.2,0.6,1.4c0.4,0.2,0.9,0.1,1.5-0.2c1.4-0.8,2.7-3,2.7-4.6
				c0-0.7-0.2-1.2-0.6-1.4C330.9,357.4,330.8,357.4,330.6,357.4z"/>
		</g>
		<g>
			<path class="st9" d="M378.4,476.6c-0.4,0-0.7-0.1-1.1-0.3c-0.8-0.4-1.2-1.3-1.2-2.4c0-2.1,1.4-4.6,3.3-5.7v0
				c1-0.6,1.9-0.6,2.7-0.2c0.8,0.4,1.2,1.3,1.2,2.4c0,2.1-1.4,4.6-3.3,5.7C379.5,476.4,378.9,476.6,378.4,476.6z M381.1,468.9
				c-0.3,0-0.7,0.1-1,0.3l0,0c-1.4,0.8-2.7,3-2.7,4.6c0,0.7,0.2,1.2,0.6,1.4c0.4,0.2,0.9,0.1,1.5-0.2c1.4-0.8,2.7-2.9,2.7-4.6
				c0-0.7-0.2-1.2-0.6-1.4C381.4,468.9,381.2,468.9,381.1,468.9z"/>
		</g>
		<g>
			<path class="st9" d="M455.6,432c-0.4,0-0.7-0.1-1.1-0.3c-0.8-0.4-1.2-1.3-1.2-2.4c0-2.1,1.4-4.6,3.3-5.7l0,0
				c1-0.6,1.9-0.6,2.7-0.2c0.8,0.4,1.2,1.3,1.2,2.4c0,2.1-1.4,4.6-3.3,5.7C456.7,431.8,456.1,432,455.6,432z M457.2,424.6
				c-1.4,0.8-2.7,3-2.7,4.6c0,0.7,0.2,1.2,0.6,1.4c0.4,0.2,0.9,0.1,1.5-0.2c1.4-0.8,2.7-2.9,2.7-4.6c0-0.7-0.2-1.2-0.6-1.4
				C458.4,424.2,457.8,424.3,457.2,424.6L457.2,424.6z"/>
		</g>
		<g>
			<path class="st9" d="M329.3,375c-0.1,0-0.2,0-0.3-0.1c-0.2-0.1-0.3-0.3-0.3-0.5v-10.3c0-0.3,0.3-0.6,0.6-0.6s0.6,0.3,0.6,0.6v9.2
				l88.1-50.9c0.2-0.1,0.4-0.1,0.6,0c0.2,0.1,0.3,0.3,0.3,0.5v44.6c0,0.3-0.3,0.6-0.6,0.6s-0.6-0.3-0.6-0.6V324l-88.1,50.9
				C329.5,374.9,329.4,375,329.3,375z"/>
		</g>
		<g>
			<path class="st9" d="M418.3,395.6c-0.2,0-0.3-0.1-0.4-0.2l-8.9-8.6c-0.2-0.2-0.2-0.5-0.1-0.7l8.9-18.8c0.1-0.2,0.2-0.3,0.4-0.3
				c0.2,0,0.4,0,0.5,0.2l8.9,8.5c0.2,0.2,0.2,0.5,0.1,0.7l-8.9,18.9c-0.1,0.2-0.2,0.3-0.4,0.3C418.4,395.6,418.4,395.6,418.3,395.6z
				 M410.2,386.2l8,7.7l8.3-17.7l-8-7.7L410.2,386.2z"/>
		</g>
		<g>
			<path class="st9" d="M388.6,419.6c-0.3,0-0.6-0.3-0.6-0.6v-20.6c0-0.2,0.1-0.4,0.3-0.5l20.8-12.1c0.3-0.2,0.7-0.1,0.8,0.2
				c0.2,0.3,0.1,0.7-0.2,0.8l-20.5,11.9V419C389.2,419.3,389,419.6,388.6,419.6z"/>
		</g>
		<path class="st1" d="M382.9,425.7l11.5-6.6c1.7-1,3.2-0.2,3.2,1.8v3c0,2-1.4,4.5-3.2,5.5l-11.5,6.6c-1.7,1-3.2,0.2-3.2-1.8v-3
			C379.7,429.2,381.2,426.7,382.9,425.7z"/>
		<path class="st1" d="M442.3,391.5l11.5-6.6c1.7-1,3.2-0.2,3.2,1.8v3c0,2-1.4,4.5-3.2,5.5l-11.5,6.6c-1.7,1-3.2,0.2-3.2-1.8v-3
			C439.1,395,440.5,392.5,442.3,391.5z"/>
		<g>
			<path class="st9" d="M382.7,471c-0.2,0-0.4-0.1-0.5-0.3c-0.2-0.3-0.1-0.7,0.2-0.8l5.6-3.3v-30.2c0-0.3,0.3-0.6,0.6-0.6
				c0.3,0,0.6,0.3,0.6,0.6V467c0,0.2-0.1,0.4-0.3,0.5l-5.9,3.4C382.9,471,382.8,471,382.7,471z"/>
		</g>
		<g>
			<path class="st9" d="M448,385.3c-0.3,0-0.6-0.3-0.6-0.6v-19.5l-19.9,11.5c-0.3,0.2-0.7,0.1-0.8-0.2c-0.2-0.3-0.1-0.7,0.2-0.8
				l20.8-12c0.2-0.1,0.4-0.1,0.6,0c0.2,0.1,0.3,0.3,0.3,0.5v20.6C448.6,385,448.4,385.3,448,385.3z"/>
		</g>
		<g>
			<path class="st9" d="M448,433.3c-0.1,0-0.2,0-0.3-0.1c-0.2-0.1-0.3-0.3-0.3-0.5v-30.9c0-0.3,0.3-0.6,0.6-0.6
				c0.3,0,0.6,0.3,0.6,0.6v29.8l5-2.9c0.3-0.2,0.7-0.1,0.8,0.2c0.2,0.3,0.1,0.7-0.2,0.8l-5.9,3.4C448.2,433.3,448.1,433.3,448,433.3
				z"/>
		</g>
	</g>
	<g>
		<g>
			<path class="st9" d="M532.8,219.4c-0.4,0-0.7-0.1-1.1-0.3c-0.8-0.4-1.2-1.3-1.2-2.4c0-2.1,1.4-4.6,3.3-5.7l0,0
				c1-0.6,2-0.6,2.7-0.2c0.8,0.4,1.2,1.3,1.2,2.4c0,2.1-1.4,4.6-3.3,5.7C533.9,219.2,533.3,219.4,532.8,219.4z M534.4,212
				c-1.4,0.8-2.7,3-2.7,4.6c0,0.7,0.2,1.2,0.6,1.4c0.4,0.2,0.9,0.1,1.5-0.2c1.4-0.8,2.7-2.9,2.7-4.6c0-0.7-0.2-1.2-0.6-1.4
				C535.6,211.6,535,211.7,534.4,212L534.4,212z"/>
		</g>
		<g>
			<path class="st9" d="M568.4,68.5c-0.4,0-0.7-0.1-1.1-0.3c-0.8-0.4-1.2-1.3-1.2-2.4c0-2.1,1.4-4.6,3.3-5.7c1-0.6,2-0.6,2.7-0.2
				c0.8,0.4,1.2,1.3,1.2,2.4c0,2.1-1.4,4.6-3.3,5.7C569.5,68.3,568.9,68.5,568.4,68.5z M571.1,60.8c-0.3,0-0.7,0.1-1,0.3
				c-1.4,0.8-2.7,2.9-2.7,4.6c0,0.7,0.2,1.2,0.6,1.4c0.4,0.2,0.9,0.1,1.5-0.2c1.4-0.8,2.7-2.9,2.7-4.6c0-0.7-0.2-1.2-0.6-1.4
				C571.4,60.9,571.3,60.8,571.1,60.8z"/>
		</g>
		<g>
			<path class="st9" d="M568.4,102.9c-0.4,0-0.7-0.1-1.1-0.3c-0.8-0.4-1.2-1.3-1.2-2.4c0-2.1,1.4-4.6,3.3-5.7c1-0.6,2-0.6,2.7-0.2
				c0.8,0.4,1.2,1.3,1.2,2.4c0,2.1-1.4,4.6-3.3,5.7C569.5,102.7,568.9,102.9,568.4,102.9z M571.1,95.2c-0.3,0-0.7,0.1-1,0.3
				c-1.4,0.8-2.7,3-2.7,4.6c0,0.7,0.2,1.2,0.6,1.4c0.4,0.2,0.9,0.1,1.5-0.2c1.4-0.8,2.7-2.9,2.7-4.6c0-0.7-0.2-1.2-0.6-1.4
				C571.4,95.3,571.3,95.2,571.1,95.2z"/>
		</g>
		<g>
			<path class="st9" d="M568.4,137.3c-0.4,0-0.7-0.1-1.1-0.3c-0.8-0.4-1.2-1.3-1.2-2.4c0-2.1,1.4-4.6,3.3-5.7c1-0.6,2-0.6,2.7-0.2
				c0.8,0.4,1.2,1.3,1.2,2.4c0,2.1-1.4,4.6-3.3,5.7C569.5,137.1,568.9,137.3,568.4,137.3z M571.1,129.6c-0.3,0-0.7,0.1-1,0.3
				c-1.4,0.8-2.7,3-2.7,4.6c0,0.7,0.2,1.2,0.6,1.4c0.4,0.2,0.9,0.1,1.5-0.2c1.4-0.8,2.7-3,2.7-4.6c0-0.7-0.2-1.2-0.6-1.4
				C571.4,129.6,571.3,129.6,571.1,129.6z"/>
		</g>
		<g>
			<path class="st9" d="M568.4,171.7c-0.4,0-0.7-0.1-1.1-0.3c-0.8-0.4-1.2-1.3-1.2-2.4c0-2.1,1.4-4.6,3.3-5.7c1-0.6,2-0.6,2.7-0.2
				c0.8,0.4,1.2,1.3,1.2,2.4c0,2.1-1.4,4.6-3.3,5.7C569.5,171.5,568.9,171.7,568.4,171.7z M571.1,164c-0.3,0-0.7,0.1-1,0.3
				c-1.4,0.8-2.7,3-2.7,4.6c0,0.7,0.2,1.2,0.6,1.4c0.4,0.2,0.9,0.1,1.5-0.2c1.4-0.8,2.7-3,2.7-4.6c0-0.7-0.2-1.2-0.6-1.4
				C571.4,164,571.3,164,571.1,164z"/>
		</g>
		<g>
			<path class="st9" d="M537.1,213.8c-0.2,0-0.4-0.1-0.5-0.3c-0.2-0.3-0.1-0.7,0.2-0.8l11.6-6.7l0-129.9c0-0.2,0.1-0.4,0.3-0.5
				l17.8-10.3c0.3-0.2,0.7-0.1,0.8,0.2c0.2,0.3,0.1,0.7-0.2,0.8l-17.5,10.1l0,129.9c0,0.2-0.1,0.4-0.3,0.5l-11.9,6.9
				C537.3,213.8,537.2,213.8,537.1,213.8z"/>
		</g>
		<g>
			<path class="st9" d="M549,111c-0.2,0-0.4-0.1-0.5-0.3c-0.2-0.3-0.1-0.7,0.2-0.8l17.8-10.3c0.3-0.2,0.7-0.1,0.8,0.2
				c0.2,0.3,0.1,0.7-0.2,0.8l-17.8,10.3C549.2,110.9,549.1,111,549,111z"/>
		</g>
		<g>
			<path class="st9" d="M549,145.3c-0.2,0-0.4-0.1-0.5-0.3c-0.2-0.3-0.1-0.7,0.2-0.8l17.8-10.3c0.3-0.2,0.7-0.1,0.8,0.2
				c0.2,0.3,0.1,0.7-0.2,0.8l-17.8,10.3C549.2,145.3,549.1,145.3,549,145.3z"/>
		</g>
		<g>
			<path class="st9" d="M549,179.6c-0.2,0-0.4-0.1-0.5-0.3c-0.2-0.3-0.1-0.7,0.2-0.8l17.8-10.3c0.3-0.2,0.7-0.1,0.8,0.2
				c0.2,0.3,0.1,0.7-0.2,0.8l-17.8,10.3C549.2,179.6,549.1,179.6,549,179.6z"/>
		</g>
	</g>
	<g>
		<g>
			<path class="st9" d="M197.3,482.5c-0.2,0-0.4-0.1-0.5-0.3c-0.2-0.3-0.1-0.7,0.2-0.8l39-22.5V262.7c0-0.2,0.1-0.4,0.3-0.5
				l26.2-15.1c0.3-0.2,0.7-0.1,0.8,0.2c0.2,0.3,0.1,0.7-0.2,0.8l-25.9,14.9v196.2c0,0.2-0.1,0.4-0.3,0.5l-39.3,22.7
				C197.5,482.5,197.4,482.5,197.3,482.5z"/>
		</g>
		<g>
			<path class="st9" d="M264.4,250.3c-0.4,0-0.7-0.1-1.1-0.3c-0.8-0.4-1.2-1.3-1.2-2.4c0-2.1,1.4-4.6,3.3-5.7l0,0
				c1-0.6,2-0.6,2.7-0.2c0.8,0.4,1.2,1.3,1.2,2.4c0,2.1-1.4,4.6-3.3,5.7C265.5,250.2,265,250.3,264.4,250.3z M266.1,243
				c-1.4,0.8-2.7,3-2.7,4.6c0,0.7,0.2,1.2,0.6,1.4c0.4,0.2,0.9,0.1,1.5-0.2c1.4-0.8,2.7-3,2.7-4.6c0-0.7-0.2-1.2-0.6-1.4
				C267.2,242.6,266.7,242.6,266.1,243L266.1,243z"/>
		</g>
		<g>
			<path class="st9" d="M193,488.1c-0.4,0-0.7-0.1-1.1-0.3c-0.8-0.4-1.2-1.3-1.2-2.4c0-2.1,1.4-4.6,3.3-5.7c1-0.6,2-0.6,2.7-0.2
				c0.8,0.4,1.2,1.3,1.2,2.4c0,2.1-1.4,4.6-3.3,5.7C194.1,487.9,193.6,488.1,193,488.1z M195.7,480.4c-0.3,0-0.7,0.1-1,0.3
				c-1.4,0.8-2.7,3-2.7,4.6c0,0.7,0.2,1.2,0.6,1.4c0.4,0.2,0.9,0.1,1.5-0.2c1.4-0.8,2.7-3,2.7-4.6c0-0.7-0.2-1.2-0.6-1.4
				C196,480.4,195.9,480.4,195.7,480.4z"/>
		</g>
	</g>
</g>
<g id="Character_1_">
	<g id="XMLID_657_">
		<path class="st10" d="M136.6,640.5c0,0-2.4-50.4,0.2-69.6c2.3-16.5,5.4-24,5.9-27.7c0,0,2.6-38.8,2.9-71.7
			c0.2-15.8,1.6-27.1,10.3-46l54.6,12.4c1.1,8.4,6.2,65,7.1,114.5c0.8,43.3-0.4,81.3-0.4,81.3l-0.1,2.3c0,2.5,0.6,4.3,2.2,8.4
			c1.6,4.1,4.7,10,8.7,14.3c1.1,1.2,9.1,8.2,10.2,9.7c3.4,4-3.7,6.2-8.9,5.5c-5.6-0.7-14.2-2.9-16.6-6.2c-1.6-2.3-2.9-10.1-4.5-12.4
			c-5.7-7.7-8-11-8-13.5c-0.1-4.4,1.5-6.2,2-8.7c-0.5-5.2-11.8-48.4-12-63.7c-0.1-7.3,0.4-17.3,0.4-17.3l-8.8-50.4
			c-3.4,12.6-9.6,36.1-11.6,48.1c-2.5,14.7-10.8,57.4-16,76.8c-2,7.3-2.9,10.5-3.5,15.3c0,0-0.2,1.7-0.2,1.7
			c-0.1,2.2-1.1,25.4-1.9,30.2c-1.8,10.2-10.9,8.9-12.3,0.7c-1.2-7,0.3-28.8,0.3-31.5L136.6,640.5z"/>
		<path id="XMLID_702_" class="st11" d="M136.6,640.5c-2.6,0-0.9,10-1.5,16.3c-0.7,6.8-2.9,11.8-3.6,17.4c-0.7,6.4-0.2,9.1,2.1,14.4
			c1.8,4.1,10.8,9.7,14.2,3.9c3.4-5.9,4.1-12.5,3.8-18.9c-0.4-6.6-0.8-11.4-0.9-16.4c-0.1-4.4,3.3-14.8,0-15.4l-0.2,1.7
			c-1.2,2.4-12.6,4-13.9-0.6L136.6,640.5z"/>
		<g id="XMLID_670_">
			<g id="XMLID_671_">
				<path id="XMLID_701_" class="st12" d="M199.5,647.1c-0.8,3.2,0,12,0,12s1.4,3,6.3,5l2.2-12.2L199.5,647.1z"/>
				<polygon id="XMLID_700_" points="205.8,664.1 216.7,660.5 219.3,650.8 207.1,657 				"/>
				<path id="XMLID_681_" class="st11" d="M217.1,635.9l0.1-2.3c1.5,0.7,4.7,12.6,9.1,20.8c4,7.4,12,11.6,14.5,14.8
					c3.5,4.3-3.3,9.9-14,7.6c-5.3-1.1-13.4-4.6-15.6-8.2c-2.2-3.6-2.9-10.2-4.7-12.9c-1.8-2.7-6.1-5.7-7-8.7c-0.5-1.7-0.9-5.3,0-8.3
					c0.8-2.7,1.6-6.1,2.5-5.8l0.1,2.1c0.7,1.5,3.3,3.2,8.8,3.5C213.4,638.7,216,638.3,217.1,635.9z"/>
			</g>
		</g>
		<path class="st1" d="M209.8,431.1c0,0,6.7,48.1,7.9,84.4c1.2,36.3,0.1,83.1,0.1,83.1s-3.7,2.7-12,3c-8.2,0.4-11.1-2.4-11.1-2.4
			s-5-16.4-5.8-28c-0.8-11.6,0-18.8,0-18.8l-7.4-48.4c0,0-8.8,45.9-9.9,51.7c-1.1,5.8-11.1,47.2-11.1,47.2s-6.6,4.7-14.5,3.6
			c-7.9-1.1-11.1-4.8-11.1-4.8s-0.4-21.1,1.1-32.8c1.5-11.7,5.4-20.6,5.9-28.3c0.5-7.6,0.2-48.5,1.1-65.1c1-18.6,1.4-22.6,9.7-45.5
			L209.8,431.1z"/>
		<path class="st13" d="M209.8,431.1c0,0,6.7,48.1,7.9,84.4c1.2,36.3,0.1,83.1,0.1,83.1s-3.7,2.7-12,3c-8.2,0.4-11.1-2.4-11.1-2.4
			s-5-16.4-5.8-28c-0.8-11.6,0-18.8,0-18.8l-7.4-48.4c0,0-8.8,45.9-9.9,51.7c-1.1,5.8-11.1,47.2-11.1,47.2s-6.6,4.7-14.5,3.6
			c-7.9-1.1-11.1-4.8-11.1-4.8s-0.4-21.1,1.1-32.8c1.5-11.7,5.4-20.6,5.9-28.3c0.5-7.6,0.2-48.5,1.1-65.1c1-18.6,1.4-22.6,9.7-45.5
			L209.8,431.1z"/>
		<path class="st2" d="M181.5,503.9l6.1-30.3c0,0,10.7-2.8,15.7-9.3c0,0-1.4,7.2-12.4,11.9l-6.5,30.2l2.2,31.2L181.5,503.9z"/>
	</g>
	<g>
		<path class="st10" d="M285.8,321.9c-5.7-7.8-8.4-6.3-10.7,1.7c-1.6,5.5-4.4,11.6-4.4,11.6c-0.4-2.4-1.5-5.4-2.1-6.6
			c-1.2-2.3-3.4-2.7-4.3-2.3c-0.7,0.3,0.2,2.8,0,5.8c-0.2,3.8-0.9,6.4-0.1,10.4c0.3,1.5-0.1,5.3-0.9,6.7
			c-4.3,7.6-19.8,29.1-19.8,29.1c-3-1.8-12.7-7.2-25.7-13.6c-11.2-5.5-12.3-6.4-20.1-6.7l-0.4,21.7c12.7,5.4,22.8,10.7,43.4,18.3
			c6.4,2.4,11.6,2.8,14.9-2.2c3.2-4.8,13.1-21.4,20.1-33.9c3.9-7,7.4-14.3,9.3-18C291.6,331,287.8,324.7,285.8,321.9z"/>
		<path id="XMLID_652_" class="st9" d="M172.4,357.9c0,0-17.5,2.2-17.5,2.2c2.8,16.8-3.2,31.6-3.2,31.6l5.8,26.2
			c-0.2,3.1-5.6,11-9.7,23.5c9.2,12.4,49.2,15,64,4.2c-1.2-14.1-2.4-21.4-2.8-25.8l0.3-16.9c18.5-15.2-3.2-37.5-11.4-44.9H190
			L172.4,357.9z"/>
		<path class="st10" d="M55.3,381.6c0.3-0.7,1.1-1.2,1.9-1.3c0.8-0.1,1.6,0.1,2.3,0.3c4.6,1,9.3,1.5,14,1.6c1.2,0,2.7-0.1,3.4-1.2
			c0.8-1.3-0.2-2.9-0.8-4.3c-0.7-1.6-0.9-3.3-0.5-5c0.2-1,1.1-2.9,2.3-1.4c0.6,0.7,2,2.7,5.9,6c3.9,3.3,5.2,6.1,9,9.3
			c1.4,1.2,19.4,13.7,30.9,19.4c13.8-22.3,20.6-44.2,31.3-45c5.7,5.5,5.4,24.3-0.6,33.3c-6.4,9.7-14.4,21.5-19.7,27.6
			c-4.1,4.7-9.8,7.6-17.5,2.4c-9.9-6.6-19-14.2-23.3-17.5c-2.7-2.1-5.8-4.9-9-6.3c-1.7-0.8-3.3-1.4-5.1-1.5c-2-0.2-4.1-0.3-6.1-0.4
			c-3.1-0.2-6.2-0.7-9.2-1.5c-1.4-0.4-2.9-0.9-3.9-2c-0.8-0.8-1.2-1.8-1.6-2.8c-0.3-0.9-1-1.6-1.3-2.5c-0.5-1.3-0.6-2.8,0.2-3.9
			c-0.7-0.4-1.4-0.8-1.9-1.4C55.3,383.1,55,382.3,55.3,381.6z"/>
	</g>
	<g id="XMLID_523_">
		<path class="st12" d="M170.6,352.8c-0.1-2.8-9.5-10.6-14.2-17.8c-4.4-6.6-9.5-23.8,4.1-31.5c-0.3-11.1,5.4-14.4,14.1-17.4
			c6.9-2.4,20.8-2.1,31,3.1c3.8,1.9,6.2,4.3,7.9,7.8c1.4,2.9,0.8,5.6,0.2,7.8c-0.6,1.9-0.1,2.1,1,3.6c0.9,1.2,1.3,2.6,1.1,4
			c-0.4,3.1-3.4,3.9-3.7,5.4c-0.4,1.5,1.6,2.4,2.6,1.3c0,0-0.3,2.7-3.7,2.5c-3.3-0.2-6.3-4.7-6.3-4.7L170.6,352.8z"/>
		<path id="XMLID_650_" class="st10" d="M201,302.6c4.3,1.9,8.4,8.4,8.3,26.7c-0.1,15.5-4.8,19.5-7.2,20.6
			c-2.4,1.2-7.1,0.6-11.7-0.1l0,8.9c0,0,4.6,6.9,2.4,12.8c-19.1-3.3-22.1-13.3-22.1-13.3l-0.3-20.4c0,0-3.5,2.4-7.2-0.4
			c-4.1-3-5.2-9.1-2.3-12.2c2.9-3.1,6.5-3.4,9.9,0.1c0,0,6.9,1,16.1-4.8C196.1,314.7,200.1,308.6,201,302.6z"/>
		<g id="XMLID_630_">
			<path id="XMLID_635_" class="st12" d="M201.4,324.1c0,1.2,0.8,2.2,2,2.2c1.1,0,2.1-0.9,2.1-2.1c0-1.2-0.8-2.2-2-2.2
				C202.4,322,201.4,322.9,201.4,324.1z"/>
		</g>
		<g id="XMLID_543_">
			<path id="XMLID_574_" class="st12" d="M185,325c0,1.3,0.9,2.3,2.1,2.4c1.2,0,2.2-1,2.3-2.2c0-1.3-0.9-2.3-2.1-2.4
				C186,322.8,185,323.7,185,325z"/>
		</g>
		<path id="XMLID_541_" class="st14" d="M187.6,337.2l7.5,2.3c-0.6,2.2-2.7,3.5-4.8,2.9C188.2,341.7,187,339.4,187.6,337.2z"/>
		<path class="st15" d="M191.8,342.5c0-2-1.7-3.7-3.7-3.7c-0.2,0-0.4,0-0.6,0.1c0.2,1.6,1.3,3,2.8,3.5
			C190.8,342.5,191.3,342.5,191.8,342.5z"/>
		<path id="XMLID_540_" class="st12" d="M206.9,320.3l-5.3-2.1c0.5-1.5,2.2-2.2,3.7-1.6C206.7,317.1,207.3,318.7,206.9,320.3z"/>
		<path id="XMLID_539_" class="st12" d="M170.7,322.9l0.1,8.6c2.3,0.1,4.2-1.8,4.2-4.2C174.9,325,173,323,170.7,322.9z"/>
		<polygon id="XMLID_529_" class="st15" points="194.5,322.9 196.1,335.5 201.7,332.8 		"/>
		<path id="XMLID_526_" class="st15" d="M190.4,349.9c-4.8-0.6-14.7-3.3-16.3-7.4c0,0,0.6,2.5,3.6,5.1c3,2.6,12.8,5.2,12.8,5.2
			L190.4,349.9z"/>
	</g>
</g>
<g id="Window_14_">
	<g>
		<g>
			<path class="st0" d="M364.4,123.5c-1.4-0.8-3.3-0.7-5.4,0.5l0,0l-15.2,8.8c-1.8,1-2.9,3.6-2.9,5.6s0,8.9,0,9.7
				c0,2.8-2.1,6.4-4.7,7.9l-28.6,16.8c0-1.7,0-3.8,0-5.6c0-1.2-0.5-2-1.2-2.5c-1-0.6-6.4-3.7-7.1-4.1c-1-0.6-2.4-0.5-3.7,0.3
				l-4.7,2.6l-1.1,0.6l-7.6,4.4c-0.4,0.2-0.8,0.5-1.2,0.8c-0.2,0.2-0.4,0.3-0.6,0.5c-2.5,2.3-4.3,6-4.3,9.1v187.9v2.5
				c0,1.9,0.7,3.3,1.8,3.9c1.1,0.6,6,3.5,7.1,4.1c1.1,0.6,2.6,0.5,4.3-0.4l78.7-45.4c3.3-1.9,6.1-6.6,6.1-10.5V132.6
				c0-2.4-0.9-4.2-2.3-5C370.2,126.9,365.6,124.3,364.4,123.5z"/>
			<path class="st16" d="M306,164.6c-1-0.4-2.3-0.3-3.5,0.4l-4.7,2.6l-1.1,0.6l-7.6,4.4c-0.4,0.2-0.8,0.5-1.2,0.8
				c-0.2,0.2-0.4,0.3-0.6,0.5c-0.8,0.8-1.6,1.7-2.2,2.7l-7.1-4.1c0.6-1,1.4-2,2.2-2.7c0.2-0.2,0.4-0.4,0.6-0.5
				c0.4-0.3,0.8-0.6,1.2-0.8l7.6-4.4l1.1-0.6l4.7-2.6c1.3-0.7,2.8-0.8,3.7-0.3C299.8,161,304.6,163.8,306,164.6z"/>
			<path class="st16" d="M371.5,127.7c-1.4-0.8-3.3-0.7-5.4,0.5l-15.2,8.8c-0.9,0.5-1.6,1.4-2.1,2.4l-7.1-4.1c0.5-1,1.2-1.9,2.1-2.4
				l15.2-8.8c2.1-1.2,4-1.3,5.4-0.5C365.6,124.3,370.2,126.9,371.5,127.7z"/>
			<path class="st17" d="M348.8,139.3c-0.5,1-0.8,2.2-0.8,3.2v9.7c0,1.9-0.9,4.1-2.3,5.8l-7.1-4.1c1.4-1.7,2.3-3.9,2.3-5.8v-9.7
				c0-1,0.3-2.2,0.8-3.2L348.8,139.3z"/>
		</g>
		<g>
			<path class="st18" d="M366.1,128.2L366.1,128.2l-15.2,8.8c-1.8,1-2.9,3.6-2.9,5.6c0,1.9,0,8.9,0,9.7c0,2.8-2.1,6.4-4.7,7.9
				l-31,18.2c-2.6,1.5-4.7,0.4-4.7-2.4c0-0.5,0-5.3,0-8.7c0-2.8-2.6-3.5-5-2.2l-4.7,2.6l-1.1,0.6l-7.6,4.4c-0.4,0.2-0.8,0.5-1.2,0.8
				c-0.2,0.2-0.4,0.3-0.6,0.5c-2.5,2.3-4.3,6-4.3,9.1V371v2.5c0,3.9,2.7,5.4,6.1,3.5l78.7-45.4c3.3-1.9,6.1-6.6,6.1-10.5V132.6
				C373.7,127.7,370.3,125.7,366.1,128.2z"/>
			<path class="st0" d="M369.5,128.6c2.6,0,2.8,3.1,2.8,4v188.5c0,3.3-2.4,7.6-5.3,9.2l-78.7,45.4c-0.7,0.4-1.4,0.6-2,0.6
				c-1.7,0-1.9-2-1.9-2.9V371V183.2c0-2.7,1.6-6,3.8-8.1l0.2-0.2c0.1-0.1,0.2-0.2,0.3-0.3c0.3-0.3,0.7-0.5,1-0.7l7.6-4.4l1.1-0.6
				l4.7-2.6c0.5-0.3,1.1-0.5,1.6-0.5c0.8,0,1.2,0.4,1.2,1.4v8.7c0,2.7,1.6,4.5,4,4.5c1,0,1.9-0.3,3-0.9l31-18.1
				c3.1-1.8,5.5-5.8,5.5-9.1v-9.7c0-1.5,0.9-3.5,2.2-4.3l15.2-8.8C367.8,128.9,368.7,128.6,369.5,128.6 M369.5,127.1
				c-1,0-2.2,0.3-3.4,1l-15.2,8.8c-1.8,1-2.9,3.6-2.9,5.6c0,1.9,0,8.9,0,9.7c0,2.8-2.1,6.4-4.7,7.9l-31,18.2
				c-0.8,0.5-1.6,0.7-2.2,0.7c-1.5,0-2.5-1.1-2.5-3.1c0-0.5,0-5.3,0-8.7c0-1.9-1.2-2.8-2.7-2.8c-0.7,0-1.5,0.2-2.3,0.6l-4.7,2.6
				l-1.1,0.6l-7.6,4.4c-0.4,0.2-0.8,0.5-1.2,0.8c-0.2,0.2-0.4,0.3-0.6,0.5c-2.5,2.3-4.3,6-4.3,9.1V371v2.5c0,2.7,1.4,4.3,3.4,4.3
				c0.8,0,1.7-0.3,2.7-0.8l78.7-45.4c3.3-1.9,6.1-6.6,6.1-10.5V132.6C373.7,129.1,372,127.1,369.5,127.1L369.5,127.1z"/>
		</g>
	</g>
	<g>
		<g>
			<polygon class="st1" points="293.6,202.9 364.9,161.8 364.9,230.4 293.6,271.5 			"/>
		</g>
		<polygon class="st4" points="293.6,271.5 293.6,244.1 317.4,213.2 347.1,230.4 341,224.2 352.4,207 364.9,217.5 364.9,230.4 		"/>
		<path class="st4" d="M341.3,191c3.2-1.8,5.8-0.3,5.8,3.3c0,3.7-2.6,8.2-5.8,10c-3.2,1.8-5.8,0.3-5.8-3.3
			C335.6,197.4,338.2,192.9,341.3,191z"/>
	</g>
	<g>
		<g>
			<path class="st1" d="M299.6,274.9c3.3-1.9,5.9-0.4,5.9,3.4s-2.7,8.4-5.9,10.3c-3.3,1.9-5.9,0.4-5.9-3.4
				C293.6,281.4,296.3,276.8,299.6,274.9z"/>
		</g>
		<path class="st9" d="M313.3,267l31.9-18.4c1-0.6,1.9-0.1,1.9,1.1l0,0.6c0,1.2-0.9,2.7-1.9,3.3L313.3,272c-1,0.6-1.9,0.1-1.9-1.1
			l0-0.6C311.4,269,312.3,267.6,313.3,267z"/>
		<path class="st1" d="M312.8,277.3l48.8-28.1c0.8-0.4,1.4-0.1,1.4,0.8l0,0.5c0,0.9-0.6,2-1.4,2.4L312.8,281
			c-0.8,0.4-1.4,0.1-1.4-0.8l0-0.5C311.4,278.8,312.1,277.8,312.8,277.3z"/>
	</g>
	<g>
		<g>
			<path class="st1" d="M295.1,360.1c-0.1,0-0.1,0-0.2,0c-0.1-0.1-0.2-0.2-0.2-0.3V353l-1.7,1c-0.1,0.1-0.3,0.1-0.4-0.1
				c-0.1-0.1-0.1-0.3-0.1-0.4l6.7-11.5c0.1-0.2,0.3-0.2,0.5-0.1l6.7,3.7c0.1,0.1,0.2,0.2,0.2,0.3c0,0.1-0.1,0.3-0.2,0.3l-2.1,1.2
				l0,7.2c0,0.1-0.1,0.3-0.2,0.3l-8.9,5.1C295.2,360.1,295.2,360.1,295.1,360.1z M295.1,352c0.1,0,0.1,0,0.2,0
				c0.1,0.1,0.2,0.2,0.2,0.3v6.8l8.2-4.7l0-7.2c0-0.1,0.1-0.3,0.2-0.3l1.7-1l-5.9-3.2l-5.9,10l1.1-0.6C295,352,295.1,352,295.1,352z
				"/>
		</g>
		<g>
			<g>
				<path class="st1" d="M359,323.3C359,323.3,358.9,323.3,359,323.3l-1.4-0.3c-1-0.2-4.4-1.2-4.8-6c-0.2-2.5,1-5.6,2.7-6.9
					c0.8-0.6,1.6-0.8,2.3-0.5c0.5,0.2,0.8,0.5,1.1,1c0.6-2.1,1.9-3.8,3.2-4.3c0.7-0.3,1.4-0.2,1.9,0.2c0.9,0.6,1.3,2.1,1.1,3.8
					c-0.4,4.8-3.5,9.5-4.5,10.9l-1.3,1.9C359.2,323.2,359.1,323.3,359,323.3z M357.1,310.3c-0.4,0-0.8,0.2-1.2,0.5
					c-1.5,1.2-2.6,4-2.4,6.2c0.4,4.2,3.3,5.1,4.2,5.3l1.1,0.2l1.2-1.7c0.9-1.3,4-5.9,4.4-10.5c0.1-1.5-0.2-2.7-0.9-3.1
					c-0.3-0.3-0.7-0.3-1.2-0.1c-1.3,0.5-2.6,2.6-3,4.9c0,0,0,0.1,0,0.1c0,0.1,0,0.2-0.1,0.2c0,0.1-0.2,0.2-0.3,0.2c0,0,0,0,0,0
					c-0.2,0-0.3-0.1-0.4-0.3c-0.1-1-0.5-1.6-1.1-1.8C357.4,310.3,357.2,310.3,357.1,310.3z"/>
			</g>
		</g>
		<g>
			<g>
				<path class="st1" d="M324.4,343.2c-0.1,0-0.1,0-0.2,0c-0.1-0.1-0.2-0.2-0.2-0.3v-2c0-2.4,1.5-5.1,3.2-6.2l1.7-1
					c0.9-0.5,1.7-0.6,2.4-0.2c0.8,0.5,1.2,1.5,1.2,2.8v2c0,0.1-0.1,0.3-0.2,0.3l-7.9,4.5C324.6,343.2,324.5,343.2,324.4,343.2z
					 M330.5,334c-0.3,0-0.7,0.1-1,0.3l0,0l-1.7,1c-1.6,0.9-2.9,3.4-2.9,5.5v1.3l7.1-4.1v-1.8c0-1.1-0.3-1.8-0.9-2.2
					C330.9,334,330.7,334,330.5,334z M329.2,334L329.2,334L329.2,334z"/>
			</g>
			<g>
				<path class="st1" d="M327.3,332.6c-0.3,0-0.6-0.1-0.9-0.2c-0.7-0.4-1.1-1.3-1.1-2.4c0-2.1,1.2-4.4,2.8-5.3
					c0.7-0.4,1.5-0.5,2.1-0.1c0.7,0.4,1.1,1.3,1.1,2.4c0,2.1-1.2,4.4-2.8,5.3C328.1,332.5,327.7,332.6,327.3,332.6z M329.4,325
					c-0.3,0-0.6,0.1-0.9,0.3c-1.3,0.8-2.4,2.9-2.4,4.7c0,0.9,0.3,1.5,0.7,1.8c0.5,0.3,1,0.1,1.3-0.1c1.3-0.8,2.4-2.9,2.4-4.7
					c0-0.9-0.3-1.5-0.7-1.8C329.7,325,329.6,325,329.4,325z"/>
			</g>
		</g>
	</g>
	<g>
		<path class="st1" d="M361.7,262.1l-64.9,37.5c-1.7,1-3.2,3.5-3.2,5.5v6.4c0,2,1.4,2.8,3.2,1.8l64.9-37.5c1.7-1,3.2-3.5,3.2-5.5
			l0-6.4C364.9,261.9,363.5,261.1,361.7,262.1z"/>
		<path class="st19" d="M361.7,262.1l-64.9,37.5c-1.7,1-3.2,3.5-3.2,5.5v6.4c0,2,1.4,2.8,3.2,1.8l64.9-37.5c1.7-1,3.2-3.5,3.2-5.5
			l0-6.4C364.9,261.9,363.5,261.1,361.7,262.1z"/>
	</g>
	<g>
		<path class="st1" d="M361.7,282.7l-64.9,37.5c-1.7,1-3.2,3.5-3.2,5.5v6.4c0,2,1.4,2.8,3.2,1.8l64.9-37.5c1.7-1,3.2-3.5,3.2-5.5
			l0-6.4C364.9,282.5,363.5,281.7,361.7,282.7z"/>
		<path class="st5" d="M361.7,282.7l-64.9,37.5c-1.7,1-3.2,3.5-3.2,5.5v6.4c0,2,1.4,2.8,3.2,1.8l64.9-37.5c1.7-1,3.2-3.5,3.2-5.5
			l0-6.4C364.9,282.5,363.5,281.7,361.7,282.7z"/>
	</g>
</g>
<g id="Window_6_">
	<g>
		<g>
			<path class="st0" d="M517.5,35.1c-1.4-0.8-3.3-0.7-5.4,0.5l0,0l-15.2,8.8c-1.8,1-2.9,3.6-2.9,5.6s0,8.9,0,9.7
				c0,2.8-2.1,6.4-4.7,7.9l-28.6,16.8c0-1.7,0-3.8,0-5.6c0-1.2-0.5-2-1.2-2.5c-1-0.6-6.4-3.7-7.1-4.1c-1-0.6-2.4-0.5-3.7,0.3
				l-4.7,2.6l-1.1,0.6l-7.6,4.4c-0.4,0.2-0.8,0.5-1.2,0.8c-0.2,0.2-0.4,0.3-0.6,0.5c-2.5,2.3-4.3,6-4.3,9.1v187.9v2.5
				c0,1.9,0.7,3.3,1.8,3.9c1.1,0.6,6,3.5,7.1,4.1c1.1,0.6,2.6,0.5,4.3-0.4l78.7-45.4c3.3-1.9,6.1-6.6,6.1-10.5V44.2
				c0-2.4-0.9-4.2-2.3-5C523.3,38.5,518.7,35.9,517.5,35.1z"/>
			<path class="st16" d="M459.1,76.2c-1-0.4-2.3-0.3-3.5,0.4l-4.7,2.6l-1.1,0.6l-7.6,4.4c-0.4,0.2-0.8,0.5-1.2,0.8
				c-0.2,0.2-0.4,0.3-0.6,0.5c-0.8,0.8-1.6,1.7-2.2,2.7l-7.1-4.1c0.6-1,1.4-2,2.2-2.7c0.2-0.2,0.4-0.4,0.6-0.5
				c0.4-0.3,0.8-0.6,1.2-0.8l7.6-4.4l1.1-0.6l4.7-2.6c1.3-0.7,2.8-0.8,3.7-0.3C452.9,72.6,457.7,75.4,459.1,76.2z"/>
			<path class="st16" d="M524.6,39.3c-1.4-0.8-3.3-0.7-5.4,0.5L504,48.6c-0.9,0.5-1.6,1.4-2.1,2.4l-7.1-4.1c0.5-1,1.2-1.9,2.1-2.4
				l15.2-8.8c2.1-1.2,4-1.3,5.4-0.5C518.7,35.9,523.3,38.5,524.6,39.3z"/>
			<path class="st17" d="M501.9,50.9c-0.5,1-0.8,2.2-0.8,3.2v9.7c0,1.9-0.9,4.1-2.3,5.8l-7.1-4.1c1.4-1.7,2.3-3.9,2.3-5.8V50
				c0-1,0.3-2.2,0.8-3.2L501.9,50.9z"/>
		</g>
		<g>
			<path class="st18" d="M519.2,39.8L519.2,39.8L504,48.6c-1.8,1-2.9,3.6-2.9,5.6s0,8.9,0,9.7c0,2.8-2.1,6.4-4.7,7.9l-31,18.2
				c-2.6,1.5-4.7,0.4-4.7-2.4c0-0.5,0-5.3,0-8.7c0-2.8-2.6-3.5-5-2.2l-4.7,2.6l-1.1,0.6l-7.6,4.4c-0.4,0.2-0.8,0.5-1.2,0.8
				c-0.2,0.2-0.4,0.3-0.6,0.5c-2.5,2.3-4.3,6-4.3,9.1v187.9v2.5c0,3.9,2.7,5.4,6.1,3.5l78.7-45.4c3.3-1.9,6.1-6.6,6.1-10.5V44.2
				C526.8,39.3,523.4,37.3,519.2,39.8z"/>
			<path class="st0" d="M522.6,40.2c2.6,0,2.8,3.1,2.8,4v188.5c0,3.3-2.4,7.6-5.3,9.2l-78.7,45.4c-0.7,0.4-1.4,0.6-2,0.6
				c-1.7,0-1.9-2-1.9-2.9v-2.5V94.8c0-2.7,1.6-6,3.8-8.1l0.2-0.2c0.1-0.1,0.2-0.2,0.3-0.3c0.3-0.3,0.7-0.5,1-0.7l7.6-4.4l1.1-0.6
				l4.7-2.6c0.5-0.3,1.1-0.5,1.6-0.5c0.8,0,1.2,0.4,1.2,1.4v8.7c0,2.7,1.6,4.5,4,4.5c1,0,1.9-0.3,3-0.9L497,73
				c3.1-1.8,5.5-5.8,5.5-9.1v-9.7c0-1.5,0.9-3.5,2.2-4.3l15.2-8.8C520.8,40.5,521.8,40.2,522.6,40.2 M522.6,38.7c-1,0-2.2,0.3-3.4,1
				L504,48.6c-1.8,1-2.9,3.6-2.9,5.6c0,1.9,0,8.9,0,9.7c0,2.8-2.1,6.4-4.7,7.9l-31,18.2c-0.8,0.5-1.6,0.7-2.2,0.7
				c-1.5,0-2.5-1.1-2.5-3.1c0-0.5,0-5.3,0-8.7c0-1.9-1.2-2.8-2.7-2.8c-0.7,0-1.5,0.2-2.3,0.6l-4.7,2.6l-1.1,0.6l-7.6,4.4
				c-0.4,0.2-0.8,0.5-1.2,0.8c-0.2,0.2-0.4,0.3-0.6,0.5c-2.5,2.3-4.3,6-4.3,9.1v187.9v2.5c0,2.7,1.4,4.3,3.4,4.3
				c0.8,0,1.7-0.3,2.7-0.8l78.7-45.4c3.3-1.9,6.1-6.6,6.1-10.5V44.2C526.8,40.7,525.1,38.7,522.6,38.7L522.6,38.7z"/>
		</g>
	</g>
	<g>
		<g>
			<polygon class="st1" points="446.7,114.5 518,73.4 518,155.8 446.7,197 			"/>
		</g>
		<polygon class="st4" points="446.7,197 446.7,169.5 471.2,127.7 500.2,152.4 494.2,142.1 503.3,127.7 518,139.6 518,155.8 		"/>
		<path class="st4" d="M494.4,101.1c3.2-1.8,5.8-0.3,5.8,3.3c0,3.7-2.6,8.2-5.8,10c-3.2,1.8-5.8,0.3-5.8-3.3
			C488.7,107.5,491.2,103,494.4,101.1z"/>
	</g>
	<g>
		<g>
			<path class="st1" d="M448.2,271.8c-0.1,0-0.1,0-0.2,0c-0.1-0.1-0.2-0.2-0.2-0.3v-6.8l-1.7,1c-0.1,0.1-0.3,0.1-0.4-0.1
				c-0.1-0.1-0.1-0.3-0.1-0.4l6.7-11.5c0.1-0.2,0.3-0.2,0.5-0.1l6.7,3.7c0.1,0.1,0.2,0.2,0.2,0.3s-0.1,0.3-0.2,0.3l-2.1,1.2l0,7.2
				c0,0.1-0.1,0.3-0.2,0.3l-8.9,5.1C448.3,271.7,448.3,271.8,448.2,271.8z M448.2,263.6c0.1,0,0.1,0,0.2,0c0.1,0.1,0.2,0.2,0.2,0.3
				v6.8l8.2-4.7l0-7.2c0-0.1,0.1-0.3,0.2-0.3l1.7-1l-5.9-3.2l-5.9,10l1.1-0.6C448.1,263.6,448.2,263.6,448.2,263.6z"/>
		</g>
		<g>
			<g>
				<path class="st1" d="M481.5,252.5C481.4,252.5,481.4,252.5,481.5,252.5l-1.4-0.3c-1-0.2-4.4-1.2-4.8-6c-0.2-2.5,1-5.6,2.7-6.9
					c0.8-0.6,1.6-0.8,2.3-0.5c0.5,0.2,0.8,0.5,1.1,1c0.6-2.1,1.9-3.8,3.2-4.3c0.7-0.3,1.4-0.2,1.9,0.2c0.9,0.6,1.3,2.1,1.1,3.8
					c-0.4,4.8-3.5,9.5-4.5,10.9l-1.3,1.9C481.7,252.5,481.6,252.5,481.5,252.5z M479.6,239.5c-0.4,0-0.8,0.2-1.2,0.5
					c-1.5,1.2-2.6,4-2.4,6.2c0.4,4.2,3.3,5.1,4.2,5.3l1.1,0.2l1.2-1.7c0.9-1.3,4-5.9,4.4-10.5c0.1-1.4-0.2-2.7-0.8-3.1
					c-0.3-0.3-0.7-0.3-1.2-0.1c-1.3,0.5-2.6,2.6-3,4.9c0,0,0,0.1,0,0.1c0,0.1,0,0.2-0.1,0.2c0,0.1-0.2,0.2-0.3,0.3c0,0,0,0,0,0
					c-0.2,0-0.3-0.1-0.4-0.3c-0.1-1-0.5-1.6-1.1-1.8C479.9,239.6,479.7,239.5,479.6,239.5z"/>
			</g>
		</g>
		<g>
			<g>
				<path class="st1" d="M507.4,237.6c-0.1,0-0.1,0-0.2,0c-0.1-0.1-0.2-0.2-0.2-0.3v-2c0-2.4,1.5-5.1,3.2-6.2l1.7-1l0,0
					c0.9-0.5,1.7-0.5,2.4-0.2c0.8,0.5,1.2,1.5,1.2,2.8v2c0,0.1-0.1,0.3-0.2,0.3l-7.9,4.5C507.5,237.6,507.5,237.6,507.4,237.6z
					 M512.4,228.7l-1.7,1c-1.6,0.9-2.9,3.4-2.9,5.5v1.3l7.1-4.1v-1.8c0-1-0.3-1.8-0.9-2.2C513.6,228.3,513,228.3,512.4,228.7
					L512.4,228.7z"/>
			</g>
			<g>
				<path class="st1" d="M510.3,227c-0.3,0-0.6-0.1-0.9-0.2c-0.7-0.4-1.1-1.3-1.1-2.4c0-2.1,1.2-4.4,2.8-5.3
					c0.7-0.4,1.5-0.5,2.1-0.1c0.7,0.4,1.1,1.3,1.1,2.4c0,2.1-1.2,4.4-2.8,5.3C511.1,226.9,510.7,227,510.3,227z M512.4,219.4
					c-0.3,0-0.6,0.1-0.9,0.3c-1.3,0.8-2.4,2.9-2.4,4.7c0,0.9,0.3,1.5,0.7,1.8c0.5,0.3,1,0.1,1.3-0.1c1.3-0.8,2.4-2.9,2.4-4.7
					c0-0.9-0.3-1.5-0.7-1.8C512.7,219.4,512.5,219.4,512.4,219.4z"/>
			</g>
		</g>
	</g>
	<path class="st9" d="M449.9,202l47.1-27.2c1.7-1,3.2-0.3,3.2,1.6c0,1.9-1.4,4.2-3.2,5.3l-47.1,27.2c-1.7,1-3.2,0.3-3.2-1.6
		C446.7,205.3,448.1,203,449.9,202z"/>
	<path class="st9" d="M449.9,215.7l62.2-35.9c1.7-1,3.2-0.3,3.2,1.6c0,1.9-1.4,4.2-3.2,5.3l-62.2,35.9c-1.7,1-3.2,0.3-3.2-1.6
		C446.7,219.1,448.1,216.7,449.9,215.7z"/>
	<g>
		<g>
			<path class="st1" d="M452.7,229.5c3.3-1.9,5.9-0.4,5.9,3.4c0,3.8-2.7,8.4-5.9,10.3c-3.3,1.9-5.9,0.4-5.9-3.4
				C446.7,236,449.4,231.4,452.7,229.5z"/>
		</g>
		<path class="st9" d="M466.4,221.5l31.9-18.4c1-0.6,1.9-0.1,1.9,1.1l0,0.6c0,1.2-0.9,2.7-1.9,3.3l-31.8,18.4
			c-1,0.6-1.9,0.1-1.9-1.1l0-0.6C464.5,223.6,465.4,222.1,466.4,221.5z"/>
		<path class="st1" d="M465.9,231.9l48.8-28.1c0.8-0.4,1.4-0.1,1.4,0.8l0,0.5c0,0.9-0.6,2-1.4,2.4l-48.7,28.1
			c-0.8,0.4-1.4,0.1-1.4-0.8l0-0.5C464.5,233.4,465.2,232.3,465.9,231.9z"/>
	</g>
</g>
<g id="Window_2_">
	<g>
		<g>
			<path class="st0" d="M364.4,373.9c-1.4-0.8-3.3-0.7-5.4,0.5l0,0l-15.2,8.8c-1.8,1-2.9,3.6-2.9,5.6c0,1.9,0,8.9,0,9.7
				c0,2.8-2.1,6.4-4.7,7.9l-28.6,16.8c0-1.7,0-3.8,0-5.6c0-1.2-0.5-2-1.2-2.5c-1-0.6-6.4-3.7-7.1-4.1c-1-0.6-2.4-0.5-3.7,0.3
				l-4.7,2.6l-1.1,0.6l-7.6,4.4c-0.4,0.2-0.8,0.5-1.2,0.8c-0.2,0.2-0.4,0.3-0.6,0.5c-2.5,2.3-4.3,6-4.3,9.1v187.9v2.5
				c0,1.9,0.7,3.3,1.8,3.9c1.1,0.6,6,3.5,7.1,4.1c1.1,0.6,2.6,0.5,4.3-0.4l78.7-45.4c3.3-1.9,6.1-6.6,6.1-10.5V383
				c0-2.4-0.9-4.2-2.3-5C370.2,377.3,365.6,374.7,364.4,373.9z"/>
			<path class="st16" d="M306,415c-1-0.4-2.3-0.3-3.5,0.4l-4.7,2.6l-1.1,0.6l-7.6,4.4c-0.4,0.2-0.8,0.5-1.2,0.8
				c-0.2,0.2-0.4,0.3-0.6,0.5c-0.8,0.8-1.6,1.7-2.2,2.7l-7.1-4.1c0.6-1,1.4-2,2.2-2.7c0.2-0.2,0.4-0.4,0.6-0.5
				c0.4-0.3,0.8-0.6,1.2-0.8l7.6-4.4l1.1-0.6l4.7-2.6c1.3-0.7,2.8-0.8,3.7-0.3C299.8,411.4,304.6,414.2,306,415z"/>
			<path class="st16" d="M371.5,378.1c-1.4-0.8-3.3-0.7-5.4,0.5l-15.2,8.8c-0.9,0.5-1.6,1.4-2.1,2.4l-7.1-4.1c0.5-1,1.2-1.9,2.1-2.4
				l15.2-8.8c2.1-1.2,4-1.3,5.4-0.5C365.6,374.7,370.2,377.3,371.5,378.1z"/>
			<path class="st17" d="M348.8,389.7c-0.5,1-0.8,2.2-0.8,3.2v9.7c0,1.9-0.9,4.1-2.3,5.8l-7.1-4.1c1.4-1.7,2.3-3.9,2.3-5.8v-9.7
				c0-1,0.3-2.2,0.8-3.2L348.8,389.7z"/>
		</g>
		<g>
			<path class="st18" d="M366.1,378.6L366.1,378.6l-15.2,8.8c-1.8,1-2.9,3.6-2.9,5.6s0,8.9,0,9.7c0,2.8-2.1,6.4-4.7,7.9l-31,18.2
				c-2.6,1.5-4.7,0.4-4.7-2.4c0-0.5,0-5.3,0-8.7c0-2.8-2.6-3.5-5-2.2l-4.7,2.6l-1.1,0.6l-7.6,4.4c-0.4,0.2-0.8,0.5-1.2,0.8
				c-0.2,0.2-0.4,0.3-0.6,0.5c-2.5,2.3-4.3,6-4.3,9.1v187.9v2.5c0,3.9,2.7,5.4,6.1,3.5l78.7-45.4c3.3-1.9,6.1-6.6,6.1-10.5V383
				C373.7,378.1,370.3,376.1,366.1,378.6z"/>
			<path class="st0" d="M369.5,379c2.6,0,2.8,3.1,2.8,4v188.5c0,3.3-2.4,7.6-5.3,9.2l-78.7,45.4c-0.7,0.4-1.4,0.6-2,0.6
				c-1.7,0-1.9-2-1.9-2.9v-2.5V433.6c0-2.7,1.6-6,3.8-8.1l0.2-0.2c0.1-0.1,0.2-0.2,0.3-0.3c0.3-0.3,0.7-0.5,1-0.7l7.6-4.4l1.1-0.6
				l4.7-2.6c0.5-0.3,1.1-0.5,1.6-0.5c0.8,0,1.2,0.4,1.2,1.4v8.7c0,2.7,1.6,4.5,4,4.5c1,0,1.9-0.3,3-0.9l31-18.1
				c3.1-1.8,5.5-5.8,5.5-9.1v-9.7c0-1.5,0.9-3.5,2.2-4.3l15.2-8.8C367.8,379.3,368.7,379,369.5,379 M369.5,377.5c-1,0-2.2,0.3-3.4,1
				l-15.2,8.8c-1.8,1-2.9,3.6-2.9,5.6c0,1.9,0,8.9,0,9.7c0,2.8-2.1,6.4-4.7,7.9l-31,18.2c-0.8,0.5-1.6,0.7-2.2,0.7
				c-1.5,0-2.5-1.1-2.5-3.1c0-0.5,0-5.3,0-8.7c0-1.9-1.2-2.8-2.7-2.8c-0.7,0-1.5,0.2-2.3,0.6l-4.7,2.6l-1.1,0.6l-7.6,4.4
				c-0.4,0.2-0.8,0.5-1.2,0.8c-0.2,0.2-0.4,0.3-0.6,0.5c-2.5,2.3-4.3,6-4.3,9.1v187.9v2.5c0,2.7,1.4,4.3,3.4,4.3
				c0.8,0,1.7-0.3,2.7-0.8l78.7-45.4c3.3-1.9,6.1-6.6,6.1-10.5V383C373.7,379.5,372,377.5,369.5,377.5L369.5,377.5z"/>
		</g>
	</g>
	<g>
		<g>
			<path class="st1" d="M295.1,610.6c-0.1,0-0.1,0-0.2,0c-0.1-0.1-0.2-0.2-0.2-0.3v-6.8l-1.7,1c-0.1,0.1-0.3,0.1-0.4-0.1
				c-0.1-0.1-0.1-0.3-0.1-0.4l6.7-11.5c0.1-0.2,0.3-0.2,0.5-0.1l6.7,3.7c0.1,0.1,0.2,0.2,0.2,0.3c0,0.1-0.1,0.3-0.2,0.3l-2.1,1.2
				l0,7.2c0,0.1-0.1,0.3-0.2,0.3l-8.9,5.1C295.2,610.5,295.2,610.6,295.1,610.6z M295.1,602.4c0.1,0,0.1,0,0.2,0
				c0.1,0.1,0.2,0.2,0.2,0.3v6.8l8.2-4.7l0-7.2c0-0.1,0.1-0.3,0.2-0.3l1.7-1l-5.9-3.2l-5.9,10l1.1-0.6
				C295,602.4,295.1,602.4,295.1,602.4z"/>
		</g>
		<g>
			<g>
				<path class="st1" d="M328.4,591.3C328.4,591.3,328.3,591.3,328.4,591.3l-1.4-0.3c-1-0.2-4.4-1.2-4.8-6c-0.2-2.5,1-5.6,2.7-6.9
					c0.8-0.6,1.6-0.8,2.3-0.5c0.5,0.2,0.8,0.5,1.1,1c0.6-2.1,1.9-3.8,3.2-4.3c0.7-0.3,1.4-0.2,1.9,0.2c0.9,0.6,1.3,2.1,1.1,3.8
					c-0.4,4.8-3.5,9.5-4.5,10.9l-1.3,1.9C328.6,591.3,328.5,591.3,328.4,591.3z M326.5,578.3c-0.4,0-0.8,0.2-1.2,0.5
					c-1.5,1.2-2.6,4-2.4,6.2c0.4,4.2,3.3,5.1,4.2,5.3l1.1,0.2l1.2-1.7c0.9-1.3,4-5.9,4.4-10.5c0.1-1.5-0.2-2.7-0.9-3.1
					c-0.3-0.3-0.7-0.3-1.2-0.1c-1.3,0.5-2.6,2.6-3,4.9c0,0,0,0.1,0,0.1c0,0.1,0,0.2-0.1,0.2c0,0.1-0.2,0.2-0.3,0.2c0,0,0,0,0,0
					c-0.2,0-0.3-0.1-0.4-0.3c-0.1-1-0.5-1.6-1.1-1.8C326.8,578.4,326.6,578.3,326.5,578.3z"/>
			</g>
		</g>
		<g>
			<g>
				<path class="st1" d="M354.3,576.4c-0.1,0-0.1,0-0.2,0c-0.1-0.1-0.2-0.2-0.2-0.3v-2c0-2.4,1.5-5.1,3.2-6.2l1.7-1
					c0.9-0.5,1.7-0.6,2.4-0.2c0.8,0.5,1.2,1.5,1.2,2.8v2c0,0.1-0.1,0.3-0.2,0.3l-7.9,4.5C354.4,576.4,354.4,576.4,354.3,576.4z
					 M360.3,567.2c-0.3,0-0.7,0.1-1,0.3l0,0l-1.7,1c-1.6,0.9-2.9,3.4-2.9,5.5v1.3l7.1-4.1v-1.8c0-1.1-0.3-1.8-0.9-2.2
					C360.7,567.2,360.5,567.2,360.3,567.2z M359.1,567.2L359.1,567.2L359.1,567.2z"/>
			</g>
			<g>
				<path class="st1" d="M357.2,565.8c-0.3,0-0.6-0.1-0.9-0.2c-0.7-0.4-1.1-1.3-1.1-2.4c0-2.1,1.2-4.4,2.8-5.3
					c0.7-0.4,1.5-0.5,2.1-0.1c0.7,0.4,1.1,1.3,1.1,2.4c0,2.1-1.2,4.4-2.8,5.3C358,565.7,357.6,565.8,357.2,565.8z M359.3,558.2
					c-0.3,0-0.6,0.1-0.9,0.3c-1.3,0.8-2.4,2.9-2.4,4.7c0,0.9,0.3,1.5,0.7,1.8c0.5,0.3,1,0.1,1.3-0.1c1.3-0.8,2.4-2.9,2.4-4.7
					c0-0.9-0.3-1.5-0.7-1.8C359.6,558.2,359.4,558.2,359.3,558.2z"/>
			</g>
		</g>
	</g>
	<path class="st1" d="M313.5,474.5l28.8-16.6c1.1-0.6,1.9-0.2,1.9,1c0,1.2-0.9,2.6-1.9,3.2l-28.8,16.6c-1.1,0.6-1.9,0.2-1.9-1
		S312.4,475.1,313.5,474.5z"/>
	<path class="st1" d="M308.9,485.6l38-21.9c1.1-0.6,1.9-0.2,1.9,1c0,1.2-0.9,2.6-1.9,3.2l-38,21.9c-1.1,0.6-1.9,0.2-1.9-1
		S307.8,486.2,308.9,485.6z"/>
	<g>
		<path class="st9" d="M295.5,508.9l31.9-18.4c1-0.6,1.9-0.1,1.9,1.1l0,0.6c0,1.2-0.9,2.7-1.9,3.3l-31.8,18.4
			c-1,0.6-1.9,0.1-1.9-1.1l0-0.6C293.6,510.9,294.5,509.5,295.5,508.9z"/>
	</g>
	<path class="st0" d="M295.2,520.9l68.1-39.3c0.9-0.5,1.6-0.1,1.6,0.9l0,6.6c0,1-0.7,2.2-1.6,2.7l-68.1,39.3
		c-0.9,0.5-1.6,0.1-1.6-0.9l0-6.6C293.6,522.7,294.3,521.4,295.2,520.9z"/>
	<path class="st0" d="M295.2,548.3l68.1-39.3c0.9-0.5,1.6-0.1,1.6,0.9l0,6.6c0,1-0.7,2.2-1.6,2.7l-68.1,39.3
		c-0.9,0.5-1.6,0.1-1.6-0.9l0-6.6C293.6,550,294.3,548.8,295.2,548.3z"/>
	<g>
		<path class="st9" d="M295.5,536.2l31.9-18.4c1-0.6,1.9-0.1,1.9,1.1l0,0.6c0,1.2-0.9,2.7-1.9,3.3l-31.8,18.4
			c-1,0.6-1.9,0.1-1.9-1.1l0-0.6C293.6,538.3,294.5,536.8,295.5,536.2z"/>
	</g>
	<path class="st1" d="M295.5,568.7l25.9-15c1-0.6,1.9-0.1,1.9,1.1l0,9.3c0,1.2-0.9,2.7-1.9,3.3l-25.9,15c-1,0.6-1.9,0.1-1.9-1.1V572
		C293.6,570.8,294.5,569.3,295.5,568.7z"/>
	<path class="st1" d="M337.1,544.7l25.9-15c1-0.6,1.9-0.1,1.9,1.1l0,9.3c0,1.2-0.9,2.7-1.9,3.3l-25.9,15c-1,0.6-1.9,0.1-1.9-1.1V548
		C335.2,546.8,336,545.3,337.1,544.7z"/>
	<g>
		<g>
			<path class="st9" d="M311.3,461.6c0.5,0.2,1.2,0.2,1.9-0.2c1.3-0.8,2.1-2.4,2.1-4.1c0-1.5-0.5-2.1-1.8-2.2
				c-1.4,0-2.3-0.6-2.3-2.5c0-2,1.1-4.1,2.6-4.9c0.8-0.5,1.5-0.5,1.8-0.4l-0.2,1c-0.2-0.1-0.8-0.2-1.6,0.3c-1.4,0.8-1.9,2.5-1.9,3.6
				c0,1.5,0.6,2,1.8,2c1.5,0.1,2.2,0.6,2.2,2.7c0,2-0.9,4.3-2.8,5.4c-0.8,0.4-1.7,0.6-2.1,0.3L311.3,461.6z"/>
			<path class="st9" d="M318.5,446.5c0,0.5-0.2,1-0.5,1.1c-0.3,0.2-0.5-0.1-0.5-0.6c0-0.4,0.2-1,0.5-1.1
				C318.3,445.7,318.5,446,318.5,446.5z M317.7,459.4v-9.7l0.6-0.4v9.7L317.7,459.4z"/>
			<path class="st9" d="M325.6,445.2c0,0.7-0.1,1.5-0.1,2.5v5.8c0,2.5-0.3,3.9-0.9,5c-0.6,1.2-1.4,2-2.1,2.4c-0.7,0.4-1.5,0.6-2,0.3
				l0.2-0.9c0.4,0.2,1.1,0.2,1.9-0.3c1.3-0.8,2.3-2.4,2.3-5.3v-1.4l0,0c-0.3,1.2-1.1,2.5-2.2,3.1c-1.6,0.9-2.7-0.6-2.7-3.2
				c0-3.4,1.4-6,2.8-6.8c1.2-0.7,1.9,0,2.1,0.6l0,0l0-1.7L325.6,445.2z M324.9,449.3c0-0.3,0-0.6-0.1-0.9c-0.3-1-0.9-1.7-2-1.1
				c-1.3,0.8-2.3,3-2.3,5.6c0,2.2,0.7,3.7,2.2,2.8c0.8-0.5,1.6-1.7,1.9-3.3c0.1-0.4,0.1-0.7,0.1-1.1V449.3z"/>
			<path class="st9" d="M327.6,446.3c0-0.9,0-1.5-0.1-2.3l0.6-0.3l0,1.7l0,0c0.3-1.3,1.1-2.6,2.2-3.2c0.6-0.3,2.2-0.8,2.2,2.8v5.8
				l-0.6,0.4v-5.7c0-1.8-0.4-3.1-1.8-2.4c-0.9,0.5-1.6,1.9-1.9,3.3c0,0.3-0.1,0.6-0.1,0.9v6l-0.6,0.4V446.3z"/>
			<path class="st9" d="M338.4,435c0,0.5-0.2,1-0.5,1.1c-0.3,0.2-0.5-0.1-0.5-0.6c0-0.4,0.2-1,0.5-1.1
				C338.2,434.3,338.4,434.5,338.4,435z M337.6,448v-9.7l0.6-0.4v9.7L337.6,448z"/>
			<path class="st9" d="M340.3,439c0-0.9,0-1.5-0.1-2.3l0.6-0.3l0,1.7l0,0c0.3-1.3,1.1-2.6,2.2-3.2c0.6-0.3,2.2-0.8,2.2,2.8v5.8
				l-0.6,0.4v-5.7c0-1.8-0.4-3.1-1.8-2.4c-0.9,0.5-1.6,1.9-1.9,3.3c0,0.3-0.1,0.6-0.1,0.9v6l-0.6,0.4V439z"/>
		</g>
	</g>
</g>
<g id="Window_1_">
	<g>
		<g>
			<path class="st0" d="M553.1,264.9c-1.4-0.8-3.3-0.7-5.4,0.5l0,0l-15.2,8.8c-1.8,1-2.9,3.6-2.9,5.6c0,1.9,0,8.9,0,9.7
				c0,2.8-2.1,6.4-4.7,7.9l-28.6,16.8c0-1.7,0-3.8,0-5.6c0-1.2-0.5-2-1.2-2.5c-1-0.6-6.4-3.7-7.1-4.1c-1-0.6-2.4-0.5-3.7,0.3
				l-4.7,2.6l-1.1,0.6l-7.6,4.4c-0.4,0.2-0.8,0.5-1.2,0.8c-0.2,0.2-0.4,0.3-0.6,0.5c-2.5,2.3-4.3,6-4.3,9.1v187.9v2.5
				c0,1.9,0.7,3.3,1.8,3.9c1.1,0.6,6,3.5,7.1,4.1c1.1,0.6,2.6,0.5,4.3-0.4l78.7-45.4c3.3-1.9,6.1-6.6,6.1-10.5V274
				c0-2.4-0.9-4.2-2.3-5C558.9,268.3,554.4,265.6,553.1,264.9z"/>
			<path class="st16" d="M494.7,306c-1-0.4-2.3-0.3-3.5,0.4l-4.7,2.6l-1.1,0.6l-7.6,4.4c-0.4,0.2-0.8,0.5-1.2,0.8
				c-0.2,0.2-0.4,0.3-0.6,0.5c-0.8,0.8-1.6,1.7-2.2,2.7l-7.1-4.1c0.6-1,1.4-2,2.2-2.7c0.2-0.2,0.4-0.4,0.6-0.5
				c0.4-0.3,0.8-0.6,1.2-0.8l7.6-4.4l1.1-0.6l4.7-2.6c1.3-0.7,2.8-0.8,3.7-0.3C488.5,302.4,493.4,305.2,494.7,306z"/>
			<path class="st16" d="M560.2,269c-1.4-0.8-3.3-0.7-5.4,0.5l-15.2,8.8c-0.9,0.5-1.6,1.4-2.1,2.4l-7.1-4.1c0.5-1,1.2-1.9,2.1-2.4
				l15.2-8.8c2.1-1.2,4-1.3,5.4-0.5C554.4,265.7,558.9,268.3,560.2,269z"/>
			<path class="st17" d="M537.5,280.7c-0.5,1-0.8,2.2-0.8,3.2v9.7c0,1.9-0.9,4.1-2.3,5.8l-7.1-4.1c1.4-1.7,2.3-3.9,2.3-5.8v-9.7
				c0-1,0.3-2.2,0.8-3.2L537.5,280.7z"/>
		</g>
		<g>
			<path class="st18" d="M554.8,269.5L554.8,269.5l-15.2,8.8c-1.8,1-2.9,3.6-2.9,5.6c0,1.9,0,8.9,0,9.7c0,2.8-2.1,6.4-4.7,7.9
				l-31,18.2c-2.6,1.5-4.7,0.4-4.7-2.4c0-0.5,0-5.3,0-8.7c0-2.8-2.6-3.5-5-2.2l-4.7,2.6l-1.1,0.6l-7.6,4.4c-0.4,0.2-0.8,0.5-1.2,0.8
				c-0.2,0.2-0.4,0.3-0.6,0.5c-2.5,2.3-4.3,6-4.3,9.1v187.9v2.5c0,3.9,2.7,5.4,6.1,3.5l78.7-45.4c3.3-1.9,6.1-6.6,6.1-10.5V274
				C562.5,269.1,559,267.1,554.8,269.5z"/>
			<path class="st0" d="M558.2,270c2.6,0,2.8,3.1,2.8,4v188.5c0,3.3-2.4,7.6-5.3,9.2L477,517.1c-0.7,0.4-1.4,0.6-2,0.6
				c-1.7,0-1.9-2-1.9-2.9v-2.5V324.5c0-2.7,1.6-6,3.8-8.1l0.2-0.2c0.1-0.1,0.2-0.2,0.3-0.3c0.3-0.3,0.7-0.5,1-0.7l7.6-4.4l1.1-0.6
				l4.7-2.6c0.5-0.3,1.1-0.5,1.6-0.5c0.8,0,1.2,0.4,1.2,1.4v8.7c0,2.7,1.6,4.5,4,4.5c1,0,1.9-0.3,3-0.9l31-18.1
				c3.1-1.8,5.5-5.8,5.5-9.1v-9.7c0-1.5,0.9-3.5,2.2-4.3l15.2-8.8C556.5,270.3,557.4,270,558.2,270 M558.2,268.5c-1,0-2.2,0.3-3.4,1
				l-15.2,8.8c-1.8,1-2.9,3.6-2.9,5.6c0,1.9,0,8.9,0,9.7c0,2.8-2.1,6.4-4.7,7.9l-31,18.2c-0.8,0.5-1.6,0.7-2.2,0.7
				c-1.5,0-2.5-1.1-2.5-3.1c0-0.5,0-5.3,0-8.7c0-1.9-1.2-2.8-2.7-2.8c-0.7,0-1.5,0.2-2.3,0.6l-4.7,2.6l-1.1,0.6l-7.6,4.4
				c-0.4,0.2-0.8,0.5-1.2,0.8c-0.2,0.2-0.4,0.3-0.6,0.5c-2.5,2.3-4.3,6-4.3,9.1v187.9v2.5c0,2.7,1.4,4.3,3.4,4.3
				c0.8,0,1.7-0.3,2.7-0.8l78.7-45.4c3.3-1.9,6.1-6.6,6.1-10.5V274C562.5,270.5,560.7,268.5,558.2,268.5L558.2,268.5z"/>
		</g>
	</g>
	<g>
		<g>
			<path class="st1" d="M483.8,501.5c-0.1,0-0.1,0-0.2,0c-0.1-0.1-0.2-0.2-0.2-0.3v-6.8l-1.7,1c-0.1,0.1-0.3,0.1-0.4-0.1
				c-0.1-0.1-0.1-0.3-0.1-0.4l6.7-11.5c0.1-0.2,0.3-0.2,0.5-0.1l6.7,3.7c0.1,0.1,0.2,0.2,0.2,0.3c0,0.1-0.1,0.3-0.2,0.3l-2.1,1.2
				l0,7.2c0,0.1-0.1,0.3-0.2,0.3l-8.9,5.1C484,501.5,483.9,501.5,483.8,501.5z M483.8,493.3c0.1,0,0.1,0,0.2,0
				c0.1,0.1,0.2,0.2,0.2,0.3v6.8l8.2-4.7l0-7.2c0-0.1,0.1-0.3,0.2-0.3l1.7-1l-5.9-3.2l-5.9,10l1.1-0.6
				C483.7,493.3,483.8,493.3,483.8,493.3z"/>
		</g>
		<g>
			<g>
				<path class="st1" d="M517.1,482.3C517.1,482.3,517.1,482.3,517.1,482.3l-1.4-0.3c-1-0.2-4.4-1.2-4.8-6c-0.2-2.5,1-5.6,2.7-6.9
					c0.8-0.6,1.6-0.8,2.3-0.5c0.5,0.2,0.8,0.5,1.1,1c0.6-2.1,1.9-3.8,3.2-4.3c0.7-0.3,1.4-0.2,1.9,0.2c0.9,0.6,1.3,2.1,1.1,3.8
					c-0.4,4.8-3.5,9.5-4.5,10.9l-1.3,1.9C517.3,482.2,517.2,482.3,517.1,482.3z M515.2,469.3c-0.4,0-0.8,0.2-1.2,0.5
					c-1.5,1.2-2.6,4-2.4,6.2c0.4,4.2,3.3,5.1,4.2,5.3l1.1,0.2l1.2-1.7c0.9-1.3,4-5.9,4.4-10.5c0.1-1.5-0.2-2.7-0.9-3.1
					c-0.3-0.3-0.7-0.3-1.2-0.1c-1.3,0.5-2.6,2.6-3,4.9c0,0,0,0.1,0,0.1c0,0.1,0,0.2-0.1,0.2c0,0.1-0.2,0.2-0.3,0.3c0,0,0,0,0,0
					c-0.2,0-0.3-0.1-0.4-0.3c-0.1-1-0.5-1.6-1.1-1.8C515.5,469.3,515.3,469.3,515.2,469.3z"/>
			</g>
		</g>
		<g>
			<g>
				<path class="st1" d="M543,467.3c-0.1,0-0.1,0-0.2,0c-0.1-0.1-0.2-0.2-0.2-0.3v-2c0-2.4,1.5-5.1,3.2-6.2l1.7-1
					c0.9-0.5,1.7-0.6,2.4-0.2c0.8,0.5,1.2,1.5,1.2,2.8v2c0,0.1-0.1,0.3-0.2,0.3l-7.9,4.5C543.1,467.3,543.1,467.3,543,467.3z
					 M549,458.1c-0.3,0-0.7,0.1-1,0.3l0,0l-1.7,1c-1.6,0.9-2.9,3.4-2.9,5.5v1.3l7.1-4.1v-1.8c0-1.1-0.3-1.8-0.9-2.2
					C549.5,458.2,549.3,458.1,549,458.1z M547.8,458.1L547.8,458.1L547.8,458.1z"/>
			</g>
			<g>
				<path class="st1" d="M545.9,456.8c-0.3,0-0.6-0.1-0.9-0.2c-0.7-0.4-1.1-1.3-1.1-2.4c0-2.1,1.2-4.4,2.8-5.3
					c0.7-0.4,1.5-0.5,2.1-0.1c0.7,0.4,1.1,1.3,1.1,2.4c0,2.1-1.2,4.4-2.8,5.3C546.7,456.6,546.3,456.8,545.9,456.8z M548,449.1
					c-0.3,0-0.6,0.1-0.9,0.3c-1.3,0.8-2.4,2.9-2.4,4.7c0,0.9,0.3,1.5,0.7,1.8c0.5,0.3,1,0.1,1.3-0.1c1.3-0.8,2.4-2.9,2.4-4.7
					c0-0.9-0.3-1.5-0.7-1.8C548.3,449.2,548.2,449.1,548,449.1z"/>
			</g>
		</g>
	</g>
	<path class="st1" d="M502.2,365.4l28.8-16.6c1.1-0.6,1.9-0.2,1.9,1c0,1.2-0.9,2.6-1.9,3.2l-28.8,16.6c-1.1,0.6-1.9,0.2-1.9-1
		C500.3,367.5,501.1,366,502.2,365.4z"/>
	<path class="st1" d="M497.6,376.6l38-21.9c1.1-0.6,1.9-0.2,1.9,1c0,1.2-0.9,2.6-1.9,3.2l-38,21.9c-1.1,0.6-1.9,0.2-1.9-1
		S496.5,377.2,497.6,376.6z"/>
	<g>
		<path class="st9" d="M484.3,399.8l31.9-18.4c1-0.6,1.9-0.1,1.9,1.1l0,0.6c0,1.2-0.9,2.7-1.9,3.3l-31.8,18.4
			c-1,0.6-1.9,0.1-1.9-1.1l0-0.6C482.4,401.9,483.2,400.4,484.3,399.8z"/>
	</g>
	<path class="st0" d="M483.9,411.9l68.1-39.3c0.9-0.5,1.6-0.1,1.6,0.9l0,6.6c0,1-0.7,2.2-1.6,2.7l-68.1,39.3
		c-0.9,0.5-1.6,0.1-1.6-0.9l0-6.6C482.4,413.6,483.1,412.4,483.9,411.9z"/>
	<path class="st0" d="M483.9,439.3l68.1-39.3c0.9-0.5,1.6-0.1,1.6,0.9l0,6.6c0,1-0.7,2.2-1.6,2.7l-68.1,39.3
		c-0.9,0.5-1.6,0.1-1.6-0.9l0-6.6C482.4,441,483.1,439.8,483.9,439.3z"/>
	<g>
		<path class="st9" d="M484.3,427.2l31.9-18.4c1-0.6,1.9-0.1,1.9,1.1l0,0.6c0,1.2-0.9,2.7-1.9,3.3l-31.8,18.4
			c-1,0.6-1.9,0.1-1.9-1.1l0-0.6C482.4,429.2,483.2,427.8,484.3,427.2z"/>
	</g>
	<path class="st1" d="M484.3,459.7l25.9-15c1-0.6,1.9-0.1,1.9,1.1l0,9.3c0,1.2-0.9,2.7-1.9,3.3l-25.9,15c-1,0.6-1.9,0.1-1.9-1.1V463
		C482.4,461.8,483.2,460.3,484.3,459.7z"/>
	<path class="st1" d="M525.8,435.7l25.9-15c1-0.6,1.9-0.1,1.9,1.1l0,9.3c0,1.2-0.9,2.7-1.9,3.3l-25.9,15c-1,0.6-1.9,0.1-1.9-1.1V439
		C523.9,437.8,524.8,436.3,525.8,435.7z"/>
	<g>
		<g>
			<path class="st9" d="M497.4,354.6c0.5,0.2,1.2,0.2,1.9-0.2c1.3-0.8,2.1-2.4,2.1-4.1c0-1.5-0.5-2.1-1.8-2.2
				c-1.4,0-2.3-0.6-2.3-2.5c0-2,1.1-4.1,2.6-4.9c0.8-0.5,1.5-0.5,1.8-0.4l-0.2,1c-0.2-0.1-0.8-0.2-1.6,0.3c-1.4,0.8-1.9,2.5-1.9,3.6
				c0,1.5,0.6,2,1.8,2c1.5,0.1,2.2,0.6,2.2,2.7c0,2-0.9,4.3-2.8,5.4c-0.8,0.4-1.7,0.6-2.1,0.3L497.4,354.6z"/>
			<path class="st9" d="M504.6,339.5c0,0.5-0.2,1-0.5,1.1c-0.3,0.2-0.5-0.1-0.5-0.6c0-0.4,0.2-1,0.5-1.1
				C504.4,338.8,504.6,339,504.6,339.5z M503.7,352.5v-9.7l0.6-0.4v9.7L503.7,352.5z"/>
			<path class="st9" d="M511.6,338.2c0,0.7-0.1,1.5-0.1,2.5v5.8c0,2.5-0.3,3.9-0.9,5c-0.6,1.2-1.4,2-2.1,2.4c-0.7,0.4-1.5,0.6-2,0.3
				l0.2-0.9c0.4,0.2,1.1,0.2,1.9-0.3c1.3-0.8,2.3-2.4,2.3-5.3v-1.4l0,0c-0.3,1.2-1.1,2.5-2.2,3.1c-1.6,0.9-2.7-0.6-2.7-3.2
				c0-3.4,1.4-6,2.8-6.8c1.2-0.7,1.9,0,2.1,0.6l0,0l0-1.7L511.6,338.2z M510.9,342.4c0-0.3,0-0.6-0.1-0.9c-0.3-1-0.9-1.7-2-1.1
				c-1.3,0.8-2.3,3-2.3,5.6c0,2.2,0.7,3.7,2.2,2.8c0.8-0.5,1.6-1.7,1.9-3.3c0.1-0.4,0.1-0.7,0.1-1.1V342.4z"/>
			<path class="st9" d="M513.7,339.4c0-0.9,0-1.5-0.1-2.3l0.6-0.3l0,1.7l0,0c0.3-1.3,1.1-2.6,2.2-3.2c0.6-0.3,2.2-0.8,2.2,2.8v5.8
				l-0.6,0.4v-5.7c0-1.8-0.4-3.1-1.8-2.4c-0.9,0.5-1.6,1.9-1.9,3.3c0,0.3-0.1,0.6-0.1,0.9v6l-0.6,0.4V339.4z"/>
			<path class="st9" d="M528.5,335.8c0,0.9,0,1.6,0.1,2.3l-0.6,0.3l0-1.7l0,0c-0.3,1.1-1,2.5-2.2,3.2c-0.8,0.5-2.1,0.6-2.1-3v-5.7
				l0.6-0.4v5.5c0,2.1,0.4,3.4,1.7,2.7c0.9-0.5,1.6-1.9,1.9-3.1c0.1-0.3,0.1-0.8,0.1-1.1v-6.1l0.6-0.4V335.8z"/>
			<path class="st9" d="M530.6,330.4c0-1.2,0-2.2-0.1-3.1l0.6-0.3l0,1.8l0,0c0.5-1.5,1.2-2.8,2.3-3.4c1.6-0.9,2.7,0.5,2.7,3.4
				c0,3.5-1.3,6-2.9,6.9c-0.9,0.5-1.7,0.4-2.1-0.6l0,0v5.6l-0.6,0.4V330.4z M531.2,332.8c0,0.3,0,0.5,0.1,0.7
				c0.3,1.4,1.1,1.8,2.1,1.3c1.5-0.8,2.3-3.1,2.3-5.7c0-2.2-0.8-3.7-2.2-2.9c-0.9,0.5-1.8,2-2.1,3.8c0,0.3-0.1,0.6-0.1,0.9V332.8z"
				/>
		</g>
	</g>
</g>
</svg>
