<?xml version="1.0" encoding="utf-8"?>
<!-- Generator: Adobe Illustrator 24.0.2, SVG Export Plug-In . SVG Version: 6.00 Build 0)  -->
<svg version="1.1" id="Capa_1" xmlns="http://www.w3.org/2000/svg" xmlns:xlink="http://www.w3.org/1999/xlink" x="0px" y="0px"
	 viewBox="0 0 578 578" style="enable-background:new 0 0 578 578;" xml:space="preserve">
<style type="text/css">
	.st0{fill:#CCCCCC;}
	.st1{fill:url(#SVGID_1_);}
	.st2{fill:#F2F2F2;}
	.st3{fill:#666666;}
	.st4{fill:#FFFFFF;}
	.st5{fill:url(#SVGID_2_);}
	.st6{fill:#FFF9F2;}
	.st7{fill:url(#SVGID_3_);}
	.st8{fill:#E0E0E0;}
	.st9{fill:url(#SVGID_4_);}
	.st10{fill:#808080;}
	.st11{fill:url(#SVGID_5_);}
	.st12{fill:url(#SVGID_6_);}
	.st13{fill:url(#SVGID_7_);}
	.st14{fill:url(#SVGID_8_);}
	.st15{fill:url(#SVGID_9_);}
	.st16{fill:url(#SVGID_10_);}
	.st17{fill:url(#SVGID_11_);}
	.st18{fill:url(#SVGID_12_);}
	.st19{fill:url(#SVGID_13_);}
	.st20{fill:url(#SVGID_14_);}
	.st21{fill:url(#SVGID_15_);}
	.st22{fill:#B3B3B3;}
	.st23{fill:#D9D9D9;}
	.st24{fill:url(#SVGID_16_);}
	.st25{fill:#999999;}
	.st26{fill:url(#SVGID_17_);}
	.st27{fill:#595959;}
	.st28{fill:url(#SVGID_18_);}
	.st29{fill:#E6E6E6;}
	.st30{fill:#4D4D4D;}
	.st31{fill:#6B6B6B;}
	.st32{fill:url(#SVGID_19_);}
	.st33{fill:#333333;}
	.st34{fill:url(#SVGID_20_);}
	.st35{fill:url(#SVGID_21_);}
	.st36{fill:url(#SVGID_22_);}
	.st37{fill:url(#SVGID_23_);}
	.st38{fill:#373737;}
	.st39{fill:url(#SVGID_24_);}
	.st40{fill:#1A1A1A;}
	.st41{fill:url(#SVGID_25_);}
</style>
<g>
	<path class="st0" d="M590.2,357.8c-0.9-0.5-1.8-1-2.7-1.4c-0.9-0.5-2-0.9-3.1-1.2c-1-0.3-2.1-0.4-3.3-0.5c-2.7-0.2-4.8,0.2-7.1,0.8
		l1.7-9.1l13.5-0.2c-0.1,2,0.6,4.1,2.2,6c0.3,0.4,0.6,0.7,1,1.1c0,0,0.1,0.1,0.2,0.1c0.8,0.7,1.8,1.2,2.9,1.6
		c1.5,0.6,3.4,0.7,5.2,0.8c9.7,0.4,18.1-2.2,25.1-5.9c2.1-1.1,3.9-2.4,5.1-3.8c1.1-1.3,1.8-2.4,1.4-3.9c-0.1-0.6-0.4-1.2-0.8-1.7
		c-0.5-0.6-1.1-1.1-1.8-1.6c-0.6-0.5-1.3-0.9-2.1-1.4c-8.9-5.1-23.2-5.2-31.9-0.1c-1.6,0.9-2.8,1.9-3.8,3l0,0l-41.7-8.2l-22.4-10.8
		c5.2-5,4.1-11.6-3.4-15.9c-8.8-5.1-23.1-5.1-31.8-0.1c-8.8,5.1-8.7,13.3,0.1,18.4c7.1,4.1,17.5,4.8,26,2.4l20.6,11.9l-2.3,1.3l0,0
		c-1,0.6-1.5,1.4-1.7,2.4c-1.7,0.1-3.1,0.4-4.1,0.9l0,0c0,0,0,0,0.1,0c0,0,0,0-0.1,0l0,0l-9.6,5.5l0,0c-1.1,0.7-1.6,1.6-1.7,2.7
		l-1.5,0.9l0,0l-13.4,7.7c-4.4-0.7-7.8-0.3-10,0.9l0,0c0,0,0,0,0.1-0.1c0,0,0,0-0.1,0.1l0,0l-3,1.7l-25.5-4.1l0,0l-68.1,8.3
		l31.4-21.9c1.1-0.6,2.1-1.3,3-2.1l0.2-0.2l0,0c3.6-3.4,4.4-8.2,1.7-13.9c-6.6-14-31.5-28.4-55.6-32.2c-10.7-1.7-19.4-1-25.3,1.6
		l0,0l-34.4,16.5l-11.5-24.6l-15.6-2.5l-8.6,5l-2.2-0.3L221.9,326l1.5,3.1l-81.9,27.5l19.5,41.6l1.8,1.5l4-1.3l-4.6,2.7l0,0
		c-1.9,1.2-3.4,2.6-4.5,4.1c-2.6,0.6-5,1.4-6.9,2.5c0.1,0,0.1-0.1,0.1-0.1c-0.1,0-0.1,0.1-0.2,0.1l0,0l-10,5.8l0,0
		c-1.9,1.2-3.4,2.6-4.5,4.2c-2.7,0.6-5.1,1.5-7.1,2.5c0.1,0,0.1-0.1,0.1-0.1c-0.1,0-0.1,0.1-0.2,0.1l0,0l-10,5.8l0,0
		c-5.4,3.3-7.7,8.4-6,14.7c-0.3,0.2-0.5,0.5-0.7,0.8c-0.3,0.3-0.5,0.6-0.8,0.9c-0.1,0.1-0.2,0.2-0.3,0.3c0,0,0,0.1,0,0.1
		c-1.9,2.9-2.1,6.6-0.1,11c6,12.8,28.8,26.1,50.9,29.5c7.4,1.2,13.7,1,18.7-0.1c0,0,0,0,0.1,0c0.1,0,0.1,0,0.1,0
		c0.2,0,0.4-0.1,0.6-0.2c0.7-0.2,1.4-0.4,2.1-0.6c0.3-0.1,0.5-0.2,0.8-0.3c11.1,1,20-0.4,25.7-3.6l0,0l10-5.8l0,0
		c0.3-0.2,0.7-0.5,1-0.7c0.2-0.1,0.4-0.3,0.6-0.4c0.7-0.5,1.3-1.1,1.8-1.7c0-0.1,0.1-0.1,0.1-0.2c0.2-0.3,0.4-0.6,0.6-0.9
		c2.9-0.7,5.5-1.6,7.6-2.8l0,0l9.3-5.4c0.1-0.1,0.2-0.1,0.3-0.2l0.4-0.2l0,0c1.3-0.9,2.5-1.8,3.4-2.9c0,0,0-0.1,0.1-0.1
		c0.2-0.3,0.4-0.6,0.7-0.9c2.9-0.7,5.4-1.6,7.4-2.7l0,0l10-5.8l0,0c0.3-0.2,0.6-0.4,0.9-0.6c0.2-0.2,0.5-0.4,0.8-0.5
		c1-0.8,1.8-1.8,2.5-2.8c2.9-0.7,5.5-1.6,7.6-2.8l0,0l10-5.8l-0.1,0c0.4-0.3,0.8-0.5,1.1-0.8c0.3-0.2,0.5-0.4,0.8-0.6
		c0.4-0.4,0.8-0.7,1.1-1.1c0.2-0.2,0.4-0.4,0.6-0.7c0.3-0.4,0.6-0.8,0.9-1.3c0.1-0.2,0.3-0.5,0.4-0.7c0.2-0.5,0.4-0.9,0.6-1.4
		c0.1-0.3,0.2-0.5,0.3-0.8c0.1-0.5,0.2-1,0.3-1.5c0-0.1,0-0.2,0-0.3c9.9-0.4,17.3-3,21-7.4l0,0l12.4-14.1l0,0
		c0.1-0.1,0.2-0.2,0.3-0.3c0.3-0.3,0.6-0.6,0.8-0.8c0,0,0.1-0.1,0.1-0.1l0,0c0.8-1,1.4-2.2,1.8-3.5l1.8-1c15.3,2.4,27.5,1,34.9-3.2
		l0,0l4.5-2.6l1.5,0.2L190.5,496.5c-4.6-1.8-9.4-3.3-14.2-4c-7.8-1.2-14-0.5-17.8,1.6l0,0c0,0,0.1-0.1,0.1-0.1c0,0-0.1,0.1-0.1,0.1
		l0,0l-5.7,3.3l0,0c-3.7,2.2-4.9,5.9-2.7,10.5c4.4,9.3,20.9,18.9,37,21.4c8,1.2,14.3,0.5,18.1-1.7l0,0l5.2-3c0,0,0.1-0.1,0.1-0.1
		l0.4-0.2l-0.1,0c2.6-1.7,3.9-4.1,3.6-7l-0.1,0c-0.1-1-0.4-2.1-1-3.2c-1.3-2.8-3.7-5.5-6.8-8.1l188.7-108.7l12.1,1.9l27.8-16
		l20.5,3.2l12.8-7.4l0,0.1l50.7,8.1l6.1-3.6l-2.1-4.5l1.8-1l0,0c0.3-0.2,0.5-0.4,0.8-0.6c0.2-0.2,0.3-0.3,0.5-0.5
		c0.2-0.3,0.3-0.5,0.5-0.8c0.1-0.2,0.2-0.3,0.2-0.5c0.1-0.3,0.1-0.7,0.1-1c0-0.2,0-0.4,0-0.6c-0.1-0.4-0.2-0.9-0.4-1.4
		c0-0.1,0-0.2-0.1-0.3l13.4-7.8l0,0l1.5-0.9c2,0,3.6-0.4,4.7-1l0,0l9.6-5.5l0,0c0,0,0,0,0.1-0.1c0.2-0.2,0.5-0.3,0.7-0.5
		c0.1-0.1,0.2-0.2,0.3-0.4c0.2-0.2,0.3-0.4,0.4-0.7c0.1-0.1,0.1-0.3,0.1-0.4c0-0.1,0.1-0.2,0.1-0.3c0,0,0.1,0,0.1,0l4,8
		c-4.4,3.8-7.1,8-6.5,12.8c0.1,1.2,0.5,2.4,1.6,3.4c0.7,0.7,1.8,1.3,3.2,1.9c0.1,0,0.2,0.1,0.3,0.1c0.7,0.2,1.4,0.4,2.1,0.6
		c9.4,2.6,21,1.7,28.7-2.8C600.3,372.8,600.1,363.5,590.2,357.8z"/>
	<g>
		<g>
			<g>
				<linearGradient id="SVGID_1_" gradientUnits="userSpaceOnUse" x1="149.0392" y1="503.2606" x2="209.5876" y2="503.2606">
					<stop  offset="0" style="stop-color:#CCCCCC"/>
					<stop  offset="0.121" style="stop-color:#ADADAD"/>
					<stop  offset="0.121" style="stop-color:#F2F2F2"/>
					<stop  offset="0.1726" style="stop-color:#F2F2F2"/>
					<stop  offset="0.1885" style="stop-color:#A6A6A6"/>
					<stop  offset="0.2837" style="stop-color:#A4A4A4"/>
					<stop  offset="0.2956" style="stop-color:#666666"/>
					<stop  offset="0.4028" style="stop-color:#666666"/>
					<stop  offset="0.4187" style="stop-color:#A1A1A1"/>
					<stop  offset="0.5893" style="stop-color:#898989"/>
					<stop  offset="0.6806" style="stop-color:#999999"/>
					<stop  offset="0.7599" style="stop-color:#999999"/>
					<stop  offset="0.8433" style="stop-color:#787878"/>
					<stop  offset="1" style="stop-color:#666666"/>
				</linearGradient>
				<path class="st1" d="M209.6,497.2h-1.7c-1.5-2.5-3.9-4.8-7.3-6.7c-11.9-6.8-31-6.9-42.8-0.1c-3.4,2-5.8,4.3-7.3,6.8H149v6.7h0
					c0.1,4.4,3.1,8.8,8.9,12.1c11.9,6.8,31,6.9,42.8,0.1c5.8-3.4,8.8-7.8,8.8-12.2h0V497.2z"/>
				<path class="st2" d="M200.8,510.1c-11.8,6.8-31,6.8-42.8-0.1c-11.9-6.8-11.9-17.9-0.1-24.7c11.8-6.8,31-6.8,42.8,0.1
					C212.5,492.2,212.6,503.3,200.8,510.1z"/>
				<path class="st3" d="M186.5,500.6c-4,2.3-10.4,2.3-14.4,0c-4-2.3-4-6,0-8.3c4-2.3,10.4-2.3,14.4,0
					C190.5,494.5,190.5,498.3,186.5,500.6z"/>
				<path class="st4" d="M200.8,509.1c-11.8,6.8-31,6.8-42.8-0.1c-5.7-3.3-8.7-7.6-8.9-11.9c-0.2,4.7,2.7,9.4,8.9,13
					c11.9,6.8,31,6.9,42.8,0.1c6.1-3.5,9-8.2,8.8-12.8C209.3,501.6,206.4,505.8,200.8,509.1z"/>
				<path class="st0" d="M209.1,501.1h-29.9v-13.1h25.4C209,492,210.5,496.7,209.1,501.1z"/>
			</g>
			<g>
				<linearGradient id="SVGID_2_" gradientUnits="userSpaceOnUse" x1="170.0187" y1="353.1275" x2="188.6087" y2="353.1275">
					<stop  offset="0" style="stop-color:#CCCCCC"/>
					<stop  offset="0.121" style="stop-color:#ADADAD"/>
					<stop  offset="0.121" style="stop-color:#F2F2F2"/>
					<stop  offset="0.1726" style="stop-color:#F2F2F2"/>
					<stop  offset="0.1885" style="stop-color:#A6A6A6"/>
					<stop  offset="0.2837" style="stop-color:#A4A4A4"/>
					<stop  offset="0.2956" style="stop-color:#666666"/>
					<stop  offset="0.4028" style="stop-color:#666666"/>
					<stop  offset="0.4187" style="stop-color:#A1A1A1"/>
					<stop  offset="0.5893" style="stop-color:#898989"/>
					<stop  offset="0.6806" style="stop-color:#999999"/>
					<stop  offset="0.7599" style="stop-color:#999999"/>
					<stop  offset="0.8433" style="stop-color:#787878"/>
					<stop  offset="1" style="stop-color:#666666"/>
				</linearGradient>
				<path class="st5" d="M188.6,208.8h-0.5c-0.4-0.8-1.2-1.5-2.2-2.1c-3.6-2.1-9.5-2.1-13.1,0c-1,0.6-1.8,1.3-2.2,2.1H170v287h0
					c0,1.3,1,2.7,2.7,3.7c3.6,2.1,9.5,2.1,13.1,0c1.8-1,2.7-2.4,2.7-3.8h0V208.8z"/>
				<path class="st6" d="M185.9,212.7c-3.6,2.1-9.5,2.1-13.1,0c-3.6-2.1-3.7-5.5,0-7.6c3.6-2.1,9.5-2.1,13.1,0
					C189.5,207.2,189.5,210.6,185.9,212.7z"/>
				<path class="st4" d="M185.9,212.4c-3.6,2.1-9.5,2.1-13.1,0c-1.8-1-2.7-2.3-2.7-3.7c-0.1,1.4,0.8,2.9,2.7,4
					c3.6,2.1,9.5,2.1,13.1,0c1.9-1.1,2.8-2.5,2.7-3.9C188.5,210.1,187.6,211.4,185.9,212.4z"/>
			</g>
		</g>
		<g>
			<linearGradient id="SVGID_3_" gradientUnits="userSpaceOnUse" x1="68.7983" y1="418.7622" x2="152.1053" y2="418.7622">
				<stop  offset="2.579370e-02" style="stop-color:#D9D9D9"/>
				<stop  offset="0.502" style="stop-color:#BFBFBF"/>
				<stop  offset="1" style="stop-color:#B3B3B3"/>
			</linearGradient>
			<path class="st7" d="M152.1,406.9h-2.3c-2-3.4-5.3-6.5-10-9.2c-16.3-9.4-42.7-9.5-58.9-0.1c-4.7,2.7-8,5.9-10,9.3h-2.1v16.3h0
				c0.2,6,4.3,12.1,12.3,16.7c16.3,9.4,42.7,9.5,58.9,0.1c8-4.6,12.1-10.7,12.1-16.8h0V406.9z"/>
			<path class="st8" d="M152.1,406.9v16.3c0,2-0.4,3.9-1.3,5.8c0,0,0,0,0,0c-1.9,1.9-4.3,3.6-7.1,5.3c-18.2,10.5-47.9,10.5-66.3-0.1
				c-2.9-1.7-5.3-3.5-7.3-5.5c-0.8-1.8-1.2-3.6-1.3-5.5v-16.3h2.1c2-3.4,5.3-6.7,10-9.3c16.2-9.4,42.6-9.3,58.9,0.1
				c4.7,2.7,8,5.9,10,9.2H152.1z"/>
			<path class="st6" d="M140,424.6c-16.2,9.4-42.6,9.3-58.9-0.1c-16.3-9.4-16.4-24.6-0.2-34c16.2-9.4,42.6-9.3,58.9,0.1
				C156.1,400,156.2,415.2,140,424.6z"/>
			<path class="st4" d="M140,423.2c-16.2,9.4-42.6,9.3-58.9-0.1c-7.9-4.6-12-10.5-12.3-16.4c-0.3,6.4,3.7,12.9,12.3,17.8
				c16.3,9.4,42.7,9.5,58.9,0.1c8.4-4.8,12.4-11.2,12.1-17.6C151.8,412.9,147.8,418.7,140,423.2z"/>
		</g>
		<g>
			<linearGradient id="SVGID_4_" gradientUnits="userSpaceOnUse" x1="57.8608" y1="406.2979" x2="163.0422" y2="406.2979">
				<stop  offset="2.579370e-02" style="stop-color:#D9D9D9"/>
				<stop  offset="0.502" style="stop-color:#BFBFBF"/>
				<stop  offset="1" style="stop-color:#B3B3B3"/>
			</linearGradient>
			<path class="st9" d="M163,395.8h-2.9c-2.5-4.3-6.7-8.3-12.6-11.7c-20.6-11.9-53.9-12-74.4-0.1c-5.9,3.4-10.1,7.5-12.6,11.8h-2.7
				v11.6h0c0.2,7.6,5.4,15.2,15.5,21.1c20.6,11.9,53.9,12,74.4,0.1c10.1-5.9,15.2-13.5,15.3-21.2h0V395.8z"/>
			<path class="st2" d="M147.8,418.2C127.3,430,94,429.9,73.4,418c-20.6-11.9-20.7-31.1-0.2-42.9c20.5-11.8,53.8-11.8,74.4,0.1
				C168.1,387.1,168.2,406.3,147.8,418.2z"/>
			<path class="st4" d="M147.8,416.4c-20.5,11.8-53.8,11.8-74.4-0.1c-10-5.7-15.1-13.2-15.5-20.7c-0.4,8.1,4.7,16.3,15.5,22.5
				c20.6,11.9,53.9,12,74.4,0.1c10.6-6.1,15.6-14.2,15.2-22.2C162.6,403.4,157.5,410.7,147.8,416.4z"/>
		</g>
		<path class="st10" d="M147.7,418.2c-1.5,0.9-3.1,1.7-4.8,2.4h-30.7v-42h40.5C168,390.6,166.3,407.4,147.7,418.2z"/>
		<g>
			<linearGradient id="SVGID_5_" gradientUnits="userSpaceOnUse" x1="63.6989" y1="388.9855" x2="157.2036" y2="388.9855">
				<stop  offset="2.579370e-02" style="stop-color:#D9D9D9"/>
				<stop  offset="0.502" style="stop-color:#BFBFBF"/>
				<stop  offset="1" style="stop-color:#B3B3B3"/>
			</linearGradient>
			<path class="st11" d="M157.2,375.7h-2.6c-2.3-3.8-6-7.3-11.2-10.4c-18.3-10.6-47.9-10.6-66.1-0.1c-5.3,3-9,6.7-11.2,10.5h-2.4
				v18.3h0c0.2,6.8,4.8,13.6,13.8,18.7c18.3,10.6,47.9,10.6,66.1,0.1c9-5.2,13.5-12,13.6-18.9h0V375.7z"/>
			<path class="st8" d="M157.2,375.7V394c0,2.2-0.5,4.4-1.4,6.5c0,0,0,0,0,0c-2.2,2.1-4.8,4.1-8,5.9c-20.4,11.8-53.8,11.8-74.4-0.1
				c-3.3-1.9-6-4-8.2-6.2c-0.9-2-1.4-4.1-1.4-6.2v-18.3h2.4c2.2-3.8,6-7.5,11.2-10.5c18.2-10.5,47.8-10.5,66.1,0.1
				c5.2,3,9,6.6,11.2,10.4H157.2z"/>
			<path class="st6" d="M143.6,395.5c-18.2,10.5-47.8,10.5-66.1-0.1c-18.3-10.6-18.4-27.7-0.2-38.2c18.2-10.5,47.8-10.5,66.1,0.1
				C161.7,367.9,161.8,385,143.6,395.5z"/>
			<path class="st4" d="M143.6,393.9c-18.2,10.5-47.8,10.5-66.1-0.1c-8.8-5.1-13.4-11.7-13.8-18.4c-0.4,7.2,4.2,14.5,13.8,20
				c18.3,10.6,47.9,10.6,66.1,0.1c9.4-5.4,13.9-12.6,13.6-19.8C156.8,382.4,152.3,388.9,143.6,393.9z"/>
		</g>
		<g>
			<linearGradient id="SVGID_6_" gradientUnits="userSpaceOnUse" x1="57.8608" y1="381.1578" x2="163.0422" y2="381.1578">
				<stop  offset="2.579370e-02" style="stop-color:#D9D9D9"/>
				<stop  offset="0.502" style="stop-color:#BFBFBF"/>
				<stop  offset="1" style="stop-color:#B3B3B3"/>
			</linearGradient>
			<path class="st12" d="M163,370.6h-2.9c-2.5-4.3-6.7-8.3-12.6-11.7c-20.6-11.9-53.9-12-74.4-0.1c-5.9,3.4-10.1,7.5-12.6,11.8h-2.7
				v11.6h0c0.2,7.6,5.4,15.2,15.5,21.1c20.6,11.9,53.9,12,74.4,0.1c10.1-5.9,15.2-13.5,15.3-21.2h0V370.6z"/>
			<path class="st2" d="M147.8,393c-20.5,11.8-53.8,11.8-74.4-0.1c-20.6-11.9-20.7-31.1-0.2-42.9c20.5-11.8,53.8-11.8,74.4,0.1
				C168.1,362,168.2,381.2,147.8,393z"/>
			<path class="st4" d="M147.8,391.2C127.3,403,94,403,73.4,391.1c-10-5.7-15.1-13.2-15.5-20.7c-0.4,8.1,4.7,16.3,15.5,22.5
				c20.6,11.9,53.9,12,74.4,0.1c10.6-6.1,15.6-14.2,15.2-22.2C162.6,378.2,157.5,385.6,147.8,391.2z"/>
			<path class="st10" d="M147.7,393c-1.7,1-3.6,1.9-5.5,2.7h-30.1v-42H153C168,365.7,166.2,382.4,147.7,393z"/>
		</g>
		<g>
			<linearGradient id="SVGID_7_" gradientUnits="userSpaceOnUse" x1="63.6989" y1="364.1138" x2="157.2036" y2="364.1138">
				<stop  offset="2.579370e-02" style="stop-color:#D9D9D9"/>
				<stop  offset="0.502" style="stop-color:#BFBFBF"/>
				<stop  offset="1" style="stop-color:#B3B3B3"/>
			</linearGradient>
			<path class="st13" d="M157.2,350.8h-2.6c-2.3-3.8-6-7.3-11.2-10.4c-18.3-10.6-47.9-10.6-66.1-0.1c-5.3,3-9,6.7-11.2,10.5h-2.4
				v18.3h0c0.2,6.8,4.8,13.6,13.8,18.7c18.3,10.6,47.9,10.6,66.1,0.1c9-5.2,13.5-12,13.6-18.9h0V350.8z"/>
			<path class="st8" d="M157.2,350.8v18.3c0,2.2-0.5,4.4-1.4,6.5c0,0,0,0,0,0c-2.2,2.1-4.8,4.1-8,5.9c-20.4,11.8-53.8,11.8-74.4-0.1
				c-3.3-1.9-6-4-8.2-6.2c-0.9-2-1.4-4.1-1.4-6.2v-18.3h2.4c2.2-3.8,6-7.5,11.2-10.5c18.2-10.5,47.8-10.5,66.1,0.1
				c5.2,3,9,6.6,11.2,10.4H157.2z"/>
			<path class="st6" d="M143.6,370.7c-18.2,10.5-47.8,10.5-66.1-0.1c-18.3-10.6-18.4-27.7-0.2-38.2c18.2-10.5,47.8-10.5,66.1,0.1
				C161.7,343.1,161.8,360.2,143.6,370.7z"/>
			<path class="st4" d="M143.6,369.1c-18.2,10.5-47.8,10.5-66.1-0.1c-8.8-5.1-13.4-11.7-13.8-18.4c-0.4,7.2,4.2,14.5,13.8,20
				c18.3,10.6,47.9,10.6,66.1,0.1c9.4-5.4,13.9-12.6,13.6-19.8C156.8,357.5,152.3,364,143.6,369.1z"/>
		</g>
		<g>
			<linearGradient id="SVGID_8_" gradientUnits="userSpaceOnUse" x1="57.8608" y1="356.198" x2="163.0422" y2="356.198">
				<stop  offset="2.579370e-02" style="stop-color:#D9D9D9"/>
				<stop  offset="0.502" style="stop-color:#BFBFBF"/>
				<stop  offset="1" style="stop-color:#B3B3B3"/>
			</linearGradient>
			<path class="st14" d="M163,345.7h-2.9c-2.5-4.3-6.7-8.3-12.6-11.7c-20.6-11.9-53.9-12-74.4-0.1c-5.9,3.4-10.1,7.5-12.6,11.8h-2.7
				v11.6h0c0.2,7.6,5.4,15.2,15.5,21.1c20.6,11.9,53.9,12,74.4,0.1c10.1-5.9,15.2-13.5,15.3-21.2h0V345.7z"/>
			<path class="st2" d="M147.8,368.1c-20.5,11.8-53.8,11.8-74.4-0.1C52.8,356,52.7,336.8,73.1,325c20.5-11.8,53.8-11.8,74.4,0.1
				C168.1,337,168.2,356.2,147.8,368.1z"/>
			<path class="st4" d="M147.8,366.3c-20.5,11.8-53.8,11.8-74.4-0.1c-10-5.7-15.1-13.2-15.5-20.7c-0.4,8.1,4.7,16.3,15.5,22.5
				c20.6,11.9,53.9,12,74.4,0.1c10.6-6.1,15.6-14.2,15.2-22.2C162.6,353.3,157.5,360.6,147.8,366.3z"/>
			<path class="st10" d="M147.7,368.1c-1.6,0.9-3.2,1.8-4.9,2.5h-30.7v-42h40.4C168,340.4,166.3,357.3,147.7,368.1z"/>
		</g>
		<g>
			<linearGradient id="SVGID_9_" gradientUnits="userSpaceOnUse" x1="63.6989" y1="338.8859" x2="157.2036" y2="338.8859">
				<stop  offset="2.579370e-02" style="stop-color:#D9D9D9"/>
				<stop  offset="0.502" style="stop-color:#BFBFBF"/>
				<stop  offset="1" style="stop-color:#B3B3B3"/>
			</linearGradient>
			<path class="st15" d="M157.2,325.6h-2.6c-2.3-3.8-6-7.3-11.2-10.4c-18.3-10.6-47.9-10.6-66.1-0.1c-5.3,3-9,6.7-11.2,10.5h-2.4
				v18.3h0c0.2,6.8,4.8,13.6,13.8,18.7c18.3,10.6,47.9,10.6,66.1,0.1c9-5.2,13.5-12,13.6-18.9h0V325.6z"/>
			<path class="st8" d="M157.2,325.6v18.3c0,2.2-0.5,4.4-1.4,6.5c0,0,0,0,0,0c-2.2,2.1-4.8,4.1-8,5.9c-20.4,11.8-53.8,11.8-74.4-0.1
				c-3.3-1.9-6-4-8.2-6.2c-0.9-2-1.4-4.1-1.4-6.2v-18.3h2.4c2.2-3.8,6-7.5,11.2-10.5c18.2-10.5,47.8-10.5,66.1,0.1
				c5.2,3,9,6.6,11.2,10.4H157.2z"/>
			<path class="st6" d="M143.6,345.4c-18.2,10.5-47.8,10.5-66.1-0.1c-18.3-10.6-18.4-27.7-0.2-38.2c18.2-10.5,47.8-10.5,66.1,0.1
				C161.7,317.8,161.8,334.9,143.6,345.4z"/>
			<path class="st4" d="M143.6,343.8c-18.2,10.5-47.8,10.5-66.1-0.1c-8.8-5.1-13.4-11.7-13.8-18.4c-0.4,7.2,4.2,14.5,13.8,20
				c18.3,10.6,47.9,10.6,66.1,0.1c9.4-5.4,13.9-12.6,13.6-19.8C156.8,332.3,152.3,338.8,143.6,343.8z"/>
		</g>
		<g>
			<linearGradient id="SVGID_10_" gradientUnits="userSpaceOnUse" x1="57.8608" y1="331.058" x2="163.0422" y2="331.058">
				<stop  offset="2.579370e-02" style="stop-color:#D9D9D9"/>
				<stop  offset="0.502" style="stop-color:#BFBFBF"/>
				<stop  offset="1" style="stop-color:#B3B3B3"/>
			</linearGradient>
			<path class="st16" d="M163,320.5h-2.9c-2.5-4.3-6.7-8.3-12.6-11.7c-20.6-11.9-53.9-12-74.4-0.1c-5.9,3.4-10.1,7.5-12.6,11.8h-2.7
				v11.6h0c0.2,7.6,5.4,15.2,15.5,21.1c20.6,11.9,53.9,12,74.4,0.1c10.1-5.9,15.2-13.5,15.3-21.2h0V320.5z"/>
			<path class="st2" d="M147.8,342.9c-20.5,11.8-53.8,11.8-74.4-0.1c-20.6-11.9-20.7-31.1-0.2-42.9c20.5-11.8,53.8-11.8,74.4,0.1
				C168.1,311.9,168.2,331.1,147.8,342.9z"/>
			<path class="st4" d="M147.8,341.1c-20.5,11.8-53.8,11.8-74.4-0.1c-10-5.7-15.1-13.2-15.5-20.7c-0.4,8.1,4.7,16.3,15.5,22.5
				c20.6,11.9,53.9,12,74.4,0.1c10.6-6.1,15.6-14.2,15.2-22.2C162.6,328.1,157.5,335.5,147.8,341.1z"/>
			<path class="st10" d="M147.7,342.9c-0.6,0.4-1.2,0.7-1.9,1h-33.7v-42h38.4C168.1,313.8,167.2,331.7,147.7,342.9z"/>
		</g>
		<g>
			<linearGradient id="SVGID_11_" gradientUnits="userSpaceOnUse" x1="63.6989" y1="307.6429" x2="157.2036" y2="307.6429">
				<stop  offset="2.579370e-02" style="stop-color:#D9D9D9"/>
				<stop  offset="0.502" style="stop-color:#BFBFBF"/>
				<stop  offset="1" style="stop-color:#B3B3B3"/>
			</linearGradient>
			<path class="st17" d="M157.2,289.7h-2.6c-2.3-3.8-6-7.3-11.2-10.4c-18.3-10.6-47.9-10.6-66.1-0.1c-5.3,3-9,6.7-11.2,10.5h-2.4
				v27.5h0c0.2,6.8,4.8,13.6,13.8,18.7c18.3,10.6,47.9,10.6,66.1,0.1c9-5.2,13.5-12,13.6-18.9h0V289.7z"/>
			<path class="st8" d="M157.2,289.3v18.3c0,2.2-0.5,4.4-1.4,6.5c0,0,0,0,0,0c-2.2,2.1-4.8,4.1-8,5.9c-20.4,11.8-53.8,11.8-74.4-0.1
				c-3.3-1.9-6-4-8.2-6.2c-0.9-2-1.4-4.1-1.4-6.2v-18.3h2.4c2.2-3.8,6-7.5,11.2-10.5c18.2-10.5,47.8-10.5,66.1,0.1
				c5.2,3,9,6.6,11.2,10.4H157.2z"/>
			<path class="st6" d="M143.6,309.6c-18.2,10.5-47.8,10.5-66.1-0.1c-18.3-10.6-18.4-27.7-0.2-38.2c18.2-10.5,47.8-10.5,66.1,0.1
				C161.7,282,161.8,299.1,143.6,309.6z"/>
			<path class="st4" d="M143.6,308c-18.2,10.5-47.8,10.5-66.1-0.1c-8.8-5.1-13.4-11.7-13.8-18.4c-0.4,7.2,4.2,14.5,13.8,20
				c18.3,10.6,47.9,10.6,66.1,0.1c9.4-5.4,13.9-12.6,13.6-19.8C156.8,296.5,152.3,303,143.6,308z"/>
		</g>
		<g>
			<linearGradient id="SVGID_12_" gradientUnits="userSpaceOnUse" x1="57.87" y1="293.9374" x2="163.0374" y2="293.9374">
				<stop  offset="2.579370e-02" style="stop-color:#D9D9D9"/>
				<stop  offset="0.502" style="stop-color:#BFBFBF"/>
				<stop  offset="1" style="stop-color:#B3B3B3"/>
			</linearGradient>
			<path class="st18" d="M162,288.2L162,288.2l-6.9-21.5l-20.8,0.3c-15.8-4.7-34.7-4.5-50.1,0.6l-18.6,0.2l-6.7,20.1h0
				c-3.2,9.6,1.6,20,14.5,27.4c20.6,11.9,53.9,12,74.4,0.1C160.6,308.1,165.3,297.7,162,288.2z"/>
			<g>
				<path class="st2" d="M142.4,288.6c-17.5,10.1-46.1,10.1-63.7-0.1c-17.7-10.2-17.7-26.7-0.2-36.8c17.5-10.1,46.1-10.1,63.7,0.1
					C159.9,262,160,278.5,142.4,288.6z"/>
			</g>
			<path class="st10" d="M148.3,284.4c-1.7,1.5-3.6,2.9-5.9,4.2c-3.9,2.2-8.3,4-13,5.2h-19.6v-9.4H148.3z"/>
			<path class="st10" d="M155,274.2h-8.3v-9.4h7.8C155.7,267.9,155.8,271,155,274.2z"/>
		</g>
		<g>
			<linearGradient id="SVGID_13_" gradientUnits="userSpaceOnUse" x1="104.8565" y1="272.3349" x2="116.0511" y2="272.3349">
				<stop  offset="0" style="stop-color:#CCCCCC"/>
				<stop  offset="0.121" style="stop-color:#ADADAD"/>
				<stop  offset="0.121" style="stop-color:#F2F2F2"/>
				<stop  offset="0.1726" style="stop-color:#F2F2F2"/>
				<stop  offset="0.1885" style="stop-color:#A6A6A6"/>
				<stop  offset="0.2837" style="stop-color:#A4A4A4"/>
				<stop  offset="0.2956" style="stop-color:#666666"/>
				<stop  offset="0.4028" style="stop-color:#666666"/>
				<stop  offset="0.4187" style="stop-color:#A1A1A1"/>
				<stop  offset="0.5893" style="stop-color:#898989"/>
				<stop  offset="0.6806" style="stop-color:#999999"/>
				<stop  offset="0.7599" style="stop-color:#999999"/>
				<stop  offset="0.8433" style="stop-color:#787878"/>
				<stop  offset="1" style="stop-color:#666666"/>
			</linearGradient>
			<path class="st19" d="M116.1,253.1h-0.3c-0.3-0.5-0.7-0.9-1.3-1.2c-2.2-1.3-5.7-1.3-7.9,0c-0.6,0.4-1.1,0.8-1.3,1.3h-0.3v37.5h0
				c0,0.8,0.6,1.6,1.7,2.2c2.2,1.3,5.7,1.3,7.9,0c1.1-0.6,1.6-1.4,1.6-2.3h0V253.1z"/>
			<path class="st6" d="M114.4,255.5c-2.2,1.3-5.7,1.3-7.9,0c-2.2-1.3-2.2-3.3,0-4.6c2.2-1.3,5.7-1.3,7.9,0S116.6,254.2,114.4,255.5
				z"/>
			<path class="st4" d="M114.4,255.3c-2.2,1.3-5.7,1.3-7.9,0c-1.1-0.6-1.6-1.4-1.6-2.2c0,0.9,0.5,1.7,1.6,2.4c2.2,1.3,5.7,1.3,7.9,0
				c1.1-0.7,1.7-1.5,1.6-2.4C116,253.9,115.5,254.7,114.4,255.3z"/>
		</g>
		<g>
			<linearGradient id="SVGID_14_" gradientUnits="userSpaceOnUse" x1="140.8241" y1="252.7457" x2="152.0187" y2="252.7457">
				<stop  offset="0" style="stop-color:#CCCCCC"/>
				<stop  offset="0.121" style="stop-color:#ADADAD"/>
				<stop  offset="0.121" style="stop-color:#F2F2F2"/>
				<stop  offset="0.1726" style="stop-color:#F2F2F2"/>
				<stop  offset="0.1885" style="stop-color:#A6A6A6"/>
				<stop  offset="0.2837" style="stop-color:#A4A4A4"/>
				<stop  offset="0.2956" style="stop-color:#666666"/>
				<stop  offset="0.4028" style="stop-color:#666666"/>
				<stop  offset="0.4187" style="stop-color:#A1A1A1"/>
				<stop  offset="0.5893" style="stop-color:#898989"/>
				<stop  offset="0.6806" style="stop-color:#999999"/>
				<stop  offset="0.7599" style="stop-color:#999999"/>
				<stop  offset="0.8433" style="stop-color:#787878"/>
				<stop  offset="1" style="stop-color:#666666"/>
			</linearGradient>
			<path class="st20" d="M152,233.5h-0.3c-0.3-0.5-0.7-0.9-1.3-1.2c-2.2-1.3-5.7-1.3-7.9,0c-0.6,0.4-1.1,0.8-1.3,1.3h-0.3V271h0
				c0,0.8,0.6,1.6,1.6,2.2c2.2,1.3,5.7,1.3,7.9,0c1.1-0.6,1.6-1.4,1.6-2.3h0V233.5z"/>
			<path class="st6" d="M150.4,235.9c-2.2,1.3-5.7,1.3-7.9,0s-2.2-3.3,0-4.6c2.2-1.3,5.7-1.3,7.9,0
				C152.6,232.6,152.6,234.6,150.4,235.9z"/>
			<path class="st4" d="M150.4,235.7c-2.2,1.3-5.7,1.3-7.9,0c-1.1-0.6-1.6-1.4-1.6-2.2c0,0.9,0.5,1.7,1.6,2.4c2.2,1.3,5.7,1.3,7.9,0
				c1.1-0.7,1.7-1.5,1.6-2.4C152,234.3,151.4,235.1,150.4,235.7z"/>
		</g>
		<g>
			<linearGradient id="SVGID_15_" gradientUnits="userSpaceOnUse" x1="68.8884" y1="252.7457" x2="80.0835" y2="252.7457">
				<stop  offset="0" style="stop-color:#CCCCCC"/>
				<stop  offset="0.121" style="stop-color:#ADADAD"/>
				<stop  offset="0.121" style="stop-color:#F2F2F2"/>
				<stop  offset="0.1726" style="stop-color:#F2F2F2"/>
				<stop  offset="0.1885" style="stop-color:#A6A6A6"/>
				<stop  offset="0.2837" style="stop-color:#A4A4A4"/>
				<stop  offset="0.2956" style="stop-color:#666666"/>
				<stop  offset="0.4028" style="stop-color:#666666"/>
				<stop  offset="0.4187" style="stop-color:#A1A1A1"/>
				<stop  offset="0.5893" style="stop-color:#898989"/>
				<stop  offset="0.6806" style="stop-color:#999999"/>
				<stop  offset="0.7599" style="stop-color:#999999"/>
				<stop  offset="0.8433" style="stop-color:#787878"/>
				<stop  offset="1" style="stop-color:#666666"/>
			</linearGradient>
			<path class="st21" d="M80.1,233.5h-0.3c-0.3-0.5-0.7-0.9-1.3-1.2c-2.2-1.3-5.7-1.3-7.9,0c-0.6,0.4-1.1,0.8-1.3,1.3h-0.3V271h0
				c0,0.8,0.6,1.6,1.6,2.2c2.2,1.3,5.7,1.3,7.9,0c1.1-0.6,1.6-1.4,1.6-2.3h0V233.5z"/>
			<path class="st6" d="M78.5,235.9c-2.2,1.3-5.7,1.3-7.9,0c-2.2-1.3-2.2-3.3,0-4.6s5.7-1.3,7.9,0C80.6,232.6,80.6,234.6,78.5,235.9
				z"/>
			<path class="st4" d="M78.5,235.7c-2.2,1.3-5.7,1.3-7.9,0c-1.1-0.6-1.6-1.4-1.6-2.2c0,0.9,0.5,1.7,1.6,2.4c2.2,1.3,5.7,1.3,7.9,0
				c1.1-0.7,1.7-1.5,1.6-2.4C80,234.3,79.5,235.1,78.5,235.7z"/>
		</g>
		<g>
			<polygon class="st2" points="190.7,137.4 267.5,93.3 289.3,105.9 212.5,150 			"/>
			<polygon class="st22" points="190.8,144.5 190.7,137.4 212.5,150 212.5,157.1 			"/>
			<polygon class="st22" points="289.3,113 289.3,105.9 212.5,150 212.5,157.1 			"/>
		</g>
		<g>
			<polygon class="st22" points="156.4,236.6 197.5,212.9 197.5,180.6 212.5,172 212.5,150 			"/>
			<polygon class="st23" points="190.7,137.4 212.5,150 156.4,236.6 134.6,224.1 			"/>
		</g>
		<g>
			<g>
				<linearGradient id="SVGID_16_" gradientUnits="userSpaceOnUse" x1="51.9543" y1="233.3695" x2="168.9488" y2="233.3695">
					<stop  offset="0.2736" style="stop-color:#4D4D4D"/>
					<stop  offset="0.2778" style="stop-color:#333333"/>
					<stop  offset="0.7866" style="stop-color:#333333"/>
					<stop  offset="0.7942" style="stop-color:#1A1A1A"/>
				</linearGradient>
				<path class="st24" d="M168.9,221.7h-3.2c-2.8-4.7-7.5-9.2-14.1-13c-22.9-13.2-60-13.3-82.7-0.1c-6.6,3.8-11.3,8.3-14,13.1h-3
					v12.9h0c0.2,8.5,6,17,17.2,23.5c22.9,13.2,60,13.3,82.7,0.2c11.3-6.5,16.9-15,17-23.6h0V221.7z"/>
				<path class="st3" d="M151.9,246.6c-22.8,13.1-59.8,13.1-82.7-0.1c-22.9-13.2-23-34.6-0.3-47.8c22.8-13.1,59.8-13.1,82.7,0.1
					C174.6,212,174.7,233.4,151.9,246.6z"/>
				<path class="st25" d="M151.9,244.6c-22.8,13.1-59.8,13.1-82.7-0.1c-11.1-6.4-16.8-14.7-17.2-23c-0.5,9,5.3,18.1,17.2,25
					c22.9,13.2,60,13.3,82.7,0.1c11.8-6.8,17.4-15.8,17-24.7C168.5,230.1,162.8,238.3,151.9,244.6z"/>
				<path class="st25" d="M151.9,246.6c-3.2,1.8-6.7,3.4-10.4,4.8h-26.4v-52.6h36.4c0,0,0.1,0,0.2,0.1
					C174.6,212,174.7,233.4,151.9,246.6z"/>
			</g>
			<g>
				<linearGradient id="SVGID_17_" gradientUnits="userSpaceOnUse" x1="57.3996" y1="194.6481" x2="163.5088" y2="194.6481">
					<stop  offset="0.2736" style="stop-color:#4D4D4D"/>
					<stop  offset="0.2778" style="stop-color:#333333"/>
					<stop  offset="0.7866" style="stop-color:#333333"/>
					<stop  offset="0.7942" style="stop-color:#1A1A1A"/>
				</linearGradient>
				<path class="st26" d="M162.5,215.1L162.5,215.1l-7-74.1l-21,0.3c-15.9-4.7-35-4.5-50.6,0.6L65.2,142l-6.8,72.8h0
					c-3.3,9.7,1.6,20.1,14.7,27.7c20.8,12,54.4,12.1,75,0.1C161,235.1,165.8,224.7,162.5,215.1z"/>
				<g>
					<path class="st3" d="M142.7,163c-17.7,10.2-46.5,10.2-64.3-0.1c-17.8-10.3-17.9-26.9-0.2-37.1c17.7-10.2,46.5-10.2,64.3,0.1
						C160.3,136.2,160.4,152.8,142.7,163z"/>
					<path class="st27" d="M110.7,166.5c-11.5,0-22.2-2.6-30.3-7.2c-7.3-4.2-11.4-9.6-11.4-15.1c0-5.5,4-10.8,11.2-14.9
						c7.9-4.6,18.5-7.1,29.9-7.1c11.5,0,22.3,2.6,30.3,7.2c7.3,4.2,11.4,9.6,11.4,15.1c0,5.5-4,10.8-11.2,14.9
						C132.7,164,122.1,166.5,110.7,166.5z"/>
					<linearGradient id="SVGID_18_" gradientUnits="userSpaceOnUse" x1="69.0736" y1="134.8799" x2="151.8306" y2="134.8799">
						<stop  offset="0.2058" style="stop-color:#1A1A1A"/>
						<stop  offset="0.2134" style="stop-color:#333333"/>
						<stop  offset="0.7222" style="stop-color:#333333"/>
						<stop  offset="0.7264" style="stop-color:#4D4D4D"/>
					</linearGradient>
					<path class="st28" d="M80.2,135.3c7.9-4.6,18.5-7.1,29.9-7.1c11.5,0,22.3,2.6,30.3,7.2c6,3.5,9.7,7.7,10.9,12.1
						c0.3-1,0.4-2,0.4-3c0-5.5-4-10.9-11.4-15.1c-8-4.6-18.8-7.2-30.3-7.2c-11.4,0-22,2.5-29.9,7.1c-7.2,4.2-11.2,9.5-11.2,14.9
						c0,1,0.2,2,0.4,3C70.7,142.8,74.4,138.7,80.2,135.3z"/>
				</g>
			</g>
		</g>
		<g>
			<g>
				<g>
					<polygon class="st22" points="56.9,355.5 54.4,355.1 76,272.8 78.5,273.2 					"/>
					<polygon class="st23" points="54.4,355.1 1.6,324.6 23.2,242.3 76,272.8 					"/>
					<g>
						<path class="st22" d="M29.7,252.2c-0.4,1.9-2.1,2.9-3.7,2.4c-1.7-0.6-2.7-2.5-2.3-4.4c0.4-1.9,2.1-2.9,3.7-2.4
							C29.1,248.3,30.1,250.3,29.7,252.2z"/>
						<path class="st29" d="M28.4,251.4c-0.3,1.4-1.5,2.1-2.7,1.7c-1.2-0.4-1.9-1.9-1.6-3.2c0.3-1.4,1.5-2.1,2.7-1.7
							C27.9,248.6,28.7,250.1,28.4,251.4z"/>
					</g>
					<path class="st30" d="M11.7,318.1l15.7-59.7c0.5-1.8,2.6-2.7,4.3-1.8l32.6,18.8c1.4,0.8,2,2.4,1.6,3.9L50.2,339
						c-0.5,1.8-2.6,2.7-4.3,1.8L13.3,322C12,321.2,11.3,319.6,11.7,318.1z"/>
					<polygon class="st23" points="57.8,309.9 57.4,311.4 19.3,289.4 19.7,287.9 					"/>
					<g>
						<polygon class="st23" points="38.7,260.6 21.4,326.6 20.1,325.9 37.5,259.9 						"/>
						<polygon class="st23" points="48.2,266.1 30.9,332.1 29.7,331.4 47,265.4 						"/>
						<polygon class="st23" points="57.8,271.6 40.5,337.6 39.2,337 56.6,271 						"/>
					</g>
				</g>
				<g>
					<path class="st22" d="M54.9,348.3c-0.4,1.9-2.1,2.9-3.7,2.4c-1.7-0.6-2.7-2.5-2.3-4.4c0.4-1.9,2.1-2.9,3.7-2.4
						C54.3,344.5,55.3,346.5,54.9,348.3z"/>
					<path class="st29" d="M53.7,347.6c-0.3,1.4-1.5,2.1-2.7,1.7c-1.2-0.4-1.9-1.9-1.6-3.2c0.3-1.4,1.5-2.1,2.7-1.7
						C53.2,344.8,54,346.2,53.7,347.6z"/>
				</g>
				<g>
					<path class="st22" d="M73.7,276.8c-0.4,1.9-2.1,2.9-3.7,2.4c-1.7-0.6-2.7-2.5-2.3-4.4c0.4-1.9,2.1-2.9,3.7-2.4
						C73.1,272.9,74.1,274.9,73.7,276.8z"/>
					<path class="st29" d="M72.4,276c-0.3,1.4-1.5,2.1-2.7,1.7c-1.2-0.4-1.9-1.9-1.6-3.2s1.5-2.1,2.7-1.7
						C71.9,273.2,72.7,274.7,72.4,276z"/>
				</g>
				<g>
					<path class="st22" d="M9.8,322.9c-0.4,1.9-2.1,2.9-3.7,2.4c-1.7-0.6-2.7-2.5-2.3-4.4c0.4-1.9,2.1-2.9,3.7-2.4
						C9.2,319.1,10.2,321,9.8,322.9z"/>
					<path class="st29" d="M8.5,322.2c-0.3,1.4-1.5,2.1-2.7,1.7c-1.2-0.4-1.9-1.9-1.6-3.2c0.3-1.4,1.5-2.1,2.7-1.7
						S8.8,320.8,8.5,322.2z"/>
				</g>
				<path class="st31" d="M65.9,279.3L50.2,339c-0.5,1.8-2.6,2.7-4.2,1.8L13.3,322c-0.6-0.3-1.1-0.9-1.3-1.5l-0.4-1.6v0l54.1-41.7
					C66,277.8,66.1,278.6,65.9,279.3z"/>
			</g>
			<g>
				<g>
					<polygon class="st23" points="82.1,243.1 30.4,213.3 30.4,199.3 82.1,229.1 					"/>
					<polygon class="st22" points="88.3,239.5 82.1,243.1 82.1,229.1 88.3,225.5 					"/>
					<polygon class="st2" points="36.6,195.7 30.4,199.3 82.1,229.1 88.3,225.5 					"/>
				</g>
				<g>
					<polygon class="st23" points="70.7,277.7 19,247.8 19,167.1 70.7,196.9 					"/>
					<polygon class="st22" points="66.9,200.5 70.7,213.8 70.7,277.7 51.5,266.4 					"/>
					<polygon class="st22" points="82.2,271.1 70.7,277.7 70.7,196.9 82.2,190.4 					"/>
					<polygon class="st2" points="30.5,160.5 19,167.1 70.7,196.9 82.2,190.4 					"/>
				</g>
				<g>
					<polygon class="st23" points="61.6,272.6 17.4,247.1 17.4,178 61.6,203.6 					"/>
					<polygon class="st30" points="21.5,208.2 21.5,185.1 57.5,205.9 57.5,229 					"/>
					<g>
						<polygon class="st23" points="57.5,217 57.5,217.8 21.5,197 21.5,196.1 						"/>
						<g>
							<polygon class="st23" points="30.6,190.3 30.6,213.5 29.9,213.1 29.9,189.9 							"/>
							<polygon class="st23" points="39.8,195.7 39.8,218.8 39.1,218.4 39.1,195.2 							"/>
							<polygon class="st23" points="49,201 49,224.1 48.3,223.7 48.3,200.5 							"/>
						</g>
					</g>
					<polygon class="st2" points="22.5,207.8 22.5,185.7 21.5,185.1 21.5,208.2 57.5,229 57.5,228 					"/>
					<polygon class="st22" points="21.5,208.2 22.5,207.8 22.5,185.7 21.5,185.1 					"/>
					<polygon class="st22" points="66.9,269.6 61.6,272.6 61.6,203.6 66.9,200.5 					"/>
					<polygon class="st2" points="22.7,175 17.4,178 61.6,203.6 66.9,200.5 					"/>
				</g>
				<polygon class="st31" points="57.5,205.9 22.5,207.8 57.5,228 				"/>
			</g>
		</g>
		<g>
			<g>
				<linearGradient id="SVGID_19_" gradientUnits="userSpaceOnUse" x1="248.9263" y1="103.9762" x2="283.4899" y2="103.9762">
					<stop  offset="0.2736" style="stop-color:#4D4D4D"/>
					<stop  offset="0.2778" style="stop-color:#333333"/>
					<stop  offset="0.7866" style="stop-color:#333333"/>
					<stop  offset="0.7942" style="stop-color:#1A1A1A"/>
				</linearGradient>
				<path class="st32" d="M283.5,100.5h-0.9c-0.8-1.4-2.2-2.7-4.2-3.8c-6.8-3.9-17.7-3.9-24.4,0c-2,1.1-3.3,2.5-4.1,3.9h-0.9v3.8h0
					c0.1,2.5,1.8,5,5.1,6.9c6.8,3.9,17.7,3.9,24.4,0c3.3-1.9,5-4.4,5-7h0V100.5z"/>
				<path class="st3" d="M278.5,107.9c-6.7,3.9-17.7,3.9-24.4,0c-6.8-3.9-6.8-10.2-0.1-14.1c6.7-3.9,17.7-3.9,24.4,0
					S285.2,104,278.5,107.9z"/>
				<path class="st33" d="M282.4,100.5c-0.8,0.5-2.1,0.5-2.9,0c-0.8-0.5-0.8-1.2,0-1.7c0.8-0.5,2.1-0.5,2.9,0
					C283.2,99.3,283.2,100,282.4,100.5z"/>
				<path class="st33" d="M267.9,109.6c-0.8,0.5-2.1,0.5-2.9,0c-0.8-0.5-0.8-1.2,0-1.7c0.8-0.5,2.1-0.5,2.9,0
					C268.7,108.4,268.7,109.1,267.9,109.6z"/>
				<path class="st33" d="M253,100.5c-0.8,0.5-2.1,0.5-2.9,0c-0.8-0.5-0.8-1.2,0-1.7c0.8-0.5,2.1-0.5,2.9,0
					C253.7,99.3,253.7,100,253,100.5z"/>
				<path class="st25" d="M278.5,107.3c-6.7,3.9-17.7,3.9-24.4,0c-3.3-1.9-5-4.3-5.1-6.8c-0.1,2.7,1.6,5.4,5.1,7.4
					c6.8,3.9,17.7,3.9,24.4,0c3.5-2,5.1-4.7,5-7.3C283.4,103,281.7,105.4,278.5,107.3z"/>
			</g>
			<path class="st25" d="M280,106.9h-13.4V90.8c4.3,0.1,8.5,1.1,11.8,2.9C284.6,97.4,285.1,103,280,106.9z"/>
			<g>
				<linearGradient id="SVGID_20_" gradientUnits="userSpaceOnUse" x1="253.8512" y1="84.9794" x2="278.5644" y2="84.9794">
					<stop  offset="0" style="stop-color:#CCCCCC"/>
					<stop  offset="0.121" style="stop-color:#ADADAD"/>
					<stop  offset="0.121" style="stop-color:#F2F2F2"/>
					<stop  offset="0.1726" style="stop-color:#F2F2F2"/>
					<stop  offset="0.1885" style="stop-color:#A6A6A6"/>
					<stop  offset="0.2837" style="stop-color:#A4A4A4"/>
					<stop  offset="0.2956" style="stop-color:#666666"/>
					<stop  offset="0.4028" style="stop-color:#666666"/>
					<stop  offset="0.4187" style="stop-color:#A1A1A1"/>
					<stop  offset="0.5893" style="stop-color:#898989"/>
					<stop  offset="0.6806" style="stop-color:#999999"/>
					<stop  offset="0.7599" style="stop-color:#999999"/>
					<stop  offset="0.8433" style="stop-color:#787878"/>
					<stop  offset="1" style="stop-color:#666666"/>
				</linearGradient>
				<path class="st34" d="M278.6,67.9h-0.7c-0.6-1-1.6-1.9-3-2.7c-4.8-2.8-12.7-2.8-17.5,0c-1.4,0.8-2.4,1.8-3,2.8h-0.6v31.9h0
					c0.1,1.8,1.3,3.6,3.6,5c4.8,2.8,12.7,2.8,17.5,0c2.4-1.4,3.6-3.2,3.6-5h0V67.9z"/>
				<path class="st25" d="M278.6,67.9v10.4c-0.6,0.7-1.4,1.3-2.4,1.8c-5.5,3.2-14.4,3.1-19.9,0c-1-0.6-1.8-1.2-2.4-1.9V67.9h0.6
					c0.6-1,1.6-2,3-2.8c4.8-2.8,12.6-2.8,17.5,0c1.4,0.8,2.4,1.7,3,2.7H278.6z"/>
				<path class="st3" d="M275,73.2c-4.8,2.8-12.6,2.8-17.5,0c-4.8-2.8-4.9-7.3-0.1-10.1c4.8-2.8,12.6-2.8,17.5,0
					C279.8,65.9,279.8,70.4,275,73.2z"/>
				<path class="st25" d="M275,72.8c-4.8,2.8-12.6,2.8-17.5,0c-2.3-1.4-3.6-3.1-3.6-4.9c-0.1,1.9,1.1,3.8,3.6,5.3
					c4.8,2.8,12.7,2.8,17.5,0c2.5-1.4,3.7-3.3,3.6-5.2C278.5,69.7,277.3,71.4,275,72.8z"/>
			</g>
			<g>
				<linearGradient id="SVGID_21_" gradientUnits="userSpaceOnUse" x1="252.1298" y1="68.4711" x2="280.2858" y2="68.4711">
					<stop  offset="0" style="stop-color:#CCCCCC"/>
					<stop  offset="0.121" style="stop-color:#ADADAD"/>
					<stop  offset="0.121" style="stop-color:#F2F2F2"/>
					<stop  offset="0.1726" style="stop-color:#F2F2F2"/>
					<stop  offset="0.1885" style="stop-color:#A6A6A6"/>
					<stop  offset="0.2837" style="stop-color:#A4A4A4"/>
					<stop  offset="0.2956" style="stop-color:#666666"/>
					<stop  offset="0.4028" style="stop-color:#666666"/>
					<stop  offset="0.4187" style="stop-color:#A1A1A1"/>
					<stop  offset="0.5893" style="stop-color:#898989"/>
					<stop  offset="0.6806" style="stop-color:#999999"/>
					<stop  offset="0.7599" style="stop-color:#999999"/>
					<stop  offset="0.8433" style="stop-color:#787878"/>
					<stop  offset="1" style="stop-color:#666666"/>
				</linearGradient>
				<path class="st35" d="M280.3,61.7h-0.8c-0.7-1.1-1.8-2.2-3.4-3.1c-5.5-3.2-14.4-3.2-19.9,0c-1.6,0.9-2.7,2-3.4,3.2h-0.7v11.1h0
					c0.1,2,1.4,4.1,4.1,5.6c5.5,3.2,14.4,3.2,19.9,0c2.7-1.6,4.1-3.6,4.1-5.7h0V61.7z"/>
				<path class="st2" d="M276.2,67.7c-5.5,3.2-14.4,3.1-19.9,0c-5.5-3.2-5.5-8.3-0.1-11.5c5.5-3.2,14.4-3.1,19.9,0
					S281.7,64.5,276.2,67.7z"/>
				<path class="st25" d="M276.2,67.2c-5.5,3.2-14.4,3.1-19.9,0c-2.7-1.5-4-3.5-4.1-5.5c-0.1,2.2,1.3,4.4,4.1,6
					c5.5,3.2,14.4,3.2,19.9,0c2.8-1.6,4.2-3.8,4.1-5.9C280.2,63.7,278.8,65.7,276.2,67.2z"/>
			</g>
			<path class="st25" d="M278.2,66.2h-11.6V53.8c3.4,0.1,6.8,0.9,9.5,2.4C280.8,58.9,281.6,63,278.2,66.2z"/>
			<g>
				<linearGradient id="SVGID_22_" gradientUnits="userSpaceOnUse" x1="256.6682" y1="57.8095" x2="275.7479" y2="57.8095">
					<stop  offset="0.2736" style="stop-color:#4D4D4D"/>
					<stop  offset="0.2778" style="stop-color:#333333"/>
					<stop  offset="0.7866" style="stop-color:#333333"/>
					<stop  offset="0.7942" style="stop-color:#1A1A1A"/>
				</linearGradient>
				<path class="st36" d="M275.7,53.2h-0.5c-0.5-0.8-1.2-1.5-2.3-2.1c-3.7-2.2-9.8-2.2-13.5,0c-1.1,0.6-1.8,1.4-2.3,2.1h-0.5v7.5h0
					c0,1.4,1,2.8,2.8,3.8c3.7,2.2,9.8,2.2,13.5,0c1.8-1.1,2.8-2.5,2.8-3.8h0V53.2z"/>
				<path class="st25" d="M275.7,53.2v7.5c0,0.4-0.1,0.8-0.2,1.1c-5.3,2.7-13.3,2.7-18.6-0.1c-0.1-0.3-0.2-0.7-0.2-1.1v-7.5h0.5
					c0.5-0.8,1.2-1.5,2.3-2.1c3.7-2.1,9.8-2.1,13.5,0c1.1,0.6,1.8,1.3,2.3,2.1H275.7z"/>
				<path class="st3" d="M273,57.3c-3.7,2.1-9.8,2.1-13.5,0c-3.7-2.2-3.8-5.6,0-7.8c3.7-2.1,9.8-2.1,13.5,0
					C276.7,51.6,276.7,55.1,273,57.3z"/>
				<path class="st25" d="M273,56.9c-3.7,2.1-9.8,2.1-13.5,0c-1.8-1-2.7-2.4-2.8-3.8c-0.1,1.5,0.9,3,2.8,4.1c3.7,2.2,9.8,2.2,13.5,0
					c1.9-1.1,2.8-2.6,2.8-4C275.7,54.6,274.8,55.9,273,56.9z"/>
			</g>
			<g>
				<linearGradient id="SVGID_23_" gradientUnits="userSpaceOnUse" x1="252.1298" y1="50.6449" x2="280.2858" y2="50.6449">
					<stop  offset="0" style="stop-color:#CCCCCC"/>
					<stop  offset="0.121" style="stop-color:#ADADAD"/>
					<stop  offset="0.121" style="stop-color:#F2F2F2"/>
					<stop  offset="0.1726" style="stop-color:#F2F2F2"/>
					<stop  offset="0.1885" style="stop-color:#A6A6A6"/>
					<stop  offset="0.2837" style="stop-color:#A4A4A4"/>
					<stop  offset="0.2956" style="stop-color:#666666"/>
					<stop  offset="0.4028" style="stop-color:#666666"/>
					<stop  offset="0.4187" style="stop-color:#A1A1A1"/>
					<stop  offset="0.5893" style="stop-color:#898989"/>
					<stop  offset="0.6806" style="stop-color:#999999"/>
					<stop  offset="0.7599" style="stop-color:#999999"/>
					<stop  offset="0.8433" style="stop-color:#787878"/>
					<stop  offset="1" style="stop-color:#666666"/>
				</linearGradient>
				<path class="st37" d="M280.3,43.8h-0.8c-0.7-1.1-1.8-2.2-3.4-3.1c-5.5-3.2-14.4-3.2-19.9,0c-1.6,0.9-2.7,2-3.4,3.2h-0.7v11.1h0
					c0.1,2,1.4,4.1,4.1,5.6c5.5,3.2,14.4,3.2,19.9,0c2.7-1.6,4.1-3.6,4.1-5.7h0V43.8z"/>
				<path class="st3" d="M276.2,49.8c-5.5,3.2-14.4,3.1-19.9,0c-5.5-3.2-5.5-8.3-0.1-11.5c5.5-3.2,14.4-3.1,19.9,0
					S281.7,46.7,276.2,49.8z"/>
				<path class="st25" d="M276.2,49.3c-5.5,3.2-14.4,3.1-19.9,0c-2.7-1.5-4-3.5-4.1-5.5c-0.1,2.2,1.3,4.4,4.1,6
					c5.5,3.2,14.4,3.2,19.9,0c2.8-1.6,4.2-3.8,4.1-5.9C280.2,45.9,278.8,47.8,276.2,49.3z"/>
			</g>
			<g>
				<polygon class="st38" points="226.8,52.3 268.1,52.3 290.8,64.9 297.5,61.4 280.6,40.3 289.5,30.9 284.8,25.9 252.5,41.9 
					223.3,44.6 				"/>
				<polygon class="st3" points="226.8,50.3 268.1,50.3 290.8,63 297.5,59.4 280.6,38.4 289.5,28.9 284.8,24 252.5,39.9 223.3,42.6 
									"/>
				<g>
					<path class="st3" d="M313.9,13.9c-0.4,7.8-2.7,15.2-8.7,20.5c-1.1,1-2.4,1.9-3.8,2.2c-1,0.2-2.1,0.2-3.3,0c-0.1,0-0.2,0-0.2,0
						c-0.6-0.1-1.1-0.3-1.6-0.5c-7.2-2.5-12.3-9.3-12.3-17.3c0-10.2,8.3-18.4,18.6-18.4c0.9,0,1.8,0.1,2.6,0.2
						c0.9,0.1,1.8,0.3,2.6,0.6c0.8,0.3,1.5,0.7,2.1,1.2c1.7,1.3,2.4,2.8,3.1,4.8C313.8,9.3,314,11.6,313.9,13.9z"/>
					<linearGradient id="SVGID_24_" gradientUnits="userSpaceOnUse" x1="293.5064" y1="13.1483" x2="311.3491" y2="24.4048">
						<stop  offset="0" style="stop-color:#1A1A1A"/>
						<stop  offset="1" style="stop-color:#666666"/>
					</linearGradient>
					<path class="st39" d="M313.9,13.9c-0.4,7.8-2.7,15.2-8.7,20.5c-1.1,1-2.4,1.9-3.8,2.2c-1,0.2-2.1,0.2-3.3,0c-0.1,0-0.2,0-0.2,0
						c-0.6-0.1-1.1-0.3-1.6-0.5c-1-0.4-1.8-1.1-2.4-2c-2.1-3.6-2.7-7.9-2.4-12.1c0.2-3.1,0.7-6.2,1.6-9.2c1-3.1,2.6-5.7,4.8-8.1
						c1-1.1,2.2-2.4,3.5-3.2c1.2-0.7,2.5-1.1,3.8-1c0.9,0,1.8,0.2,2.6,0.6c0.8,0.3,1.5,0.7,2.1,1.2c1.7,1.3,2.4,2.8,3.1,4.8
						C313.8,9.3,314,11.6,313.9,13.9z"/>
				</g>
				<g>
					<path class="st40" d="M288.4,57.6c0.4,8.7,3,17.1,9.7,23.1c1.3,1.1,2.7,2.1,4.3,2.5c1.1,0.2,2.4,0.3,3.7,0c0.1,0,0.2,0,0.3-0.1
						c0.6-0.2,1.2-0.3,1.8-0.6c8.1-2.9,13.8-10.5,13.8-19.5c0-11.4-9.4-20.7-20.9-20.7c-1,0-2,0.1-2.9,0.2c-1,0.1-2,0.4-3,0.6
						c-0.9,0.3-1.7,0.8-2.4,1.4c-1.9,1.5-2.7,3.2-3.5,5.4C288.6,52.4,288.3,55,288.4,57.6z"/>
					<linearGradient id="SVGID_25_" gradientUnits="userSpaceOnUse" x1="296.8658" y1="44.4803" x2="305.807" y2="82.9594">
						<stop  offset="0" style="stop-color:#333333"/>
						<stop  offset="1" style="stop-color:#666666"/>
					</linearGradient>
					<path class="st41" d="M288.4,57.6c0.4,8.7,3,17.1,9.7,23.1c1.3,1.1,2.7,2.1,4.3,2.5c1.1,0.2,2.4,0.3,3.7,0c0.1,0,0.2,0,0.3-0.1
						c0.6-0.1,1.3-0.3,1.8-0.6c1.1-0.5,2.1-1.2,2.7-2.2c2.4-4.1,3-8.9,2.7-13.6c-0.2-3.5-0.8-7-1.8-10.3c-1.1-3.5-2.9-6.4-5.3-9.1
						c-1.2-1.3-2.4-2.7-3.9-3.6c-1.3-0.8-2.8-1.2-4.2-1.1c-1,0-2,0.2-3,0.6c-0.9,0.3-1.7,0.8-2.4,1.4c-1.9,1.5-2.7,3.2-3.5,5.4
						C288.6,52.4,288.3,55,288.4,57.6z"/>
				</g>
				<g>
					<circle class="st33" cx="210.9" cy="46.5" r="18.4"/>
					<path class="st30" d="M226.7,44.9c0,9.1-7.4,16.4-16.4,16.4s-16.4-7.4-16.4-16.4s7.4-16.4,16.4-16.4S226.7,35.9,226.7,44.9z"/>
					<path class="st3" d="M218.9,42.2c0,6.6-5.3,11.9-11.9,11.9c-6.6,0-11.9-5.3-11.9-11.9s5.3-11.9,11.9-11.9
						C213.5,30.3,218.9,35.7,218.9,42.2z"/>
					<circle class="st0" cx="200" cy="36.2" r="2.1"/>
					<path class="st0" d="M198.5,38.5c0,0.5-0.4,0.9-0.9,0.9c-0.5,0-0.9-0.4-0.9-0.9c0-0.5,0.4-0.9,0.9-0.9
						C198.1,37.5,198.5,37.9,198.5,38.5z"/>
				</g>
				<path class="st38" d="M263.4,40.7c-1,0.6-2.5,0.6-3.5,0c-1-0.6-1-1.5,0-2c1-0.6,2.5-0.6,3.5,0C264.3,39.3,264.4,40.2,263.4,40.7
					z"/>
				<path class="st38" d="M278.6,42.2c-1,0.6-2.5,0.6-3.5,0c-1-0.6-1-1.5,0-2s2.5-0.6,3.5,0C279.6,40.7,279.6,41.6,278.6,42.2z"/>
				<path class="st38" d="M270.3,48.9c-1,0.6-2.5,0.6-3.5,0c-1-0.6-1-1.5,0-2s2.5-0.6,3.5,0C271.3,47.5,271.3,48.4,270.3,48.9z"/>
			</g>
		</g>
	</g>
</g>
</svg>
