<?xml version="1.0" encoding="utf-8"?>
<!-- Generator: Adobe Illustrator 24.0.2, SVG Export Plug-In . SVG Version: 6.00 Build 0)  -->
<svg version="1.1" xmlns="http://www.w3.org/2000/svg" xmlns:xlink="http://www.w3.org/1999/xlink" x="0px" y="0px"
	 viewBox="0 0 1840 1360.1" style="enable-background:new 0 0 1840 1360.1;" xml:space="preserve">
<style type="text/css">
	.st0{fill:#FCA07C;}
	.st1{fill:#E5916D;}
	.st2{fill:#A63744;}
	.st3{fill:#842C37;}
	.st4{fill:#FEEDC5;}
	.st5{fill:#FBD5A2;}
	.st6{fill:#FFFFFF;}
	.st7{fill:#4F4554;}
	.st8{fill:#2D2730;}
	.st9{fill:#9DD65F;}
	.st10{fill:#FCD2BA;}
	.st11{fill:#FCE2D4;}
</style>
<g id="Layer_5">
</g>
<g id="Layer_9">
</g>
<g id="Layer_2">
</g>
<g id="Layer_10">
</g>
<g id="Layer_7">
</g>
<g id="Layer_6">
	<rect x="331.8" y="1091" class="st0" width="196.6" height="227.4"/>
	<path class="st0" d="M505.8,1030.1v60.9H326.3c-61,0-110.4-49.4-110.4-110.4V812.4h72.1C408.4,812.4,505.8,909.9,505.8,1030.1z"/>
	<path class="st0" d="M615.6,987.2c0,20-5.6,38.7-15.2,54.7c-18.5,30.7-52.2,51.2-90.6,51.2H368.1V814.4h247.5V987.2z"/>
	<path class="st1" d="M615.6,987.2c0,20-5.6,38.7-15.2,54.7H459.1c-50.3,0-91-40.7-91-91V814.4h247.5V987.2z"/>
	<path class="st0" d="M290.8,784.8v114.6H216V784.8c0-20.7,16.7-37.4,37.4-37.4h0C274,747.4,290.8,764.2,290.8,784.8z"/>
	<path class="st1" d="M382.9,1142.1v176.3h-51.1V1091C360.1,1091,382.9,1113.9,382.9,1142.1z"/>
	<g>
		<rect x="251.9" y="1262.4" class="st2" width="340.4" height="97.7"/>
	</g>
	<g>
		<rect x="251.9" y="1262.4" class="st3" width="47" height="97.7"/>
	</g>
	<g>
		<path class="st4" d="M1189.4,876.4V265.2c0-21.6-17.9-39.2-39.8-39.2H322.2c-12.1,0-22.9,5.3-30.2,13.7c-6,6.9-9.6,15.8-9.6,25.5
			v611.2c0,21.6,17.8,39.2,39.8,39.2h827.4c4,0,7.9-0.6,11.5-1.7C1177.5,909,1189.4,894.1,1189.4,876.4z"/>
	</g>
	<g>
		<path class="st5" d="M291.9,239.6c-6,6.9-9.6,15.8-9.6,25.5v611.2c0,21.6,17.8,39.2,39.8,39.2h827.4c4,0,7.9-0.6,11.5-1.7
			L291.9,239.6z"/>
	</g>
	<g>
		<path class="st6" d="M1183.5,875.2V266.4c0-19.1-15.5-34.6-34.6-34.6H322.8c-19.1,0-34.6,15.5-34.6,34.6v608.8
			c0,19.1,15.5,34.6,34.6,34.6h826.1C1168,909.8,1183.5,894.3,1183.5,875.2z"/>
	</g>
	<path class="st7" d="M1150.6,884.7H324.5c-5.8,0-10.5-4.7-10.5-10.5V267.3c0-5.8,4.7-10.5,10.5-10.5h826.1
		c5.8,0,10.5,4.7,10.5,10.5v606.9C1161.1,880,1156.4,884.7,1150.6,884.7z"/>
	<g>
		<path class="st8" d="M591.6,602.9H409c-11.3,0-20.5-9.2-20.5-20.5V399.7c0-11.3,9.2-20.5,20.5-20.5h182.7
			c11.3,0,20.5,9.2,20.5,20.5v182.7C612.2,593.7,603,602.9,591.6,602.9z"/>
		<g>
			<g>
				<rect x="467.6" y="540.5" class="st6" width="61.6" height="8.3"/>
				<rect x="467.6" y="555.5" class="st6" width="61.6" height="8.3"/>
			</g>
			<g>
				<path class="st9" d="M498.4,526.4c-21.9,0-39.8-17.8-39.8-39.8c0-19.8,28.6-50.9,34.3-56.9l5.4-5.7l5.4,5.7
					c5.7,6,34.3,37.1,34.3,56.9C538.1,508.6,520.3,526.4,498.4,526.4z M498.4,446c-11.7,13.4-24.8,31.8-24.8,40.6
					c0,13.7,11.1,24.8,24.8,24.8c13.7,0,24.8-11.1,24.8-24.8C523.2,477.8,510.1,459.4,498.4,446z"/>
			</g>
		</g>
	</g>
	<g>
		<path class="st8" d="M1065.1,602.9H882.4c-11.3,0-20.5-9.2-20.5-20.5V399.7c0-11.3,9.2-20.5,20.5-20.5h182.7
			c11.3,0,20.5,9.2,20.5,20.5v182.7C1085.6,593.7,1076.4,602.9,1065.1,602.9z"/>
		<g>
			<g>
				<rect x="941.5" y="553.2" class="st6" width="60.6" height="8.1"/>
				<rect x="941.5" y="568" class="st6" width="60.6" height="8.1"/>
			</g>
			<g>
				<g>
					<path class="st9" d="M971.8,534.6c-18.2,0-33-14.8-33-33c0-10.2,4.6-19.5,12.4-25.7v-66.7h41.3v66.7
						c7.8,6.2,12.4,15.6,12.4,25.7C1004.9,519.8,990.1,534.6,971.8,534.6z M965.9,423.8v60l-3.5,2.1c-5.5,3.4-8.8,9.2-8.8,15.6
						c0,10.1,8.2,18.3,18.3,18.3c10.1,0,18.3-8.2,18.3-18.3c0-6.4-3.3-12.3-8.8-15.6l-3.5-2.2v-60H965.9z"/>
				</g>
				<path class="st9" d="M995.5,501.7c0,13-10.6,23.6-23.6,23.6s-23.6-10.6-23.6-23.6H995.5z"/>
			</g>
		</g>
	</g>
	<g>
		<path class="st8" d="M828.8,839.2H646.2c-11.3,0-20.5-9.2-20.5-20.5V636c0-11.3,9.2-20.5,20.5-20.5h182.7
			c11.3,0,20.5,9.2,20.5,20.5v182.7C849.4,830,840.2,839.2,828.8,839.2z"/>
		<g>
			<g>
				<rect x="707.5" y="789.9" class="st6" width="56.2" height="7.5"/>
				<rect x="707.5" y="803.6" class="st6" width="56.2" height="7.5"/>
			</g>
			<g>
				<g>
					<path class="st9" d="M735.2,743.1c-17.8,0-32.3-14.5-32.3-32.3s14.5-32.3,32.3-32.3s32.3,14.5,32.3,32.3S753,743.1,735.2,743.1
						z M735.2,692.1c-10.3,0-18.7,8.4-18.7,18.7c0,10.3,8.4,18.7,18.7,18.7c10.3,0,18.7-8.4,18.7-18.7
						C753.9,700.5,745.5,692.1,735.2,692.1z"/>
				</g>
				<g>
					<g>
						<rect x="728.4" y="651.4" class="st9" width="13.6" height="19.7"/>
					</g>
					<g>
						<rect x="728.4" y="754" class="st9" width="13.6" height="19.7"/>
					</g>
				</g>
				<g>
					<g>
						<rect x="776.6" y="705.8" class="st9" width="19.7" height="13.6"/>
					</g>
					<g>
						<rect x="674" y="705.8" class="st9" width="19.7" height="13.6"/>
					</g>
				</g>
				<g>
					<g>
						
							<rect x="761.6" y="669.5" transform="matrix(0.7071 -0.7071 0.7071 0.7071 -252.2645 743.5995)" class="st9" width="19.7" height="13.6"/>
					</g>
					<g>
						
							<rect x="689.1" y="742" transform="matrix(0.7071 -0.7071 0.7071 0.7071 -324.8174 713.5471)" class="st9" width="19.7" height="13.6"/>
					</g>
				</g>
				<g>
					<g>
						
							<rect x="764.6" y="739" transform="matrix(0.7071 -0.7071 0.7071 0.7071 -303.5679 764.7997)" class="st9" width="13.6" height="19.7"/>
					</g>
					<g>
						
							<rect x="692.1" y="666.4" transform="matrix(0.7071 -0.7071 0.7071 0.7071 -273.514 692.3422)" class="st9" width="13.6" height="19.7"/>
					</g>
				</g>
			</g>
		</g>
	</g>
	<g>
		<path class="st8" d="M829.3,602.9H646.6c-11.3,0-20.5-9.2-20.5-20.5V399.7c0-11.3,9.2-20.5,20.5-20.5h182.7
			c11.3,0,20.5,9.2,20.5,20.5v182.7C849.8,593.7,840.6,602.9,829.3,602.9z"/>
		<g>
			<g>
				<rect x="703.5" y="541.4" class="st6" width="62.7" height="8.4"/>
				<rect x="703.5" y="556.7" class="st6" width="62.7" height="8.4"/>
			</g>
			<g>
				<g>
					<path class="st9" d="M737.8,526.7c-24.3,0-44-19.8-44-44c0-24.3,19.8-44,44-44c24.3,0,44,19.8,44,44
						C781.8,507,762.1,526.7,737.8,526.7z M737.8,453.9c-15.9,0-28.8,12.9-28.8,28.8c0,15.9,12.9,28.8,28.8,28.8
						c15.9,0,28.8-12.9,28.8-28.8C766.6,466.8,753.7,453.9,737.8,453.9z"/>
				</g>
				<rect x="730.1" y="432.1" class="st9" width="16.2" height="13"/>
				<rect x="723.7" y="421.6" class="st9" width="28.1" height="12.3"/>
				<rect x="735.7" y="463.9" class="st9" width="4.1" height="22"/>
				
					<rect x="743.2" y="472.8" transform="matrix(-1.836970e-16 1 -1 -1.836970e-16 1229.1284 -261.4522)" class="st9" width="4.1" height="22"/>
			</g>
		</g>
	</g>
	<g>
		<path class="st8" d="M589.3,839.2H406.7c-11.3,0-20.5-9.2-20.5-20.5V636c0-11.3,9.2-20.5,20.5-20.5h182.7
			c11.3,0,20.5,9.2,20.5,20.5v182.7C609.9,830,600.7,839.2,589.3,839.2z"/>
		<g>
			<g>
				<rect x="461.9" y="770" class="st6" width="65.7" height="8.8"/>
				<rect x="461.9" y="786.1" class="st6" width="65.7" height="8.8"/>
			</g>
			<g>
				<g>
					<path class="st9" d="M539.5,688.8c-6.7,0-10.4-2.2-13.1-3.7c-1.9-1.1-2.6-1.5-5-1.5s-3.1,0.5-5,1.5c-2.7,1.6-6.4,3.7-13.1,3.7
						c-6.7,0-10.4-2.2-13-3.7c-1.9-1.1-2.6-1.5-5-1.5c-2.3,0-3.1,0.5-5,1.5c-2.7,1.6-6.4,3.8-13,3.8c-6.7,0-10.4-2.2-13-3.8
						c-1.9-1.1-2.6-1.5-5-1.5v-16c6.7,0,10.4,2.2,13,3.7c1.9,1.1,2.6,1.5,5,1.5c2.3,0,3.1-0.5,5-1.5c2.7-1.6,6.4-3.8,13-3.8
						c6.7,0,10.4,2.2,13.1,3.7c1.9,1.1,2.6,1.5,5,1.5c2.3,0,3.1-0.5,5-1.5c2.7-1.6,6.4-3.7,13.1-3.7s10.4,2.2,13.1,3.7
						c1.9,1.1,2.6,1.5,5,1.5V688.8z"/>
				</g>
				<g>
					<path class="st9" d="M539.5,715.4c-6.7,0-10.4-2.2-13.1-3.7c-1.9-1.1-2.6-1.5-5-1.5s-3.1,0.5-5,1.5c-2.7,1.6-6.4,3.7-13.1,3.7
						c-6.7,0-10.4-2.2-13.1-3.8c-1.9-1.1-2.6-1.5-5-1.5c-2.3,0-3.1,0.5-4.9,1.5c-2.7,1.6-6.4,3.8-13,3.8c-6.7,0-10.4-2.2-13.1-3.8
						c-1.9-1.1-2.6-1.5-5-1.5v-16c6.7,0,10.4,2.2,13,3.8c1.9,1.1,2.6,1.5,5,1.5c2.3,0,3.1-0.5,4.9-1.5c2.7-1.6,6.4-3.8,13-3.8
						c6.7,0,10.4,2.2,13.1,3.8c1.9,1.1,2.6,1.5,5,1.5c2.3,0,3.1-0.5,5-1.5c2.7-1.6,6.4-3.7,13.1-3.7s10.4,2.2,13.1,3.7
						c1.9,1.1,2.6,1.5,5,1.5V715.4z"/>
				</g>
				<g>
					<path class="st9" d="M539.5,741.9c-6.7,0-10.4-2.2-13.1-3.7c-1.9-1.1-2.6-1.5-5-1.5s-3.1,0.5-5,1.5c-2.7,1.6-6.4,3.7-13.1,3.7
						c-6.7,0-10.4-2.2-13.1-3.8c-1.9-1.1-2.6-1.5-5-1.5c-2.3,0-3.1,0.5-4.9,1.5c-2.7,1.6-6.4,3.8-13,3.8c-6.7,0-10.4-2.2-13.1-3.8
						c-1.9-1.1-2.6-1.5-5-1.5v-16c6.7,0,10.4,2.2,13,3.8c1.9,1.1,2.6,1.5,5,1.5c2.3,0,3.1-0.5,4.9-1.5c2.7-1.6,6.4-3.8,13-3.8
						c6.7,0,10.4,2.2,13.1,3.8c1.9,1.1,2.6,1.5,5,1.5c2.3,0,3.1-0.5,5-1.5c2.7-1.6,6.4-3.7,13.1-3.7s10.4,2.2,13.1,3.7
						c1.9,1.1,2.6,1.5,5,1.5V741.9z"/>
				</g>
			</g>
		</g>
	</g>
	<g>
		<path class="st8" d="M1068,839.2H885.3c-11.3,0-20.5-9.2-20.5-20.5V636c0-11.3,9.2-20.5,20.5-20.5H1068c11.3,0,20.5,9.2,20.5,20.5
			v182.7C1088.5,830,1079.3,839.2,1068,839.2z"/>
		<g>
			<g>
				<rect x="941.3" y="776.1" class="st6" width="64.1" height="8.6"/>
				<rect x="941.3" y="791.8" class="st6" width="64.1" height="8.6"/>
			</g>
			<g>
				<g>
					<path class="st9" d="M1017.6,756.2h-89.4v-47.5h-17.1l61.8-55.1l61.8,55.1h-17.1V756.2z M943.7,740.6h58.2v-40.2l-29.1-26
						l-29.1,26V740.6z"/>
				</g>
				<rect x="964.1" y="725.9" class="st9" width="17.5" height="26.5"/>
			</g>
		</g>
	</g>
	<g>
		<path class="st0" d="M336.7,727.3l-51.8,73.1c-11.9,16.8-35.3,20.8-52.1,8.9l0,0c-16.8-11.9-20.8-35.3-8.9-52.1l87.4-123.2
			l8.8,6.2C348.9,660.6,356.4,699.6,336.7,727.3z"/>
		<path class="st10" d="M309.4,698.7l-1.7,2.4c-3.9,5.5-10.5,8-16.7,6.9c-2.4-0.4-4.9-1.4-7-2.9l-15.4-10.9l32.3-45.6
			c8.1,5.7,13.1,14.2,14.7,23.3C317.1,680.9,315.2,690.6,309.4,698.7z"/>
		<path class="st11" d="M291,708c-2.4-0.4-4.9-1.4-7-2.9l-15.4-10.9l8.7-12.3c1.4,0.6,2.7,1.3,3.9,2.2
			C289.1,689.7,292.6,699.1,291,708z"/>
	</g>
	<g>
		<polygon class="st0" points="1441.7,1006.3 1275.4,1111.3 1372.6,1265.2 1605.1,1265.2 		"/>
		<g>
			<g>
				<path class="st1" d="M1231.9,588.8l7.9-5c19.4-12.3,45.1-6.5,57.3,13l171.2,271.1l-78.1,49.3L1219,646.1
					C1206.7,626.7,1212.5,601.1,1231.9,588.8z"/>
				<path class="st1" d="M1142.9,609.8l2.1-1.3c21-13.3,48.8-7,62,14L1393,916.9l-78.1,49.3l-185.9-294.5
					C1115.7,650.8,1121.9,623,1142.9,609.8z"/>
				<path class="st1" d="M1054.9,646l2.2-1.4c21.9-13.8,50.3-8,63.6,13l185.9,294.5l-81.4,51.4L1039.3,709
					C1026.1,688,1033,659.8,1054.9,646z"/>
				<path class="st0" d="M802.3,418.2l2.1-1.3c21-13.3,48.8-7,62,14l248.3,393.3l-78.1,49.3L788.3,480.2
					C775.1,459.2,781.3,431.4,802.3,418.2z"/>
				<path class="st0" d="M1178.1,667.9l2.1-1.3c21-13.3,46.9-9.9,57.9,7.4l153.7,243.5l-78.1,49.3L1160,723.3
					C1149,706,1157.1,681.2,1178.1,667.9z"/>
				<path class="st0" d="M1090.1,704.2l2.2-1.4c21.9-13.8,48.5-10.9,59.4,6.4l153.7,243.5l-81.4,51.4l-153.7-243.5
					C1059.4,743.3,1068.2,718,1090.1,704.2z"/>
				<path class="st0" d="M1264.4,642.6l7.9-5c19.4-12.3,43.3-9.2,53.5,6.9l141.5,224.2l-78.1,49.3l-141.5-224.2
					C1237.5,677.8,1245,654.9,1264.4,642.6z"/>
				<path class="st0" d="M865.1,855.4L865.1,855.4c43.7-39.3,97.8-25.2,136.3,17.6c0,0,120.4,117.2,164.1,109.8
					c22.1-3.8,58.5,33.1,149.6,144l-96.5,21c-49.7,10.8-101.3-6.2-134.9-44.3L865.1,855.4z"/>
			</g>
			<path class="st10" d="M932.9,870.4l2.2,2.4c5.9,6.1,6.7,15.3,2.5,22.3c-0.9,1.4-1.9,2.7-3.1,3.9L918,914.2l-11.9-13.3l-28.4-31.8
				c1.9-1.8,4-3.4,6.1-4.8C899.2,854.6,919.8,856.8,932.9,870.4z"/>
			<path class="st10" d="M814.2,435.9c14.7-9.3,34.1-4.9,43.4,9.8c4,6.3,4.7,12.4,3,17.9c-2.1,7.4-8.4,13.9-16.8,19.2
				c-8.4,5.3-17,8.2-24.6,6.9c-5.7-0.9-10.9-4.1-14.8-10.4C795.1,464.7,799.5,445.2,814.2,435.9z"/>
		</g>
		<path class="st0" d="M1433.8,1093.4l-105.2,66.4c-43.9,27.7-102,14.6-129.8-29.3l-198.2-313.9L1242,664.2
			c39.4-24.9,91.4-13.1,116.3,26.3l122.7,194.3C1525.5,955.4,1504.4,1048.8,1433.8,1093.4z"/>
	</g>
	<g>
		<polygon class="st2" points="1594.1,1100.1 1298.2,1268.5 1350.3,1360.1 1742,1360.1 		"/>
	</g>
	<rect x="314.1" y="284.6" class="st8" width="847" height="65.9"/>
	<g>
		<g>
			<rect x="580.3" y="303.3" class="st7" width="30.6" height="4.1"/>
			<rect x="580.3" y="310.7" class="st7" width="30.6" height="4.1"/>
		</g>
		<g>
			<rect x="580.3" y="319.2" class="st7" width="30.6" height="4.1"/>
			<rect x="580.3" y="326.7" class="st7" width="30.6" height="4.1"/>
		</g>
	</g>
	<path class="st7" d="M539.7,337.6h-181c-11,0-19.9-8.9-19.9-19.9l0,0c0-11,8.9-19.9,19.9-19.9h181c11,0,19.9,8.9,19.9,19.9l0,0
		C559.6,328.7,550.7,337.6,539.7,337.6z"/>
</g>
<g id="Layer_1">
</g>
<g id="Layer_8">
</g>
</svg>
